<?xml version="1.0" encoding="UTF-8"?>
<svg width="1441px" height="268px" viewBox="0 0 1441 268" version="1.1" xmlns="http://www.w3.org/2000/svg" xmlns:xlink="http://www.w3.org/1999/xlink">
    <title>learn_background</title>
    <defs>
        <linearGradient x1="94.0742121%" y1="61.7045066%" x2="4.27940882%" y2="61.7045066%" id="linearGradient-1">
            <stop stop-color="#FF9563" offset="0%"></stop>
            <stop stop-color="#E85C20" offset="100%"></stop>
        </linearGradient>
        <rect id="path-2" x="0" y="0" width="143" height="132"></rect>
        <linearGradient x1="36.9590964%" y1="50.5627629%" x2="94.3536938%" y2="51.0337577%" id="linearGradient-4">
            <stop stop-color="#B45525" offset="0%"></stop>
            <stop stop-color="#A52A08" offset="100%"></stop>
        </linearGradient>
        <rect id="path-5" x="0" y="0" width="264" height="138"></rect>
        <rect id="path-7" x="0" y="0" width="142" height="103" rx="8"></rect>
        <rect id="path-9" x="0" y="0" width="103" height="91" rx="8"></rect>
        <linearGradient x1="35.8855027%" y1="50.3831811%" x2="93.314565%" y2="50.7091742%" id="linearGradient-11">
            <stop stop-color="#CC5C2B" offset="0%"></stop>
            <stop stop-color="#DC541C" offset="100%"></stop>
        </linearGradient>
        <rect id="path-12" x="0" y="0" width="202" height="156" rx="8"></rect>
        <rect id="path-14" x="0" y="0" width="138" height="66" rx="8"></rect>
    </defs>
    <g id="Screens" stroke="none" stroke-width="1" fill="none" fill-rule="evenodd">
        <g id="Home---Expanded" transform="translate(0.000000, -1369.000000)">
            <g id="learn_background" transform="translate(0.000000, 1369.000000)">
                <rect id="Rectangle" fill="url(#linearGradient-1)" x="0" y="0" width="1440" height="268"></rect>
                <g id="Combined-Shape-Copy-2" transform="translate(120.000000, 133.000000)">
                    <mask id="mask-3" fill="white">
                        <use xlink:href="#path-2"></use>
                    </mask>
                    <g id="Mask"></g>
                    <path d="M125,-3.51828633 L125,112.845778 C112.306038,110.376618 99.46051,110.376618 86.4634146,112.845778 C73.4663193,115.314938 60.6207908,119.366345 47.9268293,125 L47.9268293,13.4008496 C61.0042341,5.05497269 73.8497626,-0.584739294 86.4634146,-3.51828633 C99.0770667,-6.45183336 111.922595,-6.45183336 125,-3.51828633 Z M-33,-4.82097135 C-19.7410091,-7.72634288 -6.71711437,-7.72634288 6.07168431,-4.82097135 C18.860483,-1.91559981 31.5276451,3.69029799 44.0731707,11.9967221 L44.0731707,11.9967221 L44.0731707,123.718447 C31.9164127,117.301903 19.2492506,112.870909 6.07168431,110.425464 C-7.10588194,107.98002 -20.1297767,107.98002 -33,110.425464 L-33,110.425464 Z" id="Combined-Shape-Copy" fill="#C35426" opacity="0.434361049" mask="url(#mask-3)"></path>
                </g>
                <path d="M326,193.793312 L326,235.750737 C321.388396,234.860432 316.72173,234.860432 312,235.750737 C307.27827,236.641043 302.611604,238.10186 298,240.133189 L298,199.89385 C302.750905,196.884575 307.417572,194.851062 312,193.793312 C316.582428,192.735563 321.249095,192.735563 326,193.793312 Z M269,193.783473 C273.816874,192.738842 278.548339,192.738842 283.194397,193.783473 C287.840454,194.828103 292.442322,196.843712 297,199.830298 L297,199.830298 L297,240 C292.583558,237.692923 287.98169,236.099753 283.194397,235.22049 C278.407104,234.341227 273.675638,234.341227 269,235.22049 L269,235.22049 Z" id="Combined-Shape-Copy-3" fill="#BA5C36" opacity="0.434361049"></path>
                <path d="M0,138.374484 C94.2376009,55.7078174 180.503455,10.2607389 258.797561,2.03324862 C376.238721,-10.3079868 469,37.5639578 564.304418,37.5639578 C626.211355,37.5639578 663.776549,28.1674665 677,9.37448408 L678,138.374484 L0,138.374484 Z" id="Path-2" fill="url(#linearGradient-4)" opacity="0.170270647" transform="translate(339.000000, 69.187242) scale(-1, -1) translate(-339.000000, -69.187242) "></path>
                <g id="Rectangle" transform="translate(690.000000, 0.000000)">
                    <mask id="mask-6" fill="white">
                        <use xlink:href="#path-5"></use>
                    </mask>
                    <g id="Mask"></g>
                </g>
                <g id="Rectangle-Copy-5" transform="translate(1178.000000, 0.000000)">
                    <mask id="mask-8" fill="white">
                        <use xlink:href="#path-7"></use>
                    </mask>
                    <g id="Mask"></g>
                </g>
                <g id="Rectangle-Copy-6" transform="translate(1115.000000, 81.000000)">
                    <mask id="mask-10" fill="white">
                        <use xlink:href="#path-9"></use>
                    </mask>
                    <g id="Mask"></g>
                </g>
                <path d="M598,268 C750.201587,212.626099 865.674653,180.909478 944.4192,172.85014 C1031.23084,163.965151 1185.10736,214.82407 1298.4497,192.75 C1352.56697,182.210351 1399.9003,159.627018 1440.4497,125 L1440.4497,268 L598,268 Z" id="Path-2" fill="url(#linearGradient-11)" opacity="0.297665551"></path>
                <path d="M1061,79.7933124 L1061,121.750737 C1056.3884,120.860432 1051.72173,120.860432 1047,121.750737 C1042.27827,122.641043 1037.6116,124.10186 1033,126.133189 L1033,85.8938503 C1037.75091,82.884575 1042.41757,80.8510624 1047,79.7933124 C1051.58243,78.7355625 1056.24909,78.7355625 1061,79.7933124 Z M1004,79.7834728 C1008.81687,78.7388424 1013.54834,78.7388424 1018.1944,79.7834728 C1022.84045,80.8281032 1027.44232,82.8437116 1032,85.8302979 L1032,85.8302979 L1032,126 C1027.58356,123.692923 1022.98169,122.099753 1018.1944,121.22049 C1013.4071,120.341227 1008.67564,120.341227 1004,121.22049 L1004,121.22049 Z" id="Combined-Shape" fill="#E9713A" opacity="0.357724144"></path>
                <g id="Combined-Shape-Copy" transform="translate(767.000000, 1.000000)">
                    <mask id="mask-13" fill="white">
                        <use xlink:href="#path-12"></use>
                    </mask>
                    <g id="Mask"></g>
                    <path d="M190,21.3758497 L190,126.970629 C178.450403,124.729985 166.762903,124.729985 154.9375,126.970629 C143.112097,129.211273 131.424597,132.88773 119.875,138 L119.875,36.7291501 C131.773473,29.1556691 143.460973,24.0379023 154.9375,21.3758497 C166.414027,18.7137972 178.101527,18.7137972 190,21.3758497 Z M47,19.9773635 C59.0636886,17.3408788 70.9134752,17.3408788 82.5493596,19.9773635 C94.185244,22.6138481 105.710457,27.7009302 117.125,35.2386096 L117.125,35.2386096 L117.125,136.62069 C106.064178,130.797986 94.5389641,126.777072 82.5493596,124.557949 C70.5597551,122.338826 58.7099686,122.338826 47,124.557949 L47,124.557949 Z" fill="#E9713A" opacity="0.357724144" mask="url(#mask-13)"></path>
                </g>
                <g id="Combined-Shape-Copy-4" transform="translate(1048.000000, 0.000000)">
                    <mask id="mask-15" fill="white">
                        <use xlink:href="#path-14"></use>
                    </mask>
                    <g id="Mask"></g>
                    <path d="M121,-24.5243769 L121,52.9117946 C112.43876,51.268656 103.775299,51.268656 95.0096154,52.9117946 C86.243932,54.5549333 77.5804704,57.2510017 69.0192308,61 L69.0192308,-13.2652899 C77.8390776,-18.819176 86.5025392,-22.572205 95.0096154,-24.5243769 C103.516692,-26.4765487 112.180153,-26.4765487 121,-24.5243769 Z M15,-25.5499335 C23.9423147,-27.4833555 32.7260725,-27.4833555 41.3512736,-25.5499335 C49.9764746,-23.6165114 58.5196398,-19.8859846 66.9807692,-14.3583529 L66.9807692,-14.3583529 L66.9807692,59.9885057 C58.7818379,55.7185229 50.2386727,52.7698529 41.3512736,51.1424959 C32.4638744,49.5151389 23.6801166,49.5151389 15,51.1424959 L15,51.1424959 Z" id="Combined-Shape-Copy" fill="#E9713A" opacity="0.357724144" mask="url(#mask-15)"></path>
                </g>
            </g>
        </g>
    </g>
</svg>