<?xml version="1.0" encoding="UTF-8"?>
<svg width="1441px" height="269px" viewBox="0 0 1441 269" version="1.1" xmlns="http://www.w3.org/2000/svg" xmlns:xlink="http://www.w3.org/1999/xlink">
    <title>network_background</title>
    <defs>
        <linearGradient x1="99.4154283%" y1="50%" x2="0%" y2="50%" id="linearGradient-1">
            <stop stop-color="#27E5B1" offset="0%"></stop>
            <stop stop-color="#0CA375" offset="75.8003715%"></stop>
            <stop stop-color="#0B9C73" offset="100%"></stop>
        </linearGradient>
        <linearGradient x1="35.5586014%" y1="50.7096622%" x2="94.3536938%" y2="51.3307793%" id="linearGradient-2">
            <stop stop-color="#0C936E" offset="0.0437062937%"></stop>
            <stop stop-color="#05805E" offset="100%"></stop>
        </linearGradient>
    </defs>
    <g id="Screens" stroke="none" stroke-width="1" fill="none" fill-rule="evenodd">
        <g id="Home---Expanded" transform="translate(0.000000, -3126.000000)">
            <g id="network_background" transform="translate(0.000000, 3126.000000)">
                <rect id="Rectangle" fill="url(#linearGradient-1)" x="0" y="0" width="1441" height="269"></rect>
                <g id="Group-3" opacity="0.823986235" transform="translate(393.000000, 9.000000)" fill="#0DA175" fill-rule="nonzero">
                    <path d="M415.486658,135.571429 C428.795136,135.571429 441.621648,137.588446 453.670796,141.332152 L453.670796,141.347433 C455.676396,149.690549 456.764706,158.385116 456.764706,167.354731 C456.764706,206.228154 436.786442,240.379923 406.609157,260 L345.111,259.999 L345.041597,260 L271.489362,260 C278.801062,255.275287 285.15111,249.187712 290.178144,242.095652 L290.200534,241.948025 C285.103762,249.105698 278.641336,255.245739 271.187499,260 L208.073037,260 L208.003,259.999 L186.017367,260 C186.82874,259.477918 187.625566,258.935306 188.407101,258.372902 L188.622,258.214 L188.406783,258.372873 C187.6249,258.935266 186.82764,259.47791 186.015794,260 L99.15625,260 C111.923243,251.730621 120.382815,237.342261 120.382815,220.962529 C120.382815,217.185166 119.921611,213.516611 119.073548,210 C126.903876,212.421303 133.956756,216.555064 139.773065,221.952251 C151.490842,207.207208 169.859731,197.71168 190.508689,197.71168 C197.244098,197.71168 203.735585,198.721389 209.833648,200.595469 L209.833648,200.603119 C210.848681,204.779641 211.399474,209.132098 211.399474,213.622242 C211.399474,214.59507 211.374205,215.561992 211.324285,216.522393 C211.378189,215.557239 211.403408,214.591542 211.403408,213.619947 C211.403408,209.132098 210.851828,204.773522 209.837583,200.595469 C213.785585,201.808246 217.568334,203.382627 221.144686,205.27864 C235.477468,191.735843 255.107651,183.386207 276.759292,183.386207 C285.112103,183.386207 293.162417,184.628135 300.724833,186.933229 L300.724833,186.942637 C301.98361,192.079704 302.666667,197.433167 302.666667,202.955983 L302.660242,203.485255 C302.662488,203.480932 302.664735,203.47661 302.666982,203.472287 C302.672723,203.244063 302.673862,203.01443 302.673862,202.784529 C302.673862,197.248217 301.996296,191.87138 300.750385,186.717241 C304.101604,187.751061 307.355893,188.99788 310.496577,190.441429 C333.247308,157.336342 371.782303,135.571429 415.486658,135.571429 Z M454.130258,141.142857 C467.848254,145.380393 480.563503,151.824373 491.840035,160.048847 C502.132331,154.766439 513.819658,151.783133 526.209503,151.783133 C534.079786,151.783133 541.665048,152.986206 548.790596,155.219183 L548.790596,155.228297 L548.902644,155.710412 C558.2971,158.790226 566.860696,163.714161 574.168694,170.056156 C591.140803,159.356354 611.339183,153.151574 633.014778,153.151574 C644.470278,153.151574 655.510916,154.883613 665.882425,158.098382 L665.882425,158.111503 C667.60878,165.275846 668.545561,172.741983 668.545561,180.444307 C668.545561,194.719285 665.400764,208.252796 659.769456,220.386057 L659.421,221.127 L659.728413,220.477331 C665.389087,208.319743 668.552253,194.753085 668.552253,180.440371 C668.552253,172.741983 667.614133,165.265349 665.889117,158.098382 C692.060353,166.206857 713.961914,183.738327 727.450643,206.632799 C737.100762,200.969617 748.413577,197.71168 760.508689,197.71168 C767.244098,197.71168 773.735585,198.721389 779.833648,200.595469 L779.833648,200.603119 C780.848681,204.779641 781.399474,209.132098 781.399474,213.622242 C781.399474,220.457065 780.152178,227.000308 777.872027,233.039198 L777.828,233.154 L777.873753,233.03866 C780.155129,226.999351 781.403408,220.455604 781.403408,213.619947 C781.403408,209.132098 780.851828,204.773522 779.837583,200.595469 C794.328587,205.046924 806.593242,214.370028 814.597063,226.5881 C818.322347,224.582161 822.423344,223.186327 826.766259,222.533614 C821.069463,220.999741 816.356148,217.037919 813.776119,211.815525 C813.945261,211.900574 814.115727,211.983337 814.287479,212.063773 C812.556958,209.117558 811.567164,205.700814 811.567164,202.057143 C811.567164,190.979889 820.715256,182 832,182 C843.284744,182 852.432836,190.979889 852.432836,202.057143 C852.432836,202.161658 852.432021,202.265986 852.430399,202.370122 L852.432836,202.651799 C852.432836,212.086232 846.139345,220.037702 837.556836,222.466175 C839.692836,222.758342 841.772307,223.231203 843.779403,223.868297 L843.779403,223.87295 C843.835836,224.11278 843.889832,224.353564 843.941348,224.595283 C851.129247,227.03462 857.335886,231.591058 861.814501,237.519905 C867.581802,231.581266 875.61737,227.897558 884.50431,227.897558 C887.845498,227.897558 891.065684,228.417946 894.090707,229.383819 L894.090707,229.387761 C894.594227,231.540277 894.867455,233.783466 894.867455,236.097617 C894.867455,239.12051 894.411802,242.032737 893.567722,244.764995 L893.503,244.966 L893.568852,244.764592 C894.413399,242.032141 894.869407,239.119683 894.869407,236.096434 C894.869407,233.783466 894.595789,231.537123 894.092659,229.383819 C905.539738,233.037182 914.186231,243.057417 915.956748,255.330697 C916.301965,257.723077 914.538376,259.880334 912.176707,259.995195 L911.97855,260 L882.276332,260 L882.441,259.886 L882.275551,260 L882.275551,260 L756.017367,260 C756.82874,259.477918 757.625566,258.935306 758.407101,258.372902 L758.622,258.214 L758.406783,258.372873 C757.6249,258.935266 756.82764,259.47791 756.015794,260 L625.375995,260 C626.50247,259.268942 627.61246,258.514419 628.705274,257.737116 L629.421,257.22 L628.704491,257.737125 C627.610954,258.514436 626.5004,259.268965 625.373318,260 L538.81471,260 C536.577469,260 534.469769,259.480568 532.606455,258.563988 C530.656925,259.443763 528.488941,259.953974 526.187566,259.997033 L525.870073,260 L406.735294,260 C437.115477,240.342504 457.245773,206.139318 457.245773,167.202355 C457.245773,158.223023 456.148297,149.502344 454.130258,141.142857 Z M102.676715,207.777778 C108.369395,207.777778 113.855915,208.624313 119.009918,210.195533 L119.009918,210.201946 C119.86781,213.703522 120.333333,217.3526 120.333333,221.117115 C120.333333,237.43215 111.787663,251.765525 98.8793784,260 L4.58394728,260 C1.82191682,260 -0.345078132,257.621501 0.0456914506,254.947859 C2.55460979,237.820929 17.6258821,224.656716 35.8410733,224.656716 C39.6421956,224.656716 43.3056604,225.22964 46.7470971,226.29302 L46.7470971,226.29736 C47.3199298,228.667179 47.6307692,231.136825 47.6307692,233.684597 C47.6307692,235.99454 47.3810426,238.245788 46.907162,240.412829 C47.4310999,238.116647 47.7079559,235.725076 47.7079559,233.268072 C47.7079559,230.681424 47.3934003,228.169285 46.8149949,225.761194 C50.7106646,226.970665 54.3241898,228.804106 57.5340286,231.142169 C67.2341417,217.059862 83.8319921,207.777778 102.676715,207.777778 Z M884.50431,193 C892.433863,193 899.115579,198.396111 901.146179,205.750978 C901.186577,205.898924 901.225489,206.047339 901.262499,206.196516 C901.305775,206.369521 901.346217,206.544045 901.384043,206.719556 C901.395203,206.772633 901.406442,206.825942 901.417438,206.879341 C901.4282,206.930365 901.438445,206.981301 901.44847,207.032317 C901.45955,207.089866 901.470656,207.147882 901.481476,207.206 C901.48972,207.24917 901.49754,207.292097 901.505204,207.33508 C901.522831,207.434962 901.539803,207.535084 901.555925,207.635494 C901.604869,207.939508 901.645927,208.246618 901.678971,208.556154 L901.696307,208.726931 L901.696307,208.726931 C901.701156,208.776377 901.705734,208.82576 901.710107,208.875201 C901.716329,208.946002 901.722188,209.017061 901.727623,209.088239 C901.731441,209.137825 901.734994,209.187109 901.738345,209.23645 C901.741645,209.28541 901.744774,209.334454 901.747701,209.383554 L901.771393,209.913607 L901.771393,209.913607 L901.779341,210.447991 C901.779341,219.97474 894.21982,227.718206 884.828854,227.892964 L884.50431,227.895981 L884.135649,227.892084 L883.881601,227.884849 L883.881601,227.884849 C883.870295,227.884452 883.858965,227.884035 883.847637,227.883608 C883.753307,227.880037 883.659144,227.875708 883.565181,227.870621 L883.519047,227.868079 L883.519047,227.868079 L883.30393,227.854488 L883.30393,227.854488 C883.23986,227.850074 883.175912,227.845282 883.112062,227.840139 C883.068761,227.836612 883.025468,227.832957 882.982221,227.829141 C882.904237,227.82231 882.826308,227.814902 882.748532,227.806972 C882.710079,227.802989 882.671762,227.798949 882.633481,227.794782 C882.584635,227.789539 882.535623,227.783994 882.486673,227.778243 C882.414313,227.769653 882.342615,227.76076 882.271053,227.751424 C881.717528,227.679386 881.171489,227.580619 880.634971,227.45662 L880.551287,227.436759 L880.551287,227.436759 L880.467408,227.416645 C880.425513,227.406869 880.383883,227.396635 880.342314,227.38625 C880.28077,227.370484 880.219177,227.354716 880.157717,227.338615 C880.091353,227.32166 880.025248,227.303928 879.959301,227.285811 C879.926062,227.276214 879.89245,227.266862 879.85888,227.257411 C879.206453,227.07433 878.570165,226.853301 877.951847,226.597101 C877.92063,226.583114 877.88862,226.569726 877.856659,226.556245 C871.615297,223.926528 867.229279,217.704592 867.229279,210.447991 C867.229279,200.811731 874.963574,193 884.50431,193 Z M36.5538462,186 C47.4496417,186 56.304145,194.472379 56.4893483,204.99194 L56.4923077,205.328358 L56.4923077,205.426529 C56.4923077,215.934076 47.784212,224.473305 36.9712473,224.653801 L36.6217201,224.656716 L36.5538462,224.656716 C25.5421379,224.656716 16.6153846,216.003116 16.6153846,205.328358 C16.6153846,194.653601 25.5421379,186 36.5538462,186 Z M103.057292,150 C119.369827,150 132.59375,162.933996 132.59375,178.888889 C132.59375,194.843782 119.369827,207.777778 103.057292,207.777778 C102.894166,207.777778 102.73135,207.776484 102.568852,207.773907 L102.562162,207.773929 L102.075926,207.777778 C90.5433021,207.777778 80.5672737,201.287333 75.75,191.845035 C76.1413774,192.0356 76.5376738,192.217948 76.9386573,192.391832 C74.756699,188.361613 73.5208333,183.766412 73.5208333,178.888889 C73.5208333,162.933996 86.7447562,150 103.057292,150 Z M760.508689,130 C776.540456,130 790.041995,140.531459 794.092293,154.866135 C794.106411,154.91937 794.121354,154.972729 794.136166,155.02614 C794.161548,155.114488 794.185721,155.203165 794.209533,155.291984 C794.233432,155.384202 794.257666,155.476119 794.281511,155.568187 C794.358757,155.863655 794.431218,156.160633 794.499626,156.459096 L794.553277,156.699807 L794.553277,156.699807 C794.640586,157.091725 794.720452,157.486735 794.793186,157.884143 C794.813197,157.995504 794.83293,158.106471 794.852106,158.217622 L794.882669,158.395859 L794.882669,158.395859 C794.936626,158.721117 794.986136,159.047977 795.030802,159.376325 C795.038803,159.433662 795.046398,159.490654 795.053847,159.54769 C795.089404,159.821187 795.121858,160.096318 795.150897,160.372433 C795.160532,160.462952 795.169682,160.553615 795.178464,160.644382 C795.225119,161.127417 795.261412,161.61304 795.287052,162.101406 C795.290222,162.161255 795.293209,162.221273 795.296034,162.281332 C795.301323,162.39418 795.306069,162.507218 795.310242,162.620399 L795.316849,162.814634 L795.316849,162.814634 C795.320137,162.92084 795.322931,163.027195 795.32522,163.13367 L795.329419,163.366805 L795.332958,163.85431 L795.332958,163.85431 C795.332958,182.364543 780.051855,197.405124 761.084572,197.704085 L760.508689,197.70862 L760.032971,197.705524 L760.007923,197.705189 L760.007923,197.705189 L759.767391,197.701102 L759.767391,197.701102 C759.65782,197.698872 759.548088,197.696147 759.438484,197.692928 C759.357397,197.690558 759.276733,197.687921 759.19614,197.685018 L759.004068,197.67757 L759.004068,197.67757 C758.893994,197.673042 758.783783,197.667983 758.673708,197.662428 L758.413275,197.648305 L758.413275,197.648305 L758.159823,197.632828 L758.159823,197.632828 C757.995297,197.622119 757.831091,197.610348 757.667207,197.597474 C757.588381,197.59136 757.509301,197.584889 757.430296,197.578162 L757.190279,197.556814 L757.190279,197.556814 C757.10299,197.548894 757.015612,197.540542 756.928329,197.531876 L756.578246,197.495239 L756.578246,197.495239 L756.484343,197.485005 L756.484343,197.485005 C756.352517,197.470095 756.220884,197.454618 756.08948,197.438429 C756.01341,197.429249 755.937392,197.419642 755.861451,197.409797 C755.798357,197.401405 755.735347,197.39306 755.672391,197.38455 C755.585593,197.37305 755.499247,197.361064 755.413004,197.348772 L755.366905,197.341915 C755.202978,197.318313 755.039425,197.293601 754.876253,197.267786 L754.74696,197.247412 L754.74696,197.247412 C754.629082,197.227993 754.511168,197.208283 754.393459,197.187998 C754.317509,197.175289 754.241512,197.161948 754.1656,197.148367 C754.070879,197.131006 753.976855,197.113778 753.882966,197.096183 L753.640522,197.050352 L753.640522,197.050352 L753.402109,197.002632 L753.402109,197.002632 C753.316008,196.98579 753.229721,196.968063 753.143553,196.950026 C753.072602,196.934609 753.002286,196.919654 752.93205,196.904493 C752.259398,196.760004 751.593758,196.595929 750.936065,196.41353 L750.830518,196.383075 L750.830518,196.383075 C736.306034,192.307173 725.68442,179.286598 725.68442,163.85431 C725.68442,145.157091 741.275777,130 760.508689,130 Z M190.508689,130 C206.540456,130 220.041995,140.531459 224.092293,154.866135 C224.106411,154.91937 224.121354,154.972729 224.136166,155.02614 C224.161548,155.114488 224.185721,155.203165 224.209533,155.291984 C224.233432,155.384202 224.257666,155.476119 224.281511,155.568187 C224.358757,155.863655 224.431218,156.160633 224.499626,156.459096 L224.553277,156.699807 L224.553277,156.699807 C224.640586,157.091725 224.720452,157.486735 224.793186,157.884143 C224.813197,157.995504 224.83293,158.106471 224.852106,158.217622 L224.882669,158.395859 L224.882669,158.395859 C224.936626,158.721117 224.986136,159.047977 225.030802,159.376325 C225.038803,159.433662 225.046398,159.490654 225.053847,159.54769 C225.089404,159.821187 225.121858,160.096318 225.150897,160.372433 C225.160532,160.462952 225.169682,160.553615 225.178464,160.644382 C225.225119,161.127417 225.261412,161.61304 225.287052,162.101406 C225.290222,162.161255 225.293209,162.221273 225.296034,162.281332 C225.301323,162.39418 225.306069,162.507218 225.310242,162.620399 L225.316849,162.814634 L225.316849,162.814634 C225.320137,162.92084 225.322931,163.027195 225.32522,163.13367 L225.329419,163.366805 L225.332958,163.85431 L225.332958,163.85431 C225.332958,182.364543 210.051855,197.405124 191.084572,197.704085 L190.508689,197.70862 L190.032971,197.705524 L190.007923,197.705189 L190.007923,197.705189 L189.767391,197.701102 L189.767391,197.701102 C189.65782,197.698872 189.548088,197.696147 189.438484,197.692928 C189.357397,197.690558 189.276733,197.687921 189.19614,197.685018 L189.004068,197.67757 L189.004068,197.67757 C188.893994,197.673042 188.783783,197.667983 188.673708,197.662428 L188.413275,197.648305 L188.413275,197.648305 L188.159823,197.632828 L188.159823,197.632828 C187.995297,197.622119 187.831091,197.610348 187.667207,197.597474 C187.588381,197.59136 187.509301,197.584889 187.430296,197.578162 L187.190279,197.556814 L187.190279,197.556814 C187.10299,197.548894 187.015612,197.540542 186.928329,197.531876 L186.578246,197.495239 L186.578246,197.495239 L186.484343,197.485005 L186.484343,197.485005 C186.352517,197.470095 186.220884,197.454618 186.08948,197.438429 C186.01341,197.429249 185.937392,197.419642 185.861451,197.409797 C185.798357,197.401405 185.735347,197.39306 185.672391,197.38455 C185.585593,197.37305 185.499247,197.361064 185.413004,197.348772 L185.366905,197.341915 C185.202978,197.318313 185.039425,197.293601 184.876253,197.267786 L184.74696,197.247412 L184.74696,197.247412 C184.629082,197.227993 184.511168,197.208283 184.393459,197.187998 C184.317509,197.175289 184.241512,197.161948 184.1656,197.148367 C184.070879,197.131006 183.976855,197.113778 183.882966,197.096183 L183.640522,197.050352 L183.640522,197.050352 L183.402109,197.002632 L183.402109,197.002632 C183.316008,196.98579 183.229721,196.968063 183.143553,196.950026 C183.072602,196.934609 183.002286,196.919654 182.93205,196.904493 C182.259398,196.760004 181.593758,196.595929 180.936065,196.41353 L180.830518,196.383075 L180.830518,196.383075 C166.306034,192.307173 155.68442,179.286598 155.68442,163.85431 C155.68442,145.157091 171.275777,130 190.508689,130 Z M276.5,99 C299.096911,99 317.610292,116.208098 319.250624,138.036363 C319.255006,138.1104 319.260427,138.18474 319.265651,138.259132 C319.303497,138.785539 319.330403,139.314169 319.347336,139.845273 C319.351631,139.992923 319.355617,140.140591 319.35883,140.288448 L319.365,140.699 L319.366,140.74 L319.367,140.928 L319.368794,141.206552 L319.368794,141.206552 C319.368794,152.175876 315.111373,162.167214 308.133053,169.669352 C300.41752,177.967897 289.376145,183.220234 277.086172,183.382343 L276.5,183.386207 L276.482744,183.386207 C276.255896,183.386207 276.02946,183.384474 275.803451,183.38102 C259.270763,183.128363 245.016577,173.668822 238.085106,159.990975 L238.117019,160.006602 L238.117019,160.006602 C235.246293,154.341335 233.631206,147.952858 233.631206,141.193103 C233.631206,117.890496 252.824219,99 276.5,99 Z M633.014778,37 C661.227192,37 684.832508,56.3404984 690.791672,82.2368245 C690.827884,82.3986987 690.864373,82.5603812 690.900172,82.7223158 C690.924546,82.8282163 690.94773,82.9346162 690.970616,83.0411236 C691.005151,83.2060263 691.03983,83.3708625 691.073795,83.5359528 C691.116301,83.7386085 691.15687,83.941562 691.196357,84.1448914 C691.222136,84.2814005 691.248193,84.4181529 691.27376,84.5550736 C691.296081,84.6709884 691.317411,84.7873113 691.338387,84.903754 C691.365349,85.0568958 691.39223,85.2095964 691.418502,85.3625003 C691.435636,85.4588886 691.452067,85.5561007 691.468253,85.6533941 L691.47658,85.7068561 C691.516242,85.9465065 691.554407,86.1866498 691.591065,86.4272765 C691.610262,86.5503915 691.628619,86.6736913 691.64658,86.7971161 C691.670306,86.9628836 691.693736,87.1289116 691.716449,87.2951627 L691.754615,87.5773307 L691.754615,87.5773307 C691.789977,87.84874 691.823752,88.1206462 691.855601,88.3931271 L691.877568,88.5816533 L691.877568,88.5816533 C691.900888,88.7892441 691.923416,88.9979061 691.944812,89.2068957 C691.954967,89.3042012 691.964606,89.4008569 691.974003,89.4975819 C692.026663,90.0410437 692.071902,90.5873173 692.109373,91.1356817 C692.116817,91.2434177 692.123884,91.3513819 692.130649,91.4594261 C692.141102,91.6274161 692.150901,91.7956362 692.159968,91.9640472 C692.165912,92.0735185 692.171483,92.1828888 692.176746,92.2923384 C692.203843,92.8563414 692.222777,93.4227852 692.233377,93.9912315 L692.238,94.404 L692.243456,95.0731627 L692.243456,95.0731627 C692.243456,126.825332 666.25355,152.625713 633.994232,153.138545 L633.014778,153.146325 L632.318801,153.142396 C632.257044,153.141698 632.195309,153.140908 632.133597,153.140025 L631.893138,153.13612 L631.893138,153.13612 C631.659176,153.131852 631.425149,153.126248 631.191463,153.119315 L631.019601,153.113996 L631.019601,153.113996 C630.734691,153.104723 630.450328,153.093498 630.166489,153.080312 C630.083201,153.076487 630.000491,153.072478 629.917827,153.068303 C629.68698,153.056588 629.455985,153.043595 629.225351,153.029307 L629.065341,153.019266 L629.065341,153.019266 C628.769635,153.000082 628.474447,152.978846 628.179871,152.955496 C628.149359,152.953205 628.119657,152.95083 628.089961,152.948433 C627.81399,152.926017 627.53785,152.901809 627.262264,152.875747 L627.106906,152.861046 L627.106906,152.861046 C626.862359,152.837094 626.617765,152.811822 626.373621,152.785094 C626.313519,152.778763 626.253921,152.772153 626.19435,152.765456 C625.933341,152.735836 625.672423,152.704756 625.412035,152.672018 L624.992816,152.618182 L624.992816,152.618182 C624.880556,152.602903 624.767959,152.58762 624.655464,152.572027 C624.488505,152.549298 624.322542,152.525602 624.156805,152.501233 C624.050354,152.48512 623.943186,152.469056 623.836114,152.452711 C623.534468,152.407181 623.233931,152.358993 622.934164,152.308596 L622.760998,152.278607 L622.760998,152.278607 C622.564975,152.24568 622.368952,152.211131 622.173267,152.175639 L622.023331,152.147533 L622.023331,152.147533 C621.735222,152.095236 621.44808,152.040225 621.161687,151.983187 C621.026583,151.955418 620.891273,151.927963 620.756133,151.900055 C620.628932,151.874712 620.502183,151.848128 620.375586,151.821147 C620.252051,151.793832 620.128105,151.766984 620.004306,151.739756 C619.453631,151.619758 618.906667,151.491413 618.362709,151.355687 C618.294269,151.337262 618.225007,151.319835 618.155794,151.302288 C592.635861,144.838673 573.786101,122.11427 573.786101,95.0731627 C573.786101,63.0002406 600.303683,37 633.014778,37 Z M525.5,72 C531.946672,72 538.037204,73.5204448 543.430607,76.2213247 L543.180321,75.7108434 C556.411491,82.2865928 565.506329,95.9042255 565.506329,111.646666 L565.506329,111.891566 C565.506329,133.92307 547.594885,151.783133 525.5,151.783133 C525.45922,151.783133 525.418454,151.783072 525.377702,151.78295 L525.254395,151.783133 C509.466666,151.783133 495.809857,142.714384 489.21519,129.521169 C489.38512,129.605619 489.555728,129.688915 489.727003,129.771044 C487.018523,124.392939 485.493671,118.319816 485.493671,111.891566 C485.493671,89.8600626 503.405115,72 525.5,72 Z M416.926471,-1.00044417e-11 C455.302139,-1.00044417e-11 486.411765,30.348698 486.411765,67.7857143 C486.411765,105.222731 455.302139,135.571429 416.926471,135.571429 C416.629218,135.571429 416.332401,135.569608 416.036031,135.565977 L415.147131,135.571429 C387.922277,135.571429 364.37205,120.295231 353,98.0714184 C353.760601,98.4406589 354.529072,98.7967909 355.305108,99.1394922 C350.281618,89.7629037 347.441176,79.0979058 347.441176,67.7857143 C347.441176,30.348698 378.550802,-1.00044417e-11 416.926471,-1.00044417e-11 Z" id="Combined-Shape" opacity="0.425269717"></path>
                </g>
                <path d="M1,157 C95.2376009,74.3333333 181.503455,28.8862548 259.797561,20.6587645 C377.238721,8.31752909 471.589657,74.4296266 565.304418,56.1894737 C610.050161,47.4803952 647.948689,28.7505706 679,0 L679,157 L1,157 Z" id="Path-2" fill="url(#linearGradient-2)" opacity="0.154413132" transform="translate(340.000000, 78.500000) scale(-1, -1) translate(-340.000000, -78.500000) "></path>
                <path d="M1035.52,130.84 C1035.84,130.94 1036.16,131.04 1036.48,131.16 C1036.16,131.04 1035.84,130.94 1035.52,130.86 L1035.52,130.84 Z" id="Path" fill="#3342AA" fill-rule="nonzero"></path>
            </g>
        </g>
    </g>
</svg>