<?xml version="1.0" encoding="UTF-8"?>
<svg width="14px" height="12px" viewBox="0 0 14 12" version="1.1" xmlns="http://www.w3.org/2000/svg" xmlns:xlink="http://www.w3.org/1999/xlink">
    <!-- Generator: sketchtool 53.1 (72631) - https://sketchapp.com -->
    <title>3F141ED6-06C9-46DA-989E-8EA1BE5C4109</title>
    <desc>Created with sketchtool.</desc>
    <g id="Courses-TOC" stroke="none" stroke-width="1" fill="none" fill-rule="evenodd">
        <g id="Courses-TOC-About-Copy" transform="translate(-32.000000, -359.000000)" fill="#024F9D">
            <g id="Certificate-icon" transform="translate(32.000000, 359.000000)">
                <path d="M13.75,1.86517468e-14 L0.25,1.86517468e-14 C0.11195,1.86517468e-14 0,0.11195 0,0.25 L0,8.75 C0,8.88805 0.11195,9 0.25,9 L8.25,9 L8.25,11.75 C8.25,11.851075 8.3108,11.94225 8.4043,11.98095 C8.4978,12.019775 8.604975,11.998275 8.67675,11.92675 L10,10.603525 L11.32325,11.926775 C11.3711,11.9746 11.43505,12 11.5,12 C11.532225,12 11.5647,11.993775 11.5957,11.98095 C11.6892,11.94225 11.75,11.851075 11.75,11.75 L11.75,9 L13.75,9 C13.888175,9 14,8.88805 14,8.75 L14,0.25 C14,0.11195 13.888175,1.86517468e-14 13.75,1.86517468e-14 Z M11.49755,5.950075 C11.4497,6.005975 11.395975,6.060175 11.333475,6.1161 C10.966075,6.444225 10.492425,6.625 10,6.625 C9.93845,6.625 9.877175,6.622175 9.8164,6.6166 C9.390825,6.5775 8.987975,6.403175 8.666275,6.11585 C8.604025,6.060175 8.5503,6.005975 8.50025,5.9474 C8.177725,5.5807 8,5.11095 8,4.625 C8,3.522225 8.897225,2.625 10,2.625 C11.102775,2.625 12,3.522225 12,4.625 C12,5.11095 11.822275,5.5807 11.49755,5.950075 Z M11.25,11.146475 L10.17675,10.073225 C10.127925,10.024425 10.063975,10 10,10 C9.936025,10 9.872075,10.024425 9.82325,10.07325 L8.75,11.146475 L8.75,8.75 L8.75,6.7904 C8.762125,6.7974 8.775425,6.801975 8.78765,6.80875 C8.865625,6.85205 8.945575,6.891075 9.0275,6.925725 C9.03545,6.929025 9.043125,6.9328 9.0511,6.936 C9.34985,7.058625 9.67115,7.125 10,7.125 C10.32895,7.125 10.650325,7.0586 10.949075,6.93595 C10.95685,6.932825 10.9643,6.929175 10.97205,6.925975 C11.0544,6.8912 11.13475,6.85195 11.2131,6.808425 C11.2251,6.801775 11.238125,6.797275 11.25,6.7904 L11.25,8.75 L11.25,11.146475 Z M13.5,8.5 L11.75,8.5 L11.75,6.409825 C11.795,6.3658 11.83755,6.3218 11.87525,6.2777 C12.278075,5.819575 12.5,5.232675 12.5,4.625 C12.5,3.24645 11.378425,2.125 10,2.125 C8.621575,2.125 7.5,3.24645 7.5,4.625 C7.5,5.232675 7.721925,5.819575 8.12255,6.275025 C8.1617,6.3209 8.20475,6.365475 8.25,6.409775 L8.25,8.5 L0.5,8.5 L0.5,0.5 L13.5,0.5 L13.5,8.5 Z" id="Shape" fill-rule="nonzero"></path>
                <circle id="Oval" cx="10.0333333" cy="4.66666667" r="1.16666667"></circle>
                <path d="M1.75,3 L6,3 C6.13805,3 6.25,2.88805 6.25,2.75 C6.25,2.61195 6.13805,2.5 6,2.5 L1.75,2.5 C1.61195,2.5 1.5,2.61195 1.5,2.75 C1.5,2.88805 1.61195,3 1.75,3 Z" id="Path" fill-rule="nonzero"></path>
                <path d="M1.75,4.75 L6,4.75 C6.13805,4.75 6.25,4.63805 6.25,4.5 C6.25,4.36195 6.13805,4.25 6,4.25 L1.75,4.25 C1.61195,4.25 1.5,4.36195 1.5,4.5 C1.5,4.63805 1.61195,4.75 1.75,4.75 Z" id="Path" fill-rule="nonzero"></path>
                <path d="M1.75,6.5 L6,6.5 C6.13805,6.5 6.25,6.38805 6.25,6.25 C6.25,6.11195 6.13805,6 6,6 L1.75,6 C1.61195,6 1.5,6.11195 1.5,6.25 C1.5,6.38805 1.61195,6.5 1.75,6.5 Z" id="Path" fill-rule="nonzero"></path>
            </g>
        </g>
    </g>
</svg>