<?xml version="1.0" encoding="UTF-8"?>
<svg width="24px" height="24px" viewBox="0 0 24 24" version="1.1" xmlns="http://www.w3.org/2000/svg" xmlns:xlink="http://www.w3.org/1999/xlink">
    <title>Group 3</title>
    <g id="Page-2" stroke="none" stroke-width="1" fill="none" fill-rule="evenodd">
        <g id="Notify_Thankyou" transform="translate(-320.000000, -37.000000)">
            <g id="Group-3" transform="translate(320.000000, 37.000000)">
                <circle id="Oval" fill="#FFFFFF" cx="12" cy="12" r="12"></circle>
                <path d="M12,0 C5.364,0 0,5.364 0,12 C0,18.636 5.364,24 12,24 C18.636,24 24,18.636 24,12 C24,5.364 18.636,0 12,0 L12,0 Z M18,16.308 L16.308,18 L12,13.692 L7.692,18 L6,16.308 L10.308,12 L6,7.692 L7.692,6 L12,10.308 L16.308,6 L18,7.692 L13.692,12 L18,16.308 L18,16.308 Z" id="Shape" fill="#024F9D"></path>
            </g>
        </g>
    </g>
</svg>