<?xml version="1.0" encoding="UTF-8"?>
<svg width="24px" height="20px" viewBox="0 0 24 20" version="1.1" xmlns="http://www.w3.org/2000/svg" xmlns:xlink="http://www.w3.org/1999/xlink">
    <!-- Generator: sketchtool 53.1 (72631) - https://sketchapp.com -->
    <title>1803952F-EEBD-40E2-AE35-BD2C45C74AED@1.5x</title>
    <desc>Created with sketchtool.</desc>
    <g id="Library" stroke="none" stroke-width="1" fill="none" fill-rule="evenodd">
        <g id="Library_single_textbook" transform="translate(-96.000000, -810.000000)">
            <g id="Course-enable" transform="translate(96.000000, 808.000000)">
                <g id="Group">
                    <rect id="Rectangle" fill-rule="nonzero" x="0" y="0" width="24" height="24"></rect>
                    <g id="outline-school-24px" transform="translate(0.000000, 2.000000)" fill="#7AB4EE" fill-rule="nonzero">
                        <path d="M12,0 L0,6.54545455 L4.36363636,8.92363636 L4.36363636,15.4690909 L12,19.6363636 L19.6363636,15.4690909 L19.6363636,8.92363636 L21.8181818,7.73454545 L21.8181818,15.2727273 L24,15.2727273 L24,6.54545455 L12,0 Z M19.44,6.54545455 L12,10.6036364 L4.56,6.54545455 L12,2.48727273 L19.44,6.54545455 Z M17.4545455,14.1709091 L12,17.1490909 L6.54545455,14.1709091 L6.54545455,10.1127273 L12,13.0909091 L17.4545455,10.1127273 L17.4545455,14.1709091 Z" id="Shape"></path>
                    </g>
                </g>
            </g>
        </g>
    </g>
</svg>