<?xml version="1.0" encoding="UTF-8"?>
<svg width="24px" height="17px" viewBox="0 0 24 17" version="1.1" xmlns="http://www.w3.org/2000/svg" xmlns:xlink="http://www.w3.org/1999/xlink">
    <title>B4C0CAAC-030D-4422-A5E7-A8444FC2561D</title>
    <g id="Page-1" stroke="none" stroke-width="1" fill="none" fill-rule="evenodd">
        <g id="Certificate-Download-in-Portal-Copy-2" transform="translate(-1032.000000, -211.000000)" fill="#FFFFFF" fill-rule="nonzero">
            <g id="Button" transform="translate(1016.000000, 205.000000)">
                <path d="M35.35,12.3026087 C34.67,8.7026087 31.64,6 28,6 C25.11,6 22.6,7.71130435 21.35,10.2156522 C18.34,10.5495652 16,13.2104348 16,16.4347826 C16,19.8886957 18.69,22.6956522 22,22.6956522 L35,22.6956522 C37.76,22.6956522 40,20.3582609 40,17.4782609 C40,14.7234783 37.95,12.4904348 35.35,12.3026087 Z M34.9391304,20.6086957 L22.0521739,20.6086957 C19.8613913,20.6086957 18.0869565,18.7408696 18.0869565,16.4347826 C18.0869565,14.2956522 19.6036522,12.5113043 21.616,12.2921739 L22.6766957,12.1773913 L23.1723478,11.186087 C24.114087,9.27652174 25.957913,8.08695652 28,8.08695652 C30.5972174,8.08695652 32.8375652,10.0278261 33.3431304,12.7095652 L33.6405217,14.2747826 L35.1572174,14.3895652 C36.7036522,14.493913 37.9130435,15.8608696 37.9130435,17.4782609 C37.9130435,19.2 36.5747826,20.6086957 34.9391304,20.6086957 Z M28.9913043,12.2608696 L25.9652174,12.2608696 L25.9652174,15.3913043 L23.3043478,15.3913043 L27.4782609,19.5652174 L31.6521739,15.3913043 L28.9913043,15.3913043 L28.9913043,12.2608696 Z" id="Shape"></path>
            </g>
        </g>
    </g>
</svg>