<svg id="Layer_1" data-name="Layer 1" xmlns="http://www.w3.org/2000/svg" xmlns:xlink="http://www.w3.org/1999/xlink" viewBox="0 0 1024 1024"><defs><style>.cls-1,.cls-4,.cls-6{fill:none;}.cls-1{opacity:0.08;}.cls-2{fill:#0c519b;}.cls-3{fill:#edf4f9;}.cls-4{stroke:#0c519b;stroke-dasharray:13 18;}.cls-4,.cls-6{stroke-linecap:round;stroke-miterlimit:10;}.cls-5{fill:#2c6da8;}.cls-6{stroke:#2c6da8;stroke-dasharray:12 8;}.cls-7{fill:#fff;}.cls-8{fill:#20bb83;}.cls-9{fill:#e55a28;}.cls-10{fill:#a03e20;}.cls-11{fill:#239e6f;}.cls-12{fill:#36ce94;}.cls-13{opacity:0.43;}.cls-14{clip-path:url(#clip-path);}.cls-15{fill:#e89074;}</style><clipPath id="clip-path"><path class="cls-1" d="M194.73,650.46c4.43-5,11-8.24,16.87-11.38,1.37-.72,3.93-2.62,5.42-1.74s.22,1.73-.84,3.67a77.52,77.52,0,0,1-6.13,9.21c-2.57,3.45-6.3,8.7-4.64,13.24,1.86,5.06,8.51,5.25,12.82,3.57,11.66-4.54,18.47-17,29.05-23.37.61-.37,2.74-1.13,2.92-1.53,1.11-.22.9-.45-.64-.67-1.29-.91-1.74-.6-1.37.91-2.22,2.94-3.54,7-5.79,10.09-3.27,4.53-7.27,9.74-7.52,15.5a5.45,5.45,0,0,0,2.68,4.67c9.14,5.76,18.85-2.08,24.8-8.5,4.31-4.64,9.14-8.53,13.82-12.76,1.87-1.68,9.16-10.76,11.55-10l-3.23-2.48c3.05,4.74-4.63,11.71-7,15.16-2.6,3.77-6.35,9.95-4.75,14.7,1.68,5,7.59,6.16,12.12,5,6.95-1.84,12.55-8.79,20.18-6.13,6.58,2.29,9.41-8.14,2.87-10.41-5.12-1.79-10-1.25-15,.73-2.58,1-4.86,2.48-7.32,3.74a16,16,0,0,1-2.37,1.12c-2,.37-1.78,1.16.56,2.37.8-.52,1.32-3.12,1.82-4,4.61-7.83,13.11-15.07,9.43-25.32-8.29-23.11-43.66,32.73-52.07,27.43l2.68,4.66c.13-3.19,4.19-7.48,6-10.05,2.73-3.79,5.79-8,6.88-12.67,1.39-5.94-.12-13.54-7.34-14.06-6.74-.48-13.14,5.58-18,9.51-6.28,5.14-13.25,16.46-22.23,16.29l4.66,2.68c-.41,2.49-.31,2.93.32,1.33.43-.89.87-1.79,1.33-2.67,1-1.59,2.49-3.25,3.6-4.79a66.5,66.5,0,0,0,6-9.84c2.56-5.37,2.79-13.25-3.5-16.21-5.48-2.58-12.48-.52-17.38,2.28-6.68,3.82-13.89,7.21-19.06,13.06-4.58,5.2,3,12.87,7.64,7.64Z"/></clipPath></defs><path class="cls-2" d="M331.25,461.83a.84.84,0,0,1-.44.11H329c-4.13.07-8.42.11-13,.07a1.22,1.22,0,1,1,0-2.44c4.51,0,8.8,0,12.93-.07h1.79a1.29,1.29,0,0,1,1.25,1.2A1.39,1.39,0,0,1,331.25,461.83Zm-29.5-.77a.93.93,0,0,1-.54.08,113.57,113.57,0,0,1-14.67-2.44,1.25,1.25,0,0,1-.87-1.5,1.18,1.18,0,0,1,1.47-.83,115.35,115.35,0,0,0,14.34,2.36,1.23,1.23,0,0,1,1.08,1.31A1.19,1.19,0,0,1,301.75,461.06ZM273.28,454a1.32,1.32,0,0,1-.92,0,70.91,70.91,0,0,1-13-7.37,1.21,1.21,0,0,1,1.42-2,71.37,71.37,0,0,0,12.55,7.18,1.18,1.18,0,0,1,.59,1.57A1.05,1.05,0,0,1,273.28,454ZM249.6,436.9a1.29,1.29,0,0,1-1.36-.32,68.46,68.46,0,0,1-8.75-12.17,1.2,1.2,0,0,1,2.12-1.14A67.46,67.46,0,0,0,250,435a1.2,1.2,0,0,1-.11,1.69A.49.49,0,0,1,249.6,436.9Zm1.79-17.43a60.84,60.84,0,0,1-7.82,2.44,1.23,1.23,0,0,1-1.47-.93,1.19,1.19,0,0,1,.92-1.46,54.13,54.13,0,0,0,7.5-2.34,47.94,47.94,0,0,0,5.92-2.77,1.2,1.2,0,1,1,1.14,2.12A53.45,53.45,0,0,1,251.39,419.47Zm-22.27,4.18c-.11.05-.28.05-.39.11a144.29,144.29,0,0,1-14.82-.33,1.21,1.21,0,0,1-1.14-1.3,1.22,1.22,0,0,1,1.3-1.15,135.23,135.23,0,0,0,14.61.33,1.22,1.22,0,0,1,1.25,1.2A1.25,1.25,0,0,1,229.12,423.65Zm39.71-16.25a1.1,1.1,0,0,1-1.2-.21,1.22,1.22,0,0,1-.16-1.69,31.13,31.13,0,0,0,4.08-6.3,23.83,23.83,0,0,0,2-6.25,1.21,1.21,0,1,1,2.38.44,26.29,26.29,0,0,1-2.22,6.9,33.67,33.67,0,0,1-4.4,6.79A1.32,1.32,0,0,1,268.83,407.4Zm-33.36,4c-.05,0-.11.05-.16.05a1.19,1.19,0,0,1-1.47-.87,43.26,43.26,0,0,1-1.36-15,1.23,1.23,0,0,1,1.31-1.09,1.21,1.21,0,0,1,1.08,1.31A42.86,42.86,0,0,0,236.18,410,1.22,1.22,0,0,1,235.47,411.37Zm-35.75,10.86a.87.87,0,0,1-.54.06L194,422c-3.37-.16-6.46-.21-9.45-.21a1.23,1.23,0,0,1-.06-2.45c3.05-.05,6.2.06,9.62.22l5.22.32a1.27,1.27,0,0,1,1.14,1.31A1.29,1.29,0,0,1,199.72,422.23Zm-67.14,21.3a1.1,1.1,0,0,1-1.14-.16,1.2,1.2,0,0,1-.27-1.69,49.55,49.55,0,0,1,10.7-10.59,1.21,1.21,0,0,1,1.41,2,45.72,45.72,0,0,0-10.16,10.05A1.16,1.16,0,0,1,132.58,443.53Zm37.7-20.75a.52.52,0,0,1-.27.05,72.06,72.06,0,0,0-14,3.53,1.27,1.27,0,0,1-1.57-.7,1.2,1.2,0,0,1,.71-1.52,76.12,76.12,0,0,1,14.5-3.64,1.18,1.18,0,0,1,1.36,1A1,1,0,0,1,170.28,422.78Zm103.28-42.92a1.2,1.2,0,0,1-1.53-.65,15.39,15.39,0,0,0-7.66-8,14.48,14.48,0,0,0-2.17-.82,1.22,1.22,0,1,1,.71-2.33,13.41,13.41,0,0,1,2.5.92,17.93,17.93,0,0,1,8.85,9.24,1.24,1.24,0,0,1-.7,1.68Zm-35.15,2.93a1.33,1.33,0,0,1-1.09-.1,1.24,1.24,0,0,1-.44-1.69,30.39,30.39,0,0,1,10.82-10.65,1.19,1.19,0,0,1,1.19,2.07A27.47,27.47,0,0,0,239,382.2.85.85,0,0,1,238.41,382.79Z"/><path class="cls-3" d="M226.73,643.53c-30.44-51.69-14-131.51,24.9-191.16,39.2-60,101.29-99.58,167.29-134.95,66.56-35.49,137.68-66.3,202.81-56.17S746.59,322.34,786.34,384.5c40.08,62.39,60.21,136,44.79,198.94-15.74,62.74-67.58,114.95-120.8,143.16s-108.29,33.08-158.24,32-95.59-7.71-156.64-23C334.07,720,256.94,695.56,226.73,643.53Z"/><path class="cls-4" d="M196.41,654.59C163,597.91,181,510.38,223.72,445c43-65.78,111.06-109.18,183.43-148,73-38.91,151-72.7,222.39-61.6s136.91,67,180.5,135.15c44,68.42,66,149.11,49.12,218.15-17.26,68.79-74.11,126-132.46,157S608,782,553.18,780.75s-104.81-8.45-171.76-25.24C314.11,738.47,229.54,711.65,196.41,654.59Z"/><path class="cls-5" d="M666.33,693.8,423.08,655.59a12.33,12.33,0,0,1-10.23-14.07l50.8-323.25A12.31,12.31,0,0,1,477.73,308L721,346.27a12.3,12.3,0,0,1,10.23,14.07L680.39,683.6A12.34,12.34,0,0,1,666.33,693.8Z"/><path class="cls-6" d="M633,697.08l-246.14,5.45a12.23,12.23,0,0,1-12.52-12L367,363.4a12.23,12.23,0,0,1,12-12.53l246.14-5.44a12.22,12.22,0,0,1,12.53,12L645,684.53A12.28,12.28,0,0,1,633,697.08Z"/><path class="cls-7" d="M653.05,717.1,406.9,722.54a12.23,12.23,0,0,1-12.52-12l-7.33-327.11a12.22,12.22,0,0,1,12-12.52l246.14-5.45a12.21,12.21,0,0,1,12.53,12L665,704.55A12.29,12.29,0,0,1,653.05,717.1Z"/><path class="cls-5" d="M792.44,653.83c22.41-20.3,24.31-54.74,4.23-76.91s-54.53-23.69-76.95-3.39-24.31,54.73-4.23,76.91S770,674.13,792.44,653.83Z"/><path class="cls-5" d="M823.39,705.15,761.5,636.46a11.3,11.3,0,0,1,.79-15.91l.07-.09a11.31,11.31,0,0,1,15.91.79l61.89,68.69a11.29,11.29,0,0,1-.79,15.91l-.06.09A11.27,11.27,0,0,1,823.39,705.15Z"/><path class="cls-7" d="M783.21,643.64c16.75-15.16,18.18-40.87,3.2-57.41S745.7,568.56,729,583.72s-18.17,40.87-3.19,57.42S766.46,658.81,783.21,643.64Z"/><circle class="cls-8" cx="484.63" cy="513.71" r="7.53"/><circle class="cls-8" cx="564.7" cy="513.71" r="7.53"/><path class="cls-8" d="M545.93,548.7a2,2,0,0,1-2-2,19.27,19.27,0,0,0-38.53,0,2,2,0,0,1-4,0,23.27,23.27,0,0,1,46.53,0A2,2,0,0,1,545.93,548.7Z"/><ellipse class="cls-9" cx="251.84" cy="604.1" rx="66.53" ry="11.98"/><ellipse class="cls-10" cx="251.84" cy="604.1" rx="52.36" ry="9.42"/><path class="cls-9" d="M184.42,609.78s9.7,31.66,15.45,53.92a26.76,26.76,0,0,0,25.92,20h50.74a26.77,26.77,0,0,0,25.69-19.21l16.14-54.76S251.84,630,184.42,609.78Z"/><path class="cls-11" d="M249.3,528.72c3.25,10.1,6.5,22.68,8.77,31.61,6.78,26.79,3.45,43.11-1.14,44.58-4.16,1.34-12.68-12.69-21.81-34.54-4.27-10.22-12-21.42-16.12-34.3-4.26-13.22-4.43-26.53-7-37.53-5.18-22.61,3.3-56.81,7.41-58.13s4.92,30.86,13.64,51.25C237.69,502.43,244.8,514.77,249.3,528.72Z"/><path class="cls-8" d="M267,504.4c.73,14.49.71,32.24.64,44.83-.2,37.76-8.9,58-14.6,58.33-5.18.26-10.79-21.32-14.76-53.42-1.85-15-7.35-32.56-8.28-51-.95-19,2.83-36.57,3.22-52,.79-31.67,20.74-73.66,25.85-73.91s-3.55,42.45.38,72.48C261.53,465.55,266,484.38,267,504.4Z"/><path class="cls-12" d="M281.64,537.52c-2.06,10.27-5.19,22.7-7.45,31.5-6.79,26.41-16.33,39.11-20.29,38.32-3.6-.72-3.65-16.81-.72-40,1.37-10.84.68-24.08,3.3-37.18,2.69-13.45,8.37-25.11,11.35-35.84,6.12-22,27.19-48,30.75-47.27s-9.91,29.11-12.5,50.83C284.71,509.36,284.47,523.33,281.64,537.52Z"/><g class="cls-13"><g class="cls-14"><path class="cls-9" d="M184.42,609.78s9.7,31.66,15.45,53.92a26.76,26.76,0,0,0,25.92,20h50.74a26.77,26.77,0,0,0,25.69-19.21l16.14-54.76S251.84,630,184.42,609.78Z"/><path class="cls-15" d="M184.34,609.9s9.7,31.66,15.45,53.92a26.77,26.77,0,0,0,25.93,20.06h50.73a26.8,26.8,0,0,0,25.7-19.22l16.13-54.76S251.77,630.12,184.34,609.9Z"/></g></g></svg>