<svg xmlns="http://www.w3.org/2000/svg" xmlns:xlink="http://www.w3.org/1999/xlink" viewBox="0 0 734.4 548.64"><defs><style>.cls-1,.cls-4,.cls-6{fill:none;}.cls-1{opacity:0.08;}.cls-2{fill:#0c519b;}.cls-3{fill:#edf4f9;}.cls-4{stroke:#0c519b;stroke-dasharray:13 18;}.cls-4,.cls-6{stroke-linecap:round;stroke-miterlimit:10;}.cls-5{fill:#2c6da8;}.cls-6{stroke:#2c6da8;stroke-dasharray:12 8;}.cls-7{fill:#fff;}.cls-8{fill:#20bb83;}.cls-9{fill:#e55a28;}.cls-10{fill:#a03e20;}.cls-11{fill:#239e6f;}.cls-12{fill:#36ce94;}.cls-13{opacity:0.43;}.cls-14{clip-path:url(#clip-path);}.cls-15{fill:#e89074;}</style><clipPath id="clip-path"><path class="cls-1" d="M63.79,417.7c4.43-5,11-8.24,16.87-11.38,1.37-.72,3.93-2.62,5.42-1.74s.22,1.73-.84,3.67a77.52,77.52,0,0,1-6.13,9.21c-2.57,3.45-6.3,8.7-4.64,13.24,1.86,5.06,8.51,5.25,12.82,3.57,11.66-4.55,18.47-17,29.05-23.37.61-.37,2.74-1.13,2.92-1.53,1.11-.22.9-.45-.64-.67-1.29-.91-1.74-.6-1.37.91-2.22,2.94-3.54,7-5.79,10.09-3.27,4.53-7.27,9.74-7.52,15.5a5.45,5.45,0,0,0,2.68,4.67c9.14,5.76,18.84-2.08,24.8-8.5,4.31-4.64,9.14-8.53,13.82-12.76,1.87-1.68,9.16-10.76,11.54-10l-3.22-2.48c3.05,4.74-4.63,11.71-7,15.16-2.6,3.77-6.35,9.95-4.75,14.7,1.68,5,7.59,6.16,12.12,5,6.95-1.84,12.55-8.79,20.18-6.13,6.58,2.29,9.41-8.14,2.87-10.41-5.12-1.79-10-1.25-15,.73-2.58,1-4.86,2.48-7.32,3.74a16,16,0,0,1-2.37,1.12c-2,.37-1.78,1.16.56,2.37.79-.52,1.32-3.12,1.82-4,4.61-7.82,13.11-15.06,9.43-25.31-8.29-23.11-43.67,32.73-52.07,27.43l2.68,4.66c.13-3.19,4.19-7.48,6-10.05,2.73-3.79,5.79-8,6.88-12.67,1.39-5.94-.13-13.55-7.35-14.06-6.73-.48-13.14,5.58-17.94,9.51-6.28,5.14-13.25,16.46-22.23,16.29l4.66,2.68c-.41,2.49-.31,2.93.32,1.33.43-.9.87-1.79,1.33-2.67,1-1.59,2.49-3.25,3.59-4.79a65.72,65.72,0,0,0,6-9.84c2.56-5.37,2.79-13.25-3.5-16.22-5.48-2.57-12.48-.51-17.38,2.29-6.68,3.82-13.89,7.2-19.06,13.06-4.58,5.2,3,12.87,7.64,7.64Z"/></clipPath></defs><g id="Layer_2" data-name="Layer 2"><g id="Layer_1-2" data-name="Layer 1"><path class="cls-2" d="M200.31,229.07a.84.84,0,0,1-.44.11h-1.79c-4.13.07-8.42.11-13,.07a1.22,1.22,0,1,1,.05-2.44c4.51,0,8.8,0,12.93-.07h1.79a1.29,1.29,0,0,1,1.25,1.2A1.39,1.39,0,0,1,200.31,229.07Zm-29.5-.77a.94.94,0,0,1-.54.08,113.57,113.57,0,0,1-14.67-2.44,1.25,1.25,0,0,1-.87-1.5,1.17,1.17,0,0,1,1.46-.83A115.83,115.83,0,0,0,170.54,226a1.23,1.23,0,0,1,1.08,1.31A1.19,1.19,0,0,1,170.81,228.3Zm-28.47-7.06a1.32,1.32,0,0,1-.92,0,71.5,71.5,0,0,1-13-7.37,1.21,1.21,0,0,1,1.42-2,71.37,71.37,0,0,0,12.55,7.18,1.18,1.18,0,0,1,.59,1.57A1.05,1.05,0,0,1,142.34,221.24Zm-23.68-17.1a1.29,1.29,0,0,1-1.36-.32,68.82,68.82,0,0,1-8.75-12.17,1.2,1.2,0,1,1,2.12-1.14,67.46,67.46,0,0,0,8.42,11.73,1.2,1.2,0,0,1-.11,1.69A.49.49,0,0,1,118.66,204.14Zm1.79-17.44a59.33,59.33,0,0,1-7.82,2.45,1.23,1.23,0,0,1-1.47-.93,1.19,1.19,0,0,1,.92-1.46,54.13,54.13,0,0,0,7.5-2.34,49.45,49.45,0,0,0,5.92-2.77,1.2,1.2,0,0,1,1.14,2.12A53.41,53.41,0,0,1,120.45,186.7Zm-22.27,4.19c-.11.05-.28.05-.39.1A141.42,141.42,0,0,1,83,190.67a1.22,1.22,0,0,1-1.14-1.3,1.24,1.24,0,0,1,1.31-1.15,135.23,135.23,0,0,0,14.61.33,1.22,1.22,0,0,1,1.25,1.2A1.25,1.25,0,0,1,98.18,190.89Zm39.71-16.25a1.1,1.1,0,0,1-1.2-.21,1.22,1.22,0,0,1-.16-1.69,30.66,30.66,0,0,0,4.07-6.3,23.11,23.11,0,0,0,2-6.25,1.25,1.25,0,0,1,1.42-1,1.23,1.23,0,0,1,1,1.42,26.29,26.29,0,0,1-2.22,6.9,33.67,33.67,0,0,1-4.4,6.79A1.32,1.32,0,0,1,137.89,174.64Zm-33.36,4s-.11,0-.16,0a1.2,1.2,0,0,1-1.47-.87,43.26,43.26,0,0,1-1.36-15,1.23,1.23,0,0,1,1.31-1.09,1.21,1.21,0,0,1,1.08,1.31,42.6,42.6,0,0,0,1.31,14.18A1.22,1.22,0,0,1,104.53,178.61ZM68.78,189.47a.87.87,0,0,1-.54.06l-5.16-.33c-3.37-.16-6.46-.22-9.45-.22a1.22,1.22,0,1,1-.06-2.44c3,0,6.2.06,9.62.22l5.22.32a1.27,1.27,0,0,1,1.14,1.31A1.29,1.29,0,0,1,68.78,189.47ZM1.64,210.77a1.1,1.1,0,0,1-1.14-.16,1.2,1.2,0,0,1-.27-1.69,49.55,49.55,0,0,1,10.7-10.59,1.2,1.2,0,1,1,1.41,1.95A46,46,0,0,0,2.18,210.34,1.16,1.16,0,0,1,1.64,210.77ZM39.34,190a.52.52,0,0,1-.27,0,72.06,72.06,0,0,0-14,3.53,1.27,1.27,0,0,1-1.57-.7,1.2,1.2,0,0,1,.71-1.52,75.93,75.93,0,0,1,14.5-3.64,1.18,1.18,0,0,1,1.36,1A1,1,0,0,1,39.34,190ZM142.61,147.1a1.19,1.19,0,0,1-1.52-.65,15.39,15.39,0,0,0-7.66-8,14.48,14.48,0,0,0-2.17-.82,1.22,1.22,0,1,1,.71-2.33,13.06,13.06,0,0,1,2.49.92,17.9,17.9,0,0,1,8.86,9.24,1.24,1.24,0,0,1-.71,1.68ZM107.47,150a1.29,1.29,0,0,1-1.09-.11,1.23,1.23,0,0,1-.44-1.68,30.31,30.31,0,0,1,10.82-10.65,1.19,1.19,0,0,1,1.19,2.07,27.47,27.47,0,0,0-9.94,9.78A.87.87,0,0,1,107.47,150Z"/><path class="cls-3" d="M95.79,410.77c-30.44-51.69-14.05-131.51,24.9-191.16C159.89,159.62,222,120,288,84.66c66.56-35.49,137.69-66.3,202.82-56.17S615.65,89.58,655.4,151.74c40.08,62.39,60.2,136,44.79,198.94-15.74,62.74-67.58,115-120.8,143.16s-108.29,33.08-158.24,32-95.59-7.71-156.64-23C203.13,487.27,126,462.8,95.79,410.77Z"/><path class="cls-4" d="M65.47,421.83C32.09,365.15,50.06,277.62,92.78,212.21c43-65.78,111.06-109.18,183.43-148,73-38.91,151-72.7,222.39-61.6s136.91,67,180.5,135.15c43.95,68.42,66,149.11,49.12,218.15C711,424.73,654.11,482,595.76,512.92S477,549.19,422.24,548s-104.81-8.45-171.76-25.24C183.17,505.71,98.6,478.88,65.47,421.83Z"/><path class="cls-5" d="M535.39,461,292.14,422.83a12.33,12.33,0,0,1-10.23-14.07l50.8-323.25a12.31,12.31,0,0,1,14.08-10.23L590,113.5a12.3,12.3,0,0,1,10.22,14.08l-50.8,323.26A12.34,12.34,0,0,1,535.39,461Z"/><path class="cls-6" d="M502.09,464.32,256,469.77a12.23,12.23,0,0,1-12.52-12l-7.34-327.1a12.23,12.23,0,0,1,12-12.53l246.14-5.44a12.22,12.22,0,0,1,12.53,12l7.27,327.1A12.28,12.28,0,0,1,502.09,464.32Z"/><path class="cls-7" d="M522.1,484.34,276,489.78a12.23,12.23,0,0,1-12.52-12l-7.33-327.11a12.22,12.22,0,0,1,12-12.52l246.14-5.45a12.21,12.21,0,0,1,12.53,12l7.28,327.1A12.3,12.3,0,0,1,522.1,484.34Z"/><path class="cls-5" d="M661.49,421.07c22.42-20.3,24.32-54.74,4.24-76.91s-54.53-23.69-77-3.39-24.31,54.73-4.23,76.91S639.08,441.37,661.49,421.07Z"/><path class="cls-5" d="M692.45,472.39,630.56,403.7a11.3,11.3,0,0,1,.79-15.91l.07-.09a11.3,11.3,0,0,1,15.91.79l61.89,68.69a11.3,11.3,0,0,1-.79,15.91l-.07.08A11.25,11.25,0,0,1,692.45,472.39Z"/><path class="cls-7" d="M652.27,410.88c16.75-15.16,18.18-40.87,3.2-57.42S614.76,335.8,598,351s-18.17,40.87-3.19,57.42S635.52,426.05,652.27,410.88Z"/><circle class="cls-8" cx="353.69" cy="280.95" r="7.53"/><circle class="cls-8" cx="433.76" cy="280.95" r="7.53"/><path class="cls-8" d="M415,315.94a2,2,0,0,1-2-2,19.27,19.27,0,0,0-38.53,0,2,2,0,0,1-4,0,23.27,23.27,0,0,1,46.53,0A2,2,0,0,1,415,315.94Z"/><ellipse class="cls-9" cx="120.9" cy="371.34" rx="66.53" ry="11.98"/><ellipse class="cls-10" cx="120.9" cy="371.34" rx="52.36" ry="9.42"/><path class="cls-9" d="M53.48,377s9.7,31.67,15.44,53.93A26.78,26.78,0,0,0,94.85,451h50.74a26.77,26.77,0,0,0,25.69-19.21L187.42,377S120.9,397.24,53.48,377Z"/><path class="cls-11" d="M118.36,296c3.25,10.1,6.5,22.68,8.76,31.61,6.79,26.79,3.45,43.11-1.13,44.58-4.16,1.34-12.69-12.69-21.81-34.54-4.27-10.22-12-21.42-16.12-34.3-4.26-13.22-4.43-26.53-7-37.53-5.18-22.61,3.3-56.81,7.41-58.14s4.92,30.87,13.64,51.26C106.75,269.67,113.86,282,118.36,296Z"/><path class="cls-8" d="M136.07,271.64c.73,14.49.71,32.24.64,44.83-.2,37.76-8.9,58-14.6,58.33-5.19.26-10.79-21.32-14.76-53.42-1.85-15-7.35-32.56-8.28-51-.95-19,2.83-36.57,3.22-52,.79-31.67,20.74-73.66,25.85-73.91s-3.55,42.45.38,72.48C130.59,232.79,135.07,251.62,136.07,271.64Z"/><path class="cls-12" d="M150.69,304.76c-2.05,10.27-5.18,22.7-7.44,31.5-6.79,26.41-16.33,39.11-20.29,38.32-3.6-.72-3.65-16.81-.72-40,1.37-10.84.68-24.08,3.3-37.18,2.68-13.45,8.37-25.11,11.35-35.84,6.12-22,27.19-48,30.75-47.27s-9.91,29.11-12.5,50.83C153.77,276.6,153.53,290.57,150.69,304.76Z"/><g class="cls-13"><g class="cls-14"><path class="cls-9" d="M53.48,377s9.7,31.67,15.44,53.93A26.78,26.78,0,0,0,94.85,451h50.74a26.77,26.77,0,0,0,25.69-19.21L187.42,377S120.9,397.24,53.48,377Z"/><path class="cls-15" d="M53.4,377.14s9.7,31.66,15.45,53.92a26.76,26.76,0,0,0,25.93,20.05h50.73a26.79,26.79,0,0,0,25.7-19.21l16.13-54.76S120.83,397.36,53.4,377.14Z"/></g></g></g></g></svg>