<?xml version="1.0" encoding="UTF-8"?>
<svg width="20px" height="19px" viewBox="0 0 20 19" version="1.1" xmlns="http://www.w3.org/2000/svg" xmlns:xlink="http://www.w3.org/1999/xlink">
    <title>B32404FA-5A47-42AC-B2F4-9AEE7F42345D</title>
    <g id="Search-page" stroke="none" stroke-width="1" fill="none" fill-rule="evenodd">
        <g id="Explore-by-Categories-" transform="translate(-312.000000, -159.000000)" fill="#0531FF" fill-rule="nonzero">
            <g id="Group" transform="translate(312.000000, 159.000000)">
                <path d="M1.04166667,3.58333333 L3.83333333,3.58333333 C4.20833333,4.5 5.10416667,5.16666667 6.16666667,5.16666667 C7.22916667,5.16666667 8.125,4.52083333 8.5,3.58333333 L18.9583333,3.58333333 C19.4791667,3.58333333 19.8958333,3.16666667 19.8958333,2.64583333 C19.8958333,2.125 19.4791667,1.70833333 18.9583333,1.70833333 L8.5,1.70833333 C8.125,0.75 7.22916667,0.104166667 6.16666667,0.104166667 C5.10416667,0.104166667 4.20833333,0.75 3.83333333,1.6875 L1.04166667,1.6875 C0.520833333,1.6875 0.104166667,2.10416667 0.104166667,2.625 C0.104166667,3.14583333 0.520833333,3.58333333 1.04166667,3.58333333 Z" id="Path"></path>
                <path d="M18.9583333,8.22916667 L16.1666667,8.22916667 C15.7916667,7.3125 14.8958333,6.64583333 13.8333333,6.64583333 C12.7708333,6.64583333 11.875,7.29166667 11.5,8.22916667 L1.04166667,8.22916667 C0.520833333,8.22916667 0.104166667,8.64583333 0.104166667,9.16666667 C0.104166667,9.6875 0.520833333,10.1041667 1.04166667,10.1041667 L11.5,10.1041667 C11.875,11.0208333 12.7708333,11.6875 13.8333333,11.6875 C14.8958333,11.6875 15.7916667,11.0416667 16.1666667,10.1041667 L18.9583333,10.1041667 C19.4791667,10.1041667 19.8958333,9.6875 19.8958333,9.16666667 C19.8958333,8.64583333 19.4791667,8.22916667 18.9583333,8.22916667 Z" id="Path"></path>
                <path d="M18.9583333,14.75 L8.5,14.75 C8.125,13.8333333 7.22916667,13.1666667 6.16666667,13.1666667 C5.10416667,13.1666667 4.20833333,13.8125 3.83333333,14.75 L1.04166667,14.75 C0.520833333,14.75 0.104166667,15.1666667 0.104166667,15.6875 C0.104166667,16.2083333 0.520833333,16.625 1.04166667,16.625 L3.83333333,16.625 C4.20833333,17.5416667 5.10416667,18.2083333 6.16666667,18.2083333 C7.22916667,18.2083333 8.125,17.5625 8.5,16.625 L18.9583333,16.625 C19.4791667,16.625 19.8958333,16.2083333 19.8958333,15.6875 C19.8958333,15.1875 19.4791667,14.75 18.9583333,14.75 Z" id="Path"></path>
            </g>
        </g>
    </g>
</svg>