<?xml version="1.0" encoding="UTF-8"?>
<svg width="24px" height="24px" viewBox="0 0 24 24" version="1.1" xmlns="http://www.w3.org/2000/svg" xmlns:xlink="http://www.w3.org/1999/xlink">
    <title>8B4CB432-FD76-4469-94B8-BCC3D605009F</title>
    <g id="Profile-Page" stroke="none" stroke-width="1" fill="none" fill-rule="evenodd">
        <g id="Self-Declaration-Teacher-04.4" transform="translate(-304.000000, -325.000000)" fill-rule="nonzero">
            <g id="Group-3-Copy-6" transform="translate(16.000000, 290.000000)">
                <g id="Green" transform="translate(288.000000, 35.000000)">
                    <path d="M12,0 C18.627417,0 24,5.372583 24,12 C24,18.627417 18.627417,24 12,24 C5.372583,24 0,18.627417 0,12 C0,5.372583 5.372583,0 12,0 Z" id="Oval" fill="#008840"></path>
                    <path d="M12,2 C6.4771525,2 2,6.4771525 2,12 C2,17.5228475 6.4771525,22 12,22 C17.5228475,22 22,17.5228475 22,12 C22,6.4771525 17.5228475,2 12,2 Z" id="Path" fill="#008840"></path>
                    <polygon id="Path" fill="#FFFFFF" points="16.59 7 10 13.9957537 7.41 11.2569002 6 12.7537155 10 17 18 8.507431"></polygon>
                </g>
            </g>
        </g>
    </g>
</svg>