<?xml version="1.0" encoding="UTF-8"?>
<svg width="298px" height="107px" viewBox="0 0 298 107" version="1.1" xmlns="http://www.w3.org/2000/svg" xmlns:xlink="http://www.w3.org/1999/xlink">
    <title>A2C9BCA2-0428-4941-AC51-18B1A43C3585</title>
    <g id="Onboard-" stroke="none" stroke-width="1" fill="none" fill-rule="evenodd" fill-opacity="0.25">
        <g id="On-boarding---01-" transform="translate(-31.000000, -58.000000)" fill="#FFFFFF">
            <g id="Combined-Shape" transform="translate(0.000000, 24.000000)">
                <path d="M103.855515,34 C130.382123,34 133.698435,151.463521 133.698435,151.463521 C133.698435,151.463521 142.982942,97.7091439 160.226015,97.7091439 C177.468116,97.7091439 156.909703,157.435798 165.530754,156.10895 C174.152776,154.782101 168.183609,45.2816149 192.72179,74.4810317 C217.259,103.681421 205.985094,148.808852 232.512674,148.144942 C259.039283,147.482004 223.228167,126.908561 238.48087,106.999028 C253.734544,87.0904672 292.198514,133.544748 295.514826,145.490273 C295.514826,145.490273 293.525428,81.1172186 311.430986,81.1172186 C329.337515,81.1172186 330,173.363813 330,173.363813 L51.4638118,180 C51.4638118,180 23.6102902,104.345331 32.8947974,81.1172186 C42.1793046,57.8910505 73.349138,105.672179 79.3173335,123.590953 C79.3173335,123.590953 77.327935,34 103.855515,34 Z M190.40367,101.266936 L190.299335,101.27128 C189.947796,101.312066 189.687558,101.607185 189.680874,101.951683 L189.68546,102.046707 L197.141831,166.402358 L197.159094,166.495911 C197.24437,166.82974 197.565183,167.057444 197.916722,167.016657 C198.268261,166.975871 198.528499,166.680752 198.535183,166.336255 L198.530597,166.24123 L191.074226,101.885579 L191.056963,101.792026 C190.988742,101.524963 190.769778,101.32582 190.504933,101.277728 L190.40367,101.266936 Z M48.335891,101.391925 C48.1829885,101.081507 47.8197662,100.923816 47.4816145,101.036221 C47.1127218,101.158845 46.9133573,101.556472 47.0363216,101.924345 L47.0363216,101.924345 L68.6277997,166.519717 L68.664109,166.608075 C68.8170115,166.918493 69.1802338,167.076184 69.5183855,166.963779 C69.8872782,166.841155 70.0866427,166.443528 69.9636784,166.075655 L69.9636784,166.075655 L48.3722003,101.480283 Z M314.364402,112.459188 L314.269397,112.462696 C313.917418,112.499482 313.653845,112.791623 313.64325,113.136022 L313.646756,113.231092 L313.899467,115.837175 L314.082391,117.866885 C314.227307,119.520289 314.370794,121.269228 314.508537,123.089596 L314.57691,124.005621 L314.681686,125.461477 C315.022224,130.305279 315.274524,135.052524 315.406304,139.522118 C315.747254,151.086122 315.244621,159.49832 313.695761,163.257055 C313.548587,163.614215 313.718613,164.023141 314.075526,164.170417 C314.432439,164.317693 314.841083,164.147549 314.988257,163.79039 C316.556117,159.985543 317.094997,152.134197 316.850987,141.293058 L316.836627,140.687703 L316.803766,139.480859 C316.672705,135.03564 316.423169,130.320491 316.086579,125.509729 L315.971201,123.902839 L315.902612,122.983918 C315.792069,121.52302 315.677838,120.107972 315.562127,118.751083 L315.475102,117.744514 L315.32939,116.118499 C315.291087,115.700397 315.254149,115.304494 315.218804,114.932058 L315.183997,114.567493 L315.037263,113.085768 C315.003844,112.765565 314.759534,112.518477 314.456817,112.468232 L314.364402,112.459188 Z M253.218707,122.041478 C252.998237,122.310217 253.011272,122.694127 253.233612,122.946926 L253.315444,123.025998 L254.206491,123.787339 L255.040964,124.526405 C255.718031,125.134296 256.447021,125.808192 257.217524,126.543667 C260.15385,129.346499 263.090409,132.462042 265.829676,135.80551 C273.107521,144.68863 277.673641,153.522628 278.226807,161.705553 C278.252863,162.091006 278.586241,162.382339 278.971427,162.356264 C279.356613,162.33019 279.647745,161.996581 279.621688,161.611129 C279.044783,153.077025 274.356192,144.006083 266.910835,134.918503 C264.132676,131.527565 261.157706,128.37127 258.182504,125.531329 C257.140807,124.53699 256.173097,123.652881 255.303962,122.889322 C255.075342,122.688473 254.865784,122.506767 254.676586,122.344751 L254.494223,122.189317 L254.202547,121.944674 C253.904154,121.699538 253.463674,121.742879 253.218707,122.041478 Z M106.029647,63.0263107 C105.675753,63.0263107 105.383281,63.289473 105.336994,63.6309082 L105.330612,63.7258287 L105.330612,159.79296 L105.336994,159.88788 C105.383281,160.229316 105.675753,160.492478 106.029647,160.492478 C106.383541,160.492478 106.676013,160.229316 106.7223,159.88788 L106.728682,159.79296 L106.728682,63.7258287 L106.7223,63.6309082 C106.676013,63.289473 106.383541,63.0263107 106.029647,63.0263107 Z"></path>
            </g>
        </g>
    </g>
</svg>