<?xml version="1.0" encoding="UTF-8"?>
<svg width="24px" height="24px" viewBox="0 0 24 24" version="1.1" xmlns="http://www.w3.org/2000/svg" xmlns:xlink="http://www.w3.org/1999/xlink">
    <title>3F3D6620-0FF4-470A-8F30-5DE3F8BFFD7B</title>
    <g id="Course" stroke="none" stroke-width="1" fill="none" fill-rule="evenodd">
        <g id="Course--Landing-Logged-in-user-screen" transform="translate(-320.000000, -37.000000)">
            <g id="outline-tune-24px" transform="translate(320.000000, 37.000000)">
                <polygon id="Path" points="0 0 24 0 24 24 0 24"></polygon>
                <g id="Group-21" transform="translate(3.000000, 3.000000)" stroke="#024F9D" stroke-linecap="round">
                    <line x1="18.75" y1="3.75" x2="16" y2="3.75" id="Stroke-1" stroke-width="1.5"></line>
                    <line x1="10" y1="3.75" x2="0.75" y2="3.75" id="Stroke-3" stroke-width="1.5"></line>
                    <line x1="18.75" y1="14.25" x2="10" y2="14.25" id="Stroke-5" stroke-width="1.5"></line>
                    <line x1="4" y1="14.25" x2="0.75" y2="14.25" id="Stroke-7" stroke-width="1.5"></line>
                    <line x1="18.75" y1="3.75" x2="16" y2="3.75" id="Stroke-9" stroke-width="2"></line>
                    <line x1="10" y1="3.75" x2="0.75" y2="3.75" id="Stroke-11" stroke-width="2"></line>
                    <line x1="18.75" y1="14.25" x2="10" y2="14.25" id="Stroke-13" stroke-width="2"></line>
                    <line x1="4" y1="14.25" x2="0.75" y2="14.25" id="Stroke-15" stroke-width="2"></line>
                    <path d="M16,3.75 C16,5.41 14.66,6.75 13,6.75 C11.34,6.75 10,5.41 10,3.75 C10,2.09 11.34,0.75 13,0.75 C14.66,0.75 16,2.09 16,3.75 Z" id="Stroke-17" stroke-width="2"></path>
                    <path d="M10,14.25 C10,15.91 8.66,17.25 7,17.25 C5.34,17.25 4,15.91 4,14.25 C4,12.59 5.34,11.25 7,11.25 C8.66,11.25 10,12.59 10,14.25 Z" id="Stroke-19" stroke-width="2"></path>
                </g>
            </g>
        </g>
    </g>
</svg>