<?xml version="1.0" encoding="UTF-8"?>
<svg width="24px" height="24px" viewBox="0 0 24 24" version="1.1" xmlns="http://www.w3.org/2000/svg" xmlns:xlink="http://www.w3.org/1999/xlink">
    <title>CB92D5EC-2341-48AE-9223-F84AF1E7FFB9</title>
    <g id="Home-Schooling-V3" stroke="none" stroke-width="1" fill="none" fill-rule="evenodd">
        <g id="My-group-default" transform="translate(-114.000000, -572.000000)" fill="#FFFFFF" fill-rule="nonzero">
            <g id="Group-5" transform="translate(16.000000, 560.000000)">
                <g id="icon/group-white" transform="translate(98.000000, 12.000000)">
                    <path d="M12,16.6235245 C13.9143487,16.6235245 15.6492146,17.27697 16.9129512,18.4061171 C17.6647175,17.8279723 18.6710637,17.5155024 19.776627,17.5155024 C22.0384496,17.5155024 23.8849964,18.823353 23.9948314,21.0294361 L24.0000001,21.2388754 L18.7236043,21.2385939 C18.8735549,21.735587 18.9655293,22.2637387 18.9920221,22.8184748 L19,23.1544701 L4.99999999,23.1544701 C4.99999999,22.4762457 5.09645495,21.8349856 5.27639565,21.2385939 L3.80850906e-11,21.2388754 C3.80850906e-11,18.9063709 1.89086854,17.5155024 4.22337309,17.5155024 C5.32893637,17.5155024 6.33528252,17.8279723 7.08809182,18.4050763 C8.35078543,17.27697 10.0856513,16.6235245 12,16.6235245 Z M19.8204515,12.0081735 C21.1394806,12.0081735 22.208765,13.0774578 22.208765,14.3964869 C22.208765,15.715516 21.1394806,16.7848004 19.8204515,16.7848004 C18.5014224,16.7848004 17.432138,15.715516 17.432138,14.3964869 C17.432138,13.0774578 18.5014224,12.0081735 19.8204515,12.0081735 Z M4.17954855,12.0081735 C5.49857765,12.0081735 6.567862,13.0774578 6.567862,14.3964869 C6.567862,15.715516 5.49857765,16.7848004 4.17954855,16.7848004 C2.86051945,16.7848004 1.79123509,15.715516 1.79123509,14.3964869 C1.79123509,13.0774578 2.86051945,12.0081735 4.17954855,12.0081735 Z M12,8.44674618 C13.9624079,8.44674618 15.5532538,10.0375921 15.5532538,12 C15.5532538,13.9624079 13.9624079,15.5532538 12,15.5532538 C10.0375921,15.5532538 8.44674617,13.9624079 8.44674617,12 C8.44674617,10.0375921 10.0375921,8.44674618 12,8.44674618 Z M6.03274583,1.31028952 L6.03226737,3.90928952 L8.63272403,3.91026772 L8.63272403,5.84676797 L6.03226737,5.84628952 L6.03274583,8.44674618 L4.09624558,8.44674618 L4.09526737,5.84628952 L1.49626737,5.84676797 L1.49626737,3.91026772 L4.09526737,3.90928952 L4.09624558,1.31028952 L6.03274583,1.31028952 Z" id="Combined-Shape"></path>
                </g>
            </g>
        </g>
    </g>
</svg>