<?xml version="1.0" encoding="UTF-8"?>
<svg width="24px" height="25px" viewBox="0 0 24 25" version="1.1" xmlns="http://www.w3.org/2000/svg" xmlns:xlink="http://www.w3.org/1999/xlink">
    <title>86D1DFBA-64E5-4CDC-AFD9-6CDB2BA53339</title>
    <g id="Home-Schooling-V3" stroke="none" stroke-width="1" fill="none" fill-rule="evenodd">
        <g id="My-group-default" transform="translate(-280.000000, -36.000000)" fill="#024F9D" fill-rule="nonzero">
            <g id="icon/group" transform="translate(280.000000, 36.500000)">
                <path d="M11.9999999,16.6235245 C13.9143486,16.6235245 15.6492145,17.27697 16.9129511,18.4061171 C17.6647175,17.8279723 18.6710636,17.5155024 19.7766269,17.5155024 C22.0384495,17.5155024 23.8849964,18.823353 23.9948313,21.0294361 L24,21.2388754 L18.7236043,21.2385939 C18.8735549,21.735587 18.9655292,22.2637387 18.9920221,22.8184748 L18.9999999,23.1544701 L4.99999993,23.1544701 C4.99999993,22.4762457 5.09645489,21.8349856 5.27639559,21.2385939 L-5.837137e-08,21.2388754 C-5.837137e-08,18.9063709 1.89086848,17.5155024 4.22337303,17.5155024 C5.32893632,17.5155024 6.33528246,17.8279723 7.08809176,18.4050763 C8.35078537,17.27697 10.0856512,16.6235245 11.9999999,16.6235245 Z M19.8204514,12.0081735 C21.1394805,12.0081735 22.2087649,13.0774578 22.2087649,14.3964869 C22.2087649,15.715516 21.1394805,16.7848004 19.8204514,16.7848004 C18.5014223,16.7848004 17.432138,15.715516 17.432138,14.3964869 C17.432138,13.0774578 18.5014223,12.0081735 19.8204514,12.0081735 Z M4.17954849,12.0081735 C5.49857759,12.0081735 6.56786194,13.0774578 6.56786194,14.3964869 C6.56786194,15.715516 5.49857759,16.7848004 4.17954849,16.7848004 C2.86051939,16.7848004 1.79123503,15.715516 1.79123503,14.3964869 C1.79123503,13.0774578 2.86051939,12.0081735 4.17954849,12.0081735 Z M11.9999999,8.44674618 C13.9624078,8.44674618 15.5532538,10.0375921 15.5532538,12 C15.5532538,13.9624079 13.9624078,15.5532538 11.9999999,15.5532538 C10.037592,15.5532538 8.44674611,13.9624079 8.44674611,12 C8.44674611,10.0375921 10.037592,8.44674618 11.9999999,8.44674618 Z M6.03274577,1.31028952 L6.03226731,3.90928952 L8.63272397,3.91026772 L8.63272397,5.84676797 L6.03226731,5.84628952 L6.03274577,8.44674618 L4.09624552,8.44674618 L4.09526731,5.84628952 L1.49626731,5.84676797 L1.49626731,3.91026772 L4.09526731,3.90928952 L4.09624552,1.31028952 L6.03274577,1.31028952 Z" id="Combined-Shape"></path>
            </g>
        </g>
    </g>
</svg>