<?xml version="1.0" encoding="UTF-8"?>
<svg width="24px" height="24px" viewBox="0 0 24 24" version="1.1" xmlns="http://www.w3.org/2000/svg" xmlns:xlink="http://www.w3.org/1999/xlink">
    <title>F291B6CC-5C47-4AEA-BE94-81F735B6CC3A</title>
    <g id="Loging-page" stroke="none" stroke-width="1" fill="none" fill-rule="evenodd">
        <g id="Login" transform="translate(-52.000000, -441.000000)" fill-rule="nonzero">
            <g id="google-icon" transform="translate(52.000000, 441.000000)">
                <path d="M23.4392062,12.224519 C23.4392062,11.2412519 23.3594198,10.5237252 23.1867481,9.77963359 L11.9587786,9.77963359 L11.9587786,14.2176184 L18.5493436,14.2176184 C18.416519,15.320519 17.6989924,16.9814657 16.104458,18.0975572 L16.0821068,18.2461374 L19.6321832,20.9963359 L19.8781374,21.0208855 C22.1369771,18.9347176 23.4392062,15.8652824 23.4392062,12.224519" id="Shape" fill="#4285F4"></path>
                <path d="M11.9587786,23.9175572 C15.1876031,23.9175572 17.898229,22.8545038 19.8781374,21.0208855 L16.104458,18.0975572 C15.094626,18.8018015 13.7392672,19.2934351 11.9587786,19.2934351 C8.79636641,19.2934351 6.11230535,17.2073587 5.15551145,14.3239694 L5.01526717,14.3358779 L1.32384733,17.1927023 L1.27557252,17.3269008 C3.24210688,21.2334046 7.28152672,23.9175572 11.9587786,23.9175572" id="Shape" fill="#34A853"></path>
                <path d="M5.15551145,14.3239694 C4.90305343,13.5798779 4.75694657,12.7825649 4.75694657,11.9587786 C4.75694657,11.1349008 4.90305343,10.3376794 5.14222901,9.59358779 L5.13554198,9.4351145 L1.3978626,6.53239694 L1.27557252,6.59056488 C0.465068702,8.21166413 0,10.0320916 0,11.9587786 C0,13.8854657 0.465068702,15.7058015 1.27557252,17.3269008 L5.15551145,14.3239694" id="Shape" fill="#FBBC05"></path>
                <path d="M11.9587786,4.62403054 C14.2043359,4.62403054 15.7190839,5.59401527 16.5828091,6.40461068 L19.957832,3.10928244 C17.8850382,1.18259542 15.1876031,0 11.9587786,0 C7.28152672,0 3.24210688,2.68406107 1.27557252,6.59056488 L5.14222901,9.59358779 C6.11230535,6.71019847 8.79636641,4.62403054 11.9587786,4.62403054" id="Shape" fill="#EB4335"></path>
            </g>
        </g>
    </g>
</svg>