<?xml version="1.0" encoding="UTF-8"?>
<svg width="12px" height="12px" viewBox="0 0 12 12" version="1.1" xmlns="http://www.w3.org/2000/svg" xmlns:xlink="http://www.w3.org/1999/xlink">
    <!-- Generator: sketchtool 63.1 (101010) - https://sketch.com -->
    <title>D834C996-CD65-4BBF-A589-93BA3594CE9C</title>
    <desc>Created with sketchtool.</desc>
    <g id="Course-" stroke="none" stroke-width="1" fill="none" fill-rule="evenodd">
        <g id="Course--Landing-Logged-in-user-screen" transform="translate(-8.000000, -217.000000)" fill="#333333">
            <g id="Group-13" transform="translate(8.000000, 90.000000)">
                <g id="Group-4-Copy-9" transform="translate(0.000000, 32.000000)">
                    <g id="Group-Copy" transform="translate(0.000000, 92.000000)">
                        <g id="ic_info" transform="translate(0.000000, 3.000000)">
                            <path d="M6,0.166666667 C2.78,0.166666667 0.166666667,2.78 0.166666667,6 C0.166666667,9.22 2.78,11.8333333 6,11.8333333 C9.22,11.8333333 11.8333333,9.22 11.8333333,6 C11.8333333,2.78 9.22,0.166666667 6,0.166666667 L6,0.166666667 Z M6.58333333,8.91666667 L5.41666667,8.91666667 L5.41666667,5.41666667 L6.58333333,5.41666667 L6.58333333,8.91666667 L6.58333333,8.91666667 Z M6.58333333,4.25 L5.41666667,4.25 L5.41666667,3.08333333 L6.58333333,3.08333333 L6.58333333,4.25 L6.58333333,4.25 Z" id="Mask"></path>
                        </g>
                    </g>
                </g>
            </g>
        </g>
    </g>
</svg>