<?xml version="1.0" encoding="UTF-8"?>
<svg width="24px" height="24px" viewBox="0 0 24 24" version="1.1" xmlns="http://www.w3.org/2000/svg" xmlns:xlink="http://www.w3.org/1999/xlink">
    <title>DADD6803-A08A-4941-BB36-A22563D26B8B</title>
    <g id="Course" stroke="none" stroke-width="1" fill="none" fill-rule="evenodd" opacity="0.600000024">
        <g id="Course--Landing-Guest-user-screen" transform="translate(-24.000000, -590.000000)">
            <g id="Group-9-Copy-8" transform="translate(0.000000, 556.000000)">
                <g id="Library" transform="translate(24.000000, 34.000000)">
                    <rect id="Rectangle" x="0" y="0" width="24" height="24"></rect>
                    <g id="Group-7" transform="translate(2.000000, 3.000000)" stroke="#231F20" stroke-linecap="round" stroke-linejoin="round" stroke-width="1.5">
                        <path d="M21,4.5 L21,18 L0,18 L0,4.5 L3,4.5 L3,15 L4.15,15 C6.35,15 8.53,15.51 10.5,16.5 C12.47,15.51 14.65,15 16.85,15 L18,15 L18,4.5 L21,4.5 Z" id="Stroke-1"></path>
                        <path d="M10.5,4.5 L10.5,16.5 C8.53,15.51 6.35,15 4.15,15 L3,15 L3,0 C5.81,0 8.44,1.41 10,3.74 L10.5,4.5 Z" id="Stroke-3"></path>
                        <path d="M18,0 L18,15 L16.85,15 C14.65,15 12.47,15.51 10.5,16.5 L10.5,4.5 L11,3.74 C12.56,1.41 15.19,0 18,0 Z" id="Stroke-5"></path>
                    </g>
                </g>
            </g>
        </g>
    </g>
</svg>