<svg xmlns="http://www.w3.org/2000/svg" xmlns:xlink="http://www.w3.org/1999/xlink" viewBox="0 0 1069 591.29"><defs><style>.cls-1,.cls-7{fill:#fff;}.cls-1,.cls-21,.cls-22,.cls-24{fill-rule:evenodd;}.cls-17,.cls-18,.cls-2,.cls-3,.cls-4{fill:none;}.cls-2{opacity:0.08;}.cls-17,.cls-3,.cls-4{stroke:#cadcea;}.cls-17,.cls-18,.cls-3,.cls-4,.cls-6{stroke-miterlimit:10;}.cls-3{stroke-dasharray:300 600;}.cls-4{stroke-dasharray:600 200;}.cls-5,.cls-6{fill:#cadcea;}.cls-18,.cls-6{stroke:#0c519b;}.cls-6{opacity:0.41;}.cls-21,.cls-8{fill:#e55a28;}.cls-9{fill:#a03e20;}.cls-10{fill:#239e6f;}.cls-11{fill:#20bb83;}.cls-12{fill:#36ce94;}.cls-13{opacity:0.43;}.cls-14{clip-path:url(#clip-path);}.cls-15{fill:#e89074;}.cls-16{clip-path:url(#clip-path-2);}.cls-17{stroke-linecap:round;stroke-width:4px;}.cls-19{fill:#0c519b;}.cls-20{mask:url(#mask);}.cls-22,.cls-25{fill:#024f9d;}.cls-23{mask:url(#mask-2-2);}.cls-24{fill:#008840;}.cls-26{mask:url(#mask-3);}</style><clipPath id="clip-path"><path class="cls-2" d="M34.52,574.55a14.29,14.29,0,0,1,4.13-2.78c.33-.18,1-.64,1.32-.43s.05.42-.21.9a18.65,18.65,0,0,1-1.49,2.25c-.63.84-1.54,2.13-1.14,3.24s2.08,1.28,3.13.87c2.86-1.11,4.52-4.16,7.11-5.71.14-.09.66-.28.71-.38.27,0,.22-.11-.16-.16-.31-.22-.42-.15-.33.22-.54.72-.87,1.71-1.42,2.47a7.52,7.52,0,0,0-1.83,3.79A1.34,1.34,0,0,0,45,580c2.23,1.41,4.61-.51,6.06-2.08,1.05-1.13,2.24-2.08,3.38-3.12.46-.41,2.24-2.63,2.82-2.43l-.79-.61c.75,1.16-1.13,2.86-1.71,3.71s-1.55,2.43-1.16,3.59a2.38,2.38,0,0,0,3,1.21c1.69-.45,3.06-2.15,4.93-1.5,1.6.56,2.3-2,.7-2.54a5,5,0,0,0-3.66.18,20,20,0,0,0-1.79.91,3.06,3.06,0,0,1-.58.27c-.48.09-.43.29.14.58.19-.12.32-.76.45-1,1.12-1.91,3.2-3.68,2.3-6.19-2-5.65-10.67,8-12.73,6.71l.66,1.14c0-.78,1-1.83,1.47-2.46a9.08,9.08,0,0,0,1.68-3.1c.34-1.45,0-3.31-1.79-3.43s-3.21,1.36-4.39,2.32c-1.53,1.26-3.23,4-5.43,4l1.14.66c-.1.61-.08.71.08.32.1-.22.21-.43.32-.65.24-.39.61-.79.88-1.17a16.05,16.05,0,0,0,1.48-2.41c.62-1.31.68-3.24-.86-4a4.86,4.86,0,0,0-4.25.56,17.37,17.37,0,0,0-4.66,3.19c-1.12,1.27.74,3.15,1.87,1.87Z"/></clipPath><clipPath id="clip-path-2"><path class="cls-2" d="M1017.52,574.55a14.29,14.29,0,0,1,4.13-2.78c.33-.18,1-.64,1.32-.43s0,.42-.21.9a18.65,18.65,0,0,1-1.49,2.25c-.63.84-1.54,2.13-1.14,3.24s2.08,1.28,3.13.87c2.86-1.11,4.52-4.16,7.11-5.71.14-.09.66-.28.71-.38.27,0,.22-.11-.16-.16-.31-.22-.42-.15-.33.22-.54.72-.87,1.71-1.42,2.47a7.52,7.52,0,0,0-1.83,3.79A1.34,1.34,0,0,0,1028,580c2.23,1.41,4.61-.51,6.06-2.08,1-1.13,2.24-2.08,3.38-3.12.46-.41,2.24-2.63,2.82-2.43l-.79-.61c.75,1.16-1.13,2.86-1.71,3.71s-1.55,2.43-1.16,3.59a2.38,2.38,0,0,0,3,1.21c1.69-.45,3.06-2.15,4.93-1.5,1.6.56,2.3-2,.7-2.54a5,5,0,0,0-3.66.18,20,20,0,0,0-1.79.91,3.06,3.06,0,0,1-.58.27c-.48.09-.43.29.14.58.19-.12.32-.76.45-1,1.12-1.91,3.2-3.68,2.3-6.19-2-5.65-10.67,8-12.73,6.71l.66,1.14c0-.78,1-1.83,1.47-2.46a9.08,9.08,0,0,0,1.68-3.1c.34-1.45,0-3.31-1.79-3.43s-3.21,1.36-4.39,2.32c-1.53,1.26-3.23,4-5.43,4l1.14.66c-.1.61-.08.71.08.32.1-.22.21-.43.32-.65.24-.39.61-.79.88-1.17a16.05,16.05,0,0,0,1.48-2.41c.62-1.31.68-3.24-.86-4a4.86,4.86,0,0,0-4.25.56,17.37,17.37,0,0,0-4.66,3.19c-1.12,1.27.74,3.15,1.87,1.87Z"/></clipPath><mask id="mask" x="536.41" y="0" width="18.12" height="18.44" maskUnits="userSpaceOnUse"><g id="mask-2"><polygon id="path-1" class="cls-1" points="536.41 0 554.52 0 554.52 18.44 536.41 18.44 536.41 0"/></g></mask><mask id="mask-2-2" x="498.12" y="43.98" width="41.53" height="55.08" maskUnits="userSpaceOnUse"><g id="mask-4"><polygon id="path-3" class="cls-1" points="498.12 43.98 539.65 43.98 539.65 99.05 498.12 99.05 498.12 43.98"/></g></mask><mask id="mask-3" x="498.12" y="0" width="93.51" height="150.97" maskUnits="userSpaceOnUse"><g id="mask-6"><polygon id="path-5" class="cls-1" points="498.12 150.97 591.63 150.97 591.63 0 498.12 0 498.12 150.97"/></g></mask></defs><g id="Layer_2" data-name="Layer 2"><g id="Layer_1-2" data-name="Layer 1"><path id="circle2" class="cls-3" d="M216.79,589.29c0-174.53,141.48-316,316-316s316,141.47,316,316"/><path id="circle1" class="cls-4" d="M110.9,589.29c0-233,188.88-421.9,421.89-421.9s421.89,188.89,421.89,421.9"/><g id="desktop"><path class="cls-5" d="M557.21,555.78c-1.11,14.06,10.57,22.75,10.57,22.75H500.86s11.68-8.69,10.57-22.75Z"/><path class="cls-6" d="M670.8,346.45H395.38a17.73,17.73,0,0,0-17.73,17.73v174a17.73,17.73,0,0,0,17.73,17.73H670.8a17.72,17.72,0,0,0,17.72-17.73v-174A17.72,17.72,0,0,0,670.8,346.45Z"/><path class="cls-7" d="M672.06,357.63H394.11a4.69,4.69,0,0,0-4.7,4.69V536.16a4.69,4.69,0,0,0,4.7,4.69H672.06a4.69,4.69,0,0,0,4.69-4.69V362.32A4.69,4.69,0,0,0,672.06,357.63Z"/><rect class="cls-6" x="454.26" y="578.53" width="157.63" height="9.93" rx="4.47"/></g><g id="plant2"><ellipse class="cls-8" cx="48.48" cy="563.22" rx="16.26" ry="2.93"/><ellipse class="cls-9" cx="48.48" cy="563.22" rx="12.8" ry="2.3"/><path class="cls-8" d="M32,564.6s2.37,7.74,3.78,13.18a6.54,6.54,0,0,0,6.33,4.91H54.52A6.56,6.56,0,0,0,60.8,578l3.94-13.39S48.48,569.55,32,564.6Z"/><path class="cls-10" d="M47.86,544.79c.79,2.47,1.59,5.54,2.14,7.73,1.66,6.55.85,10.53-.27,10.9s-3.11-3.11-5.34-8.45c-1-2.5-2.92-5.23-3.94-8.38s-1.08-6.49-1.7-9.18c-1.26-5.52.81-13.88,1.81-14.21s1.21,7.55,3.34,12.53C45,538.36,46.76,541.38,47.86,544.79Z"/><path class="cls-11" d="M52.19,538.85c.18,3.54.17,7.88.16,10.95C52.3,559,50.17,564,48.78,564.06s-2.64-5.21-3.61-13.06c-.45-3.67-1.8-8-2-12.47s.69-8.94.78-12.7c.19-7.75,5.07-18,6.32-18.07s-.87,10.38.09,17.72C50.85,529.35,51.94,534,52.19,538.85Z"/><path class="cls-12" d="M55.76,546.94c-.5,2.51-1.26,5.55-1.82,7.7-1.66,6.46-4,9.56-5,9.37s-.89-4.11-.17-9.77c.33-2.65.16-5.89.8-9.09s2-6.14,2.78-8.76C53.88,531,59,524.66,59.9,524.83s-2.42,7.12-3,12.43C56.52,540.06,56.46,543.47,55.76,546.94Z"/><g class="cls-13"><g class="cls-14"><path class="cls-8" d="M32,564.6s2.37,7.74,3.78,13.18a6.54,6.54,0,0,0,6.33,4.91H54.52A6.56,6.56,0,0,0,60.8,578l3.94-13.39S48.48,569.55,32,564.6Z"/><path class="cls-15" d="M32,564.63s2.37,7.74,3.78,13.18a6.54,6.54,0,0,0,6.33,4.91H54.5a6.56,6.56,0,0,0,6.28-4.7l3.94-13.39S48.46,569.58,32,564.63Z"/></g></g></g><g id="plant1"><ellipse class="cls-8" cx="1031.48" cy="563.22" rx="16.26" ry="2.93"/><ellipse class="cls-9" cx="1031.48" cy="563.22" rx="12.8" ry="2.3"/><path class="cls-8" d="M1015,564.6s2.37,7.74,3.78,13.18a6.54,6.54,0,0,0,6.33,4.91h12.41a6.56,6.56,0,0,0,6.28-4.7l3.94-13.39S1031.48,569.55,1015,564.6Z"/><path class="cls-10" d="M1030.86,544.79c.79,2.47,1.59,5.54,2.14,7.73,1.66,6.55.85,10.53-.27,10.9s-3.11-3.11-5.34-8.45c-1-2.5-2.92-5.23-3.94-8.38s-1.08-6.49-1.7-9.18c-1.26-5.52.81-13.88,1.81-14.21s1.21,7.55,3.34,12.53C1028,538.36,1029.76,541.38,1030.86,544.79Z"/><path class="cls-11" d="M1035.19,538.85c.18,3.54.17,7.88.16,10.95,0,9.23-2.18,14.19-3.57,14.26s-2.64-5.21-3.61-13.06c-.45-3.67-1.8-8-2-12.47s.69-8.94.78-12.7c.19-7.75,5.07-18,6.32-18.07s-.87,10.38.09,17.72C1033.85,529.35,1034.94,534,1035.19,538.85Z"/><path class="cls-12" d="M1038.76,546.94c-.5,2.51-1.26,5.55-1.82,7.7-1.66,6.46-4,9.56-5,9.37s-.89-4.11-.17-9.77c.33-2.65.16-5.89.8-9.09s2.05-6.14,2.78-8.76c1.49-5.39,6.65-11.73,7.51-11.56s-2.42,7.12-3.05,12.43C1039.52,540.06,1039.46,543.47,1038.76,546.94Z"/><g class="cls-13"><g class="cls-16"><path class="cls-8" d="M1015,564.6s2.37,7.74,3.78,13.18a6.54,6.54,0,0,0,6.33,4.91h12.41a6.56,6.56,0,0,0,6.28-4.7l3.94-13.39S1031.48,569.55,1015,564.6Z"/><path class="cls-15" d="M1015,564.63s2.37,7.74,3.78,13.18a6.54,6.54,0,0,0,6.33,4.91h12.41a6.56,6.56,0,0,0,6.28-4.7l3.94-13.39S1031.46,569.58,1015,564.63Z"/></g></g></g><line id="baseline" class="cls-17" x1="1067" y1="589.29" x2="2" y2="589.29"/><g id="crane"><rect class="cls-5" x="291.95" y="239.99" width="19.86" height="339.7" transform="translate(603.76 819.69) rotate(180)"/><rect class="cls-5" x="284.41" y="582.44" width="34.24" height="6.16" transform="translate(603.07 1171.04) rotate(180)"/><rect class="cls-5" x="284.41" y="231.09" width="34.24" height="6.16" transform="translate(603.07 468.34) rotate(180)"/><line class="cls-17" x1="143" y1="230.06" x2="774" y2="230.06"/><polyline class="cls-5" points="157.61 230.06 157.61 300.26 174 300.26 174 231.09"/></g><g id="lift"><polyline class="cls-18" points="730.61 230.06 730.61 300.26 747 300.26 747 231.09"/><polygon class="cls-18" points="730.91 304.03 746.66 304.03 739.13 312.25 730.91 304.03"/><circle class="cls-18" cx="739.13" cy="315.67" r="2.74"/><line class="cls-18" x1="739.13" y1="318.41" x2="739.13" y2="350.34"/><path class="cls-19" d="M723.37,366.22a15.76,15.76,0,1,1,31.51,0"/><rect class="cls-19" x="723.37" y="368.22" width="31.5" height="4.11"/></g><g id="logo"><g id="Artboard"><g id="Group"><g id="Group-3"><g id="Fill-1-Clipped"><g class="cls-20"><path id="Fill-1" class="cls-21" d="M545.46,0a9.14,9.14,0,0,1,9.06,9.22,9.06,9.06,0,1,1-18.11,0A9.14,9.14,0,0,1,545.46,0"/></g></g></g><path id="Fill-4" class="cls-22" d="M572.06,5.89a4.32,4.32,0,0,0-4.29,4.36V43.57l-.17.1c-.89.51-1.76,1-2.63,1.56-1.74,1.08-3.45,2.22-5.12,3.47A39.73,39.73,0,0,0,555,52.92a37.45,37.45,0,0,0-4,5c-.44.66-.86,1.33-1.27,2V32.29a4.29,4.29,0,1,0-8.57,0V60c-.41-.69-.83-1.37-1.28-2a37.38,37.38,0,0,0-4-5A40.53,40.53,0,0,0,531,48.71c-1.67-1.26-3.38-2.4-5.12-3.47-.87-.54-1.75-1.06-2.64-1.57l-.16-.09V10.26a4.29,4.29,0,1,0-8.57,0V46.18a4.36,4.36,0,0,0,2.58,4c.75.34,1.63.76,2.43,1.17s1.64.83,2.44,1.28c1.61.88,3.18,1.82,4.66,2.82a33,33,0,0,1,4,3.15,31.44,31.44,0,0,1,3.35,3.85,39.57,39.57,0,0,1,5.11,9.22,32.88,32.88,0,0,1,1.48,5,27.24,27.24,0,0,1,.53,4.6v.13a4.28,4.28,0,1,0,8.56,0v-.43a28.19,28.19,0,0,1,.51-4.3,34.12,34.12,0,0,1,1.49-5,39.94,39.94,0,0,1,5.11-9.22,30.69,30.69,0,0,1,3.36-3.85,32.13,32.13,0,0,1,4-3.15c1.48-1,3-1.93,4.66-2.82.8-.44,1.62-.86,2.44-1.28s1.68-.83,2.42-1.16a4.35,4.35,0,0,0,2.59-4V10.25a4.32,4.32,0,0,0-4.28-4.36Z"/><g id="Group-8"><g id="Fill-6-Clipped"><g class="cls-23"><path id="Fill-6" class="cls-24" d="M523.13,73.79c-5.37-4.18-12.47-7.2-16.44-8.69V48.34a4.29,4.29,0,1,0-8.57,0V68.13a4.36,4.36,0,0,0,3,4.24c.11,0,10.32,3.29,16.83,8.38l.11.09c.11.08,10.16,7.49,13.33,15.52a4.26,4.26,0,0,0,5.6,2.36,4.38,4.38,0,0,0,2.35-5.61c-4-10.13-15.15-18.53-16.22-19.32"/></g></g></g><path id="Fill-9" class="cls-25" d="M505.29,147.68a3.68,3.68,0,0,0,2.77-.81c.95-.94,1.51-2.57,1.51-5.42s-.51-4.35-1.43-5.34a3.51,3.51,0,0,0-2.82-.89H502v12.46Zm-6.93,2.87v-18.2h6.46c2.85,0,5.14.62,6.54,2.12s2.08,3.81,2.08,7c0,3.33-.76,5.74-2.24,7.19s-3.22,1.9-6,1.9Z"/><g id="Fill-11-Clipped"><g class="cls-26"><polygon id="Fill-11" class="cls-22" points="516.82 150.55 520.46 150.55 520.46 132.35 516.82 132.35 516.82 150.55"/></g></g><g id="Fill-13-Clipped"><g class="cls-26"><polygon id="Fill-13" class="cls-22" points="533.48 140.94 539.57 150.55 535.46 150.55 530.42 142.71 528.37 142.71 528.37 150.55 524.73 150.55 524.73 132.35 528.37 132.35 528.37 139.84 530.34 139.84 535.17 132.35 538.99 132.35 533.48 140.94"/></g></g><g id="Fill-14-Clipped"><g class="cls-26"><path id="Fill-14" class="cls-22" d="M551,145.34c0-2.14-1.37-2.33-3.9-2.47-3.5-.19-6.22-1.1-6.22-5.37,0-4,3-5.58,7.51-5.58a19,19,0,0,1,4.8.67v2.77a22,22,0,0,0-4.72-.54c-2.61,0-3.87.78-3.87,2.31,0,2.15,1.4,2.23,3.91,2.33,3.42.14,6.22,1.16,6.22,5.61,0,4-3.19,5.9-7.89,5.9a20.43,20.43,0,0,1-5.59-.8v-2.92a25,25,0,0,0,5.51.67c3.21,0,4.24-1,4.24-2.58"/></g></g><g id="Fill-15-Clipped"><g class="cls-26"><polygon id="Fill-15" class="cls-22" points="557.74 150.55 557.74 132.35 561.39 132.35 561.39 139.84 568.83 139.84 568.83 132.35 572.47 132.35 572.47 150.55 568.81 150.55 568.81 142.71 561.39 142.71 561.39 150.55 557.74 150.55"/></g></g><g id="Fill-16-Clipped"><g class="cls-26"><path id="Fill-16" class="cls-25" d="M585.5,143.54l-1.23-3.81c-.51-1.58-.88-2.9-1.19-4H583c-.32,1.15-.69,2.47-1.19,4l-1.23,3.81Zm.93,2.8H579.6l-1.34,4.21h-3.67l6.44-18.2h4.16l6.43,18.2H587.8Z"/></g></g><g id="Fill-17-Clipped"><g class="cls-26"><path id="Fill-17" class="cls-24" d="M587.34,44a4.32,4.32,0,0,0-4.28,4.36V65.1c-4,1.49-11.08,4.51-16.45,8.69v0a56.76,56.76,0,0,0-6.74,5.85c-11.41,11.61-18.09,27.25-18.37,27.91a4.39,4.39,0,0,0,2.25,5.73,4.26,4.26,0,0,0,5.63-2.28c.06-.15,6.33-14.79,16.54-25.19a48.44,48.44,0,0,1,5.74-5l.12-.09c6.5-5.09,16.72-8.34,16.82-8.38a4.33,4.33,0,0,0,3-4.24V48.34A4.32,4.32,0,0,0,587.34,44Z"/></g></g></g></g></g><g id="man3"><path class="cls-19" d="M701.5,542.84a19,19,0,1,1-19-19A19,19,0,0,1,701.5,542.84Z"/><path class="cls-7" d="M693.5,538.84a2,2,0,0,1-2,2,2,2,0,1,1,2-2Z"/><path class="cls-19" d="M683,565.34h0a11,11,0,0,1,11,11v11a0,0,0,0,1,0,0H672a0,0,0,0,1,0,0v-11A11,11,0,0,1,683,565.34Z"/></g><g id="man1"><path class="cls-19" d="M777.5,542.84a19,19,0,1,0,19-19A19,19,0,0,0,777.5,542.84Z"/><path class="cls-7" d="M784.5,541.84a2,2,0,0,0,2,2,2,2,0,1,0-2-2Z"/><path class="cls-19" d="M785,565.34h22a0,0,0,0,1,0,0v11a11,11,0,0,1-11,11h0a11,11,0,0,1-11-11v-11A0,0,0,0,1,785,565.34Z" transform="translate(1592 1152.68) rotate(180)"/></g><g id="man2"><path class="cls-19" d="M621.5,300.84a19,19,0,1,1-19-19A19,19,0,0,1,621.5,300.84Z"/><path class="cls-7" d="M615.5,301.84a2,2,0,0,1-2,2,2,2,0,1,1,2-2Z"/><path class="cls-19" d="M603,323.34h0a11,11,0,0,1,11,11v11a0,0,0,0,1,0,0H592a0,0,0,0,1,0,0v-11A11,11,0,0,1,603,323.34Z"/></g><g id="form1"><rect class="cls-5" x="440.7" y="382.62" width="78.83" height="56.42" rx="8.38"/><rect class="cls-5" x="440.7" y="444.5" width="14.11" height="14.11" rx="3.29"/><rect class="cls-5" x="460.08" y="444.5" width="58.71" height="14.11" rx="3.29"/><rect class="cls-5" x="440.7" y="464.08" width="14.11" height="14.11" rx="3.29"/><rect class="cls-5" x="460.08" y="464.08" width="58.71" height="14.11" rx="3.29"/><rect class="cls-5" x="440.7" y="483.67" width="14.11" height="14.11" rx="3.29"/><rect class="cls-5" x="460.08" y="483.67" width="58.71" height="14.11" rx="3.29"/><rect class="cls-5" x="440.7" y="503.25" width="14.11" height="14.11" rx="3.29"/><rect class="cls-5" x="460.08" y="503.25" width="58.71" height="14.11" rx="3.29"/></g><g id="form2"><rect class="cls-5" x="562.7" y="382.62" width="78.83" height="56.42" rx="8.38"/><rect class="cls-5" x="562.7" y="444.5" width="14.11" height="14.11" rx="3.29"/><rect class="cls-5" x="582.08" y="444.5" width="58.71" height="14.11" rx="3.29"/><rect class="cls-5" x="562.7" y="464.08" width="14.11" height="14.11" rx="3.29"/><rect class="cls-5" x="582.08" y="464.08" width="58.71" height="14.11" rx="3.29"/><rect class="cls-5" x="562.7" y="483.67" width="14.11" height="14.11" rx="3.29"/><rect class="cls-5" x="582.08" y="483.67" width="58.71" height="14.11" rx="3.29"/><rect class="cls-5" x="562.7" y="503.25" width="14.11" height="14.11" rx="3.29"/><rect class="cls-5" x="582.08" y="503.25" width="58.71" height="14.11" rx="3.29"/></g><g id="form3"><rect class="cls-5" x="699.79" y="391.62" width="78.83" height="56.42" rx="8.38"/><rect class="cls-5" x="699.79" y="453.5" width="14.11" height="14.11" rx="3.29"/><rect class="cls-5" x="719.17" y="453.5" width="58.71" height="14.11" rx="3.29"/><rect class="cls-5" x="699.79" y="473.08" width="14.11" height="14.11" rx="3.29"/><rect class="cls-5" x="719.17" y="473.08" width="58.71" height="14.11" rx="3.29"/><rect class="cls-5" x="699.79" y="492.67" width="14.11" height="14.11" rx="3.29"/><rect class="cls-5" x="719.17" y="492.67" width="58.71" height="14.11" rx="3.29"/><rect class="cls-5" x="699.79" y="512.25" width="14.11" height="14.11" rx="3.29"/><rect class="cls-5" x="719.17" y="512.25" width="58.71" height="14.11" rx="3.29"/></g><path id="cloud1" class="cls-5" d="M902.17,167.9a9,9,0,0,0-8.12-6.9,13.48,13.48,0,0,0-9.13-6.3,19,19,0,0,0-36.21-.45,14.12,14.12,0,1,0,13,24.54,19,19,0,0,0,9.39.16,18.57,18.57,0,0,0,2.71-.85,13.39,13.39,0,0,0,17,.43,9,9,0,0,0,11.41-10.63Z"/><path id="cloud2" class="cls-5" d="M409.17,153.9a9,9,0,0,0-8.12-6.9,13.48,13.48,0,0,0-9.13-6.3,19,19,0,0,0-36.21-.45,14.12,14.12,0,1,0,13,24.54,19,19,0,0,0,9.39.16,18.57,18.57,0,0,0,2.71-.85,13.39,13.39,0,0,0,16.95.43,9,9,0,0,0,11.41-10.63Z"/></g></g></svg>