<?xml version="1.0" encoding="UTF-8"?>
<svg width="180px" height="180px" viewBox="0 0 180 180" version="1.1" xmlns="http://www.w3.org/2000/svg" xmlns:xlink="http://www.w3.org/1999/xlink">
    <title>ic_switchNewExperience 2</title>
    <defs>
        <rect id="path-1" x="0" y="0" width="179.795977" height="173.766234"></rect>
    </defs>
    <g id="ic_switchNewExperience-2" stroke="none" stroke-width="1" fill="none" fill-rule="evenodd">
        <g id="ic_switchNewExperience" transform="translate(0.000000, 6.233766)">
            <mask id="mask-2" fill="white">
                <use xlink:href="#path-1"></use>
            </mask>
            <g id="path-1"></g>
            <g id="Group-23" mask="url(#mask-2)">
                <g transform="translate(11.511328, 4.933426)" id="Group">
                    <path d="M38.2000035,100.861158 C52.1085804,100.861158 53.8474072,162.603673 53.8474072,162.603673 C53.8474072,162.603673 58.7155112,134.348685 67.7564932,134.348685 C76.7969666,134.348685 66.0176666,165.74289 70.537903,165.045457 C75.0586492,164.348023 71.9288628,106.791129 84.7948568,122.13926 C97.6603415,137.487901 91.7491454,161.208296 105.658232,160.859324 C119.566808,160.510863 100.790128,149.696815 108.787508,139.23174 C116.785399,128.767175 136.953039,153.185004 138.691866,159.463947 C138.691866,159.463947 137.648774,125.627448 147.037114,125.627448 C156.425963,125.627448 156.773321,174.115155 156.773321,174.115155 L10.7296982,177.603343 C10.7296982,177.603343 -3.87461322,137.836873 0.993490572,125.627448 C5.86159437,113.419044 22.2047325,138.534306 25.3340095,147.952976 L25.3337353,147.94004 C25.331687,147.841178 25.3187969,147.179375 25.3165878,146.081359 L25.3165668,145.442418 C25.3350064,135.690267 26.2381893,100.861158 38.2000035,100.861158 Z M83.5794075,136.218772 L83.5247018,136.221055 C83.3419041,136.242317 83.2061899,136.395062 83.2005412,136.574212 L83.2028314,136.628644 L87.1123968,170.455995 L87.1214485,170.50517 C87.1661607,170.680641 87.3343708,170.800329 87.5186918,170.77889 C87.7014895,170.757629 87.8372037,170.604883 87.8428525,170.425734 L87.8405623,170.371301 L83.9309969,136.54395 L83.9219451,136.494776 C83.8861756,136.354399 83.7713671,136.249723 83.6325021,136.224445 L83.5794075,136.218772 Z M8.89098045,136.148371 C8.81445386,135.985947 8.63266385,135.903436 8.46342146,135.962252 C8.27879341,136.026414 8.179013,136.234469 8.24055568,136.426956 L8.24055568,136.426956 L19.0469288,170.225979 L19.0651013,170.272211 C19.1416279,170.434635 19.3234179,170.517146 19.4926603,170.45833 C19.6772884,170.394168 19.7770688,170.186113 19.7155261,169.993627 L19.7155261,169.993627 L8.909153,136.194604 L8.89098045,136.148371 Z M148.579647,142.101936 L148.525366,142.103615 C148.342339,142.122791 148.204903,142.27398 148.197225,142.453054 L148.198899,142.507508 L148.331402,143.877347 L148.427313,144.944227 C148.501185,145.789166 148.57435,146.681572 148.644727,147.609798 L148.686602,148.170939 L148.741539,148.936182 C148.920091,151.482237 149.052379,153.977538 149.121475,156.326897 C149.300243,162.4053 149.0367,166.827016 148.224593,168.802725 C148.147426,168.99046 148.236575,169.205404 148.423714,169.282817 C148.610853,169.36023 148.825115,169.270797 148.902282,169.083063 C149.723777,167.084514 150.006504,162.961969 149.879226,157.269703 L149.871429,156.939565 L149.854199,156.30521 C149.785481,153.968664 149.654643,151.490233 149.47816,148.961545 L149.417665,148.116914 L149.381702,147.6339 C149.323741,146.866006 149.263846,146.122212 149.203177,145.408989 L149.157547,144.879905 L149.081146,144.02522 C149.061063,143.805452 149.041696,143.597353 149.023163,143.401589 L149.004913,143.209962 L148.927976,142.431121 C148.910773,142.265873 148.786978,142.137671 148.632261,142.108068 L148.579647,142.101936 Z M116.514932,147.138524 C116.399334,147.279781 116.406169,147.481577 116.522747,147.614455 L116.565654,147.656018 L117.032853,148.056203 L117.470388,148.444679 C117.825392,148.764206 118.20762,149.118427 118.611614,149.505015 C120.151204,150.978272 121.690917,152.615899 123.127185,154.373331 C126.943145,159.042578 129.337278,163.686005 129.627316,167.987207 C129.640979,168.189813 129.815777,168.342947 130.01774,168.329241 C130.219702,168.315536 130.37235,168.140181 130.358689,167.937575 C130.056203,163.451781 127.597854,158.68381 123.694064,153.907092 C122.237404,152.124709 120.677552,150.465661 119.117578,148.972899 C118.571389,148.450243 118.063995,147.985528 117.608285,147.584177 C117.488413,147.478604 117.378537,147.383094 117.279335,147.297933 L117.183718,147.216233 L117.030785,147.087641 C116.87433,146.95879 116.643375,146.98157 116.514932,147.138524 Z M39.3399564,116.118298 C39.1559342,116.118298 39.0035873,116.254348 38.9774087,116.431653 L38.9734346,116.485987 L38.9734346,166.981888 L38.9767805,167.031781 C39.0010504,167.211251 39.1544007,167.349577 39.3399564,167.349577 C39.5239786,167.349577 39.6763255,167.213527 39.7025041,167.036223 L39.7064781,166.981888 L39.7064781,116.485987 L39.7031322,116.436094 C39.6788624,116.256625 39.5255121,116.118298 39.3399564,116.118298 Z" id="Combined-Shape-Copy-2" fill="#F5F5EF" fill-rule="nonzero" opacity="0.0962146577"></path>
                    <g id="Group-17" transform="translate(23.022656, 144.713835)">
                        <path d="M99.742749,27.6951067 C99.742749,27.6951067 92.6319332,27.9986777 91.3517776,26.2699736 C90.0718309,24.5414811 93.9491519,24.5006238 93.9491519,24.5006238 C93.9491519,24.5006238 88.4383214,23.5501117 87.2837248,20.8573469 C86.1291282,18.1647937 93.2563937,18.4567217 93.2563937,18.4567217 C93.2563937,18.4567217 88.5338956,15.2055045 87.9146404,11.9572511 C87.2953852,8.70899765 101.954702,18.0443391 101.954702,18.0443391 C101.954702,18.0443391 102.215605,12.677862 103.471607,12.0228766 C103.471607,12.0228766 106.206408,10.4815228 105.15155,17.5980853 C105.15155,17.5980853 109.256667,13.3375047 110.538696,15.2493255 C111.820517,17.1611461 106.173301,20.5213864 106.173301,20.5213864 L99.742749,27.6951067 Z" id="Fill-1" fill="#FF4E00" fill-rule="nonzero"></path>
                        <path d="M103.789971,14.5598129 C103.789971,14.5598129 101.968407,16.4296831 104.055942,22.7821899 C104.055942,22.7821899 105.003097,17.9554359 109.083535,16.3876519" id="Stroke-7" stroke="#4A00B2" stroke-linecap="round"></path>
                        <path d="M95.7880997,31.5527253 C95.7880997,31.5527253 92.4178154,23.7338205 93.3499117,23.2225157 C94.2822147,22.7110005 96.6485759,26.2184129 96.6485759,26.2184129 C96.6485759,26.2184129 95.9315468,21.9046069 97.7959461,20.8462417 C99.6603459,19.7878764 100.592442,24.9030281 100.592442,24.9030281 C100.592442,24.9030281 104.106174,19.3472414 106.329294,20.8462417 C108.552208,22.3456626 103.819486,27.6067812 103.819486,27.6067812 C103.819486,27.6067812 108.337141,24.9760115 108.982343,27.0222825 C109.627752,29.0681329 106.974703,31.5527253 106.974703,31.5527253 L95.7880997,31.5527253 Z" id="Fill-9" fill="#FFEA54" fill-rule="nonzero"></path>
                        <path d="M98.1203654,25.0968955 C98.1203654,25.0968955 99.6559744,29.0866388 99.6559744,31.5527253 L100.694792,31.5527253 C100.694792,31.5527253 102.656194,25.535499 104.150109,23.8785068" id="Stroke-11" stroke="#4A00B2" stroke-linecap="round"></path>
                        <path d="M5.30223729,31.2403137 C5.30223729,31.2403137 -0.330826913,25.9968502 0.0153238347,23.7317636 C0.361474583,21.4666771 3.33778467,24.4180591 3.33778467,24.4180591 C3.33778467,24.4180591 -0.123094583,19.4761087 1.05356667,16.5932524 C2.23043733,13.7103962 7.42186089,19.407583 7.42186089,19.407583 C7.42186089,19.407583 6.31430419,13.3671446 8.32168533,10.4842883 C10.3290665,7.60143202 14.3438288,25.7910653 14.3438288,25.7910653 C14.3438288,25.7910653 18.635428,22.0157134 20.0891355,22.4964317 C20.0891355,22.4964317 23.3424918,23.4574531 17.112616,27.9188928 C17.112616,27.9188928 23.4809102,27.9188928 22.9963411,30.3212384 C22.5117719,32.7237917 15.6591179,30.8704824 15.6591179,30.8704824 L5.30223729,31.2403137 Z" id="Fill-15" fill="#FF4E00" fill-rule="nonzero"></path>
                        <path d="M3.83710926,19.5017014 C3.83710926,19.5017014 10.4850375,24.6971445 12.0592498,31.0045669 C12.0592498,31.0045669 12.1443029,23.0322093 9.08782739,15.1079713" id="Stroke-19" stroke="#4A00B2" stroke-linecap="round"></path>
                        <path d="M11.843298,16.7524467 C11.843298,16.7524467 3.5214977,13.393448 3.84638012,12.2751876 C4.17105874,11.1569272 8.54841129,11.9978894 8.54841129,11.9978894 C8.54841129,11.9978894 4.81878544,9.25421859 5.44205424,6.99070603 C6.06552686,4.72719343 10.5500865,7.9166501 10.5500865,7.9166501 C10.5500865,7.9166501 9.09198808,0.924306719 11.8767238,0.339344553 C14.6612556,-0.245617615 14.9820617,7.47128599 14.9820617,7.47128599 C14.9820617,7.47128599 16.4438289,1.93607618 18.4430583,2.99950957 C20.4422877,4.06294295 20.2786236,8.0330521 20.2786236,8.0330521 L11.843298,16.7524467 Z" id="Fill-23" fill="#FFEA54" fill-rule="nonzero"></path>
                        <path d="M7.67421853,8.1733708 C7.67421853,8.1733708 12.0326927,9.96365975 13.9512716,11.8190205 L14.8002786,10.9993187 C14.8002786,10.9993187 11.7218392,4.92526931 11.6536492,2.50032659" id="Stroke-25" stroke="#4A00B2" stroke-linecap="round"></path>
                    </g>
                    <path d="M113.468802,27.1338441 C115.815034,27.1338441 117.939148,28.0848423 119.476704,29.6223985 C121.01426,31.1599546 121.965259,33.2840687 121.965259,35.6303003 L121.965259,35.6303003 L121.965259,168.558728 L34.8080626,168.558728 L34.8080626,35.6303003 C34.8080626,33.2840687 35.7590609,31.1599546 37.296617,29.6223985 C38.8341732,28.0848423 40.9582872,27.1338441 43.3045188,27.1338441 L43.3045188,27.1338441 L113.468802,27.1338441 Z" id="Rectangle" stroke="#FFFFFF" fill="#024F9D" fill-rule="nonzero"></path>
                    <g id="Group-16" transform="translate(37.822934, 33.437666)">
                        <rect id="Mask" fill="#F3F7FB" fill-rule="nonzero" x="0" y="14.8002786" width="81.127453" height="120.594863"></rect>
                        <g id="Rectangle">
                            <g id="path-3-link" fill="#000000" fill-rule="nonzero">
                                <path d="M8.77053546,0 L72.3569175,0 C77.2007505,0 81.127453,3.92670248 81.127453,8.77053546 L81.127453,41.6600434 L81.127453,41.6600434 L8.77053546,41.6600434 C3.92670248,41.6600434 0,37.733341 0,32.889508 L0,8.77053546 C0,3.92670248 3.92670248,0 8.77053546,0 Z" id="path-3"></path>
                            </g>
                            <g id="path-3-link" fill="#FFD954">
                                <path d="M8.77053546,0 L72.3569175,0 C77.2007505,0 81.127453,3.92670248 81.127453,8.77053546 L81.127453,41.6600434 L81.127453,41.6600434 L8.77053546,41.6600434 C3.92670248,41.6600434 0,37.733341 0,32.889508 L0,8.77053546 C0,3.92670248 3.92670248,0 8.77053546,0 Z" id="path-3"></path>
                            </g>
                        </g>
                        <g id="notification" transform="translate(71.260601, 5.481585)" fill="#333333" fill-rule="nonzero">
                            <path d="M2.95047102,4.21660358 C2.92859184,4.61616848 2.59766261,4.9334262 2.19263386,4.9334262 C1.78760512,4.9334262 1.45667589,4.61616848 1.43479671,4.21660358 L0.25321111,4.21660358 C0.113223253,4.21660358 0,4.10366695 0,3.96385783 L0,3.71061116 C0,3.43141701 0.226740605,3.20461873 0.506168423,3.20461873 C0.505840186,3.20461873 0.50599243,2.19257056 0.50599243,2.19257056 C0.50599243,1.47974046 0.951758807,0.854765127 1.60230936,0.612148117 L1.60230936,0.589924211 C1.60230936,0.264216218 1.86698194,0 2.19263386,0 C2.51863513,0 2.78295837,0.264057218 2.78295837,0.589924211 L2.78295837,0.612162172 C3.43349287,0.854811484 3.8792753,1.4798906 3.8792753,2.19257056 L3.8792753,3.20447171 C4.15811021,3.20461873 4.38526773,3.43132901 4.38526773,3.71061116 L4.38526773,3.96385783 C4.38526773,4.10311314 4.27167257,4.21660358 4.13205662,4.21660358 L2.95047102,4.21660358 Z M3.91656614,3.75387351 L3.91656614,3.59715239 C3.91656614,3.51089388 3.84596453,3.44043128 3.75968149,3.44043128 C3.58649132,3.44043128 3.44640279,3.30041077 3.44640279,3.12685244 L3.44640279,2.18660353 C3.44640279,1.62434801 3.07308132,1.13535462 2.54099801,0.981862497 L2.42771554,0.949183465 L2.42771554,0.697439804 C2.42771554,0.567827351 2.32251238,0.462730077 2.19263386,0.462730077 C2.06302959,0.462730077 1.95755219,0.568025609 1.95755219,0.697439804 L1.95755219,0.949180955 L1.84426362,0.981856774 C1.31215815,1.13533197 0.938864936,1.62421092 0.938864936,2.18660353 L0.938864936,3.12685244 C0.938864936,3.29991375 0.798433753,3.44043128 0.625586239,3.44043128 C0.539071786,3.44043128 0.468701591,3.51081938 0.468701591,3.59715239 L0.468701591,3.75387351 L3.91656614,3.75387351 Z" id="Shape"></path>
                        </g>
                        <g id="Group-13" stroke-linecap="round" transform="translate(4.933426, 6.029743)" stroke="#333333">
                            <line x1="0" y1="0.548158466" x2="4.9334262" y2="0.548158466" id="Stroke-7"></line>
                            <line x1="0" y1="2.19263386" x2="2.74079233" y2="2.19263386" id="Stroke-9"></line>
                            <line x1="0" y1="3.83710926" x2="4.9334262" y2="3.83710926" id="Stroke-11"></line>
                        </g>
                        <g id="Rectangle-Copy-22" transform="translate(3.288951, 25.763448)">
                            <g id="path-5-link" fill="#000000" fill-rule="nonzero">
                                <rect id="path-5" x="0" y="0" width="74.0013929" height="11.5113278" rx="4"></rect>
                            </g>
                            <g id="path-5-link" fill="#FFD954">
                                <rect id="path-5" x="0" y="0" width="74.0013929" height="11.5113278" rx="4"></rect>
                            </g>
                        </g>
                        <rect id="Rectangle-Copy-3" fill-opacity="0.6" fill="#FF8B2E" fill-rule="nonzero" x="3.2889508" y="72.3569175" width="59.2011143" height="15.8965955" rx="7.94829776"></rect>
                        <path d="M68.5198083,72.3569175 L81.127453,72.3569175 L81.127453,72.3569175 L81.127453,88.253513 L68.5198083,88.253513 C66.0978918,88.253513 64.1345405,86.2901618 64.1345405,83.8682453 L64.1345405,76.7421853 C64.1345405,74.3202688 66.0978918,72.3569175 68.5198083,72.3569175 Z" id="Rectangle-Copy-26" fill-opacity="0.6" fill="#F7B500" fill-rule="nonzero"></path>
                        <path d="M68.5198083,91.5424638 L81.127453,91.5424638 L81.127453,91.5424638 L81.127453,107.439059 L68.5198083,107.439059 C66.0978918,107.439059 64.1345405,105.475708 64.1345405,103.053792 L64.1345405,95.9277316 C64.1345405,93.5058151 66.0978918,91.5424638 68.5198083,91.5424638 Z" id="Rectangle-Copy-28" fill-opacity="0.6" fill="#B620E0" fill-rule="nonzero"></path>
                        <rect id="Rectangle-Copy-33" fill-opacity="0.6" fill="#8F98FF" fill-rule="nonzero" x="3.2889508" y="91.5424638" width="59.2011143" height="15.8965955" rx="7.94829776"></rect>
                        <g id="Mask-Copy-14" opacity="0.754561" transform="translate(3.288951, 116.209595)">
                            <g id="path-7-link" fill="#000000" fill-rule="nonzero">
                                <rect id="path-7" x="0" y="0" width="17.5410709" height="17.5410709" rx="4"></rect>
                            </g>
                            <g id="path-7-link" fill="#FFFFFF">
                                <rect id="path-7" x="0" y="0" width="17.5410709" height="17.5410709" rx="4"></rect>
                            </g>
                        </g>
                        <g id="Mask-Copy-14" transform="translate(7.126060, 112.920644)">
                            <g id="path-9-link" fill="#000000" fill-rule="nonzero">
                                <rect id="path-9" x="0" y="0" width="9.86685239" height="9.86685239" rx="4"></rect>
                            </g>
                            <g id="path-9-link" fill="#FFFFFF">
                                <rect id="path-9" x="0" y="0" width="9.86685239" height="9.86685239" rx="4"></rect>
                            </g>
                        </g>
                        <g id="Mask-Copy-15" opacity="0.754561" transform="translate(22.474497, 116.209595)">
                            <g id="path-11-link" fill="#000000" fill-rule="nonzero">
                                <rect id="path-11" x="0" y="0" width="17.5410709" height="17.5410709" rx="4"></rect>
                            </g>
                            <g id="path-11-link" fill="#FFFFFF">
                                <rect id="path-11" x="0" y="0" width="17.5410709" height="17.5410709" rx="4"></rect>
                            </g>
                        </g>
                        <g id="Mask-Copy-17" opacity="0.754561" transform="translate(41.111885, 116.209595)">
                            <g id="path-13-link" fill="#000000" fill-rule="nonzero">
                                <rect id="path-13" x="0" y="0" width="17.5410709" height="17.5410709" rx="4"></rect>
                            </g>
                            <g id="path-13-link" fill="#FFFFFF">
                                <rect id="path-13" x="0" y="0" width="17.5410709" height="17.5410709" rx="4"></rect>
                            </g>
                        </g>
                        <g id="Mask-Copy-20" transform="translate(44.948994, 112.920644)">
                            <g id="path-15-link" fill="#000000" fill-rule="nonzero">
                                <rect id="path-15" x="0" y="0" width="9.86685239" height="9.86685239" rx="4"></rect>
                            </g>
                            <g id="path-15-link" fill="#FFFFFF">
                                <rect id="path-15" x="0" y="0" width="9.86685239" height="9.86685239" rx="4"></rect>
                            </g>
                        </g>
                        <g id="Mask-Copy-18" opacity="0.754561" transform="translate(59.749273, 116.209595)">
                            <g id="path-17-link" fill="#000000" fill-rule="nonzero">
                                <rect id="path-17" x="0" y="0" width="17.5410709" height="17.5410709" rx="4"></rect>
                            </g>
                            <g id="path-17-link" fill="#FFFFFF">
                                <rect id="path-17" x="0" y="0" width="17.5410709" height="17.5410709" rx="4"></rect>
                            </g>
                        </g>
                        <g id="Mask-Copy-16" transform="translate(26.311606, 112.920644)">
                            <g id="path-19-link" fill="#000000" fill-rule="nonzero">
                                <rect id="path-19" x="0" y="0" width="9.86685239" height="9.86685239" rx="4"></rect>
                            </g>
                            <g id="path-19-link" fill="#FFFFFF">
                                <rect id="path-19" x="0" y="0" width="9.86685239" height="9.86685239" rx="4"></rect>
                            </g>
                        </g>
                        <g id="Mask-Copy-21" transform="translate(63.586382, 112.920644)">
                            <g id="path-21-link" fill="#000000" fill-rule="nonzero">
                                <rect id="path-21" x="0" y="0" width="9.86685239" height="9.86685239" rx="4"></rect>
                            </g>
                            <g id="path-21-link" fill="#FFFFFF">
                                <rect id="path-21" x="0" y="0" width="9.86685239" height="9.86685239" rx="4"></rect>
                            </g>
                        </g>
                        <g id="Rectangle-Copy-21" transform="translate(4.385268, 46.045311)">
                            <g id="path-23-link" fill="#000000" fill-rule="nonzero">
                                <rect id="path-23" x="0" y="0" width="58.1047974" height="21.9263386" rx="8"></rect>
                            </g>
                            <g id="path-23-link" fill="#FFFFFF">
                                <rect id="path-23" x="0" y="0" width="58.1047974" height="21.9263386" rx="8"></rect>
                            </g>
                        </g>
                        <g id="Rectangle-Copy-20" transform="translate(64.134541, 46.045311)">
                            <g id="path-25-link" fill="#000000" fill-rule="nonzero">
                                <path d="M4.38526773,0 L16.9929125,0 L16.9929125,0 L16.9929125,21.9263386 L4.38526773,21.9263386 C1.96335124,21.9263386 0,19.9629874 0,17.5410709 L0,4.38526773 C0,1.96335124 1.96335124,0 4.38526773,0 Z" id="path-25"></path>
                            </g>
                            <g id="path-25-link" fill="#FFFFFF">
                                <path d="M4.38526773,0 L16.9929125,0 L16.9929125,0 L16.9929125,21.9263386 L4.38526773,21.9263386 C1.96335124,21.9263386 0,19.9629874 0,17.5410709 L0,4.38526773 C0,1.96335124 1.96335124,0 4.38526773,0 Z" id="path-25"></path>
                            </g>
                        </g>
                    </g>
                    <g id="Group-13-Copy" transform="translate(3.288951, 10.415011)" stroke="#FFFFFF">
                        <line x1="7.67421853" y1="7.12606006" x2="7.67421853" y2="0" id="Stroke-1"></line>
                        <line x1="7.12606006" y1="7.12606006" x2="2.19263386" y2="2.19263386" id="Stroke-3"></line>
                        <line x1="7.12606006" y1="7.67421853" x2="0" y2="7.67421853" id="Stroke-4"></line>
                        <line x1="7.12606006" y1="8.22237699" x2="2.19263386" y2="13.1558032" id="Stroke-6"></line>
                        <line x1="7.67421853" y1="15.3484371" x2="7.67421853" y2="8.22237699" id="Stroke-7"></line>
                        <line x1="13.1558032" y1="13.1558032" x2="8.22237699" y2="8.22237699" id="Stroke-9"></line>
                        <line x1="15.3484371" y1="7.67421853" x2="8.22237699" y2="7.67421853" id="Stroke-10"></line>
                        <line x1="13.1558032" y1="2.19263386" x2="8.22237699" y2="7.12606006" id="Stroke-12"></line>
                    </g>
                    <g id="Group-13-Copy-3" transform="translate(12.059486, 114.016961)" stroke="#FFDF5D">
                        <line x1="3.83710926" y1="3.83710926" x2="3.83710926" y2="0" id="Stroke-1"></line>
                        <line x1="3.2889508" y1="3.2889508" x2="1.09631693" y2="1.09631693" id="Stroke-3"></line>
                        <line x1="3.83710926" y1="3.83710926" x2="0" y2="3.83710926" id="Stroke-4"></line>
                        <line x1="3.2889508" y1="4.38526773" x2="1.09631693" y2="6.57790159" id="Stroke-6"></line>
                        <line x1="3.83710926" y1="7.67421853" x2="3.83710926" y2="3.83710926" id="Stroke-7"></line>
                        <line x1="6.57790159" y1="6.57790159" x2="4.38526773" y2="4.38526773" id="Stroke-9"></line>
                        <line x1="7.67421853" y1="3.83710926" x2="3.83710926" y2="3.83710926" id="Stroke-10"></line>
                        <line x1="6.57790159" y1="1.09631693" x2="4.38526773" y2="3.2889508" id="Stroke-12"></line>
                    </g>
                    <g id="Group-13" transform="translate(141.424884, 0.000000)" stroke="#FFD954">
                        <line x1="6.57790159" y1="6.02974313" x2="6.57790159" y2="0" id="Stroke-1"></line>
                        <line x1="6.02974313" y1="6.02974313" x2="2.19263386" y2="2.19263386" id="Stroke-3"></line>
                        <line x1="6.02974313" y1="6.57790159" x2="0" y2="6.57790159" id="Stroke-4"></line>
                        <line x1="6.02974313" y1="7.12606006" x2="2.19263386" y2="10.9631693" id="Stroke-6"></line>
                        <line x1="6.57790159" y1="13.1558032" x2="6.57790159" y2="7.12606006" id="Stroke-7"></line>
                        <line x1="10.9631693" y1="10.9631693" x2="7.12606006" y2="7.12606006" id="Stroke-9"></line>
                        <line x1="13.1558032" y1="6.57790159" x2="7.12606006" y2="6.57790159" id="Stroke-10"></line>
                        <line x1="10.9631693" y1="2.19263386" x2="7.12606006" y2="6.02974313" id="Stroke-12"></line>
                    </g>
                    <g id="Group-13-Copy-2" transform="translate(137.039617, 91.542464)" stroke="#FFFFFF">
                        <line x1="3.83710926" y1="3.83710926" x2="3.83710926" y2="0" id="Stroke-1"></line>
                        <line x1="3.2889508" y1="3.2889508" x2="1.09631693" y2="1.09631693" id="Stroke-3"></line>
                        <line x1="3.83710926" y1="3.83710926" x2="0" y2="3.83710926" id="Stroke-4"></line>
                        <line x1="3.2889508" y1="4.38526773" x2="1.09631693" y2="6.57790159" id="Stroke-6"></line>
                        <line x1="3.83710926" y1="7.67421853" x2="3.83710926" y2="3.83710926" id="Stroke-7"></line>
                        <line x1="6.57790159" y1="6.57790159" x2="4.38526773" y2="4.38526773" id="Stroke-9"></line>
                        <line x1="7.67421853" y1="3.83710926" x2="3.83710926" y2="3.83710926" id="Stroke-10"></line>
                        <line x1="6.57790159" y1="1.09631693" x2="4.38526773" y2="3.2889508" id="Stroke-12"></line>
                    </g>
                </g>
            </g>
        </g>
    </g>
</svg>