<?xml version="1.0" encoding="UTF-8"?>
<svg width="240px" height="240px" viewBox="0 0 240 240" version="1.1" xmlns="http://www.w3.org/2000/svg" xmlns:xlink="http://www.w3.org/1999/xlink">
    <title>ic_switchNewExperience</title>
    <defs>
        <rect id="path-1" x="0" y="0" width="239.727969" height="231.688312"></rect>
    </defs>
    <g id="ic_switchNewExperience" stroke="none" stroke-width="1" fill="none" fill-rule="evenodd">
        <g transform="translate(0.000000, 8.311688)">
            <mask id="mask-2" fill="white">
                <use xlink:href="#path-1"></use>
            </mask>
            <g id="path-1"></g>
            <g id="Group-23" mask="url(#mask-2)">
                <g transform="translate(15.348437, 6.577902)" id="Group">
                    <path d="M50.933338,134.481544 C69.4781072,134.481544 71.796543,216.804898 71.796543,216.804898 C71.796543,216.804898 78.2873482,179.13158 90.341991,179.13158 C102.395955,179.13158 88.0235555,220.99052 94.0505373,220.060609 C100.078199,219.130698 95.9051504,142.388172 113.059809,162.852346 C130.213789,183.317201 122.332194,214.944395 140.877642,214.479099 C159.422411,214.014484 134.386837,199.595754 145.050011,185.642319 C155.713865,171.689566 182.604052,204.246672 184.922488,212.618596 C184.922488,212.618596 183.531698,167.503264 196.049485,167.503264 C208.567951,167.503264 209.031095,232.15354 209.031095,232.15354 L14.3062642,236.804457 C14.3062642,236.804457 -5.16615096,183.782497 1.3246541,167.503264 C7.81545916,151.225392 29.6063101,184.712408 33.7786794,197.270635 L33.7783137,197.253386 C33.7755827,197.121571 33.7583959,196.239166 33.7554503,194.775146 L33.7554223,193.923224 C33.7800085,180.920356 34.9842524,134.481544 50.933338,134.481544 Z M111.43921,181.62503 L111.366269,181.628074 C111.122539,181.656422 110.941587,181.860083 110.934055,182.098949 L110.937108,182.171525 L116.149862,227.27466 L116.161931,227.340227 C116.221548,227.574188 116.445828,227.733772 116.691589,227.705187 C116.935319,227.676838 117.116272,227.473178 117.123803,227.234311 L117.12075,227.161735 L111.907996,182.0586 L111.895927,181.993034 C111.848234,181.805866 111.695156,181.666298 111.510003,181.632593 L111.43921,181.62503 Z M11.8546406,181.531162 C11.7526051,181.314597 11.5102185,181.204582 11.2845619,181.283003 C11.0383912,181.368552 10.9053507,181.645959 10.9874076,181.902608 L10.9874076,181.902608 L25.395905,226.967971 L25.4201351,227.029615 C25.5221706,227.24618 25.7645572,227.356195 25.9902138,227.277774 C26.2363845,227.192225 26.369425,226.914818 26.2873681,226.658169 L26.2873681,226.658169 L11.8788707,181.592805 L11.8546406,181.531162 Z M198.106196,189.469248 L198.033821,189.471487 C197.789785,189.497055 197.606537,189.69864 197.5963,189.937405 L197.598532,190.010011 L197.775203,191.836463 L197.903084,193.258969 C198.00158,194.385555 198.099133,195.575429 198.192969,196.813064 L198.248803,197.561252 L198.322052,198.581577 C198.560122,201.976316 198.736506,205.303384 198.828633,208.435862 C199.066991,216.540401 198.7156,222.436021 197.632791,225.0703 C197.529902,225.320613 197.648767,225.607205 197.898285,225.710423 C198.147803,225.81364 198.433486,225.694396 198.536376,225.444084 C199.631702,222.779352 200.008672,217.282625 199.838968,209.692937 L199.828572,209.252754 L199.805599,208.406947 C199.713974,205.291551 199.539524,201.986977 199.304214,198.615394 L199.223553,197.489218 L199.175602,196.8452 C199.098321,195.821341 199.018462,194.829616 198.937569,193.878652 L198.876729,193.173206 L198.774862,192.033626 C198.748084,191.740603 198.722261,191.463137 198.697551,191.202119 L198.673218,190.946616 L198.570635,189.908162 C198.547697,189.68783 198.382637,189.516894 198.176348,189.477424 L198.106196,189.469248 Z M155.353243,196.184698 C155.199113,196.373042 155.208225,196.642102 155.363663,196.819273 L155.420872,196.874691 L156.043804,197.408271 L156.627184,197.926239 C157.100522,198.352275 157.61016,198.824569 158.148819,199.34002 C160.201606,201.304363 162.254557,203.487866 164.16958,205.831107 C169.257527,212.05677 172.449704,218.248006 172.836422,223.982943 C172.854638,224.253084 173.087703,224.457262 173.356987,224.438988 C173.62627,224.420714 173.8298,224.186908 173.811585,223.916767 C173.40827,217.935709 170.130473,211.578413 164.925419,205.209456 C162.983205,202.832945 160.903402,200.620882 158.823437,198.630531 C158.095186,197.933658 157.41866,197.314037 156.811046,196.778903 C156.651218,196.638139 156.504716,196.510792 156.372447,196.397244 L156.244957,196.28831 L156.041047,196.116854 C155.832439,195.945053 155.524499,195.975427 155.353243,196.184698 Z M52.4532752,154.824398 C52.2079123,154.824398 52.0047831,155.005797 51.9698782,155.242204 L51.9645795,155.314649 L51.9645795,222.642517 L51.9690407,222.709042 C52.0014005,222.948334 52.2058676,223.132769 52.4532752,223.132769 C52.6986381,223.132769 52.9017674,222.95137 52.9366721,222.714963 L52.9419708,222.642517 L52.9419708,155.314649 L52.9375096,155.248125 C52.9051499,155.008833 52.7006827,154.824398 52.4532752,154.824398 Z" id="Combined-Shape-Copy-2" fill="#F5F5EF" fill-rule="nonzero" opacity="0.0962146577"></path>
                    <g id="Group-17" transform="translate(30.696874, 192.951780)">
                        <path d="M132.990332,36.9268089 C132.990332,36.9268089 123.509244,37.3315703 121.80237,35.0266314 C120.095774,32.7219747 125.265536,32.6674985 125.265536,32.6674985 C125.265536,32.6674985 117.917762,31.400149 116.3783,27.8097959 C114.838838,24.219725 124.341858,24.6089622 124.341858,24.6089622 C124.341858,24.6089622 118.045194,20.274006 117.219521,15.9430014 C116.393847,11.6119969 135.939603,24.0591188 135.939603,24.0591188 C135.939603,24.0591188 136.287474,16.903816 137.962142,16.0305022 C137.962142,16.0305022 141.608544,13.9753638 140.202067,23.4641138 C140.202067,23.4641138 145.675556,17.7833396 147.384928,20.3324339 C149.094022,22.8815282 141.564401,27.3618485 141.564401,27.3618485 L132.990332,36.9268089 Z" id="Fill-1" fill="#FF4E00" fill-rule="nonzero"></path>
                        <path d="M138.386628,19.4130838 C138.386628,19.4130838 135.957876,21.9062441 138.741255,30.3762531 C138.741255,30.3762531 140.004129,23.9405812 145.444713,21.8502025" id="Stroke-7" stroke="#4A00B2" stroke-linecap="round"></path>
                        <path d="M127.717466,42.0703004 C127.717466,42.0703004 123.223754,31.645094 124.466549,30.9633543 C125.70962,30.281334 128.864768,34.9578839 128.864768,34.9578839 C128.864768,34.9578839 127.908729,29.2061425 130.394595,27.7949889 C132.880461,26.3838352 134.123256,33.2040374 134.123256,33.2040374 C134.123256,33.2040374 138.808232,25.7963218 141.772393,27.7949889 C144.736277,29.7942167 138.425982,36.8090416 138.425982,36.8090416 C138.425982,36.8090416 144.449521,33.3013487 145.309791,36.02971 C146.170336,38.7575105 142.632937,42.0703004 142.632937,42.0703004 L127.717466,42.0703004 Z" id="Fill-9" fill="#FFEA54" fill-rule="nonzero"></path>
                        <path d="M130.827154,33.4625273 C130.827154,33.4625273 132.874632,38.782185 132.874632,42.0703004 L134.259722,42.0703004 C134.259722,42.0703004 136.874925,34.0473319 138.866811,31.8380091" id="Stroke-11" stroke="#4A00B2" stroke-linecap="round"></path>
                        <path d="M7.06964972,41.6537516 C7.06964972,41.6537516 -0.441102551,34.6624669 0.0204317796,31.6423515 C0.48196611,28.6222361 4.45037956,32.5574121 4.45037956,32.5574121 C4.45037956,32.5574121 -0.164126111,25.968145 1.40475556,22.1243366 C2.97391644,18.2805282 9.89581453,25.8767773 9.89581453,25.8767773 C9.89581453,25.8767773 8.41907226,17.8228595 11.0955804,13.979051 C13.7720887,10.1352427 19.1251051,34.3880871 19.1251051,34.3880871 C19.1251051,34.3880871 24.8472374,29.3542846 26.785514,29.9952423 C26.785514,29.9952423 31.1233225,31.2766041 22.8168213,37.2251904 C22.8168213,37.2251904 31.3078803,37.2251904 30.6617881,40.4283179 C30.0156959,43.6317223 20.8788239,41.1606432 20.8788239,41.1606432 L7.06964972,41.6537516 Z" id="Fill-15" fill="#FF4E00" fill-rule="nonzero"></path>
                        <path d="M5.11614568,26.0022686 C5.11614568,26.0022686 13.98005,32.929526 16.0789998,41.3394225 C16.0789998,41.3394225 16.1924038,30.7096124 12.1171032,20.1439618" id="Stroke-19" stroke="#4A00B2" stroke-linecap="round"></path>
                        <path d="M15.791064,22.3365956 C15.791064,22.3365956 4.69533026,17.8579307 5.12850683,16.3669168 C5.56141165,14.8759029 11.3978817,15.9971859 11.3978817,15.9971859 C11.3978817,15.9971859 6.42504725,12.3389581 7.25607232,9.32094137 C8.08736914,6.30292458 14.066782,10.5555335 14.066782,10.5555335 C14.066782,10.5555335 12.1226508,1.23240896 15.8356317,0.452459404 C19.5483408,-0.327490153 19.9760823,9.96171465 19.9760823,9.96171465 C19.9760823,9.96171465 21.9251051,2.58143491 24.5907444,3.99934609 C27.2563837,5.41725727 27.0381648,10.7107361 27.0381648,10.7107361 L15.791064,22.3365956 Z" id="Fill-23" fill="#FFEA54" fill-rule="nonzero"></path>
                        <path d="M10.2322914,10.8978277 C10.2322914,10.8978277 16.0435903,13.2848797 18.6016955,15.7586941 L19.7337048,14.6657582 C19.7337048,14.6657582 15.6291189,6.56702574 15.5381989,3.33376878" id="Stroke-25" stroke="#4A00B2" stroke-linecap="round"></path>
                    </g>
                    <path d="M151.291737,36.1784588 C154.420046,36.1784588 157.252198,37.4464564 159.302272,39.4965313 C161.352347,41.5466062 162.620345,44.3787583 162.620345,47.5070671 L162.620345,47.5070671 L162.620345,224.744971 L46.4107501,224.744971 L46.4107501,47.5070671 C46.4107501,44.3787583 47.6787478,41.5466062 49.7288227,39.4965313 C51.7788976,37.4464564 54.6110496,36.1784588 57.7393584,36.1784588 L57.7393584,36.1784588 L151.291737,36.1784588 Z" id="Rectangle" stroke="#FFFFFF" fill="#024F9D" fill-rule="nonzero"></path>
                    <g id="Group-16" transform="translate(50.430579, 44.583555)">
                        <rect id="Mask" fill="#F3F7FB" fill-rule="nonzero" x="0" y="19.7337048" width="108.169937" height="160.79315"></rect>
                        <g id="Rectangle">
                            <g id="path-3-link" fill="#000000" fill-rule="nonzero">
                                <path d="M11.6940473,0 L96.47589,0 C102.934334,0 108.169937,5.2356033 108.169937,11.6940473 L108.169937,55.5467246 L108.169937,55.5467246 L11.6940473,55.5467246 C5.2356033,55.5467246 0,50.3111213 0,43.8526773 L0,11.6940473 C0,5.2356033 5.2356033,0 11.6940473,0 Z" id="path-3"></path>
                            </g>
                            <g id="path-3-link" fill="#FFD954">
                                <path d="M11.6940473,0 L96.47589,0 C102.934334,0 108.169937,5.2356033 108.169937,11.6940473 L108.169937,55.5467246 L108.169937,55.5467246 L11.6940473,55.5467246 C5.2356033,55.5467246 0,50.3111213 0,43.8526773 L0,11.6940473 C0,5.2356033 5.2356033,0 11.6940473,0 Z" id="path-3"></path>
                            </g>
                        </g>
                        <g id="notification" transform="translate(95.014134, 7.308780)" fill="#333333" fill-rule="nonzero">
                            <path d="M3.93396137,5.62213811 C3.90478912,6.1548913 3.46355014,6.57790159 2.92351182,6.57790159 C2.3834735,6.57790159 1.94223451,6.1548913 1.91306227,5.62213811 L0.337614813,5.62213811 C0.150964337,5.62213811 0,5.47155593 0,5.28514377 L0,4.94748154 C0,4.57522268 0.302320807,4.27282497 0.674891231,4.27282497 C0.674453581,4.27282497 0.674656574,2.92342742 0.674656574,2.92342742 C0.674656574,1.97298729 1.26901174,1.13968684 2.13641248,0.81619749 L2.13641248,0.786565615 C2.13641248,0.35228829 2.48930926,0 2.92351182,0 C3.35818018,0 3.71061116,0.35207629 3.71061116,0.786565615 L3.71061116,0.81621623 C4.5779905,1.13974865 5.17236707,1.97318747 5.17236707,2.92342742 L5.17236707,4.27262895 C5.54414695,4.27282497 5.84702364,4.57510535 5.84702364,4.94748154 L5.84702364,5.28514377 C5.84702364,5.47081751 5.69556342,5.62213811 5.50940883,5.62213811 L3.93396137,5.62213811 Z M5.22208818,5.00516468 L5.22208818,4.79620319 C5.22208818,4.68119184 5.1279527,4.5872417 5.01290865,4.5872417 C4.78198842,4.5872417 4.59520372,4.4005477 4.59520372,4.16913659 L4.59520372,2.91547138 C4.59520372,2.16579735 4.09744176,1.51380616 3.38799735,1.30915 L3.23695405,1.26557795 L3.23695405,0.929919739 C3.23695405,0.757103135 3.09668318,0.616973437 2.92351182,0.616973437 C2.75070612,0.616973437 2.61006959,0.757367479 2.61006959,0.929919739 L2.61006959,1.26557461 L2.45901816,1.30914237 C1.7495442,1.51377596 1.25181991,2.16561456 1.25181991,2.91547138 L1.25181991,4.16913659 C1.25181991,4.399885 1.06457834,4.5872417 0.834114985,4.5872417 C0.718762381,4.5872417 0.624935455,4.6810925 0.624935455,4.79620319 L0.624935455,5.00516468 L5.22208818,5.00516468 Z" id="Shape"></path>
                        </g>
                        <g id="Group-13" stroke-linecap="round" transform="translate(6.577902, 8.039658)" stroke="#333333">
                            <line x1="0" y1="0.730877955" x2="6.57790159" y2="0.730877955" id="Stroke-7"></line>
                            <line x1="0" y1="2.92351182" x2="3.65438977" y2="2.92351182" id="Stroke-9"></line>
                            <line x1="0" y1="5.11614568" x2="6.57790159" y2="5.11614568" id="Stroke-11"></line>
                        </g>
                        <g id="Rectangle-Copy-22" transform="translate(4.385268, 34.351264)">
                            <g id="path-5-link" fill="#000000" fill-rule="nonzero">
                                <rect id="path-5" x="0" y="0" width="98.6685239" height="15.3484371" rx="4"></rect>
                            </g>
                            <g id="path-5-link" fill="#FFD954">
                                <rect id="path-5" x="0" y="0" width="98.6685239" height="15.3484371" rx="4"></rect>
                            </g>
                        </g>
                        <rect id="Rectangle-Copy-3" fill-opacity="0.6" fill="#FF8B2E" fill-rule="nonzero" x="4.38526773" y="96.47589" width="78.9348191" height="21.1954607" rx="8"></rect>
                        <path d="M91.3597444,96.47589 L108.169937,96.47589 L108.169937,96.47589 L108.169937,117.671351 L91.3597444,117.671351 C88.1305224,117.671351 85.5127207,115.053549 85.5127207,111.824327 L85.5127207,102.322914 C85.5127207,99.0936917 88.1305224,96.47589 91.3597444,96.47589 Z" id="Rectangle-Copy-26" fill-opacity="0.6" fill="#F7B500" fill-rule="nonzero"></path>
                        <path d="M91.3597444,122.056618 L108.169937,122.056618 L108.169937,122.056618 L108.169937,143.252079 L91.3597444,143.252079 C88.1305224,143.252079 85.5127207,140.634278 85.5127207,137.405056 L85.5127207,127.903642 C85.5127207,124.67442 88.1305224,122.056618 91.3597444,122.056618 Z" id="Rectangle-Copy-28" fill-opacity="0.6" fill="#B620E0" fill-rule="nonzero"></path>
                        <rect id="Rectangle-Copy-33" fill-opacity="0.6" fill="#8F98FF" fill-rule="nonzero" x="4.38526773" y="122.056618" width="78.9348191" height="21.1954607" rx="8"></rect>
                        <g id="Mask-Copy-14" opacity="0.754561" transform="translate(4.385268, 154.946126)">
                            <g id="path-7-link" fill="#000000" fill-rule="nonzero">
                                <rect id="path-7" x="0" y="0" width="23.3880946" height="23.3880946" rx="4"></rect>
                            </g>
                            <g id="path-7-link" fill="#FFFFFF">
                                <rect id="path-7" x="0" y="0" width="23.3880946" height="23.3880946" rx="4"></rect>
                            </g>
                        </g>
                        <g id="Mask-Copy-14" transform="translate(9.501413, 150.560859)">
                            <g id="path-9-link" fill="#000000" fill-rule="nonzero">
                                <rect id="path-9" x="0" y="0" width="13.1558032" height="13.1558032" rx="4"></rect>
                            </g>
                            <g id="path-9-link" fill="#FFFFFF">
                                <rect id="path-9" x="0" y="0" width="13.1558032" height="13.1558032" rx="4"></rect>
                            </g>
                        </g>
                        <g id="Mask-Copy-15" opacity="0.754561" transform="translate(29.965996, 154.946126)">
                            <g id="path-11-link" fill="#000000" fill-rule="nonzero">
                                <rect id="path-11" x="0" y="0" width="23.3880946" height="23.3880946" rx="4"></rect>
                            </g>
                            <g id="path-11-link" fill="#FFFFFF">
                                <rect id="path-11" x="0" y="0" width="23.3880946" height="23.3880946" rx="4"></rect>
                            </g>
                        </g>
                        <g id="Mask-Copy-17" opacity="0.754561" transform="translate(54.815847, 154.946126)">
                            <g id="path-13-link" fill="#000000" fill-rule="nonzero">
                                <rect id="path-13" x="0" y="0" width="23.3880946" height="23.3880946" rx="4"></rect>
                            </g>
                            <g id="path-13-link" fill="#FFFFFF">
                                <rect id="path-13" x="0" y="0" width="23.3880946" height="23.3880946" rx="4"></rect>
                            </g>
                        </g>
                        <g id="Mask-Copy-20" transform="translate(59.931992, 150.560859)">
                            <g id="path-15-link" fill="#000000" fill-rule="nonzero">
                                <rect id="path-15" x="0" y="0" width="13.1558032" height="13.1558032" rx="4"></rect>
                            </g>
                            <g id="path-15-link" fill="#FFFFFF">
                                <rect id="path-15" x="0" y="0" width="13.1558032" height="13.1558032" rx="4"></rect>
                            </g>
                        </g>
                        <g id="Mask-Copy-18" opacity="0.754561" transform="translate(79.665697, 154.946126)">
                            <g id="path-17-link" fill="#000000" fill-rule="nonzero">
                                <rect id="path-17" x="0" y="0" width="23.3880946" height="23.3880946" rx="4"></rect>
                            </g>
                            <g id="path-17-link" fill="#FFFFFF">
                                <rect id="path-17" x="0" y="0" width="23.3880946" height="23.3880946" rx="4"></rect>
                            </g>
                        </g>
                        <g id="Mask-Copy-16" transform="translate(35.082142, 150.560859)">
                            <g id="path-19-link" fill="#000000" fill-rule="nonzero">
                                <rect id="path-19" x="0" y="0" width="13.1558032" height="13.1558032" rx="4"></rect>
                            </g>
                            <g id="path-19-link" fill="#FFFFFF">
                                <rect id="path-19" x="0" y="0" width="13.1558032" height="13.1558032" rx="4"></rect>
                            </g>
                        </g>
                        <g id="Mask-Copy-21" transform="translate(84.781843, 150.560859)">
                            <g id="path-21-link" fill="#000000" fill-rule="nonzero">
                                <rect id="path-21" x="0" y="0" width="13.1558032" height="13.1558032" rx="4"></rect>
                            </g>
                            <g id="path-21-link" fill="#FFFFFF">
                                <rect id="path-21" x="0" y="0" width="13.1558032" height="13.1558032" rx="4"></rect>
                            </g>
                        </g>
                        <g id="Rectangle-Copy-21" transform="translate(5.847024, 61.393748)">
                            <g id="path-23-link" fill="#000000" fill-rule="nonzero">
                                <rect id="path-23" x="0" y="0" width="77.4730632" height="29.2351182" rx="8"></rect>
                            </g>
                            <g id="path-23-link" fill="#FFFFFF">
                                <rect id="path-23" x="0" y="0" width="77.4730632" height="29.2351182" rx="8"></rect>
                            </g>
                        </g>
                        <g id="Rectangle-Copy-20" transform="translate(85.512721, 61.393748)">
                            <g id="path-25-link" fill="#000000" fill-rule="nonzero">
                                <path d="M5.84702364,0 L22.6572166,0 L22.6572166,0 L22.6572166,29.2351182 L5.84702364,29.2351182 C2.61780165,29.2351182 0,26.6173165 0,23.3880946 L0,5.84702364 C0,2.61780165 2.61780165,0 5.84702364,0 Z" id="path-25"></path>
                            </g>
                            <g id="path-25-link" fill="#FFFFFF">
                                <path d="M5.84702364,0 L22.6572166,0 L22.6572166,0 L22.6572166,29.2351182 L5.84702364,29.2351182 C2.61780165,29.2351182 0,26.6173165 0,23.3880946 L0,5.84702364 C0,2.61780165 2.61780165,0 5.84702364,0 Z" id="path-25"></path>
                            </g>
                        </g>
                    </g>
                    <g id="Group-13-Copy" transform="translate(4.385268, 13.886681)" stroke="#FFFFFF">
                        <line x1="10.2322914" y1="9.50141341" x2="10.2322914" y2="0" id="Stroke-1"></line>
                        <line x1="9.50141341" y1="9.50141341" x2="2.92351182" y2="2.92351182" id="Stroke-3"></line>
                        <line x1="9.50141341" y1="10.2322914" x2="0" y2="10.2322914" id="Stroke-4"></line>
                        <line x1="9.50141341" y1="10.9631693" x2="2.92351182" y2="17.5410709" id="Stroke-6"></line>
                        <line x1="10.2322914" y1="20.4645827" x2="10.2322914" y2="10.9631693" id="Stroke-7"></line>
                        <line x1="17.5410709" y1="17.5410709" x2="10.9631693" y2="10.9631693" id="Stroke-9"></line>
                        <line x1="20.4645827" y1="10.2322914" x2="10.9631693" y2="10.2322914" id="Stroke-10"></line>
                        <line x1="17.5410709" y1="2.92351182" x2="10.9631693" y2="9.50141341" id="Stroke-12"></line>
                    </g>
                    <g id="Group-13-Copy-3" transform="translate(16.079315, 152.022615)" stroke="#FFDF5D">
                        <line x1="5.11614568" y1="5.11614568" x2="5.11614568" y2="0" id="Stroke-1"></line>
                        <line x1="4.38526773" y1="4.38526773" x2="1.46175591" y2="1.46175591" id="Stroke-3"></line>
                        <line x1="5.11614568" y1="5.11614568" x2="0" y2="5.11614568" id="Stroke-4"></line>
                        <line x1="4.38526773" y1="5.84702364" x2="1.46175591" y2="8.77053546" id="Stroke-6"></line>
                        <line x1="5.11614568" y1="10.2322914" x2="5.11614568" y2="5.11614568" id="Stroke-7"></line>
                        <line x1="8.77053546" y1="8.77053546" x2="5.84702364" y2="5.84702364" id="Stroke-9"></line>
                        <line x1="10.2322914" y1="5.11614568" x2="5.11614568" y2="5.11614568" id="Stroke-10"></line>
                        <line x1="8.77053546" y1="1.46175591" x2="5.84702364" y2="4.38526773" id="Stroke-12"></line>
                    </g>
                    <g id="Group-13" transform="translate(188.566512, 0.000000)" stroke="#FFD954">
                        <line x1="8.77053546" y1="8.0396575" x2="8.77053546" y2="0" id="Stroke-1"></line>
                        <line x1="8.0396575" y1="8.0396575" x2="2.92351182" y2="2.92351182" id="Stroke-3"></line>
                        <line x1="8.0396575" y1="8.77053546" x2="0" y2="8.77053546" id="Stroke-4"></line>
                        <line x1="8.0396575" y1="9.50141341" x2="2.92351182" y2="14.6175591" id="Stroke-6"></line>
                        <line x1="8.77053546" y1="17.5410709" x2="8.77053546" y2="9.50141341" id="Stroke-7"></line>
                        <line x1="14.6175591" y1="14.6175591" x2="9.50141341" y2="9.50141341" id="Stroke-9"></line>
                        <line x1="17.5410709" y1="8.77053546" x2="9.50141341" y2="8.77053546" id="Stroke-10"></line>
                        <line x1="14.6175591" y1="2.92351182" x2="9.50141341" y2="8.0396575" id="Stroke-12"></line>
                    </g>
                    <g id="Group-13-Copy-2" transform="translate(182.719489, 122.056618)" stroke="#FFFFFF">
                        <line x1="5.11614568" y1="5.11614568" x2="5.11614568" y2="0" id="Stroke-1"></line>
                        <line x1="4.38526773" y1="4.38526773" x2="1.46175591" y2="1.46175591" id="Stroke-3"></line>
                        <line x1="5.11614568" y1="5.11614568" x2="0" y2="5.11614568" id="Stroke-4"></line>
                        <line x1="4.38526773" y1="5.84702364" x2="1.46175591" y2="8.77053546" id="Stroke-6"></line>
                        <line x1="5.11614568" y1="10.2322914" x2="5.11614568" y2="5.11614568" id="Stroke-7"></line>
                        <line x1="8.77053546" y1="8.77053546" x2="5.84702364" y2="5.84702364" id="Stroke-9"></line>
                        <line x1="10.2322914" y1="5.11614568" x2="5.11614568" y2="5.11614568" id="Stroke-10"></line>
                        <line x1="8.77053546" y1="1.46175591" x2="5.84702364" y2="4.38526773" id="Stroke-12"></line>
                    </g>
                </g>
            </g>
        </g>
    </g>
</svg>