<?xml version="1.0" encoding="UTF-8"?>
<svg width="120px" height="114px" viewBox="0 0 120 114" version="1.1" xmlns="http://www.w3.org/2000/svg" xmlns:xlink="http://www.w3.org/1999/xlink">
    <!-- Generator: sketchtool 63.1 (101010) - https://sketch.com -->
    <title>197E2AB0-A530-4DE4-98D6-7416C5A61E89</title>
    <desc>Created with sketchtool.</desc>
    <defs>
        <rect id="path-1" x="0" y="0" width="148" height="130" rx="1"></rect>
        <polygon id="path-3" points="0 0.319134884 19.6764 0.319134884 19.6764 27.7109488 0 27.7109488"></polygon>
    </defs>
    <g id="Onboarding-FTUE-01" stroke="none" stroke-width="1" fill="none" fill-rule="evenodd">
        <g id="User-Role-Selection" transform="translate(-33.000000, -367.000000)">
            <g id="Group" transform="translate(20.000000, 354.000000)">
                <mask id="mask-2" fill="white">
                    <use xlink:href="#path-1"></use>
                </mask>
                <g id="Mask"></g>
                <path d="M99.0518,16.3808852 C119.88525,24.0103891 132.642297,45.698 129.944914,69.6911914 C128.545118,82.14169 120.643117,107.779874 118.266858,112.189504 C102.234907,141.940041 53.6887387,125.101386 32.6025475,110.751766 C8.69225046,94.4808744 15.4599044,60.0954831 34.7171047,39.1975816 C42.4807892,30.7727414 51.1070896,17.3483997 62.1693679,12.7842625 C73.8416621,7.96828941 88.0298842,12.3444956 99.0518,16.3808852 Z" id="Fill-1" fill="#94E1FF" opacity="0.811351" transform="translate(73.803074, 69.671415) rotate(87.000000) translate(-73.803074, -69.671415) "></path>
                <g id="Group-300" transform="translate(13.000000, 31.000000)">
                    <path d="M71.2568854,50 C75.2285587,79.4432094 77.2143953,94.164814 77.2143953,94.164814 C77.2143953,94.164814 59.2479843,96.3335838 45.6452969,92.0940644 C32.0426094,87.854545 39,83.5478832 39,83.5478832 L41.7061796,54.1867906 L71.2568854,50 Z" id="Fill-1" fill="#361808"></path>
                    <path d="M65.7569854,15.7043871 C66.136033,15.0209484 66.7352362,14.4252336 67.4962798,14.1514848 C68.2566683,13.877425 69.1821734,13.9685709 69.7921877,14.4793612 C70.4025297,14.9904627 70.5964762,15.9364514 70.1374912,16.5741617 C71.1829025,16.3760049 72.3341325,16.9281687 72.7868929,17.844605 C73.2393257,18.7610413 72.9500439,19.9546483 72.1211845,20.5911143 C71.2919974,21.2275803 70.0025149,21.2459339 69.1533435,20.6340431 C69.0334373,21.2017608 68.5875568,21.6973083 68.0155455,21.8979537 C67.4432066,22.0989102 66.7650489,21.9978098 66.2847691,21.6410032 C65.0716203,20.7382543 65.3497632,18.640343 64,17.9338845" id="Fill-3" fill="#263238"></path>
                    <path d="M63,20.3945487 C64.1511154,19.2362854 64.6993901,17.532871 64.4344094,15.9390715 C64.397783,15.7198418 64.3491969,15.4845353 64.447864,15.2850364 C64.6231474,14.9298843 65.1845031,14.9203844 65.4879789,15.1801715 C65.7918285,15.4392279 65.892738,15.8557642 65.9435665,16.2467238 C66.0784862,17.2876992 65.9704757,18.3579053 65.6303734,19.3528425 C65.4947062,19.7496482 65.3179278,20.1417039 65.0342601,20.4555677 C64.7513398,20.7690661 64.3473282,20.998161 63.9197711,21 C63.4914665,21.0018149 63.1222126,20.795739 63,20.3945487" id="Fill-5" fill="#E8505B"></path>
                    <path d="M64,5.4634237 C63.4760433,4.10078615 60.9912544,2.93125819 59.6273306,2.251538 C57.5877515,1.23483518 55.7400967,1.50979255 54.6318447,2.50475455 C52.5073825,0.943252484 49.7324914,-0.532884912 47.1457746,0.18807888 C44.5583761,0.90936239 42.5307283,3.48149264 43.0949108,5.95674837 C43.4269432,7.41498157 44.5573534,8.69736994 44.5471265,10.1882144 C44.5399677,11.2049172 43.9993071,12.1391328 43.5755737,13.074947 C43.1518404,14.0101217 42.8382163,15.0946048 43.2789945,16.0233852 C43.6887511,16.8875826 44.6538269,17.4048861 45.1921012,18.2048202 C45.6304931,18.8564052 45.7549201,19.6454689 46.046045,20.366113 C47.1253209,23.0363966 50.5785945,24.4431552 53.5624548,23.8753363 C56.5459742,23.3071976 58.96872,21.1107359 60.2958271,18.5408437 C61.6229341,15.9709514 61.9890561,13.0576822 62.0524627,10.2026017" id="Fill-7" fill="#263238"></path>
                    <path d="M52.9474815,6.04399024 C50.1947992,5.68370881 47.6809805,7.57768603 47.413697,10.2138366 C47.0946484,13.3589612 46.8236431,17.3120581 47.1430301,19.7088811 C47.7665789,24.3870564 51.4892636,25.0905245 51.4892636,25.0905245 C51.4892636,25.0905245 51.4591519,26.828068 51.4182136,28.8575136 C51.3637419,31.5659139 53.5618953,33.8324292 56.3984843,33.9911208 C59.4475468,34.162069 62.0148223,31.8426565 62,28.9310536 L61.8964055,8.64466094" id="Fill-9" fill="#FFBE9D"></path>
                    <path d="M51.516411,25.1709467 C51.516411,25.1709467 55.0041027,25.4321092 58.5,23.5 C58.5,23.5 56.6380664,27.0586477 51.5,26.4242448 L51.516411,25.1709467 Z" id="Fill-11" fill="#EB996E"></path>
                    <path d="M53.827044,15.0059084 C53.8303198,15.1014275 53.9102509,15.1765954 54.0055785,15.173313 C54.1012336,15.1700305 54.1759233,15.0899389 54.172975,14.9944198 C54.1696991,14.8985725 54.0897681,14.8234046 53.9941129,14.826687 C53.8987853,14.8299695 53.8237681,14.9100611 53.827044,15.0059084" id="Fill-17" fill="#EB996E"></path>
                    <path d="M49.8270526,14.0059084 C49.8303284,14.1014275 49.9102595,14.1765954 50.005587,14.173313 C50.1012422,14.1700305 50.1756043,14.0899389 50.1729836,13.9944198 C50.1697077,13.8985725 50.0897767,13.8234046 49.9941215,13.826687 C49.8987939,13.8299695 49.8237767,13.9100611 49.8270526,14.0059084" id="Fill-19" fill="#EB996E"></path>
                    <path d="M48.827044,15.0059084 C48.8303198,15.1014275 48.9102509,15.1765954 49.0055785,15.173313 C49.1012336,15.1700305 49.1759233,15.0899389 49.172975,14.9944198 C49.1696991,14.8985725 49.0897681,14.8234046 48.9941129,14.826687 C48.8987853,14.8299695 48.8237681,14.9100611 48.827044,15.0059084" id="Fill-21" fill="#EB996E"></path>
                    <path d="M47.827044,14.0057441 C47.8303198,14.1015914 47.9102509,14.1764311 48.0055785,14.1731486 C48.1012336,14.1701944 48.1759233,14.0901028 48.172975,13.9942555 C48.1696991,13.8987364 48.0897681,13.8235685 47.9941129,13.8268509 C47.8987853,13.8301334 47.8237681,13.910225 47.827044,14.0057441" id="Fill-23" fill="#EB996E"></path>
                    <path d="M54.827208,16.0055802 C54.8301563,16.1014275 54.9100873,16.1765954 55.0057425,16.173313 C55.10107,16.1700305 55.1757597,16.0899389 55.1728114,15.9940916 C55.1695356,15.8985725 55.0896045,15.8234046 54.9942769,15.826687 C54.8986218,15.8299695 54.8239321,15.9100611 54.827208,16.0055802" id="Fill-25" fill="#EB996E"></path>
                    <path d="M54.8272076,15.0057441 C54.8304834,15.1015914 54.9104145,15.1764311 55.0057421,15.1731486 C55.1013972,15.1698662 55.1757593,15.0901028 55.172811,14.9942555 C55.1698628,14.8987364 55.0899317,14.8235685 54.9942766,14.8268509 C54.898949,14.8301334 54.8239317,14.910225 54.8272076,15.0057441" id="Fill-27" fill="#EB996E"></path>
                    <path d="M52.2468611,4.54880915 C52.7761187,8.37572142 55.5601456,11.7408862 59.0586545,12.7832502 C57.9951078,14.5364843 58.8007869,17.7720651 58.857392,20.4950024 C58.9095945,23.0270797 58.9338089,23.7500041 60.5140342,24.9849024 C61.796454,25.2665048 62.4140784,21.5286605 63.3269927,20.4585046 C64.2402214,19.3883488 65.1050214,18.0774413 64.9896099,16.6372847 C64.9358351,15.963582 64.6679043,15.3257075 64.6119282,14.6523397 C64.549977,13.9053066 64.7518685,13.1659749 64.8534432,12.4239644 C65.3025102,9.13983148 63.6030997,5.68593349 60.8791371,4.07333313 C58.1551744,2.46073277 54.5940854,2.70382826 52,4.54311683" id="Fill-29" fill="#263238"></path>
                    <path d="M65.6302158,13.9998943 C65.6328776,14.0025517 65.6724712,13.9550506 65.7460022,13.861045 C65.8135443,13.7643819 65.9000514,13.6072629 65.9519556,13.3863661 C66.0670766,12.9455692 65.983564,12.2573015 65.6115835,11.5401345 C65.4349095,11.177731 65.1570887,10.8169883 64.8120585,10.4954424 C64.4726846,10.1665886 64.0810737,9.84105662 63.6292405,9.55671436 C63.179071,9.27170775 62.669012,9.02623003 62.1117068,8.85981009 C61.557396,8.69206144 60.9718096,8.56550256 60.3745781,8.43695063 C59.7773465,8.30806652 59.1947546,8.18150764 58.6477637,8.01043724 C58.0997746,7.84102772 57.5840593,7.63607541 57.1109321,7.40421688 C56.1633469,6.94049984 55.3787942,6.3924102 54.7722465,5.87554507 C54.1650334,5.35735123 53.7285054,4.87802193 53.4410357,4.53687765 C53.2949718,4.3678003 53.1894997,4.22961528 53.1166341,4.13727048 C53.0434358,4.04492568 53.0035095,3.99775676 53.0001823,4 C52.9971878,4.00207504 53.0311252,4.05389442 53.099,4.1505575 C53.1662093,4.24755276 53.2663579,4.38972389 53.4080964,4.56378387 C53.68625,4.91456124 54.1164563,5.40518451 54.7213404,5.93434014 C55.3255591,6.46283141 56.1124408,7.02188284 57.0663477,7.49523298 C57.5424694,7.73174196 58.06251,7.94101255 58.6154899,8.11307948 C59.168137,8.28780381 59.7540561,8.41569139 60.3512877,8.5445755 C60.948852,8.67279526 61.5311112,8.79802544 62.0804311,8.9627845 C62.6287529,9.12488616 63.1301612,9.36372038 63.5750073,9.64241565 C64.0215169,9.92044657 64.4101333,10.2386707 64.7488418,10.560881 C65.0952028,10.8791052 65.3623766,11.2202494 65.5423779,11.5760094 C65.9163546,12.2759033 66.0095161,12.9462335 65.9103657,13.3773974 C65.8188678,13.8148726 65.6092545,13.9895969 65.6302158,13.9998943" id="Fill-31" fill="#455A64"></path>
                    <path d="M53.0001373,4.00014818 C52.9975076,4.00296034 53.0326801,4.04584582 53.1023675,4.12458637 C53.1710688,4.20438148 53.2765861,4.3172195 53.41366,4.46134283 C53.6904375,4.74748037 54.1033027,5.14926809 54.6548854,5.59183217 C55.2094266,6.02631128 55.9020277,6.51914276 56.7662178,6.8537901 C57.1984772,7.02216834 57.672812,7.11707882 58.1606241,7.2049589 C58.6497511,7.2914329 59.1592583,7.35505808 59.6799419,7.42008933 C60.7206515,7.54733969 61.7130402,7.68443261 62.5788738,7.96424278 C63.441749,8.24756816 64.1721523,8.66236213 64.7010537,9.12285375 C65.2332423,9.5805332 65.5675448,10.0649282 65.7476803,10.4234789 C65.835447,10.6052149 65.9008612,10.7475806 65.9350475,10.8495215 C65.9738357,10.9493533 65.9958596,11.0013783 65.9994755,11 C66.0030913,10.9985662 65.9879705,10.944432 65.9554277,10.8414366 C65.9278157,10.736332 65.8679897,10.5893965 65.7854824,10.4023877 C65.6145509,10.0329398 65.2838643,9.53202339 64.7493747,9.05958009 C64.2185011,8.58291854 63.4811947,8.15406375 62.6081294,7.86195037 C61.7324343,7.57300067 60.7334714,7.43204102 59.692433,7.30443915 C59.1717495,7.23940789 58.6638858,7.17683727 58.1777172,7.0924724 C57.69122,7.00634992 57.2234595,6.91460312 56.7997466,6.75290377 C55.9483764,6.4298566 55.2564327,5.94862529 54.7005767,5.52574635 C54.146693,5.09372788 53.7272535,4.70354033 53.4429156,4.42865144 C53.307814,4.29542524 53.199667,4.18891459 53.1174884,4.10806491 C53.0431989,4.03459717 53.0027671,3.99733601 53.0001373,4.00014818" id="Fill-33" fill="#455A64"></path>
                    <path d="M47,0.00566600088 C46.9982109,0.0295099841 47.4457514,0.0295099841 48.1412875,0.173862748 C48.3146332,0.210917586 48.5037702,0.253127881 48.7011618,0.316926647 C48.9028601,0.369447854 49.1074295,0.451290715 49.325278,0.530878065 C49.7530794,0.706485779 50.2067211,0.933325836 50.6449304,1.22106472 C51.0791918,1.51460348 51.4528002,1.83810834 51.7639611,2.15484665 C51.9125431,2.31885459 52.0589718,2.47094054 52.1734589,2.62882638 C52.2990717,2.77962346 52.3984853,2.93009833 52.4885676,3.0686512 C52.8438724,3.62382935 52.9741509,4.00855524 52.9989145,3.99985541 C53.0064513,3.99792212 52.9745098,3.90254618 52.9102678,3.73112728 C52.8794029,3.64477339 52.8377712,3.54037541 52.7753237,3.42405544 C52.7150296,3.30773547 52.6550943,3.17047145 52.5614231,3.03159636 C52.4752886,2.88885468 52.3780283,2.734191 52.2545689,2.57856068 C52.1415174,2.41616382 51.9958065,2.25956685 51.8475834,2.09104789 C51.5357047,1.76560974 51.1577896,1.43404948 50.7159913,1.13567748 C50.2695275,0.842783143 49.8061957,0.614332006 49.3690631,0.440979803 C49.1461901,0.362036886 48.936955,0.282449536 48.7313089,0.232506058 C48.5296106,0.171607236 48.3365257,0.133263533 48.1592322,0.100397502 C47.9840921,0.0604427192 47.8204365,0.0488429435 47.6786735,0.0304766321 C47.5369104,0.0108214567 47.413451,0.00534378489 47.3126018,0.00405492093 C47.1112624,-0.00174496689 47,-0.0014227509 47,0.00566600088" id="Fill-35" fill="#455A64"></path>
                    <path d="M45.1099081,18 C45.1112339,17.998608 45.1002962,17.9850622 45.0767635,17.9599056 C45.0489219,17.9302337 45.0151143,17.8937889 44.9730206,17.8492811 C44.8818727,17.75188 44.7446537,17.610616 44.5872165,17.4142012 C44.4330937,17.2174637 44.2451634,16.9655753 44.1367802,16.6307992 C44.0837487,16.4640562 44.0552443,16.2769944 44.0741368,16.080902 C44.0946865,15.8851322 44.1606444,15.683557 44.2703533,15.4910123 C44.4841365,15.1004402 44.8460765,14.7537308 45.1735459,14.3299391 C45.4983638,13.9048572 45.7953402,13.4123687 46.0230442,12.8586012 C46.2517425,12.3058014 46.4174659,11.6943028 46.4827609,11.0476495 C46.5507075,10.4000286 46.4980075,9.72854126 46.4655257,9.04866836 C46.432381,8.36944051 46.4280722,7.69956575 46.5838522,7.08000416 C46.7373121,6.46141013 47.0518551,5.91022286 47.4406423,5.46578982 C47.8294294,5.01909913 48.2961065,4.67787261 48.7776988,4.4527534 C49.2586281,4.22344144 49.7541412,4.11442956 50.2075604,4.08314508 C51.1226851,4.01928606 51.8521996,4.25311331 52.310922,4.46178397 C52.5419405,4.56918325 52.7123041,4.6698096 52.825659,4.74140911 C52.8776961,4.77462871 52.9194584,4.80172042 52.9539289,4.8236518 C52.9834277,4.84203546 52.9990057,4.85042099 53,4.84945343 C53,4.84945343 52.7911885,4.65368358 52.3294831,4.42469413 C51.871755,4.20215509 51.1352801,3.95284686 50.2022573,4.00767532 C49.7402204,4.03508955 49.2324438,4.14152127 48.7385881,4.37309088 C48.2440694,4.6001452 47.7641344,4.94620954 47.364078,5.40160827 C46.9640217,5.85507188 46.6388724,6.41915997 46.4794465,7.05484757 C46.3180318,7.69118022 46.3226721,8.37169815 46.3558168,9.05382869 C46.38863,9.73628175 46.4413301,10.4009962 46.3757036,11.0376514 C46.3130601,11.673984 46.1523084,12.276452 45.9292447,12.8218339 C45.7078382,13.3688284 45.4178222,13.8555116 45.1009591,14.2770457 C44.7827701,14.6959997 44.4195044,15.049482 44.2017438,15.4555351 C44.0907091,15.6554977 44.0234254,15.8690062 44.0045329,16.0747741 C43.9872977,16.2815097 44.0207738,16.476957 44.0784456,16.6488604 C44.1964407,16.9939571 44.3929886,17.2452005 44.5537404,17.4400028 C44.7178065,17.63416 44.8603287,17.7715537 44.9571111,17.864117 C45.0021879,17.9060447 45.0389785,17.9395868 45.0691402,17.9673235 C45.0946616,17.9902225 45.1085824,18.0011882 45.1099081,18" id="Fill-37" fill="#455A64"></path>
                    <path d="M64.7941841,13.9997982 C64.7951761,14.0014624 64.8123707,13.9928085 64.8447759,13.9748351 C64.8828025,13.9528676 64.929757,13.9259076 64.9882849,13.8926235 C65.1109618,13.8147388 65.2905133,13.6962476 65.498502,13.5128524 C65.9098502,13.1523861 66.4673525,12.5269787 66.7847916,11.574389 C67.1104973,10.6377757 67.1071906,9.35001552 66.4904991,8.17109426 C66.188932,7.58429635 65.7283147,7.04010203 65.1427057,6.62671406 C64.5594114,6.20866631 63.8683201,5.91443526 63.1398636,5.72205341 C62.4094231,5.52834021 61.6746839,5.4404703 60.9680513,5.39819955 C60.2604267,5.35426459 59.5782634,5.34627642 58.929828,5.3223119 C58.2817232,5.29834738 57.6663543,5.25973787 57.096948,5.17752626 C56.5268803,5.09897588 56.0050899,4.96883522 55.5428192,4.80940459 C54.6159633,4.48887913 53.9549625,4.02123815 53.559817,3.64346411 C53.3653856,3.45074943 53.2258447,3.28832323 53.1375569,3.17382608 C53.096885,3.12023875 53.0638185,3.07730232 53.0373652,3.0426869 C53.0142186,3.01339693 53.0016533,2.99875194 53,3 C53,3 53.1435089,3.27534245 53.5303878,3.67441828 C53.919912,4.06484026 54.5832274,4.54945612 55.517358,4.88262952 C55.9829353,5.04871696 56.5090244,5.18484875 57.084052,5.26805889 C57.6574263,5.35459743 58.2761019,5.39686818 58.92586,5.42349543 C60.2210775,5.48373957 61.6644333,5.44612859 63.1120877,5.82856239 C63.8312856,6.01861435 64.5098116,6.30718712 65.0805406,6.71458396 C65.6542456,7.11765388 66.1036203,7.64587185 66.4012194,8.21869046 C67.0089829,9.3686546 67.0215482,10.6277904 66.7110531,11.5504245 C66.4088247,12.4890349 65.8691783,13.1141094 65.4700648,13.4805669 C65.2686894,13.6669576 65.0944285,13.7907743 64.9763809,13.8739844 C64.9204984,13.9109297 64.8751972,13.9408854 64.8394853,13.9651827 C64.8087334,13.9864845 64.7935228,13.9978011 64.7941841,13.9997982" id="Fill-39" fill="#263238"></path>
                    <path d="M48.0113171,12.9278184 C48.1031127,13.0494725 48.6842121,12.5494494 49.4976692,12.571794 C50.3103067,12.5797388 50.8991922,13.1011134 50.9893487,12.9824386 C51.0336073,12.9303012 50.9414019,12.7118204 50.6852756,12.4769535 C50.4332473,12.2420866 50.0004963,12.0097025 49.4935712,12.0002681 C48.9870558,11.9913302 48.5567636,12.2073283 48.3084236,12.4327608 C48.0539365,12.6591863 47.9662388,12.8731982 48.0113171,12.9278184" id="Fill-41" fill="#263238"></path>
                    <path d="M54.0111187,12.928188 C54.1033203,13.0498255 54.6852152,12.5498705 55.497819,12.5717156 C56.3100131,12.5801557 56.899284,13.1014594 56.9894367,12.9823043 C57.0332838,12.9301739 56.9423115,12.7122193 56.6849664,12.4768879 C56.4329486,12.2420531 56.0002155,12.0097006 55.4937212,12.0002675 C54.986817,11.9913308 54.5569524,12.207796 54.3082129,12.4327013 C54.0545559,12.6595925 53.9664521,12.8735752 54.0111187,12.928188" id="Fill-43" fill="#263238"></path>
                    <path d="M51.6007894,16.9756882 C51.6042905,16.9351806 51.2128044,16.8491019 50.5781513,16.7424077 C50.4171009,16.7199839 50.2652806,16.6801996 50.2401364,16.5543367 C50.2041706,16.4208785 50.2754656,16.2248506 50.357264,16.0132707 C50.5167229,15.573112 50.6835024,15.1116145 50.8585572,14.6280549 C51.5555935,12.6554787 52.0635706,11.0315573 51.9935487,11.0004533 C51.9235268,10.9693492 51.3016049,12.5429977 50.6042503,14.5155739 C50.436516,15.0023887 50.2757839,15.4660562 50.1226906,15.9098316 C50.0580794,16.1167098 49.9492272,16.3503519 50.0268879,16.6273951 C50.0679462,16.765555 50.1844372,16.8675473 50.287242,16.9015448 C50.3900469,16.9395207 50.4807571,16.9434991 50.5603275,16.9510943 C51.2003914,17.0042605 51.5976066,17.0165575 51.6007894,16.9756882" id="Fill-45" fill="#263238"></path>
                    <path d="M52.067306,18.5889266 C52.3075172,18.165808 52.7207591,17.9410547 53.1267914,18.0133944 C53.4086218,18.0634406 53.6911076,18.2599861 53.8582395,18.583922 C54.0250437,18.907858 54.0542099,19.3619143 53.8942876,19.661737 C53.7137195,19.9997769 53.3457015,20.0689318 53.0373267,19.9379015 C52.7286242,19.8068713 52.4654733,19.5156929 52.2154308,19.2258794 C52.1466117,19.1462603 52.0758264,19.0625465 52.0335519,18.9542645 C51.991605,18.8455276 51.9840677,18.704943 52.0394506,18.6175895" id="Fill-47" fill="#EB996E"></path>
                    <path d="M53.9103638,18.0000768 C53.8147185,17.9911693 53.8007578,18.7586433 53.2438168,19.2906018 C52.6880639,19.8243418 52.0072592,19.7217269 52.0004274,19.8293301 C51.9906252,19.8770745 52.1498361,19.9818272 52.4376632,19.9978608 C52.7201437,20.0163885 53.1345078,19.9173366 53.4749102,19.5920331 C53.8147185,19.2656607 53.9659094,18.8231339 53.9926426,18.5088758 C54.0226432,18.1882042 53.954028,17.9965138 53.9103638,18.0000768" id="Fill-49" fill="#263238"></path>
                    <path d="M45.614253,59.7510223 C45.6168536,59.7388813 45.6207545,59.7267404 45.62303,59.7145994 C46.2728482,56.4762482 46.3518406,55.5236761 46.3518406,55.5236761 C46.3518406,55.5236761 42.923635,55.0879146 43.4739813,50.4848554 L44.0067737,46.5 L47.4265275,58.1005099 C47.4265275,58.1005099 46.6294518,58.7597304 45.614253,59.7510223 M65.4972602,60.1451108 C69.1426136,57.2007673 76,55.7966833 76,55.7966833 C76,55.7966833 75.6151152,42.3632187 74.575211,36.190368 C74.5498554,36.0407391 74.5228744,35.893407 74.4942681,35.748372 C73.5564364,30.9891211 69.3766652,28.119264 64.6150158,27.4518401 L61.3873794,27 L51.8553036,27.3488061 L46.0381465,29.1266344 C46.0381465,29.1266344 39.1671071,30.6888788 38.1037977,40.4396991 C37.061293,50.0011863 35.8286213,57.9003483 36.0197634,60.7140946 C36.1546682,62.6996315 37.973444,64.1158564 38.9814912,64.3481751 C39.8939673,64.5581806 41.0531728,64.7557171 42.03879,64.1539199 C41.6922636,64.7954213 41.4552864,65.4234691 41.3980738,66 L47.2165312,66 L51.7766362,61.9524711 L55.9437296,64.9680196 L61.526185,62.5874098 L65.3591048,59.9452774" id="Fill-51" fill="#E850AA"></path>
                    <path d="M52.1742909,26.8705314 L52.0118258,29.5900161 C51.9560965,30.5288245 52.0977812,31.4689211 52.4274342,32.347182 L55.6757911,41 C55.6757911,41 55.1770611,35.9497585 57.2626593,34.0853462 C59.3482575,32.2206119 61.9631266,32.4093398 61.9987052,29.5285024 C62.0046874,29.0489533 61.9880001,25.9088567 61.9880001,25.9088567 L57.5696287,25.9784671 L52.1742909,26.8705314 Z" id="Fill-55" fill="#FFBE9D"></path>
                    <path d="M67.9999567,28.0005445 C68.0018128,28.0052513 67.9439631,28.0395439 67.8332132,28.1010689 C67.7196791,28.1558698 67.5631444,28.25942 67.3642278,28.3962542 C66.9732004,28.677319 66.4593582,29.1853202 66.0083155,29.9569036 C65.5662441,30.7284871 65.19285,31.7730666 65.1291225,32.9780144 C65.0978774,33.5771262 65.1656266,34.2142289 65.2111021,34.8728485 C65.2686425,35.5314682 65.3277298,36.2136219 65.3889825,36.9115772 C65.6497705,39.7044068 65.9294294,42.2279386 66.1496917,44.051498 C66.2585854,44.9632777 66.3566516,45.6998961 66.4262569,46.2085697 C66.4596675,46.4523161 66.4862722,46.646977 66.5066898,46.7942335 C66.5249419,46.9283781 66.5326758,46.9989805 66.5280354,47 C66.5240138,47.0009977 66.5076179,46.9320763 66.4810132,46.7992765 C66.4540991,46.666813 66.4203792,46.4708072 66.3764504,46.2176471 C66.2916866,45.711327 66.17939,44.9760533 66.0587407,44.0649461 C65.8152766,42.2434039 65.521078,39.7205445 65.2599805,36.9256977 C65.1950155,36.2274062 65.1353096,35.54458 65.0845751,34.8846156 C65.0409557,34.2249874 64.9750626,33.5872123 65.0097106,32.9702817 C65.0814815,31.7401188 65.4715808,30.6814188 65.9309762,29.9037837 C66.3993429,29.1258124 66.9320559,28.6208371 67.336695,28.3501945 C67.5424175,28.2184033 67.7042113,28.1222496 67.8223857,28.0751813 C67.9374666,28.0217252 67.9981006,27.9958377 67.9999567,28.0005445" id="Fill-57" fill="#263238"></path>
                    <path d="M43.9956861,47 C43.9806288,47.0016421 43.9263151,46.8651056 43.841349,46.6158932 C43.754232,46.3670123 43.6482933,46.0044614 43.5353638,45.5547525 C43.3073537,44.655666 43.0841835,43.4029764 43.0185768,42.0134189 C42.9551211,40.62353 43.0632108,39.3645439 43.2067927,38.4591608 C43.2783147,38.0058065 43.3503745,37.640273 43.4143679,37.3887409 C43.4762102,37.1372088 43.5176177,36.9986838 43.5337505,37 C43.5488078,37.001335 43.5364393,37.1421798 43.5014849,37.3953689 C43.4643795,37.6478952 43.4165189,38.0144229 43.3654318,38.4671144 C43.2627197,39.3718346 43.1809802,40.6255184 43.2438981,42.0091107 C43.3095047,43.3927031 43.5063248,44.6410845 43.6929274,45.5414965 C43.7848843,45.9912054 43.8671615,46.3554133 43.9273906,46.6066141 C43.9860064,46.8581462 44.0107433,46.9979967 43.9956861,47" id="Fill-61" fill="#263238"></path>
                    <path d="M42.9996075,49.0002808 C43.006843,49.006405 42.9138154,49.1221199 42.7391304,49.3264742 C42.5461844,49.5475894 42.2939764,49.8367154 41.990431,50.1848268 C41.3399273,50.9255307 40.4706367,51.9141029 39.5096967,53.0074308 C38.5542694,54.1049489 37.6898024,55.097389 37.0423997,55.8409938 C36.7374761,56.187816 36.484579,56.4759749 36.2905994,56.6967678 C36.1114352,56.8975766 36.0084158,57.0058779 36.0004913,56.9997537 C35.9925667,56.9942742 36.0807706,56.8750138 36.2464974,56.664213 C36.4122243,56.4534121 36.6568522,56.1517155 36.9624649,55.7813636 C37.5733457,55.0406597 38.4312664,54.0272685 39.3980636,52.9216922 C40.3648609,51.8170829 41.2572362,50.8301224 41.9125635,50.1232627 C42.2402272,49.769994 42.5079398,49.4860253 42.6964066,49.2919854 C42.8841845,49.0985901 42.9920275,48.9938343 42.9996075,49.0002808" id="Fill-63" fill="#263238"></path>
                    <path d="M45.9944176,57 C46.0052774,57.0006848 46,57.1214235 45.9809365,57.3404301 C45.9730725,57.4497657 45.9588425,57.583249 45.9281355,57.7365201 C45.8993009,57.8901265 45.8760835,58.06721 45.8210356,58.2573734 C45.7319105,58.6420603 45.5802481,59.0908058 45.3701675,59.5757729 C45.1507251,60.05638 44.8679963,60.570861 44.5099981,61.0786343 C44.1456337,61.5833891 43.7430729,62.0294515 43.3480016,62.4097784 C42.9446918,62.7840684 42.5537398,63.0963121 42.2013586,63.3300756 C42.0317214,63.4545035 41.8624586,63.5477406 41.7190346,63.635947 C41.5763596,63.7251594 41.4467912,63.7929073 41.3389423,63.844892 C41.1258659,63.9522153 41.0056594,64.0075538 41.0004168,63.9991692 C40.9839399,63.9750215 41.4576509,63.7392456 42.1328297,63.2522662 C42.4724787,63.0107888 42.8503241,62.6948559 43.2420251,62.3212367 C43.6262367,61.9412452 44.0190611,61.4998782 44.3778083,61.0031726 C44.7301895,60.5027778 45.0125437,59.9980229 45.2361054,59.5268066 C45.4503052,59.0515657 45.6113295,58.6118756 45.7131868,58.2345672 C45.9232673,57.4809565 45.9633362,56.9969956 45.9944176,57" id="Fill-65" fill="#263238"></path>
                    <path d="M61.9428836,26 C61.9470229,25.9977248 61.9795005,26.0611721 62.0380875,26.1843933 C62.0944457,26.3082825 62.1861471,26.4879384 62.282943,26.7287041 C62.46953,27.212573 62.7150223,27.9298611 62.8653107,28.8551895 C63.0159176,29.7778463 63.0617683,30.9065399 62.8901465,32.1347454 C62.7293506,33.362951 62.3138286,34.6819863 61.6251127,35.9202099 C61.4983865,36.1255787 61.3764363,36.3322832 61.2490732,36.5306394 C61.1118395,36.7209812 60.9765162,36.9086515 60.8450139,37.0916468 L60.809989,37.1393992 L60.7587254,37.1066738 C59.7468257,36.4588438 58.5235033,36.4401435 57.5924792,36.8088056 C57.1177333,36.9841204 56.7267286,37.2823226 56.3888981,37.5845319 C56.0558436,37.89342 55.7864707,38.2266851 55.593834,38.5642913 C55.2053766,39.243845 55.1050782,39.8903393 55.0585907,40.3214468 C55.0191081,40.7578972 55.0296156,41 55.0162425,41 C55.0117848,41.0003326 55.0079639,40.9398907 55.0035062,40.8246838 C54.997138,40.7088091 54.9993669,40.5378354 55.0108295,40.3171056 C55.0433071,39.8806552 55.1302324,39.2208036 55.518053,38.5172068 C55.7106897,38.1679129 55.9826098,37.8222922 56.320122,37.5027183 C56.6595446,37.1918267 57.0613751,36.8789315 57.5510862,36.6935987 C58.5101302,36.3059025 59.7729351,36.3172562 60.8284567,36.9884615 L60.7424866,37.0034885 C60.8720785,36.8234986 61.0051729,36.6381658 61.1401778,36.4504955 C61.265312,36.2551447 61.3853517,36.0514455 61.510486,35.8487482 C62.1893312,34.6282231 62.6029428,33.327888 62.7685148,32.1153773 C62.9445943,30.9035345 62.909251,29.7868625 62.7720173,28.8712182 C62.635102,27.9529025 62.40553,27.2362823 62.2348635,26.7487401 C62.1460277,26.5066387 62.0619681,26.3243113 62.0138885,26.1964149 C61.9632617,26.0698543 61.9387443,26.0020659 61.9428836,26" id="Fill-67" fill="#263238"></path>
                    <path d="M54.9993779,40 C54.9941692,40.0019087 54.9614288,39.9505466 54.903389,39.8507669 C54.8393963,39.7375741 54.7575453,39.5919938 54.6556036,39.411736 C54.443163,39.0299558 54.1470112,38.4718435 53.7463133,37.8002114 C53.3411507,37.1331592 52.8273496,36.3411371 52.0616706,35.6060384 C51.6654372,35.2537014 51.2171169,34.9033273 50.6683431,34.6605845 C50.1214295,34.4217674 49.5030823,34.2696442 48.8527387,34.2411824 C48.5949081,34.2369295 48.3385656,34.2532868 48.0985933,34.2572126 L48,34.2588483 L48.0141379,34.1793517 C48.2057437,33.1017304 48.5268229,32.1101488 48.8557151,31.2268527 C49.1901882,30.3438837 49.5432637,29.5701818 49.8751323,28.9368258 C50.2058848,28.3031426 50.519523,27.8120954 50.7576351,27.4862573 C50.8733427,27.3213754 50.9749123,27.2003311 51.0452298,27.119853 C51.1148031,27.0387206 51.1531243,26.9975001 51.1572169,27 C51.1702386,27.0086231 51.024767,27.1787394 50.8067457,27.5127562 C50.585748,27.8451372 50.2881079,28.3394559 49.9714933,28.9751019 C49.6541346,29.6100937 49.3133367,30.3841228 48.9889091,31.2651288 C48.668946,32.1458078 48.3556799,33.1344451 48.1677946,34.1993076 L48.0833392,34.1211195 C48.3303805,34.1165395 48.594164,34.0995279 48.8598077,34.1044351 C49.530986,34.133224 50.1731444,34.2922173 50.7390326,34.5408488 C51.3056648,34.7947146 51.7647746,35.156866 52.1662166,35.5199988 C52.9426851,36.2753806 53.4490452,37.0795072 53.8441624,37.7557194 C54.2340709,38.4365117 54.5149687,39.0005126 54.7110391,39.38949 C54.8014472,39.5740008 54.8747411,39.7228525 54.9316648,39.8389896 C54.9807754,39.942368 55.0042145,39.9976558 54.9993779,40" id="Fill-69" fill="#263238"></path>
                    <path d="M55.0052572,40 C55.2727292,39.1331307 55.607516,38.8246309 56.0671032,38.3718574 C56.5269882,37.919391 57.1408633,37.5924732 57.7755881,37.629309 C58.3081492,37.6603125 58.8073509,37.9399576 59.3405078,37.9507014 C59.9603399,37.9635939 60.5340048,37.6105842 61.0031233,37.1924978 C62.9341044,35.4707309 63.5607871,32.3734537 62.4578374,30 C62.5653623,32.344599 61.8088157,34.7202014 60.3740577,36.5432667 C59.2568111,35.8832919 57.7854172,35.9185929 56.6994451,36.6319796 C55.613473,37.3456733 54.9328789,38.7055284 55.0052572,40" id="Fill-71" fill-opacity="0.3" fill="#000000"></path>
                    <path d="M67.0040128,47 C67.0127609,46.9987383 67.0365059,47.1255411 67.0714984,47.3553117 C67.1068034,47.6108242 67.1527311,47.9381599 67.2070946,48.3306449 C67.3161339,49.1547045 67.4576663,50.2943411 67.6060722,51.5541068 C67.6338788,51.7918224 67.6610605,52.0254066 67.6873049,52.2488212 L67.6360658,52.1922525 C68.7105248,52.4264723 69.5840891,52.8863312 70.1505311,53.2826299 C70.4357829,53.4803025 70.6507372,53.6579536 70.7919572,53.786981 C70.9331772,53.9166441 71.0050369,53.9938699 70.9997255,53.9992725 C70.9853536,54.0164338 70.680106,53.7278699 70.1036661,53.3554064 C69.5309754,52.9829429 68.665222,52.5462835 67.6091966,52.3209621 L67.5642061,52.3114281 L67.5585823,52.2643934 C67.5320255,52.0412967 67.5045313,51.8077125 67.4760999,51.5699969 C67.3276939,50.3102312 67.2008459,49.1686878 67.1152391,48.3417679 C67.0771222,47.9473761 67.0455664,47.6181336 67.0208842,47.3616677 C67.0015133,47.1296725 66.9949522,47.0009629 67.0040128,47" id="Fill-73" fill="#263238"></path>
                    <path d="M52.9997961,59.0038557 C53.0074989,59.030269 52.796222,59.0889653 52.4994806,59.262853 C52.2020057,59.4345396 51.8308039,59.7452629 51.5472673,60.1858518 C51.2659316,60.6282749 51.1397523,61.095277 51.1085743,61.4368159 C51.0751955,61.7794554 51.1104083,61.995531 51.0828983,61.9999332 C51.0689599,62.0043354 50.9941327,61.7908278 51.0003683,61.4298457 C51.0040363,61.0717985 51.1206787,60.5699455 51.4181537,60.1025764 C51.7170958,59.6374085 52.1235104,59.3208156 52.447395,59.1671047 C52.7723799,59.0108259 52.9975953,58.9891817 52.9997961,59.0038557" id="Fill-77" fill="#263238"></path>
                    <path d="M54.5538813,41 C54.5590346,40.999671 54.5696848,41.0630844 54.5861755,41.1849571 C54.6026662,41.3203711 54.6243102,41.4970699 54.650764,41.7170352 C54.7016103,42.1797549 54.767573,42.8508802 54.8270081,43.6808692 C54.9506882,45.3411776 55.0434483,47.6422256 54.9788598,50.1827253 C54.9479398,51.4526448 54.8833513,52.6621235 54.7991801,53.7599681 C54.7198187,54.8581431 54.5823964,55.8496381 54.3432816,56.6551866 C54.1096636,57.463047 53.7712611,58.0694377 53.4912632,58.4505787 C53.3473133,58.6391676 53.2298172,58.7811872 53.1387749,58.8683806 C53.0515117,58.957886 53.0037575,59.0031341 53.0006655,59 C52.9872668,58.9889321 53.1775967,58.8052975 53.4448831,58.4201931 C53.7073598,58.0337677 54.0268667,57.4306797 54.2453681,56.6290946 C54.469023,55.8294912 54.595108,54.8469136 54.6665676,53.7507204 C54.7438676,52.6545271 54.8043334,51.4473604 54.8349099,50.1794225 C54.8994984,47.6435467 54.8228855,45.3467923 54.7253156,43.6871445 C54.6789356,42.8568252 54.6284329,42.1860302 54.595108,41.7219894 C54.5793044,41.5010333 54.5669364,41.3233436 54.5573168,41.187269 C54.5501021,41.0647358 54.5487279,41.0003316 54.5538813,41" id="Fill-79" fill="#263238"></path>
                    <path d="M42,39.8249783 C42.0036863,39.8630547 40.886543,39.9720318 39.5062815,40.0685356 C38.1252809,40.1650394 37.0033333,40.212963 37,40.1748867 C36.9966815,40.1371386 38.1127162,40.0281615 39.4940864,39.9313295 C40.8747174,39.8348256 41.9966649,39.7872302 42,39.8249783" id="Fill-81" fill="#FFFFFF"></path>
                    <path d="M54,44.7134231 C54.0013167,44.7239423 53.846281,44.7554999 53.564368,44.8041058 C53.2827862,44.8559762 52.8716768,44.9067585 52.3625107,44.9484725 C51.8533446,44.9927257 51.2444653,45.009774 50.5690003,44.9945393 C49.8935353,44.97205 49.1511532,44.9121995 48.3786253,44.7950375 C47.6060974,44.6717091 46.8782913,44.5026766 46.2236965,44.3180468 C45.5710893,44.126525 44.9906995,43.9241214 44.512673,43.7264332 C44.0343153,43.5309214 43.6526891,43.3568107 43.3952903,43.2211495 C43.1368976,43.0887528 42.9961067,43.0107657 43,43.000972 C43.0043885,42.991541 43.1524674,43.0510288 43.416823,43.1667399 C43.6798535,43.2849901 44.0654549,43.4438661 44.5458003,43.6252314 C45.0251519,43.8091358 45.6052104,43.9995693 46.2554987,44.1827483 C46.9077746,44.3583099 47.6309429,44.5222641 48.3981704,44.6445043 C49.165398,44.7609408 49.9018171,44.8244187 50.5726443,44.854888 C51.2438028,44.8773773 51.849038,44.8715736 52.3565478,44.841467 C52.8640575,44.8135367 53.2748357,44.7790773 53.5577425,44.7453434 C53.8409807,44.7152368 53.9983352,44.7032666 54,44.7134231" id="Fill-83" fill="#FFFFFF"></path>
                    <path d="M64.9998847,40.0006645 C65.0045358,40.0095961 64.8683246,40.1014131 64.6174967,40.2603957 C64.3683299,40.4218792 63.9962408,40.635166 63.5281394,40.8802494 C63.0610347,41.1274763 62.4906088,41.3911374 61.8464295,41.6530122 C61.1999247,41.9077417 60.4776732,42.1567549 59.7062527,42.3661119 C58.9338356,42.5704671 58.1876641,42.7158737 57.5052792,42.8173368 C56.8222299,42.9116545 56.2032996,42.9670305 55.6830393,42.9848937 C55.162779,43.0049005 54.7411887,43.004186 54.4504941,42.9877519 C54.1597995,42.9741758 53.9996683,42.9620288 54,42.9516682 C54.0003327,42.9413075 54.1611284,42.9341622 54.4511586,42.9295178 C54.7411887,42.9277314 55.1611179,42.9123691 55.6777237,42.8791435 C56.1953262,42.8480615 56.8096055,42.7819676 57.4876714,42.6808618 C58.1650729,42.5722534 58.9052645,42.4239887 59.6730305,42.2210625 C60.4388032,42.0127774 61.157068,41.7694804 61.8022439,41.5233252 C62.4450943,41.2703821 63.0158524,41.0185107 63.4862794,40.7841453 C63.9573708,40.5529952 64.3347754,40.3543562 64.5915834,40.2093069 C64.8497202,40.0667584 64.9949014,39.9920902 64.9998847,40.0006645" id="Fill-85" fill="#FFFFFF"></path>
                    <path d="M74,34.0169843 C74.000307,34.0288387 73.8831011,34.0460071 73.6714536,34.0668544 C73.4594985,34.0848403 73.1537171,34.1208122 72.7771814,34.1759963 C72.0244178,34.2843207 70.9889448,34.5071011 69.8762574,34.9203689 C68.7638776,35.3369069 67.7920834,35.862178 67.1066901,36.2897528 C66.7636858,36.5027227 66.4883595,36.6838083 66.3003993,36.8146152 C66.1112086,36.9429694 66.0047696,37.0091903 66.0001552,36.998971 C65.9955408,36.9891605 66.0939815,36.9033185 66.2760967,36.7561609 C66.4569815,36.6073681 66.7267705,36.409114 67.0670062,36.1806109 C67.7459393,35.722787 68.7201945,35.1750334 69.8411879,34.7556341 C70.9627965,34.3390961 72.0093441,34.1330754 72.7685679,34.0554088 C73.1481798,34.0153492 73.4561146,33.9977721 73.6693002,34.0002247 C73.8821782,33.9998159 73.9996918,34.0051299 74,34.0169843" id="Fill-87" fill="#FFFFFF"></path>
                    <path d="M75,46.3032927 C74.9987835,46.3138225 74.8856534,46.3066773 74.6820192,46.2841133 C74.4789883,46.2600451 74.1845483,46.230712 73.8207218,46.202131 C73.0933704,46.1438409 72.0851547,46.1152599 70.9755744,46.2104045 C69.8659941,46.3081815 68.8710523,46.5105048 68.1566733,46.6936488 C67.7997854,46.7846567 67.511379,46.8647587 67.3128733,46.923801 C67.1137643,46.981339 67.0024443,47.0080397 67,46.9978859 C66.9979191,46.98698 67.1044122,46.9403479 67.3002028,46.8643826 C67.4953899,46.7869131 67.7813829,46.6902642 68.1376674,46.5849658 C68.8499347,46.3728648 69.8503067,46.1513622 70.9671274,46.053209 C72.0836463,45.9573123 73.098499,46.0039445 73.8273587,46.0911917 C74.1920903,46.1340632 74.4862286,46.1803192 74.6883544,46.2231907 C74.8904803,46.2645579 75.001197,46.2923868 75,46.3032927" id="Fill-89" fill="#FFFFFF"></path>
                    <path d="M66.0918358,58.9999147 C66.0592968,58.9926671 66.2399114,58.6128289 66.4351449,57.9849264 C66.6313216,57.3576827 66.8124077,56.4754565 66.802033,55.4953882 C66.7878856,54.5156494 66.5841637,53.6357292 66.3719534,53.0107916 C66.1611578,52.3855245 65.9711117,52.0079923 66.0036506,52.0000859 C66.0163832,51.9967915 66.0748589,52.0883744 66.1691746,52.257045 C66.2663198,52.4250567 66.3837429,52.6747682 66.507768,52.9870723 C66.7562899,53.6116805 66.985477,54.5014837 66.9996244,55.4943999 C67.0099991,56.4869867 66.8039193,57.3797548 66.5709595,58.0069985 C66.4554228,58.3209498 66.3441303,58.571979 66.2512293,58.740979 C66.1606862,58.9109673 66.1045684,59.0032091 66.0918358,58.9999147" id="Fill-91" fill="#FFFFFF"></path>
                    <path d="M41,50.0374493 C41,50.059122 40.7136947,50.0690983 40.2541929,50.1034993 C39.794691,50.1382444 39.1613496,50.2060144 38.4701688,50.3381144 C37.7793094,50.4715905 37.1633198,50.6432517 36.7211698,50.7818879 C36.2786984,50.9205241 36.0074959,51.017879 36.0001053,50.9972384 C35.9940001,50.9807259 36.2536347,50.8493139 36.6919288,50.6848769 C37.1295802,50.520096 37.7484617,50.3308902 38.4463904,50.1963822 C39.1446405,50.0629061 39.7863364,50.0102725 40.2500156,50.0016723 C40.7140161,49.993072 41.0003211,50.0195608 41,50.0374493" id="Fill-93" fill="#FFFFFF"></path>
                    <path d="M43,60.9924353 C42.9996613,60.9973688 42.9665057,60.9996711 42.9021074,61 C42.8383468,60.9986844 42.7433434,61.0039468 42.6221981,60.9907908 C42.3795888,60.9750037 42.0285863,60.9207353 41.6103163,60.7911491 C40.7801524,60.5421724 39.6608339,59.9034503 38.8912426,58.756908 C38.1251582,57.6070766 37.9443967,56.3006893 38.013577,55.4116749 C38.0448197,54.9623987 38.1203761,54.6045565 38.1924257,54.364789 C38.2236684,54.2434252 38.2622436,54.1536358 38.2832846,54.0918027 C38.3062385,54.0299697 38.3205846,53.9987243 38.3250479,54 C38.355653,54.0079335 38.1455616,54.5295675 38.1079428,55.4172662 C38.0639479,56.291809 38.2568239,57.5610307 39.0012297,58.6789589 C39.7491424,59.7932691 40.8305233,60.4300178 41.6386898,60.6980706 C42.4564204,60.977306 43.0038057,60.9602032 43,60.9924353" id="Fill-95" fill="#FFFFFF"></path>
                    <path d="M49.9999434,62.9972163 C49.9907561,63.0260914 48.8636661,62.827059 47.483268,62.5522293 C46.1022136,62.2776574 44.9905452,62.0317029 45.0000606,62.0028277 C45.009248,61.9736948 46.1360099,62.172985 47.5170642,62.4475569 C48.8977905,62.7223866 50.0091308,62.9683411 49.9999434,62.9972163" id="Fill-97" fill="#FFFFFF"></path>
                    <path d="M62.9998953,60.0009399 C63.0039827,60.0100781 62.8882771,60.0814267 62.6747876,60.2012783 C62.4622414,60.3232388 62.1490816,60.4873757 61.7579462,60.6796303 C60.9759899,61.064491 59.8733278,61.5428429 58.6228894,61.9600389 C57.3718222,62.3754776 56.2144515,62.6496249 55.3714982,62.8053266 C54.9498643,62.8833531 54.6077781,62.9371282 54.3703929,62.9655973 C54.1326933,62.9951209 54.0009523,63.0067194 54,62.9961753 C53.9987514,62.9863341 54.127977,62.9554047 54.3625325,62.908659 C54.5974023,62.8633193 54.9366588,62.793728 55.3551485,62.702697 C56.1911846,62.521338 57.3397517,62.2324289 58.5854737,61.8187476 C59.8302526,61.403309 60.9332291,60.9432335 61.7221026,60.5836787 C62.1160677,60.4040771 62.4342582,60.2550534 62.6530928,60.1496121 C62.8728706,60.0452252 62.9961223,59.9921531 62.9998953,60.0009399" id="Fill-99" fill="#FFFFFF"></path>
                    <path d="M54,52.0929429 C54.0022505,52.1085366 53.8941522,52.166456 53.6962441,52.2566766 C53.4986626,52.3502388 53.2089852,52.4610653 52.8487664,52.5757903 C52.1286552,52.806911 51.1175604,53.0101859 49.9964077,52.9996045 C48.8755816,52.9856815 47.8657931,52.7595731 47.1476415,52.5123017 C46.7880757,52.3897799 46.4990515,52.2722703 46.3027763,52.1742529 C46.1051948,52.0795769 45.9977497,52.0194298 46,52.0038361 C46.0023218,51.9887994 46.1143391,52.018316 46.3148598,52.0862599 C46.5147274,52.1564315 46.805058,52.2488798 47.1646237,52.3502388 C47.8834285,52.5540705 48.8857057,52.7523331 49.9973875,52.7662561 C51.1087427,52.7768375 52.1126527,52.6014085 52.8327639,52.4131704 C53.1929828,52.3196083 53.484293,52.2344 53.6844872,52.1681268 C53.8853345,52.1046382 53.9976784,52.0773492 54,52.0929429" id="Fill-101" fill="#FFFFFF"></path>
                    <path d="M58.9998224,52.7737058 C59.0069148,52.7894615 58.8012339,52.880057 58.4477316,52.979515 C58.0953491,53.078973 57.5921588,53.1787593 57.0262563,53.2158509 C56.4599806,53.2516295 55.9452185,53.2168356 55.5801442,53.1633318 C55.2143234,53.1094997 54.9959507,53.0464768 55.0000569,53.0297364 C55.0086425,52.9867364 55.9041569,53.1541409 57.0150577,53.0786448 C58.1255853,53.0120112 58.9845176,52.732347 58.9998224,52.7737058" id="Fill-103" fill="#FFFFFF"></path>
                    <path d="M50,30.0068313 C50.0021287,30.0287551 49.5911099,30.0696578 48.9339785,30.1707691 C48.2768471,30.271226 47.3750277,30.444326 46.4048239,30.719519 C45.4346202,30.9960209 44.5840891,31.3219331 43.980383,31.5801106 C43.3759645,31.8379609 43.01196,32.0176053 43.0002065,31.9986265 C42.9952201,31.9904459 43.0807006,31.9364545 43.2402642,31.8464686 C43.3994717,31.7551739 43.6363239,31.6337749 43.9344372,31.4927426 C44.5299514,31.2106779 45.3819072,30.8677502 46.360659,30.5883033 C47.3394108,30.3108198 48.25334,30.1511358 48.9183071,30.0748933 C49.2506126,30.0362812 49.5209447,30.013703 49.7082895,30.0061769 C49.8956343,29.9979963 49.9992794,29.9976691 50,30.0068313" id="Fill-105" fill="#FFFFFF"></path>
                    <path d="M49.9958127,31.0001162 C50.0262899,31.0085411 49.8895697,31.7155826 49.6127112,32.5483492 C49.3375617,33.3824119 49.0302261,34.0158978 49.0025972,33.9996961 C48.9712655,33.9821983 49.2284704,33.3273262 49.5010564,32.5003922 C49.7756361,31.6747543 49.9624871,30.9897471 49.9958127,31.0001162" id="Fill-107" fill="#FFFFFF"></path>
                    <path d="M59.9881528,33.0000533 C60.0712309,33.0089589 59.6987411,33.8929251 59.4522304,34.9955738 C59.1975481,36.0985525 59.1634997,36.9996702 59.0790596,37 C59.0409253,37 59.0014292,36.7740609 59.0000672,36.4079406 C58.9980243,36.0421501 59.0422873,35.5358487 59.1682665,34.9804013 C59.2949267,34.4249539 59.4794692,33.9265685 59.6456255,33.5696837 C59.8111009,33.2127989 59.9513804,32.9960952 59.9881528,33.0000533" id="Fill-109" fill="#FFFFFF"></path>
                    <path d="M62.9938882,32.9997879 C62.9583826,33.0118409 62.8289781,32.5084481 62.5537366,31.9600335 C62.2826032,31.4087828 61.9759643,31.0337197 62.0014931,31.0018145 C62.0205663,30.9720364 62.3767957,31.3105858 62.6590796,31.8838155 C62.9448846,32.4542093 63.0244054,32.9934068 62.9938882,32.9997879" id="Fill-111" fill="#FFFFFF"></path>
                    <path d="M54,51.5345472 C54.0029174,51.5441486 53.8953512,51.5829099 53.6977124,51.6419409 C53.4997013,51.6999051 53.2119897,51.7816951 52.8487213,51.8581509 C52.4861973,51.9335399 52.0443944,52.0053728 51.5467613,51.999683 C51.0498726,51.9954157 50.4990148,51.8865996 49.9786774,51.6543872 C48.9283255,51.1896069 48.2096048,50.4410511 47.7298374,49.9108389 C47.4893954,49.6405764 47.3059002,49.4140538 47.1812128,49.2565193 C47.0568975,49.0979179 46.9925067,49.0072377 47.0006952,49.0004812 C47.0196774,48.9855456 47.3163218,49.319462 47.8124661,49.8404284 C48.3104714,50.3510822 49.029192,51.0708337 50.0438126,51.5189004 C50.5474009,51.7432893 51.0699715,51.8506831 51.5501111,51.8620626 C52.0313673,51.8755757 52.4657262,51.8161891 52.8271336,51.7550244 C53.5499485,51.6238049 53.9936124,51.5100102 54,51.5345472" id="Fill-127" fill="#EB996E"></path>
                    <path d="M17.6814144,23 C17.7539169,21.9958753 16.8709405,20.6107285 16.0530221,19.8148521 C15.23478,19.0186473 14.7282338,17.9386466 15.1545094,16.3334267 C15.4840072,15.0928055 16.2595246,15.1854333 16.565718,14.4562358 C16.7926119,13.9162355 16.6971288,13.3006877 16.7440612,12.7150304 C16.904926,10.7061241 19.0829129,9.13145159 21.0061702,9.63367817 C21.547673,7.7229836 23.303592,6.23075643 25.2520957,6.0248074 C27.2005994,5.81885838 29.2212819,6.91232618 30.1388912,8.66896956 C31.2510272,8.08232688 32.6525257,8.10236339 33.7478307,8.72086741 C34.8428121,9.33937142 35.5982619,10.5376203 35.6930977,11.8055043 C36.7770743,11.0109418 38.4404232,11.3170733 39.2981532,12.3583148 C40.1562069,13.3992279 40.2089654,14.9929514 39.5577379,16.1783901 C38.9065104,17.3638288 37.6435434,18.1350701 36.3216682,18.3410191 C35.0001166,18.5472966 33.6332509,18.2303256 32.4366366,17.6249603 C31.2396987,17.0192665 30.1977994,16.1376601 29.2491176,15.1811632" id="Fill-131" fill="#1A2E35"></path>
                    <path d="M25.2906054,48 L25.2906054,48 C28.6505829,48.0053073 31.422417,45.3559775 31.5886812,41.980449 C31.7267984,39.1686713 31.8426597,36.4612057 31.8426597,36.4612057 C31.8426597,36.4612057 36.9860501,36.0824928 37.4609504,30.9791694 C37.9351962,25.8751816 38,14.0722928 38,14.0722928 C32.3260696,11.0492331 25.4712705,11.3515391 20.0840477,14.8622748 L19.5947465,15.181191 L19.0003846,41.5930987 C18.9620915,45.1157938 21.788256,47.9943445 25.2906054,48" id="Fill-133" fill="#FFBF9D"></path>
                    <path d="M27.3145016,22.0512103 C27.8389689,22.2256641 28.122429,22.790966 27.9490806,23.3152198 C27.7748477,23.8390275 27.2096965,24.1227938 26.6852292,23.9487861 C26.161204,23.7747785 25.8773018,23.2094767 26.0510924,22.6852228 C26.2244408,22.160969 26.7900342,21.8772027 27.3145016,22.0512103" id="Fill-135" fill="#1A2E35"></path>
                    <path d="M28.9866095,21.9863827 C28.887777,22.0889643 28.3343152,21.5801109 27.5216082,21.5245627 C26.7085211,21.4560398 26.0927188,21.8760974 26.0087112,21.7593246 C25.9676577,21.7078311 26.0706716,21.5188863 26.3398,21.3279142 C26.6043669,21.137753 27.0494931,20.9666485 27.5565797,21.0055728 C28.0632862,21.044497 28.4810434,21.2808807 28.7167208,21.5087498 C28.95772,21.7386461 29.0341251,21.941782 28.9866095,21.9863827" id="Fill-137" fill="#1A2E35"></path>
                    <path d="M35.3142979,22.0512103 C35.8387914,22.2256641 36.1227078,22.790966 35.9489085,23.3152198 C35.7751093,23.8390275 35.2094877,24.1227938 34.6849942,23.9487861 C34.1613851,23.7747785 33.8770265,23.2094767 34.051268,22.6852228 C34.2246251,22.160969 34.7902467,21.8772027 35.3142979,22.0512103" id="Fill-139" fill="#1A2E35"></path>
                    <path d="M36.986575,21.9864822 C36.8881238,22.0886687 36.3342883,21.5797641 35.5215907,21.5242103 C34.7088931,21.4560861 34.0927177,21.8757803 34.0087111,21.7594013 C33.9676581,21.7079026 34.0706708,21.5185333 34.3397961,21.327542 C34.6043599,21.1377672 35.0498611,20.9666455 35.5565617,21.0055737 C36.0632623,21.0440964 36.4810148,21.2809093 36.7170696,21.5083958 C36.958066,21.7387207 37.0340901,21.9414716 36.986575,21.9864822" id="Fill-141" fill="#1A2E35"></path>
                    <path d="M31,27.8452459 C30.9996484,27.7835078 31.4724466,27.7247272 32.2368741,27.6799948 C32.4352805,27.6744495 32.5928799,27.6408077 32.6160976,27.5321191 C32.661126,27.4112307 32.6016745,27.1860898 32.5207641,26.933592 C32.3677379,26.399391 32.2122492,25.8585355 32.0500766,25.2921714 C31.404904,22.9553651 30.9750235,21.0344594 31.0886499,21.000448 C31.202628,20.9668062 31.8175471,22.8322586 32.4623679,25.1690649 C32.6136351,25.7387561 32.7578667,26.2825691 32.9006912,26.8200974 C32.9545142,27.0629833 33.0695477,27.3509713 32.9422018,27.6803645 C32.8743074,27.8448762 32.7100241,27.9543043 32.5774014,27.9787038 C32.4440751,28.0086486 32.333263,27.9994064 32.238633,27.9957095 C31.4738538,27.9602193 31.000352,27.9066144 31,27.8452459" id="Fill-143" fill="#1A2E35"></path>
                    <path d="M31,36.5905175 C31,36.5905175 27.5037191,36.5901641 24,34 C24,34 25.3728685,38.0476395 30.8972828,37.9995753 L31,36.5905175 Z" id="Fill-145" fill="#FF9A6C"></path>
                    <path d="M19.9999249,22.8080666 C20.0060174,22.3865517 19.640844,22.0236559 19.1633389,22.0036645 C18.060203,21.9575825 16.2465211,22.312685 16.0180498,24.9962842 C15.6917165,28.8295618 19.8982551,27.944855 19.9150097,27.8354103 C19.928718,27.7496842 19.9786009,24.2996327 19.9999249,22.8080666" id="Fill-147" fill="#FFBF9D"></path>
                    <path d="M18.9962825,25.7527613 C18.9767142,25.7406824 18.909266,25.7899039 18.7643774,25.8285564 C18.623236,25.865699 18.3855021,25.8844212 18.1448538,25.8040966 C17.6564793,25.6443533 17.2934251,25.0482601 17.3350598,24.4313308 C17.3550444,24.1199974 17.4766176,23.8285942 17.6552303,23.591848 C17.8263487,23.3496662 18.0694951,23.1875071 18.3259645,23.1684829 C18.5816013,23.1407014 18.749389,23.2590746 18.7972688,23.3584234 C18.8509775,23.4571683 18.814339,23.5239042 18.8384871,23.5311515 C18.8505612,23.5405127 18.9463209,23.4795143 18.9230055,23.3360775 C18.9105151,23.2675298 18.8630516,23.1835815 18.7585486,23.1120141 C18.6511312,23.0392388 18.4866743,22.9960567 18.309727,23.0002843 C17.9412603,22.9984725 17.5857004,23.2231399 17.3891848,23.482836 C17.1722683,23.743438 17.0257143,24.06987 17.0028153,24.4198559 C16.9611806,25.1098624 17.384605,25.7805428 18.0565883,25.9605182 C18.384253,26.0414468 18.6711158,25.984374 18.8234986,25.9109948 C18.9792122,25.8348978 19.01252,25.7597067 18.9962825,25.7527613" id="Fill-149" fill="#FF9A6C"></path>
                    <path d="M25.0419931,20.8720919 C25.2614861,21.0775089 26.0273764,20.9813081 27.0220998,20.9504673 C28.0144882,20.8924638 28.7912754,20.9201923 28.9722403,20.6969498 C29.1777231,20.4646532 28.2168576,19.9310216 26.9368712,20.0074164 C25.6537714,20.0453308 24.7964256,20.6598842 25.0419931,20.8720919" id="Fill-151" fill="#1A2E35"></path>
                    <path d="M28.7076246,49.2304646 C28.7076246,49.2304646 39.5335492,65.1098685 40.1857438,65.4217972 C41.4704379,66.0361934 56.2899895,56.1059432 57.7024214,54.8582286 C57.8968418,54.5933187 58.2899131,50.9228495 59.0782864,49.8107436 C59.0782864,49.8107436 60.2470597,44.3623136 61.49377,44.7806077 C62.741043,45.1991884 60.810907,47.5495477 61.6226333,49.6192286 C62.4349223,51.6894829 66.1542325,46.7519508 66.3030724,46.3090006 L67.2622319,45.0317561 C67.2622319,45.0317561 68.2680972,47.9377383 68.1997265,49.151049 C67.9816718,53.0381156 64.3723737,57.6608521 64.3723737,57.6608521 C64.3723737,57.6608521 48.1637331,78.1202744 37.0612307,78.7550262 C33.8635637,78.9379403 28.1809169,69.6924672 24.3817002,62.7595092 C22.0874832,58.572842 23.2323408,53.2984384 27.0349338,50.473592 L28.7076246,49.2304646 Z" id="Fill-177-Copy" fill="#FFBF9D" transform="translate(45.703060, 61.757698) scale(-1, -1) rotate(-180.000000) translate(-45.703060, -61.757698) "></path>
                    <path d="M34.0122216,20.6565921 C34.1205586,20.9231939 34.7775924,21.0031474 35.5065003,20.999906 C36.2354082,20.9885613 36.8896372,20.8951021 36.9895596,20.6263394 C37.0919363,20.3651399 36.4303446,19.9896825 35.4907231,20.0002169 C34.5514522,20.0091307 33.9017811,20.3975535 34.0122216,20.6565921" id="Fill-153" fill="#1A2E35"></path>
                    <path d="M37.7953216,15.3380692 C37.7953216,15.3380692 34.73761,16.7396805 30.7578616,14.8588567 C28.146572,13.6246437 25.1026368,13.0218235 24.4315279,13.5190492 C23.7604189,14.0159643 23.6187185,16.5635862 21.0317016,17.3077166 C21.0317016,17.3077166 21.2094831,22.1684784 19.1623711,21.9954898 C17.1155872,21.8218801 18.3948272,14.2929945 18.3948272,14.2929945 L23.4022317,11.9776805 L28.8668825,11 L34.0159875,11.6872958 L38,12.7202581 L37.7953216,15.3380692 Z" id="Fill-155" fill="#1A2E35"></path>
                    <path d="M3,45.9435056 C8.43719544,40.4161196 18.0080326,41.0193647 18.0080326,41.0193647 L25.9410118,46.6327403 L30.4396219,41.455902 C30.4396219,41.455902 35.1672122,41.9688746 39.5971616,44.2566595 L39.9024685,44.3502268 L39.8984688,44.4128246 C43.3781672,46.2805453 48.3057402,50.7602418 53,55.1078239 L47.3824869,60.2606115 L41.165359,65.7161747 C41.165359,65.7161747 41.1893569,65.7557102 41.1756914,65.8252267 C41.1110304,66.1560067 44.6538288,86.3348681 45.605413,92.0381868 C34.7348046,90.9614153 28.6134596,88.0352879 21.2095168,85.8927471 C18.7284925,85.1747923 18.3250052,84.5492179 15.9698759,83.9383952 C12.4888443,83.035669 9.96606294,80.0527189 9.65408998,76.5086949 C9.22979342,71.7291879 8.90748802,65.8107304 8.90748802,65.8107304" id="Fill-157" fill="#28AE6F"></path>
                    <path d="M35.0027728,42 C35.0227698,41.9939114 35.1497681,42.3044922 35.3623674,42.8706923 C35.5767208,43.4365673 35.8679047,44.2609885 36.212063,45.2847669 C36.9014321,47.3316732 37.7791937,50.1818617 38.6088924,53.3624692 C39.4371878,56.5453532 40.0591986,59.4531049 40.4535248,61.5657047 C40.6513895,62.6223299 40.7983847,63.4792727 40.8860907,64.0731162 C40.9755508,64.6669597 41.0155448,64.9967282 40.9944953,65 C40.9741475,65.0029073 40.8948613,64.6793178 40.7692664,64.0916535 C40.6352516,63.4574832 40.4573838,62.6181021 40.2423288,61.6021289 C39.7943266,59.5012368 39.1400399,56.6055181 38.3138494,53.4291384 C37.4852032,50.2537344 36.6418224,47.4006189 36.0057785,45.3416796 C35.6974043,44.3468454 35.4423553,43.5247007 35.2497529,42.9035391 C35.0715343,42.3275825 34.9827759,42.0059443 35.0027728,42" id="Fill-159" fill="#1A2E35"></path>
                    <path d="M41.00072,60.9986673 C40.954336,60.9422006 43.1547963,59.1064233 45.9152669,56.8981475 C48.6766652,54.6892646 50.9525769,52.9448663 50.9992702,53.0013331 C51.0459635,53.0574963 48.8461217,54.8932735 46.0844141,57.1021565 C43.3239435,59.3101287 41.0474133,61.0551341 41.00072,60.9986673" id="Fill-161" fill="#1A2E35"></path>
                    <path d="M9.89154834,53 L5,69.0557227 L6.82055504,70 L8.61498252,65.4591124 C8.61498252,65.4591124 10.4589854,55.9204074 9.89154834,53" id="Fill-163" fill="#000000"></path>
                    <path d="M34.437052,42.1261202 C36.8770248,43.584279 30.7620579,47.0926442 28,46.9981274 L30.0056695,41 C30.0056695,41 33.6183544,41.6366708 34.437052,42.1261202" id="Fill-165" fill-opacity="0.3" fill="#000000"></path>
                    <path d="M18,41.1222358 L18,37 C18,37 25.9933813,39.0719753 26.2832717,43.8894069 C26.2832717,43.8894069 27.2999793,38.5641096 31.4182888,38.3087183 L32,45.799656 L27.2076391,50 L22.3502861,50 L18.5025625,46.656578 L18,41.454763" id="Fill-167" fill="#28AE6F"></path>
                    <path d="M27.7768264,67 C27.7582813,66.9990403 27.7548814,66.6884055 27.7635358,66.1286256 C27.7749719,65.5685272 27.7848626,64.7583279 27.7873353,63.7576059 C27.7941352,61.7564805 27.7332454,58.9913528 27.4896864,55.9490433 C27.2427275,52.9064152 26.8600802,50.1686871 26.5333773,48.1959171 C26.3689441,47.2461711 26.2335648,46.4598668 26.1300213,45.8615363 C26.0317323,45.3109959 25.9856786,45.0041843 26.0039146,45 C26.0218416,44.9959007 26.1022037,45.2947473 26.2320194,45.839553 C26.3643078,46.3834028 26.53245,47.1767163 26.7194465,48.1608711 C27.0949848,50.1291807 27.5088497,52.8729622 27.7567359,55.9264227 C28.0012222,58.9789274 28.0318216,61.7552061 27.9764954,63.7604733 C27.949914,64.7631069 27.9112784,65.5739434 27.8676974,66.133086 C27.8265891,66.6925473 27.7953715,67.0012705 27.7768264,67" id="Fill-169" fill="#1A2E35"></path>
                    <path d="M24.9993666,42.1946948 C24.9962316,42.2190688 24.8225529,42.1242077 24.5372683,42.2401491 C24.2394438,42.3406097 23.9735962,42.7299357 23.7554006,43.2859275 C23.2773139,44.3748545 22.6857403,45.9443455 22.2741155,47.8132421 L22.2327335,48 L22.0756703,47.9001982 C21.60981,47.6050746 21.1323503,47.2852475 20.6523826,46.9430227 C19.7216025,46.2776771 18.8704514,45.5991563 18.1268306,44.9272231 C17.7531392,44.5896096 17.4440287,44.1795327 17.267215,43.7444231 C17.0922823,43.308984 17.0242529,42.8732156 17.0048159,42.4809251 C16.9740929,41.6927211 17.0972983,41.0711829 17.1778676,40.6485896 C17.2650205,40.2253376 17.3311689,39.9964192 17.3484113,40 C17.3678483,40.0043243 17.3368119,40.2411478 17.2819495,40.6673643 C17.2336705,41.0919338 17.1424422,41.7128133 17.1963641,42.4674206 C17.2267735,42.8429127 17.3032674,43.2506839 17.4728706,43.647915 C17.6462359,44.0448167 17.9265044,44.407463 18.2920448,44.7295957 C19.0284552,45.3764961 19.8839953,46.0490881 20.8047433,46.706858 C21.2812626,47.0464477 21.7533928,47.3652866 22.2136101,47.6617277 L22.0151649,47.7490132 C22.4452862,45.8590364 23.0760472,44.2832871 23.6005318,43.2068765 C23.7290666,42.938762 23.8541529,42.6900808 24.0099622,42.5020054 C24.1626364,42.3112949 24.3479146,42.1946948 24.5071724,42.1472642 C24.8379144,42.0507561 25.0119066,42.1907422 24.9993666,42.1946948" id="Fill-171" fill="#1A2E35"></path>
                    <path d="M31.2504025,39 C31.2731853,38.9993875 31.301944,39.2166765 31.3374254,39.6095153 C31.3777622,40.0572901 31.4274363,40.6130957 31.4860741,41.2707938 C31.555543,41.9714587 31.6589995,42.8025583 31.8334188,43.7186707 C31.9006469,44.1704353 32.0944877,44.6614839 31.9443451,45.2169825 C31.7527452,45.7623533 31.2530169,46.1693097 30.7241565,46.4983122 C29.9809133,46.9519183 29.2040562,47.2919694 28.682292,47.7722762 L28.4350423,48 L28.410392,47.6964706 C28.2815383,46.0836831 27.6264386,44.7569314 27.0404343,43.8942205 C26.4503216,43.0244508 25.9636655,42.5772898 26.0021348,42.5518166 C26.0148334,42.5429164 26.147422,42.6457297 26.3685275,42.8535046 C26.5873921,43.0618933 26.8873038,43.3816886 27.2099983,43.8131975 C27.8538934,44.6685427 28.5680044,46.0176985 28.7211349,47.6786701 L28.4496083,47.6025576 C29.0173117,47.0731459 29.8199396,46.7220462 30.5288217,46.2859338 C31.0341523,45.9765732 31.4800982,45.5929415 31.6373371,45.1522255 C31.7699257,44.7050644 31.6055905,44.2173918 31.5383625,43.7545786 C31.3788827,42.8286452 31.2982091,41.9883385 31.2578723,41.28307 C31.2167885,40.5781085 31.2100657,40.0072646 31.2115596,39.6131981 C31.2145475,39.2188248 31.2283666,39.0006151 31.2504025,39" id="Fill-173" fill="#1A2E35"></path>
                    <path d="M57.3284365,39 C56.9971416,39.4037123 45,56.0092242 45,56.0092242 L46.6889482,57 L59,40.6056816 L57.3284365,39 Z" id="Fill-175" fill="#1A2E35"></path>
                    <path d="M9.36082964,52.1305259 C9.36082964,52.1305259 21.870787,70.3451362 22.6244341,70.7029367 C24.1089694,71.4076853 41.2233922,56.4484675 42.8555357,55.0172655 C43.0801993,54.7133982 43.5448075,54.0717909 44.4558166,52.79614 C44.4558166,52.79614 45.8063991,46.5464703 47.2470421,47.0262782 C48.6883354,47.5064149 46.457956,50.2024153 47.3959509,52.576461 C48.3345959,54.9511645 52.6324655,49.2875247 52.8044583,48.7794348 L53.9128203,47.3143602 C53.9128203,47.3143602 55.0751536,50.6476927 54.9961474,52.0394314 C54.7441731,56.4981255 50.5734286,61.8006762 50.5734286,61.8006762 C50.5734286,61.8006762 31.8434439,85.2688371 19.0138856,85.9969348 C15.3188037,86.2067479 8.75218967,75.6016464 4.36198373,67.6491358 C1.71088847,62.8467823 3.03383508,56.796731 7.42794255,53.5564661 L9.36082964,52.1305259 Z" id="Fill-177" fill="#FFBF9D"></path>
                    <path d="M52.003628,53.9992341 C51.9526442,53.9677124 52.4468264,53.0986691 52.9935982,51.9970032 C53.5431802,50.8969333 53.9378034,49.9792108 53.9944075,50.0003583 C54.0461942,50.0187128 53.7354737,50.9783313 53.1806729,52.0891744 C52.6290836,53.2012146 52.0497945,54.0287609 52.003628,53.9992341" id="Fill-179" fill="#FF9A6C"></path>
                    <g id="Group-183" transform="translate(0.000000, 43.000000)">
                        <mask id="mask-4" fill="white">
                            <use xlink:href="#path-3"></use>
                        </mask>
                        <g id="Clip-182"></g>
                        <path d="M7.31573333,0.319134884 C7.31573333,0.319134884 -6.45026667,5.09964651 3.78473333,27.7109488 L19.6764,18.3426698 L17.4157333,13.0552279 L7.31573333,0.319134884 Z" id="Fill-181" fill="#28AE6F" mask="url(#mask-4)"></path>
                    </g>
                    <path d="M6.46520648,44.020116 C6.46520648,44.020116 7.06312509,43.9228434 8.1152893,44.1561025 C8.63390571,44.2868837 9.25770537,44.5120097 9.91203139,44.8997988 C10.567021,45.2846601 11.2475599,45.825678 11.9085221,46.5059357 C13.2384099,47.8648245 14.479373,49.761478 15.6307479,51.9580825 C16.7900862,54.1550123 17.8714496,56.6567731 18.9810166,59.2857365 C19.3131568,60.0733519 19.6406516,60.8492556 19.9508924,61.5844935 L20,61.7012857 L19.887517,61.7611458 C15.3105529,64.207601 11.3248713,66.4982249 8.50848217,68.2126955 C7.09896039,69.0679789 5.97645281,69.7713348 5.20599387,70.2603005 C4.83768663,70.4919329 4.54304083,70.677369 4.31807479,70.8188861 C4.11434447,70.9447874 4.00551134,71.0065995 4.00020241,70.9994423 C3.99489348,70.9919598 4.09410417,70.9151827 4.28788023,70.7752923 C4.48265172,70.6367032 4.76966592,70.4304462 5.14792742,70.1753903 C5.90113232,69.6600731 7.00904033,68.9316671 8.40661701,68.0539362 C11.1997795,66.2952211 15.1731842,63.9720646 19.7504801,61.5155243 L19.6874366,61.6921766 C19.3765322,60.957264 19.0483737,60.181035 18.7152382,59.3937449 C17.6063347,56.7657574 16.5349256,54.2675753 15.3948322,52.0768267 C14.263034,49.8851021 13.05127,47.9975577 11.7608674,46.6425729 C11.1191501,45.9645925 10.4611742,45.4232492 9.82775208,45.0338334 C9.1953254,44.6414896 8.59143425,44.4069292 8.08675378,44.2621589 C7.0637887,44.0005964 6.4622202,44.0591552 6.46520648,44.020116" id="Fill-184" fill="#1A2E35"></path>
                    <path d="M34.8881388,9 C34.8976,8.99794755 34.9204372,9.08397038 34.9546932,9.25253333 C34.9798142,9.42144455 35.0137438,9.67498552 34.994169,10.0034047 C34.9638281,10.6463121 34.7449165,11.6423659 33.9664916,12.5113009 C33.2141665,13.3823256 31.7825956,13.9318966 30.3405847,13.4888964 C29.6339342,13.2687894 28.9204324,12.8094205 28.4835879,12.0522803 C28.2715275,11.677193 28.1446175,11.211207 28.2056257,10.7438279 C28.2643501,10.2865486 28.4799992,9.82334878 28.8721479,9.54821504 C29.263644,9.26507107 29.7781352,9.27308129 30.1748513,9.4587095 C30.5767874,9.64155154 30.9095591,9.99156346 31.0651788,10.4147122 C31.3835957,11.2648406 31.1490243,12.1842749 30.7092436,12.8226548 C29.7742203,14.1439933 28.0855669,14.2502158 27.1502173,13.6484043 C26.6559534,13.406008 26.2204139,13.1782391 25.8096692,13.0995299 C25.400882,13.0100244 25.0384218,13.0855991 24.7728569,13.2158523 C24.2404221,13.4895929 24.0254255,13.7918918 24.0006307,13.7584578 C23.9934533,13.7514924 24.0476103,13.6835796 24.1591867,13.5592471 C24.2146486,13.4965584 24.282508,13.4185457 24.3810345,13.3461055 C24.4743411,13.2684411 24.5829813,13.1782391 24.7262036,13.1096298 C24.9982934,12.9546494 25.3946833,12.8529544 25.8360952,12.9330566 C26.2788121,13.0016659 26.7381676,13.2269969 27.2298215,13.4526763 C27.4774428,13.5599436 27.7364828,13.676266 28.0131401,13.7292031 C28.2842512,13.7790058 28.5879869,13.7734334 28.8871552,13.7117896 C29.4851656,13.5972085 30.0981833,13.2468484 30.4994669,12.6582711 C30.8916156,12.0822316 31.0867111,11.2439444 30.8097276,10.5285967 C30.567,9.82926938 29.6548139,9.35562142 29.0267889,9.80071119 C28.7204431,10.0131562 28.5341562,10.3976469 28.4842404,10.783879 C28.4323672,11.1732455 28.5351349,11.5657464 28.7214219,11.9007827 C29.1034569,12.5739896 29.7592129,13.0124623 30.4133378,13.2221212 C31.7542121,13.6487526 33.1006326,13.1611738 33.8245743,12.3611963 C34.5782044,11.5601741 34.8232157,10.6146195 34.8842238,9.99400135 C34.9488207,9.35840758 34.8568191,9.00421642 34.8881388,9" id="Fill-186" fill="#375A64"></path>
                    <path d="M32.9998183,30.8351159 C33.0068076,30.8820951 32.8118434,30.9800803 32.4752543,30.9975297 C32.1412402,31.0167688 31.6678083,30.9259424 31.2050443,30.6436198 C30.743016,30.359955 30.4012769,29.9501176 30.2151413,29.6123148 C30.0264307,29.2731699 29.9752986,29.0244039 30.010245,29.0029277 C30.0908057,28.9438681 30.4980233,29.792178 31.3485085,30.2977635 C32.1883259,30.8275098 32.9913576,30.721471 32.9998183,30.8351159" id="Fill-188" fill="#1A2E35"></path>
                    <path d="M36.736432,11.0003816 C36.7615898,10.9858488 36.9596273,11.386954 36.9947838,12.1106872 C37.0347783,12.8191611 36.8519001,13.8724255 36.1987635,14.7269539 C35.5404664,15.5771225 34.6402669,15.9295428 34.0122882,15.9854941 C33.3714081,16.0490751 32.9908149,15.8848545 33.0001685,15.8546989 C33.0069418,15.8009276 33.3901152,15.8808579 33.9858402,15.7645956 C34.5731793,15.6570529 35.3875841,15.2955496 35.9875021,14.5202249 C36.5832271,13.742357 36.7854575,12.7828291 36.7970689,12.1128672 C36.8144858,11.4316423 36.6899867,11.015641 36.736432,11.0003816" id="Fill-192" fill="#375A64"></path>
                    <path d="M17.9997532,57.0020527 C18.0340973,57.0724591 14.4801265,58.9193993 10.062692,61.1272133 C5.64363751,63.3353548 2.03491043,65.0683349 2.00024228,64.9979284 C1.96622214,64.9278495 5.51922099,63.0809093 9.93827547,60.8727678 C14.3557099,58.6649538 17.965733,56.9319737 17.9997532,57.0020527" id="Fill-194" fill="#E1E1E1"></path>
                    <path d="M13.9996912,52.0018641 C14.0356246,52.0643414 10.9307291,53.6813482 7.06519157,55.6128141 C3.19870002,57.5454644 0.0362476445,59.0606125 0.00031429926,58.9981352 C-0.0359370402,58.935954 3.0683224,57.3192433 6.93513194,55.3868891 C10.8000335,53.4551271 13.9637579,51.9393868 13.9996912,52.0018641" id="Fill-196" fill="#E1E1E1"></path>
                    <path d="M10.999603,46.003031 C11.0178756,46.0431292 10.4041139,46.4396964 9.40564994,47.0665522 C8.33866394,47.7375527 6.99497942,48.5825573 5.5087038,49.5173229 C4.03025928,50.467907 2.69342696,51.3272586 1.63198798,52.0096632 C0.640049917,52.6486588 0.0210675149,53.0356613 0.000510903718,52.9974025 C-0.019719412,52.9609831 0.562065313,52.5059241 1.52887863,51.8165298 C2.49569194,51.1271356 3.84949162,50.207085 5.37002825,49.2395787 C6.89023859,48.273176 8.28874074,47.4428864 9.31232946,46.867165 C10.3359182,46.2907078 10.9819831,45.9647722 10.999603,46.003031" id="Fill-198" fill="#E1E1E1"></path>
                    <path d="M23.9997117,44.9907318 C23.9920601,45.0264091 23.5465289,44.9665866 22.8822318,44.6790059 C22.2172391,44.3975517 21.3571309,43.8569867 20.5425844,43.1012767 C19.7269945,42.3459272 19.094695,41.5599456 18.6554242,40.9840636 C18.2182402,40.4045778 17.9716503,40.0287049 18.0026045,40.0016767 C18.0356454,39.9735673 18.3406656,40.3007894 18.8178466,40.8406337 C19.2967665,41.3783157 19.946456,42.1304219 20.742917,42.8677526 C21.5379867,43.604723 22.3483596,44.1546578 22.9719641,44.4786365 C23.5934819,44.8083812 24.0125803,44.9431621 23.9997117,44.9907318" id="Fill-200" fill="#E1E1E1"></path>
                    <path d="M30.9909475,42.0018693 C31.0613815,42.0263697 30.7249004,43.0960903 29.8376316,43.9721784 C28.9567053,44.8585409 28.008683,45.0683753 28.0006716,44.9822286 C27.9726315,44.8842268 28.8275206,44.5431966 29.6510315,43.7101818 C30.4845567,42.8913931 30.914171,41.9524732 30.9909475,42.0018693" id="Fill-202" fill="#E1E1E1"></path>
                    <path d="M45,50.0058564 C45.0012872,50.0135321 44.8976687,50.0294129 44.6988772,50.0519106 C44.4692274,50.0749377 44.1817592,50.1035231 43.8296513,50.1389901 C43.0741134,50.2072773 41.9788108,50.2930334 40.6233251,50.3787894 C37.9133282,50.5548011 34.1632486,50.7276366 30.0185092,50.8504478 C25.8721458,50.9687594 22.1162194,51.0145489 19.3974523,50.9960213 C18.0380687,50.9894043 16.9382186,50.9671713 16.178458,50.9430855 C15.8244011,50.9282634 15.534984,50.9163529 15.3040349,50.9065598 C15.1042689,50.8957079 14.9996759,50.8861795 15,50.8785038 C15.0003256,50.8705634 15.1052434,50.8644758 15.3053342,50.8605056 C15.5366081,50.8589175 15.8260252,50.8565354 16.1800821,50.8538886 C16.9791463,50.8491244 18.0682772,50.8422427 19.3971274,50.8340377 C22.1129711,50.8107459 25.8649997,50.7392825 30.0087646,50.6212356 C34.1502557,50.4981598 37.8987112,50.3517922 40.6096825,50.2170704 C41.9356093,50.1479892 43.0227913,50.0916125 43.8202314,50.0500579 C44.1739635,50.0323244 44.462731,50.0175023 44.69368,50.0058564 C44.8937709,49.9981808 44.9990135,49.9979161 45,50.0058564" id="Fill-204" fill="#E1E1E1"></path>
                    <path d="M41,57.0086073 C41.001957,57.0269714 40.6831361,57.0728819 40.1044747,57.1405233 C39.5254856,57.2078587 38.6863281,57.29264 37.6482763,57.3795638 C35.571845,57.5583085 32.6972148,57.7428686 29.5188365,57.8637661 C26.3388198,57.9828272 23.4576363,58.0152706 21.3726856,57.9938457 C20.3300465,57.9849697 19.4866294,57.9638509 18.9037082,57.9402835 C18.3211148,57.9167162 17.9996726,57.8949852 18,57.876621 C18.0003279,57.8579508 18.3227531,57.8450958 18.9050189,57.837138 C19.5364349,57.8291802 20.3674006,57.8184678 21.3720303,57.8059189 C23.4546873,57.779903 26.3309558,57.7174648 29.5073681,57.5987097 C32.6821421,57.4781182 35.5544787,57.3232469 37.6325483,57.1928612 C38.6345566,57.1298109 39.4642117,57.0774729 40.0939893,57.0376839 C40.6755998,57.0018737 40.998025,56.9902431 41,57.0086073" id="Fill-206" fill="#E1E1E1"></path>
                    <path d="M31,64.0254218 C31.0034699,64.0784918 30.3365401,64.2220114 29.2538084,64.3839901 C28.1710767,64.5464303 26.6722263,64.7213303 25.0134522,64.8422375 C23.3540447,64.9617603 21.8501275,65.0046777 20.7620122,64.9996015 C19.6732635,64.9954482 19.0003168,64.9493004 19,64.8953075 C18.9996834,64.8390072 19.6719968,64.7850143 20.7578953,64.717177 C21.9223307,64.6419562 23.3831793,64.5473532 24.9998349,64.4425978 C26.6145904,64.3129225 28.0751224,64.1957071 29.2386077,64.1020272 C30.3235562,64.0125005 30.9961863,63.9686601 31,64.0254218" id="Fill-208" fill="#E1E1E1"></path>
                    <path d="M18,45.8977274 C17.9981547,45.979132 16.4306265,45.9975137 14.5012429,46.0838419 C12.5715521,46.1665595 11.0080172,46.2863686 11,46.2052923 C10.9920439,46.1301243 12.5503568,45.8829564 14.4904917,45.7995824 C16.429705,45.7129259 18.002148,45.8225595 18,45.8977274" id="Fill-210" fill="#E1E1E1"></path>
                    <path d="M42,46.0182531 C41.9996956,46.0967035 39.9845748,46.1521768 37.4996956,46.1423295 C35.013903,46.1321539 32.9996956,46.0602684 33,45.981818 C33,45.9030394 35.0148163,45.8475661 37.5006089,45.8577417 C39.9854881,45.8679173 42,45.940131 42,46.0182531" id="Fill-212" fill="#E1E1E1"></path>
                    <path d="M53.9997283,63.0042223 C54.0079035,63.0262069 53.8313209,63.1485212 53.5039891,63.3523784 C53.1779653,63.5590336 52.6949793,63.829644 52.0890395,64.1402264 C50.8787948,64.7621906 49.1584227,65.4968758 47.2029342,66.0500882 C45.2454836,66.5993034 43.4358392,66.8595211 42.1248771,66.9474595 C41.4692325,66.9930276 40.9375228,67.0078172 40.5706234,66.9962253 C40.2033971,66.9882309 40.0003271,66.9726419 40,66.9486587 C39.9996731,66.8930976 40.8090099,66.8551242 42.1091809,66.7036303 C43.4090248,66.5533356 45.1983949,66.2575429 47.1394953,65.7127246 C49.0786335,65.1639091 50.7931196,64.4727934 52.0157904,63.912386 C53.2387882,63.3531778 53.9804351,62.9542573 53.9997283,63.0042223" id="Fill-214" fill="#FF9A6C" transform="translate(47.000000, 65.000000) rotate(-30.000000) translate(-47.000000, -65.000000) "></path>
                    <path d="M78.3747661,22.9341668 C78.0549808,23.770409 76.9805152,24.2293546 76.1488742,23.8843223 C75.3175649,23.5392901 74.891295,22.4581013 75.2668106,21.6449052 C75.561053,21.0068589 76.2560222,20.5462672 76.3223677,19.8479721 C76.4033092,19.001853 75.5345147,18.3996927 74.7629164,18.0306268 C73.9916499,17.66189 73.0896826,17.1825323 73.0060873,16.3370716 C72.9254775,15.5205832 73.6612492,14.8858292 74.277599,14.3396379 C74.8942806,13.7931174 75.5010103,12.9489737 75.1208505,12.2207186 C74.9264581,11.8480312 74.5220822,11.6337029 74.2606809,11.3038153 C73.6818163,10.5739141 73.9846836,9.41140568 74.7214505,8.83887606 C75.4582174,8.26601721 76.4799383,8.18634374 77.4011457,8.35062912 C78.3223532,8.51491451 79.1884939,8.89385734 80.0858169,9.15855764 C83.0441633,10.032332 86.3684052,9.60005403 89,8" id="Fill-218" fill="#263238"></path>
                    <path d="M83.0881062,42.8754854 C86.4097917,43.5486408 89.6555397,41.4261744 90.3771118,38.1085747 L94.7599328,17.9670731 C95.9122595,13.0679236 92.8018063,8.18206441 87.8821171,7.16369255 L87.4218496,7.09591184 C82.7909882,6.4164435 78.415131,9.41341389 77.3669281,13.9839599 C76.3920099,18.2355378 75.3693407,22.9449678 75.060285,25.2571537 C74.4206193,30.0443321 79.0823199,31.4876624 79.0823199,31.4876624 L78.2453493,35.5199498 C77.5459947,38.8930367 79.7183379,42.1923622 83.0881062,42.8754854" id="Fill-220" fill="#9C7160"></path>
                    <path d="M79.0076019,18.3974711 C78.9598796,18.6675543 79.1418055,18.9323762 79.4140887,18.989249 C79.6854029,19.0458713 79.9446049,18.8732485 79.9923271,18.6029148 C80.0402916,18.332581 79.8583657,18.0677591 79.5868093,18.0108863 C79.3147683,17.953763 79.0553241,18.1271374 79.0076019,18.3974711" id="Fill-222" fill="#263238"></path>
                    <path d="M78.0077177,17.5815526 C78.0871463,17.6902544 78.7211042,17.3609414 79.5334088,17.4785532 C80.3468166,17.5844038 80.8818565,18.074453 80.9848195,17.9903428 C81.0344624,17.95399 80.9653301,17.7679495 80.7332956,17.5476947 C80.5053061,17.3292218 80.0960281,17.0897214 79.589303,17.0202235 C79.0825779,16.9507257 78.629173,17.0708323 78.3566887,17.2208764 C78.0786886,17.3716334 77.9683711,17.5320131 78.0077177,17.5815526" id="Fill-224" fill="#263238"></path>
                    <path d="M86.0076022,19.3974269 C85.9598799,19.6677805 86.1418058,19.9326218 86.4138466,19.9892482 C86.685403,20.0458747 86.9446049,19.8732392 86.9923271,19.6028856 C87.0402916,19.332532 86.8583658,19.0676907 86.5868094,19.0108137 C86.3147685,18.9539367 86.0553244,19.1270733 86.0076022,19.3974269" id="Fill-226" fill="#263238"></path>
                    <path d="M86.0076845,18.5815479 C86.0871062,18.6902494 86.7217441,18.3612938 87.5336101,18.4785488 C88.3465791,18.5847555 88.88194,19.0744467 88.984894,18.9903367 C89.0341649,18.9539841 88.9661417,18.7683006 88.7330244,18.5480465 C88.5050548,18.3292179 88.0958126,18.0897183 87.5894994,18.0202206 C87.0828186,17.950723 86.6294532,18.0708292 86.3566251,18.2212292 C86.0793846,18.3716293 85.9683414,18.5320085 86.0076845,18.5815479" id="Fill-228" fill="#263238"></path>
                    <path d="M81.7779801,23.9885971 C81.7874975,23.9476255 81.3480547,23.8040611 80.6312935,23.6037919 C80.4484931,23.5579037 80.2788202,23.4952991 80.2663491,23.3645178 C80.2420632,23.2245589 80.3490523,23.0364173 80.4701535,22.8341815 C80.7097302,22.4120103 80.9611218,21.9695171 81.224328,21.5057187 C82.2791222,19.61152 83.0713665,18.0427998 82.9948988,18.0008448 C82.918103,17.9592177 82.0008193,19.4610724 80.9463533,21.355271 C80.6906954,21.8230027 80.4461958,22.2687736 80.2135109,22.6955337 C80.1127574,22.895475 79.9571966,23.1163939 80.0110193,23.4077838 C80.0408844,23.5529871 80.1619855,23.6732797 80.2761947,23.7224456 C80.3897476,23.7762004 80.4934548,23.7932446 80.5840345,23.8122554 C81.313595,23.9590976 81.7694472,24.0292409 81.7779801,23.9885971" id="Fill-230" fill="#263238"></path>
                    <path d="M86.0010207,15.2947275 C86.0405111,15.4597612 86.7181777,15.4696684 87.4859787,15.6500844 C88.2580002,15.8172039 88.8551788,16.0948672 88.9826934,15.9676375 C89.0399695,15.906369 88.9552612,15.7449853 88.7258554,15.5609193 C88.4991627,15.3773747 88.1202361,15.1823586 87.6587114,15.0778111 C87.1968852,14.9743066 86.7564622,14.9842138 86.4547076,15.0483501 C86.1508429,15.111965 85.9853451,15.2165125 86.0010207,15.2947275" id="Fill-232" fill="#263238"></path>
                    <path d="M79.0128321,14.6338605 C79.1367956,14.8322099 79.7660577,14.7264709 80.4881941,14.8126943 C81.2134787,14.8765635 81.799452,15.1079119 81.9702461,14.9400779 C82.0461983,14.8581124 81.9792974,14.6668596 81.7400283,14.4631878 C81.5046944,14.2602257 81.087154,14.064715 80.5905131,14.0132648 C80.0926916,13.9618146 79.6377654,14.0664891 79.3571751,14.2158721 C79.0730429,14.365255 78.9593114,14.5377019 79.0128321,14.6338605" id="Fill-234" fill="#263238"></path>
                    <path d="M90,12.4592478 C90.0085391,12.4672929 90.0174495,12.4760085 90.0256173,12.4840537 C90.7778001,13.202753 91.1977008,14.1544263 91.1895329,15.1429731 C91.1891617,15.1775002 91.1887904,15.2106864 91.1884191,15.2421965 C91.1743111,16.644733 90.9095992,18.0388891 90.9103417,19.4414255 C90.9114555,20.8442972 91.2118088,22.3111947 92.183038,23.4060045 C92.5825191,23.8565324 93.3569778,24.2326428 93.8114061,23.8266984 C93.9870144,23.6694829 94.0490157,23.4395259 94.1039629,23.2216366 C94.9270573,19.9388835 96.409147,17.1261007 96.9653019,13.6529458 C97.116778,12.7076416 96.767789,11.7552979 96.0066958,11.0929145 C95.2856992,10.4653934 94.3902082,9.79496491 93.4338296,10.0591137 C92.474481,10.323933 91.0725845,11.6825564 90.2747361,12.2316373" id="Fill-236" fill="#263238"></path>
                    <path d="M92.9229073,20.0358105 C93.0145629,20.0126233 96.5438303,19.5468931 95.9278766,22.7887864 C95.3119229,26.0306798 91.9884416,24.7785743 92,24.6845007 C92.0116189,24.5904272 92.9229073,20.0358105 92.9229073,20.0358105" id="Fill-238" fill="#9C7160"></path>
                    <path d="M93.0060271,23.6193578 C93.0247292,23.611256 93.0640816,23.6718434 93.1669431,23.7370101 C93.267467,23.8000632 93.4498125,23.8613551 93.6617698,23.8264821 C94.091139,23.7581452 94.5450547,23.2346983 94.6864894,22.6164955 C94.7585705,22.3044 94.7449335,21.9937135 94.6709043,21.7267062 C94.6050573,21.4551197 94.4589471,21.2497566 94.2629646,21.1845899 C94.0693199,21.1099125 93.9041179,21.1962143 93.8382709,21.2856864 C93.7677484,21.3737494 93.7782683,21.4466657 93.7572284,21.4491314 C93.7447604,21.4558242 93.6867059,21.3783287 93.7455396,21.2405981 C93.7751513,21.1750791 93.8359331,21.1007539 93.9387947,21.0489728 C94.0432148,20.9968395 94.1846495,20.9845106 94.3233568,21.0207926 C94.6136291,21.0870161 94.8298722,21.3744539 94.9113043,21.6678801 C95.0087112,21.965181 95.0316992,22.3153198 94.9510463,22.6658108 C94.7889614,23.3565776 94.2664712,23.9430776 93.6867059,23.9976767 C93.4061743,24.0174029 93.1969444,23.9078524 93.0971999,23.8078128 C92.9962864,23.7035461 92.9916109,23.6235848 93.0060271,23.6193578" id="Fill-240" fill="#5A3327"></path>
                    <path d="M93.7309875,11.0041557 C94.710367,9.89273427 92.8124106,7.83696174 91.2995374,7.1413529 C89.7863373,6.44543353 87.5833872,6.8891947 85.9279875,7.16743823 C84.8835557,7.3425826 83.8231061,7.64225337 82.7809627,7.45499796 C82.0820597,7.32985047 81.4485358,6.99353602 80.8192616,6.67833827 C80.1899874,6.36345106 79.5312926,6.05912219 78.8225828,6.00664099 C78.113546,5.95447033 77.3358612,6.20911285 76.9736608,6.79075363 C76.6121141,7.37239441 76.8628431,8.27326996 77.5457282,8.46207807 C76.7278352,7.87422649 75.3470278,8.30556608 75.05511,9.23966937 C74.7638459,10.1740832 75.6732697,11.2504137 76.6967801,11.1824055 C76.2901219,10.7901939 75.5058991,11.2361288 75.4784399,11.7860946 C75.4513076,12.3360603 75.9083077,12.8024909 76.399305,13.0947087 C77.6536038,13.8403144 79.2442782,13.8794424 80.6999447,13.6285264 C82.1559381,13.3782314 83.5491675,12.8661515 84.9976423,12.5810761 C86.4467709,12.2960007 88.8821438,11.7618725 90.191361,12.4164901 C91.1553764,12.8984476 91.6836398,14.1598597 92.297223,13.9831627 C92.8902118,13.8120553 93.3269445,13.3089811 93.5260239,12.7515624 C93.7251034,12.1938331 93.7290262,11.5929389 93.7309875,11.0041557" id="Fill-242" fill="#263238"></path>
                    <path d="M77.7923325,7.24902499 C77.7943045,7.24490948 77.7469761,7.21884458 77.652648,7.17185917 C77.6063056,7.14682315 77.5468165,7.12041529 77.4725373,7.0984659 C77.40023,7.07034324 77.3141187,7.04530722 77.2138745,7.02918814 C76.8253875,6.94722089 76.1683776,7.01341202 75.5912344,7.54739949 L75.590577,7.54774245 L75.588605,7.55014317 C75.1978173,8.01382401 74.9434273,8.74364119 75.0108045,9.55062419 C75.0614195,10.3579502 75.4844169,11.2153482 76.1926991,11.8285592 C76.8940793,12.452059 77.8495209,12.8406318 78.869053,12.9520936 C79.8925291,13.0690426 80.9682636,12.9606675 82.0479421,12.7483758 C83.8105954,12.3978715 85.4099,11.6934333 86.7341085,10.8596995 C87.4016358,10.4556935 88.0336668,10.0698644 88.6679985,9.8119591 C89.2987148,9.54685164 89.9294311,9.43058847 90.5065744,9.41961378 C91.6680916,9.39869327 92.5771907,9.75811451 93.1461172,10.0705503 C93.7199738,10.3891594 93.9875106,10.6504944 94,10.6330034 C94,10.6330034 93.7482393,10.3531487 93.1766835,10.0122473 C92.6100577,9.67854797 91.6920844,9.29374775 90.504931,9.2992351 C89.9159557,9.30232173 89.2648619,9.41515531 88.6186981,9.67991981 C87.9695763,9.93782513 87.3276852,10.3239972 86.6591719,10.7235447 C85.3379215,11.544932 83.7606377,12.2332511 82.0170472,12.5813547 C80.9492008,12.7912457 79.8852983,12.8989349 78.8868011,12.7878161 C77.8899472,12.6821847 76.9660579,12.3100739 76.2853839,11.7133249 C75.5981364,11.1254928 75.1902579,10.3133655 75.1327407,9.5396495 C75.0597762,8.76559058 75.2937887,8.06458197 75.6599263,7.61324766 L75.6572969,7.61599133 C76.1943425,7.10120957 76.8270308,7.01512681 77.2063152,7.08097498 C77.5964456,7.14476539 77.7857591,7.26754479 77.7923325,7.24902499" id="Fill-246" fill="#455A64"></path>
                    <path d="M79.0035502,5 C79.0035502,5 78.9685891,5.27415503 79.1180894,5.73977342 C79.2695875,6.19732916 79.6671452,6.82789605 80.4019942,7.29922549 C80.7642578,7.53640196 81.2027699,7.73628864 81.7025471,7.84278289 C82.1999936,7.9512928 82.7473845,7.97480888 83.3137544,7.92811266 C84.4528203,7.84143911 85.6454932,7.44804868 86.8957688,7.12117517 C88.1417158,6.79396571 89.3953209,6.62464993 90.4741206,6.91524149 C91.5529202,7.19407502 92.3780022,7.85655659 92.9064142,8.50795202 C93.4418185,9.16573038 93.7105195,9.81779769 93.8380443,10.2740096 C93.9629053,10.7345889 93.9772228,11.0023362 93.9972005,11 C94.0028609,10.9993127 94,10.9331318 93.9888765,10.8064809 C93.9832161,10.6788222 93.9499198,10.4943889 93.8999754,10.2575484 C93.7897647,9.78924245 93.5337162,9.11668255 92.9969801,8.43404433 C92.4679021,7.75745311 91.6288357,7.06440063 90.5127442,6.76675424 C89.3959868,6.45734981 88.1097513,6.63036098 86.8551473,6.9595861 C85.5948829,7.28948311 84.4165273,7.68220165 83.3007688,7.7749222 C82.7467186,7.82497786 82.2133121,7.80650094 81.730183,7.70739745 C81.2477198,7.61064558 80.8198626,7.42318883 80.4649242,7.19945012 C79.7437266,6.7549962 79.3445042,6.15634399 79.1783557,5.71760112 C79.014205,5.27146748 79.0245269,4.99700123 79.0035502,5" id="Fill-248" fill="#455A64"></path>
                    <path d="M80.1001445,25.4512668 C80.1673196,25.7621277 80.2365554,26.0778814 80.4125295,26.361016 C80.5880915,26.6438244 80.8881129,26.8946659 81.2738547,26.9739306 C81.6847357,27.0584143 82.1360042,26.9302208 82.4401468,26.6953627 C82.7434652,26.4611569 82.9124333,26.1336602 82.9808448,25.8019231 C83.0426624,25.5021527 82.9647722,25.1188773 82.6008726,25.0223245 C82.4492134,24.9822029 82.2843664,25.0040577 82.1269376,25.026565 C81.4176837,25.1280106 80.709254,25.2294563 80,25.330902" id="Fill-250" fill="#AA6550"></path>
                    <path d="M80.6514403,26.6696079 C80.6749606,26.6281539 80.9766343,26.8501428 81.5261236,26.8152975 C81.7923463,26.7984756 82.1107229,26.7056548 82.3476305,26.4854682 C82.5828337,26.2685859 82.7375906,25.9282429 82.6987309,25.5818921 C82.6915726,25.4956799 82.6646435,25.4115705 82.6363509,25.3352712 C82.5951051,25.259873 82.6053314,25.2655804 82.5340887,25.2550668 C82.4642094,25.2523632 82.3449035,25.2658808 82.2494587,25.2712879 C82.1499234,25.2778965 82.0524334,25.2848055 81.9566477,25.2911137 C81.5752094,25.3163465 81.2312673,25.3352712 80.942206,25.3475872 C80.3634016,25.3719189 80.0041201,25.3689149 80,25.3331684 C79.99628,25.2974219 80.348744,25.235241 80.9224353,25.1637479 C81.2091105,25.1283018 81.5510074,25.0901521 81.9310821,25.0520025 C82.0265269,25.0426903 82.124017,25.0330778 82.2232114,25.0234653 C82.3275189,25.0159555 82.4106922,24.9991337 82.549428,25.0000348 C82.6165802,25.0021376 82.7069119,25.0180583 82.7812225,25.0721287 C82.8538287,25.1252979 82.8879161,25.1898819 82.9114364,25.2424503 C82.9516596,25.3451841 82.98302,25.4476174 82.9929054,25.5560585 C83.0406278,25.9883211 82.8429207,26.3965525 82.5405653,26.6548887 C82.2320741,26.9189324 81.8380235,27.005445 81.5322593,26.9997376 C81.2207002,26.9967336 80.98277,26.9093199 80.8402846,26.830317 C80.6967766,26.7498123 80.6401914,26.6816235 80.6514403,26.6696079" id="Fill-252" fill="#263238"></path>
                    <path d="M79.3386053,32 C79.3386053,32 82.7138749,33.4131403 86,32.386015 C86,32.386015 83.5215672,34.6790951 79,33.7987586 L79.3386053,32 Z" id="Fill-254" fill="#AA6550"></path>
                    <path d="M83.9997391,75.9996185 C83.992825,76.0075303 83.8485719,75.8921497 83.5946361,75.6765528 C83.4689253,75.5667765 83.3133582,75.4352426 83.1238491,75.2948079 C82.9352829,75.1530547 82.728803,74.9799838 82.4811527,74.8181213 C82.2385308,74.6480174 81.9723382,74.4637381 81.672518,74.289019 C81.3808689,74.0994651 81.0515066,73.9306798 80.7095732,73.7447523 C80.0153354,73.3956436 79.2299571,73.0587323 78.3795236,72.7870935 C77.5259473,72.5243554 76.6934275,72.3535922 75.9297344,72.2454641 C75.546945,72.2039271 75.1833265,72.1557969 74.8404503,72.1459071 C74.4985169,72.1195344 74.1792115,72.1201937 73.8872482,72.122831 C73.5955991,72.1155785 73.3325493,72.1412919 73.1006129,72.1511817 C72.8686764,72.1594231 72.6700534,72.1795323 72.5078864,72.1989822 C72.1826097,72.2326074 72.0015862,72.246453 72,72.2355743 C71.9981292,72.2246956 72.1763242,72.1900814 72.5006581,72.1370063 C72.662825,72.1079964 72.8617623,72.0783271 73.0943273,72.0621738 C73.326578,72.0433832 73.5911993,72.0094284 73.8850482,72.0094284 C74.1788972,71.9998683 74.5007169,71.9926158 74.8464216,72.0133843 C75.1924406,72.0176698 75.5598304,72.0611848 75.9470196,72.0994252 C76.7185697,72.2003008 77.5611463,72.3680971 78.4232081,72.6338021 C79.2824414,72.9084079 80.0744194,73.2529014 80.7718001,73.6128888 C81.1156191,73.8037612 81.4452957,73.97881 81.7369448,74.1746274 C82.0364507,74.3562693 82.3017005,74.5478011 82.5421224,74.7251575 C82.7882013,74.8939428 82.9912243,75.0745959 83.1760191,75.2239313 C83.3617568,75.3722778 83.5126098,75.5113938 83.6326636,75.6287523 C83.875914,75.8598431 84.0066532,75.991377 83.9997391,75.9996185" id="Fill-256" fill="#FAFAFA"></path>
                    <path d="M66.7041956,60.9150073 L69.0338747,48.6442899 C69.9836659,44.4779356 70.4892648,41.8554131 72.3804017,41.3808456 L73,41.2894982 L72.1908585,72.9432822 C72.1908585,72.9432822 75.4216365,80.5184947 66.6105901,70.3533187 L66.7041956,60.9150073 Z" id="Fill-258" fill="#D19A3C"></path>
                    <path d="M105.275927,48.9403556 C106.208882,51.6510888 113,71.6434001 113,71.6434001 L101.419411,71.4010433 L99.5336929,67.2790151 L100.453983,73.9652504 L101.23886,83.5051473 C95.7456976,87.5196589 91.2894745,90.1961803 87.8701909,91.5347117 C84.4509073,92.873243 79.0580241,94.0523063 71.6915414,95.0719015 L72.2049058,69.6309555 L72.4854742,41.0469151 C72.4854742,41.0469151 72.8141029,40.6135511 77.8555656,37.8122202 C80.98728,36.0715685 92.2369672,37.6702731 92.2369672,37.6702731 C97.1683458,38.6217116 102.721911,41.5198543 105.275927,48.9403556 Z" id="Fill-260" fill="#D19A3C"></path>
                    <path d="M95,57 C95.5501891,62.9973542 96.1833344,64.8496456 96.7331515,70.8473248 C96.7852316,71.4136098 96.8402877,71.9912724 97.0951082,72.5143221 C97.3495567,73.0370466 97.8435737,73.504508 98.480439,73.6179601 C99.4561969,73.7915514 100.724347,74.4082234 101,73.5721241 L100.07409,67.7958226 C100.07409,67.7958226 99.8560977,66.7094138 99.1593403,65.3580667 C97.1040362,61.3706665 96.3432947,61.1369358 95,57" id="Fill-262" fill-opacity="0.3" fill="#000000"></path>
                    <path d="M77,40.9668828 L77.1007584,40.3636146 L78.0670313,34.5704143 C78.1254712,34.2207894 78.46234,33.9728106 78.8385047,34.0023918 L90.745459,34.9338858 C91.4934221,34.9924189 92.0516235,35.6048132 91.9962064,36.3062659 L91.730876,39.6728614 L88.0132274,44.2176709 L82.6595985,45" id="Fill-264" fill="#D19A3C"></path>
                    <path d="M72.0794397,62.9994877 C72.0794397,69.0757075 72.0440603,74 72.0001638,74 C71.9562672,74 71.9205603,69.0757075 71.9205603,62.9994877 C71.9205603,56.9253171 71.9562672,52 72.0001638,52 C72.0440603,52 72.0794397,56.9253171 72.0794397,62.9994877 Z" id="Fill-266" fill="#263238"></path>
                    <path d="M101.999514,72 C101.996931,72.0009475 101.984661,71.9778187 101.962705,71.9318868 C101.93752,71.8768337 101.906523,71.8090761 101.8681,71.725682 C101.783181,71.531856 101.666942,71.2650602 101.519384,70.9275749 C101.217486,70.2193769 100.789663,69.2153907 100.263038,67.9801163 C99.2120467,65.4753629 97.7684275,62.0343809 96.173698,58.2337621 C95.3813379,56.3280777 94.6267555,54.5126282 93.9393331,52.8600578 C93.5744729,52.0437082 93.3316634,51.2071616 93.1999262,50.420456 C93.0620543,49.6321216 93.0058723,48.8864615 93.0007061,48.2069303 C92.9864992,46.8459132 93.1883024,45.7461542 93.4585572,45.0346987 C93.4918144,44.945441 93.5205511,44.8604181 93.5531625,44.7825619 C93.5899714,44.7076376 93.624843,44.6366224 93.6571315,44.5704935 C93.7191255,44.43791 93.7769219,44.328781 93.8376243,44.2483188 C93.8892859,44.1720914 93.931261,44.1105231 93.9651639,44.0603564 C93.9948693,44.0186594 94.0110136,43.9984624 94.0132738,44 C94.0345842,44.0127957 93.7594861,44.3411598 93.5160307,45.0552214 C93.2664406,45.7650481 93.0833647,46.855686 93.1114557,48.2049757 C93.1469731,49.5464472 93.3287574,51.1788207 94.0723618,52.8033759 C94.7633359,54.4549691 95.521793,56.2681382 96.3180276,58.1725196 C97.89629,61.9799793 99.3250565,65.4271507 100.365069,67.9367905 C100.872645,69.1805346 101.284646,70.1907102 101.575566,70.9037945 C101.7115,71.2461662 101.819021,71.5165454 101.897482,71.7133032 C101.929448,71.7993033 101.955924,71.8690156 101.977235,71.9253717 C101.994348,71.9735839 102.002097,71.9986672 101.999514,72" id="Fill-268" fill="#263238"></path>
                    <path d="M106,50.5708037 C106.000322,50.5756265 105.956021,50.5818677 105.871946,50.5892438 C105.787224,50.5954851 105.662405,50.6096698 105.501046,50.6125067 C105.178975,50.6269751 104.711067,50.6221523 104.135477,50.584421 C103.560212,50.5478244 102.879205,50.4706596 102.126089,50.3795937 C101.372973,50.2899463 100.546129,50.1883837 99.6743378,50.1478154 C98.8041634,50.1117862 97.9711759,50.1696599 97.2345511,50.3089538 C96.4998665,50.4527868 95.8602511,50.669813 95.3745573,50.9299607 C94.3886183,51.4474191 94.0329172,52.0284251 94.0005807,51.9989209 C93.9960536,51.996084 94.0180424,51.9623243 94.0649303,51.9001953 C94.1147284,51.8403358 94.1745509,51.7410428 94.2835248,51.6355085 C94.4827175,51.4116736 94.8258074,51.120887 95.3166751,50.8471219 C95.8059259,50.5699526 96.4558889,50.338458 97.2031848,50.1852631 C97.9517741,50.0360399 98.7986662,49.9736271 99.682422,50.0102237 C100.563591,50.0513594 101.394315,50.157461 102.146138,50.2542008 C102.898284,50.3520753 103.574763,50.4386021 104.145502,50.4873975 C104.715594,50.5373277 105.179622,50.5569026 105.5004,50.5591722 C105.820854,50.5622928 105.999028,50.5597396 106,50.5708037" id="Fill-272" fill="#211908"></path>
                    <path d="M71.9978062,61.9997183 C71.9695163,62.0120099 71.8166079,61.6209822 71.4925278,61.0378976 C71.1698802,60.454813 70.6524265,59.6915791 69.9480448,58.9848099 C69.2411565,58.2803453 68.4952353,57.7802293 67.9301543,57.4763954 C67.3647153,57.1706409 66.9908594,57.0338964 67.00017,57.0031673 C67.0041091,56.9908757 67.1004379,57.0146907 67.2726837,57.0688507 C67.4456458,57.1199379 67.6898696,57.2175027 67.9831531,57.3573201 C68.5704362,57.6350343 69.3446472,58.1290046 70.0665758,58.8484495 C70.7859976,59.5701991 71.2998703,60.3637781 71.5995996,60.9725983 C71.7500014,61.2768163 71.8574312,61.5310996 71.9172338,61.7127854 C71.9795431,61.8933188 72.0085492,61.9947248 71.9978062,61.9997183" id="Fill-276" fill="#211908"></path>
                    <path d="M107.999502,61.0010582 C108.019613,61.0268265 107.427002,61.2676485 106.832445,62.0457869 C106.532085,62.4272211 106.230427,62.9212722 105.885305,63.4690867 C105.540183,64.0169012 105.110727,64.5955741 104.594017,65.1437067 C103.558651,66.2434714 102.387377,66.996796 101.497325,67.4272217 C101.053272,67.648638 100.675714,67.7882957 100.414926,67.8815069 C100.150895,67.9667649 100.003634,68.0084395 100,67.9985776 C99.9964984,67.9883975 100.136947,67.926999 100.39287,67.8255165 C100.645224,67.7154446 101.013051,67.5617893 101.446076,67.3305111 C102.314719,66.879089 103.457774,66.1229014 104.478868,65.0387249 C104.988118,64.497591 105.413033,63.9329157 105.763021,63.3930544 C106.113008,62.8522386 106.427964,62.3578694 106.745516,61.9780259 C107.062418,61.5981824 107.374455,61.3363639 107.612213,61.1906618 C107.73093,61.1178107 107.825644,61.0665923 107.894084,61.0392334 C107.961227,61.0093295 107.996907,60.9959681 107.999502,61.0010582" id="Fill-278" fill="#211908"></path>
                    <path d="M92,37.6810871 C92.0009833,37.6887969 91.9517402,37.7060306 91.8579122,37.7309741 C91.7447861,37.7586387 91.6090349,37.791292 91.4456676,37.8307481 C91.0869916,37.9119278 90.5666119,38.0194116 89.9221263,38.1377799 C88.6338206,38.3749698 86.8477604,38.6511624 84.8683879,38.8484427 C83.8798661,38.9468562 82.9326021,39.0352922 82.0675207,38.9858587 C81.2037703,38.9427745 80.4275262,38.7500293 79.8073294,38.4593242 C79.1844709,38.1745148 78.7223178,37.8017229 78.427192,37.5087502 C78.27913,37.3622639 78.1709949,37.2366394 78.1011229,37.1463893 C78.031251,37.0565927 77.996315,37.0067057 78.0003077,37.0008099 C78.0096239,36.9862974 78.1606804,37.1681581 78.4627934,37.4380014 C78.7649065,37.7055771 79.2267268,38.0502509 79.8429309,38.3114773 C80.4568059,38.5781459 81.2194083,38.7513899 82.073177,38.7835896 C82.9269458,38.8216852 83.8682208,38.7278069 84.8567425,38.6293935 C86.8327879,38.4316596 88.6175172,38.1813176 89.908152,37.9831302 C90.5343377,37.8860773 91.050392,37.8058046 91.4370168,37.7463937 C91.7983546,37.690611 91.9986542,37.666121 92,37.6810871" id="Fill-280" fill="#263238"></path>
                    <path d="M112.851123,74.7093693 C113.809766,78.4668708 110.018431,81.9610533 104.941104,82 L82,81.8079608 L82.6023616,76.2104103 L102.272248,74" id="Fill-282" fill="#9C7160"></path>
                    <path d="M84,75.8327973 C83.8964869,75.8663451 82.5902355,75.293524 81.419865,74.7639701 C80.1777083,74.2018091 78.8150535,73.9428325 77.4482325,74.0105552 L72.0565803,74.2789377 C72.0565803,74.2789377 72.3895526,75.1489862 72.961278,75.4587548 C73.5330034,75.7678963 76.8848394,75.8340514 76.8848394,75.8340514 L76.7133859,76.0071205 C76.0067411,76.7185223 75.0433966,77.131129 74.0297378,77.155898 L73.5144159,77.1687528 C73.132411,77.1389673 72.7548928,77.0668552 72.3895526,76.953357 L71.0595861,76.4275655 C70.657071,76.250107 70.2321226,76.2789518 70.0571439,76.6755685 C69.8988298,77.0339344 70.0148414,77.5280593 71.1124643,78.0692137 C71.7261717,78.3714576 74.0018566,79.1411762 74.0018566,79.1411762 C74.0018566,79.1411762 74.0345449,79.7566375 74.1342123,80.0808285 C74.2332387,80.404706 75.1273608,80.7285835 75.1273608,80.7285835 C75.1273608,80.7285835 75.6904334,81.8623115 75.922136,82.1216016 C76.0259695,82.2379216 76.8358069,82.484357 77.6972407,82.7207594 C79.0880972,83.1026401 80.5613155,83.0935477 81.9454421,82.6890927 L84,82.0889944 L84,75.9663614" id="Fill-284" fill="#9C7160"></path>
                    <path d="M76.9999696,79.9836646 C76.9971427,80.0309772 76.2921919,79.985855 75.4543782,79.7103029 C74.6155045,79.4391316 73.9840523,79.0483645 74.0003068,79.0054327 C74.0176214,78.9550536 74.6660348,79.2647759 75.4921876,79.5320045 C76.3172804,79.8031758 77.00527,79.9293427 76.9999696,79.9836646" id="Fill-286" fill="#5A3327"></path>
                    <path d="M77,81.1886601 C77.0004333,81.224767 76.5173015,81.2477441 75.9478644,81.1322021 C75.3770926,81.0189578 74.9753725,80.8190571 75.0011752,80.7875456 C75.0265329,80.7524235 75.4504967,80.8909426 75.9968004,80.9989349 C76.5417695,81.1095532 77.0026577,81.1486143 77,81.1886601" id="Fill-288" fill="#5A3327"></path>
                    <path d="M77.999287,76.0010281 C78.0125529,76.0139224 77.8400957,76.193782 77.5331864,76.4599346 C77.22556,76.7234422 76.7798961,77.0758877 76.2191413,77.3770865 C75.6583864,77.6782852 75.0929705,77.8475649 74.6788581,77.9252616 C74.2640286,78.0029583 74.0022952,78.0085789 74.0001439,77.9930395 C73.9858024,77.942454 75.0456434,77.8528548 76.1434895,77.2567392 C76.6899029,76.9628142 77.1395107,76.628553 77.4629128,76.3855441 C77.7852392,76.1405515 77.9838698,75.9858194 77.999287,76.0010281" id="Fill-290" fill="#5A3327"></path>
                    <path d="M84.5625575,74.768281 L84,82.9923616 L105.832682,83 C107.314445,83.0006357 108.768621,82.6104827 110.038891,81.8709106 C112.987638,80.1550013 114.509795,76.8320183 113.846088,73.5618619 C113.621131,72.2252857 113.096669,70.6630827 112.43756,69 L101.461285,70.7499601 L101.812022,72.0744435 L84.5625575,74.768281 Z" id="Fill-292" fill="#D19A3C"></path>
                    <path d="M106,71.0022058 C106.000624,71.0087148 105.928072,71.0286246 105.788934,71.0611695 C105.635036,71.094863 105.432454,71.1392772 105.17962,71.1947949 C104.632494,71.3062132 103.86928,71.4616628 102.933009,71.6519545 C101.019322,72.0233488 98.4030398,72.5310487 95.5122516,73.0915862 C92.6183226,73.631448 89.9988992,74.1203868 88.0830139,74.4776145 C87.1439161,74.6441677 86.3781901,74.7793246 85.8291791,74.8765763 C85.5744606,74.9179274 85.3703089,74.9508552 85.2151536,74.9757424 C85.07476,74.996418 85.0006372,75.0040756 85,74.9979495 C84.9990668,74.9914405 85.0716192,74.9711478 85.2110705,74.938603 C85.3649695,74.9049095 85.5672367,74.8604953 85.8203848,74.8053605 C86.3675114,74.6939422 87.1307247,74.5381097 88.0666818,74.347818 C89.9806826,73.9768065 92.5969652,73.4691066 95.4883816,72.9085692 C98.3813683,72.3683244 101.000164,71.8797686 102.915735,71.5225408 C103.854833,71.3563706 104.620559,71.2204479 105.16957,71.123579 C105.424602,71.0822279 105.628754,71.0493002 105.784223,71.0244129 C105.924617,71.0037374 105.999054,70.9956969 106,71.0022058" id="Fill-294" fill="#263238"></path>
                    <path d="M94.7142832,83 C94.6742858,82.9932981 94.8511709,82.4070531 94.8735832,81.4409874 C94.8728936,81.1996297 94.8787553,80.9354066 94.8401371,80.6533993 C94.8242761,80.3701216 94.7608319,80.0725531 94.6998013,79.7594233 C94.5505007,79.1382449 94.3115506,78.4697478 93.9546771,77.8120482 C93.5943556,77.1549838 93.1461087,76.5836649 92.7016547,76.0961859 C92.5864897,75.9777301 92.4737384,75.8614974 92.3644351,75.748758 C92.253063,75.6376064 92.1337603,75.5404282 92.0244571,75.4400742 C91.8089538,75.2365081 91.5824167,75.0735917 91.3827744,74.9167092 C90.5638618,74.3110921 89.9814857,74.0303551 90.00045,74.0008205 C90.0063117,73.9916108 90.1514747,74.0602072 90.4107683,74.1926363 C90.5407599,74.2580569 90.7000599,74.3380861 90.871773,74.4505079 C91.0431412,74.5629298 91.2534724,74.6724934 91.4562179,74.8309638 C91.6627563,74.9843529 91.8968791,75.1447287 92.1196233,75.3470245 C92.2323747,75.4467433 92.3551253,75.543604 92.4699455,75.6547555 C92.5830416,75.7681301 92.699241,75.8843628 92.8178541,76.0031362 C93.2764451,76.4931557 93.7364154,77.0727317 94.103633,77.7421815 C94.4677474,78.4129017 94.7073871,79.0963249 94.8508261,79.7308415 C94.9087534,80.0509579 94.9680599,80.3545604 94.978404,80.6432369 C95.0111605,80.9303254 94.9987475,81.1993122 94.9918514,81.4441631 C94.9959891,81.6890141 94.9473715,81.9081415 94.9277176,82.1012276 C94.9087534,82.2946313 94.8670319,82.4578652 94.833241,82.5909295 C94.7670384,82.8573756 94.7253169,83.0025078 94.7142832,83" id="Fill-296" fill="#211908"></path>
                </g>
            </g>
        </g>
    </g>
</svg>