<?xml version="1.0" encoding="utf-8"?>
<!-- Generator: Adobe Illustrator 24.2.1, SVG Export Plug-In . SVG Version: 6.00 Build 0)  -->
<svg version="1.1" id="Capa_1" xmlns="http://www.w3.org/2000/svg" xmlns:xlink="http://www.w3.org/1999/xlink" x="0px" y="0px"
	 viewBox="0 0 480 480" style="enable-background:new 0 0 480 480;" xml:space="preserve">
<style type="text/css">
	.st0{fill:#024F9D;}
</style>
<g>
	<g>
		<g>
			<path class="st0" d="M472,0H112c-4.4,0-8,3.6-8,8v120h16V16h344v440c0.1,4.2-3.2,7.7-7.4,8c-0.7,0-1.4-0.1-2.1-0.1
				c-1.4,0-2.8-0.1-4.2-0.2c-0.1,0-0.2,0-0.4,0c-26.1-2.9-46.8-23.5-49.6-49.6c0-0.1,0-0.2-0.1-0.3c-0.2-1.9-0.3-3.8-0.3-5.7v-16
				c0-4.4-3.6-8-8-8H120V240h-16v144H40c-4.4,0-8,3.6-8,8v16c0,39.7,32.3,72,72,72h352.8c13-0.3,23.3-11,23.2-24V8
				C480,3.6,476.4,0,472,0z M104,464c-30.9,0-56-25.1-56-56v-8h336v8c0,2.6,0.2,5.3,0.5,7.9c0.1,0.7,0.2,1.4,0.3,2.1
				c0.3,1.9,0.6,3.9,1,5.8c0.1,0.7,0.3,1.3,0.5,2c0.5,1.9,1,3.8,1.7,5.7c0.2,0.5,0.4,1.1,0.6,1.6c0.7,2,1.6,3.9,2.5,5.8
				c0.2,0.4,0.4,0.8,0.6,1.2c1,2,2.1,4,3.3,5.9c0.2,0.3,0.3,0.5,0.5,0.8c1.3,2,2.7,4,4.2,5.9l0.3,0.3c1.7,2.2,3.6,4.3,5.6,6.3
				c1.7,1.7,3.5,3.3,5.4,4.8L104,464z"/>
			<path class="st0" d="M264,224c2.1,0,4.2-0.8,5.7-2.3l32-32c3.1-3.1,3.1-8.2,0-11.3l-32-32c-1.5-1.5-3.5-2.3-5.7-2.3H40
				c-22.1,0-40,17.9-40,40s17.9,40,40,40L264,224L264,224z M261.9,161.2l22.8,22.8l-22.8,22.8l-5.7-22.8L261.9,161.2z M64,160h181.8
				l-4,16H80v16h161.8l4,16H64V160z M16,184c0-13.3,10.7-24,24-24h8v48h-8C26.7,208,16,197.3,16,184z"/>
			<path class="st0" d="M184,344h240c4.4,0,8-3.6,8-8V96c0-4.4-3.6-8-8-8c-2.1,0-4.2,0.8-5.7,2.3l-240,240c-3.1,3.1-3.1,8.2,0,11.3
				C179.8,343.2,181.9,344,184,344z M416,115.3V136h-16v16h16v16h-16v16h16v16h-16v16h16v16h-16v16h16v16h-16v16h16v16h-16v16h16v16
				h-16v-16h-16v16h-16v-16h-16v16h-16v-16h-16v16h-16v-16h-16v16h-16v-16h-16v16h-16v-16h-16v16h-20.7L416,115.3z"/>
			<path class="st0" d="M299.9,296H376c4.4,0,8-3.6,8-8v-76.1c0-4.4-3.6-8-8-8c-2.1,0-4.2,0.8-5.7,2.3l-76.1,76.1
				c-3.1,3.1-3.1,8.2,0,11.3C295.7,295.2,297.8,296,299.9,296z M368,231.2V280h-48.8L368,231.2z"/>
			<rect x="208" y="48" class="st0" width="160" height="16"/>
			<rect x="184" y="80" class="st0" width="208" height="16"/>
			<rect x="136" y="248" class="st0" width="48" height="16"/>
			<rect x="136" y="280" class="st0" width="32" height="16"/>
		</g>
	</g>
</g>
</svg>
