<?xml version="1.0" encoding="utf-8"?>
<!-- Generator: Adobe Illustrator 24.2.1, SVG Export Plug-In . SVG Version: 6.00 Build 0)  -->
<svg version="1.1" id="Layer_1" xmlns="http://www.w3.org/2000/svg" xmlns:xlink="http://www.w3.org/1999/xlink" x="0px" y="0px"
	 viewBox="0 0 512 512" style="enable-background:new 0 0 512 512;" xml:space="preserve">
<style type="text/css">
	.st0{fill:#024F9D;}
</style>
<g id="Analysis-report-document-develop-infromation">
	<path class="st0" d="M493.7,106.3l-88-88c-1.5-1.5-3.6-2.3-5.7-2.3H200c-13.2,0-24,10.8-24,24v48.4
		C83.4,92.7,11.9,171.3,16.3,263.9c4.1,86.5,73.3,155.7,159.7,159.7V472c0,13.2,10.8,24,24,24h272c13.2,0,24-10.8,24-24V112
		C496,109.9,495.2,107.8,493.7,106.3z M408,43.3l60.7,60.7H416c-4.4,0-8-3.6-8-8V43.3z M32,256c0.1-80.8,63.3-147.4,144-151.8v148.5
		L71.2,357.5C46,329.7,32,293.5,32,256L32,256z M82.5,368.8L187.3,264h148.5c-4.3,83.7-75.5,148.1-159.2,143.8
		C141.6,406,108.4,392.3,82.5,368.8L82.5,368.8z M480,472c0,4.4-3.6,8-8,8H200c-4.4,0-8-3.6-8-8v-48.4c89.5-4.3,159.8-78,160-167.6
		c0-4.4-3.6-8-8-8H192V40c0-4.4,3.6-8,8-8h192v64c0,13.2,10.8,24,24,24h64V472z"/>
	<path class="st0" d="M216,56c-4.4,0-8,3.6-8,8v160c0,4.4,3.6,8,8,8h160c4.4,0,8-3.6,8-8C383.9,131.3,308.7,56.1,216,56z M224,216
		V72.2c77.6,4.2,139.6,66.2,143.8,143.8H224z"/>
	<path class="st0" d="M392,320c-39.8,0-72,32.2-72,72s32.2,72,72,72s72-32.2,72-72C463.9,352.3,431.7,320.1,392,320z M392,448
		c-30.9,0-56-25.1-56-56s25.1-56,56-56s56,25.1,56,56C448,422.9,422.9,448,392,448z"/>
	<path class="st0" d="M376,404.7l-18.3-18.3l-11.3,11.3l24,24c3.1,3.1,8.2,3.1,11.3,0l48-48l-11.3-11.3L376,404.7z"/>
	<path class="st0" d="M400,152h64v16h-64V152z"/>
	<path class="st0" d="M400,200h64v16h-64V200z"/>
	<path class="st0" d="M400,248h64v16h-64V248z"/>
</g>
</svg>
