<?xml version="1.0" encoding="UTF-8"?>
<svg width="22px" height="22px" viewBox="0 0 22 22" version="1.1" xmlns="http://www.w3.org/2000/svg" xmlns:xlink="http://www.w3.org/1999/xlink">
    <title>Shape Copy</title>
    <g id="Symbols" stroke="none" stroke-width="1" fill="none" fill-rule="evenodd">
        <path d="M15.1066667,2.31 C18.1041667,3.73083333 20.2491667,6.63666667 20.5791667,10.0833333 L21.9541667,10.0833333 C21.4866667,4.43666667 16.7658333,0 11,0 L10.395,0.0275 L13.8875,3.52 L15.1066667,2.31 L15.1066667,2.31 Z M9.3775,1.60416667 C8.83666667,1.06333333 7.96583333,1.06333333 7.43416667,1.60416667 L1.60416667,7.43416667 C1.06333333,7.975 1.06333333,8.84583333 1.60416667,9.3775 L12.6225,20.3958333 C13.1633333,20.9366667 14.0341667,20.9366667 14.5658333,20.3958333 L20.3958333,14.5658333 C20.9366667,14.025 20.9366667,13.1541667 20.3958333,12.6225 L9.3775,1.60416667 L9.3775,1.60416667 Z M13.5941667,19.4241667 L2.57583333,8.40583333 L8.40583333,2.57583333 L19.4241667,13.5941667 L13.5941667,19.4241667 L13.5941667,19.4241667 Z M6.89333333,19.69 C3.89583333,18.2783333 1.75083333,15.3633333 1.42083333,11.9166667 L0.0458333333,11.9166667 C0.513333333,17.5633333 5.23416667,22 11,22 L11.605,21.9725 L8.1125,18.48 L6.89333333,19.69 L6.89333333,19.69 Z" id="Shape-Copy" fill="#024F9D"></path>
    </g>
</svg>