<?xml version="1.0" encoding="utf-8"?>
<!-- Generator: Adobe Illustrator 24.2.1, SVG Export Plug-In . SVG Version: 6.00 Build 0)  -->
<svg version="1.1" id="Capa_1" xmlns="http://www.w3.org/2000/svg" xmlns:xlink="http://www.w3.org/1999/xlink" x="0px" y="0px"
	 viewBox="0 0 512 512" style="enable-background:new 0 0 512 512;" xml:space="preserve">
<style type="text/css">
	.st0{fill:#024F9D;}
</style>
<g>
	<path class="st0" d="M486.9,356c-3.4-2.3-8.1-1.5-10.4,2l-17.2,25.2c-5.6,8.2-8.7,17.7-9.1,27.6l-1.8,47.4
		c-0.2,4.2,3.2,7.8,7.5,7.8c4,0,7.3-3.2,7.5-7.2l1.8-47.4c0.3-7,2.5-13.8,6.5-19.7l17.2-25.2C491.2,363,490.3,358.3,486.9,356
		L486.9,356z"/>
	<path class="st0" d="M501.5,276.9l-45.2-70.2V76.4c0-16.7-13.6-30.3-30.3-30.3H86c-16.7,0-30.3,13.6-30.3,30.3V134
		c0,4.1,3.4,7.5,7.5,7.5s7.5-3.4,7.5-7.5V76.4C70.7,67.9,77.6,61,86,61h339.9c8.5,0,15.3,6.9,15.3,15.3V303c0,2.1-0.4,4.2-1.3,6.1
		l-15.3-16.5V86.4c0-4.9-3.9-8.8-8.7-8.8h-50.9c-4.1,0-7.5,3.4-7.5,7.5s3.4,7.5,7.5,7.5h44.7v183.7l-25-27.1
		c-8.6-9.4-22.8-9.8-32-1.9H232.7c-4.1,0-7.5,3.4-7.5,7.5c0,4.1,3.4,7.5,7.5,7.5h112c-0.5,4.7,0.3,9.5,2.7,13.8l6,10.8H158.6l6-10.8
		c0.7-1.3,1.3-2.6,1.7-4l2.5,1.9c1.3,1,2.9,1.5,4.5,1.5c2.1,0,4.2-0.9,5.7-2.6l22.7-26.4c2.7-3.1,2.3-7.9-0.8-10.6
		c-3.1-2.7-7.9-2.3-10.6,0.8l-18.2,21.1l-9.5-7.1c-0.6-0.8-1.3-1.6-2.1-2.4c-9.3-9.1-24.3-8.8-33.2,0.9L110.8,267V92.6h224.3
		c4.1,0,7.5-3.4,7.5-7.5s-3.4-7.5-7.5-7.5H104.5c-4.8,0-8.7,4-8.7,8.8v196.9L72,309.1c-0.8-1.9-1.3-4-1.3-6.1V164
		c0-4.1-3.4-7.5-7.5-7.5s-7.5,3.4-7.5,7.5v42.8l-45.2,70.2c-14.3,22.2-13.9,50.6,1,72.4l28.9,42.3c4,5.8,6.2,12.6,6.5,19.7l1.8,47.4
		c0.2,4,3.5,7.3,7.8,7.2c4.1-0.2,7.4-3.6,7.2-7.8l-1.8-47.4c-0.4-9.9-3.5-19.4-9.1-27.6l-28.9-42.3c-11.5-16.8-11.8-38.8-0.7-55.9
		l32.6-50.6V303c0,6.4,2,12.5,5.6,17.6l-4.1,4.4c-2.8,3-2.6,7.8,0.4,10.6c3,2.8,7.8,2.6,10.6-0.4l70-75.9c3.1-3.3,8.4-3.6,11.7-0.3
		c2.6,2.6,3.2,6.6,1.4,9.8l-42.1,76c-3.1,5.6-2.5,12.4,1.6,17.3c8.2,9.9,10.6,23.7,6.4,35.8c-2.1,6-3.2,12.2-3.4,18.6l-0.8,34.8
		c-0.1,4.2,3.3,7.7,7.5,7.7c4.1,0,7.4-3.2,7.5-7.3l0.8-34.8c0.1-4.8,1-9.5,2.5-14c6-17.1,2.5-36.3-9-50.3c-0.1-0.2-0.1-0.4,0-0.5
		l10.3-18.7h246.4l10.3,18.7c0.1,0.2,0.1,0.4-0.1,0.5c-11.5,14-14.9,33.2-9,50.3c1.6,4.5,2.4,9.2,2.5,14l0.8,34.8
		c0.1,4,3.4,7.4,7.7,7.3c4.1-0.1,7.4-3.5,7.3-7.7l-0.8-34.8c-0.1-6.3-1.3-12.6-3.4-18.6c-4.2-12.1-1.8-25.9,6.4-35.8
		c4.1-4.9,4.7-11.7,1.6-17.3l-42.1-76c-1.8-3.2-1.2-7.2,1.4-9.8c3.3-3.3,8.6-3,11.7,0.3l70,75.9c2.8,3,7.6,3.2,10.6,0.4
		c3-2.8,3.2-7.6,0.4-10.6l-4.1-4.4c3.6-5.1,5.6-11.2,5.6-17.6v-68.5l32.6,50.6c9.5,14.7,10.7,33,3.3,48.8c-1.8,3.8-0.1,8.2,3.6,10
		c3.7,1.7,8.2,0.2,10-3.6C515.4,319.7,513.8,296,501.5,276.9L501.5,276.9z M141.1,318.3l9.1-16.5h211.5l9.1,16.5H141.1z"/>
	<path class="st0" d="M90.9,195.1v-10.8c0-4.1-3.4-7.5-7.5-7.5c-4.1,0-7.5,3.4-7.5,7.5v10.8c0,4.1,3.4,7.5,7.5,7.5
		C87.6,202.6,90.9,199.2,90.9,195.1z"/>
	<path class="st0" d="M200.8,116.6c-3.1-2.7-7.9-2.3-10.6,0.8l-18.2,21.1l-11-8.1c-3.3-2.5-8-1.8-10.5,1.6c-2.5,3.3-1.8,8,1.6,10.5
		l16.6,12.3c1.3,1,2.9,1.5,4.5,1.5c2.1,0,4.2-0.9,5.7-2.6l22.7-26.4C204.3,124,204,119.3,200.8,116.6z"/>
	<path class="st0" d="M373.9,128H232.7c-4.1,0-7.5,3.4-7.5,7.5s3.4,7.5,7.5,7.5h141.1c4.1,0,7.5-3.4,7.5-7.5S378,128,373.9,128z"/>
	<path class="st0" d="M373.9,187.6H232.7c-4.1,0-7.5,3.4-7.5,7.5s3.4,7.5,7.5,7.5h141.1c4.1,0,7.5-3.4,7.5-7.5
		S378,187.6,373.9,187.6z"/>
	<path class="st0" d="M193.1,176.5c-2.9-2.9-7.7-2.9-10.6,0l-8,8l-8-8c-2.9-2.9-7.7-2.9-10.6,0c-2.9,2.9-2.9,7.7,0,10.6l8,8l-8,8
		c-2.9,2.9-2.9,7.7,0,10.6c1.5,1.5,3.4,2.2,5.3,2.2c1.9,0,3.8-0.7,5.3-2.2l8-8l8,8c1.5,1.5,3.4,2.2,5.3,2.2s3.8-0.7,5.3-2.2
		c2.9-2.9,2.9-7.7,0-10.6l-8-8l8-8C196,184.2,196,179.4,193.1,176.5L193.1,176.5z"/>
</g>
</svg>
