<?xml version="1.0" encoding="UTF-8"?>
<svg width="141px" height="95px" viewBox="0 0 141 95" version="1.1" xmlns="http://www.w3.org/2000/svg" xmlns:xlink="http://www.w3.org/1999/xlink">
    <!-- Generator: sketchtool 63.1 (101010) - https://sketch.com -->
    <title>81500776-4612-48B8-9D9B-0DD8A3C9A463</title>
    <desc>Created with sketchtool.</desc>
    <defs>
        <rect id="path-1" x="0" y="0" width="148" height="130" rx="1"></rect>
        <polygon id="path-3" points="0.318561018 0.389589427 18.9728063 0.389589427 18.9728063 12.4104881 0.318561018 12.4104881"></polygon>
        <polygon id="path-5" points="0.127379703 0.0212727273 22.1383785 0.0212727273 22.1383785 22.5072234 0.127379703 22.5072234"></polygon>
    </defs>
    <g id="Onboarding-FTUE-01" stroke="none" stroke-width="1" fill="none" fill-rule="evenodd">
        <g id="User-Role-Selection" transform="translate(-109.000000, -396.000000)">
            <g id="Group-3-Copy" transform="translate(102.000000, 357.000000)">
                <g id="Group-160-Copy" transform="translate(0.000000, 1.000000)">
                    <g id="Group-3" transform="translate(4.000000, 3.000000)">
                        <mask id="mask-2" fill="white">
                            <use xlink:href="#path-1"></use>
                        </mask>
                        <g id="Mask"></g>
                        <g id="Group-337" mask="url(#mask-2)">
                            <g transform="translate(2.962565, 35.000000)">
                                <g id="Group-190" transform="translate(66.037435, 0.000000)">
                                    <path d="M39.9499538,30.5254678 C47.2121623,23.273926 55.4346944,26.8376969 59.7302181,30.7270361 C62.3038199,33.0579084 63.9433036,36.2873709 64.832108,39.6446573 C65.7209123,43.0019436 65.9059889,46.5045339 65.9311025,49.9776264 C65.9507567,52.790296 65.8290101,55.7477233 64.3838841,58.1594414 C63.0162829,60.4411507 60.6337631,61.9264194 58.1928268,62.9823313 C53.8296055,64.8696441 48.9919548,65.6486044 44.2574884,65.2252564" id="Fill-1" fill="#375A64"></path>
                                    <path d="M43.8552327,27.6805692 C43.8525583,27.6914943 43.9508291,27.7275471 44.1408192,27.7865427 C44.3662959,27.8526396 44.6414541,27.9340317 44.9755746,28.032904 C45.7005944,28.2426661 46.7542752,28.533274 48.0378004,28.9418731 C49.3185958,29.354296 50.8357871,29.8874414 52.4234056,30.6811507 C54.0033809,31.4770449 55.6630647,32.5498907 57.0743419,34.0253269 C58.4932624,35.4947542 59.4197372,37.2520581 59.9700534,38.9317938 C60.5307426,40.6137145 60.7846087,42.2044106 60.9494852,43.5389128 C61.1121779,44.8761463 61.1842431,45.9675648 61.2437515,46.7197586 C61.2715949,47.0671771 61.2950707,47.353415 61.3141789,47.5866661 C61.333833,47.7855031 61.3485736,47.8892916 61.3594926,47.8887475 C61.3698656,47.8881991 61.375871,47.7838643 61.3769629,47.5844811 C61.3731413,47.3495912 61.3687737,47.0617145 61.3638602,46.7137498 C61.3414763,45.9582784 61.3032599,44.8630361 61.1667727,43.5143313 C61.0286477,42.1683577 60.7960736,40.5579965 60.2402979,38.8416617 C59.697625,37.1302432 58.7525879,35.3161286 57.2981808,33.811741 C55.8536008,32.3013445 54.1584303,31.2181198 52.5506117,30.4249568 C50.9346038,29.6350714 49.3977584,29.1210449 48.1022223,28.7326573 C46.8045025,28.3486396 45.7409946,28.0902608 45.0056018,27.9160053 C44.6660217,27.8400758 44.3854042,27.7772564 44.1566517,27.7259084 C43.961748,27.686578 43.8580178,27.6701903 43.8552327,27.6805692" id="Fill-3" fill="#1A2E35"></path>
                                    <path d="M61.0830788,43.6446678 C61.0465002,43.6566855 61.0989113,43.9636811 61.3129232,44.4170731 C61.4199291,44.6421304 61.5689731,44.9026943 61.7666065,45.169267 C61.8588718,45.2959982 61.983894,45.4587824 62.1585976,45.5636634 C62.2448575,45.6171965 62.3425823,45.6647207 62.462145,45.6849322 C62.5773402,45.7084211 62.7482221,45.6783771 62.8503145,45.5674872 C62.9529528,45.4691612 62.9955368,45.3052846 62.9671475,45.178007 C62.9414879,45.0512758 62.8841633,44.9556811 62.823563,44.8748352 C62.7001786,44.7093198 62.5500427,44.604985 62.4310259,44.504474 C62.2093708,44.3296722 61.9866238,44.1532317 61.7573253,43.9718749 C61.367518,43.6752581 61.1136519,43.508104 61.0852626,43.5408793 C61.0574192,43.5731084 61.26215,43.7987119 61.6153787,44.1379366 C61.8293906,44.3367736 62.0379429,44.5296018 62.2454034,44.7218837 C62.3682418,44.8338661 62.4959938,44.9327383 62.578978,45.0545533 C62.6706974,45.1834696 62.695811,45.2949057 62.6292053,45.3506238 C62.5915348,45.4074344 62.4457666,45.3861304 62.3180146,45.3052846 C62.186441,45.2293551 62.0952675,45.1217427 61.9915373,44.9939189 C61.7922661,44.750289 61.6317572,44.5153991 61.5045511,44.3121921 C61.2523229,43.9046855 61.1262087,43.6288264 61.0830788,43.6446678" id="Fill-5" fill="#1A2E35"></path>
                                    <path d="M49.4701738,61.751126 C49.4658382,61.7915489 49.9086025,61.8904211 50.6379899,61.9871084 C51.3641015,62.0772405 52.3975823,62.1728352 53.5255121,61.9658044 C54.6567176,61.755496 55.5913817,61.2005004 56.1073031,60.6520599 C56.6341435,60.1047119 56.7700847,59.6393022 56.7411495,59.6311084 C56.693106,59.6037956 56.490559,60.0189498 55.9555294,60.4941921 C55.4308728,60.9721656 54.5415225,61.4610643 53.4681875,61.6609938 C52.3926687,61.8598308 51.3832097,61.8035665 50.657644,61.7686062 C49.9298945,61.7281833 49.4751193,61.7068793 49.4701738,61.751126" id="Fill-7" fill="#1A2E35"></path>
                                    <path d="M43.9949963,27.8790238 C44.0173802,27.8768388 44.019018,27.7053145 44.0212018,27.3988652 C44.0282992,27.0946009 44.0222937,26.6450326 44.1555052,26.1315524 C44.2761598,25.6224423 44.6555941,25.0576141 45.3243812,24.8746185 C45.9822493,24.679059 46.7847937,24.7948652 47.5556732,25.0537903 C48.3298283,25.3149004 49.0035289,25.7431648 49.4626717,26.2708476 C49.9316416,26.7925216 50.1483832,27.4125216 50.2106213,27.9363806 C50.3372814,29.019059 49.8404681,29.6024599 49.9043441,29.6215789 C49.9169009,29.6314115 50.0457448,29.5101427 50.1904212,29.2277286 C50.3318219,28.9469533 50.4704928,28.4891912 50.4290007,27.9167154 C50.3918762,27.3518872 50.1773184,26.6641515 49.6794133,26.0851207 C49.1929731,25.5011736 48.4728668,25.0357639 47.6561277,24.7609974 C46.8470319,24.4906009 45.9882547,24.3649621 45.2397591,24.602037 C44.8701519,24.7194819 44.5453125,24.9412617 44.3340304,25.2182132 C44.1178347,25.493526 44.0020936,25.7999753 43.9431312,26.0791119 C43.828482,26.6417551 43.871066,27.0973322 43.9010931,27.404874 C43.9360338,27.7129621 43.9747962,27.8806626 43.9949963,27.8790238" id="Fill-9" fill="#1A2E35"></path>
                                    <path d="M63.5084009,50.4510206 C63.5193199,50.452104 63.5362443,50.3554167 63.5591742,50.1702361 C63.5793743,49.9850555 63.614315,49.712474 63.6383367,49.359593 C63.6962073,48.6543771 63.7469805,47.630148 63.7295101,46.3633815 C63.6923856,43.8478749 63.3468001,40.2660775 61.71223,36.715963 C60.0683787,33.1647559 57.3479167,30.6650907 55.0980625,29.4977427 C53.9734083,28.899593 52.9896089,28.5669233 52.297892,28.4117868 C51.9566742,28.3156458 51.6793323,28.2932493 51.4964395,28.2571965 C51.3119088,28.2287912 51.21473,28.2195048 51.2130921,28.2298837 C51.1857947,28.3129145 52.7957972,28.4538485 54.9916025,29.6889322 C57.1775808,30.8868705 59.8172423,33.3614079 61.4310665,36.8470643 C63.0394311,40.3365445 63.4183194,43.8691789 63.5111307,46.3688441 C63.5564444,47.6274167 63.5389741,48.647822 63.518228,49.3530379 C63.497482,50.0582537 63.4849251,50.4493727 63.5084009,50.4510206" id="Fill-11" fill="#1A2E35"></path>
                                    <path d="M32.6207028,78.8109586 C32.6207028,78.8109586 36.9386104,93.5713286 40.1504261,98.8175665 C44.2363056,105.492263 59.2864711,115.915364 59.2864711,115.915364 L68.6047221,105.681267 C68.6047221,105.681267 52.5096109,88.276474 51.4346381,85.0491965 C50.3591193,81.8213727 47.6708683,67.8350467 47.6708683,67.8350467 L28.4081633,67.444474 L32.6207028,78.8109586 Z" id="Fill-53" fill="#1A2E35"></path>
                                    <path d="M39.6964699,69.8628018 C39.3590736,71.5988018 38.1721813,105.35193 34.2036808,118.820405 L21.8166527,118.235366 L19.9549679,67.4445286 L39.6964699,67.5335683 L39.6964699,69.8628018 Z" id="Fill-55" fill="#1A2E35"></path>
                                    <path d="M29.5734906,68.7499482 C29.5631176,68.7533022 29.5860474,68.8614608 29.6400963,69.0641216 C29.7061561,69.2995577 29.7880484,69.5907119 29.887957,69.9452317 C30.1243528,70.7515048 30.4453706,71.8445621 30.8362698,73.176333 C31.6442737,75.9016018 32.7345331,79.6751348 34.0628261,83.808104 C35.391665,87.9427119 36.7772826,91.6282978 37.9286882,94.2322978 C38.5002964,95.5356634 38.9905583,96.5784652 39.3585277,97.2842273 C39.5294096,97.6114344 39.6697184,97.8796458 39.7832757,98.0965093 C39.8831843,98.2805974 39.9405089,98.3745533 39.94979,98.370329 C39.9596171,98.365267 39.9214007,98.2614784 39.8389625,98.0686502 C39.7401458,97.845778 39.6167614,97.5693727 39.4671714,97.232333 C39.1335968,96.511822 38.6739081,95.4580952 38.1301433,94.1465357 C37.0333325,91.5272405 35.6842935,87.8411084 34.3576383,83.7130555 C33.0309832,79.5860952 31.9074209,75.8218485 31.045914,73.1118749 C30.6162525,71.756615 30.2619318,70.6613727 30.0026062,69.9091789 C29.8803137,69.5612141 29.7804051,69.2755225 29.6990588,69.0450026 C29.6264476,68.8488969 29.5838636,68.7467471 29.5734906,68.7499482" id="Fill-57" fill="#375A64"></path>
                                    <path d="M38.7442263,68.419267 C38.72621,68.4241833 38.7524155,68.5935225 38.8452268,68.8890467 C38.9364002,69.1845709 39.1105578,69.6019101 39.3982727,70.0776987 C39.9600539,71.025452 41.0896215,72.2064564 42.7176403,72.7860335 C44.3483888,73.3612405 45.9693103,73.1547559 47.0016991,72.7723771 C47.5247179,72.5833727 47.9227144,72.3686943 48.1793103,72.19717 C48.436998,72.0261921 48.5642041,71.9109322 48.5532851,71.8950907 C48.5232579,71.8448352 47.9663903,72.2507031 46.9334555,72.5642537 C45.9168992,72.8816282 44.3685889,73.0400423 42.8213706,72.494333 C41.27579,71.9437075 40.1724279,70.8457339 39.5822574,69.9591612 C38.9768004,69.064941 38.7993671,68.3990555 38.7442263,68.419267" id="Fill-59" fill="#375A64"></path>
                                    <g id="Group-71" transform="translate(64.967885, 78.114537)">
                                        <mask id="mask-4" fill="white">
                                            <use xlink:href="#path-3"></use>
                                        </mask>
                                        <g id="Clip-70"></g>
                                    </g>
                                    <polygon id="Fill-96" fill="#FFBF9D" points="67.4147725 66.3462819 67.1090413 72.6265815 70.3339597 76.5279383 74.9548688 74.6291542 71.8156643 70.2722203 72.0089301 66.8302643"></polygon>
                                    <path d="M70.3337959,76.5277744 L71.6216887,76.8364088 C72.0104042,76.9298185 72.4165899,76.779052 72.64971,76.4545762 L72.8992085,76.1071577 L73.212583,76.1748934 C73.574001,76.2519154 73.9425163,76.0836687 74.1210415,75.7602855 L74.3022964,75.4308934 L74.3164911,75.4287084 C74.7133958,75.3839154 74.9989269,75.0261181 74.954705,74.6289903 L72.9669061,74.3689727 L70.3337959,76.5277744 Z" id="Fill-98" fill="#FFBF9D"></path>
                                    <path d="M73.3445388,76.1852722 C73.352728,76.0984176 72.8657418,75.9831577 72.2712038,75.8476863 C71.6761198,75.7144 71.1874958,75.6089727 71.1574686,75.690911 C71.1279874,75.7690256 71.5860383,76.0110167 72.2029602,76.1497656 C72.8193362,76.289607 73.3368955,76.2688493 73.3445388,76.1852722" id="Fill-100" fill="#FF9A6C"></path>
                                    <path d="M74.3927055,75.417674 C74.4069002,75.3324581 74.111542,75.2106432 73.7430267,75.1057621 C73.3734195,75.0008811 73.0584071,74.949533 73.0261961,75.0292863 C72.9939852,75.1079471 73.2713271,75.293674 73.6584046,75.4034714 C74.0449363,75.513815 74.3785109,75.5007048 74.3927055,75.417674" id="Fill-102" fill="#FF9A6C"></path>
                                    <path d="M44.1525571,35.1259771 C44.1525571,35.1259771 69.2159662,45.7140476 72.9284167,70.4195454 L66.8874953,73.2939419 C66.8874953,73.2939419 59.1901658,58.7171137 48.0517221,54.5371665 L50.3059439,63.957889 C50.826233,66.1303471 49.1960304,68.2235982 46.9636465,68.2498185 L20.5746742,68.5617304 C20.5746742,68.5617304 18.1615813,67.8193692 18.1615813,64.6609198 C18.1615813,61.5030167 20.0178066,59.4600211 20.0178066,59.4600211 L20.3890516,39.2119683 C20.3890516,39.2119683 23.7308031,31.7823471 30.7855511,31.2246203 C37.8402992,30.6674396 44.1525571,35.1259771 44.1525571,35.1259771" id="Fill-104" fill="#00C2F6"></path>
                                    <path d="M44.4217643,45.5005709 C44.3873696,45.4776282 44.1362332,46.0440952 44.1908281,46.9863859 C44.2268607,47.9204828 44.4479699,49.2009057 44.9622535,50.5354079 C45.2193953,51.211126 45.6021052,51.7885181 45.9411393,52.2916194 C46.2861789,52.8001833 46.6323103,53.2366414 46.9522362,53.5775048 C47.5937258,54.2608705 48.1030958,54.5525709 48.1211122,54.5236194 C48.1522312,54.4831965 47.6985479,54.1346855 47.1160208,53.4327471 C46.8250301,53.0820511 46.5051042,52.6428617 46.178627,52.1342978 C45.8510578,51.6180863 45.4940074,51.0652758 45.2499684,50.4206943 C44.7504254,49.1271612 44.4987431,47.8751436 44.4092075,46.9721833 C44.3016556,46.0604828 44.4659862,45.5158661 44.4217643,45.5005709" id="Fill-106" fill="#1A2E35"></path>
                                    <path d="M20.763531,60.0494308 C20.7581675,60.0701885 20.9858281,60.1450256 21.4023869,60.2630167 C21.8183997,60.3848317 22.4293162,60.5279507 23.1898226,60.6748934 C24.7102895,60.9704176 26.8498622,61.2206026 29.2192792,61.1758097 C31.5892421,61.1261004 33.7173498,60.7906996 35.2247139,60.4350872 C35.9792149,60.2581004 36.584126,60.0909463 36.9946793,59.9527436 C37.4063246,59.8178185 37.6307095,59.7342414 37.6242976,59.71403 C37.6094175,59.6637744 36.6894941,59.9237921 35.1794002,60.2204088 C33.6703982,60.5192106 31.5597609,60.8163736 29.2132737,60.8660828 C26.8673325,60.9097833 24.7468681,60.6972899 23.2269471,60.4585762 C21.7059343,60.2215013 20.7761838,59.9986291 20.763531,60.0494308" id="Fill-110" fill="#1A2E35"></path>
                                    <path d="M48.5081351,54.5559031 C48.5605462,54.5695595 48.7669148,53.7785815 49.2440739,52.5571542 C49.7179573,51.3351806 50.5090368,49.6964141 51.6571667,48.0592863 C52.8102102,46.4259824 54.0866381,45.1286256 55.075897,44.2704581 C56.0651559,43.4095595 56.7394024,42.9485198 56.7088293,42.9042731 C56.6973644,42.8862467 56.5193851,42.9862115 56.2054647,43.1834097 C55.8899064,43.3762379 55.4531475,43.688696 54.9350422,44.1027577 C53.8988318,44.9270573 52.5749064,46.2216828 51.4038466,47.881207 C50.2371544,49.5434626 49.4651831,51.2264758 49.0387972,52.4806784 C48.8236934,53.108326 48.6768333,53.6245374 48.6014923,53.9872511 C48.5212379,54.3494185 48.4873891,54.5509868 48.5081351,54.5559031" id="Fill-114" fill="#FAFAFA"></path>
                                    <path d="M21.1470877,51.002074 C21.1396218,51.0217392 21.3792932,51.1255278 21.8198738,51.2959595 C22.2582705,51.4707612 22.9084953,51.6854396 23.7214128,51.9143207 C25.3461559,52.3753604 27.6571564,52.8183736 30.2405852,52.9030432 C32.8256519,52.9822502 35.1601282,52.6861797 36.8105309,52.3289286 C37.6365511,52.1519419 38.2987868,51.9787789 38.7475566,51.8323824 C39.1979642,51.6898097 39.4430951,51.6018626 39.4371975,51.5816511 C39.4223491,51.5286643 38.4199874,51.816541 36.7690388,52.113704 C35.119728,52.4135982 32.8081816,52.6719771 30.2504123,52.5938626 C27.6942809,52.5097392 25.4034805,52.1060564 23.7765536,51.7023736 C22.1479889,51.301422 21.1658273,50.9496335 21.1470877,51.002074" id="Fill-116" fill="#FAFAFA"></path>
                                    <path d="M23.3227611,43.5886767 C23.3162097,43.6088881 23.5143891,43.6908264 23.8785368,43.8230203 C24.2421386,43.9563066 24.7749844,44.1294696 25.438312,44.3277604 C26.7649671,44.7243419 28.6228303,45.1946678 30.7050783,45.5650291 C32.7878723,45.9332053 34.6948708,46.1304035 36.0766667,46.2139806 C36.7678377,46.2560423 37.327981,46.2762537 37.7150585,46.2757075 C38.1021361,46.2773463 38.3166939,46.2680599 38.3177882,46.2467559 C38.3194237,46.199778 37.4671979,46.1347736 36.0946831,45.9949322 C34.7221682,45.8561833 32.8310022,45.6256634 30.7591272,45.2602185 C28.6883441,44.8920423 26.8332107,44.4583154 25.4967285,44.1169057 C24.1597003,43.7760423 23.3369558,43.5438837 23.3227611,43.5886767" id="Fill-118" fill="#FAFAFA"></path>
                                    <path d="M56.0095783,59.4605128 C56.0183135,59.480178 56.1859197,59.4228211 56.4845536,59.2999137 C56.7848253,59.1824687 57.203022,58.9727066 57.7009271,58.6810062 C58.6972833,58.1019753 59.9819004,57.1137991 61.1114681,55.7497991 C62.2355763,54.3808828 62.961142,52.9311207 63.3411223,51.8418872 C63.5322043,51.2978167 63.6588644,50.8466097 63.7167349,50.5292352 C63.780065,50.2134996 63.8051786,50.0376053 63.7844326,50.032689 C63.7314755,50.0195789 63.5655072,50.7105921 63.1363916,51.7632264 C62.7105516,52.8153145 61.9718832,54.2142749 60.8723426,55.5526009 C59.7684345,56.8860106 58.5362285,57.8780106 57.585186,58.4952793 C56.6335976,59.1169181 55.9866485,59.4108035 56.0095783,59.4605128" id="Fill-120" fill="#FAFAFA"></path>
                                    <path d="M5.99664501,12.7113656 L5.99664501,12.7113656 L5.82630904,12.6048458 C4.37790736,11.6620088 2.66035301,10.5006696 1.83924629,9.78562115 C0.311682065,8.45439648 0.425785326,8.31182379 0.607040267,8.15559471 C1.09457238,7.73607048 3.38100519,10.392511 3.21230707,9.52888106 C3.04360894,8.66470485 0.0479888834,6.61351542 0.574829298,6.19562996 C1.26163266,5.65155947 3.60539007,8.47843172 3.82103977,8.70239648 C4.03013809,8.92035242 4.73714155,9.2153304 4.53186487,9.02359471 C4.23705262,8.74828194 0.8308792,5.17467841 1.50075815,4.63388546 C1.87145726,4.33399119 2.33387574,5.06761233 2.33387574,5.06761233 C2.33387574,5.06761233 4.96753187,8.06273128 5.27490094,7.79670485 C5.5877295,7.52685463 4.09892762,5.71437885 3.55461685,5.13971806 C3.01740341,4.57215859 3.0621712,4.07834361 3.50493552,4.04229075 C3.80684511,4.01770925 5.51348048,5.73732159 6.03868305,6.31853744 C6.56388562,6.89920705 7.97625469,8.51994714 7.91292465,7.13901322 C7.91183276,7.117163 7.91401655,7.09695154 7.91292465,7.07564758 C7.81410795,5.71711013 8.18753681,4.63770925 8.50800865,4.39899559 C8.82029125,4.16574449 9.24121764,4.45744493 9.22374728,4.84911013 C9.22593108,4.91302203 9.21992564,4.97802643 9.19317416,5.04521586 C9.18225519,5.07307489 9.17515786,5.11240529 9.16533078,5.14354185 C9.09053582,5.52810573 9.09435746,6.09675771 9.11291971,6.53813216 C9.13093602,6.95601762 9.2171959,7.36898678 9.37388315,7.75682819 C9.55513809,8.20475771 9.7282038,8.58440529 9.88216131,8.89904846" id="Fill-122" fill="#FFBF9D"></path>
                                    <path d="M9.8822705,8.37655507 C10.6247606,8.74855507 29.7537083,31.2247841 29.7537083,31.2247841 L20.8383673,39.7103172 C20.8383673,39.7103172 13.1355783,31.3165551 8.68500519,23.8880264 C6.71522258,20.6006608 6.29866378,17.6973128 6.87955311,13.9084846 L5.19366378,12.5040617 L9.8822705,8.37655507 Z" id="Fill-124" fill="#00C2F6"></path>
                                    <path d="M18.6416885,29.8277357 C18.5483313,29.8725286 19.7106559,31.74837 20.1883609,34.3709427 C20.6966391,36.9896916 20.2953668,39.1599648 20.3985511,39.167663 C20.4334918,39.1736211 20.580352,38.6448458 20.6644281,37.7626432 C20.750142,36.8831718 20.7419528,35.6469956 20.4930002,34.3141322 C20.240772,32.981815 19.7990996,31.8281233 19.3994652,31.0393304 C19.0009227,30.2488987 18.6717157,29.809163 18.6416885,29.8277357" id="Fill-126" fill="#1A2E35"></path>
                                    <path d="M13.1784899,30.5254678 C13.2238036,30.5418555 13.4940482,29.86723 13.9859479,28.804763 C14.4762097,27.7412035 15.2110566,26.2996352 16.1615531,24.789785 C17.1147794,23.2804811 18.1002167,21.9967806 18.8476203,21.0965515 C19.594478,20.19523 20.0874696,19.6604458 20.0530749,19.626578 C20.0377883,19.6118291 19.8974795,19.7281815 19.6567162,19.9532388 C19.413769,20.1766573 19.0796485,20.5175207 18.6821979,20.9534326 C17.8867507,21.8225251 16.8630971,23.0996705 15.8994978,24.6242696 C14.9391742,26.1499612 14.2278031,27.6237586 13.7850388,28.7162696 C13.5633836,29.2625251 13.3995991,29.7115471 13.3029662,30.0267366 C13.2036035,30.3413797 13.1582898,30.5183665 13.1784899,30.5254678" id="Fill-130" fill="#FAFAFA"></path>
                                    <path d="M9.03774259,24.4681498 C9.14638636,24.5145815 9.79333547,21.9318855 11.7085232,19.3633921 C13.623165,16.8036388 15.8053216,15.3047137 15.7217915,15.2123965 C15.7004995,15.1823524 15.1458157,15.5303172 14.324163,16.1972952 C13.5057861,16.8653656 12.4280835,17.8748458 11.4595707,19.1787577 C10.4932416,20.4854009 9.85393577,21.8226344 9.49197184,22.8173656 C9.31126285,23.3155507 9.18405682,23.7252423 9.11745109,24.0136652 C9.04647777,24.3004493 9.01699654,24.4615947 9.03774259,24.4681498" id="Fill-132" fill="#FAFAFA"></path>
                                    <path d="M29.5931994,34.4740758 C24.4700175,39.5220229 21.1648446,46.3797145 20.4076139,53.5340229 C20.3552028,54.0267454 20.0270877,54.7002784 19.5832315,54.4801374 C19.365398,54.3719789 19.3031598,54.0955736 19.269311,53.8546749 C18.2418357,46.5435912 20.2400077,38.8534062 24.6965862,32.9685956 C25.3069568,32.1628687 26.1095012,31.318904 27.1195062,31.351133 C27.9013046,31.376807 28.5804647,31.9536529 28.9506178,32.6419348 C29.320771,33.3313093 29.4397878,34.1233797 29.5533451,34.89797" id="Fill-134" fill="#1A2E35"></path>
                                    <path d="M29.2938557,35.6274396 L29.1939471,32.761237 C29.1939471,32.761237 23.3801403,31.5387172 22.2707727,26.0712458 C21.5686828,22.6101709 21.8394733,18.6804088 22.0540311,14.0050079 C22.2472969,9.79774802 25.9908666,6.59614449 30.2945795,6.96650573 L35.0514298,7.45048811 C41.3145524,7.88312247 42.2885247,14.5037392 42.2863446,15.7879859 L41.7021759,35.7858537 C41.7021759,35.7858537 39.565879,40.0488317 31.2057678,37.9899947 C30.1138706,37.721237 29.333164,36.7521797 29.2938557,35.6274396" id="Fill-136" fill="#FFBF9D"></path>
                                    <polygon id="Fill-138" fill="#375A64" points="21.9389998 12.9812705 21.9810378 12.9708916 21.9215294 12.734363 21.8800373 12.7441956"></polygon>
                                    <path d="M33.4598804,21.473304 C33.5696161,21.4192247 33.6051028,21.2684581 33.539043,21.1373568 C33.4729832,21.0057093 33.3299447,20.9428899 33.220209,20.9969692 C33.1104733,21.0515947 33.0744407,21.201815 33.1410464,21.3334626 C33.2071062,21.4645639 33.3495988,21.5279295 33.4598804,21.473304" id="Fill-140" fill="#FF9A6C"></path>
                                    <path d="M35.708752,21.525089 C35.8272228,21.5562256 35.9522451,21.4731947 35.9877317,21.3404546 C36.0226724,21.2077145 35.9549748,21.0749744 35.836504,21.0438379 C35.7174872,21.0132476 35.5930109,21.0957322 35.5575242,21.2284722 C35.5220375,21.3612123 35.5897352,21.4939524 35.708752,21.525089" id="Fill-142" fill="#FF9A6C"></path>
                                    <path d="M37.4260333,21.6034767 C37.5210284,21.6804987 37.6728021,21.6520934 37.7650674,21.5406573 C37.8573328,21.4286749 37.854603,21.2757233 37.759608,21.1992476 C37.6646129,21.1222256 37.5128392,21.1500846 37.4205739,21.262067 C37.3283085,21.3735031 37.3310383,21.5264546 37.4260333,21.6034767" id="Fill-144" fill="#FF9A6C"></path>
                                    <path d="M35.3379437,23.1334291 C35.4242036,23.0465744 35.4094629,22.8947154 35.3057327,22.7942044 C35.2025484,22.6936934 35.0485909,22.6833145 34.962877,22.7701692 C34.877163,22.8570238 34.8913577,23.0083366 34.9950879,23.1088476 C35.0988182,23.2093586 35.2522297,23.2202837 35.3379437,23.1334291" id="Fill-146" fill="#FF9A6C"></path>
                                    <path d="M36.403144,23.2497269 C36.4943174,23.3311189 36.6504587,23.3070837 36.7503673,23.1967401 C36.8508219,23.0863965 36.8579192,22.9307137 36.7667458,22.8498678 C36.6755724,22.7684758 36.519977,22.7919648 36.4195225,22.9023084 C36.3190679,23.0131982 36.3119706,23.1688811 36.403144,23.2497269" id="Fill-148" fill="#FF9A6C"></path>
                                    <path d="M23.5795208,21.6568458 C23.6433967,21.5514185 23.6248345,21.4219559 23.5784289,21.3290925 C23.5260178,21.2384141 23.428293,21.1515595 23.3043626,21.1450044 C23.1826161,21.1357181 23.0761561,21.330185 23.1858918,21.5361233 C23.2972653,21.7404229 23.5200124,21.7617269 23.5795208,21.6568458" id="Fill-150" fill="#FF9A6C"></path>
                                    <path d="M25.2799869,21.629096 C25.3973659,21.6646026 25.5223881,21.5979595 25.5595126,21.4799683 C25.5966371,21.3619771 25.5316692,21.2363383 25.4142903,21.2002855 C25.2969113,21.1642326 25.1718891,21.2308758 25.1347646,21.3494132 C25.0976401,21.4674044 25.162608,21.5930432 25.2799869,21.629096" id="Fill-152" fill="#FF9A6C"></path>
                                    <path d="M26.9367772,21.8051542 C27.0383236,21.8734361 27.1742648,21.8504934 27.2403246,21.7538062 C27.3063844,21.6576652 27.2769032,21.5243789 27.1753567,21.4560969 C27.0738103,21.387815 26.9378691,21.4107577 26.8718093,21.5068987 C26.8062955,21.6035859 26.8352307,21.7368722 26.9367772,21.8051542" id="Fill-154" fill="#FF9A6C"></path>
                                    <path d="M24.4984069,23.5175013 C24.5295259,23.3984176 24.4711094,23.2793339 24.3941307,23.2039507 C24.3133303,23.1318449 24.1894,23.0815894 24.071475,23.1192811 C23.954642,23.1536952 23.9224311,23.3678273 24.0889454,23.5246026 C24.2570976,23.6797392 24.4711094,23.6349463 24.4984069,23.5175013" id="Fill-156" fill="#FF9A6C"></path>
                                    <path d="M25.7875553,23.5271154 C25.8994748,23.5768247 26.0419674,23.5041727 26.1052974,23.363785 C26.1686275,23.2239436 26.1293192,23.0704458 26.0173997,23.0201903 C25.9054802,22.9704811 25.7629876,23.0436793 25.6996576,23.1835207 C25.6363276,23.3233621 25.6750899,23.4774062 25.7875553,23.5271154" id="Fill-158" fill="#FF9A6C"></path>
                                    <path d="M25.6347989,18.1189674 C25.5840257,18.5494167 25.9061354,18.947637 26.3543592,19.0088176 C26.8014911,19.0699982 27.206039,18.772289 27.2573582,18.3418396 C27.3081314,17.9113903 26.9860217,17.51317 26.5388898,17.4514432 C26.090666,17.3897163 25.6861181,17.6885181 25.6347989,18.1189674" id="Fill-160" fill="#1A2E35"></path>
                                    <path d="M24.496769,17.175311 C24.5890343,17.2905709 25.2463565,16.8836106 26.1247878,16.9589938 C27.0037651,17.021267 27.6114059,17.5276458 27.7156821,17.4276811 C27.7664553,17.3839806 27.6791035,17.1829586 27.4154103,16.95517 C27.1560847,16.728474 26.7007636,16.4908529 26.1526312,16.4476987 C25.6050447,16.405637 25.1278856,16.5689674 24.8456302,16.7536018 C24.5584612,16.9382361 24.4509093,17.1234167 24.496769,17.175311" id="Fill-162" fill="#1A2E35"></path>
                                    <path d="M34.6960173,19.06317 C34.6474279,19.475593 34.9558888,19.8568793 35.3855504,19.9158749 C35.8141201,19.9743242 36.2017436,19.6891789 36.250879,19.2767559 C36.3000143,18.864333 35.9910074,18.4825004 35.5618918,18.4235048 C35.1327762,18.3645093 34.7451527,18.6507471 34.6960173,19.06317" id="Fill-164" fill="#1A2E35"></path>
                                    <path d="M33.9290687,18.3585004 C34.0180583,18.4682978 34.648083,18.0782714 35.4893898,18.1503771 C36.3317885,18.2104652 36.9143157,18.6955401 37.0142243,18.5993991 C37.0628137,18.5573374 36.9798295,18.3656018 36.7265094,18.1465533 C36.4770109,17.9296899 36.0413439,17.7024476 35.5161413,17.6609322 C34.9914847,17.619963 34.5339797,17.7772846 34.2637352,17.9537251 C33.989123,18.1312581 33.8853928,18.3087912 33.9290687,18.3585004" id="Fill-166" fill="#1A2E35"></path>
                                    <path d="M30.8519931,26.8964194 C30.7690089,26.7467454 29.800496,27.3558203 28.5912199,26.9608775 C27.3808518,26.5697586 26.8381789,25.4696 26.698416,25.5477145 C26.6290805,25.572296 26.6552861,25.8962256 26.9184333,26.3386925 C27.1733913,26.7751507 27.7040534,27.3121198 28.4438137,27.5535648 C29.1835741,27.7928247 29.8829343,27.6551683 30.300039,27.4372123 C30.7275168,27.2187101 30.8989447,26.9592388 30.8519931,26.8964194" id="Fill-168" fill="#1A2E35"></path>
                                    <path d="M33.6198434,16.4231172 C33.6995519,16.7170026 34.7597841,16.6689322 35.9794333,16.9196634 C37.204542,17.1458132 38.1681413,17.5893727 38.3526719,17.346289 C38.4356561,17.2299366 38.2849743,16.9469762 37.906086,16.6372493 C37.5310193,16.3275225 36.917373,16.012333 36.184164,15.8686678 C35.450955,15.7266414 34.7641517,15.787822 34.3006413,15.9336722 C33.8327633,16.0778837 33.5865405,16.283822 33.6198434,16.4231172" id="Fill-170" fill="#1A2E35"></path>
                                    <path d="M25.0501971,14.854763 C25.2150736,15.1082256 25.9592016,14.9208599 26.8299896,14.980948 C27.7029615,15.0109921 28.4236136,15.2748335 28.6136038,15.0393974 C28.6982258,14.9241374 28.6015929,14.6755912 28.2985914,14.4226749 C27.9999575,14.1713974 27.484582,13.9436088 26.8851304,13.911926 C26.2862248,13.8813357 25.7501033,14.0544987 25.4274476,14.2740934 C25.0993325,14.4942344 24.9781319,14.7313093 25.0501971,14.854763" id="Fill-172" fill="#1A2E35"></path>
                                    <path d="M29.9589303,23.7842379 C29.9660277,23.7421762 29.5996961,23.6312863 29.0067959,23.4859824 C28.8735845,23.4504758 28.6633943,23.4111454 28.5542045,23.3723612 C28.5192638,23.350511 28.4996097,23.3051718 28.506707,23.2642026 C28.5056151,23.2450837 28.5782263,23.1221762 28.6186265,23.0435154 C28.8217194,22.6687841 29.0302717,22.2847665 29.2497431,21.8821762 C30.1549259,20.2341233 30.7117935,18.7914626 30.6047875,18.7537709 C30.5627495,18.7401145 30.4027866,19.0820705 30.1117959,19.6217709 C29.7520158,20.2909339 29.3818626,20.9803084 28.9762228,21.7357797 C28.7556596,22.1498414 28.5465613,22.5447841 28.3653063,22.9124141 C28.3232683,23.0189339 28.2708572,23.0604493 28.2364625,23.2325198 C28.220084,23.3843789 28.3041601,23.5313216 28.4280904,23.596326 C28.6601186,23.673348 28.7911462,23.6657004 28.9560227,23.6995683 C29.5707609,23.7918855 29.951833,23.8262996 29.9589303,23.7842379" id="Fill-174" fill="#1A2E35"></path>
                                    <path d="M29.1938379,32.7766414 C29.1938379,32.7766414 35.567788,32.7165533 37.1450336,30.8811348 C37.1450336,30.8811348 36.5002683,34.3198132 29.2686329,34.4356194 L29.1938379,32.7766414 Z" id="Fill-176" fill="#FF9A6C"></path>
                                    <path d="M41.8914563,19.493674 C42.669979,19.2959295 43.540767,19.5996476 44.0643318,20.2092687 C44.5878965,20.8188899 44.7609622,21.6972687 44.5551396,22.4740441 C44.348771,23.2508194 43.7831682,23.9139736 43.0712512,24.2854273 C42.3849938,24.6437709 41.4765353,24.7125991 40.8841811,24.2144141" id="Fill-178" fill="#FFBF9D"></path>
                                    <path d="M42.0028844,23.0192617 C41.9908735,23.0531295 42.1868691,23.1618344 42.5231734,23.0930062 C42.6864121,23.0558608 42.8791319,22.9711912 43.0451003,22.8089533 C43.2132525,22.6478079 43.3339071,22.4080018 43.366664,22.1436141 C43.3977831,21.8797727 43.3371828,21.6181163 43.2127065,21.4214643 C43.0898681,21.2242661 42.9228078,21.095896 42.7726719,21.0216053 C42.4625731,20.8741163 42.2463775,20.9331119 42.2501991,20.9691648 C42.2458315,21.016689 42.4363676,21.044548 42.6602065,21.2095172 C42.8840455,21.3679313 43.1149817,21.6989621 43.059295,22.107015 C43.016165,22.5167066 42.7131635,22.782733 42.4582055,22.8832441 C42.2021556,22.9903101 42.0105277,22.9722837 42.0028844,23.0192617" id="Fill-180" fill="#FF9A6C"></path>
                                    <path d="M37.909853,9.83817093 C38.0758214,10.0036863 33.7196974,14.4321797 29.1577507,13.139193 C30.0279928,13.1960035 31.885856,12.5732722 32.8691094,11.6648493 C30.4800383,12.7491665 27.0149024,13.2391577 25.5719602,12.7278626 C26.3062611,12.3345586 28.1122591,11.4758449 28.3333683,10.5941885 C27.3779583,11.4681974 24.5706905,13.239704 22.1646949,13.7810432 C20.7179311,14.1066115 18.3960116,13.6504881 17.4733584,12.7781181 C20.4405892,11.8959154 20.8915427,11.2955806 21.249685,10.2118097 C21.7568713,8.67847048 22.1242947,5.67734273 23.4875284,4.15274361 C24.586523,2.92421498 27.6536623,0.90962467 30.8692997,0.461695154 C34.1253372,0.0083030837 37.6385166,1.24010925 38.4219528,1.62904317 C39.1458807,1.98793304 39.9233115,2.75378326 40.2186697,3.52400352 C40.3333189,3.82335154 40.7291317,6.2044793 40.3764489,6.3088141 C41.8188451,5.88054978 42.4805348,6.53769515 43.3999123,7.61217974 C45.6716045,10.2669815 44.6381238,17.6386996 42.4117453,19.1693075 C41.5267626,19.7778361 41.8161154,21.5444264 40.8918244,21.3947524 C41.0577927,20.7217656 37.6772789,17.4824705 37.909853,9.83817093" id="Fill-182" fill="#1A2E35"></path>
                                    <path d="M39.8891897,6.80607048 C40.7905509,6.10467841 41.0564279,3.63232599 40.6584313,2.70205286 C41.5423221,3.22372687 41.7519664,4.25068722 41.5985548,5.26672247 C41.448419,6.26746256 41.0072925,6.61105727 40.077542,6.88637004 L39.8891897,6.80607048 Z" id="Fill-184" fill="#1A2E35"></path>
                                    <path d="M38.2523812,14.2018238 C38.6318155,15.0266696 39.2443698,15.7870573 40.2298071,15.8274802 C41.1617414,15.8646256 42.313147,15.2424405 43.2865734,14.4427225 C43.747354,14.0647137 44.1366154,13.1661233 44.6771045,12.3188811 C44.756267,14.7349692 43.8549059,18.4156388 42.4119637,19.1694714 C41.4598293,19.6671101 41.8157878,21.5440441 40.8914968,21.3949163 C41.0241623,20.8590396 38.9053357,18.6893128 38.1568402,13.9625639 C38.1852295,14.0434097 38.2163486,14.123163 38.2523812,14.2018238" id="Fill-186" fill="#1A2E35"></path>
                                    <path d="M48.3361613,37.0709744 C45.0080585,38.6310802 43.0808599,42.4477674 43.164936,46.124067 C43.2495581,49.8009128 45.0943184,53.2750978 47.628066,55.9391859 C48.1188738,56.4553974 48.647898,56.9628687 48.9394345,57.6129128 C49.2304251,58.2640493 49.22169,59.1112916 48.7095902,59.6067454 C47.9523594,60.3398203 46.6912181,59.9028159 45.7991381,59.3423577 C41.9987898,56.9574062 39.2788738,52.9151154 38.500897,48.4942696 C37.7234662,44.0734238 38.8994395,39.3444899 41.6575719,35.8047542 C42.2046124,35.1022696 42.8602967,34.4139877 43.7207117,34.1883841 C44.7279869,33.9239965 45.8144247,34.3691947 46.5809365,35.0744106 C47.3469024,35.7796264 47.8426238,36.1538115 48.3361613,37.0709744" id="Fill-188" fill="#1A2E35"></path>
                                </g>
                                <g id="Group-336" transform="translate(0.037435, 9.000000)">
                                    <path d="M76.4450083,27.3656727 L76.4450083,27.3656727 L76.5316889,27.1714909 C77.2476264,25.4887636 78.0710917,23.4547636 78.3689875,22.3425818 C78.9241819,20.2731273 78.7382028,20.2158545 78.4852931,20.1864 C77.8061125,20.1067636 77.3710639,23.7864 77.0056889,22.9300364 C76.6408625,22.0736727 78.0612167,18.5042182 77.3480222,18.4502182 C76.4192236,18.3798545 76.0346472,22.2427636 75.9781403,22.5667636 C75.9227306,22.8814909 75.4756125,23.5584 75.5425431,23.2687636 C75.63855,22.8536727 76.5146819,17.7073091 75.6028903,17.6298545 C75.0970708,17.5867636 75.1266958,18.5031273 75.1266958,18.5031273 C75.1266958,18.5031273 74.5868625,22.6851273 74.1578486,22.6344 C73.7217028,22.5820364 73.9554111,20.1144 74.0931125,19.2885818 C74.2291681,18.4731273 73.8961611,18.0673091 73.4847028,18.2980364 C73.2038139,18.4551273 72.7221333,20.9713091 72.6052792,21.7911273 C72.4878764,22.6104 72.2064389,24.8658545 71.4405778,23.6189455 C71.4285083,23.5993091 71.4153417,23.5824 71.4032722,23.5633091 C70.6823972,22.3147636 69.7113556,21.5904 69.2867306,21.5713091 C68.8730778,21.5522182 68.6750292,22.0562182 68.92355,22.3894909 C68.9592097,22.4456727 69.0036472,22.4996727 69.0667375,22.5427636 C69.0930708,22.5602182 69.1226958,22.5907636 69.1501264,22.6125818 C69.4441819,22.9044 69.7799319,23.4051273 70.0257097,23.8033091 C70.2588694,24.1796727 70.4283903,24.5920364 70.5205569,25.0245818 C70.6275361,25.5242182 70.70105,25.9594909 70.7520708,26.3260364" id="Fill-191" fill="#FFBF9D"></path>
                                    <path d="M33.5477889,32.0062909 C28.0161431,30.7626545 22.0878514,33.5504727 18.5866153,37.9866545 C15.0853792,42.4233818 13.7292125,48.2221091 13.6375944,53.8604727 C13.5728583,57.8624727 14.1812681,62.0837455 16.6401431,65.2528364 C19.5768583,69.0388364 24.5258792,70.5884727 29.2044347,71.6924727 C34.4540944,72.9306545 39.9840944,73.8688364 45.2024833,72.5046545 C50.4203236,71.1410182 55.2272542,66.8946545 55.6046986,61.5432" id="Fill-193" fill="#375A64"></path>
                                    <polygon id="Fill-195" fill="#ECECEC" points="24.4804542 57.9872727 26.9503014 59.7632727 20.4223778 73.4318182 17.86585 71.9438182"></polygon>
                                    <path d="M6.37897569,50.7547091 L24.9401354,57.7828909 C24.9401354,57.7828909 17.7747257,72.6219818 17.4175799,72.6219818 C17.4175799,72.6219818 0.559309028,64.7407091 0.000264103235,64.5416182 C-0.00905208333,63.5592545 6.37897569,50.7547091 6.37897569,50.7547091" id="Fill-197" fill="#1A2E35"></path>
                                    <polygon id="Fill-199" fill="#1A2E35" points="17.8660146 71.9438182 20.3676813 73.2310909 26.950466 59.7632727 27.2670146 59.7632727 20.6447299 74.2063636 17.2735146 72.5541818"></polygon>
                                    <path d="M69.1959903,25.5316909 L66.2532403,37.4067818 L54.1239972,30.7566 L54.1349694,30.8596909 C52.2806639,29.8784182 49.7543097,28.9806 46.6848306,28.9795091 C39.1584347,28.9756909 32.9618722,30.7566 32.9618722,30.7566 C32.9618722,30.7566 20.0426292,34.9146 5.56917083,61.9980545 L13.1597542,66.6584182 C13.1597542,66.6584182 24.7782403,49.3506 29.0875806,47.3160545 L26.5063653,62.0596909 C25.9533653,64.3555091 27.6869764,66.5673273 30.0613653,66.5951455 L57.8764972,65.7458727 C57.8764972,65.7458727 59.0686292,66.1020545 59.0686292,62.7649636 C59.0686292,59.4273273 58.7208097,57.3055091 58.7208097,57.3055091 L58.2352889,46.5889636 C60.1044069,47.3662364 62.6433792,48.4293273 64.6052125,49.2824182 C68.1366222,50.8167818 71.5506292,50.4164182 74.0221222,47.0029636 C76.7948028,43.1744182 78.7308514,25.5316909 78.7308514,25.5316909 L69.1959903,25.5316909 Z" id="Fill-201" fill="#FF4F5B"></path>
                                    <path d="M34.9921722,2.87721818 C33.9229292,1.5474 32.0373528,1.00085455 30.3597,1.34394545 C28.6825958,1.68703636 27.2342625,2.8314 26.3147903,4.26758182 C25.3947694,5.70376364 24.96795,7.41049091 24.8571306,9.10958182 C24.7304014,11.0574 24.9152833,13.2632182 23.5733806,14.6874 C22.08445,16.2681273 19.3523667,16.1252182 17.8727625,17.7141273 C16.9170819,18.7406727 16.7409778,20.4054 17.4613042,21.6075818 C18.1816306,22.8092182 19.7380403,23.4479455 21.1013389,23.1004909 C20.3250542,23.7523091 19.625575,24.5263091 19.2289292,25.4568545 C18.8317347,26.3868545 18.7680958,27.4903091 19.2234431,28.3935818 C19.8280125,29.5924909 21.2083181,30.2181273 22.5430889,30.4074 C25.2971167,30.7968545 28.2206653,29.5974 29.8977694,27.3915818 C30.6104153,28.5054 32.2364986,28.8152182 33.4390542,28.2566727 C34.6421583,27.6981273 35.4167972,26.4474 35.6658667,25.1503091 C35.9138389,23.8537636 35.7009778,22.5114 35.3580958,21.2355818 C35.0152139,19.9603091 34.5434083,18.7199455 34.260325,17.4299455 C33.3891306,13.4595818 34.3607208,9.3294 35.5885125,5.45394545" id="Fill-245" fill="#1A2E35"></path>
                                    <g id="Group-249" transform="translate(31.270833, 0.000000)">
                                        <mask id="mask-6" fill="white">
                                            <use xlink:href="#path-5"></use>
                                        </mask>
                                        <g id="Clip-248"></g>
                                        <path d="M22.1383785,3.82538182 C20.3894063,1.41447273 17.2935937,0.306654545 14.312441,0.0726545455 C12.3111076,-0.0849818182 10.2505243,0.0999272727 8.40389931,0.882654545 C6.36635764,1.7472 4.68651042,3.29901818 3.34021875,5.04774545 C1.79917014,7.05065455 0.632822917,9.38192727 0.25428125,11.8752 C-0.124260417,14.3684727 0.33328125,17.0297455 1.77228819,19.1062909 C3.21074653,21.1828364 5.68114236,22.5906545 8.21572569,22.5033818" id="Fill-247" fill="#1A2E35" mask="url(#mask-6)"></path>
                                    </g>
                                    <path d="M48.9407743,29.8841455 L49.0351354,27.1983273 C49.0351354,27.1983273 54.5174063,26.0528727 55.5636076,20.9288727 C56.2263299,17.6856 55.9706771,14.0032364 55.7682396,9.62269091 C55.5861007,5.6796 52.0557882,2.6796 47.9971632,3.02650909 L43.5111701,3.47978182 C37.6048229,3.88505455 36.6864479,10.0896 36.6886384,11.2928727 L37.2394479,30.0325091 C37.2394479,30.0325091 38.8496215,37.3306909 46.5888785,34.8908727 C48.5556493,34.2706909 48.9040174,30.9379636 48.9407743,29.8841455" id="Fill-250" fill="#FFBF9D"></path>
                                    <polygon id="Fill-252" fill="#375A64" points="55.8766451 8.66252727 55.8371451 8.65325455 55.8931035 8.43125455 55.9326035 8.44052727"></polygon>
                                    <path d="M45.0121153,16.6206545 C44.9084278,16.5693818 44.8749625,16.4286545 44.9375042,16.3053818 C45.0000458,16.1821091 45.1344556,16.1232 45.2381431,16.1744727 C45.3418306,16.2246545 45.3752958,16.3659273 45.3127542,16.4892 C45.2507611,16.6124727 45.1158028,16.6713818 45.0121153,16.6206545" id="Fill-254" fill="#FF9A6C"></path>
                                    <path d="M42.8915688,16.6686 C42.7796521,16.6980545 42.6617007,16.6200545 42.628784,16.4962364 C42.5953188,16.3713273 42.6589576,16.2469636 42.7708743,16.2180545 C42.882791,16.1891455 43.0007424,16.2666 43.0342076,16.3909636 C43.0676729,16.5153273 43.0034854,16.6396909 42.8915688,16.6686" id="Fill-256" fill="#FF9A6C"></path>
                                    <path d="M41.2720139,16.7420727 C41.1820417,16.8146182 41.0394028,16.7878909 40.9521736,16.6837091 C40.8654931,16.5784364 40.8676875,16.4355273 40.9576597,16.3635273 C41.0470833,16.2915273 41.1902708,16.3177091 41.2769514,16.4224364 C41.3636319,16.5266182 41.3614375,16.6700727 41.2720139,16.7420727" id="Fill-258" fill="#FF9A6C"></path>
                                    <path d="M43.2409243,18.1760182 C43.1602785,18.0947455 43.1734451,17.9523818 43.2710979,17.8585636 C43.3687507,17.7642 43.513584,17.7543818 43.5947785,17.8356545 C43.6754243,17.9169273 43.6622576,18.0592909 43.5646049,18.1531091 C43.4669521,18.2474727 43.3215701,18.2572909 43.2409243,18.1760182" id="Fill-260" fill="#FF9A6C"></path>
                                    <path d="M42.2363625,18.2852182 C42.1502306,18.3615818 42.0037514,18.3392182 41.9088417,18.2355818 C41.8144806,18.1319455 41.8073486,17.9863091 41.8934806,17.9104909 C41.9796125,17.8341273 42.1260917,17.8564909 42.2210014,17.9595818 C42.3159111,18.0637636 42.3224944,18.2088545 42.2363625,18.2852182" id="Fill-262" fill="#FF9A6C"></path>
                                    <path d="M54.3296715,16.7921455 C54.2698729,16.6934182 54.2868799,16.5728727 54.3307688,16.4856 C54.3801438,16.4005091 54.4723104,16.3192364 54.5891646,16.3126909 C54.7038243,16.3034182 54.8042201,16.4861455 54.7010813,16.6792364 C54.5957479,16.8712364 54.3861785,16.8914182 54.3296715,16.7921455" id="Fill-264" fill="#FF9A6C"></path>
                                    <path d="M52.7261361,16.7660727 C52.6153167,16.7998909 52.4973653,16.7371636 52.4628028,16.6264364 C52.4276917,16.5157091 52.4885875,16.3984364 52.5994069,16.3651636 C52.7102264,16.3308 52.8281778,16.3929818 52.8632889,16.5048 C52.8978514,16.6155273 52.8369556,16.7322545 52.7261361,16.7660727" id="Fill-266" fill="#FF9A6C"></path>
                                    <path d="M51.1636368,16.9311818 C51.0676299,16.995 50.9398035,16.9737273 50.8778104,16.8831818 C50.8152688,16.7931818 50.8426993,16.6682727 50.9387063,16.6044545 C51.0347132,16.5406364 51.1625396,16.5619091 51.2250812,16.6519091 C51.2870743,16.7424545 51.2596437,16.8673636 51.1636368,16.9311818" id="Fill-268" fill="#FF9A6C"></path>
                                    <path d="M53.4633597,18.5355818 C53.4342833,18.4243091 53.4891444,18.3130364 53.5615611,18.2421273 C53.6378181,18.1750364 53.7546722,18.1275818 53.8660403,18.1624909 C53.9763111,18.1946727 54.0064847,18.3954 53.8490333,18.5426727 C53.6910333,18.6877636 53.4891444,18.6457636 53.4633597,18.5355818" id="Fill-270" fill="#FF9A6C"></path>
                                    <path d="M52.2476924,18.5451818 C52.1418104,18.5915455 52.0079493,18.5233636 51.9481507,18.3924545 C51.8878035,18.261 51.925109,18.117 52.0304424,18.0706364 C52.1363243,18.0237273 52.270734,18.0919091 52.3305326,18.2233636 C52.3903313,18.3542727 52.3530257,18.4982727 52.2476924,18.5451818" id="Fill-272" fill="#FF9A6C"></path>
                                    <path d="M53.378709,13.2259091 C53.4313757,13.6682727 53.0983688,14.0768182 52.635341,14.1395455 C52.1734104,14.2028182 51.7553688,13.8962727 51.7021535,13.455 C51.6500354,13.0126364 51.9824938,12.6035455 52.4444243,12.5408182 C52.9080007,12.4775455 53.3260424,12.7840909 53.378709,13.2259091" id="Fill-274" fill="#1A2E35"></path>
                                    <path d="M53.4590806,12.5600727 C53.3636222,12.6778909 52.6849903,12.2600727 51.7770389,12.3375273 C50.8690875,12.4018909 50.2414764,12.9211636 50.1334,12.8191636 C50.0812819,12.7738909 50.1712542,12.5677091 50.4439139,12.3337091 C50.7121847,12.1008 51.1823444,11.8569818 51.7485111,11.8128 C52.3141292,11.7697091 52.8073306,11.9371636 53.0986431,12.1264364 C53.3954417,12.3168 53.5062611,12.5066182 53.4590806,12.5600727" id="Fill-276" fill="#1A2E35"></path>
                                    <path d="M45.3051833,14.3360182 C45.35785,14.7783818 45.0248431,15.1869273 44.5618153,15.2502 C44.0998847,15.3129273 43.6818431,15.0063818 43.6291764,14.5651091 C43.5765097,14.1232909 43.9095167,13.7136545 44.3714472,13.6509273 C44.834475,13.5876545 45.2525167,13.8942 45.3051833,14.3360182" id="Fill-278" fill="#1A2E35"></path>
                                    <path d="M45.3032632,13.5812182 C45.2072563,13.6995818 44.5280757,13.2817636 43.6206729,13.3592182 C42.7127215,13.4230364 42.0851104,13.9423091 41.9775826,13.8403091 C41.924916,13.7950364 42.013791,13.5894 42.2875479,13.3548545 C42.5558188,13.1219455 43.0259785,12.8786727 43.5921451,12.8339455 C44.1577632,12.7908545 44.6509646,12.9583091 44.9422771,13.1481273 C45.2385271,13.3379455 45.3498951,13.5277636 45.3032632,13.5812182" id="Fill-280" fill="#1A2E35"></path>
                                    <path d="M45.9062965,18.7864909 C46.066491,18.7641273 46.1575604,19.8326727 47.1412201,20.5155818 C48.123234,21.2012182 49.258859,20.9863091 49.2797062,21.1352182 C49.3005535,21.2012182 49.0421576,21.3643091 48.5593799,21.4166727 C48.0864771,21.4723091 47.3809632,21.3774 46.7791368,20.9595818 C46.1789562,20.5412182 45.8859979,19.9401273 45.812484,19.5043091 C45.7345812,19.0614 45.832234,18.7864909 45.9062965,18.7864909" id="Fill-282" fill="#1A2E35"></path>
                                    <path d="M44.8613021,11.8878545 C44.7861424,12.1638545 43.7865729,12.1185818 42.6361354,12.3536727 C41.4807604,12.5653091 40.5722604,12.9809455 40.3978021,12.7534909 C40.3198993,12.6444 40.4619896,12.3782182 40.8191354,12.0880364 C41.1729896,11.7984 41.7517743,11.5033091 42.4430243,11.3685818 C43.1342743,11.2354909 43.782184,11.2922182 44.2199757,11.4285818 C44.6605104,11.5644 44.8925729,11.7574909 44.8613021,11.8878545" id="Fill-284" fill="#1A2E35"></path>
                                    <path d="M52.9428375,10.4182364 C52.7870319,10.6560545 52.0859069,10.4798727 51.2640875,10.5371455 C50.4406222,10.5649636 49.7614417,10.8120545 49.5820458,10.5911455 C49.5024972,10.4831455 49.5935667,10.2502364 49.8793931,10.0135091 C50.1608306,9.77787273 50.6469,9.5646 51.2119694,9.53514545 C51.7770389,9.50623636 52.2823097,9.66878182 52.5873375,9.87441818 C52.8962056,10.0800545 53.0108653,10.3026 52.9428375,10.4182364" id="Fill-286" fill="#1A2E35"></path>
                                    <path d="M48.3136569,18.7859455 C48.3070736,18.7477636 48.6526986,18.6435818 49.2117333,18.5088545 C49.3384625,18.4755818 49.5354139,18.4390364 49.63965,18.4024909 C49.6736639,18.3812182 49.6928653,18.3381273 49.6857333,18.2977636 C49.6862819,18.2786727 49.6182542,18.1641273 49.5804,18.0904909 C49.3889347,17.7403091 49.1919833,17.3797636 48.9857056,17.0017636 C48.1315181,15.4575818 47.6048514,14.1070364 47.7046986,14.0721273 C47.7431014,14.0590364 47.8934208,14.3803091 48.1677264,14.8864909 C48.5045736,15.5094 48.8540389,16.1574 49.2375181,16.8675818 C49.4454417,17.2559455 49.6429417,17.6263091 49.8141083,17.9704909 C49.8536083,18.0697636 49.9029833,18.1095818 49.9353514,18.2694 C49.9501639,18.4106727 49.8722611,18.5475818 49.7559556,18.6075818 C49.5387056,18.6795818 49.4141708,18.6730364 49.2589139,18.7046727 C48.6795806,18.7914 48.3202403,18.8246727 48.3136569,18.7859455" id="Fill-288" fill="#1A2E35"></path>
                                    <path d="M49.0350806,27.2127818 C49.0350806,27.2127818 43.0244972,27.1560545 41.5372125,25.4362364 C41.5372125,25.4362364 42.1450736,28.6587818 48.9643097,28.7673273 L49.0350806,27.2127818 Z" id="Fill-290" fill="#FF9A6C"></path>
                                    <path d="M36.814,14.4766364 C36.0530764,14.2846364 35.2021806,14.5797273 34.690875,15.171 C34.1790208,15.7628182 34.0100486,16.6164545 34.2119375,17.3702727 C34.4132778,18.1240909 34.9657292,18.7677273 35.6613681,19.1288182 C36.3317708,19.4762727 37.218875,19.5428182 37.7976597,19.059" id="Fill-292" fill="#FFBF9D"></path>
                                    <path d="M36.7052653,17.8995818 C36.7167861,17.9306727 36.5247722,18.0332182 36.1988972,17.9650364 C36.0403486,17.9290364 35.8532722,17.8466727 35.6925292,17.6901273 C35.5295917,17.5346727 35.4127375,17.3028545 35.3809181,17.0486727 C35.3507444,16.7944909 35.4094458,16.5414 35.5295917,16.3521273 C35.6486403,16.1617636 35.8104806,16.0374 35.9564111,15.9654 C36.25705,15.8214 36.4671681,15.8764909 36.4638764,15.9092182 C36.4671681,15.9528545 36.2806403,15.9779455 36.0600986,16.1377636 C35.8390083,16.2904909 35.6096889,16.6150364 35.6650986,17.0148545 C35.7073417,17.4157636 36.0074319,17.6770364 36.2586958,17.7735818 C36.5110569,17.8761273 36.6981333,17.8564909 36.7052653,17.8995818" id="Fill-294" fill="#FF9A6C"></path>
                                    <path d="M38.7472507,5.08941818 C39.5388965,7.27505455 41.456841,9.02269091 43.7154729,9.61669091 C44.4610354,9.81250909 45.2916326,9.8796 45.9708132,9.51687273 C46.6505424,9.15414545 47.0663896,8.23941818 46.6702924,7.5816 C47.1492299,8.11123636 47.6391396,8.6496 48.2568757,9.0096 C48.8751604,9.37014545 49.6541882,9.52996364 50.3152646,9.25505455 C50.976341,8.98014545 51.4300424,8.18650909 51.1710979,7.5216 C52.0011465,8.36650909 53.020466,9.02650909 54.1330493,9.43996364 C54.5220146,9.58396364 54.9477368,9.69905455 55.3482229,9.59105455 C56.1546813,9.37341818 56.4657438,8.37141818 56.3757715,7.54505455 C56.1453549,5.43414545 54.2707507,3.85887273 52.3204382,2.99378182 C47.9260632,1.04541818 42.4717715,1.71796364 38.6890979,4.67432727" id="Fill-296" fill="#1A2E35"></path>
                                    <path d="M38.9736076,4.37132727 C36.5048576,4.9686 34.6291563,7.42314545 34.7125451,9.94805455 C34.7493021,11.0460545 35.1108368,12.1053273 35.4690799,13.1449636 C35.8454271,14.2380545 36.2217743,15.3311455 36.5981215,16.4236909 C36.6880938,16.6838727 36.7846493,16.9549636 36.9865382,17.1431455 C37.3129618,17.4480545 37.8511493,17.4447818 38.2362743,17.2178727 C38.6213993,16.9904182 38.8693715,16.5840545 39.0114618,16.1618727 C39.5337396,14.6084182 38.7931146,12.8531455 39.2753438,11.2866 C39.6056076,10.2136909 40.4559549,9.39605455 41.1219688,8.4906 C41.787434,7.58514545 42.291059,6.37969091 41.817059,5.36187273 C41.3117882,4.2786 39.6670521,3.95132727 38.7815938,4.75805455" id="Fill-298" fill="#1A2E35"></path>
                                    <path d="M36.2061938,21.8386909 C36.2007076,21.8523273 35.9768743,21.7803273 35.5994299,21.5883273 C35.2192424,21.4006909 34.6986104,21.0646909 34.1346382,20.5563273 C33.0034021,19.5499636 31.7920688,17.7254182 31.2950271,15.4579636 C30.7738465,13.2123273 30.8572354,11.0665091 31.2835063,9.61396364 C31.4881382,8.88523636 31.7426938,8.32396364 31.9544576,7.9596 C32.1667701,7.59414545 32.3110549,7.41032727 32.3242215,7.41850909 C32.3796313,7.44687273 31.8277285,8.21923636 31.4793604,9.66414545 C31.111791,11.0959636 31.062416,13.1888727 31.5737215,15.3952364 C32.0592424,17.6070545 33.2069368,19.3917818 34.2734368,20.4106909 C35.3421313,21.4470545 36.239659,21.7830545 36.2061938,21.8386909" id="Fill-300" fill="#375A64"></path>
                                    <path d="M35.6985639,4.14496364 C35.9147167,3.92078182 35.8757653,3.52750909 35.6618069,3.30114545 C35.4478486,3.07478182 35.1060639,3.00169091 34.7971958,3.04914545 C34.4888764,3.09714545 34.2068903,3.24932727 33.9446542,3.41896364 C32.9264319,4.07787273 32.1073556,5.03732727 31.6185431,6.14296364 C31.4545083,6.51496364 31.3480778,7.0026 31.6437792,7.28296364 C31.8187861,7.44878182 32.0903486,7.47987273 32.3240569,7.41878182 C32.5577653,7.35823636 32.7618486,7.21805455 32.9555083,7.07350909 C33.9128347,6.35950909 34.7406889,5.47478182 35.3885986,4.47441818" id="Fill-302" fill="#FF4F5B"></path>
                                    <path d="M57.8763326,65.7456545 C57.1993465,59.7483818 55.1656451,41.6180182 55.3148674,41.4663818 C55.4937146,41.2847455 38.9097493,41.4663818 38.9097493,41.4663818 L35.3860201,66.0222 L28.6836382,66.1569273 C28.6836382,66.1569273 30.2312701,88.3585636 29.087416,91.7698364 L18.3763326,107.609836 L27.9232632,116.978018 C27.9232632,116.978018 39.0715896,104.867836 41.6050757,99.7160182 C42.164659,98.5787455 42.7357632,97.0612909 43.2931521,95.3589273 C44.1637979,104.3742 45.2884507,113.741291 46.6627215,119.8122 L57.0583535,119.8122 L58.162159,65.7445636 L57.8763326,65.7456545 Z" id="Fill-304" fill="#1A2E35"></path>
                                    <path d="M38.1780118,66.7742182 C38.1966646,66.7796727 38.1648451,66.9504 38.0858451,67.2542182 C38.0057479,67.5569455 37.8773729,67.9922182 37.6776785,68.5191273 C37.4746924,69.0427636 37.2042271,69.6640364 36.7817965,70.2907636 C36.3610118,70.9098545 35.7624771,71.5480364 34.940109,71.9091273 C34.1254215,72.2505818 33.2953729,72.4016727 32.5333521,72.398452 C31.7724285,72.3945818 31.095991,72.2342182 30.5660326,72.0269455 C30.0344285,71.8196727 29.6355882,71.5873091 29.3739007,71.4105818 C29.1122132,71.2333091 28.9805465,71.1187636 28.9904215,71.1040364 C29.0194979,71.0554909 29.5873104,71.4765818 30.634609,71.8376727 C31.1563382,72.0149455 31.806991,72.1469455 32.5322549,72.1365818 C33.2531299,72.1273091 34.0601368,71.9702182 34.8238035,71.6494909 C35.5808868,71.3178545 36.1486993,70.7298545 36.5650951,70.1424 C36.9825882,69.5489455 37.2673174,68.9500364 37.4906021,68.4438545 C37.9256507,67.4222182 38.1330257,66.7600364 38.1780118,66.7742182" id="Fill-306" fill="#375A64"></path>
                                    <path d="M52.0138743,51.1105091 C52.0264924,51.1416 51.5371313,51.3870545 50.6955618,51.6592364 C49.8556382,51.9325091 48.6552771,52.2068727 47.3051451,52.3017818 C45.9544646,52.3939636 44.7272215,52.2870545 43.8576729,52.1326909 C42.9864785,51.9794182 42.4674924,51.8037818 42.4757215,51.7716 C42.4861451,51.7274182 43.0193951,51.8332364 43.8867493,51.9341455 C44.7530063,52.0361455 45.9588535,52.1086909 47.2853951,52.0181455 C48.6113882,51.9248727 49.795291,51.6870545 50.6396035,51.4661455 C51.483916,51.2468727 51.997416,51.0685091 52.0138743,51.1105091" id="Fill-308" fill="#375A64"></path>
                                    <path d="M53.2715653,53.7493636 C53.2814403,53.7466364 53.3083222,53.8186364 53.3522111,53.9588182 C53.4032319,54.0979091 53.4487667,54.3095455 53.4937528,54.5866364 C53.5765931,55.1386364 53.5711069,55.9726364 53.2644333,56.937 C52.9522736,57.8888182 52.3169819,58.9737273 51.2444472,59.7984545 C50.1795931,60.6286364 48.6780444,61.0824545 47.1287667,61.0088182 C45.5767458,60.9286364 44.1426764,60.3477273 43.1041556,59.5017273 C42.0530167,58.6655455 41.3667042,57.6444545 40.9343986,56.7433636 C40.5097736,55.8324545 40.3205028,55.0371818 40.2404056,54.4868182 C40.2020028,54.2102727 40.1800583,53.9953636 40.1778639,53.8486364 C40.1723778,53.7019091 40.173475,53.625 40.1838986,53.6244545 C40.2546694,53.6053636 40.2409542,54.885 41.1159889,56.6555455 C41.5614611,57.5239091 42.2455792,58.5019091 43.2676417,59.2966364 C44.2754403,60.0995455 45.6524542,60.6471818 47.1430306,60.7246364 C48.6297667,60.7955455 50.0638361,60.369 51.08535,59.5895455 C52.1161903,58.8155455 52.7476417,57.7840909 53.0735167,56.8726364 C53.3933569,55.9491818 53.4306625,55.1424545 53.3829333,54.5986364 C53.33685,54.0520909 53.2408431,53.7575455 53.2715653,53.7493636" id="Fill-310" fill="#375A64"></path>
                                    <path d="M57.6349986,72.9345818 C57.6295125,72.9640364 57.2581028,72.9253091 56.7166236,72.6765818 C56.1762417,72.4327636 55.4877347,71.9380364 54.9489986,71.2011273 C54.4130056,70.4625818 54.1546097,69.6580364 54.089325,69.0716727 C54.0207486,68.4825818 54.0997486,68.1198545 54.1293736,68.1236429 C54.1776514,68.1258545 54.1727139,68.4847636 54.2884708,69.0389455 C54.4014847,69.5920364 54.6741444,70.3360364 55.1805125,71.0353091 C55.6907208,71.7307636 56.3161375,72.2194909 56.8098875,72.4987636 C57.3036375,72.7813091 57.6487139,72.8882182 57.6349986,72.9345818" id="Fill-312" fill="#375A64"></path>
                                    <path d="M48.6913757,69.66876 C48.7012507,69.6698727 48.6968618,69.7631455 48.6798549,69.9398727 C48.6562646,70.1487818 48.6271882,70.4029636 48.5920771,70.7095091 C48.5158201,71.3787818 48.3704382,72.3415091 48.1811674,73.5306 C47.7911049,75.9060545 47.1261882,79.1678727 46.2379868,82.7313273 C45.3530771,86.2964182 44.4966951,89.5058727 43.9447924,91.8453273 C43.678716,92.9836909 43.4603688,93.9202364 43.2974313,94.6178727 C43.2261118,94.9184182 43.1668618,95.1671455 43.118584,95.3716909 C43.0746951,95.5435091 43.046716,95.6329636 43.036841,95.6308208 C43.0275146,95.6291455 43.0362924,95.5358727 43.0620771,95.3607818 C43.096091,95.1535091 43.1377854,94.9009636 43.1882576,94.5960545 C43.3018201,93.9322364 43.4921882,92.9766 43.747841,91.8006 C44.2503688,89.4464182 45.0765771,86.2249636 45.9603896,82.6636909 C46.8480424,79.1046 47.5420354,75.8586 47.9825701,73.4962364 C48.1877507,72.3453273 48.3567229,71.3984182 48.4823549,70.6936909 C48.5383132,70.3893273 48.5849451,70.1378727 48.6227993,69.9316909 C48.658459,69.7576909 48.6815007,69.6671455 48.6913757,69.66876" id="Fill-314" fill="#375A64"></path>
                                    <path d="M35.7090424,30.1126364 C36.8567368,34.173 37.8678271,37.5679091 39.0155215,41.6277273 C39.1082368,41.9566364 39.2069868,42.2964545 39.4286257,42.5566364 C39.6508132,42.8173636 40.0320979,42.9760909 40.3459035,42.8380909 C40.8193549,42.6297273 40.8242924,41.9724545 40.745841,41.4640909 C40.1741882,37.7615455 39.2525215,35.2191818 37.9396951,31.7091818 C37.7432924,31.1844545 37.2336326,29.8257273 37.2336326,29.8257273 C37.2336326,29.8257273 36.1852368,29.3151818 35.7090424,30.1126364" id="Fill-316" fill="#1A2E35"></path>
                                    <path d="M49.5362917,29.1698182 C49.5362917,29.1698182 51.6391181,42.1189091 52.5114097,42.336 C53.3837014,42.5525455 54.1243264,42.336 54.1243264,42.336 L51.9441458,29.8941818 C51.9441458,29.8941818 50.8480208,28.5883636 49.5362917,29.1698182" id="Fill-318" fill="#1A2E35"></path>
                                    <path d="M40.5002826,40.9189636 C40.5277132,40.9004182 40.7894007,41.2173273 41.0274979,41.8298727 C41.1449007,42.1347818 41.2507826,42.5138727 41.3050951,42.9458727 C41.3286854,43.1586 41.3594076,43.3942364 41.2974146,43.6566 C41.2655951,43.7853273 41.1964701,43.9271455 41.072484,44.0269636 C40.9490465,44.1289636 40.7745882,44.1704182 40.6264632,44.1518727 C40.0279285,44.0515091 39.7201576,43.5960545 39.4782201,43.2491455 C39.2373799,42.8793273 39.097484,42.5051455 39.0162896,42.1866 C38.8610326,41.5429636 38.9329007,41.1316909 38.9636229,41.1349636 C39.0108035,41.1338727 39.0140951,41.5353273 39.2099493,42.1309636 C39.3114424,42.4260545 39.4617618,42.7691455 39.697116,43.1040545 C39.9275326,43.4286 40.2462757,43.8126 40.654991,43.8687818 C40.8442618,43.8916909 40.9770257,43.7755091 41.0264007,43.5856909 C41.0768729,43.3969636 41.0609632,43.1798727 41.0434076,42.9736909 C41.0055535,42.5624182 40.9249076,42.1958727 40.8360326,41.8936909 C40.6560882,41.2898727 40.4607826,40.9413273 40.5002826,40.9189636" id="Fill-320" fill="#375A64"></path>
                                    <path d="M40.2329444,42.0082364 C40.2099028,41.9787818 40.42825,41.8669636 40.6871944,42.0655091 C40.8035,42.1598727 40.9263889,42.3289636 40.9104792,42.5613273 C40.8984097,42.7986 40.6828056,43.0069636 40.4425139,43.0549636 C40.2044167,43.1133273 39.9207847,43.0173273 39.8077708,42.8073273 C39.6936597,42.6038727 39.7320625,42.3987818 39.7967986,42.2640545 C39.9454722,41.9744182 40.1907014,41.9831455 40.1824722,42.0196909 C40.1961875,42.0595091 40.0398333,42.1227818 39.9849722,42.3371455 C39.9586389,42.4386 39.9624792,42.5744182 40.0305069,42.6687818 C40.0935972,42.7636909 40.2323958,42.8095091 40.3805208,42.7778727 C40.5275486,42.7440545 40.6334306,42.6431455 40.6493403,42.5307818 C40.6701875,42.4167818 40.6153264,42.2924182 40.5478472,42.2116909 C40.4063056,42.0409636 40.2378819,42.0502364 40.2329444,42.0082364" id="Fill-322" fill="#375A64"></path>
                                    <path d="M53.8549583,41.1884727 C53.8856806,41.1802909 54.0491667,41.4868364 54.1813819,42.0459273 C54.2406319,42.3235636 54.2823264,42.6835636 54.17425,43.0708364 C54.1199375,43.2617455 54.0305139,43.4619273 53.8692222,43.6315636 C53.7134167,43.8022909 53.4577639,43.9212 53.2004653,43.9032 C52.683125,43.8524727 52.3435347,43.4902909 52.1520694,43.1510182 C51.9627986,42.8008364 51.8991597,42.4566545 51.8635,42.1752 C51.8053472,41.6079273 51.8399097,41.2632 51.8739236,41.2604727 C51.9183611,41.2561091 51.9562153,41.6052 52.0626458,42.1424727 C52.1207986,42.4075636 52.2041875,42.7250182 52.3802917,43.0212 C52.5492639,43.3053818 52.860875,43.5912 53.216375,43.6195636 C53.571875,43.6457455 53.8275278,43.3162909 53.9218889,42.9955636 C54.0272222,42.6710182 54.0140556,42.3475636 53.9822361,42.0792 C53.9065278,41.5402909 53.8094236,41.1999273 53.8549583,41.1884727" id="Fill-324" fill="#375A64"></path>
                                    <path d="M53.1204778,41.955 C53.1160889,41.9397273 53.1561375,41.9026364 53.2494014,41.895 C53.3410194,41.8851818 53.4825611,41.9217273 53.6081931,42.0340909 C53.7272417,42.1431818 53.8506792,42.3379091 53.80295,42.5899091 C53.7563181,42.8473636 53.4814639,43.0306364 53.2175819,43.0306364 C52.9531514,43.0459091 52.6717139,42.8779091 52.6047833,42.6313636 C52.5340125,42.3919091 52.6245333,42.1857273 52.7238319,42.0591818 C52.9487625,41.7908182 53.2027694,41.8513636 53.1868597,41.8846364 C53.1923458,41.9271818 53.0080125,41.955 52.8911583,42.1720909 C52.8357486,42.2757273 52.8028319,42.4235455 52.8538528,42.5457273 C52.8977417,42.6679091 53.0398319,42.7508182 53.2093528,42.7464545 C53.3777764,42.741 53.5154778,42.6482727 53.5467486,42.5277273 C53.5846028,42.4066364 53.5319361,42.2631818 53.4617139,42.1715455 C53.3135889,41.9757273 53.1259639,41.9964545 53.1204778,41.955" id="Fill-326" fill="#375A64"></path>
                                    <path d="M12.3592757,66.1675091 C12.3592757,66.1675091 12.0921021,67.1902364 11.9516576,67.6811455 C11.829866,68.1071455 11.7859771,68.5500545 11.8139563,68.9913273 C11.8446785,69.4571455 11.9055743,70.0560545 12.0279146,70.4509636 C12.0421785,70.4826 12.0542479,70.5235091 12.0690604,70.5513273 C12.1047201,70.6184182 12.1184354,70.6866 12.1233729,70.7531455 C12.1864632,71.1633273 11.7744563,71.5173273 11.4173104,71.3078727 C11.0513868,71.0929636 10.5334979,70.0009636 10.4841229,68.5631455 C10.4824771,68.5402364 10.4780882,68.5195091 10.476991,68.4960545 C10.3864701,67.0375091 9.07693542,68.9002364 8.58757431,69.5700545 C8.58757431,69.5700545 8.44603264,69.7909636 8.13606736,69.9742364 C7.82555347,70.1564182 7.36472014,69.6464182 7.36472014,69.6464182 C7.36472014,69.6464182 5.07865764,67.5518727 4.92888681,66.6322364 C4.77856736,65.7120545 7.07669931,62.9242364 7.07669931,62.9242364 L12.3592757,66.1675091 Z" id="Fill-328" fill="#FFBF9D"></path>
                                    <path d="M52.8729444,30.2586 C54.8002153,36.1920545 55.9029236,41.6051455 57.8301944,47.5380545 C57.9240069,47.8255091 58.0715833,48.1615091 58.3722222,48.2046 C58.8407361,48.2722364 59.0212292,47.6198727 59.0108056,47.1496909 C58.9559444,44.5031455 58.7046806,42.2089636 58.6492708,39.5629636 C58.5955069,36.9720545 57.6963333,33.4686 57.0615903,31.7886 C56.3818611,29.9891455 54.8035069,30.1636909 52.8729444,30.2586" id="Fill-330" fill="#375A64"></path>
                                    <path d="M29.793259,31.7341091 C32.1073007,34.4308364 31.4846271,37.6512 30.2628701,40.9812 C29.0416618,44.3122909 27.0392313,47.3619273 26.2399049,50.8168364 C26.0094882,51.8139273 26.0160715,53.1088364 26.9344465,53.5681091 C27.7282868,53.9657455 28.6653146,53.4502909 29.3625993,52.9015636 C34.4564535,48.8957455 37.031634,42.2090182 36.7853076,35.7568364 C36.7331896,34.3904727 36.5565368,32.9962909 35.9338632,31.7772 C35.3117382,30.5586545 34.175016,29.5332 32.8133632,29.3422909 C31.452259,29.1513818 29.9331549,29.9870182 29.6319674,31.3206545" id="Fill-332" fill="#375A64"></path>
                                    <path d="M31.1114618,38.1447562 C31.1202396,38.1458727 31.1169479,38.2244182 31.102684,38.3738727 C31.0889688,38.5238727 31.0598924,38.7453273 31.0028368,39.0284182 C30.8964063,39.5956909 30.6511771,40.4073273 30.2369757,41.3738727 C29.4305174,43.3047818 28.2427743,45.9998727 26.886059,49.0942364 L26.8838646,49.1002364 L26.8800243,49.1067818 C26.5952951,49.6036909 26.2897188,50.1033273 26.0532674,50.6400545 C25.8020035,51.1620545 25.760309,51.7658727 25.8541215,52.3511455 C25.8996563,52.5955091 25.9824965,52.8333273 26.1245868,53.0122364 C26.2666771,53.1846 26.4778924,53.3209636 26.7011771,53.3940545 C27.1532326,53.5484182 27.6656354,53.5020545 28.1072674,53.3406 C28.9877882,52.9533273 29.7898576,52.3696909 30.4756215,51.7893273 C30.8239896,51.4980545 31.1004896,51.1609636 31.3857674,50.8287818 C31.6644618,50.4960545 31.9305382,50.1687818 32.1779618,49.8458727 C32.6744549,49.2006 33.1051146,48.5760545 33.4732326,47.9896909 C34.2094688,46.8169636 34.6993785,45.8051455 35.030191,45.1042364 C35.1816076,44.7747818 35.3050451,44.5058727 35.4037951,44.2920545 C35.4893785,44.1060545 35.5387535,44.0100545 35.5480799,44.0138727 C35.5574063,44.0176909 35.5255868,44.1202364 35.4570104,44.3138727 C35.3895313,44.5069636 35.2803576,44.7889636 35.131684,45.1484182 C34.8315938,45.8656909 34.3669201,46.8976909 33.6454965,48.0944182 C33.285059,48.6927818 32.8598854,49.3304182 32.3672326,49.9876909 C32.1209063,50.3166 31.8564757,50.6498727 31.5794271,50.9880545 C31.3012813,51.3191455 31.0083229,51.6807818 30.6500799,51.9851455 C29.9379826,52.5927818 29.1616979,53.1753273 28.2060174,53.6013273 C27.7117188,53.7824182 27.1450035,53.8407818 26.6084618,53.6613273 C26.3418368,53.5718727 26.0927674,53.4191455 25.9007535,53.1878727 C25.7164201,52.9533273 25.6253507,52.6762364 25.5732326,52.4029636 C25.4662535,51.7680545 25.5216632,51.0933273 25.7932257,50.5276909 C26.0422951,49.9658727 26.3550035,49.4607818 26.6386354,48.9698727 L26.6326007,48.9813273 C28.0035799,45.9218727 29.2006493,43.2513273 30.072941,41.3040545 C30.507441,40.3527818 30.7746146,39.5640545 30.9090243,39.0071455 C31.0472743,38.4518727 31.0906146,38.1415091 31.1114618,38.1447562" id="Fill-334" fill="#1A2E35"></path>
                                </g>
                            </g>
                        </g>
                    </g>
                </g>
            </g>
        </g>
    </g>
</svg>