<?xml version="1.0" encoding="UTF-8"?>
<svg width="148px" height="123px" viewBox="0 0 148 123" version="1.1" xmlns="http://www.w3.org/2000/svg" xmlns:xlink="http://www.w3.org/1999/xlink">
    <!-- Generator: sketchtool 63.1 (101010) - https://sketch.com -->
    <title>6630B2CC-9A32-4572-9473-E2B8722EAC4A</title>
    <desc>Created with sketchtool.</desc>
    <defs>
        <polygon id="path-1" points="0.133116342 0.0224021496 23.1353966 0.0224021496 23.1353966 23.7021882 0.133116342 23.7021882"></polygon>
    </defs>
    <g id="Onboarding-FTUE-01" stroke="none" stroke-width="1" fill="none" fill-rule="evenodd">
        <g id="User-Role-Selection" transform="translate(-192.000000, -156.000000)">
            <g id="Group-4" transform="translate(192.000000, 148.000000)">
                <g id="Group-3" transform="translate(0.000000, 8.000000)">
                    <path d="M101.432612,3.83088403 C123.549666,12.238064 131.383898,32.3042185 134.836208,57.9580636 C140.237667,98.0958866 133.868932,99.6097664 129.814462,105.834488 C109.746347,136.644543 54.7125162,123.656618 32.3271487,107.84434 C6.9436747,89.9149552 14.1283018,52.024658 34.5719894,28.9966317 C42.8140151,19.7130469 51.9718049,4.92036084 63.7156595,-0.108999281 C76.1071147,-5.41586487 89.7316062,-0.616935017 101.432612,3.83088403 Z" id="Fill-1" fill="#FFEE46" opacity="0.811351" transform="translate(76.500000, 61.057361) rotate(-270.000000) translate(-76.500000, -61.057361) "></path>
                    <g id="Group-190" transform="translate(69.469388, 21.789623)">
                        <path d="M41.8305911,32.0840306 C49.4346668,24.4622411 58.0442732,28.2079703 62.542008,32.2958906 C65.2367616,34.745772 66.9534237,38.1401237 67.8840684,41.6688257 C68.8147131,45.1975276 69.0085021,48.8789525 69.034798,52.5293734 C69.0553773,55.4856517 68.9278996,58.5940787 67.4147445,61.1289337 C65.9827637,63.527142 63.4880872,65.0882452 60.9322443,66.1980697 C56.363625,68.1817444 51.2982427,69.0004768 46.3409021,68.5555136" id="Fill-1" fill="#375A64"></path>
                        <path d="M45.9197103,29.0938777 C45.91691,29.1053607 46.0198069,29.1432543 46.2187407,29.2052621 C46.4548318,29.2747338 46.7429429,29.3602815 47.0927921,29.464202 C47.8519421,29.6846741 48.9552248,29.9901198 50.2991717,30.4195811 C51.6402604,30.8530614 53.2288731,31.413428 54.8912285,32.2476623 C56.5455809,33.0841932 58.283394,34.2118161 59.7611068,35.7625847 C61.2468227,37.3070377 62.2169112,39.1540658 62.7931334,40.919565 C63.380217,42.6873609 63.6460338,44.3592743 63.8186718,45.7619133 C63.9890232,47.1674229 64.0644809,48.3145668 64.1267907,49.105166 C64.1559448,49.4703229 64.1805257,49.7711755 64.2005334,50.0163359 C64.2211128,50.2253251 64.2365473,50.3344128 64.2479803,50.3338409 C64.2588416,50.3332645 64.2651297,50.2236026 64.266273,50.0140393 C64.2622715,49.7671565 64.2576983,49.4645815 64.2525535,49.0988504 C64.2291158,48.3048063 64.1891004,47.1536434 64.0461882,45.7360767 C63.9015609,44.3213807 63.6580384,42.628798 63.0760997,40.8248309 C62.5078805,39.0260312 61.518356,37.119292 59.9954829,35.5380936 C58.4828995,33.9505796 56.7079292,32.8120479 55.0244228,31.9783878 C53.3323416,31.1481725 51.7231495,30.607901 50.3666263,30.1996831 C49.0078165,29.7960584 47.8942441,29.5244873 47.1242328,29.3413347 C46.7686671,29.2615284 46.4748395,29.1955016 46.2353185,29.1415319 C46.0312398,29.1001933 45.9226265,29.082969 45.9197103,29.0938777" id="Fill-3" fill="#1A2E35"></path>
                        <path d="M63.9585544,45.8730679 C63.9202539,45.8856992 63.9751322,46.2083693 64.1992186,46.6849105 C64.3112618,46.9214587 64.467322,47.1953264 64.674259,47.4755097 C64.7708677,47.6087116 64.9017753,47.7798072 65.084703,47.8900432 C65.1750235,47.9463095 65.2773487,47.9962602 65.4025399,48.0175036 C65.5231578,48.0421919 65.702084,48.0106139 65.8089823,47.8940622 C65.9164524,47.7907159 65.961041,47.6184721 65.9313152,47.4846961 C65.9044477,47.3514942 65.8444246,47.2510186 65.7809715,47.166045 C65.6517789,46.9920787 65.4945754,46.8824168 65.3699559,46.7767739 C65.1378664,46.5930472 64.9046335,46.407598 64.6645409,46.2169815 C64.2563835,45.9052201 63.9905667,45.7295314 63.9608409,45.7639802 C63.9316868,45.7978548 64.1460552,46.0349771 64.5159122,46.3915219 C64.7399986,46.6005111 64.9583685,46.8031846 65.1755952,47.0052841 C65.3042162,47.122984 65.4379821,47.2269045 65.5248728,47.354939 C65.6209098,47.4904375 65.6472057,47.6075633 65.5774645,47.6661262 C65.5380207,47.7258374 65.3853904,47.7034457 65.2516245,47.6184721 C65.1138571,47.5386658 65.0183917,47.425559 64.9097784,47.2912088 C64.7011265,47.0351397 64.5330617,46.7882568 64.3998674,46.5746745 C64.1357656,46.1463615 64.0037146,45.8564177 63.9585544,45.8730679" id="Fill-5" fill="#1A2E35"></path>
                        <path d="M51.7989738,64.9040018 C51.7944341,64.9464886 52.2580415,65.050409 53.0217646,65.1520329 C53.7820579,65.246767 54.8641895,65.3472425 56.0452165,65.1296412 C57.2296733,64.9085949 58.2083365,64.3252625 58.7485449,63.7488198 C59.3001862,63.1735254 59.4425268,62.6843529 59.4122294,62.6757407 C59.3619243,62.6470334 59.1498425,63.0833845 58.5896264,63.5828916 C58.0402717,64.0852694 57.1090554,64.5991302 55.9851933,64.8092676 C54.8590447,65.0182568 53.8020656,64.9591198 53.042344,64.9223744 C52.2803358,64.8798876 51.8041521,64.8574959 51.7989738,64.9040018" id="Fill-7" fill="#1A2E35"></path>
                        <path d="M46.0660533,29.302465 C46.0894909,29.3001684 46.0912058,29.1198866 46.0934924,28.7977906 C46.1009239,28.4779912 46.0946357,28.005469 46.2341181,27.4657716 C46.3604525,26.9306675 46.7577486,26.3370004 47.4580187,26.1446614 C48.1468558,25.9391171 48.9871799,26.0608361 49.7943484,26.3329814 C50.6049468,26.6074232 51.3103617,27.0575537 51.7911185,27.6121789 C52.2821651,28.1604884 52.5091098,28.8121442 52.5742778,29.3627504 C52.7069003,30.5007079 52.1866997,31.113896 52.2535826,31.1339911 C52.2667306,31.1443257 52.4016397,31.0168653 52.5531267,30.7200317 C52.7011838,30.4249206 52.8463827,29.9437862 52.8029374,29.3420811 C52.7640652,28.748414 52.5394072,28.0255641 52.0180632,27.4169692 C51.5087239,26.803207 50.7547188,26.3140345 49.8995318,26.0252391 C49.0523479,25.7410367 48.153144,25.6089831 47.3694131,25.8581625 C46.9824067,25.981604 46.6422755,26.2147073 46.4210473,26.5057993 C46.1946743,26.795169 46.0734847,27.1172649 46.0117466,27.4106536 C45.8917003,28.0020241 45.9362889,28.4808619 45.9677296,28.8041062 C46.0043152,29.1279246 46.0449022,29.3041875 46.0660533,29.302465" id="Fill-9" fill="#1A2E35"></path>
                        <path d="M66.4980481,53.026938 C66.5094811,53.0280767 66.5272022,52.9264528 66.5512115,52.7318173 C66.5723625,52.5371818 66.608948,52.2506829 66.6341006,51.8797845 C66.6946954,51.1385619 66.7478587,50.0620379 66.729566,48.7305931 C66.6906938,46.0866503 66.32884,42.3219743 64.6173227,38.5905988 C62.8960874,34.858075 60.0475602,32.2307824 57.6917944,31.0038322 C56.5141974,30.3751422 55.4840858,30.0254872 54.7598064,29.8624297 C54.4025258,29.76138 54.112128,29.73784 53.9206256,29.6999464 C53.7274082,29.6700908 53.6256547,29.6603303 53.6239397,29.6712391 C53.5953573,29.7585093 55.2811504,29.906639 57.5803229,31.2047833 C59.8692057,32.4638857 62.6331289,35.0647675 64.3229235,38.7283938 C66.0070016,42.3960391 66.403726,46.109042 66.5009064,48.7363346 C66.5483532,50.0591672 66.5300605,51.1316721 66.5083378,51.8728947 C66.4866151,52.6141173 66.4734672,53.0252059 66.4980481,53.026938" id="Fill-11" fill="#1A2E35"></path>
                        <path d="M34.1563169,82.8348716 C34.1563169,82.8348716 36.7787649,90.3066458 37.0816096,90.3584547 C40.8103528,90.996347 52.5247894,82.3318768 51.9900674,80.6518953 C51.4553455,78.9719139 49.9149663,71.298554 49.9149663,71.298554 L29.7454727,70.8880395 L34.1563169,82.8348716 Z" id="Fill-53" fill="#1A2E35"></path>
                        <path d="M41.5651744,73.4298417 C41.2118953,75.254478 51.6269278,85.033137 40.1867609,89.6935435 C32.559983,92.8004812 26.5382423,94.6754333 22.1215391,95.3183999 L20.8943446,70.8880969 L41.5651744,70.9816827 L41.5651744,73.4298417 Z" id="Fill-55" fill="#1A2E35"></path>
                        <path d="M31.0353988,72.5903827 C31.1045684,72.8378397 31.1903157,73.1438596 31.2949275,73.5164804 C31.5424516,74.36392 31.8785812,75.5127864 32.2878819,76.9125546 C33.1339225,79.7769695 34.2755057,83.7431708 35.6663278,88.0871602 C37.0577216,92.432872 37.3641255,92.3260809 35.9750183,87.9872588 C34.5859111,83.6495849 33.4094574,79.6931442 32.5073952,76.8448053 C32.0575073,75.4203489 31.6865071,74.2691859 31.4149738,73.4785867 C31.2869244,73.1128557 31.1823126,72.8125773 31.0971369,72.5702876 C31.0211076,72.3641691 30.976519,72.2568038 30.9656577,72.2602487 C30.9547963,72.2636936 30.9788056,72.3773745 31.0353988,72.5903827 Z" id="Fill-57" fill="#375A64"></path>
                        <path d="M40.5681041,71.9126032 C40.5492397,71.9177705 40.5766789,72.0957558 40.6738592,72.4063689 C40.7693246,72.7169819 40.9516807,73.1556295 41.2529397,73.6557108 C41.8411666,74.6518543 43.0239085,75.8931582 44.728566,76.5023272 C46.4360817,77.106903 48.1333077,76.8898758 49.2142961,76.4879735 C49.7619359,76.289319 50.1786681,76.0636796 50.4473431,75.8833977 C50.7171615,75.70369 50.8503557,75.5825451 50.8389227,75.5658949 C50.807482,75.5130734 50.2244,75.939664 49.14284,76.2692239 C48.0784294,76.6028028 46.4572327,76.7693051 44.8371793,76.1957332 C43.2188408,75.6169939 42.0635381,74.4629602 41.4455854,73.5311211 C40.8116266,72.5912439 40.6258407,71.8913598 40.5681041,71.9126032" id="Fill-59" fill="#375A64"></path>
                        <polygon id="Fill-96" fill="#FFBF9D" points="70.5883114 69.7337762 70.268188 76.3347339 73.6449189 80.4352854 78.4833565 78.4395536 75.1963745 73.8601642 75.3987382 70.2424696"></polygon>
                        <path d="M73.6447474,80.4351132 L74.9932676,80.7595057 C75.4002817,80.8576847 75.8255886,80.6992204 76.0696827,80.3581776 L76.3309263,79.9930207 L76.6590529,80.0642148 C77.0374846,80.1451694 77.4233477,79.9683324 77.6102769,79.6284379 L77.8000644,79.2822278 L77.8149273,79.2799312 C78.2305161,79.2328512 78.5294886,78.8567855 78.483185,78.4393813 L76.4018108,78.1660878 L73.6447474,80.4351132 Z" id="Fill-98" fill="#FFBF9D"></path>
                        <path d="M76.7972205,80.0751236 C76.8057952,79.9838343 76.2958843,79.8626895 75.6733584,79.7203013 C75.050261,79.5802096 74.5386351,79.4693994 74.5071944,79.5555213 C74.4763253,79.6376242 74.9559389,79.8919709 75.6019023,80.0378041 C76.2472941,80.1847855 76.7892174,80.1629679 76.7972205,80.0751236" id="Fill-100" fill="#FF9A6C"></path>
                        <path d="M77.8947295,79.2683335 C77.9095924,79.1787667 77.6003302,79.0507321 77.2144671,78.940496 C76.8274607,78.83026 76.4976192,78.7762902 76.4638919,78.8601156 C76.4301646,78.9427926 76.7205623,79.1380023 77.1258615,79.2534057 C77.530589,79.3693832 77.8798666,79.3556037 77.8947295,79.2683335" id="Fill-102" fill="#FF9A6C"></path>
                        <path d="M46.2310312,36.9194317 C46.2310312,36.9194317 72.474296,48.0481056 76.3615096,74.0150114 L70.0362128,77.0361682 C70.0362128,77.0361682 61.9765327,61.7150795 50.3137487,57.3217135 L52.6740877,67.2234372 C53.2188692,69.5068162 51.5119251,71.7069441 49.1744522,71.7345031 L21.5432234,72.0623405 C21.5432234,72.0623405 19.0165346,71.282076 19.0165346,67.9623632 C19.0165346,64.6432246 20.9601414,62.4959182 20.9601414,62.4959182 L21.3488628,41.2140446 C21.3488628,41.2140446 24.8479266,33.4050834 32.2347757,32.8188802 C39.6216248,32.2332512 46.2310312,36.9194317 46.2310312,36.9194317" id="Fill-104" fill="#00C2F6"></path>
                        <path d="M46.5129113,47.8237293 C46.4768974,47.7996152 46.2139389,48.3950047 46.2711038,49.3854067 C46.3088326,50.3671966 46.5403505,51.712995 47.0788439,53.115634 C47.3480906,53.8258527 47.7488166,54.4327251 48.1038106,54.9615137 C48.4650929,55.4960437 48.8275184,55.9547864 49.1625047,56.3130536 C49.8341923,57.0313104 50.3675409,57.3379044 50.3864053,57.3074747 C50.4189893,57.2649878 49.943949,56.8986826 49.3339994,56.1609049 C49.0293105,55.7923031 48.6943241,55.3306896 48.352478,54.7961596 C48.0094886,54.2535915 47.6356301,53.6725557 47.3801029,52.9950633 C46.8570441,51.6354853 46.5935138,50.3195424 46.4997634,49.3704789 C46.3871485,48.4122291 46.5592149,47.8398054 46.5129113,47.8237293" id="Fill-106" fill="#1A2E35"></path>
                        <path d="M21.7409707,63.1154218 C21.7353547,63.1372394 21.9737324,63.2158974 22.4099006,63.3399129 C22.8454972,63.4679475 23.4851725,63.6183738 24.2814796,63.7728191 C25.8735222,64.0834321 28.1138148,64.3463911 30.5947717,64.2993111 C33.0763003,64.2470638 35.3045883,63.8945381 36.8829114,63.520769 C37.6729303,63.3347456 38.3063175,63.1590569 38.7361976,63.013798 C39.167221,62.8719839 39.4021687,62.7841395 39.395455,62.7628961 C39.3798744,62.7100747 38.4166458,62.9833682 36.8354645,63.2951295 C35.2554265,63.6091875 33.0454312,63.9215229 30.5884836,63.9737702 C28.1321076,64.0197019 25.9118227,63.7963591 24.3203517,63.5454572 C22.7277375,63.2962778 21.7542191,63.0620262 21.7409707,63.1154218" id="Fill-110" fill="#1A2E35"></path>
                        <path d="M50.7916473,57.3414067 C50.8465256,57.3557603 51.062609,56.5243968 51.5622303,55.2406061 C52.0584216,53.9562413 52.8867411,52.233803 54.0889191,50.5130871 C55.2962419,48.7963902 56.6327574,47.4327932 57.6685855,46.5308097 C58.7044136,45.6259555 59.4104001,45.1413761 59.3783878,45.0948703 C59.3663832,45.0759235 59.1800256,45.1809922 58.8513274,45.388259 C58.5209142,45.5909325 58.063595,45.9193441 57.5211,46.3545469 C56.4361101,47.2209333 55.0498611,48.5816596 53.8236739,50.3259155 C52.6020599,52.0730421 51.7937481,53.8419862 51.3472902,55.1602256 C51.1220605,55.8199195 50.9682869,56.3624876 50.8893993,56.7437206 C50.8053669,57.1243795 50.7699247,57.3362394 50.7916473,57.3414067" id="Fill-114" fill="#FAFAFA"></path>
                        <path d="M22.1425833,53.606127 C22.1347659,53.6267962 22.3857198,53.735884 22.8470406,53.9150176 C23.3060748,54.0987443 23.9869088,54.3243838 24.8380943,54.564951 C26.5393219,55.0495303 28.9591123,55.5151628 31.6641556,55.6041554 C34.3709139,55.6874066 36.8152853,55.3762194 38.5433804,55.0007279 C39.4082854,54.8147045 40.1016957,54.6327002 40.5715912,54.4788291 C41.0432017,54.3289769 41.2998721,54.2365394 41.2936968,54.215296 C41.2781494,54.1596038 40.2286018,54.4621788 38.499935,54.7745143 C36.7729832,55.0897205 34.3526211,55.3612916 31.6744453,55.2791887 C28.9979844,55.1907702 26.599345,54.7664763 24.8958308,54.3421823 C23.1906017,53.920759 22.162205,53.551009 22.1425833,53.606127" id="Fill-116" fill="#FAFAFA"></path>
                        <path d="M24.4206761,45.814218 C24.4138163,45.8354614 24.6213249,45.9215833 25.0026149,46.0605266 C25.3833331,46.2006183 25.9412626,46.3826226 26.6358162,46.5910376 C28.0249234,47.0078677 29.9702452,47.5022075 32.1505146,47.8914786 C34.3313558,48.278453 36.3281259,48.4857198 37.7749697,48.5735641 C38.4986774,48.6177734 39.0851893,48.6390168 39.4904885,48.6384426 C39.8957877,48.6401651 40.1204458,48.6304046 40.1215915,48.6080129 C40.123304,48.5586363 39.2309598,48.490313 37.7938341,48.3433316 C36.3567084,48.1974984 34.3765161,47.9552088 32.2071079,47.571105 C30.038843,47.1841306 28.0963796,46.7282586 26.6969827,46.3694172 C25.2970141,46.0111501 24.435539,45.767138 24.4206761,45.814218" id="Fill-118" fill="#FAFAFA"></path>
                        <path d="M58.6462197,62.4964349 C58.6553661,62.5171042 58.8308623,62.4568188 59.1435544,62.3276359 C59.4579613,62.2041945 59.8958445,61.9837224 60.4171885,61.6771284 C61.460448,61.0685335 62.8055382,60.0299032 63.9882801,58.5962604 C65.1653055,57.1574503 65.9250271,55.6336665 66.3228948,54.4888192 C66.522972,53.9169697 66.6555946,53.442725 66.7161894,53.1091461 C66.7825007,52.7772897 66.8087965,52.5924146 66.7870739,52.5872473 C66.7316239,52.5734678 66.5578426,53.2997626 66.1085264,54.4061422 C65.6626402,55.5119476 64.889199,56.9823357 63.7378978,58.3889937 C62.5820234,59.7904843 61.2918115,60.8331336 60.2959989,61.4819187 C59.2996146,62.135297 58.6222104,62.4441876 58.6462197,62.4964349" id="Fill-120" fill="#FAFAFA"></path>
                        <path d="M6.27893605,13.3603798 L6.27893605,13.3603798 L6.10058155,13.2484213 C4.58399661,12.2574452 2.78558868,11.0368105 1.9258285,10.2852533 C0.326354445,8.88605924 0.445829098,8.73620711 0.635616584,8.57200132 C1.14609919,8.13105711 3.54016543,10.9231296 3.36352587,10.0154046 C3.18688632,9.10710549 0.0502479519,6.95118687 0.60188929,6.5119651 C1.3210238,5.94011558 3.77511319,8.91132167 4.00091457,9.14672157 C4.21985616,9.37580587 4.96014168,9.68584476 4.74520164,9.48431948 C4.43651115,9.19494984 0.869992697,5.43888604 1.57140609,4.87048139 C1.9595558,4.55527518 2.44374254,5.3263534 2.44374254,5.3263534 C2.44374254,5.3263534 5.20137759,8.47439648 5.523216,8.19478733 C5.85077091,7.91115916 4.29188394,6.00614239 3.72194983,5.40214069 C3.15944716,4.80560288 3.20632238,4.28657481 3.66992977,4.24868116 C3.98605169,4.22284459 5.77302664,6.03025652 6.32295303,6.64114798 C6.87287942,7.25146528 8.35173553,8.95495677 8.28542424,7.50351542 C8.28428094,7.48054958 8.28656753,7.45930617 8.28542424,7.43691448 C8.18195576,6.00901312 8.57296371,4.87450042 8.90852171,4.62359857 C9.23550497,4.37843818 9.67624639,4.6850322 9.65795362,5.09669496 C9.66024021,5.16387005 9.65395207,5.23219344 9.62594127,5.30281341 C9.61450829,5.33209486 9.60707685,5.37343338 9.59678717,5.40615971 C9.51847125,5.81035856 9.52247279,6.40804466 9.54190886,6.87195471 C9.56077328,7.31117648 9.65109383,7.74523093 9.81515711,8.15287467 C10.0049446,8.62367447 10.1861573,9.02270601 10.3473624,9.35341417" id="Fill-122" fill="#FFBF9D"></path>
                        <path d="M10.3474767,8.80424342 C11.1249194,9.19523692 31.154359,32.8190525 31.154359,32.8190525 L21.8193299,41.737838 C21.8193299,41.737838 13.7539334,32.915509 9.09385033,25.1076962 C7.03134054,21.6524849 6.59517231,18.6008984 7.20340691,14.618621 L5.43815462,13.1424914 L10.3474767,8.80424342 Z" id="Fill-124" fill="#00C2F6"></path>
                        <path d="M19.5192428,31.3506738 C19.4214908,31.3977538 20.6385317,33.3693715 21.1387246,36.125847 C21.6709298,38.8783034 21.2507678,41.1593858 21.3588095,41.1674771 C21.395395,41.1737395 21.5491686,40.6179661 21.6372026,39.6907201 C21.7269515,38.7663449 21.7183767,37.4670523 21.4577047,36.0661358 C21.1936029,34.6657934 20.7311388,33.4531969 20.3126917,32.6241299 C19.8953879,31.7933405 19.5506835,31.3311529 19.5192428,31.3506738" id="Fill-126" fill="#1A2E35"></path>
                        <path d="M13.798865,32.0840306 C13.8463119,32.101255 14.1292782,31.3921846 14.644334,30.2754704 C15.1576748,29.157608 15.9271145,27.6424364 16.9223555,26.0554966 C17.9204547,24.4691309 18.9522813,23.1198875 19.7348688,22.1736948 C20.5168847,21.2263537 21.0330838,20.6642646 20.9970699,20.6286676 C20.9810638,20.6131656 20.83415,20.7354588 20.5820527,20.972007 C20.3276689,21.2068327 19.9778197,21.5650999 19.5616592,22.0232685 C18.7287665,22.9367349 17.6569245,24.2790885 16.6479639,25.8815303 C15.6424332,27.4851204 14.8975745,29.0341665 14.4339671,30.1824587 C14.2018776,30.7566048 14.0303829,31.2285529 13.929201,31.5598352 C13.8251609,31.8905434 13.777714,32.0765667 13.798865,32.0840306" id="Fill-130" fill="#FAFAFA"></path>
                        <path d="M9.46319278,25.7174393 C9.57695095,25.7662417 10.2543551,23.051679 12.2597,20.352044 C14.2644732,17.6615954 16.5493545,16.0861384 16.4618922,15.9891078 C16.4395979,15.9575297 15.8588024,16.3232608 14.9984706,17.0242932 C14.1415686,17.7264739 13.0131334,18.7874959 11.999028,20.1579826 C10.9872092,21.5313401 10.3178081,22.9368498 9.9388048,23.9823698 C9.74958896,24.5059911 9.61639473,24.9366006 9.54665355,25.2397498 C9.47233917,25.5411765 9.44147012,25.7105496 9.46319278,25.7174393" id="Fill-132" fill="#FAFAFA"></path>
                        <path d="M30.9862942,36.2342457 C25.6219395,41.5399299 22.1611761,48.7477601 21.3682988,56.2673516 C21.3134205,56.7852314 20.9698594,57.4931535 20.5051088,57.2617726 C20.2770208,57.1480917 20.2118528,56.8575738 20.1764106,56.6043753 C19.100567,48.9200039 21.1928026,40.8371751 25.8591738,34.6518991 C26.4982775,33.8050336 27.3386016,32.9179779 28.3961523,32.9518525 C29.2147538,32.9788373 29.9258852,33.5851356 30.3134632,34.3085597 C30.7010413,35.0331321 30.8256608,35.8656439 30.9445638,36.6797831" id="Fill-134" fill="#1A2E35"></path>
                        <path d="M30.672859,37.4464978 L30.5682472,34.4339532 C30.5682472,34.4339532 24.4807564,33.1490142 23.3191656,27.4023859 C22.5840249,23.7645962 22.8675628,19.6341891 23.0922209,14.7200726 C23.2945847,10.2979993 27.2143822,6.93292903 31.7206917,7.32220008 L36.7014699,7.83089353 C43.2594279,8.28561724 44.2792498,15.244268 44.276967,16.5940855 L43.6652987,37.6130002 C43.6652987,37.6130002 41.428436,42.0936364 32.674774,39.9296797 C31.5314759,39.6471998 30.7140177,38.6286647 30.672859,37.4464978" id="Fill-136" fill="#FFBF9D"></path>
                        <polygon id="Fill-138" fill="#375A64" points="22.9717744 13.6440654 23.0157914 13.6331566 22.9534817 13.3845514 22.9100363 13.394886"></polygon>
                        <path d="M35.0349986,22.5696833 C35.1499001,22.5128429 35.1870573,22.3543785 35.1178877,22.2165835 C35.0487182,22.0782143 34.8989461,22.0121875 34.7840447,22.0690279 C34.6691432,22.1264425 34.6314144,22.2843327 34.7011556,22.4227019 C34.7703251,22.560497 34.9195255,22.6270979 35.0349986,22.5696833" id="Fill-140" fill="#FF9A6C"></path>
                        <path d="M37.3897354,22.6241124 C37.5137832,22.6568387 37.6446909,22.5695685 37.6818481,22.430051 C37.7184336,22.2905335 37.6475491,22.151016 37.5235013,22.1182897 C37.3988818,22.0861375 37.2685458,22.1728335 37.2313886,22.312351 C37.1942314,22.4518685 37.2651159,22.591386 37.3897354,22.6241124" id="Fill-142" fill="#FF9A6C"></path>
                        <path d="M39.1878575,22.7065023 C39.2873244,22.7874569 39.4462429,22.7576013 39.5428516,22.6404755 C39.6394603,22.5227756 39.636602,22.3620147 39.5371351,22.2816342 C39.4376681,22.2006796 39.2787497,22.2299611 39.182141,22.347661 C39.0855323,22.4647868 39.0883906,22.6255477 39.1878575,22.7065023" id="Fill-144" fill="#FF9A6C"></path>
                        <path d="M37.0014714,24.3145707 C37.0917919,24.2232815 37.0763574,24.0636689 36.9677441,23.958026 C36.8597024,23.8523831 36.6984974,23.8414744 36.6087485,23.9327636 C36.5189996,24.0240528 36.5338624,24.1830913 36.6424758,24.2887342 C36.7510891,24.394377 36.9117225,24.40586 37.0014714,24.3145707" id="Fill-146" fill="#FF9A6C"></path>
                        <path d="M38.1168158,24.4368064 C38.2122812,24.5223542 38.3757729,24.4970918 38.4803846,24.3811143 C38.5855681,24.2651368 38.5929995,24.1015051 38.4975341,24.0165315 C38.4020687,23.9309837 38.2391487,23.955672 38.1339653,24.0716495 C38.0287819,24.1882012 38.0213504,24.3518328 38.1168158,24.4368064" id="Fill-148" fill="#FF9A6C"></path>
                        <path d="M24.6895227,22.7625964 C24.7564056,22.6517862 24.7369696,22.5157136 24.6883794,22.4181087 C24.6335011,22.3228005 24.5311759,22.2315113 24.4014116,22.2246215 C24.2739338,22.214861 24.1624623,22.419257 24.2773637,22.6357101 C24.3939801,22.8504408 24.6272129,22.8728325 24.6895227,22.7625964" id="Fill-150" fill="#FF9A6C"></path>
                        <path d="M26.470038,22.7334298 C26.5929425,22.7707493 26.7238502,22.7007035 26.7627223,22.5766879 C26.8015944,22.4526723 26.7335682,22.3206187 26.6106637,22.2827251 C26.4877591,22.2448315 26.3568515,22.3148773 26.3179793,22.439467 C26.2791072,22.5634825 26.3471334,22.6955361 26.470038,22.7334298" id="Fill-152" fill="#FF9A6C"></path>
                        <path d="M28.2048214,22.9184771 C28.3111481,22.9902453 28.4534887,22.9661312 28.5226583,22.8645073 C28.5918278,22.7634576 28.5609587,22.623366 28.454632,22.5515977 C28.3483053,22.4798295 28.2059647,22.5039436 28.1367951,22.6049933 C28.0681973,22.7066172 28.0984947,22.8467088 28.2048214,22.9184771" id="Fill-154" fill="#FF9A6C"></path>
                        <path d="M25.6516652,24.7182529 C25.6842492,24.593089 25.6230828,24.4679252 25.5424802,24.388693 C25.4578762,24.3129057 25.3281118,24.2600843 25.2046356,24.2997004 C25.0823027,24.3358716 25.0485755,24.5609368 25.2229284,24.7257168 C25.3989963,24.8887743 25.6230828,24.8416943 25.6516652,24.7182529" id="Fill-156" fill="#FF9A6C"></path>
                        <path d="M27.0015001,24.7283578 C27.1186882,24.7806051 27.2678886,24.7042437 27.3341999,24.5566882 C27.4005112,24.4097067 27.3593524,24.2483717 27.2421644,24.1955503 C27.1249763,24.143303 26.9757759,24.2202385 26.9094646,24.3672199 C26.8431533,24.5142013 26.8837404,24.6761105 27.0015001,24.7283578" id="Fill-158" fill="#FF9A6C"></path>
                        <path d="M26.8415527,19.0440818 C26.7883894,19.4965089 27.1256623,19.9150614 27.5949862,19.9793658 C28.0631667,20.0436701 28.4867587,19.7307605 28.5404937,19.2783334 C28.5936571,18.8259062 28.2563841,18.4073537 27.7882035,18.3424752 C27.3188797,18.2775967 26.8952877,18.5916546 26.8415527,19.0440818" id="Fill-160" fill="#1A2E35"></path>
                        <path d="M25.6499503,18.0522444 C25.7465589,18.1733892 26.4348244,17.7456503 27.3546077,17.8248825 C28.2749627,17.8903352 28.9112081,18.4225686 29.0203931,18.3174999 C29.0735564,18.2715682 28.9820926,18.0602824 28.7059861,17.8208635 C28.4344528,17.5825929 27.9576975,17.3328393 27.3837618,17.2874818 C26.8103978,17.2432725 26.3107766,17.4149422 26.015234,17.6090036 C25.7145466,17.803065 25.6019317,17.9977005 25.6499503,18.0522444" id="Fill-162" fill="#1A2E35"></path>
                        <path d="M36.3293264,20.0364933 C36.2784496,20.4699736 36.6014314,20.8707276 37.0513192,20.9327354 C37.5000637,20.994169 37.9059345,20.6944647 37.9573829,20.2609844 C38.0088313,19.8275041 37.685278,19.426176 37.2359618,19.3641682 C36.7866456,19.3021604 36.3807748,19.603013 36.3293264,20.0364933" id="Fill-164" fill="#1A2E35"></path>
                        <path d="M35.5262738,19.2958448 C35.6194526,19.4112482 36.2791356,19.0013079 37.1600468,19.0770952 C38.0421013,19.1402512 38.6520508,19.650093 38.7566626,19.5490433 C38.8075394,19.504834 38.7206487,19.3033087 38.4554036,19.0730761 C38.19416,18.8451401 37.737984,18.6062954 37.1880576,18.5626602 C36.6387029,18.5195993 36.159661,18.6849534 35.8766947,18.8704026 C35.5891552,19.057 35.4805419,19.2435975 35.5262738,19.2958448" id="Fill-166" fill="#1A2E35"></path>
                        <path d="M32.3043454,28.269691 C32.2174548,28.112375 31.2033493,28.7525479 29.9371467,28.3374402 C28.6698007,27.9263516 28.1015816,26.7700214 27.9552394,26.8521243 C27.88264,26.8779608 27.9100791,27.2184295 28.185614,27.6834878 C28.4525741,28.1422306 29.008217,28.7066162 29.7828014,28.9603888 C30.5573859,29.2118648 31.2896683,29.0671799 31.7264082,28.8380956 C32.1740094,28.6084372 32.3535072,28.3357178 32.3043454,28.269691" id="Fill-168" fill="#1A2E35"></path>
                        <path d="M35.2024918,17.2616452 C35.2859526,17.5705358 36.396095,17.5200109 37.673159,17.783544 C38.9559395,18.0212405 39.9649001,18.4874471 40.1581174,18.2319521 C40.2450081,18.109659 40.087233,17.8122513 39.6905085,17.4867105 C39.2977856,17.1611696 38.6552521,16.8298873 37.8875274,16.6788869 C37.1198027,16.5296089 36.4006682,16.5939133 35.9153382,16.7472103 C35.4254349,16.8987848 35.1676212,17.1152379 35.2024918,17.2616452" id="Fill-170" fill="#1A2E35"></path>
                        <path d="M26.2294309,15.6132143 C26.4020689,15.8796181 27.1812266,15.682686 28.0930068,15.7458421 C29.0070737,15.7774201 29.7616504,16.0547327 29.9605843,15.8072757 C30.0491899,15.6861309 29.948008,15.4248944 29.6307428,15.1590647 C29.3180507,14.8949575 28.778414,14.6555386 28.1507434,14.6222381 C27.5236444,14.5900859 26.962285,14.7720903 26.6244404,15.002897 C26.2808793,15.2342779 26.1539732,15.4834573 26.2294309,15.6132143" id="Fill-172" fill="#1A2E35"></path>
                        <path d="M31.3692419,24.9986084 C31.3766733,24.9543992 30.9930968,24.8378475 30.3722859,24.6851246 C30.2328036,24.6478051 30.0127187,24.6064666 29.8983889,24.5657022 C29.8618033,24.5427364 29.841224,24.4950823 29.8486554,24.4520213 C29.8475121,24.4319262 29.9235414,24.3027433 29.9658435,24.2200663 C30.1784969,23.8262021 30.3968668,23.4225774 30.6266698,22.9994317 C31.5744639,21.2672329 32.1575459,19.750913 32.0455027,19.7112969 C32.0014857,19.6969433 31.8339926,20.0563588 31.5293036,20.6236151 C31.1525869,21.3269441 30.7650088,22.0515165 30.3402736,22.8455605 C30.1093274,23.2807633 29.8903858,23.6958709 29.7005983,24.0822712 C29.6565813,24.1942297 29.601703,24.2378648 29.5656891,24.4187208 C29.5485396,24.5783335 29.6365736,24.7327788 29.7663379,24.8011021 C30.0092888,24.8820567 30.1464846,24.8740187 30.3191226,24.9096158 C30.9627994,25.0066465 31.3618104,25.0428177 31.3692419,24.9986084" id="Fill-174" fill="#1A2E35"></path>
                        <path d="M30.5681329,34.4501441 C30.5681329,34.4501441 37.2421356,34.3869881 38.8936297,32.4578572 C38.8936297,32.4578572 38.2185122,36.0721069 30.6464488,36.1938259 L30.5681329,34.4501441 Z" id="Fill-176" fill="#FF9A6C"></path>
                        <path d="M43.8634895,20.4889778 C44.678661,20.281137 45.5904412,20.6003622 46.1386527,21.2411092 C46.6868641,21.8818563 46.8680769,22.8050832 46.6525652,23.621519 C46.4364819,24.4379547 45.8442534,25.1349681 45.0988231,25.5253875 C44.3802602,25.9020273 43.4290362,25.9743697 42.8087969,25.4507485" id="Fill-178" fill="#FFBF9D"></path>
                        <path d="M43.980163,24.1945742 C43.9675867,24.2301713 44.1728088,24.3444263 44.5249446,24.2720839 C44.6958676,24.233042 44.8976598,24.1440493 45.0714411,23.973528 C45.247509,23.8041549 45.3738434,23.5521047 45.4081424,23.274218 C45.4407264,22.9969054 45.3772733,22.7218894 45.2469373,22.5151969 C45.1183163,22.3079301 44.9433917,22.1730058 44.7861882,22.0949219 C44.4614915,21.9399025 44.2351185,22.0019102 44.23912,22.0398039 C44.2345469,22.0897546 44.4340524,22.119036 44.6684285,22.2924282 C44.9028046,22.4589305 45.1446122,22.8068631 45.0863039,23.2357502 C45.0411437,23.6663598 44.7238784,23.9459689 44.4569183,24.0516118 C44.1888149,24.1641445 43.9881661,24.1451976 43.980163,24.1945742" id="Fill-180" fill="#FF9A6C"></path>
                        <path d="M39.6944529,10.3404861 C39.8682342,10.5144524 35.3070464,15.1690549 30.5303469,13.8100511 C31.4415555,13.8697622 33.3868772,13.2152357 34.4164172,12.2604307 C31.9148809,13.4001107 28.2866244,13.9151198 26.7757559,13.377719 C27.5446239,12.9643338 29.435639,12.0617762 29.6671568,11.1351044 C28.666771,12.0537381 25.7273515,13.9156939 23.2080942,14.4846727 C21.6932242,14.8268638 19.2620007,14.3474518 18.2959138,13.4305405 C21.4028264,12.5032945 21.8750086,11.872308 22.2500103,10.7332021 C22.7810723,9.12157397 23.1657921,5.96721528 24.5931998,4.36477351 C25.7439294,3.07351892 28.9554538,0.956068091 32.3224667,0.485268286 C35.7317816,0.00872702077 39.4103433,1.30342648 40.2306597,1.71221851 C40.9886664,2.0894325 41.8026946,2.89438534 42.1119568,3.70393134 C42.2320031,4.01856341 42.6464486,6.52126627 42.2771633,6.63092818 C43.7874601,6.18079763 44.4802988,6.87149539 45.4429558,8.00084078 C47.8215875,10.7911908 46.7394558,18.5392925 44.408271,20.1480499 C43.4816279,20.7876486 43.7846019,22.6444371 42.8168,22.4871211 C42.9905813,21.7797731 39.4509304,18.3750867 39.6944529,10.3404861" id="Fill-182" fill="#1A2E35"></path>
                        <path d="M41.7669665,7.15357337 C42.7107591,6.41636978 42.9891522,3.81778451 42.5724201,2.8400137 C43.4979199,3.38832323 43.7174331,4.4677179 43.5567997,5.53562965 C43.3995962,6.58746532 42.9377038,6.94860321 41.9641855,7.23797285 L41.7669665,7.15357337 Z" id="Fill-184" fill="#1A2E35"></path>
                        <path d="M40.0531055,14.9269375 C40.4504016,15.7938981 41.0917918,16.5931095 42.1236184,16.6355963 C43.0994233,16.6746382 44.3050312,16.0206858 45.3242814,15.1801359 C45.8067533,14.7828268 46.214339,13.8383565 46.7802716,12.9478558 C46.8631607,15.4873041 45.9193681,19.3559005 44.4084997,20.1482221 C43.4115437,20.6712692 43.7842589,22.6440352 42.816457,22.4872934 C42.9553678,21.924056 40.7367978,19.6435477 39.9530669,14.6754615 C39.9827927,14.7604351 40.0153767,14.8442604 40.0531055,14.9269375" id="Fill-186" fill="#1A2E35"></path>
                        <path d="M50.6115779,38.9637363 C47.1268052,40.6034976 45.1088841,44.6150564 45.196918,48.4790597 C45.2855236,52.3436371 47.2171258,55.9952063 49.8701491,58.7953169 C50.3840616,59.3378849 50.9379895,59.8712667 51.2432501,60.5545005 C51.547939,61.2388827 51.5387927,62.1293833 51.0025858,62.6501338 C50.2097086,63.4206379 48.8891993,62.961321 47.9551247,62.3722471 C43.9758757,59.8655252 41.1279201,55.616844 40.3133202,50.9702796 C39.4992919,46.3237152 40.730624,41.3533324 43.618595,37.6328657 C44.1913874,36.8945138 44.8779379,36.1710897 45.7788568,35.9339673 C46.8335493,35.6560806 47.9711309,36.1240097 48.7737262,36.8652323 C49.5757498,37.6064549 50.0948071,37.999745 50.6115779,38.9637363" id="Fill-188" fill="#1A2E35"></path>
                    </g>
                    <g id="Group-336" transform="translate(0.000000, 30.850847)">
                        <path d="M79.8877655,28.8185847 L79.8877655,28.8185847 L79.9783498,28.6140933 C80.7265301,26.8420259 81.5870807,24.7000357 81.8983925,23.5288054 C82.4785906,21.3494783 82.2842357,21.2891648 82.019936,21.2581465 C81.310168,21.174282 80.8555267,25.0492795 80.4736967,24.1474494 C80.0924401,23.2456192 81.576761,19.4866534 80.8314473,19.4297864 C79.8608196,19.355687 79.4589235,23.4236876 79.3998717,23.7648896 C79.3419666,24.0963265 78.8747122,24.8091744 78.9446571,24.5041605 C79.0449878,24.0670314 79.9605769,18.6474344 79.0077221,18.5658676 C78.4791227,18.5204889 78.5100819,19.4855046 78.5100819,19.4855046 C78.5100819,19.4855046 77.9459367,23.8895374 77.4976019,23.8361169 C77.0418139,23.7809732 77.2860475,21.1823238 77.4299503,20.3126609 C77.5721333,19.4539118 77.2241291,19.0265477 76.7941404,19.2695249 C76.5006015,19.4349561 75.9972281,22.0847283 75.8751113,22.9480727 C75.7524212,23.8108427 75.458309,26.186045 74.6579568,24.8729343 C74.6453438,24.8522554 74.6315841,24.8344486 74.6189711,24.8143441 C73.865631,23.4995103 72.8508577,22.7366883 72.4071094,22.7165838 C71.9748275,22.6964794 71.7678596,23.227238 72.0275728,23.578205 C72.0648385,23.6373696 72.1112772,23.6942366 72.1772088,23.7396153 C72.2047281,23.7579966 72.2356873,23.7901638 72.2643532,23.8131403 C72.5716518,24.1204519 72.9225225,24.647764 73.1793691,25.0670863 C73.4230293,25.463432 73.6001847,25.8976891 73.6965021,26.3531995 C73.8082992,26.8793628 73.8851238,27.3377452 73.9384424,27.7237515" id="Fill-191" fill="#FFBF9D"></path>
                        <path d="M35.0586382,33.705585 C29.2778707,32.3959208 23.082594,35.3317512 19.4236772,40.0034611 C15.7647603,44.6757453 14.3475177,50.7823415 14.2517735,56.7200599 C14.184122,60.9345361 14.8199319,65.3799268 17.3895441,68.7172727 C20.4585166,72.7042809 25.6304202,74.3361913 30.5196779,75.4988054 C36.0057599,76.8027254 41.7848076,77.7907177 47.2382104,76.354108 C52.69104,74.9180728 57.7144542,70.4462591 58.1088971,64.8106824" id="Fill-193" fill="#375A64"></path>
                        <polygon id="Fill-195" fill="#ECECEC" points="25.5829494 61.0659621 28.164028 62.9362544 21.3421146 77.3304971 18.6704517 75.7634954"></polygon>
                        <path d="M6.66625756,53.4494036 L26.0633328,60.8507291 C26.0633328,60.8507291 18.5752235,76.4776645 18.2019934,76.4776645 C18.2019934,76.4776645 0.584497921,68.1779553 0.000275997318,67.9682941 C-0.00945975057,66.9337744 6.66625756,53.4494036 6.66625756,53.4494036" id="Fill-197" fill="#1A2E35"></path>
                        <polygon id="Fill-199" fill="#1A2E35" points="18.6706237 75.7634954 21.2849548 77.1191127 28.1642 62.9362544 28.4950046 62.9362544 21.5744805 78.1461651 18.05144 76.4062648"></polygon>
                        <path d="M72.3122826,26.8872322 L69.2370037,39.3928014 L56.5615113,32.3895448 L56.5729776,32.4981091 C54.6351621,31.4647381 51.9950317,30.5192525 48.7873163,30.5181037 C40.9219636,30.5140828 34.4463344,32.3895448 34.4463344,32.3895448 C34.4463344,32.3895448 20.9452637,36.7683034 5.81998254,65.2896863 L13.7524134,70.1974803 C13.7524134,70.1974803 25.8941466,51.9707468 30.3975611,49.8281822 L27.7000989,65.3545951 C27.1221942,67.772304 28.9338797,70.1015532 31.415201,70.1308483 L60.4830079,69.2364856 C60.4830079,69.2364856 61.7288283,69.611578 61.7288283,66.0973126 C61.7288283,62.5824727 61.3653446,60.3480019 61.3653446,60.3480019 L60.857958,49.0624883 C62.8112531,49.8810283 65.4645698,51.0005614 67.5147558,51.898945 C71.2052051,53.5147719 74.7729644,53.0931519 77.355763,49.4984685 C80.2533132,45.466656 82.2765532,26.8872322 82.2765532,26.8872322 L72.3122826,26.8872322 Z" id="Fill-201" fill="#FF4F5B"></path>
                        <path d="M36.5680704,3.02997689 C35.4506732,1.62955534 33.4801785,1.05399242 31.7269714,1.41529888 C29.9743376,1.77660534 28.4607776,2.98172611 27.4998962,4.49415841 C26.5384416,6.00659072 26.0924,7.80393241 25.9765897,9.5932323 C25.8441532,11.644465 26.0373615,13.9673956 24.6350251,15.4671908 C23.0790395,17.1318428 20.2239147,16.9813464 18.6776755,18.6546146 C17.6789552,19.7356619 17.49492,21.4887737 18.2476868,22.7547824 C19.0004537,24.0202166 20.6269574,24.6928555 22.0516532,24.3269538 C21.2404079,25.0133786 20.5094272,25.8284722 20.0949181,26.8084226 C19.6798358,27.7877987 19.6133308,28.9498384 20.089185,29.9010681 C20.7209816,31.1636303 22.1634503,31.8224832 23.5583335,32.0218049 C26.4363909,32.4319366 29.4916037,31.1688 31.2442375,28.8458694 C31.9889779,30.018823 33.688293,30.3450902 34.9450066,29.7568902 C36.2022934,29.1686901 37.0118187,27.8515586 37.2721052,26.4856019 C37.531245,25.1202196 37.3087976,23.7065865 36.9504737,22.363032 C36.5921498,21.0200518 36.0990961,19.7138342 35.8032639,18.3553449 C34.8928346,14.1741847 35.9081812,9.82472118 37.1912673,5.74350906" id="Fill-245" fill="#1A2E35"></path>
                        <g id="Group-249" transform="translate(32.679138, 0.000000)">
                            <mask id="mask-2" fill="white">
                                <use xlink:href="#path-1"></use>
                            </mask>
                            <g id="Clip-248"></g>
                            <path d="M23.1353966,4.02848091 C21.3076582,1.48957062 18.0724235,0.322935602 14.9570123,0.076511957 C12.8655474,-0.0894937155 10.7121642,0.105232662 8.78237509,0.929516883 C6.65307124,1.83996322 4.89757086,3.47417131 3.49064796,5.31574289 C1.88019709,7.42499143 0.661322562,9.88003726 0.265732993,12.5056841 C-0.129856576,15.1313309 0.348290816,17.9338972 1.8521045,20.1206917 C3.35534486,22.3074861 5.93699679,23.7900489 8.58572695,23.6981426" id="Fill-247" fill="#1A2E35" mask="url(#mask-2)"></path>
                        </g>
                        <path d="M51.1448581,31.4707695 L51.2434688,28.6423545 C51.2434688,28.6423545 56.9726378,27.4360849 58.0659556,22.0400389 C58.758524,18.6245727 58.4913577,14.7467032 58.2798033,10.1335836 C58.0894616,5.98114417 54.4001589,2.82186667 50.1587508,3.18719403 L45.4707277,3.66453214 C39.2983838,4.09132181 38.3386491,10.6252821 38.3409383,11.8924396 L38.9165539,31.6270101 C38.9165539,31.6270101 40.5992428,39.3126707 48.6870429,36.7433164 C50.7423887,36.0902076 51.1064458,32.5805375 51.1448581,31.4707695" id="Fill-250" fill="#FFBF9D"></path>
                        <polygon id="Fill-252" fill="#375A64" points="58.393091 9.12244251 58.3518121 9.11267747 58.4102905 8.87889094 58.4515694 8.88865598"></polygon>
                        <path d="M47.039269,17.5030867 C46.9309119,17.4490917 46.8959395,17.3008929 46.9612977,17.1710753 C47.026656,17.0412577 47.167119,16.979221 47.2754761,17.0332159 C47.3838333,17.086062 47.4188057,17.2348353 47.3534474,17.3646529 C47.2886624,17.4944705 47.1476262,17.5565072 47.039269,17.5030867" id="Fill-254" fill="#FF9A6C"></path>
                        <path d="M44.8232221,17.5535777 C44.7062652,17.584596 44.5830018,17.5024548 44.5486027,17.3720628 C44.5136303,17.240522 44.5801352,17.1095556 44.6970921,17.0791116 C44.814049,17.0486677 44.9373124,17.1302345 44.9722848,17.2612009 C45.0072573,17.3921673 44.940179,17.5231337 44.8232221,17.5535777" id="Fill-256" fill="#FF9A6C"></path>
                        <path d="M43.1307294,17.6309512 C43.0367052,17.7073483 42.8876425,17.679202 42.7964849,17.5694889 C42.7059006,17.458627 42.7081939,17.3081305 42.8022181,17.2323079 C42.8956689,17.1564852 43.045305,17.1840571 43.1358893,17.2943446 C43.2264735,17.4040577 43.2241803,17.5551286 43.1307294,17.6309512" id="Fill-258" fill="#FF9A6C"></path>
                        <path d="M45.1883111,19.1410285 C45.1040334,19.0554408 45.117793,18.9055187 45.2198437,18.8067195 C45.3218943,18.7073458 45.4732503,18.6970064 45.5581014,18.7825941 C45.6423792,18.8681818 45.6286195,19.0181038 45.5265689,19.1169031 C45.4245183,19.2162767 45.2725889,19.2266162 45.1883111,19.1410285" id="Fill-260" fill="#FF9A6C"></path>
                        <path d="M44.1385082,19.2560262 C44.0484972,19.3364441 43.8954212,19.3128931 43.7962372,19.2037545 C43.6976265,19.0946158 43.6901733,18.9412472 43.7801843,18.8614037 C43.8701952,18.7809857 44.0232712,18.8045367 44.1224553,18.9131009 C44.2216393,19.022814 44.2285191,19.1756082 44.1385082,19.2560262" id="Fill-262" fill="#FF9A6C"></path>
                        <path d="M56.7764483,17.6836825 C56.7139566,17.5797135 56.7317294,17.452768 56.7775949,17.3608617 C56.8291935,17.2712531 56.925511,17.1856654 57.0476278,17.1787725 C57.1674513,17.1690074 57.2723685,17.3614362 57.1645847,17.5647787 C57.0545076,17.7669725 56.8355,17.7882258 56.7764483,17.6836825" id="Fill-264" fill="#FF9A6C"></path>
                        <path d="M55.1006964,17.6562255 C54.9848862,17.6918391 54.8616228,17.6257815 54.8255037,17.5091755 C54.7888113,17.3925694 54.8524497,17.2690704 54.9682599,17.2340311 C55.0840702,17.197843 55.2073336,17.2633262 55.244026,17.3810811 C55.280145,17.4976872 55.2165067,17.6206118 55.1006964,17.6562255" id="Fill-266" fill="#FF9A6C"></path>
                        <path d="M53.4678288,17.8301006 C53.3674981,17.8973071 53.233915,17.8749049 53.16913,17.7795522 C53.1037718,17.6847738 53.1324377,17.553233 53.2327684,17.4860266 C53.3330991,17.4188201 53.4666822,17.4412223 53.5320405,17.5360006 C53.5968254,17.6313533 53.5681595,17.7628942 53.4678288,17.8301006" id="Fill-268" fill="#FF9A6C"></path>
                        <path d="M55.8711215,19.5196822 C55.8407356,19.4025017 55.8980674,19.2853213 55.9737454,19.2106474 C56.0534367,19.1399945 56.1755534,19.0900205 56.291937,19.126783 C56.407174,19.1606734 56.4387065,19.3720578 56.2741642,19.5271496 C56.1090485,19.6799438 55.8980674,19.6357139 55.8711215,19.5196822" id="Fill-270" fill="#FF9A6C"></path>
                        <path d="M54.6007056,19.5297919 C54.4900552,19.5786171 54.3501656,19.5068153 54.2876739,19.368956 C54.2246089,19.2305222 54.2635945,19.0788768 54.3736716,19.0300516 C54.484322,18.980652 54.624785,19.0524538 54.6872767,19.1908876 C54.7497684,19.328747 54.7107827,19.4803923 54.6007056,19.5297919" id="Fill-272" fill="#FF9A6C"></path>
                        <path d="M55.7826585,13.9281057 C55.837697,14.3939555 55.4896929,14.8241917 55.0058123,14.8902493 C54.5230783,14.9568813 54.0862099,14.6340606 54.030598,14.1693596 C53.9761328,13.7035098 54.3235636,13.2726992 54.8062975,13.2066416 C55.2907514,13.1400096 55.7276199,13.4628303 55.7826585,13.9281057" id="Fill-274" fill="#1A2E35"></path>
                        <path d="M55.8666496,13.2269184 C55.7668922,13.3509918 55.0576976,12.9109907 54.1088559,12.9925575 C53.1600143,13.0603383 52.5041382,13.6071805 52.3911946,13.4997651 C52.3367293,13.4520887 52.4307535,13.2349602 52.7156927,12.9885366 C52.9960453,12.7432617 53.487379,12.4864986 54.0790434,12.4399711 C54.6701345,12.3945924 55.1855475,12.5709375 55.4899795,12.7702592 C55.8001447,12.9707297 55.915955,13.1706258 55.8666496,13.2269184" id="Fill-276" fill="#1A2E35"></path>
                        <path d="M47.3455356,15.0971532 C47.4005741,15.5630031 47.05257,15.9932392 46.5686894,16.0598713 C46.0859555,16.1259289 45.649087,15.8031082 45.5940485,15.3384072 C45.5390099,14.8731318 45.8870141,14.4417468 46.369748,14.3756891 C46.8536286,14.3090571 47.2904971,14.6318778 47.3455356,15.0971532" id="Fill-278" fill="#1A2E35"></path>
                        <path d="M47.343529,14.302279 C47.2431983,14.4269269 46.5334303,13.9869257 45.585162,14.0684925 C44.6363204,14.1356989 43.9804443,14.6825412 43.868074,14.5751257 C43.8130354,14.5274494 43.905913,14.3108952 44.1919988,14.0638972 C44.4723514,13.8186224 44.9636851,13.5624337 45.5553495,13.5153317 C46.1464406,13.469953 46.6618536,13.6462981 46.9662856,13.8461942 C47.2758774,14.0460903 47.392261,14.2459864 47.343529,14.302279" id="Fill-280" fill="#1A2E35"></path>
                        <path d="M47.9737204,19.7839127 C48.1411293,19.7603617 48.2363001,20.8856389 49.2642597,21.6048054 C50.2904993,22.3268439 51.477268,22.1005247 51.4990541,22.2573398 C51.5208402,22.3268439 51.2508073,22.4985937 50.7462873,22.5537375 C50.252087,22.6123277 49.5147997,22.5123796 48.8858697,22.0723784 C48.2586595,21.6318028 47.9525076,20.9987985 47.875683,20.5398416 C47.7942718,20.0734174 47.8963224,19.7839127 47.9737204,19.7839127" id="Fill-282" fill="#1A2E35"></path>
                        <path d="M46.8816638,12.5190105 C46.8031192,12.809664 45.7585334,12.7619876 44.5562851,13.0095601 C43.348877,13.2324328 42.399462,13.6701363 42.2171468,13.4306056 C42.1357356,13.3157228 42.2842251,13.0354087 42.6574552,12.7298205 C43.0272455,12.4248066 43.6320962,12.1140485 44.3544771,11.9721683 C45.0768581,11.8320112 45.7539469,11.8917503 46.2114548,12.0353538 C46.6718294,12.1783829 46.914343,12.3817255 46.8816638,12.5190105" id="Fill-284" fill="#1A2E35"></path>
                        <path d="M55.3271571,10.9713666 C55.1643348,11.2218111 54.4316341,11.0362754 53.5728034,11.0965889 C52.7122528,11.125884 52.0024848,11.3860936 51.8150098,11.1534559 C51.7318786,11.0397219 51.8270494,10.7944471 52.1257482,10.5451513 C52.4198605,10.2970044 52.9278204,10.0724085 53.5183382,10.0413902 C54.1088559,10.0109462 54.636882,10.1821216 54.9556469,10.3986757 C55.2784251,10.6152299 55.3982486,10.8495908 55.3271571,10.9713666" id="Fill-286" fill="#1A2E35"></path>
                        <path d="M50.489498,19.7833383 C50.4826182,19.7431293 50.8438087,19.6334162 51.42802,19.4915359 C51.5604565,19.4564967 51.7662777,19.4180109 51.8752082,19.3795252 C51.9107539,19.357123 51.93082,19.3117443 51.9233669,19.2692377 C51.9239402,19.2491332 51.8528488,19.1285062 51.8132898,19.0509603 C51.6132017,18.6821865 51.4073805,18.3024988 51.1918128,17.9044298 C50.2991564,16.2782635 49.7487709,14.8560142 49.8531148,14.8192517 C49.8932471,14.8054658 50.0503363,15.1437957 50.3369954,15.6768519 C50.6890128,16.3328328 51.0542165,17.0152368 51.4549659,17.7631239 C51.6722535,18.1721068 51.8786481,18.5621339 52.0575234,18.9245892 C52.0988023,19.0291326 52.1504009,19.0710648 52.1842267,19.2393681 C52.1997063,19.3881414 52.1182951,19.5323193 51.9967516,19.5955049 C51.7697176,19.6713275 51.6395744,19.6644346 51.4773253,19.6977506 C50.8719013,19.7890824 50.4963779,19.8241217 50.489498,19.7833383" id="Fill-288" fill="#1A2E35"></path>
                        <path d="M51.2434115,28.6575765 C51.2434115,28.6575765 44.9621371,28.5978374 43.4078714,26.7867098 C43.4078714,26.7867098 44.043108,30.1803482 51.1694534,30.2946566 L51.2434115,28.6575765 Z" id="Fill-290" fill="#FF9A6C"></path>
                        <path d="M38.4719456,15.2452372 C37.6767532,15.0430434 36.7875367,15.3538015 36.2532041,15.9764663 C35.7182982,16.5997056 35.5417162,17.4986637 35.7526973,18.292504 C35.9631051,19.0863442 36.5404365,19.7641529 37.267404,20.144415 C37.9679989,20.5103168 38.8950544,20.5803953 39.4999051,20.07089" id="Fill-292" fill="#FFBF9D"></path>
                        <path d="M38.3583139,18.8499154 C38.3703536,18.882657 38.1696922,18.9906468 37.8291412,18.9188451 C37.6634522,18.8809338 37.4679507,18.7941972 37.2999685,18.6293404 C37.129693,18.4656324 37.0075762,18.2215064 36.9743237,17.9538294 C36.9427912,17.6861524 37.0041363,17.4196243 37.129693,17.2203026 C37.254103,17.0198321 37.4232319,16.8888657 37.5757345,16.813043 C37.8899129,16.6613977 38.1094938,16.7194135 38.1060539,16.7538784 C38.1094938,16.7998315 37.9145656,16.8262545 37.6840917,16.9945579 C37.4530444,17.1553938 37.2133974,17.4971702 37.2713026,17.9182157 C37.3154481,18.3404101 37.6290531,18.6155544 37.8916329,18.7172257 C38.1553593,18.8252156 38.3508608,18.8045367 38.3583139,18.8499154" id="Fill-294" fill="#FF9A6C"></path>
                        <path d="M40.4922616,5.35962812 C41.3195598,7.66130539 43.3238803,9.50172814 45.6842314,10.1272651 C46.4633709,10.3334797 47.3313746,10.4041327 48.0411426,10.0221473 C48.7514839,9.64016193 49.1860591,8.6768695 48.7721233,7.98412611 C49.2726301,8.54188219 49.7846033,9.1088289 50.4301596,9.4879422 C51.0762892,9.86762991 51.8904011,10.0359332 52.5812495,9.74642854 C53.272098,9.45692384 53.7462322,8.62115134 53.475626,7.92094056 C54.3430564,8.81070799 55.4082817,9.50574904 56.570971,9.94115492 C56.9774536,10.0928002 57.4223486,10.2140016 57.8408709,10.1002676 C58.6836486,9.8710764 59.0087201,8.81587771 58.9146959,7.94564036 C58.6739022,5.72265783 56.7148739,4.06374993 54.6767276,3.15272918 C50.0844487,1.10092205 44.384519,1.80917462 40.4314899,4.922499" id="Fill-296" fill="#1A2E35"></path>
                        <path d="M40.7288127,4.60341197 C38.1488808,5.2323954 36.1887058,7.81725881 36.2758502,10.4762216 C36.3142625,11.6325172 36.6920792,12.7480294 37.066456,13.8428626 C37.4597523,14.9939885 37.8530486,16.1451143 38.2463449,17.2956657 C38.340369,17.5696613 38.4412731,17.8551451 38.6522542,18.0533179 C38.9933785,18.3744154 39.5558037,18.3709689 39.9582731,18.1320127 C40.3607424,17.892482 40.6198823,17.4645435 40.7683717,17.019947 C41.3141706,15.3840156 40.540191,13.5355511 41.0441378,11.8858338 C41.3892753,10.7559613 42.2779186,9.89491458 42.9739269,8.94138719 C43.6693619,7.9878598 44.195668,6.71840466 43.7003211,5.64654796 C43.172295,4.50576158 41.453487,4.16111312 40.5281514,5.01067156" id="Fill-298" fill="#1A2E35"></path>
                        <path d="M37.8367663,22.9981616 C37.8310331,23.012522 37.5971193,22.9366993 37.2026764,22.7345056 C36.8053669,22.5369071 36.2612879,22.183068 35.6719167,21.6477141 C34.4897346,20.5879201 33.223848,18.666505 32.7044217,16.2786656 C32.1597693,13.9138028 32.2469137,11.6540577 32.692382,10.124393 C32.9062297,9.35697579 33.1722493,8.76590369 33.3935502,8.38219507 C33.6154243,7.99733763 33.766207,7.80376008 33.7799666,7.81237629 C33.8378718,7.84224583 33.2611136,8.65561618 32.8970566,10.1772391 C32.5129334,11.6850761 32.4613347,13.889103 32.9956673,16.212608 C33.5030539,18.5418571 34.7024356,20.42134 35.8169663,21.4943455 C36.9337901,22.5857323 37.8717387,22.9395714 37.8367663,22.9981616" id="Fill-300" fill="#375A64"></path>
                        <path d="M37.306275,4.36503012 C37.5321624,4.12894593 37.4914568,3.71479337 37.2678627,3.47641152 C37.0442686,3.23802968 36.6870913,3.16105819 36.3643132,3.21103221 C36.0421083,3.26158065 35.7474228,3.42184219 35.4733766,3.60048497 C34.409298,4.29437719 33.5533339,5.30477158 33.0425074,6.46910894 C32.8710853,6.86085935 32.7598615,7.37438555 33.06888,7.66963439 C33.2517686,7.84425628 33.5355611,7.87699788 33.7797946,7.8126635 C34.0240282,7.74890354 34.2373026,7.60127912 34.4396839,7.44905938 C35.4401242,6.69715134 36.3052614,5.76545168 36.9823502,4.71197624" id="Fill-302" fill="#FF4F5B"></path>
                        <path d="M60.4828359,69.2362558 C59.7753612,62.9205729 57.6500706,43.8276229 57.8060131,43.6679358 C57.9929149,43.4766559 40.6620785,43.6679358 40.6620785,43.6679358 L36.9796556,69.5274837 L29.9754269,69.669364 C29.9754269,69.669364 31.1969974,79.8367254 31.5378687,83.1610029 C34.142607,85.642619 38.0893106,87.7583407 43.3779795,89.508168 C46.9032691,90.6745574 52.5636592,90.866591 60.3591497,90.0842688 L60.7815347,69.235107 L60.4828359,69.2362558 Z" id="Fill-304" fill="#1A2E35"></path>
                        <path d="M39.8973867,70.3194285 C39.9168795,70.3251726 39.883627,70.5049642 39.8010692,70.8249129 C39.7173647,71.1437127 39.5832083,71.6020951 39.3745204,72.1569791 C39.1623927,72.7084167 38.8797468,73.3626743 38.4382918,74.0226761 C37.9985567,74.6746361 37.3730666,75.3467006 36.5136625,75.7269627 C35.662285,76.0865459 34.7948545,76.2456586 33.9985155,76.2422669 C33.2033232,76.2381913 32.4964218,76.0693135 31.9425964,75.8510362 C31.3870511,75.6327588 30.9702487,75.3880584 30.6967759,75.2019482 C30.4233031,75.0152637 30.2857068,74.8946367 30.2960265,74.8791275 C30.3264124,74.8280047 30.9197967,75.2714523 32.0142612,75.6517145 C32.5594868,75.838399 33.2394422,75.9774073 33.9973689,75.9664934 C34.750709,75.9567283 35.5940601,75.7912971 36.3921191,75.4535416 C37.1832982,75.1042978 37.7766826,74.4850794 38.2118311,73.8664355 C38.6481263,73.2414729 38.9456784,72.6107663 39.1790189,72.07771 C39.6336603,71.0018324 39.8503746,70.3044937 39.8973867,70.3194285" id="Fill-306" fill="#375A64"></path>
                        <path d="M54.3563574,53.8240939 C54.3695437,53.8568355 53.8581439,54.1153218 52.9786737,54.4019544 C52.1009235,54.6897359 50.8465033,54.9786662 49.4355672,55.0786142 C48.0240577,55.1756902 46.7415449,55.0631051 45.8328355,54.9005459 C44.9224062,54.7391355 44.3800471,54.5541742 44.3886469,54.5202837 C44.3995399,54.4737562 44.9568053,54.5851925 45.8632214,54.6914591 C46.7684908,54.7988746 48.0286443,54.8752717 49.4149277,54.7799189 C50.8006378,54.6816941 52.0378585,54.4312496 52.9201953,54.1986119 C53.802532,53.9676974 54.3391579,53.779864 54.3563574,53.8240939" id="Fill-308" fill="#375A64"></path>
                        <path d="M55.6706894,56.6030518 C55.6810091,56.6001797 55.7091017,56.6760024 55.7549672,56.8236268 C55.8082858,56.9701024 55.8558712,57.1929751 55.9028833,57.4847774 C55.9894543,58.0660845 55.9837212,58.9443636 55.6632363,59.9599278 C55.3370182,60.9622803 54.6731157,62.10479 53.5522786,62.9733041 C52.439468,63.8475623 50.870296,64.3254748 49.2512454,64.2479289 C47.6293281,64.1634901 46.1306743,63.5517391 45.0453829,62.6608228 C43.9469052,61.780246 43.2296841,60.7049428 42.7779094,59.7560107 C42.3341611,58.7967392 42.1363663,57.9592435 42.0526618,57.3796597 C42.0125296,57.0884317 41.9895968,56.8621126 41.9873036,56.7075952 C41.9815704,56.5530778 41.982717,56.4720854 41.9936101,56.471511 C42.0675681,56.4514065 42.0532351,57.7989819 42.9676777,59.6635301 C43.4332121,60.5779973 44.1481399,61.6079218 45.2162317,62.4448431 C46.2694173,63.2903807 47.708446,63.8670924 49.2661516,63.9486592 C50.819844,64.023333 52.3184978,63.5741412 53.3860163,62.7533035 C54.4632813,61.9382099 55.1231705,60.8519928 55.4637215,59.8921469 C55.7979661,58.9196638 55.8369517,58.0701054 55.787073,57.4974145 C55.7389143,56.9218516 55.6385836,56.611668 55.6706894,56.6030518" id="Fill-310" fill="#375A64"></path>
                        <path d="M60.2306332,76.8068612 C60.2249,76.8378796 59.8367636,76.7970962 59.2708985,76.5351633 C58.70618,76.2784002 57.9866657,75.7574067 57.4236672,74.9813732 C56.8635353,74.2036165 56.5935024,73.3563558 56.5252776,72.7388606 C56.4536128,72.1184934 56.5361706,71.736508 56.5671298,71.7404975 C56.6175818,71.7428266 56.6124219,72.120791 56.7333921,72.7043958 C56.8514956,73.2868516 57.1364348,74.0703525 57.6656075,74.8067513 C58.1987934,75.5391293 58.8523762,76.0538043 59.3683626,76.3479043 C59.884349,76.6454508 60.2449661,76.758036 60.2306332,76.8068612" id="Fill-312" fill="#375A64"></path>
                        <path d="M50.8374733,72.9488893 C50.8128206,73.1688899 50.7824347,73.4365669 50.7457424,73.7593876 C50.6660512,74.4641937 50.5141218,75.4780346 50.316327,76.7302573 C49.9086978,79.2318307 49.2138361,82.6668269 48.2856339,86.4194742 C47.3608716,90.1738447 47.3695811,89.7844364 47.2441695,90.3201404 C46.9649376,91.512899 46.8889422,91.8962534 47.0383483,90.2730385 C47.0593551,90.0448115 47.0719193,90.0985965 47.9955349,86.3482469 C48.9231638,82.6001949 49.6484113,79.1818567 50.1087858,76.6940692 C50.3232069,75.4820555 50.4997889,74.4848726 50.6310787,73.7427296 C50.6895572,73.4222066 50.7382892,73.1574017 50.7778482,72.9402731 C50.8151139,72.757035 50.8391933,72.6616823 50.849513,72.6633173 C50.8598327,72.6645544 50.8552462,72.7627792 50.8374733,72.9488893 Z" id="Fill-314" fill="#375A64"></path>
                        <path d="M37.3172254,31.7113916 C38.5166071,35.98733 39.5732325,39.5624834 40.7726142,43.8378474 C40.869505,44.1842191 40.9727023,44.5420791 41.2043229,44.8160746 C41.4365167,45.0906446 41.8349729,45.2577991 42.1629109,45.1124723 C42.6576845,44.8930461 42.6628444,44.2008771 42.5808599,43.6655232 C41.9834623,39.7664004 41.0202877,37.0890563 39.6483372,33.3927016 C39.4430893,32.8401152 38.9104767,31.4092497 38.9104767,31.4092497 C38.9104767,31.4092497 37.8148656,30.8715981 37.3172254,31.7113916" id="Fill-316" fill="#1A2E35"></path>
                        <path d="M51.767195,30.7185168 C51.767195,30.7185168 53.9647237,44.3551073 54.8762997,44.5837241 C55.7878757,44.8117665 56.5618553,44.5837241 56.5618553,44.5837241 L54.2834887,31.4813387 C54.2834887,31.4813387 53.1379989,30.1061914 51.767195,30.7185168" id="Fill-318" fill="#1A2E35"></path>
                        <path d="M42.3242427,43.0914538 C42.3529086,43.0719237 42.6263814,43.4056583 42.8752015,44.0507253 C42.9978916,44.3718228 43.108542,44.7710406 43.1653005,45.2259765 C43.1899532,45.449998 43.222059,45.6981449 43.157274,45.9744381 C43.1240216,46.1099998 43.0517835,46.2593475 42.9222136,46.3644653 C42.793217,46.4718807 42.6109018,46.5155362 42.4561059,46.4960061 C41.8306157,46.3903139 41.5089842,45.9106781 41.2561508,45.5453508 C41.0044641,45.155898 40.858268,44.7618499 40.7734169,44.4263921 C40.6111678,43.7485835 40.6862725,43.3154753 40.7183783,43.3189217 C40.7676837,43.3177729 40.7711236,43.7405417 40.9757982,44.3678019 C41.0818621,44.6785599 41.2389513,45.0398664 41.4849048,45.3925566 C41.7256985,45.734333 42.0587963,46.1387205 42.4859184,46.1978852 C42.6837132,46.2220106 42.8224562,46.0996604 42.8740548,45.8997643 C42.9268001,45.701017 42.9101739,45.4724002 42.8918277,45.2552717 C42.8522687,44.8221634 42.767991,44.4361572 42.6751134,44.1179318 C42.487065,43.4820554 42.2829638,43.1150047 42.3242427,43.0914538" id="Fill-320" fill="#375A64"></path>
                        <path d="M42.0448647,44.2385587 C42.0207853,44.2075403 42.248966,44.0897855 42.5195722,44.2988722 C42.6411156,44.3982458 42.7695389,44.5763142 42.7529127,44.8210146 C42.7402997,45.0708847 42.5149856,45.2903109 42.2638723,45.3408594 C42.0150522,45.4023217 41.7186466,45.3012248 41.6005431,45.0800754 C41.4812929,44.8658189 41.5214252,44.6498392 41.5890767,44.5079589 C41.744446,44.202945 42.0007192,44.2121357 41.9921194,44.2506214 C42.0064524,44.2925536 41.8430567,44.3591857 41.7857249,44.5849304 C41.7582056,44.6917714 41.7622188,44.8348005 41.8333103,44.9341742 C41.8992419,45.0341222 42.0442914,45.082373 42.1990873,45.049057 C42.3527366,45.0134433 42.463387,44.9071767 42.4800132,44.7888474 C42.5017993,44.6687949 42.4444675,44.5378285 42.3739494,44.4528152 C42.2260333,44.2730236 42.0500246,44.2827886 42.0448647,44.2385587" id="Fill-322" fill="#375A64"></path>
                        <path d="M56.280356,43.3752718 C56.3124618,43.3666556 56.4833107,43.6894763 56.6214803,44.2782507 C56.6833987,44.5706275 56.7269709,44.9497408 56.6140272,45.3575748 C56.5572687,45.5586197 56.4638178,45.7694297 56.2952623,45.9480725 C56.1324399,46.1278641 55.8652736,46.2530864 55.5963874,46.2341307 C55.0557483,46.1807102 54.7008643,45.7992992 54.5007763,45.4420137 C54.3029815,45.0732398 54.2364766,44.7107845 54.1992109,44.4143869 C54.1384392,43.8169962 54.1745582,43.4539665 54.2101039,43.4510944 C54.2565427,43.4464991 54.2961017,43.8141241 54.4073254,44.379922 C54.4680971,44.6590873 54.5552415,44.9933963 54.7392766,45.3053031 C54.9158587,45.6045729 55.2415034,45.9055658 55.6130136,45.9354354 C55.9845238,45.9630073 56.2516901,45.6160611 56.3503008,45.2783057 C56.4603779,44.9365293 56.4466183,44.5959017 56.4133658,44.31329 C56.3342479,43.7457689 56.2327706,43.3873345 56.280356,43.3752718" id="Fill-324" fill="#375A64"></path>
                        <path d="M55.5127976,44.1824959 C55.508211,44.1664123 55.5500633,44.1273521 55.6475274,44.1193103 C55.7432715,44.1089709 55.8911876,44.1474566 56.0224775,44.2657859 C56.1468875,44.3806688 56.2758841,44.5857346 56.2260054,44.8511139 C56.1772734,45.1222373 55.890041,45.3152405 55.6142749,45.3152405 C55.3379355,45.3313241 55.0438233,45.1544045 54.9738785,44.8947694 C54.8999204,44.6426016 54.9945179,44.4254731 55.0982885,44.292209 C55.333349,44.0095973 55.5987953,44.0733572 55.5821691,44.1083965 C55.5879023,44.1532008 55.3952673,44.1824959 55.2731506,44.4111127 C55.2152454,44.5202514 55.1808463,44.6759176 55.2341649,44.8045864 C55.2800304,44.9332551 55.4285198,45.0205661 55.6056751,45.0159707 C55.7816838,45.0102266 55.9255867,44.9125762 55.9582658,44.7856307 C55.9978248,44.6581108 55.9427862,44.5070399 55.8694015,44.4105383 C55.7146056,44.2043236 55.5185308,44.2261514 55.5127976,44.1824959" id="Fill-326" fill="#375A64"></path>
                        <path d="M12.9158848,69.6805077 C12.9158848,69.6805077 12.6366788,70.7575341 12.4899093,71.2745068 C12.3626327,71.7231242 12.3167672,72.1895484 12.3460065,72.6542494 C12.3781123,73.144799 12.4417506,73.7755057 12.5696006,74.1913815 C12.5845068,74.2246975 12.5971198,74.2677786 12.6125994,74.2970737 C12.6498651,74.3677266 12.6641981,74.4395284 12.6693579,74.5096069 C12.7352895,74.9415663 12.3047276,75.3143611 11.9314974,75.0937861 C11.5490941,74.8674669 11.0078817,73.7174899 10.9562831,72.2033343 C10.9545632,72.179209 10.9499766,72.1573812 10.94883,72.1326814 C10.8542325,70.5966981 9.48572188,72.5583223 8.97432203,73.2637028 C8.97432203,73.2637028 8.82640593,73.4963405 8.50248114,73.6893436 C8.17798303,73.8811979 7.69639573,73.3441207 7.69639573,73.3441207 C7.69639573,73.3441207 5.30737872,71.1383706 5.15086285,70.1699085 C4.99377366,69.2008719 7.39540367,66.2650415 7.39540367,66.2650415 L12.9158848,69.6805077 Z" id="Fill-328" fill="#FFBF9D"></path>
                        <path d="M55.2541164,31.8651048 C57.2681833,38.1135813 58.4205529,43.8140667 60.4346198,50.0619688 C60.5326572,50.364685 60.6868798,50.7185241 61.0010582,50.7639028 C61.490672,50.8351301 61.6792937,50.1481309 61.6684006,49.6529859 C61.6110688,46.8659288 61.348489,44.4499431 61.2905839,41.6634603 C61.2343987,38.9349934 60.2947302,35.2455317 59.631401,33.4763363 C58.9210597,31.5813442 57.2716232,31.7651567 55.2541164,31.8651048" id="Fill-330" fill="#375A64"></path>
                        <path d="M31.1350204,33.4189523 C33.5532766,36.2588556 32.9025604,39.6501964 31.6257808,43.1569944 C30.3495744,46.6649413 28.2569629,49.8764905 27.4216383,53.5148293 C27.1808446,54.5648583 27.1877245,55.9285173 28.1474591,56.412174 C28.9770506,56.8309219 29.9562781,56.2881006 30.6849656,55.71024 C36.0082252,51.4917429 38.6993809,44.4500005 38.441961,37.6552562 C38.3874958,36.2163489 38.2028873,34.7481465 37.5521712,33.464331 C36.9020283,32.18109 35.714113,31.1011915 34.2911372,30.9001465 C32.8687347,30.6991016 31.2812165,31.579104 30.9664648,32.9835464" id="Fill-332" fill="#375A64"></path>
                        <path d="M32.5125894,40.1699567 C32.5217625,40.1711325 32.5183226,40.2538482 32.5034163,40.4112376 C32.4890833,40.5692015 32.4586975,40.8024136 32.3990724,41.1005345 C32.2878486,41.6979252 32.0315754,42.5526534 31.5987201,43.5705151 C30.7559424,45.603941 29.5147084,48.442121 28.0968925,51.7007722 L28.0945992,51.7070907 L28.090586,51.7139837 C27.7930338,52.2372749 27.4736956,52.7634382 27.2265954,53.3286617 C26.9640157,53.878376 26.9204435,54.5142524 27.0184809,55.1305987 C27.0660663,55.3879362 27.1526374,55.6383808 27.3011268,55.8267886 C27.4496162,56.0083034 27.6703437,56.151907 27.9036842,56.2288785 C28.3760985,56.3914376 28.9115777,56.3426124 29.3730988,56.1725859 C30.2932746,55.7647519 31.1314658,55.1501288 31.8481136,54.5389522 C32.2121706,54.2322151 32.501123,53.8772272 32.7992485,53.527409 C33.0904941,53.1770164 33.3685535,52.8323679 33.62712,52.4923148 C34.145973,51.8127829 34.5960278,51.1550788 34.9807243,50.5375836 C35.7501173,49.3025933 36.2620905,48.2370552 36.6078014,47.4989331 C36.7660372,47.151987 36.8950338,46.8688008 36.9982311,46.6436305 C37.0876687,46.4477553 37.1392674,46.3466584 37.1490138,46.3506793 C37.1587602,46.3547002 37.1255077,46.4626901 37.053843,46.6666071 C36.9833248,46.8699497 36.8692345,47.1669217 36.7138653,47.5454606 C36.4002602,48.3008152 35.9146597,49.3876066 35.1607462,50.6478711 C34.7840762,51.2780034 34.3397545,51.9494935 33.8249148,52.6416625 C33.5674949,52.9880342 33.2911555,53.3390012 33.0016298,53.6951379 C32.7109575,54.0438073 32.4048056,54.4246438 32.0304288,54.7451669 C31.2862617,55.3850642 30.4750164,55.9985384 29.4762961,56.4471558 C28.9597364,56.6378613 28.3674987,56.6993236 27.8067935,56.5103414 C27.5281608,56.4161375 27.2678743,56.2553015 27.067213,56.0117499 C26.874578,55.7647519 26.7794072,55.4729495 26.724942,55.1851681 C26.6131449,54.5165501 26.6710501,53.8059998 26.9548426,53.2103324 C27.2151291,52.6186859 27.5419204,52.0867784 27.838326,51.5698058 L27.8320195,51.5818685 C29.2647417,48.3599798 30.515722,45.5476484 31.427298,43.4969901 C31.881366,42.4952119 32.160572,41.6646092 32.301035,41.0781324 C32.4455111,40.4933788 32.4908033,40.1665372 32.5125894,40.1699567" id="Fill-334" fill="#1A2E35"></path>
                    </g>
                </g>
                <rect id="Rectangle" x="0" y="0" width="148" height="130"></rect>
            </g>
        </g>
    </g>
</svg>