<?xml version="1.0" encoding="UTF-8"?>
<svg xmlns="http://www.w3.org/2000/svg" viewBox="0 0 26 14" id="switchlayout">
<path xmlns="http://www.w3.org/2000/svg" fill="none" stroke="#004EA3" d="M19,1.5H7C4,1.5,1.5,4,1.5,7S4,12.5,7,12.5h12c3,0,5.5-2.5,5.5-5.5S22,1.5,19,1.5z M19,11c-2.2,0-4-1.8-4-4 s1.8-4,4-4s4,1.8,4,4S21.2,11,19,11z"></path><path stroke="#004EA3" fill="#004EA3" xmlns="http://www.w3.org/2000/svg" d="M19,0.5H7C3.4,0.5,0.5,3.4,0.5,7s2.9,6.5,6.5,6.5h12c3.6,0,6.5-2.9,6.5-6.5S22.6,0.5,19,0.5z M19,12.5H7 C4,12.5,1.5,10,1.5,7S4,1.5,7,1.5h12c3,0,5.5,2.5,5.5,5.5S22,12.5,19,12.5z M19,3c-2.2,0-4,1.8-4,4s1.8,4,4,4s4-1.8,4-4 S21.2,3,19,3z"></path>
    </svg>