<?xml version="1.0" encoding="UTF-8"?>
<svg width="328px" height="231px" viewBox="0 0 328 231" version="1.1" xmlns="http://www.w3.org/2000/svg" xmlns:xlink="http://www.w3.org/1999/xlink">
    <title>ic_switchNewExperience4</title>
    <defs>
        <rect id="path-1" x="0" y="0" width="239.015773" height="231"></rect>
    </defs>
    <g id="ic_switchNewExperience4" stroke="none" stroke-width="1" fill="none" fill-rule="evenodd">
        <g id="ic_switchNewExperience" transform="translate(44.000000, 0.000000)">
            <mask id="mask-2" fill="white">
                <use xlink:href="#path-1"></use>
            </mask>
            <g id="path-1"></g>
            <g id="Group-23" mask="url(#mask-2)">
                <g transform="translate(15.302839, 6.558360)" id="Group">
                    <path d="M50.7820226,134.082019 C69.2716981,134.082019 71.583246,216.160803 71.583246,216.160803 C71.583246,216.160803 78.0547681,178.599406 90.0735983,178.599406 C102.091752,178.599406 87.7620505,220.33399 93.7711271,219.406842 C99.7808814,218.479693 95.6202304,141.965158 112.723925,162.368536 C129.826943,182.772593 121.968763,214.305827 140.459116,213.841913 C158.948791,213.378679 133.987594,199.002784 144.619089,185.090803 C155.251262,171.179502 182.061562,203.639885 184.373111,211.986937 C184.373111,211.986937 182.986453,167.005636 195.467051,167.005636 C207.948326,167.005636 208.410095,231.463846 208.410095,231.463846 L14.2637624,236.100946 C14.2637624,236.100946 -5.15080309,183.236507 1.32071874,167.005636 C7.79224058,150.776124 29.5183541,184.163655 33.6783279,196.684573 L33.6779634,196.667376 C33.6752404,196.535952 33.6581047,195.656169 33.6551679,194.196498 L33.65514,193.347106 C33.6796531,180.382868 34.8803193,134.082019 50.7820226,134.082019 Z M111.108141,181.085449 L111.035416,181.088484 C110.79241,181.116748 110.611996,181.319804 110.604486,181.55796 L110.607531,181.630321 L115.804798,226.599461 L115.816831,226.664832 C115.876271,226.898099 116.099884,227.057209 116.344916,227.028708 C116.587922,227.000444 116.768336,226.797389 116.775846,226.559232 L116.772801,226.486871 L111.575534,181.517731 L111.563501,181.45236 C111.51595,181.265747 111.363326,181.126594 111.178723,181.092989 L111.108141,181.085449 Z M11.8194222,180.991859 C11.7176899,180.775938 11.4760233,180.66625 11.2510372,180.744438 C11.0055978,180.829733 10.8729525,181.106316 10.9547656,181.362202 L10.9547656,181.362202 L25.3204576,226.293683 L25.3446156,226.355144 C25.446348,226.571065 25.6880145,226.680753 25.9130007,226.602565 C26.1584401,226.51727 26.2910854,226.240687 26.2092722,225.984801 L26.2092722,225.984801 L11.8435803,181.05332 L11.8194222,180.991859 Z M197.517652,188.906363 L197.445492,188.908595 C197.202181,188.934087 197.019477,189.135074 197.009271,189.373129 L197.011496,189.445519 L197.187642,191.266545 L197.315144,192.684825 C197.413347,193.808064 197.51061,194.994403 197.604167,196.228361 L197.659835,196.974327 L197.732867,197.99162 C197.970229,201.376274 198.146089,204.693458 198.237943,207.81663 C198.475592,215.897091 198.125245,221.775196 197.045653,224.40165 C196.94307,224.651219 197.061582,224.93696 197.310359,225.039871 C197.559136,225.142781 197.84397,225.023892 197.946554,224.774323 C199.038626,222.117507 199.414476,216.637111 199.245276,209.069971 L199.234911,208.631095 L199.212006,207.7878 C199.120653,204.681661 198.946721,201.386903 198.712111,198.025337 L198.631689,196.902507 L198.583881,196.260402 C198.50683,195.239584 198.427207,194.250806 198.346555,193.302667 L198.285896,192.599317 L198.184331,191.463123 C198.157633,191.17097 198.131887,190.894329 198.10725,190.634086 L198.082989,190.379342 L197.980711,189.343973 C197.957842,189.124296 197.793272,188.953868 197.587595,188.914514 L197.517652,188.906363 Z M154.891711,195.601862 C154.738039,195.789646 154.747124,196.057907 154.902101,196.234552 L154.959139,196.289805 L155.58022,196.8218 L156.161868,197.33823 C156.6338,197.762999 157.141923,198.233891 157.678982,198.747811 C159.725671,200.706318 161.772522,202.883334 163.681856,205.219614 C168.754688,211.426781 171.937381,217.599624 172.32295,223.317523 C172.341113,223.586862 172.573485,223.790433 172.841969,223.772213 C173.110452,223.753993 173.313378,223.520882 173.295216,223.251543 C172.8931,217.288254 169.62504,210.949845 164.43545,204.599809 C162.499006,202.230359 160.425382,200.024867 158.351596,198.04043 C157.625508,197.345626 156.950992,196.727846 156.345184,196.194302 C156.18583,196.053956 156.039763,195.926988 155.907888,195.813777 L155.780777,195.705167 L155.577472,195.53422 C155.369484,195.362929 155.062459,195.393213 154.891711,195.601862 Z M52.2974443,154.364438 C52.0528103,154.364438 51.8502846,154.545297 51.8154834,154.781002 L51.8102004,154.853232 L51.8102004,221.981079 L51.8146484,222.047406 C51.846912,222.285988 52.0507717,222.469875 52.2974443,222.469875 C52.5420783,222.469875 52.744604,222.289014 52.7794051,222.05331 L52.7846881,221.981079 L52.7846881,154.853232 L52.7802401,154.786906 C52.7479765,154.548325 52.5441168,154.364438 52.2974443,154.364438 Z" id="Combined-Shape-Copy-2" fill="#F5F5EF" fill-rule="nonzero" opacity="0.0962146577"></path>
                    <g id="Group-17" transform="translate(30.605678, 192.378549)">
                        <path d="M132.595237,36.8171048 C132.595237,36.8171048 123.142317,37.2206638 121.440513,34.9225725 C119.738988,32.6247626 124.893391,32.5704482 124.893391,32.5704482 C124.893391,32.5704482 117.567446,31.3068638 116.032557,27.7271771 C114.497668,24.1477718 123.972457,24.5358526 123.972457,24.5358526 C123.972457,24.5358526 117.694499,20.2137749 116.871279,15.8956371 C116.048058,11.5774993 135.535746,23.9876427 135.535746,23.9876427 C135.535746,23.9876427 135.882584,16.8535973 137.552277,15.9828779 C137.552277,15.9828779 141.187846,13.933845 139.785547,23.3944053 C139.785547,23.3944053 145.242775,17.730508 146.947069,20.2720293 C148.651086,22.8135505 141.143834,27.2805605 141.143834,27.2805605 L132.595237,36.8171048 Z" id="Fill-1" fill="#FF4E00" fill-rule="nonzero"></path>
                        <path d="M137.975502,19.3554104 C137.975502,19.3554104 135.553965,21.8411639 138.329076,30.2860098 C138.329076,30.2860098 139.588198,23.8694573 145.012618,21.7852888" id="Stroke-7" stroke="#4A00B2" stroke-linecap="round"></path>
                        <path d="M127.338037,41.9453158 C127.338037,41.9453158 122.857674,31.5510811 124.096777,30.8713667 C125.336155,30.1913727 128.48193,34.8540292 128.48193,34.8540292 C128.48193,34.8540292 127.528731,29.1193754 130.007212,27.7124141 C132.485693,26.3054527 133.724796,33.1053931 133.724796,33.1053931 C133.724796,33.1053931 138.395853,25.7196848 141.351208,27.7124141 C144.306287,29.7057025 138.014739,36.6996873 138.014739,36.6996873 C138.014739,36.6996873 144.020383,33.2024153 144.878097,35.9226711 C145.736086,38.6423677 142.209196,41.9453158 142.209196,41.9453158 L127.338037,41.9453158 Z" id="Fill-9" fill="#FFEA54" fill-rule="nonzero"></path>
                        <path d="M130.438486,33.3631151 C130.438486,33.3631151 132.479882,38.6669689 132.479882,41.9453158 L133.860856,41.9453158 C133.860856,41.9453158 136.46829,33.9461824 138.454259,31.743423" id="Stroke-11" stroke="#4A00B2" stroke-linecap="round"></path>
                        <path d="M7.04864683,41.5300045 C7.04864683,41.5300045 -0.4397921,34.5594898 0.0203710798,31.5483467 C0.48053426,28.5372037 4.43715814,32.4606888 4.43715814,32.4606888 C4.43715814,32.4606888 -0.163638516,25.8909975 1.40058224,22.0586084 C2.96508138,18.2262195 9.86641553,25.7999013 9.86641553,25.7999013 C9.86641553,25.7999013 8.39406044,17.7699104 11.0626171,13.9375213 C13.7311739,10.1051324 19.0682873,34.2859252 19.0682873,34.2859252 C19.0682873,34.2859252 24.7734199,29.2670773 26.7059382,29.9061309 C26.7059382,29.9061309 31.0308597,31.1836859 22.7490359,37.1145998 C22.7490359,37.1145998 31.2148692,37.1145998 30.5706965,40.3082114 C29.9265237,43.5020989 20.816796,41.038361 20.816796,41.038361 L7.04864683,41.5300045 Z" id="Fill-15" fill="#FF4E00" fill-rule="nonzero"></path>
                        <path d="M5.10094637,25.9250197 C5.10094637,25.9250197 13.9385173,32.8316973 16.0312315,41.2166092 C16.0312315,41.2166092 16.1442986,30.6183787 12.0811051,20.084117" id="Stroke-19" stroke="#4A00B2" stroke-linecap="round"></path>
                        <path d="M15.7441511,22.2702369 C15.7441511,22.2702369 4.68138113,17.8048774 5.1132708,16.3182931 C5.54488952,14.8317088 11.3640203,15.9496606 11.3640203,15.9496606 C11.3640203,15.9496606 6.40595939,12.3023009 7.2345156,9.29325024 C8.06334277,6.28419952 14.0249917,10.5241745 14.0249917,10.5241745 C14.0249917,10.5241745 12.0866362,1.22874765 15.7885864,0.451115214 C19.4902656,-0.326517228 19.9167363,9.93211987 19.9167363,9.93211987 C19.9167363,9.93211987 21.8599689,2.57376585 24.5176889,3.98746462 C27.175409,5.4011634 26.9578385,10.6789161 26.9578385,10.6789161 L15.7441511,22.2702369 Z" id="Fill-23" fill="#FFEA54" fill-rule="nonzero"></path>
                        <path d="M10.2018927,10.8654519 C10.2018927,10.8654519 15.9959271,13.2454123 18.5464326,15.7118773 L19.6750789,14.6221884 C19.6750789,14.6221884 15.5826871,6.54751608 15.4920372,3.32386465" id="Stroke-25" stroke="#4A00B2" stroke-linecap="round"></path>
                    </g>
                    <path d="M150.842271,36.0709779 C153.961286,36.0709779 156.785025,37.3352086 158.829009,39.379193 C160.872993,41.4231774 162.137224,44.2469155 162.137224,47.3659306 L162.137224,47.3659306 L162.137224,224.077287 L46.2728707,224.077287 L46.2728707,47.3659306 C46.2728707,44.2469155 47.5371013,41.4231774 49.5810857,39.379193 C51.6250701,37.3352086 54.4488083,36.0709779 57.5678233,36.0709779 L57.5678233,36.0709779 L150.842271,36.0709779 Z" id="Rectangle" stroke="#FFFFFF" fill="#024F9D" fill-rule="nonzero"></path>
                    <g id="Group-16" transform="translate(50.280757, 44.451104)">
                        <rect id="Mask" fill="#F3F7FB" fill-rule="nonzero" x="0" y="19.6750789" width="107.84858" height="160.315457"></rect>
                        <g id="Rectangle">
                            <g id="path-3-link" fill="#000000" fill-rule="nonzero">
                                <path d="M11.659306,0 L96.1892744,0 C102.628531,0 107.84858,5.2200491 107.84858,11.659306 L107.84858,55.3817035 L107.84858,55.3817035 L11.659306,55.3817035 C5.2200491,55.3817035 0,50.1616544 0,43.7223975 L0,11.659306 C0,5.2200491 5.2200491,0 11.659306,0 Z" id="path-3"></path>
                            </g>
                            <g id="path-3-link" fill="#FFD954">
                                <path d="M11.659306,0 L96.1892744,0 C102.628531,0 107.84858,5.2200491 107.84858,11.659306 L107.84858,55.3817035 L107.84858,55.3817035 L11.659306,55.3817035 C5.2200491,55.3817035 0,50.1616544 0,43.7223975 L0,11.659306 C0,5.2200491 5.2200491,0 11.659306,0 Z" id="path-3"></path>
                            </g>
                        </g>
                        <g id="notification" transform="translate(94.731861, 7.287066)" fill="#333333" fill-rule="nonzero">
                            <path d="M3.92227415,5.60543557 C3.89318857,6.13660603 3.45326045,6.55835962 2.9148265,6.55835962 C2.37639255,6.55835962 1.93646442,6.13660603 1.90737885,5.60543557 L0.33661181,5.60543557 C0.150515844,5.60543557 0,5.45530075 0,5.26944239 L0,4.93278331 C0,4.56163037 0.301422656,4.26013104 0.672886229,4.26013104 C0.672449879,4.26013104 0.672652269,2.91474235 0.672652269,2.91474235 C0.672652269,1.96712583 1.2652417,1.13630099 2.13006552,0.813772688 L2.13006552,0.784228845 C2.13006552,0.351241694 2.48191389,0 2.9148265,0 C3.34820352,0 3.69958748,0.351030324 3.69958748,0.784228845 L3.69958748,0.813791372 C4.56438996,1.13636262 5.15700073,1.96732542 5.15700073,2.91474235 L5.15700073,4.2599356 C5.52767611,4.26013104 5.829653,4.56151339 5.829653,4.93278331 L5.829653,5.26944239 C5.829653,5.45456452 5.67864274,5.60543557 5.49304119,5.60543557 L3.92227415,5.60543557 Z M5.20657413,4.99029508 L5.20657413,4.78195438 C5.20657413,4.66728472 5.11271831,4.57361368 4.99801604,4.57361368 C4.76778184,4.57361368 4.58155205,4.38747432 4.58155205,4.1567507 L4.58155205,2.90680995 C4.58155205,2.15936309 4.08526886,1.50930886 3.37793211,1.30526071 L3.22733754,1.26181811 L3.22733754,0.927157085 C3.22733754,0.754853894 3.08748339,0.6151405 2.9148265,0.6151405 C2.74253418,0.6151405 2.60231546,0.755117452 2.60231546,0.927157085 L2.60231546,1.26181477 L2.45171278,1.3052531 C1.74434656,1.50927875 1.24810094,2.15918084 1.24810094,2.90680995 L1.24810094,4.1567507 C1.24810094,4.3868136 1.06141563,4.57361368 0.831636953,4.57361368 C0.716627044,4.57361368 0.623078864,4.66718567 0.623078864,4.78195438 L0.623078864,4.99029508 L5.20657413,4.99029508 Z" id="Shape"></path>
                        </g>
                        <g id="Group-13" stroke-linecap="round" transform="translate(6.558360, 8.015773)" stroke="#333333">
                            <line x1="0" y1="0.728706625" x2="6.55835962" y2="0.728706625" id="Stroke-7"></line>
                            <line x1="0" y1="2.9148265" x2="3.64353312" y2="2.9148265" id="Stroke-9"></line>
                            <line x1="0" y1="5.10094637" x2="6.55835962" y2="5.10094637" id="Stroke-11"></line>
                        </g>
                        <g id="Rectangle-Copy-22" transform="translate(4.372240, 34.249211)">
                            <g id="path-5-link" fill="#000000" fill-rule="nonzero">
                                <rect id="path-5" x="0" y="0" width="98.3753943" height="15.3028391" rx="4"></rect>
                            </g>
                            <g id="path-5-link" fill="#FFD954">
                                <rect id="path-5" x="0" y="0" width="98.3753943" height="15.3028391" rx="4"></rect>
                            </g>
                        </g>
                        <rect id="Rectangle-Copy-3" fill-opacity="0.6" fill="#FF8B2E" fill-rule="nonzero" x="4.37223975" y="96.1892744" width="78.7003155" height="21.1324921" rx="8"></rect>
                        <path d="M91.0883281,96.1892744 L107.84858,96.1892744 L107.84858,96.1892744 L107.84858,117.321767 L91.0883281,117.321767 C87.8686996,117.321767 85.2586751,114.711742 85.2586751,111.492114 L85.2586751,102.018927 C85.2586751,98.799299 87.8686996,96.1892744 91.0883281,96.1892744 Z" id="Rectangle-Copy-26" fill-opacity="0.6" fill="#F7B500" fill-rule="nonzero"></path>
                        <path d="M91.0883281,121.694006 L107.84858,121.694006 L107.84858,121.694006 L107.84858,142.826498 L91.0883281,142.826498 C87.8686996,142.826498 85.2586751,140.216474 85.2586751,136.996845 L85.2586751,127.523659 C85.2586751,124.304031 87.8686996,121.694006 91.0883281,121.694006 Z" id="Rectangle-Copy-28" fill-opacity="0.6" fill="#B620E0" fill-rule="nonzero"></path>
                        <rect id="Rectangle-Copy-33" fill-opacity="0.6" fill="#8F98FF" fill-rule="nonzero" x="4.37223975" y="121.694006" width="78.7003155" height="21.1324921" rx="8"></rect>
                        <g id="Mask-Copy-14" opacity="0.754561" transform="translate(4.372240, 154.485804)">
                            <g id="path-7-link" fill="#000000" fill-rule="nonzero">
                                <rect id="path-7" x="0" y="0" width="23.318612" height="23.318612" rx="4"></rect>
                            </g>
                            <g id="path-7-link" fill="#FFFFFF">
                                <rect id="path-7" x="0" y="0" width="23.318612" height="23.318612" rx="4"></rect>
                            </g>
                        </g>
                        <g id="Mask-Copy-14" transform="translate(9.473186, 150.113565)">
                            <g id="path-9-link" fill="#000000" fill-rule="nonzero">
                                <rect id="path-9" x="0" y="0" width="13.1167192" height="13.1167192" rx="4"></rect>
                            </g>
                            <g id="path-9-link" fill="#FFFFFF">
                                <rect id="path-9" x="0" y="0" width="13.1167192" height="13.1167192" rx="4"></rect>
                            </g>
                        </g>
                        <g id="Mask-Copy-15" opacity="0.754561" transform="translate(29.876972, 154.485804)">
                            <g id="path-11-link" fill="#000000" fill-rule="nonzero">
                                <rect id="path-11" x="0" y="0" width="23.318612" height="23.318612" rx="4"></rect>
                            </g>
                            <g id="path-11-link" fill="#FFFFFF">
                                <rect id="path-11" x="0" y="0" width="23.318612" height="23.318612" rx="4"></rect>
                            </g>
                        </g>
                        <g id="Mask-Copy-17" opacity="0.754561" transform="translate(54.652997, 154.485804)">
                            <g id="path-13-link" fill="#000000" fill-rule="nonzero">
                                <rect id="path-13" x="0" y="0" width="23.318612" height="23.318612" rx="4"></rect>
                            </g>
                            <g id="path-13-link" fill="#FFFFFF">
                                <rect id="path-13" x="0" y="0" width="23.318612" height="23.318612" rx="4"></rect>
                            </g>
                        </g>
                        <g id="Mask-Copy-20" transform="translate(59.753943, 150.113565)">
                            <g id="path-15-link" fill="#000000" fill-rule="nonzero">
                                <rect id="path-15" x="0" y="0" width="13.1167192" height="13.1167192" rx="4"></rect>
                            </g>
                            <g id="path-15-link" fill="#FFFFFF">
                                <rect id="path-15" x="0" y="0" width="13.1167192" height="13.1167192" rx="4"></rect>
                            </g>
                        </g>
                        <g id="Mask-Copy-18" opacity="0.754561" transform="translate(79.429022, 154.485804)">
                            <g id="path-17-link" fill="#000000" fill-rule="nonzero">
                                <rect id="path-17" x="0" y="0" width="23.318612" height="23.318612" rx="4"></rect>
                            </g>
                            <g id="path-17-link" fill="#FFFFFF">
                                <rect id="path-17" x="0" y="0" width="23.318612" height="23.318612" rx="4"></rect>
                            </g>
                        </g>
                        <g id="Mask-Copy-16" transform="translate(34.977918, 150.113565)">
                            <g id="path-19-link" fill="#000000" fill-rule="nonzero">
                                <rect id="path-19" x="0" y="0" width="13.1167192" height="13.1167192" rx="4"></rect>
                            </g>
                            <g id="path-19-link" fill="#FFFFFF">
                                <rect id="path-19" x="0" y="0" width="13.1167192" height="13.1167192" rx="4"></rect>
                            </g>
                        </g>
                        <g id="Mask-Copy-21" transform="translate(84.529968, 150.113565)">
                            <g id="path-21-link" fill="#000000" fill-rule="nonzero">
                                <rect id="path-21" x="0" y="0" width="13.1167192" height="13.1167192" rx="4"></rect>
                            </g>
                            <g id="path-21-link" fill="#FFFFFF">
                                <rect id="path-21" x="0" y="0" width="13.1167192" height="13.1167192" rx="4"></rect>
                            </g>
                        </g>
                        <g id="Rectangle-Copy-21" transform="translate(5.829653, 61.211356)">
                            <g id="path-23-link" fill="#000000" fill-rule="nonzero">
                                <rect id="path-23" x="0" y="0" width="77.2429022" height="29.148265" rx="8"></rect>
                            </g>
                            <g id="path-23-link" fill="#FFFFFF">
                                <rect id="path-23" x="0" y="0" width="77.2429022" height="29.148265" rx="8"></rect>
                            </g>
                        </g>
                        <g id="Rectangle-Copy-20" transform="translate(85.258675, 61.211356)">
                            <g id="path-25-link" fill="#000000" fill-rule="nonzero">
                                <path d="M5.829653,0 L22.5899054,0 L22.5899054,0 L22.5899054,29.148265 L5.829653,29.148265 C2.61002455,29.148265 0,26.5382404 0,23.318612 L0,5.829653 C0,2.61002455 2.61002455,0 5.829653,0 Z" id="path-25"></path>
                            </g>
                            <g id="path-25-link" fill="#FFFFFF">
                                <path d="M5.829653,0 L22.5899054,0 L22.5899054,0 L22.5899054,29.148265 L5.829653,29.148265 C2.61002455,29.148265 0,26.5382404 0,23.318612 L0,5.829653 C0,2.61002455 2.61002455,0 5.829653,0 Z" id="path-25"></path>
                            </g>
                        </g>
                    </g>
                    <g id="Group-13-Copy" transform="translate(4.372240, 13.845426)" stroke="#FFFFFF">
                        <line x1="10.2018927" y1="9.47318612" x2="10.2018927" y2="0" id="Stroke-1"></line>
                        <line x1="9.47318612" y1="9.47318612" x2="2.9148265" y2="2.9148265" id="Stroke-3"></line>
                        <line x1="9.47318612" y1="10.2018927" x2="0" y2="10.2018927" id="Stroke-4"></line>
                        <line x1="9.47318612" y1="10.9305994" x2="2.9148265" y2="17.488959" id="Stroke-6"></line>
                        <line x1="10.2018927" y1="20.4037855" x2="10.2018927" y2="10.9305994" id="Stroke-7"></line>
                        <line x1="17.488959" y1="17.488959" x2="10.9305994" y2="10.9305994" id="Stroke-9"></line>
                        <line x1="20.4037855" y1="10.2018927" x2="10.9305994" y2="10.2018927" id="Stroke-10"></line>
                        <line x1="17.488959" y1="2.9148265" x2="10.9305994" y2="9.47318612" id="Stroke-12"></line>
                    </g>
                    <g id="Group-13-Copy-3" transform="translate(16.031546, 151.570978)" stroke="#FFDF5D">
                        <line x1="5.10094637" y1="5.10094637" x2="5.10094637" y2="0" id="Stroke-1"></line>
                        <line x1="4.37223975" y1="4.37223975" x2="1.45741325" y2="1.45741325" id="Stroke-3"></line>
                        <line x1="5.10094637" y1="5.10094637" x2="0" y2="5.10094637" id="Stroke-4"></line>
                        <line x1="4.37223975" y1="5.829653" x2="1.45741325" y2="8.7444795" id="Stroke-6"></line>
                        <line x1="5.10094637" y1="10.2018927" x2="5.10094637" y2="5.10094637" id="Stroke-7"></line>
                        <line x1="8.7444795" y1="8.7444795" x2="5.829653" y2="5.829653" id="Stroke-9"></line>
                        <line x1="10.2018927" y1="5.10094637" x2="5.10094637" y2="5.10094637" id="Stroke-10"></line>
                        <line x1="8.7444795" y1="1.45741325" x2="5.829653" y2="4.37223975" id="Stroke-12"></line>
                    </g>
                    <g id="Group-13" transform="translate(188.006309, 0.000000)" stroke="#FFD954">
                        <line x1="8.7444795" y1="8.01577287" x2="8.7444795" y2="0" id="Stroke-1"></line>
                        <line x1="8.01577287" y1="8.01577287" x2="2.9148265" y2="2.9148265" id="Stroke-3"></line>
                        <line x1="8.01577287" y1="8.7444795" x2="0" y2="8.7444795" id="Stroke-4"></line>
                        <line x1="8.01577287" y1="9.47318612" x2="2.9148265" y2="14.5741325" id="Stroke-6"></line>
                        <line x1="8.7444795" y1="17.488959" x2="8.7444795" y2="9.47318612" id="Stroke-7"></line>
                        <line x1="14.5741325" y1="14.5741325" x2="9.47318612" y2="9.47318612" id="Stroke-9"></line>
                        <line x1="17.488959" y1="8.7444795" x2="9.47318612" y2="8.7444795" id="Stroke-10"></line>
                        <line x1="14.5741325" y1="2.9148265" x2="9.47318612" y2="8.01577287" id="Stroke-12"></line>
                    </g>
                    <g id="Group-13-Copy-2" transform="translate(182.176656, 121.694006)" stroke="#FFFFFF">
                        <line x1="5.10094637" y1="5.10094637" x2="5.10094637" y2="0" id="Stroke-1"></line>
                        <line x1="4.37223975" y1="4.37223975" x2="1.45741325" y2="1.45741325" id="Stroke-3"></line>
                        <line x1="5.10094637" y1="5.10094637" x2="0" y2="5.10094637" id="Stroke-4"></line>
                        <line x1="4.37223975" y1="5.829653" x2="1.45741325" y2="8.7444795" id="Stroke-6"></line>
                        <line x1="5.10094637" y1="10.2018927" x2="5.10094637" y2="5.10094637" id="Stroke-7"></line>
                        <line x1="8.7444795" y1="8.7444795" x2="5.829653" y2="5.829653" id="Stroke-9"></line>
                        <line x1="10.2018927" y1="5.10094637" x2="5.10094637" y2="5.10094637" id="Stroke-10"></line>
                        <line x1="8.7444795" y1="1.45741325" x2="5.829653" y2="4.37223975" id="Stroke-12"></line>
                    </g>
                </g>
            </g>
        </g>
    </g>
</svg>