<?xml version="1.0" encoding="UTF-8"?>
<svg width="131px" height="125px" viewBox="0 0 131 125" version="1.1" xmlns="http://www.w3.org/2000/svg" xmlns:xlink="http://www.w3.org/1999/xlink">
    <!-- Generator: sketchtool 63.1 (101010) - https://sketch.com -->
    <title>09AC5C28-4B9B-484A-98E6-DCB20C8207D0</title>
    <desc>Created with sketchtool.</desc>
    <defs>
        <rect id="path-1" x="0" y="0" width="148" height="130" rx="1"></rect>
    </defs>
    <g id="Onboarding-FTUE-01" stroke="none" stroke-width="1" fill="none" fill-rule="evenodd">
        <g id="User-Role-Selection" transform="translate(-32.000000, -153.000000)">
            <g id="Group-160" transform="translate(20.000000, 148.000000)">
                <mask id="mask-2" fill="white">
                    <use xlink:href="#path-1"></use>
                </mask>
                <g id="Mask"></g>
                <path d="M98.2740986,27.2904075 C117.687458,34.6148436 129.574934,55.4352695 127.061415,78.4690866 C125.757035,90.4217486 118.393665,115.034783 116.179382,119.268093 C101.240233,147.829046 56.0031636,131.663689 36.3542909,117.887843 C14.0738147,102.267547 20.3801585,69.2570653 38.3247115,49.1947721 C45.5591925,41.1068014 53.59749,28.2192357 63.9057195,23.8375967 C74.7823837,19.2141917 88.0034803,23.4154141 98.2740986,27.2904075 Z" id="Fill-1" fill="#94EED3" opacity="0.811351" mask="url(#mask-2)" transform="translate(74.746426, 78.450101) rotate(87.000000) translate(-74.746426, -78.450101) "></path>
                <path d="M27.204,61.894 C27.652,61.754 27.883,61.509 27.897,61.159 L27.897,61.159 L27.33,60.823 L27.183,60.487 L26.805,60.298 L26.721,60.13 L26.364,59.773 L25.86,58.996 L25.671,58.807 L25.713,58.576 L25.23,57.904 L25.188,57.526 L24.915,57.148 L24.873,56.665 L24.894,56.539 L25.44,56.413 L25.44,56.497 L25.902,56.455 L26.112,56.35 L26.595,56.413 L27.183,55.993 L27.498,56.098 C27.708,55.986 27.813,55.825 27.813,55.615 C27.813,55.559 27.799,55.475 27.771,55.363 L27.771,55.363 L27.141,55.321 C26.861,55.181 26.651,55.111 26.511,55.111 C26.315,55.111 26.1715,55.1425 26.0805,55.2055 C25.9895,55.2685 25.902,55.3 25.818,55.3 C25.762,55.3 25.678,55.286 25.566,55.258 L25.566,55.258 L24.936,55.258 C24.852,55.286 24.719,55.307 24.537,55.321 C24.453,55.209 24.411,55.153 24.411,55.153 L24.411,55.153 L24.3135,55.056 C24.3239286,55.0249524 24.3368571,54.9725714 24.3522857,54.8988571 L24.369,54.817 L24.327,54.502 L24.327,54.082 L24.159,53.935 L24.243,53.788 L23.865,53.326 L23.823,52.99 L23.634,52.297 L23.319,51.835 L23.193,51.31 C23.165,51.058 23.053,50.813 22.857,50.575 C22.815,50.491 22.759,50.407 22.689,50.323 L22.689,50.323 L22.626,49.777 L22.038,49.462 L21.576,49 L21.177,49.336 C20.967,49.35 20.694,49.56 20.358,49.966 L20.358,49.966 L20.463,50.281 L20.358,50.365 C20.358,50.477 20.183,50.722 19.833,51.1 L19.833,51.1 L19.686,51.1 L19.686,51.667 L19.518,51.751 L19.413,51.709 L19.014,52.465 L18.867,52.486 L18.762,52.675 L18.468,52.738 C18.454,53.102 18.3,53.389 18.006,53.599 C17.95,53.697 17.922,53.809 17.922,53.935 L17.922,53.935 L17.922,54.061 C17.81,54.103 17.733,54.138 17.691,54.166 L17.691,54.166 L17.25,54.397 L17.208,54.796 C16.998,54.894 16.858,55.062 16.788,55.3 L16.788,55.3 L16.578,55.405 L15.759,55.342 L15.759,55.741 L15.318,56.098 C15.374,56.336 15.458,56.532 15.57,56.686 L15.57,56.686 L15.045,57.463 L14.688,57.589 C14.576,58.009 14.331,58.317 13.953,58.513 C13.897,58.723 13.743,58.863 13.491,58.933 C13.463,59.129 13.365,59.276 13.197,59.374 L13.197,59.374 L13.029,59.479 L12.378,59.563 L12.336,59.983 L12.252,60.088 L12.252,60.403 L12,60.928 C12.238,61.124 12.49,61.222 12.756,61.222 C12.84,61.222 12.952,61.208 13.092,61.18 L13.092,61.18 L13.89,60.739 L14.31,60.088 L14.394,60.088 L15.066,59.269 L15.15,59.248 C15.29,59.192 15.626,58.779 16.158,58.009 L16.158,58.009 L16.494,57.925 C16.634,57.757 16.858,57.47 17.166,57.064 L17.166,57.064 L17.25,57.001 L17.628,57.106 L17.838,57.337 L18.384,57.085 L18.489,57.085 C18.615,57.141 18.811,57.169 19.077,57.169 L19.077,57.169 L19.35,57.274 L19.686,57.085 L19.77,57.085 L20.253,57.148 L20.694,56.917 L20.862,56.917 C20.932,56.931 21.044,56.938 21.198,56.938 C21.338,56.938 21.443,56.931 21.513,56.917 L21.513,56.917 L21.618,57.148 L21.954,56.938 L22.059,57.043 L22.542,56.77 L22.983,56.833 L23.256,57.19 L23.34,57.778 L23.529,58.009 L23.97,58.996 L24.243,59.248 L24.285,59.584 L24.453,59.731 L24.453,59.899 L24.831,60.298 L25.104,60.781 L25.314,60.886 L25.566,61.306 L25.902,61.306 L26.175,61.516 L26.406,61.516 L27.204,61.894 Z M22.269,55.741 L21.786,55.489 L21.051,55.573 C20.939,55.559 20.771,55.552 20.547,55.552 C20.365,55.552 20.232,55.559 20.148,55.573 L20.148,55.573 L20.064,55.552 C19.938,55.496 19.826,55.468 19.728,55.468 C19.644,55.468 19.56,55.489 19.476,55.531 L19.476,55.531 L19.392,55.531 C19.224,55.531 19.014,55.489 18.762,55.405 L18.762,55.405 L18.573,55.405 L18.846,55.132 L18.993,54.712 C19.343,54.53 19.553,54.229 19.623,53.809 L19.623,53.809 L20.106,53.599 L20.19,53.221 L20.61,52.843 L20.778,52.486 L21.282,51.856 L21.366,51.709 L21.429,51.793 L21.534,51.835 L21.723,52.108 L21.786,52.864 L21.933,52.864 L21.975,52.948 L22.038,53.305 L22.29,53.662 L22.395,54.523 L22.542,54.607 C22.542,54.803 22.598,54.95 22.71,55.048 L22.71,55.048 L22.458,55.258 L22.6725,55.473 L22.6598333,55.496 C22.6100556,55.5613333 22.5167222,55.6266667 22.3798333,55.692 L22.269,55.741 Z M34.074,61.111 L34.234,61.015 L34.314,61.095 L34.586,60.951 C34.7246667,60.8763333 34.8313333,60.8016667 34.906,60.727 L34.906,60.727 L35.146,60.487 C35.1353333,60.391 35.098,60.279 35.034,60.151 L35.034,60.151 L34.858,60.167 L34.97,59.927 L34.762,59.607 L34.506,59.575 L34.49,59.527 C34.5006667,59.4843333 34.506,59.4256667 34.506,59.351 L34.506,59.351 L34.506,59.287 L34.618,58.919 L34.458,58.887 L34.474,58.839 L34.698,58.471 L34.538,58.359 L34.634,58.231 L34.554,57.975 L34.666,57.719 L34.666,57.463 L34.81,57.335 L34.714,57.223 L34.666,56.999 L34.794,56.871 L34.746,56.679 L34.81,56.503 L34.794,56.439 C34.8046667,56.4176667 34.81,56.3803333 34.81,56.327 C34.81,56.263 34.794,56.1936667 34.762,56.119 L34.762,56.119 L34.762,56.055 L34.794,56.007 C34.8686667,55.9323333 34.906,55.8203333 34.906,55.671 L34.906,55.671 L34.874,55.591 L34.922,55.511 L35.002,55.175 L35.21,54.935 L35.082,54.551 L35.242,54.343 L35.002,54.247 L34.794,53.847 L34.218,53.991 L33.914,53.927 L33.578,53.623 L33.578,53.623 L33.578,53.687 C33.5673333,53.7296667 33.562,53.767 33.562,53.799 C33.4873333,53.639 33.3273333,53.559 33.082,53.559 L33.082,53.559 L32.698,53.479 L32.698,53.367 L31.466,53.303 L30.938,53.543 L30.858,53.575 L30.682,53.655 L30.602,53.575 C30.5166667,53.735 30.3833333,53.9216667 30.202,54.135 C30.0206667,54.3483333 29.9086667,54.5083333 29.866,54.615 L29.866,54.615 L29.866,54.711 C29.8233333,54.7536667 29.802,54.807 29.802,54.871 C29.802,54.8816667 29.8073333,54.8976667 29.818,54.919 L29.818,54.919 L29.818,54.967 L29.754,55.031 L29.77,55.319 C29.6313333,55.4896667 29.562,55.6763333 29.562,55.879 L29.562,55.879 L29.562,55.943 L29.37,56.183 L29.45,56.311 C29.3646667,56.4176667 29.306,56.5243333 29.274,56.631 C29.146,56.695 29.082,56.791 29.082,56.919 C29.082,56.9616667 29.0873333,56.999 29.098,57.031 C29.0873333,57.0523333 29.082,57.0843333 29.082,57.127 C29.082,57.191 29.114,57.2496667 29.178,57.303 L29.178,57.303 L29.066,57.351 C29.002,57.5216667 28.97,57.6443333 28.97,57.719 C28.97,57.783 28.9753333,57.8256667 28.986,57.847 C28.9646667,57.911 28.954,57.9643333 28.954,58.007 C28.954,58.0283333 28.9593333,58.0496667 28.97,58.071 L28.97,58.071 L28.97,58.135 L28.858,58.663 L28.826,58.999 L28.73,59.223 L28.826,59.431 L28.842,59.623 L28.858,59.719 L28.778,59.767 C28.7993333,60.2043333 29.05,60.5403333 29.53,60.775 C29.6686667,60.967 29.8713333,61.0683333 30.138,61.079 L30.138,61.079 L30.346,60.919 L30.65,60.855 L31.194,60.247 L31.706,59.927 L31.786,59.719 L32.138,59.415 L32.25,59.223 L32.65,58.855 L32.874,58.503 L33.002,58.439 L33.146,58.023 L33.418,57.575 L33.514,57.959 L33.386,58.631 L33.482,59.575 L33.482,59.671 C33.482,59.8523333 33.514,60.0496667 33.578,60.263 L33.578,60.263 L33.578,60.535 L34.074,61.111 Z M29.93,59.751 L29.866,59.719 L29.866,59.671 L29.834,59.367 L30.01,59.143 L29.898,58.839 L30.01,58.679 L29.946,58.583 L30.09,58.279 L30.058,58.199 C30.0793333,58.1243333 30.09,58.023 30.09,57.895 L30.09,57.895 L30.138,57.815 L30.138,57.591 L30.186,57.559 L30.218,57.415 L30.346,57.271 L30.346,56.983 L30.474,56.823 C30.474,56.631 30.5326667,56.4336667 30.65,56.231 L30.65,56.231 L30.618,56.167 L30.89,55.959 L30.73,55.735 L30.794,55.591 L30.906,55.207 C30.9806667,55.1003333 31.114,54.967 31.306,54.807 L31.306,54.807 L31.354,54.791 L31.418,54.711 L31.786,54.583 L31.738,54.519 L32.154,54.519 L32.298,54.599 L32.426,54.551 L32.458,54.583 L32.714,54.583 L33.034,54.631 L33.53,55.031 L33.658,55.063 L33.722,55.175 L33.706,55.351 L33.562,55.479 L33.53,55.655 L33.418,55.831 L33.434,55.895 L33.306,56.135 L32.49,57.223 C32.4366667,57.2763333 32.386,57.335 32.338,57.399 C32.29,57.463 32.2553333,57.5163333 32.234,57.559 L32.234,57.559 L32.01,57.591 L32.058,57.863 L31.93,57.863 L31.834,58.119 C31.7166667,58.183 31.626,58.2256667 31.562,58.247 L31.562,58.247 L31.45,58.519 L31.354,58.551 L30.41,59.319 L30.362,59.431 L30.138,59.463 L30.17,59.591 C30.1166667,59.6336667 30.0633333,59.6816667 30.01,59.735 L30.01,59.735 L29.93,59.751 Z" id="Aa" fill="#000000" fill-rule="nonzero" mask="url(#mask-2)"></path>
                <path d="M47.6065,61.495 L48.0055,61.369 L48.3415,61.012 C48.3695,61.012 48.4115,61.019 48.4675,61.033 L48.4675,61.033 L48.5725,61.033 C48.8385,61.033 49.0695,60.956 49.2655,60.802 L49.2655,60.802 L49.3915,60.949 C49.5175,60.907 49.5945,60.872 49.6225,60.844 L49.6225,60.844 L49.6225,60.823 L50.0635,61.012 L50.4415,60.697 L50.7355,60.76 L51.1135,60.718 L51.2605,60.634 L51.6385,60.718 L51.7855,60.613 L52.0165,60.739 L52.6255,60.298 L52.7725,60.382 C53.1505,60.312 53.4795,60.179 53.7595,59.983 L53.7595,59.983 L54.0535,60.025 L54.2845,59.836 L54.8305,59.878 L55.1455,59.542 L55.7545,59.479 L56.1745,59.185 L56.6575,59.08 L56.9305,58.681 L57.1825,58.618 L57.2665,58.345 L57.6445,58.03 L57.7285,57.61 L57.8125,57.358 C57.8125,57.19 57.7075,57.036 57.4975,56.896 C57.1195,56.658 56.8885,56.497 56.8045,56.413 C56.5945,56.413 56.4055,56.329 56.2375,56.161 L56.2375,56.161 L55.9015,56.161 C55.6635,56.049 55.3555,55.965 54.9775,55.909 L54.9775,55.909 L54.7885,55.804 C54.2845,55.804 53.9415,55.755 53.7595,55.657 C53.5915,55.727 53.4585,55.762 53.3605,55.762 C53.2765,55.762 53.1155,55.72 52.8775,55.636 C52.7515,55.636 52.6395,55.671 52.5415,55.741 C52.4435,55.601 52.2265,55.531 51.8905,55.531 C51.7085,55.531 51.5685,55.538 51.4705,55.552 L51.4705,55.552 L51.4285,55.468 L50.6305,55.594 L49.9375,55.51 L49.5175,55.573 L48.7825,55.342 L49.0555,55.3 L49.4125,55.09 L49.8535,55.09 L50.2735,54.859 C50.6375,54.859 51.0015,54.768 51.3655,54.586 L51.3655,54.586 L51.7645,54.523 L52.0375,54.166 L52.0795,54.187 L52.5205,54.04 C52.5905,54.04 52.6745,54.047 52.7725,54.061 L52.7725,54.061 L53.2135,53.767 L53.3815,53.809 L53.7175,53.62 C54.0255,53.564 54.3335,53.361 54.6415,53.011 L54.6415,53.011 L54.9775,52.402 L54.8305,51.751 L54.3895,51.478 L54.2635,51.184 L53.7805,51.184 L53.6125,51.016 L53.1925,50.89 C53.0665,50.89 52.9125,50.855 52.7305,50.785 L52.7305,50.785 L52.4785,50.554 L51.8695,50.533 C51.7295,50.393 51.5685,50.323 51.3865,50.323 L51.3865,50.323 L51.2815,50.197 L50.7775,50.281 C50.6795,50.281 50.4905,50.253 50.2105,50.197 L50.2105,50.197 L50.0425,50.113 C49.9025,50.015 49.7135,49.952 49.4755,49.924 L49.4755,49.924 L49.2445,49.966 C49.1605,49.938 49.0275,49.924 48.8455,49.924 C48.7055,49.924 48.6005,49.931 48.5305,49.945 L48.5305,49.945 L47.3125,49.798 L46.7245,49.588 L46.5775,49.63 L46.4725,49.546 C46.2905,49.546 46.0805,49.574 45.8425,49.63 C45.5625,49.574 45.1145,49.546 44.4985,49.546 L44.4985,49.546 L44.4565,49.567 L44.2255,49.462 L44.1415,49.462 C43.8755,49.462 43.6725,49.574 43.5325,49.798 C43.2385,49.854 43.0915,50.022 43.0915,50.302 C43.0915,50.61 43.4415,50.967 44.1415,51.373 L44.1415,51.373 L44.5615,51.121 L44.7715,51.436 L45.1285,51.205 L45.2125,51.31 L45.4435,51.163 L45.6535,51.31 L45.8845,51.121 L45.9055,51.142 L46.0525,51.646 L46.1575,51.814 L46.1155,52.297 L46.2415,52.381 L46.1995,52.591 L46.4515,53.095 L46.4725,53.578 L46.4095,53.746 L46.5355,54.061 L46.4725,54.145 L46.5565,54.46 L46.3885,54.523 L46.5355,54.985 C46.3955,55.069 46.3185,55.118 46.3045,55.132 C45.9685,55.328 45.7655,55.594 45.6955,55.93 C45.7515,56.14 46.0105,56.364 46.4725,56.602 L46.4725,56.602 L46.4935,56.896 C46.5495,57.078 46.5985,57.246 46.6405,57.4 L46.6405,57.4 L46.5775,57.862 L46.6615,58.135 L46.5145,58.471 L46.5775,58.933 L46.4725,59.269 L46.5145,59.731 L46.4935,60.109 L46.8295,60.781 C46.7735,60.795 46.7455,60.823 46.7455,60.865 C46.7455,60.893 46.7525,60.921 46.7665,60.949 L46.7665,60.949 L46.7665,61.012 C46.7665,61.026 46.7525,61.047 46.7245,61.075 L46.7245,61.075 L47.1865,60.928 L47.2705,61.306 L47.6065,61.495 Z M48.1315,54.313 L48.1315,54.271 L48.2365,53.914 L48.1105,53.578 L48.1525,53.137 L48.0265,52.654 L48.1525,52.339 L48.0055,51.94 L48.0055,51.436 L48.0895,51.394 L48.4885,51.541 L48.6145,51.436 L48.6985,51.457 L48.9295,51.415 L49.1815,51.646 L49.6645,51.583 C49.9865,51.625 50.2175,51.646 50.3575,51.646 L50.3575,51.646 L50.4625,51.646 L50.8615,51.856 L51.0085,51.772 L51.3655,51.877 L51.7855,52.192 L52.0165,52.024 C52.1005,52.052 52.1985,52.08 52.3105,52.108 L52.3105,52.108 L52.5205,52.213 L52.7515,52.213 L52.8985,52.381 L52.9615,52.402 L52.9615,52.57 C52.7375,52.612 52.5485,52.696 52.3945,52.822 L52.3945,52.822 L52.3315,52.822 L51.7645,52.99 C51.7085,53.06 51.6455,53.095 51.5755,53.095 L51.5755,53.095 L51.4915,53.095 C51.2395,53.095 51.0015,53.207 50.7775,53.431 L50.7775,53.431 L50.6725,53.515 L50.4205,53.494 C50.2945,53.648 50.0145,53.781 49.5805,53.893 L49.5805,53.893 L49.0555,53.914 L49.0135,54.082 L48.7615,54.271 L48.7825,54.208 C48.6425,54.236 48.5375,54.264 48.4675,54.292 L48.4675,54.292 L48.1315,54.313 Z M48.3205,59.752 L48.2785,59.437 L48.2155,59.395 L48.1945,59.29 L48.3415,58.954 L48.2995,58.555 L48.1525,58.303 L48.1945,58.009 L48.1525,57.862 L48.2575,57.547 L48.1315,57.253 L48.1525,57.064 L48.1525,56.938 C48.1525,56.7 48.2715,56.581 48.5095,56.581 C48.5375,56.609 48.6145,56.665 48.7405,56.749 L48.7405,56.749 L49.6645,56.833 L49.6855,56.707 L50.0005,56.917 L50.4625,56.812 C50.5885,56.784 50.6935,56.77 50.7775,56.77 C50.9735,56.77 51.1905,56.805 51.4285,56.875 L51.4285,56.875 L52.1425,56.896 C52.4225,56.938 52.6815,56.959 52.9195,56.959 C53.0455,57.029 53.1575,57.071 53.2555,57.085 C53.3675,57.085 53.4865,57.05 53.6125,56.98 C53.7105,57.008 53.8015,57.057 53.8855,57.127 L53.8855,57.127 L54.3055,57.085 L54.4945,57.253 L54.8935,57.211 L55.3765,57.421 L55.4815,57.421 L55.5655,57.526 L55.9015,57.568 L55.9645,57.61 L55.8595,57.736 L55.7125,57.988 L55.2505,58.114 L55.0825,58.345 L54.8515,58.45 L54.5575,58.429 C54.3895,58.653 54.1305,58.772 53.7805,58.786 L53.7805,58.786 L53.0665,58.828 L52.5625,59.059 L52.2685,59.038 L51.7645,59.248 L51.1765,59.437 L50.5885,59.416 L50.2315,59.584 C50.1335,59.612 50.0635,59.647 50.0215,59.689 L50.0215,59.689 L49.8745,59.626 L49.2655,59.605 L48.9085,59.731 L48.3205,59.752 Z M61.6315,61.198 L61.9465,61.063 L62.1415,61.183 L62.2615,61.033 L62.3065,61.033 L62.4265,60.898 L62.5315,60.958 C62.6115,61.038 62.6515,61.103 62.6515,61.153 L62.6515,61.153 L62.8015,60.958 L62.9515,61.093 L63.0715,60.823 C63.2115,60.813 63.3415,60.748 63.4615,60.628 L63.4615,60.628 L63.7765,60.448 L63.9715,60.118 L64.2715,59.833 L64.1815,59.698 L64.3015,59.578 L64.3015,59.398 L64.6465,58.978 L64.6015,58.618 L64.7365,58.483 L64.6615,58.213 L64.7215,57.973 L64.6615,57.838 L64.6765,57.193 C64.6965,57.113 64.7065,57.058 64.7065,57.028 C64.7065,56.978 64.6865,56.903 64.6465,56.803 L64.6465,56.803 L64.6015,56.473 C64.6515,56.393 64.6865,56.283 64.7065,56.143 L64.7065,56.143 L64.5265,56.068 C64.5565,56.008 64.5715,55.948 64.5715,55.888 C64.5715,55.828 64.5415,55.7555 64.4815,55.6705 C64.4215,55.5855 64.3915,55.518 64.3915,55.468 L64.3915,55.468 L64.3915,55.423 L64.3315,54.943 L64.2265,54.883 L64.1365,54.778 L64.1365,54.553 L63.9865,54.433 L63.9415,54.118 L63.8215,54.103 L63.8065,53.953 L63.5515,53.593 L63.4615,53.578 L63.1765,53.413 L62.7115,53.413 L62.4565,53.608 L62.2165,53.668 L62.3215,53.773 L62.2015,53.818 L61.9765,53.863 L61.9915,54.073 L61.9615,54.163 L61.8865,54.208 L61.6915,54.268 L61.6615,54.388 C61.5715,54.448 61.5265,54.543 61.5265,54.673 L61.5265,54.673 L61.4365,54.793 L61.4215,54.853 L61.3165,54.958 L61.1365,55.153 L61.0765,55.333 L61.0765,55.303 L61.0315,55.348 C60.9915,55.388 60.9615,55.428 60.9415,55.468 C60.8215,55.628 60.7415,55.798 60.7015,55.978 L60.7015,55.978 L60.6115,56.203 L60.5515,56.173 L60.4465,56.488 L60.4165,56.953 L60.2215,56.908 L60.2665,56.428 L60.2815,56.203 L60.2965,56.038 L60.2815,55.978 C60.3115,55.868 60.3265,55.773 60.3265,55.693 L60.3265,55.693 L60.3565,55.603 L60.3115,55.423 L60.4765,55.108 C60.4165,55.028 60.3615,54.963 60.3115,54.913 L60.3115,54.913 L60.3265,54.868 C60.3565,54.778 60.3715,54.688 60.3715,54.598 L60.3715,54.598 L60.4465,54.358 L60.4015,54.238 L60.4315,54.118 C60.4315,53.908 60.4165,53.773 60.3865,53.713 C60.4165,53.593 60.4365,53.503 60.4465,53.443 L60.4465,53.443 L60.5365,53.053 L60.6415,52.858 L60.4465,52.768 L60.4615,52.663 L60.3565,52.393 L60.4165,52.153 L60.3565,52.093 C60.3765,52.053 60.3865,52.018 60.3865,51.988 C60.3865,51.928 60.3515,51.863 60.2815,51.793 C60.3015,51.653 60.3115,51.543 60.3115,51.463 L60.3115,51.463 L60.3265,51.238 L60.1015,51.073 L60.0715,50.923 L59.8015,50.608 L59.2765,50.878 L59.2765,50.908 L59.0365,50.953 L59.2765,51.463 L59.2015,51.628 L59.2615,51.778 C59.2315,51.848 59.2165,51.928 59.2165,52.018 C59.2865,52.118 59.3215,52.208 59.3215,52.288 C59.3215,52.348 59.3065,52.408 59.2765,52.468 C59.3065,52.508 59.3315,52.543 59.3515,52.573 C59.3015,52.603 59.2665,52.653 59.2465,52.723 L59.2465,52.723 L59.3665,53.158 L59.3365,53.263 C59.3565,53.343 59.3665,53.453 59.3665,53.593 C59.3665,53.703 59.3615,53.783 59.3515,53.833 L59.3515,53.833 L59.3515,54.028 L59.3065,54.073 L59.4115,54.673 L59.2765,55.153 L59.3365,55.303 L59.3515,55.513 L59.2765,55.603 L59.2765,55.933 L59.3215,56.068 L59.1865,56.488 L59.2615,56.578 L59.2165,56.788 L59.2015,57.673 L59.1415,57.823 L59.1415,58.348 C59.1315,58.368 59.1265,58.388 59.1265,58.408 C59.1265,58.488 59.1415,58.583 59.1715,58.693 L59.1715,58.693 L59.1115,58.873 L59.2015,59.023 L59.2015,59.293 L59.2765,59.413 L59.2315,59.518 L59.5465,60.193 C59.7265,60.263 59.9015,60.303 60.0715,60.313 L60.0715,60.313 L60.1765,60.628 L60.4165,60.718 L60.4915,60.793 L60.7015,60.898 C60.9415,60.988 61.1415,61.033 61.3015,61.033 C61.3615,61.033 61.4065,61.028 61.4365,61.018 L61.4365,61.018 L61.6315,61.198 Z M61.9615,60.043 L61.6015,60.043 L61.5415,59.983 L61.5415,59.773 L61.2715,59.653 L60.9715,59.698 L60.7765,59.593 L60.4465,59.518 L60.5665,59.398 L60.5965,59.338 L60.7765,59.263 L60.6865,58.993 C60.7765,58.813 60.8215,58.633 60.8215,58.453 L60.8215,58.453 L60.8215,58.378 C60.8115,58.348 60.8065,58.328 60.8065,58.318 L60.8065,58.318 L60.9115,58.258 L61.0315,57.733 L61.2715,57.403 L61.2565,57.163 L61.3465,57.028 C61.4765,56.828 61.5415,56.643 61.5415,56.473 L61.5415,56.473 L61.6915,56.098 L61.8415,55.918 L61.9015,55.693 L62.0815,55.528 C62.2115,55.338 62.3165,55.188 62.3965,55.078 C62.5765,55.068 62.6865,54.973 62.7265,54.793 L62.7265,54.793 L62.8015,54.793 L62.8615,54.718 L62.9365,54.688 L63.2665,55.213 L63.4615,55.648 L63.5965,56.143 L63.7015,56.833 L63.7015,57.088 L63.7315,57.358 L63.6865,57.493 L63.7165,57.733 L63.6715,58.123 L63.6715,58.468 L63.4915,58.798 L63.4915,58.948 C63.2515,59.148 63.0865,59.378 62.9965,59.638 L62.9965,59.638 L62.5765,59.638 L62.6365,59.818 L62.5165,59.863 L62.4715,59.863 C62.3515,59.863 62.2615,59.908 62.2015,59.998 L62.2015,59.998 L61.9615,60.043 Z" id="Bb" fill="#000000" fill-rule="nonzero" mask="url(#mask-2)"></path>
                <g id="Group-125" mask="url(#mask-2)">
                    <g transform="translate(81.000000, 138.000000) scale(-1, 1) translate(-81.000000, -138.000000) translate(16.000000, 5.000000)">
                        <path d="M66.2034958,125.732694 C66.2034958,125.732694 71.3633848,166.417945 70.2399835,203.319512 C69.5591552,225.677262 59.7325103,266 59.7325103,266 L37.1765231,265.043776 L41.2774228,212.230063 L39.360299,179.802281 C38.5714247,170.512454 34.1387684,157.935565 29.972764,150.667148 C28.4538867,148.017103 27.3574968,145.133066 26.8054926,142.124 C25.5442634,135.249528 27.341567,130.350367 30.5850247,122 L66.2034958,125.732694 Z" id="Fill-3" fill="#1A2E35"></path>
                        <path d="M119.886955,91.8999527 C118.474992,92.4337528 114.625335,93.966321 115.948655,91.6569332 C115.96976,91.6211124 115.984534,91.5852916 116.004233,91.5487684 C117.36906,89.3103198 117.677905,87.134382 117.338105,86.4439537 C117.006747,85.7703823 116.028152,85.8996181 115.712976,86.5865345 C115.65388,86.6925922 115.606744,86.8098877 115.593378,86.947552 C115.587749,87.0044438 115.565237,87.0788949 115.554684,87.1421081 C115.345035,87.8641429 114.838502,88.8355187 114.418501,89.5744104 C114.019605,90.2753742 113.50885,90.9061012 112.898196,91.4321752 C112.400104,91.8620248 110.855176,94.3498142 110.435879,94.6750109 L76.3806307,94.5689532 L76.0197254,86.7782811 L66.8106605,87.9329751 L63.4,99.7433024 C66.9949825,105.278669 74.4206265,111.167327 80.8852634,109.799815 L115.855087,102.729774 C118.900621,102.400363 122.233191,101.973323 124.044049,101.525914 C127.836017,100.588954 127.764961,100.244794 127.591192,99.8170511 C127.124055,98.6707856 120.864846,101.21055 121.913089,99.8788595 C122.96274,98.5485735 129.90788,97.6685057 129.370392,96.4899312 C128.67039,94.9559583 122.162839,97.735933 121.595802,97.9304891 C121.044947,98.1187239 119.572481,98.0028331 120.093086,97.8553357 C120.840926,97.6432204 129.829086,94.5169779 129.155818,93.001969 C128.783657,92.1626385 127.34496,93.0132069 127.34496,93.0132069 C127.34496,93.0132069 120.190875,95.8283 119.896804,95.102051 C119.598512,94.3652663 123.74646,92.5700123 125.18586,92.0636046 C126.607672,91.5635181 126.96506,90.6799385 126.236918,90.2290179 C125.740233,89.9220828 121.298917,91.3661526 119.886955,91.8999527" id="Fill-9" fill="#FFBF9D"></path>
                        <path d="M37.8904837,45.7226505 C36.1817755,44.0743722 33.2630829,45.5076881 31.8300407,47.399637 C30.396297,49.2908857 29.3806116,51.7282929 27.2047442,52.679869 C25.0288768,53.6300446 22.1964615,52.8129076 20.3699113,54.327447 C17.8517411,56.4154528 19.265143,61.2566573 16.5421523,63.0715839 C15.461233,63.7927931 14.0352051,63.7675858 12.8806346,64.3620583 C10.1569425,65.7631648 10.1899102,69.5981775 10.6100728,72.6272563 C11.2006854,76.8774894 11.8481147,81.284568 14.1979393,84.8780106 C16.5477638,88.4721534 21.1225566,91.0005869 25.191611,89.6141847 C29.100737,88.2809979 31.1075573,84.0699762 32.6984236,80.2629716 C34.89814,74.997444 37.0985578,69.7305159 39.299677,64.464288 C40.5720895,61.4177041 41.8578293,58.3249068 42.2723804,55.0493564 C42.6869316,51.7752065 42.1292866,48.2377802 40.0425021,45.6771373" id="Fill-11" fill="#1A2E35"></path>
                        <path d="M36.1934534,42.0096235 C35.0375754,41.8687879 34.1564713,43.3022695 34.4606154,44.4408559 C34.7647595,45.5781198 35.8429698,46.3371774 36.9414129,46.7266242 C37.5562278,46.9434978 38.2193402,47.0777214 38.8576512,46.950771 C39.4966148,46.8231594 40.1035976,46.3933794 40.3091886,45.7678842 C40.5252222,45.109329 40.3587915,44.6656639 39.7779154,44.2980367 C39.0182079,43.8166831 38.5730872,43.4384767 37.9732837,43.1032483 C37.0556301,42.5914795 37.1104544,42.5220535 36.1934534,42.0096235" id="Fill-13" fill="#FF4F5B"></path>
                        <path d="M34.9754144,12.1950765 C34.9253179,10.4332042 36.5277112,9.07182167 38.1412372,8.42650939 C39.7533716,7.7811971 41.5464101,7.53778983 42.9845982,6.55354708 C44.2578852,5.68180943 45.1130052,4.32254967 46.1914723,3.21165023 C48.8354562,0.486054913 52.96355,-0.643949168 56.5948531,0.363643701 C60.2268521,1.37123657 63.2187286,4.47680195 64.1350777,8.19017791 C64.7550224,10.6999616 64.3319849,13.6661338 62.3865694,15.3338981 C60.1294421,17.2691274 56.7827152,16.8389192 53.8903359,16.2374769 C50.9972609,15.6353269 47.7228956,15.0409603 45.3085209,16.7688689 C43.8522424,17.8111331 43.0173001,19.5050779 42.126695,21.0737811 C41.2367857,22.6417767 40.1193546,24.2430286 38.4355544,24.8324421 C36.7517541,25.4218557 34.4660996,24.4043567 34.4,22.5943689" id="Fill-15" fill="#1A2E35"></path>
                        <path d="M34.2597977,12.7574726 C34.4524287,14.2121872 33.3908491,15.5149479 32.3334878,16.5423793 C31.2768295,17.5691137 30.0823767,18.6585813 29.896073,20.11469 C29.6774298,21.8147614 30.9302343,23.4890424 30.5667663,25.1647175 C30.3361715,26.2283948 29.5009686,27.0481094 28.995488,28.0135046 C28.2854248,29.368543 28.2481641,31.0086693 28.6840444,32.4738394 C29.1192217,33.9397066 29.8138182,37.2108977 30.8416521,38.3498549 C33.6819047,41.4983675 38.2045148,44.2161118 42.3580327,45.1612929 C46.5108475,46.1078681 50.8239538,46.1134444 55.0765993,45.8534499 C58.5587208,45.6415509 62.5617897,45.7997781 65.4632061,41.0515673 C66.9655872,38.5917265 67.710099,35.3212325 68.5087442,32.5567868 C69.1963103,30.176408 69.7910761,27.6280436 69.0760917,25.2553322 C68.6598963,23.8731094 67.8211782,22.6449315 67.410607,21.2599206 C66.897393,19.5319677 67.0843998,17.6820336 66.8777081,15.8920445 C66.4312823,12.0158261 64.005116,8.41493688 60.5637704,6.52178648 C57.1231278,4.62863607 52.7579971,4.49201697 49.2034632,6.16699504" id="Fill-17" fill="#1A2E35"></path>
                        <path d="M56.4,53 C56.4,53 66.4555066,52.9713363 69.6786169,59.744126 C72.9017272,66.5155174 77.4,89.5529303 77.4,89.5529303 L66.9270252,92 L56.4,53 Z" id="Fill-19" fill="#2983E9"></path>
                        <path d="M61.9415188,127 L32.564423,126.542925 C28.0957008,126.473523 25.0121906,122.019846 26.6058912,117.878831 C29.0045695,111.642421 32.5714904,107.717325 32.8746822,101.705247 C33.295193,93.3650312 27.1006097,81.636011 27.1006097,81.636011 L20.4,61.7238066 C25.4998418,56.834086 32.1940908,53.2195484 42.2326375,52.275955 C44.9967008,51.8336017 48.0766773,51.9689015 50.9905697,52.3586771 C58.7873345,53.4018175 65.2144355,58.9098512 67.3487928,66.4207426 C68.6703981,71.0679051 69.7594857,77.0210961 69.7594857,84.0216338 C69.7594857,84.0216338 67.7650631,98.7391672 68.1834537,101.495638 C68.3891153,102.847234 69.3919805,109.249788 71.0436338,115.095721 C72.7334511,121.074149 68.2011222,127 61.9415188,127" id="Fill-21" fill="#2983E9"></path>
                        <path d="M74.4,73.5311399 C74.4025971,73.5492911 74.1127309,73.6253864 73.5763798,73.6484245 C73.0426579,73.6665756 72.253249,73.6198015 71.3290951,73.314024 C70.4115141,73.0103408 69.3532724,72.4406731 68.441607,71.4667927 C67.9946478,70.9788053 67.5792386,70.3532879 67.4379206,69.5860516 C67.3084339,68.8244003 67.5029926,67.9315021 68.1385949,67.3785893 C68.7972025,66.8235822 69.7101825,66.9359799 70.3188358,67.347872 C70.9524662,67.7716321 71.3146346,68.45649 71.5098507,69.1099323 C71.8969962,70.4468362 71.667601,71.7453435 71.2607366,72.6731478 C70.8479566,73.6135184 70.276769,74.2215828 69.8495286,74.5643607 C69.6313073,74.7326082 69.4551528,74.8512889 69.3250088,74.9127237 C69.1981512,74.9797434 69.1297927,75.0083664 69.1245344,74.9978946 C69.1081021,74.9678754 69.3690474,74.8184772 69.7653951,74.4547556 C70.1545125,74.0889396 70.6731167,73.4787808 71.0392289,72.5691276 C71.40074,71.6720406 71.5847821,70.4440437 71.2094678,69.2132544 C71.0221393,68.6100768 70.6823188,68.0041068 70.1433385,67.6501589 C69.6175041,67.3010978 68.858988,67.2270968 68.3509006,67.6634232 C67.8428131,68.0976552 67.6574565,68.8711745 67.7678817,69.5204281 C67.8855371,70.1899273 68.2523066,70.7686706 68.6683731,71.2350162 C69.5215394,72.1704999 70.5271976,72.7464506 71.4046838,73.0703793 C73.1918634,73.7112555 74.4071981,73.4452709 74.4,73.5311399" id="Fill-23" fill="#FAFAFA"></path>
                        <path d="M58.3849693,53 L56.7309249,58.5390681 L45.1749753,78.3562802 L23.9833608,96.0382855 L18.4,194 L70.0855693,173.116586 L71.0561936,120.630991 L71.4,116.670911 L68.7229217,106.548294 C67.4783704,101.554236 67.6006592,96.2855716 69.1708484,90.7275893 C70.3112796,85.3405357 71.7389149,80.6855329 69.724293,76.3079388 C67.7089722,71.9310453 70.0038104,61.4819825 67.3805393,56.4080645 C64.9165931,54.6280251 61.405854,53.2928203 58.3849693,53" id="Fill-25" fill="#FF4F5B"></path>
                        <path d="M63.4,129.958555 C63.4,129.958555 63.0212596,129.962143 62.3123699,129.848742 C61.6062961,129.737495 60.5566888,129.49275 59.3339069,128.860432 C58.1083091,128.23888 56.7574061,127.173773 55.4994261,125.665829 C54.8672682,124.914368 54.2520055,124.063862 53.6529338,123.120768 C53.0742771,122.168344 52.5554571,121.05802 52.4139608,119.79195 C52.2675367,118.541669 52.5807998,117.115545 53.5304444,116.078429 C53.9992831,115.562384 54.6511519,115.191319 55.3600416,115.064281 C56.0682273,114.926477 56.8158349,115.016911 57.5085335,115.271704 C58.9256089,115.7655 60.0111183,117.053103 60.5834394,118.510807 C61.1712476,119.979994 61.366949,121.627896 61.256427,123.281539 C61.145905,124.939489 60.6932574,126.611793 59.9125636,128.156342 C59.5429836,128.940818 59.0495062,129.66644 58.5327982,130.37699 C57.9738524,131.054524 57.3895639,131.731341 56.6919376,132.293321 C55.3431465,133.470394 53.669125,134.296498 51.8845814,134.719239 C50.0922942,135.10107 48.1880771,135.106811 46.3605919,134.653926 C44.5239551,134.234773 42.8189592,133.379242 41.3645738,132.243798 C39.9383469,131.07462 38.7613225,129.606868 38.0453931,127.941741 C37.3238321,126.291687 37.0542147,124.419854 37.4948949,122.703769 C37.9433187,120.999167 39.085145,119.529979 40.5803602,118.782825 C41.3216321,118.398123 42.1614587,118.240941 42.971015,118.296206 C43.7840911,118.361519 44.5514096,118.666553 45.2089101,119.097907 C46.5232071,119.977123 47.4059754,121.369514 47.7136067,122.832242 C47.9994153,124.312195 47.6960077,125.793584 47.1053836,127.023768 C46.5098318,128.262565 45.6341031,129.28102 44.6471484,130.033198 C42.6471925,131.539708 40.3691716,132.018432 38.4501713,132.137574 C36.5058283,132.24308 34.8416623,131.986852 33.5055424,131.7378 C32.1673108,131.480136 31.144454,131.211706 30.4510515,131.031557 C30.1194854,130.941841 29.8590195,130.870786 29.664726,130.817674 C29.4880315,130.767433 29.3979244,130.738724 29.4,130.732264 C29.4014442,130.725805 29.4943672,130.74303 29.6738775,130.78107 C29.8695789,130.824851 30.1328607,130.883705 30.4686505,130.959066 C31.1669808,131.114095 32.1940613,131.359558 33.5301811,131.594973 C34.864189,131.821057 36.5206115,132.052882 38.4375,131.928716 C40.3304537,131.793065 42.5606052,131.297833 44.4922768,129.822904 C45.4412175,129.087234 46.284564,128.0939 46.8505494,126.898166 C47.4144229,125.710328 47.6924879,124.289946 47.4158308,122.895402 C47.1208708,121.517366 46.2740045,120.194595 45.0336236,119.373515 C44.4134331,118.970152 43.6975037,118.690238 42.9456724,118.632103 C42.1973608,118.584015 41.4201868,118.728996 40.7296001,119.091448 C39.3336435,119.790514 38.2495421,121.190082 37.8342046,122.794202 C37.4209789,124.412677 37.6751092,126.203406 38.3741434,127.79389 C39.066842,129.400163 40.2072603,130.818392 41.5905456,131.950247 C43.0005814,133.051241 44.6577079,133.883087 46.4429554,134.290038 C48.2204594,134.730722 50.0690635,134.724263 51.8057376,134.356069 C53.5332603,133.946964 55.1509649,133.15244 56.46315,132.011254 C57.1403614,131.467935 57.7091627,130.810497 58.2533253,130.153059 C58.757362,129.461887 59.239576,128.757797 59.6007085,127.994853 C60.3645072,126.49265 60.8072993,124.866281 60.9199332,123.257136 C61.0325671,121.652298 60.8446092,120.046743 60.2856634,118.635691 C59.7365731,117.231817 58.7242758,116.030342 57.4043471,115.562384 C56.1182086,115.052797 54.6018746,115.296824 53.7352974,116.27724 C52.8518251,117.229664 52.5378581,118.574684 52.6716109,119.763241 C52.79762,120.971893 53.2903934,122.056379 53.8514511,122.995166 C54.4336276,123.929647 55.0390349,124.782306 55.6557056,125.530178 C56.8848232,127.034534 58.2012321,128.098206 59.3993753,128.731241 C60.5954067,129.374325 61.6274149,129.641319 62.3257452,129.774099 C63.0254834,129.911185 63.4021031,129.937023 63.4,129.958555" id="Fill-27" fill="#FAFAFA"></path>
                        <path d="M33.9781101,101 C35.5011698,100.694677 36.7373055,99.4822865 37.4198469,98.0679445 C38.1017132,96.652918 38.3015472,95.0510012 38.370409,93.4778367 C38.470326,91.1988704 38.3170749,88.9075817 37.9126809,86.6628444 C37.5406925,84.5988362 36.904059,82.4786925 35.4377089,81 C34.4230109,83.2036625 33.1402922,85.2799932 31.626009,87.1660106 C31.1824584,87.7184665 30.4,89.068458 30.4,89.068458 C30.4,89.068458 30.8232972,90.0323464 30.9826243,90.4588396 C32.3146264,94.0337156 33.4461194,97.3676194 33.9781101,101" id="Fill-29" fill="#000000"></path>
                        <path d="M60.4,58 C59.3492726,60.9822841 58.2767866,63.9568639 57.1614855,66.9160349 C56.0342522,69.8710036 54.8789433,72.8154664 53.6941552,75.7480224 C51.2915901,81.599827 48.7949719,87.4145105 46.1334099,93.1542518 C44.801927,96.0223715 43.4367534,98.8946935 41.7571337,101.596819 C40.9197805,102.952785 39.9876723,104.232408 39.0829377,105.528139 L36.3652246,109.414634 C34.5683895,112.015203 32.8361281,114.658495 31.2245916,117.373929 C30.4279479,118.737599 29.6607836,120.119479 28.9925855,121.549687 C28.3229837,122.977093 27.7284839,124.452126 27.4,126 C27.6933895,124.445122 28.2570061,122.951879 28.8964267,121.506963 C29.5358474,120.057844 30.2742343,118.654952 31.0421006,117.27027 C32.5841501,114.503708 34.3164114,111.849209 36.0746427,109.217823 C37.8223456,106.583635 39.6907734,104.013884 41.3703931,101.358685 C43.017024,98.6754697 44.3590352,95.8150544 45.672269,92.9434328 C48.2980347,87.1952868 50.8627361,81.4184245 53.2947805,75.5834295 C54.5272971,72.6732861 55.7310362,69.751236 56.905998,66.8172792 C58.0928918,63.8875247 59.2643441,60.9507663 60.4,58" id="Fill-33" fill="#1A2E35"></path>
                        <path d="M60.4,66 C59.6864236,72.1537123 58.9155935,78.3095374 57.7349108,84.4019802 C56.5451513,90.485972 54.974166,96.5263005 52.6239721,102.279296 C51.5061288,105.184316 49.9351435,107.892147 48.3620636,110.54575 C46.7750194,113.202171 45.1300233,115.820562 43.4724593,118.430502 C40.1754849,123.661651 36.7095423,128.78012 33.4,134 C36.618076,128.720963 39.9436773,123.508829 43.2022498,118.257962 C44.8297905,115.631824 46.4454616,112.996531 47.9989915,110.328138 C49.5399535,107.649181 51.1018619,104.990648 52.1847944,102.099009 C54.4525989,96.3586897 56.0577967,90.3697712 57.2901474,84.3118365 C58.5329713,78.2517891 59.4469356,72.1220212 60.4,66" id="Fill-35" fill="#1A2E35"></path>
                        <path d="M20.4,106.981673 L22.4978174,108 C22.4978174,108 59.4710703,90.4549405 60.035521,90.0639196 C60.6484521,89.6394424 60.4960851,87.102337 59.5195507,86.5907339 C58.5437089,86.0791308 35.5016536,74 35.5016536,74 L20.4,106.981673 Z" id="Fill-37" fill="#1F0288"></path>
                        <path d="M20.4,107.700163 L21.5918847,109.858157 L23.9917795,110 C23.9917795,110 58.8971742,89.6712503 59.1201267,89.6162066 C59.3725258,89.5541061 59.7784677,87.8230538 58.6223396,87.2091054 C57.4648092,86.595157 35.6189652,75 35.6189652,75 L20.4,107.700163 Z" id="Fill-39" fill="#FFFFFF"></path>
                        <polygon id="Fill-41" fill="#1F0288" points="21.4 109.299135 43.263307 121 60.4 89.9272615 36.7213534 78"></polygon>
                        <polygon id="Fill-43" fill="#1C687B" points="37.4 92.9329674 48.8029073 99 52.4 92.636546 40.8414427 86"></polygon>
                        <polygon id="Fill-45" fill="#51B6E2" points="36.4 92.9329674 47.8029073 99 51.4 92.636546 39.8414427 86"></polygon>
                        <path d="M21.4,110.671852 L23.3616289,112 C23.3616289,112 63.1792414,99.9763584 63.8058631,99.6698086 C64.4853494,99.3372443 64.7059709,96.7828972 63.7988145,96.1269088 C62.891658,95.4723266 41.477973,80 41.477973,80 L21.4,110.671852 Z" id="Fill-47" fill="#FFD900"></path>
                        <path d="M22.4,111.189036 L23.2574773,113.504738 L25.5908718,114 C25.5908718,114 62.7396516,98.9843703 62.9654864,98.9631448 C63.2225906,98.9383817 63.8695204,97.2813773 62.8237317,96.5016938 C61.7779429,95.7227177 42.0260851,81 42.0260851,81 L22.4,111.189036 Z" id="Fill-49" fill="#FFFFFF"></path>
                        <polygon id="Fill-51" fill="#FFD900" points="22.4 113.077495 42.1009833 128 63.4 99.4165626 41.955266 84"></polygon>
                        <polygon id="Fill-53" fill="#7C241C" points="40.4 98.344146 50.8766403 106 55.4 100.242184 44.8507925 92"></polygon>
                        <polygon id="Fill-55" fill="#FCFF94" points="39.4 98.344146 49.8766403 106 54.4 100.241499 43.8507925 92"></polygon>
                        <path d="M48.200062,106.949188 L19.4961917,100.311221 L31.1520568,81.1743119 L13.5443505,78 C2.97691056,94.2314749 1.85117196,112.291461 4.82638855,114.604799 C9.86862737,118.525759 47.5819266,117.84192 47.5819266,117.84192 C47.9437963,117.872265 48.1845734,117.889908 48.1845734,117.889908 C48.4767445,117.956246 58.4,120 58.4,120 L57.9994088,107.798871 L55.8915531,105.921665 C54.9305567,105.065632 53.5703772,104.823571 52.374236,105.297107 L48.200062,106.949188 Z" id="Fill-57" fill="#FFBF9D"></path>
                        <path d="M57.6081249,119.987036 C57.5937437,120.002901 57.511565,120.001579 57.3752855,119.987036 C56.2528622,119.862762 51.4810225,118.761486 51.4063769,118.153338 C51.3235135,117.471155 52.063806,115.973261 52.7198655,116.000363 C53.375925,116.027465 58.6791865,117.560394 58.6791865,117.560394 C58.6791865,117.560394 59.5023426,117.853892 59.389347,119.27709 C59.3194951,120.155599 57.6081249,119.987036 57.6081249,119.987036" id="Fill-59" fill="#FFBF9D"></path>
                        <path d="M59.6082218,117.987036 C59.5938404,118.002901 59.5109757,118.00224 59.3753789,117.987036 C58.2529391,117.862762 53.4803442,116.761486 53.4063823,116.153338 C53.3235177,115.471155 54.0631363,113.973261 54.7192055,114.000363 C55.3752746,114.028126 60.6786144,115.561055 60.6786144,115.561055 C60.6786144,115.561055 61.5017826,115.854553 61.3894701,117.27709 C61.3189324,118.155599 59.6082218,117.987036 59.6082218,117.987036" id="Fill-61" fill="#FFBF9D"></path>
                        <path d="M61.6081324,114.987036 C61.5937512,115.002901 61.5115725,115.00224 61.3759777,114.987036 C60.2528692,114.862762 55.4810279,113.761486 55.4063823,113.153338 C55.3235188,112.471155 56.0631268,110.973261 56.7191865,111.000363 C57.375931,111.027465 62.6785096,112.560394 62.6785096,112.560394 C62.6785096,112.560394 63.5023507,112.854553 63.3893551,114.27709 C63.3188184,115.155599 61.6081324,114.987036 61.6081324,114.987036" id="Fill-63" fill="#FFBF9D"></path>
                        <path d="M62.6081324,111.986926 C62.5937512,112.00279 62.5115725,112.002129 62.3759777,111.986926 C61.2528692,111.862656 56.4810279,110.76141 56.4063823,110.153279 C56.3235188,109.471775 57.0631268,107.973261 57.7191865,108.000363 C58.3752462,108.028125 63.6785096,109.561012 63.6785096,109.561012 C63.6785096,109.561012 64.5023507,109.854501 64.3893551,111.276999 C64.3195032,112.156145 62.6081324,111.986926 62.6081324,111.986926" id="Fill-65" fill="#FFBF9D"></path>
                        <path d="M53.4001199,116.015657 C53.3867296,116.084449 54.4966358,116.356822 55.8765795,116.62416 C57.2580109,116.891499 58.3872586,117.052574 58.399905,116.984341 C58.4118075,116.915549 57.3033891,116.643736 55.9227016,116.376397 C54.542014,116.108499 53.4127663,115.947424 53.4001199,116.015657" id="Fill-67" fill="#FF9A6C"></path>
                        <path d="M54.4002436,113.014833 C54.3776762,113.109021 55.9260864,113.627058 57.8588691,114.170997 C59.7916518,114.715721 61.3771889,115.079917 61.3997562,114.984943 C61.4223235,114.890755 59.8753694,114.372718 57.9411307,113.828779 C56.0090759,113.28484 54.4228109,112.920644 54.4002436,113.014833" id="Fill-69" fill="#FF9A6C"></path>
                        <path d="M55.4002436,110.014833 C55.3776786,110.109021 56.9259277,110.627058 58.8585095,111.170997 C60.7918192,111.715721 62.3764634,112.079917 62.3997563,111.984943 C62.4223213,111.890755 60.8748001,111.372718 58.9414904,110.828779 C57.0089086,110.28484 55.4235364,109.920644 55.4002436,110.014833" id="Fill-71" fill="#FF9A6C"></path>
                        <path d="M61.3998454,108.968883 C61.3791929,109.110806 59.7930827,108.754607 57.8730908,108.158159 C55.9551641,107.551508 54.3917716,107.178612 54.4,107.05153 C54.4082936,106.904042 56.0260709,107.061734 57.9536354,107.673023 C59.8791347,108.270399 61.4177442,108.840874 61.3998454,108.968883" id="Fill-73" fill="#FF9A6C"></path>
                        <path d="M20.4,101.091529 C20.3966919,101.148265 19.958914,101.135172 19.2803908,101.255502 C18.6031724,101.371467 17.6897758,101.665746 16.8213966,102.228116 C15.9556271,102.795474 15.3364746,103.501867 14.9763354,104.06299 C14.6122816,104.622243 14.4654857,105.0169 14.4087246,104.999443 C14.3734936,104.990714 14.4361265,104.563014 14.7603823,103.945778 C15.0800712,103.330412 15.7083576,102.551697 16.6237115,101.951919 C17.5416751,101.355881 18.5294483,101.080307 19.2451597,101.021077 C19.9654382,100.956859 20.4051735,101.056615 20.4,101.091529" id="Fill-75" fill="#FF9A6C"></path>
                        <path d="M65.0522722,19.5257348 C64.7276454,14.572025 61.4198112,8.50014019 56.4664554,9.0327372 L41.0033099,12.9637772 C39.4984133,13.1255082 38.3678168,14.4075055 38.4006992,15.9153685 L40.1392712,53.0870147 C40.1028906,53.094683 40.0693085,53.1016542 40.0322283,53.1100196 C40.0322283,53.1100196 43.5562471,63.5946518 53.7819884,60.3914015 C55.8088065,59.7563283 56.7344124,57.546469 57.1366976,55.2731721 L57.2416416,55.2871144 C57.2451397,55.0166332 57.2486379,54.7656713 57.252136,54.5084353 C57.589356,51.8844888 57.3123039,49.4034511 57.3123039,49.4034511 C57.3416882,46.4030617 57.3388897,45.1719539 57.3409886,45.1998386 C57.3409886,45.1998386 63.6914986,44.1346446 64.9886061,35.8724198 C65.6343614,31.7643122 65.4125798,25.0301668 65.0522722,19.5257348" id="Fill-77" fill="#FFBF9D"></path>
                        <path d="M62.3993457,23.9415932 C62.4191282,24.4936777 61.9878696,24.966009 61.4352783,24.9983227 C60.8846653,25.029949 60.4204358,24.6105573 60.4006533,24.0584729 C60.3808708,23.507076 60.8127888,23.0340572 61.3640613,23.0017434 C61.9159932,22.9694296 62.3795632,23.3901963 62.3993457,23.9415932" id="Fill-79" fill="#1A2E35"></path>
                        <path d="M63.3839411,21.9815084 C63.2598829,22.1036565 62.4943045,21.580517 61.4096244,21.5848354 C60.3262712,21.5755818 59.5308392,22.0962536 59.4134151,21.9722547 C59.3556982,21.9179667 59.48241,21.697113 59.8287115,21.4614534 C60.1683789,21.2276447 60.750192,20.9987711 61.4262098,21 C62.1015641,21.0024726 62.6707723,21.2325799 62.9978349,21.4688564 C63.3321949,21.7057497 63.4456385,21.9266034 63.3839411,21.9815084" id="Fill-81" fill="#1A2E35"></path>
                        <path d="M51.3993458,23.9418834 C51.4191278,24.494138 50.9878784,24.9666148 50.4352988,24.9982508 C49.8846974,25.0305746 49.4204778,24.6110537 49.4006957,24.0587991 C49.3802542,23.5072322 49.8128225,23.0340677 50.3640833,23.0017439 C50.9160035,22.9694202 51.3795637,23.3903166 51.3993458,23.9418834" id="Fill-83" fill="#1A2E35"></path>
                        <path d="M52.3842772,22.9815084 C52.2595684,23.1036565 51.4934049,22.580517 50.4094992,22.5848354 C49.3262569,22.5755818 48.5309062,23.0962536 48.4134942,22.9722547 C48.3557831,22.9179667 48.4811553,22.697113 48.8287481,22.4620704 C49.1690441,22.2270278 49.7501343,21.9987712 50.4260828,22 C51.101368,22.0024726 51.670518,22.2325799 51.9975471,22.4682395 C52.3312096,22.7057497 52.4453049,22.9266034 52.3842772,22.9815084" id="Fill-85" fill="#1A2E35"></path>
                        <path d="M56.8808881,31.9525449 C56.8760477,31.8845965 57.4907733,31.7545449 58.4866772,31.5981906 C58.7395859,31.566043 58.9785786,31.5046703 59.0209318,31.2971722 C59.0802262,31.0757921 58.9737383,30.7477405 58.8509142,30.3926556 C58.6113164,29.654722 58.3614329,28.882449 58.0994484,28.0714527 C57.055746,24.7675561 56.300045,22.0503532 56.4107682,22.0006705 C56.5208864,21.9517185 57.4562857,24.589283 58.4999882,27.8931796 C58.7510818,28.7085597 58.9912846,29.4852165 59.2193865,30.2289951 C59.3161937,30.5745818 59.4813709,30.9676593 59.3531014,31.425032 C59.2859414,31.6537183 59.1001927,31.8188401 58.9380406,31.8729065 C58.7770987,31.9328179 58.6343081,31.9364711 58.5096689,31.9452386 C57.5071095,32.0131869 56.8851234,32.0204932 56.8808881,31.9525449" id="Fill-87" fill="#1A2E35"></path>
                        <path d="M57.4,44.9541069 C57.4,44.9541069 51.8778282,45.3278574 46.4,42 C46.4,42 49.0793273,47.7223944 57.2932981,46.9235116 L57.4,44.9541069 Z" id="Fill-89" fill="#FF9A6C"></path>
                        <path d="M54.4172811,34.5624556 C54.5461206,34.401997 55.4811278,35.3910927 56.9263398,35.2282392 C58.3722879,35.0701755 59.241771,33.8791095 59.3794453,34.0100309 C59.4508592,34.057929 59.3433702,34.4427104 58.9435994,34.9105151 C58.554872,35.3719335 57.8333704,35.8836448 56.9484266,35.9834325 C56.0649552,36.0808253 55.3184219,35.7327658 54.9031903,35.3599589 C54.4783878,34.9839589 54.348812,34.6263198 54.4172811,34.5624556" id="Fill-91" fill="#1A2E35"></path>
                        <path d="M52.994335,18.5554078 C52.8872202,18.7581682 51.7939794,18.6638504 50.5106098,18.7713818 C49.2232234,18.8606876 48.1882263,19.118125 48.0168425,18.9367797 C47.9411927,18.8497522 48.1212795,18.659294 48.5390273,18.4624569 C48.9534279,18.2656197 49.614862,18.0788067 50.3860888,18.0191177 C51.1566461,17.9607956 51.8629346,18.042811 52.3308925,18.1717576 C52.8028673,18.3002485 53.0405283,18.4592674 52.994335,18.5554078" id="Fill-93" fill="#1A2E35"></path>
                        <path d="M63.3703062,18.9124102 C63.1656588,19.1135301 62.3620437,18.9064631 61.3958517,18.8983534 C60.4310857,18.8642928 59.6124964,19.0362179 59.4242494,18.8264476 C59.3415348,18.7242657 59.469172,18.5231458 59.8264135,18.3328388 C60.1779505,18.1425318 60.7669355,17.986826 61.4300784,18.0008828 C62.0939344,18.0160208 62.6693713,18.1971369 63.0059341,18.4020413 C63.3482014,18.6080271 63.4601513,18.8140128 63.3703062,18.9124102" id="Fill-95" fill="#1A2E35"></path>
                        <path d="M35.4,39.5226276 C37.6636714,39.988634 40.1287742,39.277548 41.8187136,37.6706782 C43.5100422,36.0630981 44.3838374,33.6002256 44.0934985,31.2581171 C43.8371945,29.1909239 42.7480761,27.0875016 43.4489182,25.131127 C44.3748077,22.5453596 47.9199992,21.7490285 48.8611697,19.1682337 C49.4078127,17.6679203 48.9174316,15.9132924 49.5370066,14.4428148 C50.1190737,13.0604237 51.5415956,12.2640926 52.9259151,11.7519117 C54.3109292,11.2404413 55.7945751,10.8866742 56.9566255,9.96318583 C58.1193705,9.03898709 58.8438287,7.29572521 58.0943653,6 C51.9555718,6.75228783 45.9042967,8.25544273 40.112104,10.4682629 C38.76946,10.9811542 37.3580515,11.5970499 36.5648288,12.8181856 C35.7243739,14.1103589 35.7646602,15.7790314 35.8355084,17.3290711 C36.1800255,24.8860474 36.5245425,32.4430237 36.8697541,40" id="Fill-97" fill="#1A2E35"></path>
                        <path d="M35.9385404,42.9994756 C35.9342909,43.0043626 35.8889634,42.9750411 35.8039742,42.9136056 C35.7012789,42.8375093 35.5787528,42.745356 35.4300217,42.6343532 C35.1056462,42.3830262 34.6282902,42.0102243 34.03974,41.4991926 C33.4554393,40.9846702 32.7500289,40.3312198 32.0672823,39.4522732 C31.39091,38.5803078 30.7272859,37.4437509 30.4978151,36.0474894 C30.2478052,34.689625 30.4319485,32.9792046 31.5807192,31.6953421 C32.1466056,31.0663263 32.872555,30.595088 33.5347625,30.0526404 C34.2097184,29.5206648 34.7699389,28.8448742 35.0603187,28.0022304 C35.6814481,26.3162445 35.4045249,24.3635728 35.6439112,22.368315 C35.9095024,20.3828311 36.6297859,18.3331191 38.0229005,16.6687754 C38.7191037,15.8456792 39.5534144,15.1335858 40.5116676,14.6644419 C41.4635466,14.1694672 42.4954572,13.9649149 43.4480445,13.687757 C44.4098389,13.4259579 45.2916019,13.0336084 46.0239255,12.4360085 C46.761915,11.8509749 47.3660466,11.1367871 47.8951044,10.4030517 C48.9482622,8.92720322 49.7280381,7.35501272 50.7323272,6.043225 C51.2323469,5.38907646 51.7741531,4.79287278 52.3860753,4.31325694 C52.9958728,3.8336411 53.665871,3.48108506 54.3457846,3.26117386 C55.6999459,2.8059926 57.1298892,2.95678884 58.0725611,3.62769252 C59.0031928,4.32512516 59.3445661,5.33113161 59.3962679,6.10256611 C59.4352212,6.89843519 59.1625476,7.495337 58.8912904,7.80670333 C58.7588489,7.96797154 58.6405722,8.07199302 58.5492088,8.12993788 C58.4642196,8.19346778 58.4188921,8.22278927 58.4153508,8.21720422 C58.4118096,8.21231731 58.4493465,8.17252386 58.5251286,8.10131452 C58.6065765,8.03569022 58.7135213,7.92538556 58.8317979,7.76202296 C59.0754336,7.44646785 59.3112787,6.87120809 59.2532027,6.11303807 C59.1837949,5.37581198 58.8289649,4.4235616 57.9521597,3.79245138 C57.0668555,3.18577574 55.7169437,3.05382902 54.4286491,3.5048215 C53.7820229,3.72124204 53.1431875,4.06751491 52.5645527,4.53177187 C51.9830849,4.99672697 51.4604013,5.57966616 50.9773793,6.22334273 C50.004253,7.5134884 49.2407667,9.08149012 48.1720275,10.5964339 C47.6358873,11.3483207 47.0175909,12.0890375 46.2456056,12.7061851 C45.4835358,13.3365972 44.5252826,13.7631551 43.5493233,14.0291429 C42.5769052,14.3132821 41.5747408,14.5171363 40.678813,14.9862802 C39.7701368,15.4323858 38.9754878,16.1109689 38.3076143,16.8998567 C36.9697427,18.4950855 36.2650406,20.4847582 36.0029905,22.4129954 C35.7586466,24.3412326 36.0419439,26.3232258 35.3797364,28.1174219 C35.0695258,29.0124256 34.4391893,29.7608218 33.7415696,30.2990806 C33.0545735,30.8526983 32.342789,31.309974 31.8080653,31.8964038 C30.7315354,33.0776411 30.5296861,34.6917194 30.7556157,36.0056015 C30.9595898,37.3536921 31.5835521,38.4609275 32.2330113,39.3301003 C32.8867199,40.2048581 33.5701747,40.8673843 34.1367694,41.3937749 C34.7076135,41.9187692 35.1686799,42.3090243 35.477474,42.5778046 C35.7869763,42.8451887 35.9470393,42.9890037 35.9385404,42.9994756" id="Fill-99" fill="#375A64"></path>
                        <path d="M20.5092883,61.382795 L8.06208361,85.2581549 C6.47367219,88.2601163 7.87311983,89.3623164 10.8756218,90.9031399 L20.0497786,94.4699524 C23.060648,96.015007 25.4160711,93.9876076 26.8650259,90.9031399 C30.2154723,83.7702201 33.0471399,78.0321511 33.3190804,78.1485061 C33.7137428,78.3184551 33.1356949,57.9859315 20.5092883,61.382795" id="Fill-101" fill="#2983E9"></path>
                        <path d="M30.4,83.9956759 C30.3985386,84.0074628 30.2556721,83.9949826 29.9824226,83.9603152 C29.7119473,83.9201011 29.312476,83.8431396 28.8138304,83.6857499 C27.8227809,83.3779038 26.3982773,82.7109041 25.0791898,81.3463974 C23.7628764,80.0061578 22.6698785,77.8429155 22.6261863,75.3094259 C22.5984453,74.0516946 22.8245349,72.7176951 23.388372,71.4613505 C23.675492,70.8373383 24.066641,70.2285797 24.6200752,69.7564105 C25.1679612,69.2821612 25.9010188,68.984022 26.6548822,69.0006623 C27.4052779,69.0006623 28.1764795,69.3868566 28.5606932,70.041376 C28.9532292,70.6820286 29.0378395,71.454417 28.8838766,72.147764 C28.7271396,72.849431 28.3290553,73.4457094 27.8602313,73.9164919 C27.3865527,74.3886612 26.8386667,74.7485082 26.2734426,75.0209935 C23.9806437,76.1213351 21.5019798,75.8037822 19.8673376,74.8816308 C18.2014868,73.9483859 17.3082246,72.5984394 16.8733834,71.654101 C16.6521485,71.1749982 16.5439583,70.7777105 16.4718316,70.5107719 C16.4142688,70.2389799 16.392076,70.0961504 16.4024789,70.0933771 C16.4378488,70.0836702 16.5307813,70.6653883 16.991283,71.5965532 C17.4524781,72.5062243 18.3568368,73.7972362 19.9796889,74.6708534 C21.5678648,75.5326836 23.9570638,75.8065556 26.1382049,74.7394947 C27.1944458,74.2201779 28.2673314,73.3361606 28.5634673,72.0756559 C28.6993985,71.4599638 28.6168688,70.7680036 28.2770408,70.2216462 C27.9476157,69.6648887 27.3109583,69.3445624 26.6486404,69.339709 C25.9821614,69.325842 25.3316335,69.5858471 24.835762,70.0143355 C24.3315682,70.4421306 23.961225,71.008595 23.6858949,71.6014066 C23.1435571,72.8008967 22.916774,74.0898286 22.9354992,75.3038791 C22.9618532,77.7548604 23.9917401,79.8550082 25.2511844,81.1806875 C26.5134027,82.5313273 27.89144,83.2205141 28.8547484,83.5602541 C29.8277662,83.9069275 30.4075544,83.9582352 30.4,83.9956759" id="Fill-103" fill="#FAFAFA"></path>
                        <path d="M31.4058506,68.0003987 C31.4235682,67.987337 31.6659457,68.2953165 32.0117943,68.9119628 C32.3633125,69.5258594 32.7694011,70.4807331 33.061388,71.7215878 C33.6673316,74.1916105 33.5376384,77.8777395 32.0330555,81.4703747 C30.5490249,85.0437613 28.5795308,87.9503173 27.0543953,89.9349973 C26.2889928,90.9297435 25.6341483,91.7038168 25.1656936,92.224907 C24.6979476,92.7459972 24.4229697,93.0189165 24.4017085,92.9989804 C24.3776125,92.9783567 24.6093594,92.66694 25.0360004,92.1135395 C25.4626415,91.5594514 26.0785071,90.7578799 26.8084743,89.74526 C28.2613217,87.72277 30.1677411,84.8196512 31.6298017,81.2978238 C33.0989494,77.7883705 33.2732911,74.2129216 32.7594792,71.7882709 C32.2676372,69.3347471 31.3101753,68.0457706 31.4058506,68.0003987" id="Fill-105" fill="#1A2E35"></path>
                        <path d="M57.4,18.5 C57.4,18.7760473 57.1759269,19 56.8997313,19 C56.6240731,19 56.4,18.7760473 56.4,18.5 C56.4,18.2239527 56.6240731,18 56.8997313,18 C57.1759269,18 57.4,18.2239527 57.4,18.5" id="Fill-107" fill="#FF4F5B"></path>
                        <path d="M69.8421621,110 C69.8288693,110.003439 69.7705287,109.841977 69.6700942,109.531634 C69.5703982,109.221291 69.4190081,108.762767 69.2676179,108.162351 C68.9478523,106.967112 68.5542378,105.213395 68.3120135,103.014434 C68.0638813,100.81757 67.9752627,98.171967 68.2654887,95.2586583 C68.409494,93.8027029 68.642118,92.2803454 68.9929001,90.7230393 C69.3422052,89.1629373 69.8384696,87.586759 70.2667931,85.9616528 C70.6936395,84.3386435 71.0259594,82.7282156 71.0230055,81.1625219 C71.0392522,79.5968281 70.6737003,78.1066232 69.9957677,76.8212166 C69.3318664,75.5288203 68.4678346,74.4111666 67.6458967,73.3815832 C66.8187894,72.3540967 66.0153137,71.4132825 65.3388581,70.5109117 C63.946807,68.7320319 63.1366849,67.0740741 62.7755639,65.8858244 C62.6906377,65.5859661 62.6042345,65.3231532 62.5532788,65.0896971 C62.5170929,64.8639296 62.4860764,64.666121 62.4587523,64.4934753 C62.410012,64.17125 62.3908113,64.0014001 62.4041041,64 C62.4173969,63.9993032 62.4624447,64.1649592 62.5348166,64.4808939 C62.5724795,64.6500447 62.6153119,64.8436595 62.6647906,65.0659321 C62.7268237,65.2937964 62.8243042,65.5503186 62.9180922,65.8431872 C63.3198301,67.004876 64.1491529,68.613207 65.5589277,70.3592351 C66.2442452,71.2455296 67.0573213,72.1730633 67.8984599,73.1984529 C68.7351675,74.2245415 69.6213539,75.3484859 70.3140563,76.6744328 C71.0230055,77.992691 71.413666,79.5555889 71.3996347,81.1632208 C71.4070196,82.7750466 71.0695302,84.4148312 70.6397298,86.0490241 C70.2084524,87.6860128 69.7114496,89.2565993 69.3614059,90.7978291 C69.0084083,92.3404568 68.770615,93.848136 68.6184863,95.290811 C68.311275,98.1782578 68.3703541,100.80429 68.5823004,102.989271 C68.7890772,105.177748 69.1391208,106.928668 69.4138386,108.130199 C69.5423357,108.73341 69.6693557,109.196128 69.7446816,109.512762 C69.8214844,109.828697 69.8554549,109.99645 69.8421621,110" id="Fill-109" fill="#1A2E35"></path>
                        <path d="M40.3135312,52 L40.1543819,52.9337383 L33.4,54.3984799 C33.4,54.3984799 37.2293994,65.385421 44.8517411,68.1156055 C44.8517411,68.1156055 48.5857911,69.4651815 50.0812339,68.8300464 L56.3132975,58.3437655 L57.4,55.0874049 L40.3135312,52 Z" id="Fill-111" fill="#FFBF9D"></path>
                        <path d="M109.675677,94 C109.176279,94.2733682 108.877966,94.7228157 108.687193,95.2003537 C108.485371,95.674466 108.369729,96.1814647 108.280603,96.6884634 C108.11561,97.7065716 108.081728,98.7479743 108.156122,99.7749892 C108.237145,100.795153 108.401402,101.837926 108.846293,102.73408 C109.079051,103.159548 109.396515,103.585701 109.884128,103.665177 C110.374687,103.789871 110.921226,103.528835 111.4,103.253411 C111.022137,103.639141 110.513163,104.01528 109.84067,103.999522 C109.148289,103.976227 108.651837,103.460322 108.342476,102.993061 C107.71786,102.006469 107.523404,100.900663 107.421756,99.8208932 C107.358411,98.7342716 107.426176,97.6394285 107.720806,96.5802123 C107.864438,96.0512893 108.064787,95.5299028 108.365309,95.0523649 C108.673198,94.5926404 109.101885,94.1288051 109.675677,94" id="Fill-113" fill="#1A2E35"></path>
                        <path d="M108.675806,94 C108.166134,94.3050648 107.871526,94.803603 107.68224,95.3275029 C107.481907,95.8499536 107.369219,96.4035629 107.280837,96.9586214 C107.118066,98.0709124 107.084186,99.2071158 107.154892,100.329551 C107.233699,101.444741 107.388368,102.583118 107.821442,103.580195 C108.049027,104.052646 108.360575,104.535243 108.852571,104.64611 C109.351195,104.793932 109.918316,104.504809 110.4,104.188875 C110.021429,104.6164 109.494817,105.035955 108.795122,104.99755 C108.08438,104.933059 107.612271,104.34974 107.309561,103.83671 C106.704141,102.749056 106.518538,101.549811 106.419844,100.374478 C106.360186,99.1926234 106.427946,98.0027982 106.720345,96.8484793 C106.861756,96.2724068 107.060617,95.7035805 107.357435,95.1775067 C107.662354,94.6724469 108.087326,94.1536193 108.675806,94" id="Fill-115" fill="#1A2E35"></path>
                        <path d="M107.675614,94 C107.159992,94.3077802 106.867561,94.8091641 106.67899,95.3318232 C106.480844,95.8537731 106.368881,96.4069265 106.281225,96.9593707 C106.119173,98.067805 106.084552,99.1989328 106.153793,100.317296 C106.231136,101.429276 106.381403,102.561822 106.807159,103.563881 C107.031823,104.042571 107.343406,104.525516 107.835456,104.653876 C108.077799,104.743941 108.356971,104.679407 108.628041,104.604944 C108.892481,104.497859 109.146609,104.354606 109.4,104.194334 C109.021386,104.623382 108.48514,105.047466 107.769899,104.995697 C107.051711,104.906341 106.588388,104.321984 106.290801,103.807126 C105.696363,102.719258 105.515895,101.52856 105.4194,100.359846 C105.360472,99.1854586 105.428976,98.0025613 105.719197,96.8529951 C105.860625,96.280694 106.058035,95.7140664 106.352676,95.1885707 C106.656892,94.6829317 107.078966,94.1602727 107.675614,94" id="Fill-117" fill="#1A2E35"></path>
                        <path d="M47.303734,107 C46.6820727,107.179987 46.2007427,107.62035 45.8448297,108.142526 C45.4773919,108.658299 45.2062201,109.245925 44.9757241,109.846355 C44.5262568,111.05362 44.2469499,112.337005 44.1269563,113.627505 C44.0571296,114.272043 44.0408593,114.921562 44.082213,115.56112 C44.1167874,116.200679 44.2245782,116.833123 44.438126,117.408654 C44.6489621,117.985609 45.0408053,118.464388 45.5960296,118.64153 C46.1600669,118.828631 46.8013882,118.655047 47.4,118.443757 C46.8651136,118.795195 46.226504,119.072645 45.5268808,118.983007 C44.8238679,118.869181 44.2374588,118.286536 43.9581519,117.642709 C43.3669974,116.339404 43.3392022,114.910179 43.4530944,113.557075 C43.5934258,112.196857 43.9161203,110.854425 44.4943941,109.62155 C44.7804804,109.006179 45.1350375,108.416419 45.5939958,107.916297 C46.0549879,107.435384 46.6515658,107.017074 47.303734,107" id="Fill-119" fill="#1A2E35"></path>
                        <path d="M46.3850001,107 C45.7440968,107.185386 45.2586466,107.637565 44.897968,108.160889 C44.5270622,108.679424 44.2536556,109.265683 44.019794,109.862887 C43.56298,111.062769 43.2759371,112.333795 43.1423019,113.612346 C43.0645753,114.250595 43.0454846,114.894317 43.0754843,115.529831 C43.1007114,116.163975 43.1975287,116.795384 43.4007087,117.375486 C43.6018432,117.953537 43.9707036,118.468651 44.5454712,118.646513 C45.1202387,118.856526 45.7884146,118.65951 46.4,118.43992 C45.8545503,118.791538 45.1931926,119.093903 44.4670628,118.97282 C44.1029751,118.917409 43.7791144,118.712869 43.5050259,118.470703 C43.2541191,118.208699 43.0488937,117.903598 42.909804,117.582079 C42.3479908,116.279585 42.3411727,114.877215 42.4645807,113.539833 C42.619352,112.198346 42.9493491,110.873962 43.533662,109.650822 C43.8234322,109.039935 44.1793381,108.452992 44.6416067,107.949507 C45.1059207,107.464492 45.710688,107.0301 46.3850001,107" id="Fill-121" fill="#1A2E35"></path>
                        <path d="M44.4,106 C43.7532783,106.205319 43.268746,106.70084 42.9097578,107.268913 C42.5392331,107.831906 42.2664292,108.466 42.0329851,109.110976 C41.5749188,110.408184 41.2858281,111.778667 41.1453544,113.156406 C41.0645991,113.844913 41.0428833,114.539223 41.0679921,115.224828 C41.0869934,115.910433 41.1772494,116.593135 41.372691,117.223601 C41.5681326,117.848263 41.9203347,118.427944 42.4998733,118.623831 C43.0760189,118.864699 43.7553142,118.637615 44.3687836,118.39457 L43.9358262,118.669538 C43.7872091,118.754422 43.6223053,118.805933 43.4641876,118.876307 C43.3019982,118.936524 43.1269151,118.956839 42.9545465,118.998193 C42.7787848,118.98731 42.5935224,119.023585 42.4164035,118.968447 C42.0445215,118.912583 41.7289648,118.664459 41.4575181,118.402551 C41.2138947,118.112348 41.011667,117.781516 40.8800153,117.431822 C40.3391578,116.022161 40.3432295,114.516007 40.4708095,113.077326 C40.6323202,111.634291 40.9641638,110.209395 41.5477741,108.888971 C41.8368648,108.23021 42.1911027,107.595391 42.6518835,107.046907 C43.1140214,106.520189 43.7179902,106.040628 44.4,106" id="Fill-123" fill="#1A2E35"></path>
                    </g>
                </g>
            </g>
        </g>
    </g>
</svg>