<svg xmlns="http://www.w3.org/2000/svg" xmlns:xlink="http://www.w3.org/1999/xlink" viewBox="0 0 943.22 704.47"><defs><style>.cls-1,.cls-4{fill:none;}.cls-1{opacity:0.08;}.cls-2{fill:#0c519b;}.cls-3{fill:#edf4f9;}.cls-4{stroke:#0c519b;stroke-linecap:round;stroke-miterlimit:10;stroke-dasharray:13 18;}.cls-5{fill:#e55a28;}.cls-6{fill:#a03e20;}.cls-7{fill:#239e6f;}.cls-8{fill:#20bb83;}.cls-9{fill:#36ce94;}.cls-10{opacity:0.43;}.cls-11{clip-path:url(#clip-path);}.cls-12{fill:#e89074;}</style><clipPath id="clip-path"><path class="cls-1" d="M81.94,536.41c5.69-6.45,14.14-10.58,21.68-14.62,1.75-.93,5-3.37,6.95-2.24,1.75,1,.29,2.23-1.07,4.72a101.73,101.73,0,0,1-7.88,11.83c-3.3,4.43-8.09,11.17-6,17,2.39,6.51,10.93,6.75,16.46,4.59,15-5.84,23.73-21.84,37.32-30,.78-.47,3.52-1.45,3.75-2,1.43-.29,1.15-.58-.82-.87q-2.48-1.74-1.76,1.17c-2.85,3.78-4.54,9-7.43,13-4.21,5.81-9.34,12.51-9.66,19.91a7,7,0,0,0,3.43,6c11.75,7.4,24.21-2.67,31.86-10.91,5.54-6,11.75-11,17.76-16.39,2.4-2.17,11.76-13.82,14.82-12.79l-4.14-3.19c3.93,6.09-5.95,15-9,19.47-3.34,4.85-8.15,12.78-6.1,18.88,2.15,6.37,9.75,7.91,15.57,6.36,8.92-2.37,16.12-11.28,25.92-7.87,8.45,2.94,12.08-10.46,3.69-13.38-6.58-2.29-12.8-1.6-19.22,1-3.31,1.31-6.24,3.18-9.4,4.79a18.89,18.89,0,0,1-3.05,1.44c-2.52.48-2.28,1.49.73,3,1-.66,1.69-4,2.33-5.11,5.92-10,16.84-19.35,12.11-32.51-10.65-29.69-56.09,42-66.88,35.23l3.43,6c.18-4.1,5.39-9.61,7.77-12.91,3.51-4.87,7.44-10.31,8.83-16.28,1.79-7.63-.15-17.4-9.43-18.06-8.65-.61-16.88,7.17-23,12.22-8.07,6.6-17,21.14-28.57,20.92l6,3.44q-.81,4.8.41,1.72c.55-1.16,1.11-2.3,1.7-3.44,1.27-2,3.2-4.17,4.62-6.15a84.77,84.77,0,0,0,7.75-12.64c3.29-6.89,3.58-17-4.5-20.83-7-3.31-16-.66-22.32,2.93-8.59,4.91-17.85,9.26-24.48,16.79-5.89,6.67,3.89,16.52,9.81,9.81Z"/></clipPath></defs><g id="Layer_2" data-name="Layer 2"><g id="Layer_1-2" data-name="Layer 1"><path class="cls-2" d="M257.3,294.1a1,1,0,0,1-.56.14h-2.3c-5.3.1-10.81.14-16.68.1a1.57,1.57,0,0,1,.07-3.14c5.8.05,11.31,0,16.61-.09h2.3a1.67,1.67,0,0,1,1.61,1.54A1.77,1.77,0,0,1,257.3,294.1Zm-37.89-1a1.22,1.22,0,0,1-.7.09,144.82,144.82,0,0,1-18.84-3.13,1.58,1.58,0,0,1-1.11-1.92,1.51,1.51,0,0,1,1.88-1.07,149.33,149.33,0,0,0,18.42,3,1.54,1.54,0,0,1,.35,3Zm-36.57-9.07a1.71,1.71,0,0,1-1.18,0A91.41,91.41,0,0,1,165,274.58a1.55,1.55,0,1,1,1.81-2.51,93.17,93.17,0,0,0,16.12,9.22,1.51,1.51,0,0,1,.77,2A1.35,1.35,0,0,1,182.84,284.05Zm-30.42-22a1.69,1.69,0,0,1-1.75-.41A88.05,88.05,0,0,1,139.44,246a1.54,1.54,0,1,1,2.72-1.46A86.71,86.71,0,0,0,153,259.64a1.53,1.53,0,0,1-.14,2.17C152.77,261.94,152.63,262,152.42,262.08Zm2.3-22.39a77.9,77.9,0,0,1-10.05,3.14,1.59,1.59,0,0,1-1.88-1.19,1.54,1.54,0,0,1,1.18-1.89,70.68,70.68,0,0,0,9.64-3,62.31,62.31,0,0,0,7.6-3.56,1.55,1.55,0,0,1,1.47,2.73A72,72,0,0,1,154.72,239.69Zm-28.61,5.37c-.14.07-.35.07-.49.14a183.68,183.68,0,0,1-19.05-.42,1.57,1.57,0,0,1,.21-3.14,178.81,178.81,0,0,0,18.77.42,1.56,1.56,0,0,1,1.61,1.53A1.61,1.61,0,0,1,126.11,245.06Zm51-20.87a1.39,1.39,0,0,1-1.53-.28,1.54,1.54,0,0,1-.21-2.16,40.13,40.13,0,0,0,5.23-8.1,30.26,30.26,0,0,0,2.58-8,1.56,1.56,0,1,1,3.07.56,33.32,33.32,0,0,1-2.86,8.86,43.17,43.17,0,0,1-5.65,8.72A1.65,1.65,0,0,1,177.12,224.19Zm-42.85,5.1c-.07,0-.14.07-.2.07a1.55,1.55,0,0,1-1.89-1.12A55.58,55.58,0,0,1,130.44,209a1.54,1.54,0,1,1,3.07.28,54.75,54.75,0,0,0,1.67,18.21A1.57,1.57,0,0,1,134.27,229.29Zm-45.91,14a1.15,1.15,0,0,1-.7.07L81,242.9c-4.33-.22-8.3-.29-12.14-.29a1.57,1.57,0,1,1-.07-3.13c3.91-.07,8,.07,12.35.27l6.7.42a1.61,1.61,0,0,1,1.46,1.68A1.64,1.64,0,0,1,88.36,243.24ZM2.11,270.6a1.41,1.41,0,0,1-1.47-.21,1.55,1.55,0,0,1-.35-2.16A63.2,63.2,0,0,1,14,254.62a1.55,1.55,0,0,1,1.81,2.51A59,59,0,0,0,2.8,270,1.42,1.42,0,0,1,2.11,270.6Zm48.43-26.66a.66.66,0,0,1-.36.07,92.38,92.38,0,0,0-18,4.54,1.63,1.63,0,0,1-2-.91,1.55,1.55,0,0,1,.91-1.95A98,98,0,0,1,49.7,241a1.52,1.52,0,0,1,1.74,1.32A1.29,1.29,0,0,1,50.54,243.94Zm132.65-55.13a1.52,1.52,0,0,1-1.95-.84,19.77,19.77,0,0,0-9.84-10.32,19.06,19.06,0,0,0-2.79-1.05,1.57,1.57,0,1,1,.91-3,17.6,17.6,0,0,1,3.2,1.19,23,23,0,0,1,11.38,11.86,1.59,1.59,0,0,1-.91,2.16ZM138,192.58a1.66,1.66,0,0,1-1.39-.14,1.57,1.57,0,0,1-.56-2.16A38.79,38.79,0,0,1,150,176.6a1.53,1.53,0,0,1,1.53,2.65,35.55,35.55,0,0,0-12.77,12.56A1.11,1.11,0,0,1,138,192.58Z"/><path class="cls-3" d="M123.05,527.51C83.94,461.11,105,358.57,155,282,205.38,204.89,285.14,154,369.91,108.6,455.41,63,546.77,23.44,630.44,36.45s160.38,78.47,211.44,158.32c51.49,80.15,77.34,174.68,57.54,255.55C879.2,530.91,812.61,598,744.25,634.21S605.15,676.7,541,675.3s-122.78-9.9-201.21-29.57C260.93,625.77,161.85,594.34,123.05,527.51Z"/><path class="cls-4" d="M84.1,541.72c-42.88-72.81-19.8-185.25,35.08-269.27C174.38,188,261.84,132.2,354.8,82.37,448.55,32.39,548.73-11,640.47,3.25S816.33,89.3,872.33,176.86c56.46,87.88,84.8,191.53,63.09,280.22C913.25,545.44,840.23,619,765.27,658.71s-152.53,46.6-222.89,45.06-134.64-10.86-220.63-32.42C235.29,649.46,126.65,615,84.1,541.72Z"/><ellipse class="cls-5" cx="155.3" cy="476.85" rx="85.47" ry="15.38"/><ellipse class="cls-6" cx="155.3" cy="476.85" rx="67.26" ry="12.11"/><path class="cls-5" d="M68.69,484.15s12.46,40.66,19.85,69.26a34.37,34.37,0,0,0,33.3,25.76H187a34.4,34.4,0,0,0,33-24.68l20.72-70.34S155.3,510.12,68.69,484.15Z"/><path class="cls-7" d="M152,380c4.18,13,8.35,29.13,11.26,40.6,8.71,34.42,4.43,55.37-1.46,57.27-5.35,1.72-16.3-16.3-28-44.37-5.49-13.13-15.38-27.52-20.71-44.06-5.47-17-5.69-34.08-8.93-48.21-6.65-29,4.24-73,9.52-74.68,5.13-1.65,6.32,39.65,17.52,65.85C137.13,346.25,146.26,362.1,152,380Z"/><path class="cls-8" d="M174.79,348.79c.93,18.61.91,41.41.82,57.58-.26,48.5-11.43,74.57-18.76,74.93-6.66.34-13.86-27.38-18.95-68.62-2.38-19.29-9.45-41.83-10.64-65.55-1.22-24.36,3.63-47,4.13-66.77,1-40.68,26.64-94.62,33.22-94.94,6.39-.32-4.57,54.53.47,93.1C167.75,298.88,173.5,323.08,174.79,348.79Z"/><path class="cls-9" d="M193.57,391.34c-2.63,13.19-6.66,29.15-9.57,40.46C175.29,465.72,163,482,157.94,481c-4.62-.93-4.68-21.59-.92-51.36,1.76-13.92.88-30.93,4.24-47.75,3.45-17.28,10.75-32.27,14.58-46,7.86-28.32,34.93-61.64,39.5-60.72s-12.74,37.39-16.06,65.29C197.52,355.16,197.21,373.1,193.57,391.34Z"/><g class="cls-10"><g class="cls-11"><path class="cls-5" d="M68.69,484.15s12.46,40.66,19.85,69.26a34.37,34.37,0,0,0,33.3,25.76H187a34.4,34.4,0,0,0,33-24.68l20.72-70.34S155.3,510.12,68.69,484.15Z"/><path class="cls-12" d="M68.6,484.3S81.05,525,88.44,553.56a34.39,34.39,0,0,0,33.3,25.77h65.18a34.41,34.41,0,0,0,33-24.68l20.73-70.35S155.21,510.28,68.6,484.3Z"/></g></g><path class="cls-2" d="M363,343.47h-2.53q-5.71.54-11.35,1.16t-11.35,1.17c-1.2.12-2.3.18-3.31.18a14.33,14.33,0,0,1-3.13-.36l-1.52-.63a1.11,1.11,0,0,1-.62-1.16,1,1,0,0,1,.44-1.25,6.6,6.6,0,0,1,1.17-.54c1.54-.47,3-.94,4.46-1.41s2.86-.87,4.29-1.22q3.23-.69,6.44-1.05c2.15-.23,4.23-.52,6.26-.87s3.78-.52,5.63-.87,3.79-.64,5.84-.87a11.9,11.9,0,0,1,1.45-.26,1.86,1.86,0,0,0,1.26-.79,6.59,6.59,0,0,1,3.7-1.51,10.17,10.17,0,0,1,3.89.63,15.91,15.91,0,0,0,4.51.36q6.44-.36,12.87-.36a94.36,94.36,0,0,1,12.87.89q2,.18,3.84.27a28.93,28.93,0,0,1,3.84.43,7.54,7.54,0,0,1,3.4,1.23,2.71,2.71,0,0,1,1.52,2c.06.76-.39,1.37-1.34,1.84a34,34,0,0,1-4,1.48,9.17,9.17,0,0,1-4.2.26,126.65,126.65,0,0,0-27-.71l-2.68.53a3.66,3.66,0,0,0-.18,1.16v1.17q-.18,8-.18,16.08t-.17,16.09c0,3.7-.07,7.36-.18,11s-.18,7.3-.18,11q.18,14,1.61,27.89.53,4.65,1.07,9.2c.36,3,.77,6.11,1.25,9.21a17.88,17.88,0,0,0,.09,1.79,2.44,2.44,0,0,1-.63,1.79q-2.5,3.75-6.48,2.14a18.49,18.49,0,0,1-3.88-2.14,8,8,0,0,1-2.62-3.4q-.9-2-1.62-3.84a21.37,21.37,0,0,1-1.08-3.85A132.44,132.44,0,0,1,361,416.94q-.92-10.19-1.26-20.55V392.1c0-1.43-.07-2.92-.18-4.47,0-3.82.11-7.57.35-11.27s.48-7.44.72-11.26l1.62-16.62c.12-.72.21-1.49.28-2.33A15.78,15.78,0,0,1,363,343.47Z"/><path class="cls-2" d="M445,436.07a10.69,10.69,0,0,0,2.15-2.41,20.38,20.38,0,0,0,1.25-2.41c.72-1.67,1.4-3.28,2.06-4.83s1.34-3.16,2.05-4.83c.95-2.38,1.88-4.79,2.77-7.24s1.88-4.85,3-7.24a16,16,0,0,1,1.25-2.59c.48-.77,1-1.58,1.43-2.41a2.19,2.19,0,0,1,1.61-.54c.6,0,.9.42.9,1.25v1.79a4.77,4.77,0,0,1-.36,1.79q-2.51,7.5-4.92,15.1a149.32,149.32,0,0,1-5.63,14.93,6.78,6.78,0,0,0-.62,1.16,6.76,6.76,0,0,1-.63,1.16,7.46,7.46,0,0,1-3.75,3.4,14.17,14.17,0,0,1-8.94.71,10.22,10.22,0,0,1-5.9-4.29,27.46,27.46,0,0,1-1.79-3.48,28.67,28.67,0,0,1-1.25-3.67,32.36,32.36,0,0,1-1.25-5.72q-.36-2.85-.72-5.9c-.12-1.66-.21-3.24-.26-4.73s-.16-3.07-.27-4.74a51,51,0,0,1,.27-8c.29-2.62.68-5.31,1.16-8.05.36-2.5.74-5,1.16-7.51s.8-5,1.16-7.5c.12-.72.21-1.4.27-2.06a4,4,0,0,0-.27-1.88c-.6-.23-1-.18-1.25.18a5.88,5.88,0,0,1-.71.89,69.44,69.44,0,0,0-10.19,15.74A106.23,106.23,0,0,0,410,420.16c-.12,1-.27,1.94-.45,2.95s-.33,2.06-.45,3.13a9.31,9.31,0,0,0-.35,2.59,24.13,24.13,0,0,1-.18,2.77,8.07,8.07,0,0,0,.09,1.34,11.3,11.3,0,0,1,.09,1.34,3.53,3.53,0,0,1-1.61,2.51,8.7,8.7,0,0,1-6.62,1.78,1.57,1.57,0,0,0-.62-.17,1,1,0,0,1-.63-.36,16.32,16.32,0,0,1-2.23-2.33,7,7,0,0,1-1.34-3.21c-.24-1.31-.54-2.65-.9-4s-.65-2.77-.89-4.2a170,170,0,0,1-3-20.46,150.44,150.44,0,0,1-.36-20.83q.36-7,1.07-13.85t1.79-13.68c.6-3.34,1.13-6.64,1.61-9.92a68.64,68.64,0,0,1,2.15-9.74,89.37,89.37,0,0,1,5.18-15,50.24,50.24,0,0,1,4.65-8.58A21.24,21.24,0,0,1,412.1,307a9.93,9.93,0,0,1,7.15-2,5.74,5.74,0,0,1,4.83,3.75,7.22,7.22,0,0,1,.45,1.61c.05.48.14,1,.26,1.61a39.24,39.24,0,0,1,1,7.87,73,73,0,0,1-.27,8,93.36,93.36,0,0,1-2.15,14.3A75.16,75.16,0,0,1,418.72,356l-1.08,2.14c-.83,1.79-1.67,3.58-2.5,5.36l-2.5,5.37c-.84,1.67-1.7,3.33-2.59,5s-1.88,3.34-2.95,5a7,7,0,0,0-1.26,3.75q0,5.55-.08,11.08a78.36,78.36,0,0,0,.62,11.27,35.56,35.56,0,0,1,.18,3.57c0,1.19.06,2.45.18,3.76.59-.24.92-.57,1-1a8.07,8.07,0,0,0,.09-1.16,146.81,146.81,0,0,1,4.74-15.1,90.36,90.36,0,0,1,6.88-14.4c.83-1.3,1.67-2.59,2.5-3.84s1.73-2.53,2.68-3.84a6.64,6.64,0,0,1,.9-1.07,7.06,7.06,0,0,0,.89-1.08,9.39,9.39,0,0,1,6.88-3.48,14.6,14.6,0,0,1,6.53,1.16,9.1,9.1,0,0,1,5.18,6.26,32.37,32.37,0,0,1,1.43,9.29,77,77,0,0,1-.17,9c-.25,2.92-.48,5.87-.72,8.85q-.54,5.71-1.25,11.17a57.55,57.55,0,0,0-.36,11.17q.18,2.5.27,5a46.66,46.66,0,0,0,.45,5,2.54,2.54,0,0,0,.09.72C444.78,435.24,444.87,435.6,445,436.07ZM418.36,311.12a12.42,12.42,0,0,0-.81,1.52,6.42,6.42,0,0,1-.62,1.16,37.24,37.24,0,0,0-2.77,7.33c-.66,2.5-1.28,5-1.88,7.51a146.14,146.14,0,0,0-3.57,19.93q-1.08,9.92-2,20.11a14.73,14.73,0,0,0-.18,2.68,1.68,1.68,0,0,0,1.25-1.25q2-4.29,3.84-8.58t3.67-8.76a65.55,65.55,0,0,0,4.47-15.2,86.06,86.06,0,0,0,1.07-15.73,40,40,0,0,0-.71-5.27A27.9,27.9,0,0,0,418.36,311.12Z"/><path class="cls-2" d="M493.26,408.9a6.23,6.23,0,0,0-1.34,1.88,9.2,9.2,0,0,1-1.16,1.87c-.48.84-1,1.64-1.52,2.42a8.54,8.54,0,0,1-2.06,2.05,14.24,14.24,0,0,1-7.24,3.67,19.89,19.89,0,0,1-8.13-.45,11.42,11.42,0,0,1-3.58-1.25,27.28,27.28,0,0,1-3-2,16.05,16.05,0,0,1-6.25-11.62q-.36-9.11,4.38-15.37a25.72,25.72,0,0,1,13.14-8.94,14.62,14.62,0,0,1,4.91-.89,36.05,36.05,0,0,1,4.92.35,13.58,13.58,0,0,1,6.79,3.58,4.82,4.82,0,0,1,1,.89,4.64,4.64,0,0,0,1,.9c.35-.48.77-1.07,1.25-1.79a3.84,3.84,0,0,1,2.23-1.7,10.45,10.45,0,0,1,3.58-.62,15.41,15.41,0,0,1,3.66.44,4,4,0,0,1,2.5,1.52,13.59,13.59,0,0,1,2.15,6.26v10.19q0,2-.18,4t-.36,4a49.61,49.61,0,0,0,.54,12.52l.36,1.43a13,13,0,0,0,.53,1.61,2.84,2.84,0,0,1,1-.45,1.58,1.58,0,0,0,.8-.45A33.63,33.63,0,0,0,518,417.3a43.63,43.63,0,0,0,3.66-6.61c.6-1.31,1.22-2.59,1.88-3.85s1.28-2.53,1.88-3.84a1.06,1.06,0,0,1,.53-.27,3.52,3.52,0,0,0,.72-.27,1,1,0,0,0,.35.45.29.29,0,0,1,.18.27c-.24,1.55-.44,3.07-.62,4.56a16.7,16.7,0,0,1-1.16,4.38c-1.08,2.38-2.21,4.68-3.4,6.88s-2.44,4.38-3.75,6.52a9.94,9.94,0,0,1-8.58,4.65,12,12,0,0,1-4.65-.18,11.26,11.26,0,0,1-8.05-6.61A19.16,19.16,0,0,1,495,418.2a53.46,53.46,0,0,1-1-5.55v-1.87A3,3,0,0,0,493.26,408.9Zm-13.77,6.44a31,31,0,0,0,6-4.47,20,20,0,0,0,4.2-5.9c.72-1.43,1.37-2.92,2-4.47s1.19-3.16,1.79-4.83c.12-.59.2-1.16.27-1.7a3.63,3.63,0,0,0-.27-1.7,13.67,13.67,0,0,0-3.22-4.2A9.31,9.31,0,0,0,485,386a15.13,15.13,0,0,0-1.7,2.77,27.69,27.69,0,0,1-1.52,2.77A33.92,33.92,0,0,0,477.53,408a12.92,12.92,0,0,0,.18,3.75A8.36,8.36,0,0,0,479.49,415.34Z"/><path class="cls-2" d="M536.52,404.07a4.3,4.3,0,0,0,.89-1.7,10.93,10.93,0,0,1,.54-1.69,110.21,110.21,0,0,1,4.11-14.21,68.38,68.38,0,0,1,6.44-13.14c.59-.84,1.19-1.64,1.78-2.42a22.78,22.78,0,0,1,2-2.23,10.86,10.86,0,0,1,10.73-3,7.3,7.3,0,0,1,5.72,5,16.61,16.61,0,0,1,1,3.48c.18,1.13.38,2.3.62,3.49a73,73,0,0,1,.54,8.76q0,4.29-.18,8.76c-.24,3.69-.44,7.35-.62,11s-.33,7.3-.45,11q-.18,4.13-.09,8t.09,7.95a17.66,17.66,0,0,0,.18,2.51,8.86,8.86,0,0,0,.89,2.68l1.25-1.25c.72-1.55,1.49-3.1,2.33-4.65a34.76,34.76,0,0,0,2.14-4.83,115.51,115.51,0,0,0,4.83-15c.24-1,.47-1.88.71-2.78s.48-1.81.72-2.77a17.15,17.15,0,0,1,2-3.57.55.55,0,0,1,.53-.36h.72a3.42,3.42,0,0,1,.89.89v2.33c-.24.95-.45,2-.62,3s-.39,2.08-.63,3c-.72,2.74-1.43,5.45-2.15,8.13s-1.43,5.39-2.14,8.13c-.6,1.67-1.22,3.37-1.88,5.1s-1.28,3.43-1.87,5.09q-1.44,4.47-4.65,5.46a16.59,16.59,0,0,1-6.62.62,8.45,8.45,0,0,1-6.43-4.65,39.64,39.64,0,0,1-3.58-9.65q-.7-3-1.16-6.08t-.8-6.08a77.78,77.78,0,0,1-.36-13q.36-6.53,1.25-13c.48-2.74.92-5.42,1.34-8s.86-5.24,1.34-7.87a19.55,19.55,0,0,0,.45-3.12,12.92,12.92,0,0,0-.27-3.31,12.81,12.81,0,0,0-1.43.54,15.56,15.56,0,0,0-3.31,3.21c-.89,1.2-1.82,2.45-2.77,3.76a56.64,56.64,0,0,0-4.11,7.5,65.77,65.77,0,0,0-3,8.05c-.95,3.1-1.79,6.14-2.5,9.12s-1.49,6-2.33,9.11q-.71,2.5-1.34,5.1c-.41,1.73-.8,3.42-1.16,5.09a3.27,3.27,0,0,1-2.32,2.68,8.63,8.63,0,0,1-5,.36,4.06,4.06,0,0,1-3.57-3.57q-.54-3-1.16-6a39.94,39.94,0,0,1-.81-6,98.25,98.25,0,0,1-.18-10.28,61.9,61.9,0,0,1,1.25-10.28,29,29,0,0,1,1.26-3.66,19.68,19.68,0,0,1,1.78-3.31,13.78,13.78,0,0,1,1.52-1.61,3.89,3.89,0,0,1,2.06-.89,5.33,5.33,0,0,1,3,.18,3.38,3.38,0,0,1,2.14,2.68,17.93,17.93,0,0,1,.9,6.43c0,2,0,4-.09,5.9s-.15,3.88-.27,5.9Z"/><path class="cls-2" d="M596.94,395c.59,0,1-.36,1.25-1.08q1.24-2.14,2.24-4.2t2.23-4.2a29.85,29.85,0,0,1,2.5-4.11c1-1.31,2-2.62,3-3.93a9.81,9.81,0,0,1,8.58-3,6.1,6.1,0,0,1,5.72,5A17.54,17.54,0,0,1,623,386a24.76,24.76,0,0,1-9.48,17,11.84,11.84,0,0,0-1.43,1.25l2.15,1.07a9.08,9.08,0,0,1,5,6.8,49.39,49.39,0,0,1,.36,13.23c-.24,1.55-.48,3.1-.71,4.64l-.72,4.65a7.48,7.48,0,0,0-.09,3,5.13,5.13,0,0,0,1.52,2.68,3.68,3.68,0,0,0,2.33-.71,10.66,10.66,0,0,0,1.61-1.61c.59-.72,1.16-1.46,1.69-2.24a11.11,11.11,0,0,0,1.34-2.59q2.5-5.54,4.83-12.15c1.19-2.74,2.32-5.55,3.4-8.41s2.14-5.66,3.21-8.4a7.15,7.15,0,0,0,.63-1.16,7.15,7.15,0,0,1,.63-1.16c0-.12.41-.3,1.25-.54a3.68,3.68,0,0,1-.18,1.43q-2.32,7-4.56,14t-4.74,13.85a16.66,16.66,0,0,1-1.43,3.4c-.59,1.07-1.19,2.2-1.78,3.39a2.09,2.09,0,0,1-.36.54,2.2,2.2,0,0,0-.36.53,10,10,0,0,1-3.75,3.4,10.58,10.58,0,0,1-8.67.45,10,10,0,0,1-3.49-2.24A19.42,19.42,0,0,1,605,428a26.81,26.81,0,0,1-.18-5.37c.12-1.78.3-3.57.54-5.36a45.5,45.5,0,0,0,.54-7.15,2.58,2.58,0,0,0-.72-2.68h-.53l-3,.36a24.84,24.84,0,0,0-2.95.53.37.37,0,0,0-.27.09.71.71,0,0,1-.45.09,3,3,0,0,0-.36,1.34,5.44,5.44,0,0,0,.18,1.34l.72,4.65c.24,1.55.47,3.1.71,4.65.24,1.19.42,2.32.54,3.4s.24,2.2.36,3.39a2.82,2.82,0,0,1-2.15,3.22,9.59,9.59,0,0,1-7.68,0,4.27,4.27,0,0,1-2.69-2.68,74.47,74.47,0,0,1-2.68-9.48,184.62,184.62,0,0,1-3-18.5,114.93,114.93,0,0,1-.44-18.68,184.82,184.82,0,0,1,3.84-28.06,140.2,140.2,0,0,1,8.67-26.64q1.42-3,2.95-5.81a38.1,38.1,0,0,1,3.48-5.27c1-1.08,1.91-2.09,2.87-3l2.85-2.86a11.44,11.44,0,0,1,8.94-2.5c3.46.35,5.42,2.14,5.9,5.36a38.75,38.75,0,0,1,.54,6.43,124.82,124.82,0,0,1-1.52,14.13,87,87,0,0,1-3.49,13.76q-2,5.73-4.29,11.44A106,106,0,0,1,607,369.39c-1.19,2.15-2.47,4.23-3.84,6.26a38.69,38.69,0,0,1-4.74,5.72,11.45,11.45,0,0,0-1.16,1.7,2.8,2.8,0,0,0-.27,1.88c0,1.55,0,3-.09,4.46s-.09,2.86-.09,4.29a2,2,0,0,0,.09.63A2,2,0,0,1,596.94,395Zm17.88-83.31a4.12,4.12,0,0,0-1.26,1.08,32.68,32.68,0,0,0-1.6,2.86c-.48,1-1,1.9-1.43,2.86A74.42,74.42,0,0,0,605.79,332q-1.71,7-3.31,14a147.71,147.71,0,0,0-2.77,14.92q-1,7.43-2.06,14.93a1.17,1.17,0,0,0,.09.53,1.25,1.25,0,0,1,.09.54,5.51,5.51,0,0,0,1.61-1.52c.36-.53.72-1.1,1.07-1.7a114.9,114.9,0,0,0,15.74-44.15,54.55,54.55,0,0,0,.35-12.34,22.6,22.6,0,0,0-.53-2.77A10.63,10.63,0,0,0,614.82,311.65Zm-.72,65.43a2.73,2.73,0,0,1-1.07.45,1.67,1.67,0,0,0-.9.44,19.9,19.9,0,0,0-3,2.86,28.66,28.66,0,0,0-2.41,3.4L600.34,395c-.48.83-.9,1.64-1.26,2.41s-.71,1.58-1.07,2.41c-.36.6-.36,1.08,0,1.43l.63-.27a3.62,3.62,0,0,0,.62-.26,36.23,36.23,0,0,0,14-17.16,29.56,29.56,0,0,0,1.07-4.29A4.9,4.9,0,0,0,614.1,377.08Z"/><path class="cls-2" d="M663.8,408.19c-.48,1.07-1,2.14-1.43,3.21s-1,2.15-1.43,3.22a27.69,27.69,0,0,1-2.15,4.11c-.83,1.31-1.73,2.63-2.68,3.93a7.58,7.58,0,0,1-5.72,3q-7.51.36-10.91-5.9a22.6,22.6,0,0,1-2.14-6.79q-.9-5.89-1.25-11.89a68.67,68.67,0,0,1,.35-12.06c.24-1.08.45-2.18.63-3.31a20.76,20.76,0,0,1,.81-3.31q1.07-3.57,5.18-4.11h1.79c3.57,0,5.72,1.73,6.43,5.19a23.6,23.6,0,0,1,.54,2.86,22.76,22.76,0,0,1,.18,2.86c.23,3.45.29,7,.18,10.54s-.3,7.15-.54,10.73a21.53,21.53,0,0,0-.18,2.68v2.68a5.87,5.87,0,0,0,.36,1.79c.36.24.59.3.71.18l.54-.54q1.6-2,3.13-4a22.48,22.48,0,0,0,2.59-4.56l5.9-13.41a6.38,6.38,0,0,0,.54-1.52c.11-.53.23-1.1.35-1.69s.45-1.43.63-2.15a7.61,7.61,0,0,1,.8-2,5.19,5.19,0,0,1,5.19-3.57,10,10,0,0,1,2.68,0,7,7,0,0,1,6.26,4.29,27.83,27.83,0,0,1,2.68,10.9c.11,1.55.18,3.07.18,4.56v4.56a9.72,9.72,0,0,0,.09,1.43,13.86,13.86,0,0,1,.08,1.43q.72.36,1,.09a2.35,2.35,0,0,1,.62-.45q2-1.79,4-3.48c1.36-1.13,2.71-2.24,4-3.31a18.93,18.93,0,0,1,4.11-2.14,4.52,4.52,0,0,1,1.7-.36,2,2,0,0,1,1.52.89,2.35,2.35,0,0,1-.63,1.61,8.72,8.72,0,0,1-1.34,1.25c-.83.72-1.67,1.4-2.5,2.06a25.85,25.85,0,0,0-2.33,2.05q-2.33,2-4.55,4.11T685.25,418a5.53,5.53,0,0,0-1.61,3.57l-1.07,11.8q-.9,7-2.15,13.94a134.84,134.84,0,0,1-3.22,13.77,52.62,52.62,0,0,1-6.7,14.84A70.67,70.67,0,0,1,660,488.27q-8.22,7.68-19.66,5.18a6.93,6.93,0,0,1-2.86-1.07,5.83,5.83,0,0,1-3.22-4.11,11.47,11.47,0,0,1-.18-5.36,40.92,40.92,0,0,1,5.19-16.63q3-5.36,6.34-10.46a97.88,97.88,0,0,1,7.24-9.74q2.5-2.85,4.83-5.72c1.55-1.9,3.15-3.81,4.82-5.72a5.67,5.67,0,0,0,1.43-3.57q.36-5.19.45-10.19t.27-10a9.31,9.31,0,0,0-.09-1.34,9.52,9.52,0,0,1-.09-1.34Zm-1.08,35.21c-.47-.12-.8,0-1,.27a3.84,3.84,0,0,1-.63.8q-4.11,5-7.86,10.37a105.51,105.51,0,0,0-6.79,11.09q-1.08,2.15-2,4.29c-.6,1.43-1.13,2.91-1.61,4.46a28.2,28.2,0,0,0-1.07,10,15.29,15.29,0,0,0,.53,2.6,3.22,3.22,0,0,0,1.79,1.87,4.31,4.31,0,0,0,2.06-1.25c.53-.6,1.1-1.19,1.7-1.78A66.46,66.46,0,0,0,655,475.67,52.18,52.18,0,0,0,659.51,464c.59-2.5,1.07-5,1.43-7.51s.77-5,1.25-7.51c.23-.95.44-1.87.62-2.77A6.21,6.21,0,0,0,662.72,443.4Z"/><path class="cls-2" d="M716.71,373.5a4.71,4.71,0,0,0,.44-1.25,2.79,2.79,0,0,1,.45-1.07q3.39-6.8,11.08-6.43,8.4,0,12.52,7.68A34,34,0,0,1,744.77,385a71.52,71.52,0,0,1,.18,8.75,29,29,0,0,1-1.61,8.41v1.07a6.74,6.74,0,0,0,2.15.36,12.88,12.88,0,0,0,2.14-.18c.84-.24,1.64-.45,2.42-.63s1.58-.38,2.41-.62a14.09,14.09,0,0,1,2.15-.54c.71-.12,1.48-.24,2.32-.36a2.85,2.85,0,0,1,.89.18,7,7,0,0,1,.9.36c.71.48.77,1,.18,1.61a4.79,4.79,0,0,0-.9.53,48.21,48.21,0,0,1-5.18,1.88,19.09,19.09,0,0,1-5.54.81h-5.55a6.33,6.33,0,0,0-.89,1.78,18.48,18.48,0,0,0-2,3.58,21.19,21.19,0,0,1-13.94,10.9,31.56,31.56,0,0,1-8,1.08,22.94,22.94,0,0,1-7.87-1.43q-11.09-4.11-12.16-15.91a28.75,28.75,0,0,1,.9-10.37q.88-2.86,1.88-5.45a34.72,34.72,0,0,1,2.41-5.1,25.33,25.33,0,0,1,12.51-11.44A11.24,11.24,0,0,0,716.71,373.5Zm2.14,18.06a.85.85,0,0,0-1.25.54q-.54,2.67-1.25,5.36c-.48,1.79-.89,3.64-1.25,5.54a35.73,35.73,0,0,0-.54,6.26,13.12,13.12,0,0,0,1.25,5.9c1.08,1.9,2.12,3,3.13,3.3a6.83,6.83,0,0,0,3.85-.26,10,10,0,0,0,6.43-4.12,58.93,58.93,0,0,0,4.83-7.33,1.55,1.55,0,0,0,.44-.8,4.94,4.94,0,0,1,.45-1.16c-1.67-.72-3.31-1.49-4.91-2.33a31.47,31.47,0,0,1-4.56-2.86A22.67,22.67,0,0,1,718.85,391.56Zm5.54-18.95c.6.24,1.14.48,1.61.72l1.43.71a1.34,1.34,0,0,1,.18,2.32,4.59,4.59,0,0,1-.89,1,4.6,4.6,0,0,0-.9,1c-.83,1-1.43,1.61-1.78,2a2.73,2.73,0,0,0-.72,1.07,2.51,2.51,0,0,0,0,1.34l.54,2.41a22.74,22.74,0,0,0,6.61,12.34,13.36,13.36,0,0,0,6.08,3.75,5.15,5.15,0,0,0,.54-1,7.64,7.64,0,0,1,.35-.8,43.32,43.32,0,0,0,2-12.7,24.22,24.22,0,0,0-1.16-7.5,36.71,36.71,0,0,0-3.13-7c-.36-.47-.72-.95-1.07-1.43a5.17,5.17,0,0,0-1.43-1.25,6.41,6.41,0,0,0-4.2-1.88c-1.25.07-2.42,1.11-3.49,3.13C724.69,371.54,724.51,372.14,724.39,372.61Z"/><path class="cls-2" d="M800.9,419.63a11.29,11.29,0,0,0,3-3.22c.84-1.31,1.58-2.59,2.24-3.85s1.4-2.53,2.23-3.84c.6-1,1.22-1.93,1.88-3s1.28-2,1.88-2.95l.18-.36a6.05,6.05,0,0,1,1.43-.35.58.58,0,0,1,.53.35.77.77,0,0,1,0,.72,17.38,17.38,0,0,0-.27,2,7,7,0,0,1-.44,2q-.9,2.68-2.06,5.28t-2.23,5.09a12.5,12.5,0,0,1-.9,1.79,10.12,10.12,0,0,1-13.76,3.93,19.25,19.25,0,0,1-4.47-3,12.28,12.28,0,0,1-3-4.29c-.36-.95-.72-1.9-1.07-2.86a25.53,25.53,0,0,1-.9-2.86,7.64,7.64,0,0,1-.35-.8,5.52,5.52,0,0,0-.54-1,20.87,20.87,0,0,0-1.43,3.13c-.36,1-.72,2-1.07,2.95q-.9,2.51-1.88,4.83a27.59,27.59,0,0,1-2.41,4.47,3.37,3.37,0,0,0-.63.89,10.57,10.57,0,0,1-.62,1.07l-.9.9a7.64,7.64,0,0,1-1.07.89,8.37,8.37,0,0,1-3.58,1.34,12.35,12.35,0,0,1-3.93-.09A12,12,0,0,1,763,427.4a8.64,8.64,0,0,1-2.86-2.41,35,35,0,0,1-2.77-5.19,16.35,16.35,0,0,1-1.34-5.72c-.12-.83-.21-1.63-.27-2.41a12.1,12.1,0,0,0-.45-2.41,44.61,44.61,0,0,1-.45-9.39q.27-4.72.63-9.38a40.86,40.86,0,0,1,3.22-12.87,23.61,23.61,0,0,1,3-5.55c2.14-3,5.12-4.11,8.93-3.39a5,5,0,0,1,2.51,1.07,3.84,3.84,0,0,1,.71,2.68,23,23,0,0,0-.18,2.86,12.1,12.1,0,0,1-.35,2.86c-.36,2.27-.75,4.47-1.17,6.62s-.8,4.35-1.16,6.61a118.07,118.07,0,0,0-1.61,14.3,71.42,71.42,0,0,0,.72,14.3,6.68,6.68,0,0,0,.53,2.15q.72.36,1,.09l.62-.63c.6-.95,1.16-1.87,1.7-2.77s1-1.81,1.52-2.77a67.2,67.2,0,0,0,4-8.4c1.13-2.86,2.24-5.72,3.31-8.58a7,7,0,0,0,.45-1.88,18.12,18.12,0,0,1,.26-1.88,36.61,36.61,0,0,1,1.79-11.62q1.78-5.54,7.69-5c3.22.12,5.12,1.85,5.72,5.18a21.06,21.06,0,0,1,.18,2.6v2.59q0,2-.18,4.11t-.18,4.29l-.36,6.08c-.12,2-.18,4-.18,6.07a27.29,27.29,0,0,0,.18,3,22.57,22.57,0,0,0,.54,3c.24.72.47,1.41.71,2.06A4.65,4.65,0,0,0,800.9,419.63Z"/></g></g></svg>