<?xml version="1.0" encoding="UTF-8"?>
<svg width="15px" height="20px" viewBox="0 0 15 20" version="1.1" xmlns="http://www.w3.org/2000/svg" xmlns:xlink="http://www.w3.org/1999/xlink">
    <title>3691E257-53A8-4FF7-80C1-9DA5285C9C3F</title>
    <g id="Menu" stroke="none" stroke-width="1" fill="none" fill-rule="evenodd">
        <g id="menu-drawer-app-update" transform="translate(-48.000000, -598.000000)" fill="#FFFFFF" fill-rule="nonzero">
            <g id="Group-4" transform="translate(48.000000, 598.000000)">
                <path d="M7.62896948,4.55186178 L7.62896948,7.28297885 L11.4434542,3.64148942 L7.62896948,-1.42552636e-12 L7.62896948,2.73111707 C3.41396384,2.73111707 7.2146733e-12,5.9902501 7.2146733e-12,10.0140959 C7.2146733e-12,11.4433805 0.438665745,12.7725242 1.18249027,13.8922822 L2.5747772,12.5631385 C2.14564767,11.8075295 1.90724237,10.933572 1.90724237,10.0140959 C1.90724237,7.00076342 4.47248336,4.55186178 7.62896948,4.55186178 Z M13.3629643,6.10771785 L11.9706773,7.43686149 C12.3902707,8.20157427 12.6382122,9.06642801 12.6382122,9.98590409 C12.6382122,12.9992366 10.0729712,15.4481382 6.91648506,15.4481382 L6.91648506,12.7170212 L3.10200032,16.3585106 L6.91648506,20 L6.91648506,17.2688829 C11.1314907,17.2688829 14.5454545,14.0097499 14.5454545,9.98590409 C14.5454545,8.55661949 14.1067888,7.22747585 13.3629643,6.10771785 L13.3629643,6.10771785 Z" id="Update"></path>
            </g>
        </g>
    </g>
</svg>