<?xml version="1.0" encoding="UTF-8"?>
<svg width="12px" height="12px" viewBox="0 0 12 12" version="1.1" xmlns="http://www.w3.org/2000/svg" xmlns:xlink="http://www.w3.org/1999/xlink">
    <title>909DB988-8F2F-495A-B008-D162FFB6A6E9</title>
    <g id="Final-layouts" stroke="none" stroke-width="1" fill="none" fill-rule="evenodd">
        <g id="Home-page-01" transform="translate(-133.000000, -154.000000)" fill="#000000">
            <g id="Group-11" transform="translate(16.000000, 146.000000)">
                <g id="Info" transform="translate(117.000000, 8.000000)">
                    <path d="M5.4,9 L6.6,9 L6.6,5.4 L5.4,5.4 L5.4,9 L5.4,9 Z M6,0 C2.688,0 0,2.688 0,6 C0,9.312 2.688,12 6,12 C9.312,12 12,9.312 12,6 C12,2.688 9.312,0 6,0 L6,0 Z M6,10.8 C3.354,10.8 1.2,8.646 1.2,6 C1.2,3.354 3.354,1.2 6,1.2 C8.646,1.2 10.8,3.354 10.8,6 C10.8,8.646 8.646,10.8 6,10.8 L6,10.8 Z M5.4,4.2 L6.6,4.2 L6.6,3 L5.4,3 L5.4,4.2 L5.4,4.2 Z" id="Mask"></path>
                </g>
            </g>
        </g>
    </g>
</svg>