<?xml version="1.0" encoding="UTF-8"?>
<svg width="13px" height="12px" viewBox="0 0 13 12" version="1.1" xmlns="http://www.w3.org/2000/svg" xmlns:xlink="http://www.w3.org/1999/xlink">
    <title>BD1BF335-7EB5-41EE-858B-2E9DCFE45AE8</title>
    <g id="BMC" stroke="none" stroke-width="1" fill="none" fill-rule="evenodd">
        <g id="screen1" transform="translate(-131.000000, -106.000000)" fill="#FFFFFF">
            <g id="Group-2" transform="translate(24.000000, 104.000000)">
                <g id="Group-4" transform="translate(105.500000, 0.000000)">
                    <path d="M8.6,11 L8.6,7.4 L7.4,7.4 L7.4,11 L8.6,11 Z M2,8 C2,11.312 4.688,14 8,14 C11.312,14 14,11.312 14,8 C14,4.688 11.312,2 8,2 C4.688,2 2,4.688 2,8 Z M3.2,8 C3.2,5.354 5.354,3.2 8,3.2 C10.646,3.2 12.8,5.354 12.8,8 C12.8,10.646 10.646,12.8 8,12.8 C5.354,12.8 3.2,10.646 3.2,8 Z M8.6,6.2 L8.6,5 L7.4,5 L7.4,6.2 L8.6,6.2 Z" id="info-icon"></path>
                </g>
            </g>
        </g>
    </g>
</svg>