<?xml version="1.0" encoding="UTF-8"?><svg xmlns="http://www.w3.org/2000/svg" xmlns:xlink="http://www.w3.org/1999/xlink" viewBox="0 0 180 179.98"><defs><style>.cls-1{fill:url(#linear-gradient-12);mix-blend-mode:multiply;}.cls-1,.cls-2,.cls-3,.cls-4,.cls-5,.cls-6,.cls-7,.cls-8,.cls-9,.cls-10,.cls-11,.cls-12,.cls-13,.cls-14,.cls-15,.cls-16{fill-rule:evenodd;}.cls-2{fill:url(#linear-gradient);}.cls-3{fill:url(#linear-gradient-14);}.cls-4{fill:url(#linear-gradient-11);}.cls-5{fill:url(#linear-gradient-13);}.cls-6{fill:url(#linear-gradient-10);}.cls-7{fill:url(#linear-gradient-15);}.cls-17{isolation:isolate;}.cls-8{fill:url(#linear-gradient-8);}.cls-9{fill:url(#linear-gradient-9);}.cls-10{fill:url(#linear-gradient-3);}.cls-11{fill:url(#linear-gradient-2);}.cls-12{fill:url(#linear-gradient-4);}.cls-13{fill:url(#linear-gradient-6);}.cls-14{fill:url(#linear-gradient-7);}.cls-15{fill:url(#linear-gradient-5);}.cls-16{fill:url(#linear-gradient-16);mix-blend-mode:screen;}</style><linearGradient id="linear-gradient" x1="-760.92" y1="-1652.33" x2="-916.78" y2="-1496.47" gradientTransform="translate(1373.07 -1667.55) scale(1.7 -1.12)" gradientUnits="userSpaceOnUse"><stop offset="0" stop-color="#ffdc8b"/><stop offset="1" stop-color="#febb21"/></linearGradient><linearGradient id="linear-gradient-2" x1="-1433.4" y1="-84.59" x2="-1441.75" y2="-76.24" gradientTransform="translate(-2441.51 249.9) rotate(-180) scale(1.7 -1.12)" xlink:href="#linear-gradient"/><linearGradient id="linear-gradient-3" x1="-1418.18" y1="-148.44" x2="-1498.18" y2="-68.44" gradientTransform="translate(-2441.51 249.9) rotate(-180) scale(1.7 -1.12)" gradientUnits="userSpaceOnUse"><stop offset=".25" stop-color="#ededee"/><stop offset="1" stop-color="#8e939c"/></linearGradient><linearGradient id="linear-gradient-4" x1="-1464.01" y1="-102.09" x2="-1475.07" y2="-91.04" xlink:href="#linear-gradient-3"/><linearGradient id="linear-gradient-5" x1="-1446.66" y1="-196.3" x2="-1452.07" y2="-190.89" xlink:href="#linear-gradient-3"/><linearGradient id="linear-gradient-6" x1="-1357.79" y1="-276.33" x2="-1537.19" y2="-96.94" gradientTransform="translate(-2441.51 249.9) rotate(-180) scale(1.7 -1.12)" gradientUnits="userSpaceOnUse"><stop offset="0" stop-color="#f99e1f"/><stop offset=".7" stop-color="#ee204d"/></linearGradient><linearGradient id="linear-gradient-7" x1="-1475.17" y1="-79.33" x2="-1480.79" y2="-73.71" xlink:href="#linear-gradient-6"/><linearGradient id="linear-gradient-8" x1="-1509.25" y1="-134.96" x2="-1518.23" y2="-125.98" xlink:href="#linear-gradient-6"/><linearGradient id="linear-gradient-9" x1="-1398.56" y1="-212.1" x2="-1561.89" y2="-48.77" xlink:href="#linear-gradient-6"/><linearGradient id="linear-gradient-10" x1="-1303.47" y1="-257.49" x2="-1481.47" y2="-79.49" xlink:href="#linear-gradient-6"/><linearGradient id="linear-gradient-11" x1="-1406.6" y1="-203.3" x2="-1503.47" y2="-106.43" xlink:href="#linear-gradient-6"/><linearGradient id="linear-gradient-12" x1="-1404.94" y1="-197.06" x2="-1520.07" y2="-81.92" gradientTransform="translate(-2441.51 249.9) rotate(-180) scale(1.7 -1.12)" gradientUnits="userSpaceOnUse"><stop offset=".25" stop-color="#ededee"/><stop offset="1" stop-color="#823b96"/></linearGradient><linearGradient id="linear-gradient-13" x1="-1516.47" y1="-101.45" x2="-1541.86" y2="-76.06" xlink:href="#linear-gradient-6"/><linearGradient id="linear-gradient-14" x1="-1394.11" y1="-190.75" x2="-1457.52" y2="-127.34" gradientTransform="translate(-2441.51 249.9) rotate(-180) scale(1.7 -1.12)" xlink:href="#linear-gradient"/><linearGradient id="linear-gradient-15" x1="-1503.46" y1="-78.92" x2="-1510.11" y2="-72.27" gradientTransform="translate(-2441.51 249.9) rotate(-180) scale(1.7 -1.12)" xlink:href="#linear-gradient"/><linearGradient id="linear-gradient-16" x1="-1303.49" y1="-270.73" x2="-1558.77" y2="-15.45" xlink:href="#linear-gradient-6"/></defs><g class="cls-17"><g id="Layer_1"><g><polygon class="cls-2" points="0 106.89 77.93 158.04 10.4 158.04 0 151.22 0 106.89"/><polygon class="cls-11" points="0 156.49 3.58 156.49 9.8 160.57 9.8 162.95 0 156.51 0 156.49"/><polygon class="cls-10" points="0 95.01 8.26 95.01 67.87 134.14 67.87 156.89 0 112.34 0 95.01"/><polygon class="cls-12" points="56.86 137.3 65.1 142.71 65.1 145.85 52.08 137.3 56.86 137.3"/><polygon class="cls-15" points="24.89 31.2 28.93 33.85 28.93 35.39 22.55 31.2 24.89 31.2"/><polygon class="cls-13" points="0 0 81.54 53.52 81.54 104.54 0 51.02 0 0"/><polygon class="cls-14" points="73.55 161.99 77.74 164.74 77.74 166.34 71.11 161.99 73.55 161.99"/><polygon class="cls-8" points="133.04 100.27 139.73 104.66 139.73 107.21 129.15 100.27 133.04 100.27"/><polygon class="cls-9" points="0 35.37 10.45 35.37 132.15 115.24 132.15 161.69 0 74.96 0 35.37"/><polygon class="cls-6" points="0 94.72 38.31 119.87 0 119.87 0 94.72"/><polygon class="cls-4" points="0 38.37 101.25 104.82 57.92 104.82 0 66.81 0 38.37"/><polygon class="cls-1" points="0 44.52 126.13 127.3 74.62 127.3 0 78.33 0 44.52"/><polygon class="cls-5" points="168.64 158.04 149.11 145.22 149.11 137.76 180 158.04 168.64 158.04"/><polygon class="cls-3" points="0 71.27 29.25 90.46 .87 90.46 0 89.89 0 71.27"/><polygon class="cls-7" points="126.44 167.32 121.33 163.96 121.33 162.01 129.42 167.32 126.44 167.32"/><polygon class="cls-16" points="0 56.18 78.02 107.37 78.02 179.98 0 128.78 0 56.18"/></g></g></g></svg>