<?xml version="1.0" encoding="UTF-8"?>
<svg width="20px" height="20px" viewBox="0 0 20 20" version="1.1" xmlns="http://www.w3.org/2000/svg" xmlns:xlink="http://www.w3.org/1999/xlink">
    <!-- Generator: sketchtool 53.1 (72631) - https://sketchapp.com -->
    <title>F2D0DBCC-6B33-4B72-8FD7-02CFE93167C8@1.5x</title>
    <desc>Created with sketchtool.</desc>
    <g id="Library" stroke="none" stroke-width="1" fill="none" fill-rule="evenodd">
        <g id="Library_single_textbook" transform="translate(-26.000000, -810.000000)" fill="#024F9D">
            <g id="Library" transform="translate(26.000000, 810.000000)">
                <g id="outline-collections_bookmark-24px">
                    <path d="M2,4 L0,4 L0,18 C0,19.1 0.9,20 2,20 L16,20 L16,18 L2,18 L2,4 Z M18,0 L6,0 C4.9,0 4,0.9 4,2 L4,14 C4,15.1 4.9,16 6,16 L18,16 C19.1,16 20,15.1 20,14 L20,2 C20,0.9 19.1,0 18,0 Z M15,2 L15,7 L14,6.25 L13,7 L13,2 L15,2 Z M18,14 L6,14 L6,2 L11,2 L11,11 L14,8.75 L17,11 L17,2 L18,2 L18,14 Z" id="Shape" fill-rule="nonzero"></path>
                </g>
            </g>
        </g>
    </g>
</svg>