<?xml version="1.0" encoding="UTF-8"?>
<svg width="329px" height="229px" viewBox="0 0 329 229" version="1.1" xmlns="http://www.w3.org/2000/svg" xmlns:xlink="http://www.w3.org/1999/xlink">
    <title>42BDAA16-B17E-4292-92D0-E1419DDDFA69@2x</title>
    <defs>
        <polygon id="path-1" points="0.323367071 0.129195122 54.2412735 0.129195122 54.2412735 52.2400999 0.323367071 52.2400999"></polygon>
    </defs>
    <g id="Page-3" stroke="none" stroke-width="1" fill="none" fill-rule="evenodd">
        <g id="My-group-popup" transform="translate(-550.000000, -317.000000)">
            <g id="Groups" transform="translate(550.000000, 317.000000)">
                <path d="M323.006809,218.454246 C323.006809,224.238565 252.256098,228.927845 164.981228,228.927845 C77.7063587,228.927845 6.95564717,224.238565 6.95564717,218.454246 C6.95564717,212.669927 77.7063587,207.980647 164.981228,207.980647 C252.256098,207.980647 323.006809,212.669927 323.006809,218.454246" id="Fill-1" fill="#000000" opacity="0.101911272"></path>
                <path d="M275.902495,115.517426 C275.902495,115.517426 282.452254,116.124146 284.520734,121.370866 C286.589214,126.617585 294.970013,125.192945 296.467613,126.595185 C297.965852,127.996785 302.102812,136.163184 301.757852,140.526063 C301.412892,144.888943 302.102812,148.139502 307.274011,148.065262 C312.445211,147.991662 321.75273,145.582703 322.78697,153.681902 C323.821209,161.781101 320.71849,186.943978 310.721051,188.840937 C300.723612,190.739177 326.611609,196.595177 322.975769,205.043816 C319.33929,213.492455 279.005215,216.750694 279.005215,216.750694 L274.523295,119.372146 L275.902495,115.517426 Z" id="Fill-3" fill="#ABB4B7"></path>
                <g id="Group-7" transform="translate(273.919967, 142.527983)">
                    <mask id="mask-2" fill="white">
                        <use xlink:href="#path-1"></use>
                    </mask>
                    <g id="Clip-6"></g>
                    <path d="M11.2399987,31.2762843 C11.2399987,31.2762843 16.571198,31.6314842 16.571198,21.5022054 C16.571198,11.3722866 18.7036778,8.17356703 20.4809576,8.52876698 C22.2582373,8.88460694 23.1465572,22.1882854 24.5679971,19.8900456 C25.9900769,17.5924459 28.7151966,2.30860772 33.1279961,2.84172766 C37.5414355,3.3748476 31.0255963,15.6372461 33.1279961,14.9262062 C35.2310358,14.2158063 44.2940747,-2.66675168 49.8038341,0.531967937 C55.3123134,3.73068756 44.4719947,15.9930861 45.7161546,21.3242855 C46.9603144,26.6554848 52.6467137,21.1463655 54.0687936,23.8119652 C55.4902334,26.4782048 47.8486343,33.586044 41.806395,35.7185237 C35.7641557,37.8510035 43.4057548,41.938683 45.7161546,42.6497229 C48.0265543,43.3607628 45.7161546,50.468602 39.8518352,48.6919622 C33.9868759,46.9153224 31.6649562,48.8308422 13.3724784,51.7134018 C-14.6876782,56.1338813 11.2399987,31.2762843 11.2399987,31.2762843" id="Fill-5" fill="#E6EBED" mask="url(#mask-2)"></path>
                </g>
                <path d="M300.152476,184.349866 L315.283354,157.668269 C315.283354,157.668269 299.346716,194.162985 300.152476,184.349866" id="Fill-8" fill="#D5D9DB"></path>
                <path d="M277.482463,188.884265 C277.482463,188.884265 289.296222,172.598187 296.763741,180.329387 C304.2319,188.060586 297.737821,186.610986 308.939739,189.670825 C320.141018,192.731945 315.758298,205.777703 308.128219,210.287783 C300.4975,214.797862 283.126622,218.562342 280.692063,218.451622 C278.256223,218.341542 277.482463,188.884265 277.482463,188.884265" id="Fill-10" fill="#C7D0D3"></path>
                <path d="M12.6362225,140.291759 C12.6362225,140.291759 17.4426219,140.922159 23.8170212,157.123757 C30.1914204,173.324075 49.5290181,196.456233 79.8125345,203.044392 C79.8125345,203.044392 91.2787731,183.626794 73.0502953,173.062315 C54.8218175,162.498477 51.9078978,172.250795 35.9610197,156.755117 C20.0135016,141.260079 22.7399013,140.636719 12.6362225,140.291759" id="Fill-12" fill="#C7D0D3"></path>
                <path d="M33.754364,178.208619 C33.754364,178.208619 -8.99827093,181.000938 4.32652748,206.559975 C17.6506859,232.118372 59.9598009,217.792614 59.9598009,217.792614 L33.754364,178.208619 Z" id="Fill-14" fill="#C7D0D3"></path>
                <path d="M65.4172082,216.061158 C65.4172082,216.061158 51.0376899,220.599398 41.694331,220.472678 C32.3503321,220.345958 25.464573,220.073318 26.2402529,215.890278 C27.0159328,211.707239 41.1637711,210.940519 34.4322519,208.153319 C27.7007327,205.36612 1.46073583,208.381799 9.55609486,204.08036 C17.6520939,199.77892 30.8994523,199.17924 24.747133,197.8378 C18.5948138,196.497001 2.60761569,197.60548 2.82201566,191.973481 C3.03705564,186.341482 13.0165744,193.495401 13.0306544,187.590122 C13.0440944,181.684202 -0.986623882,183.024362 0.0552959934,174.455403 C1.09721587,165.887084 13.2194544,177.613163 18.0239339,176.719723 C22.8284133,175.826283 13.9656943,163.251565 17.8639339,162.492525 C21.7615334,161.733485 37.7935315,181.120362 39.6373713,177.671403 C41.4812111,174.221803 38.2005714,159.919085 42.118011,162.607725 C46.0354505,165.297644 47.7320903,189.455721 50.8738499,187.974122 C54.0156096,186.492522 58.578809,180.051563 60.6556088,179.976043 C62.7317685,179.900523 65.4172082,216.061158 65.4172082,216.061158" id="Fill-16" fill="#E6EBED"></path>
                <path d="M65.4172082,216.061158 C88.2805655,227.431397 17.5029739,183.942122 17.5029739,183.942122 C17.5029739,183.942122 60.7868088,213.758439 65.4172082,216.061158" id="Fill-18" fill="#D5D9DB"></path>
                <path d="M53.5990336,131.797424 C53.5990336,131.797424 56.7593532,140.163503 54.1571135,143.230383 C51.5542339,146.297903 45.7910345,142.487343 45.7910345,142.487343 C45.7910345,142.487343 41.5151951,142.859183 41.3295951,139.605423 C41.1433551,136.352304 43.4671948,138.397744 44.2108747,139.141423 L44.9545546,139.884463 L45.4275146,139.554863 C45.4275146,139.554863 43.6950348,136.723504 44.4137547,134.568624 C45.1318346,132.413744 49.0934341,128.604465 53.5990336,131.797424" id="Fill-20" fill="#F7AA66"></path>
                <path d="M55.6959294,126.371121 C55.6959294,126.371121 57.2204092,129.904561 55.4847294,131.06168 C53.7490496,132.21816 49.8648901,131.01944 48.7660102,131.65304 C47.6671303,132.28664 49.1039301,133.51224 47.8789703,133.8508 C46.6533704,134.18872 44.4140107,134.56888 44.4140107,134.56888 C44.4140107,134.56888 44.0754507,137.94936 45.5122506,139.132079 L44.9541706,139.884079 C44.9541706,139.884079 42.8671309,136.78328 41.4008911,138.485679 C39.9346512,140.188719 36.1740117,132.11768 38.5823314,130.174 C38.5823314,130.174 37.1672916,128.568881 41.3189711,126.371121 C45.4700106,124.173361 53.6677696,123.201841 55.6959294,126.371121" id="Fill-22" fill="#2D3E50"></path>
                <polygon id="Fill-24" fill="#F7AA66" points="53.5409216 142.428015 56.6257212 147.456494 53.5409216 149.273454 50.8279619 145.851375 49.0193222 143.569135"></polygon>
                <path d="M54.2453055,144.423023 L57.8088251,149.393262 L57.5182651,144.842223 C57.5182651,144.842223 55.6270654,143.716463 54.2453055,144.423023" id="Fill-26" fill="#423077"></path>
                <path d="M44.4334027,153.854254 C45.3786826,156.326573 61.7332406,180.89297 61.7332406,180.89297 L58.2420411,156.181933 L58.1242811,154.346414 L56.6241212,154.944814 L50.715642,145.867695 C50.261882,145.961135 48.6202822,146.498095 49.8849221,149.271854 C49.8849221,149.271854 43.4874828,151.385134 44.4334027,153.854254" id="Fill-28" fill="#423077"></path>
                <path d="M57.0862652,155.866797 L50.715706,145.867439 C50.7854659,145.853359 50.8270659,145.850159 50.8270659,145.850159 C50.8270659,145.850159 52.8629057,145.133359 54.2453055,144.422959 L58.476985,150.043438 L57.0862652,155.866797 Z" id="Fill-30" fill="#ABEFFF"></path>
                <path d="M294.156189,104.127412 L291.941789,105.516211 C291.020189,105.305651 290.271389,104.960051 289.682589,104.594612 L289.599389,103.455412 C290.917149,104.512052 292.581789,104.556212 294.156189,104.127412 L294.156189,104.127412 Z M305.580188,107.500851 L302.533788,102.930612 L302.091548,102.265652 L300.568988,102.367412 L297.425949,102.572212 L296.549149,102.629812 L295.570589,102.694452 L295.448989,102.706612 L290.373789,103.040052 L289.592349,103.340852 L289.496989,103.372212 L289.06179,103.538612 L288.56259,103.730612 L287.95459,103.961012 L287.16035,104.716212 C287.07139,104.690612 286.98179,104.672052 286.88579,104.652212 C284.18499,104.134452 278.462751,105.772211 278.462751,105.772211 L280.152351,124.383409 L281.03619,134.080048 L282.22019,132.992048 L287.35235,128.274609 L287.44899,128.178609 L293.803549,122.341809 L294.079389,122.086449 L299.422748,117.17061 L307.237147,109.983411 L305.580188,107.500851 Z" id="Fill-32" fill="#FFBF3A"></path>
                <path d="M291.941853,105.516147 C291.020253,105.305587 290.271453,104.959987 289.682653,104.595188 L289.599453,103.455348 C290.917213,104.511988 292.581853,104.556148 294.156253,104.127348 L291.941853,105.516147 Z M294.245853,101.689588 L290.988253,101.094388 L290.130653,100.940788 L289.733853,101.900788 L289.330654,102.886388 L289.228254,103.129588 L289.061854,103.538548 L288.869214,104.006388 L287.640414,106.981747 L292.850653,106.981747 L293.618013,105.715187 L294.680413,103.974388 L294.847453,103.698548 L295.448413,102.706548 L295.493853,102.629748 L295.883613,101.989748 L294.245853,101.689588 Z" id="Fill-34" fill="#F7AA66"></path>
                <polygon id="Fill-36" fill="#F7AA66" points="286.483102 209.870503 287.509022 213.791143 286.776222 217.711142 283.917982 218.786342 283.845022 209.870503"></polygon>
                <path d="M317.291226,90.3523732 L304.045788,109.754611 L301.203548,104.548852 L314.994266,87.7712535 C314.994266,87.7712535 313.003867,84.182134 313.769307,84.5648539 C314.534747,84.9482139 315.224666,86.2493337 315.530586,85.5606938 C315.837146,84.8714139 316.984666,80.3542944 318.440026,81.9619742 C319.894106,83.569654 320.277466,84.7946139 319.205466,87.1683736 C318.133466,89.5414933 317.291226,90.3523732 317.291226,90.3523732" id="Fill-38" fill="#F7AA66"></path>
                <polygon id="Fill-40" fill="#EDAB37" points="300.651868 102.297396 300.568668 102.367156 290.994909 111.046835 289.906269 106.981555 289.848669 106.821555 291.942109 105.515955 294.156509 104.127156 294.847709 103.698356 295.935069 103.020596 296.549469 102.630196 297.311069 102.155956 297.951068 102.181556"></polygon>
                <polygon id="Fill-42" fill="#FEF6EF" points="289.848733 106.821747 289.419933 106.981747 286.463134 108.083187 286.885534 104.652148 287.160734 102.450548 288.472734 102.712948 288.933534 102.803188 289.330334 102.886388 289.560733 102.930548 289.592733 103.340788 289.599133 103.455348 289.682333 104.595188"></polygon>
                <polygon id="Fill-44" fill="#EDAB37" points="289.419933 106.981747 286.213534 108.332147 286.885534 104.652148 286.463134 108.083187"></polygon>
                <polygon id="Fill-46" fill="#FEF6EF" points="289.554333 106.438003 289.419933 106.982003 286.463134 108.082803 286.885534 104.652404 287.256734 102.770804 288.223134 102.962804 288.683934 103.052404 289.080734 103.135604 289.311134 103.180404 289.343134 103.590004 289.349534 103.705204 289.432733 104.844404"></polygon>
                <polygon id="Fill-48" fill="#FEF6EF" points="300.651868 102.297396 300.568668 102.367156 291.083869 110.310195 289.906269 106.981555 289.848669 106.821555 291.942109 105.515955 294.156509 104.127156 294.847709 103.698356 295.935069 103.020596 296.549469 102.630196 297.311069 102.155956 297.951068 102.181556"></polygon>
                <path d="M301.20246,126.521137 C301.20246,126.521137 301.06166,126.732337 300.81782,127.084337 C299.54486,128.914737 295.359261,134.610736 292.440861,135.052336 C292.184861,135.097136 291.941661,135.097136 291.717661,135.052336 C291.352221,134.981936 291.020061,134.802736 290.725661,134.482736 C289.842461,133.529136 289.163422,132.530736 288.657822,131.596336 L288.657822,131.589936 C288.645662,131.577136 288.645662,131.564336 288.639262,131.557936 C287.928862,130.240176 287.544862,129.049137 287.352222,128.274737 C287.205662,127.711537 287.160862,127.365937 287.160862,127.365937 C287.154462,127.360177 287.154462,127.360177 287.148062,127.353137 C287.000862,127.257137 285.823262,126.457137 285.823262,125.452337 C285.823262,125.157937 285.803422,124.857137 285.797662,124.556337 C285.784862,124.146737 285.791262,123.743537 285.887262,123.378737 L285.887262,123.372337 C285.976862,123.020337 286.149022,122.713137 286.463262,122.463537 C286.616862,122.341937 286.828062,122.214577 287.057822,122.098737 C287.090462,122.085937 287.122462,122.066737 287.160862,122.047537 C287.224862,122.015537 287.282462,121.989937 287.340062,121.970737 C287.410462,121.938737 287.480862,121.913137 287.544862,121.887537 L287.794462,121.810737 C287.852062,121.797937 287.909022,121.785777 287.960862,121.785777 C288.760862,121.631538 289.477661,121.932337 289.228062,123.506737 C289.228062,123.520177 289.228062,123.532337 289.221662,123.545777 C289.196062,123.705777 289.157662,123.884337 289.112222,124.069937 L289.592221,125.689137 C289.592221,125.689137 288.914462,120.396338 294.079261,122.085937 C294.373661,122.181937 294.693661,122.303537 295.032221,122.457137 C295.052061,122.463537 295.057821,122.463537 295.057821,122.463537 L301.20246,126.521137 Z" id="Fill-50" fill="#F7AA66"></path>
                <path d="M302.911196,98.7961482 C302.584796,101.292148 299.275996,100.697588 299.275996,100.697588 C299.141596,101.075188 298.661596,101.625588 297.951196,102.181748 C297.791197,102.316148 297.611997,102.444148 297.426397,102.572148 C297.061597,102.828788 296.657757,103.077748 296.223197,103.301748 C295.736797,103.564148 295.217757,103.795188 294.680797,103.974388 C294.507997,104.031988 294.335197,104.083188 294.155997,104.127348 C292.581597,104.556148 290.917597,104.511988 289.599197,103.455348 C289.560797,103.436148 289.528797,103.404148 289.496797,103.372148 C289.407197,103.301748 289.317598,103.218548 289.227998,103.129588 C289.125598,103.026548 289.029598,102.917748 288.933598,102.803188 C288.863198,102.719988 288.799198,102.636148 288.735198,102.546548 C288.497758,102.226548 288.287198,101.861748 288.095198,101.439988 C285.727198,96.2297485 288.485598,90.4831892 289.432157,88.7743894 C289.611997,88.4473495 289.727197,88.2687895 289.727197,88.2687895 L300.683996,89.7343893 L299.327196,97.7663883 C299.327196,97.7663883 299.333596,97.7663883 299.339996,97.7599883 C299.346396,97.7529483 299.352156,97.7407883 299.365596,97.7343883 C299.544796,97.5673484 300.325596,96.8441485 300.927196,96.4729485 L300.933596,96.4729485 C301.029596,96.4031885 301.125596,96.3519885 301.221596,96.3199885 C301.259996,96.3007885 301.304796,96.2809485 301.349596,96.2809485 C301.387996,96.2687895 301.419996,96.2617485 301.457756,96.2553485 C301.739996,96.1977485 302.066396,96.2361485 302.341596,96.4409485 C302.367196,96.4665485 302.379996,96.4729485 302.379996,96.4729485 C302.789596,96.7929485 303.083996,97.4905484 302.911196,98.7961482" id="Fill-52" fill="#F7AA66"></path>
                <path d="M295.060573,116.387378 C295.060573,116.387378 302.508252,116.113458 302.962012,121.745457 C303.415132,127.376817 301.510492,127.083697 300.386652,127.083697 C299.263452,127.083697 295.106653,124.146737 295.060573,122.464817 C295.060573,122.464817 289.837533,121.347378 289.593053,125.691697 C289.593053,125.691697 288.617054,124.343217 289.226974,123.540017 C289.226974,123.540017 289.415133,120.921778 287.159134,122.049457 C284.904414,123.175857 285.751774,125.547057 287.159134,127.365297 L288.658014,131.597616 L288.011614,135.186736 L282.218334,135.826096 L282.218334,122.688177 C282.218334,122.688177 285.685854,121.906737 286.906974,118.878898 C288.128094,115.850418 292.567133,113.359538 295.060573,116.387378" id="Fill-54" fill="#2D3E50"></path>
                <path d="M288.128734,210.804263 L288.128734,160.919469 L274.263775,158.472109 L279.564895,212.571943 C279.564895,212.571943 286.361054,212.978983 288.128734,210.804263" id="Fill-56" fill="#423077"></path>
                <path d="M299.113116,90.9292692 C299.113116,90.9292692 289.181598,91.0380691 288.042398,86.9139096 C286.903198,82.7891101 296.887837,83.92895 300.089756,84.6342299 C303.291676,85.3401498 304.648476,87.6191896 304.377116,89.6812693 C304.377116,89.6812693 307.103515,90.4953492 304.411036,93.6428688 L302.381596,96.4742285 C302.381596,96.4742285 301.641116,95.9590286 300.930716,96.4742285 C300.219676,96.9894284 299.330076,97.7676683 299.330076,97.7676683 C299.330076,97.7676683 298.315676,92.583669 299.113116,90.9292692" id="Fill-58" fill="#2D3E50"></path>
                <path d="M287.508702,213.791143 C287.508702,213.791143 287.288542,216.611622 289.780701,217.271462 C292.271581,217.931302 293.444061,217.784102 293.371101,219.617062 L283.918302,219.617062 L283.918302,216.703782 C283.918302,216.703782 285.896542,217.821222 285.970142,216.703782 C286.043102,215.586342 285.896542,213.791143 285.896542,213.791143 L287.508702,213.791143 Z" id="Fill-60" fill="#423077"></path>
                <path d="M291.653725,136.383664 L291.602525,137.394864 L291.602525,137.401264 L291.454685,140.415663 L287.192286,139.762863 L287.756126,136.614064 L288.012126,135.186864 L288.031326,135.097264 L288.396126,133.074864 C289.317726,134.342064 290.853725,136.287664 291.653725,136.383664" id="Fill-62" fill="#F7AA66"></path>
                <path d="M291.762461,134.07992 L291.717661,135.05272 C291.352221,134.98168 291.020061,134.80312 290.725661,134.48312 C289.842461,133.52952 289.163422,132.53048 288.657822,131.59608 L288.657822,131.58968 L288.671262,131.53848 L288.831262,130.63608 L289.343262,131.23832 L291.762461,134.07992 Z" id="Fill-64" fill="#F7AA66"></path>
                <path d="M297.483101,151.953646 C297.483101,151.953646 298.64598,144.087407 292.624221,138.319088 C286.602462,132.551408 282.217822,135.089008 282.217822,135.089008 L280.637663,162.310125 C280.637663,162.310125 284.660702,164.604524 289.105502,164.079724 L289.748701,153.460846 C289.748701,153.460846 293.419101,153.854446 297.483101,151.953646" id="Fill-66" fill="#88F9FF"></path>
                <path d="M283.914974,148.348654 C283.914974,148.348654 285.554014,160.147693 290.338653,160.278253 C295.123933,160.409453 295.859933,157.240173 295.884893,152.597614 C295.884893,152.597614 291.452893,153.723374 289.748573,153.460974 C289.748573,153.460974 288.165214,149.724654 286.466014,147.430254 C284.766814,145.136495 288.044254,143.235695 287.192414,141.727855 C286.339934,140.220655 286.143454,138.516335 283.193694,139.237615 C280.244575,139.958255 282.734814,144.218735 283.193694,144.547055 L283.652574,144.874095 L283.914974,148.348654 Z" id="Fill-68" fill="#F7AA66"></path>
                <path d="M291.602461,137.401136 C291.602461,137.401136 290.226461,139.500335 288.831262,138.386736 C287.436062,137.266736 287.589022,135.033136 287.589022,135.033136 C287.589022,135.033136 291.461661,135.423536 291.602461,137.401136" id="Fill-70" fill="#F7AA66"></path>
                <path d="M289.105566,107.602995 C288.476446,109.063475 287.785246,110.491955 287.084446,111.914035 C286.390046,113.340594 285.651486,114.742834 284.912286,116.145714 C284.160286,117.540274 283.407006,118.935474 282.610206,120.306994 L281.412126,122.362673 C280.992927,123.036593 280.592287,123.722033 280.155807,124.386993 C280.464287,123.652913 280.809887,122.939313 281.135646,122.214833 L282.175646,120.074674 C282.870686,118.649394 283.608606,117.245874 284.347806,115.844274 C285.101086,114.449714 285.854366,113.055155 286.651806,111.683635 C287.442846,110.309555 288.242846,108.939955 289.105566,107.602995" id="Fill-72" fill="#D6874C"></path>
                <path d="M294.156189,104.127412 L291.941789,105.516211 C291.020189,105.305651 290.271389,104.960051 289.682589,104.594612 L289.599389,103.455412 C290.917149,104.512052 292.581789,104.556212 294.156189,104.127412" id="Fill-74" fill="#E28F50"></path>
                <path d="M291.602461,137.401136 C291.602461,137.401136 291.935261,138.340016 291.653661,138.397616 C291.372061,138.454575 291.314461,139.076015 291.057821,139.024815 C290.802461,138.966575 289.210142,139.371055 288.627742,139.544495 C288.044702,139.716655 287.731102,139.115695 287.731102,138.718895 C287.731102,138.321456 287.506462,137.554736 287.052062,137.273136 C286.597662,136.991536 287.275422,136.160176 286.801822,135.826736 C286.328862,135.487536 287.589022,135.033136 287.589022,135.033136 C287.589022,135.033136 287.436062,137.266736 288.831262,138.386736 C290.226461,139.500335 291.602461,137.401136 291.602461,137.401136" id="Fill-76" fill="#FFFFFF"></path>
                <path d="M61.0106807,219.557414 C58.745721,219.557414 56.9095612,217.721254 56.9095612,215.455654 L56.9095612,78.3420707 C56.9095612,76.0771109 58.745721,74.2403111 61.0106807,74.2403111 L278.528095,74.2403111 C280.793695,74.2403111 282.629854,76.0771109 282.629854,78.3420707 L282.629854,215.455654 C282.629854,217.721254 280.793695,219.557414 278.528095,219.557414 L61.0106807,219.557414 Z" id="Fill-78" fill="#273DAD"></path>
                <polygon id="Fill-80" fill="#F0F6FA" points="56.9094332 219.557094 282.629726 219.557094 282.629726 95.2620686 56.9094332 95.2620686"></polygon>
                <path d="M68.3784238,84.6661659 C68.3784238,85.7266458 67.518904,86.5861657 66.4584241,86.5861657 C65.3979442,86.5861657 64.5384243,85.7266458 64.5384243,84.6661659 C64.5384243,83.605686 65.3979442,82.7461661 66.4584241,82.7461661 C67.518904,82.7461661 68.3784238,83.605686 68.3784238,84.6661659" id="Fill-82" fill="#EA3D6A"></path>
                <path d="M76.8102948,84.6661659 C76.8102948,85.7266458 75.9507749,86.5861657 74.8902951,86.5861657 C73.8298152,86.5861657 72.9702953,85.7266458 72.9702953,84.6661659 C72.9702953,83.605686 73.8298152,82.7461661 74.8902951,82.7461661 C75.9507749,82.7461661 76.8102948,83.605686 76.8102948,84.6661659" id="Fill-83" fill="#FFC53C"></path>
                <polygon id="Fill-84" fill="#FFFFFF" points="68.3782318 207.928295 271.089248 207.928295 271.089248 105.427187 68.3782318 105.427187"></polygon>
                <path d="M84.8049819,84.6661659 C84.8049819,85.7266458 83.945462,86.5861657 82.8849821,86.5861657 C81.8245022,86.5861657 80.9649823,85.7266458 80.9649823,84.6661659 C80.9649823,83.605686 81.8245022,82.7461661 82.8849821,82.7461661 C83.945462,82.7461661 84.8049819,83.605686 84.8049819,84.6661659" id="Fill-85" fill="#ABFFA1"></path>
                <path d="M291.717469,135.0524 L291.653469,136.3836 C290.853469,136.2876 289.31747,134.342 288.39651,133.0748 L288.65827,131.5964 C289.16387,132.5308 289.842269,133.5292 290.725469,134.4828 C291.019869,134.8028 291.352669,134.982 291.717469,135.0524" id="Fill-86" fill="#E28F50"></path>
                <path d="M55.2815294,162.178029 C55.2815294,162.178029 56.0405693,160.867949 56.8680892,160.591469 C57.6949691,160.316269 58.316409,161.005549 57.9714491,162.178029 C57.6264891,163.350509 56.7170492,165.557228 56.1372093,165.488748 C55.5573694,165.418988 54.9365695,163.902188 55.2815294,162.178029" id="Fill-87" fill="#F7AA66"></path>
                <path d="M32.9781081,126.250545 C32.9781081,126.250545 33.9918679,119.499826 26.1249889,120.565426 C18.2581098,121.630386 0.763071909,115.508786 6.77011119,98.6684682 C12.7765105,81.8294302 49.6289861,66.928952 52.4955457,89.6131093 C55.3614654,112.296627 38.5345874,101.388468 35.7563477,113.819826 L32.9781081,126.250545 Z" id="Fill-88" fill="#C6E9FF"></path>
                <path d="M27.0790368,97.4268044 C26.6867168,96.7932045 26.4281568,96.0789645 26.3603169,95.3007246 C26.3315169,94.9116047 26.3641569,94.5090447 26.4691168,94.1103248 C26.5919968,93.7218448 26.7724768,93.3288849 27.0457568,93.0120849 C27.1129568,92.9320849 27.1795168,92.8495249 27.2499168,92.7714449 L27.4822367,92.566005 C27.6364767,92.425845 27.7996767,92.297205 27.9846367,92.189045 C28.3455966,91.966965 28.7756766,91.8018451 29.2345565,91.7538451 C29.6934365,91.7052051 30.1625564,91.7807251 30.5804764,91.930485 C30.9977563,92.080885 31.3843163,92.298485 31.7292762,92.582005 C32.4159961,93.1458449 32.9356761,93.9285648 33.172476,94.8098447 C33.287036,95.2508046 33.325436,95.7135246 33.276156,96.1698445 C33.221116,96.6428045 33.1014361,97.0236044 32.9446361,97.4159244 C32.8620761,97.6079244 32.7718361,97.7948043 32.6726361,97.9759243 L32.5158361,98.2408843 L32.3820761,98.4501643 C32.2111962,98.6805642 32.1196762,98.8968842 32.0543962,99.1138442 C32.0044762,99.3269642 32.0038362,99.5720841 32.1318362,99.8402441 C32.2515162,100.110964 32.4780761,100.381684 32.7423961,100.631284 L32.7513561,100.640244 C32.7897561,100.676084 32.7916761,100.737524 32.7551961,100.775924 C32.7359961,100.797044 32.7091161,100.806644 32.6828761,100.806034 C32.2745562,100.798964 31.8809562,100.665844 31.5071962,100.409844 C31.1449563,100.149364 30.8383963,99.6949641 30.7558363,99.1874442 C30.6598363,98.6863242 30.7443163,98.1762443 30.8985563,97.7640843 L30.9971163,97.4850444 L31.0700763,97.2604044 C31.1180763,97.1119244 31.1615963,96.9634444 31.1961563,96.8136845 C31.3516763,96.1896845 31.4239963,95.7077646 31.3766363,95.1650447 C31.3369563,94.6306447 31.1283163,94.0828048 30.7391963,93.6808848 C30.3526364,93.2808849 29.8137564,92.9884049 29.2998365,92.9820049 C29.0374365,92.9692049 28.7615966,93.0236049 28.4883166,93.1413649 C28.3494366,93.1964049 28.2156766,93.2744849 28.0902367,93.3608849 L27.8943967,93.4869649 L27.7254367,93.6380048 C27.4867167,93.8319248 27.3183967,94.0879248 27.1718368,94.3644048 C27.0451168,94.6498447 26.9606368,94.9660047 26.9305568,95.2994446 C26.8825568,95.9644046 26.9964768,96.6812045 27.2422368,97.3397644 L27.2441568,97.3461644 C27.2620768,97.3935244 27.2377568,97.4472844 27.1897568,97.4652044 C27.1481568,97.4805644 27.1020768,97.4639244 27.0790368,97.4268044" id="Fill-89" fill="#FFFFFF"></path>
                <polygon id="Fill-90" fill="#B6BDC1" points="250.86685 26.0630369 241.883171 36.2403157 241.883171 16.0822381 254.48349 12.5519985"></polygon>
                <path d="M34.2878039,101.765556 C34.2878039,102.098356 34.0190039,102.367156 33.686844,102.367156 C33.354684,102.367156 33.0852441,102.098356 33.0852441,101.765556 C33.0852441,101.433396 33.354684,101.164596 33.686844,101.164596 C34.0190039,101.164596 34.2878039,101.433396 34.2878039,101.765556" id="Fill-91" fill="#FFFFFF"></path>
                <polygon id="Fill-92" fill="#F0F6FA" points="229.743077 6.76300719 241.883235 16.0826861 259.943393 9.69868684 245.279715 20.3841256 250.866914 32.0295642 279.223391 0.000127999985"></polygon>
                <polygon id="Fill-93" fill="#DDE4E8" points="241.883107 16.0824301 241.883107 36.2405077 245.280227 20.3845096 263.851745 8.16499103"></polygon>
                <path d="M242.835619,36.2405077 C242.835619,36.2405077 242.128419,36.8945876 240.918179,37.9345875" id="Stroke-94" stroke="#E6EBED" stroke-width="0.639999924"></path>
                <path d="M236.997476,41.1605071 C230.870116,45.9848265 221.283558,52.5237057 215.090278,51.8273858 C205.38404,50.736186 207.507559,39.5509073 218.858598,37.9144275 C230.209637,36.2773077 227.155557,53.1918657 224.045157,57.2833852 C220.934118,61.3761847 210.567399,69.5598637 179.739883,57.2833852 C164.564844,51.2405059 159.913325,59.7301049 159.062125,69.1451438" id="Stroke-95" stroke="#E6EBED" stroke-width="0.639999924" stroke-dasharray="5.077119524650584,5.077119524650584"></path>
                <path d="M158.919981,71.6805035 C158.900141,72.5400234 158.905901,73.3963433 158.933421,74.2405031" id="Stroke-96" stroke="#E6EBED" stroke-width="0.639999924"></path>
                <line x1="117.71813" y1="137.321136" x2="120.04773" y2="138.383536" id="Stroke-97" stroke="#9BB9D3" stroke-width="0.639999924"></line>
                <line x1="124.650609" y1="140.482991" x2="168.379244" y2="160.427949" id="Stroke-98" stroke="#9BB9D3" stroke-width="0.639999924" stroke-dasharray="5.059199603843695,5.059199603843695"></line>
                <polyline id="Stroke-99" stroke="#9BB9D3" stroke-width="0.639999924" points="170.68126 161.477997 173.010859 162.539757 175.295659 161.385837"></polyline>
                <line x1="179.712491" y1="159.154285" x2="221.677926" y2="137.956848" id="Stroke-100" stroke="#9BB9D3" stroke-width="0.639999924" stroke-dasharray="4.94911927288058,4.94911927288058"></line>
                <line x1="223.886245" y1="136.841136" x2="226.171685" y2="135.686576" id="Stroke-101" stroke="#9BB9D3" stroke-width="0.639999924"></line>
                <path d="M212.045607,159.353645 L212.045607,159.417645 C212.026407,159.417645 212.006567,159.411245 211.987367,159.411245 C212.006567,159.385645 212.026407,159.366445 212.045607,159.353645" id="Fill-102" fill="#F7AA66"></path>
                <path d="M186.241834,162.273645 C186.241834,167.108844 183.702954,171.349484 179.888555,173.727723 C177.819435,175.028843 175.367595,175.778283 172.742315,175.778283 C170.682156,175.778283 168.733996,175.318763 166.988716,174.491883 C162.405037,172.335723 159.238317,167.673964 159.238317,162.273645 C159.238317,154.818286 165.281836,148.769006 172.742315,148.769006 C180.198315,148.769006 186.241834,154.818286 186.241834,162.273645" id="Fill-103" fill="#E4EBED"></path>
                <path d="M184.385002,162.275501 C184.385002,166.08286 182.558442,169.46142 179.739243,171.5843 C179.467883,171.78398 179.193323,171.975979 178.904683,172.155819 C177.119723,173.277099 175.005803,173.919019 172.741483,173.919019 C170.964844,173.919019 169.284204,173.527339 167.778924,172.814379 C167.257324,172.567979 166.761324,172.288939 166.285804,171.967659 C163.153645,169.88702 161.093485,166.32094 161.093485,162.275501 C161.093485,155.844781 166.306284,150.628142 172.741483,150.628142 C179.171563,150.628142 184.385002,155.844781 184.385002,162.275501" id="Fill-104" fill="#E1F9FF"></path>
                <path d="M170.942508,158.537389 C170.942508,158.537389 173.346987,161.563949 176.608427,159.646509 C176.608427,159.646509 175.527467,166.593068 172.249387,169.783468 C168.970668,172.974507 179.768107,174.446507 178.622507,168.393388 C177.477547,162.340269 180.056107,153.71499 172.867627,153.76491 C165.678508,153.81419 170.942508,158.537389 170.942508,158.537389" id="Fill-105" fill="#2D3E50"></path>
                <path d="M169.17374,157.917421 C169.17374,157.917421 168.24894,164.7667 172.739819,164.7667 C177.230699,164.7667 176.408939,157.917421 176.408939,157.917421 C176.408939,157.917421 172.955499,153.780462 169.17374,157.917421" id="Fill-106" fill="#F7AA66"></path>
                <path d="M179.739376,171.575532 L179.739376,171.584492 C179.468011,171.784172 179.192811,171.976171 178.904811,172.155371 C177.119851,173.277291 175.005931,173.919211 172.740971,173.919211 C170.964972,173.919211 169.284332,173.527531 167.779052,172.814571 C167.257452,172.568171 166.761452,172.288491 166.285932,171.967211 C166.285932,171.967211 165.972972,167.171692 170.793452,166.116972 C170.831212,166.104172 170.872812,166.095212 170.915052,166.087532 L170.915052,166.208492 C171.820012,166.896492 172.808171,167.814252 173.012331,168.655852 C173.012331,168.655852 173.579371,167.117292 174.726251,166.070252 C174.739051,166.070252 174.751211,166.074732 174.764011,166.074732 C179.780331,167.012972 179.739376,171.575532 179.739376,171.575532" id="Fill-107" fill="#F47E67"></path>
                <path d="M174.763755,163.159917 L174.763755,166.032876 C174.750955,166.041836 174.738795,166.053996 174.725995,166.070636 C173.579115,167.117676 173.012715,168.656236 173.012715,168.656236 C172.807915,167.813996 171.819756,166.896876 170.914796,166.208876 L170.914796,163.159917 L174.763755,163.159917 Z" id="Fill-108" fill="#F7AA66"></path>
                <path d="M174.763755,166.033004 C174.750955,166.041964 174.738795,166.054124 174.725995,166.070764 C173.579115,167.117164 173.012715,168.656364 173.012715,168.656364 C172.807915,167.814124 171.819756,166.897004 170.914796,166.208364" id="Stroke-109" stroke="#E06655" stroke-width="0.639999924"></path>
                <path d="M174.763755,157.917421 C174.763755,157.917421 172.359915,160.943981 169.098476,159.026541 C169.098476,159.026541 170.178796,165.9731 173.457515,169.1635 C176.736235,172.355179 165.938796,173.827179 167.083756,167.77406 C168.229356,161.720941 165.650796,153.095662 172.839275,153.144942 C180.028395,153.194222 174.763755,157.917421 174.763755,157.917421" id="Fill-110" fill="#2D3E50"></path>
                <path d="M174.763755,156.623021 C174.763755,156.623021 174.412395,159.878061 176.333675,160.925101 C178.255595,161.971501 178.045675,155.940141 176.622955,155.153582 C175.200235,154.367662 174.763755,156.623021 174.763755,156.623021" id="Fill-111" fill="#2D3E50"></path>
                <path d="M131.259376,137.204912 C131.259376,142.040111 128.720497,146.280751 124.905457,148.65899 C122.836337,149.96011 120.385138,150.70955 117.759218,150.70955 C115.699698,150.70955 113.751538,150.25003 112.005619,149.42315 C107.422579,147.26699 104.25522,142.605231 104.25522,137.204912 C104.25522,129.749553 110.299379,123.700273 117.759218,123.700273 C125.215217,123.700273 131.259376,129.749553 131.259376,137.204912" id="Fill-112" fill="#E4EBED"></path>
                <path d="M129.403121,137.204912 C129.403121,141.375791 127.213681,145.032111 123.922801,147.08459 C122.137841,148.20587 120.023922,148.85291 117.759602,148.85291 C115.982322,148.85291 114.301682,148.45675 112.796403,147.74379 C108.843123,145.883951 106.110963,141.862831 106.110963,137.204912 C106.110963,130.774192 111.324403,125.556913 117.759602,125.556913 C124.189681,125.556913 129.403121,130.774192 129.403121,137.204912" id="Fill-113" fill="#E1F9FF"></path>
                <path d="M119.727474,141.754927 L119.727474,145.211567 L116.691954,145.211567 L116.691954,141.633967 C117.370994,141.909167 118.539634,142.217647 119.727474,141.754927" id="Fill-114" fill="#F7AA66"></path>
                <path d="M120.911858,140.103023 C120.604018,140.578543 120.211058,140.970223 119.727218,141.229423 C119.331058,141.441903 118.872178,141.562863 118.342898,141.562863 C117.697138,141.562863 117.150578,141.383663 116.691698,141.079023 C116.266098,140.799983 115.912178,140.411503 115.619698,139.957103 C114.131058,137.659504 114.202098,133.718384 114.202098,133.718384 L122.205297,133.718384 C122.205297,133.718384 122.421617,137.834864 120.911858,140.103023" id="Fill-115" fill="#F7AA66"></path>
                <path d="M121.17061,143.823023 C120.86597,144.523823 120.13253,145.512623 118.44741,145.512623 C116.60357,145.512623 115.93669,144.452783 115.70309,143.835823 C115.76197,143.802543 115.82405,143.769263 115.88677,143.744303 C116.22085,143.572783 116.57477,143.439663 116.94213,143.339183 L116.94597,143.339183 C117.42533,143.210543 117.93029,143.139503 118.44741,143.139503 C118.78469,143.139503 119.11877,143.168943 119.44453,143.226543 L119.45221,143.226543 L119.46053,143.231023 C119.99877,143.323183 120.51205,143.493423 120.98693,143.727663 C121.04965,143.760303 121.11237,143.789743 121.17061,143.823023" id="Fill-116" fill="#F7AA66"></path>
                <path d="M123.923121,147.08427 C122.138161,148.20619 120.023602,148.85323 117.759282,148.85323 C115.982642,148.85323 114.302002,148.45707 112.796083,147.74347 C113.130163,146.121071 114.139442,144.749551 115.523762,143.939951 C115.582642,143.902191 115.640882,143.869551 115.702962,143.835631 C115.936562,144.453231 116.603442,145.512431 118.447282,145.512431 C120.132402,145.512431 120.866482,144.523631 121.170482,143.822831 C121.233202,143.856751 121.291442,143.890031 121.354162,143.931631 C121.783601,144.173551 122.179761,144.478191 122.529841,144.828911 C123.155761,145.453551 123.639601,146.220911 123.923121,147.08427" id="Fill-117" fill="#6796F4"></path>
                <path d="M122.804337,136.992368 C122.804337,136.992368 126.203377,128.623729 118.360178,128.623729 C110.516339,128.623729 114.200818,137.921008 114.200818,137.921008 C117.069938,137.803248 117.757298,133.505648 117.757298,133.505648 C117.761138,134.872048 118.671218,135.898608 120.596978,135.715568 C122.523377,135.531888 122.804337,136.992368 122.804337,136.992368" id="Fill-118" fill="#2D3E50"></path>
                <path d="M117.71813,137.321136 C117.71813,138.223536 116.98661,138.955055 116.08421,138.955055 C115.18181,138.955055 114.45029,138.223536 114.45029,137.321136 C114.45029,136.418736 115.18181,135.686576 116.08421,135.686576 C116.98661,135.686576 117.71813,136.418736 117.71813,137.321136" id="Fill-119" fill="#CCF5FF"></path>
                <path d="M122.198705,137.553648 C122.198705,138.456047 121.466546,139.187567 120.564146,139.187567 C119.661746,139.187567 118.930866,138.456047 118.930866,137.553648 C118.930866,136.651248 119.661746,135.919088 120.564146,135.919088 C121.466546,135.919088 122.198705,136.651248 122.198705,137.553648" id="Fill-120" fill="#CCF5FF"></path>
                <path d="M121.354354,143.931759 C121.258354,144.269039 120.707314,145.704559 118.447474,145.720559 L118.413554,145.720559 C116.233074,145.720559 115.619954,144.244079 115.523954,143.940079 C115.582194,143.902319 115.640434,143.869039 115.703154,143.835759 C115.762034,143.802479 115.824114,143.769199 115.886834,143.744239 C115.895154,143.757039 115.899634,143.769199 115.902834,143.781999 C115.924594,143.847919 116.332914,145.303919 118.413554,145.303919 L118.447474,145.303919 C120.636914,145.286639 120.953714,143.844079 120.966514,143.781999 C120.970354,143.760239 120.974194,143.744239 120.986994,143.727599 C121.049074,143.760239 121.112434,143.789679 121.170674,143.822959 C121.233394,143.856879 121.290994,143.890159 121.354354,143.931759" id="Fill-121" fill="#2260C4"></path>
                <path d="M119.727474,141.229295 L119.727474,141.754735 C118.539634,142.217455 117.370994,141.908975 116.691954,141.633775 L116.691954,141.079535 C117.150834,141.383535 117.696754,141.562735 118.343154,141.562735 C118.872434,141.562735 119.331314,141.441775 119.727474,141.229295" id="Fill-122" fill="#D1854B"></path>
                <path d="M238.991844,135.381744 C238.991844,140.216943 236.452964,144.457583 232.637924,146.835822 C230.568805,148.136942 228.117605,148.886382 225.491685,148.886382 C223.432165,148.886382 221.484006,148.426862 219.738086,147.599982 C215.155046,145.443823 211.987687,140.782063 211.987687,135.381744 C211.987687,127.926385 218.031846,121.877105 225.491685,121.877105 C232.947684,121.877105 238.991844,127.926385 238.991844,135.381744" id="Fill-123" fill="#E4EBED"></path>
                <path d="M237.135588,135.381744 C237.135588,139.552623 234.946148,143.209583 231.655268,145.262063 C229.870309,146.382703 227.756389,147.029742 225.492069,147.029742 C223.714789,147.029742 222.03415,146.633583 220.52887,145.920623 C216.57559,144.060783 213.843431,140.039663 213.843431,135.381744 C213.843431,128.951025 219.05687,123.734385 225.492069,123.734385 C231.922148,123.734385 237.135588,128.951025 237.135588,135.381744" id="Fill-124" fill="#E1F9FF"></path>
                <path d="M227.459941,139.931759 L227.459941,143.389039 L224.424421,143.389039 L224.424421,139.810799 C225.103461,140.085999 226.272101,140.395119 227.459941,139.931759" id="Fill-125" fill="#F7AA66"></path>
                <path d="M228.644325,138.280496 C228.336485,138.755375 227.943525,139.147695 227.459685,139.406255 C227.063525,139.619375 226.604645,139.739695 226.075365,139.739695 C225.429605,139.739695 224.883045,139.560495 224.424165,139.255855 C223.998565,138.976815 223.644645,138.588335 223.352165,138.133936 C221.863526,135.836336 221.934566,131.895216 221.934566,131.895216 L229.937765,131.895216 C229.937765,131.895216 230.154085,136.011696 228.644325,138.280496" id="Fill-126" fill="#F7AA66"></path>
                <path d="M228.903077,142.000495 C228.598437,142.701295 227.864997,143.689455 226.179877,143.689455 C224.336677,143.689455 223.669157,142.629615 223.435557,142.013295 C223.494437,141.979375 223.556517,141.946095 223.619237,141.921135 C223.953317,141.749615 224.307237,141.616495 224.674597,141.516655 L224.678437,141.516655 C225.157797,141.387375 225.662757,141.316335 226.179877,141.316335 C226.517157,141.316335 226.851237,141.345775 227.176997,141.403375 L227.184677,141.403375 L227.192997,141.407855 C227.731237,141.500015 228.244517,141.670255 228.719397,141.904495 C228.782757,141.937135 228.844837,141.966575 228.903077,142.000495" id="Fill-127" fill="#F7AA66"></path>
                <path d="M231.655588,145.261743 C229.870629,146.383023 227.756069,147.030062 225.491749,147.030062 C223.715109,147.030062 222.03447,146.633903 220.52855,145.920303 C220.86263,144.297903 221.87191,142.926383 223.256229,142.116783 C223.315109,142.079023 223.373349,142.046383 223.435429,142.013103 C223.669029,142.630063 224.336549,143.689263 226.179749,143.689263 C227.864869,143.689263 228.598949,142.701103 228.902949,142.000303 C228.965669,142.033583 229.024549,142.066863 229.086629,142.108463 C229.516069,142.350383 229.912229,142.655023 230.262309,143.005743 C230.888228,143.631023 231.372068,144.397743 231.655588,145.261743" id="Fill-128" fill="#F28C68"></path>
                <path d="M229.086821,142.108655 C228.990821,142.446575 228.439781,143.881455 226.179941,143.898095 L226.146021,143.898095 C223.965541,143.898095 223.352421,142.420975 223.256421,142.116975 C223.314661,142.079215 223.372901,142.045935 223.435621,142.013295 C223.494501,141.979375 223.556581,141.946095 223.619301,141.921135 C223.627621,141.933935 223.632101,141.946095 223.635941,141.958895 C223.657061,142.025455 224.065381,143.480815 226.146021,143.480815 L226.179941,143.480815 C228.369381,143.464175 228.686181,142.020975 228.698981,141.958895 C228.702821,141.937135 228.706661,141.921135 228.719461,141.904495 C228.782181,141.937135 228.844901,141.966575 228.903141,142.000495 C228.965861,142.033775 229.024101,142.067055 229.086821,142.108655" id="Fill-129" fill="#D15443"></path>
                <path d="M227.459941,139.406127 L227.459941,139.931567 C226.272101,140.394927 225.103461,140.085807 224.424421,139.810607 L224.424421,139.256367 C224.883301,139.560367 225.429221,139.739567 226.075621,139.739567 C226.604901,139.739567 227.063781,139.619247 227.459941,139.406127" id="Fill-130" fill="#D1854B"></path>
                <path d="M230.015589,130.678 C230.015589,130.678 229.399269,134.1724 222.14359,134.1212 C222.14359,134.1212 218.74263,132.07576 222.00151,130.08088 C225.259109,128.086641 230.057189,127.664881 230.015589,130.678" id="Fill-131" fill="#2D3E50"></path>
                <path d="M228.243109,131.311152 C228.243109,131.311152 229.231909,135.657392 230.628389,134.493872 C232.024228,133.330352 230.964388,129.304113 229.807269,129.688753 C228.650149,130.072112 228.243109,131.311152 228.243109,131.311152" id="Fill-132" fill="#2D3E50"></path>
                <polygon id="Fill-133" fill="#DAE1EE" points="122.870385 184.056938 222.607973 184.056938 222.607973 181.496938 122.870385 181.496938"></polygon>
                <polygon id="Fill-134" fill="#DAE1EE" points="149.742062 189.023337 195.736937 189.023337 195.736937 186.463338 149.742062 186.463338"></polygon>
            </g>
        </g>
    </g>
</svg>