<?xml version="1.0" encoding="UTF-8"?>
<svg width="186px" height="186px" viewBox="0 0 186 186" version="1.1" xmlns="http://www.w3.org/2000/svg" xmlns:xlink="http://www.w3.org/1999/xlink">
    <title>22FF11A3-E576-49FD-9DB1-A9840F5FAAA1</title>
    <g id="Home-Schooling-V3" stroke="none" stroke-width="1" fill="none" fill-rule="evenodd">
        <g id="My-group-popup" transform="translate(-93.000000, -184.000000)">
            <g id="Group_looper" transform="translate(93.000000, 184.000000)">
                <g id="Group_16" opacity="0.862994088" transform="translate(159.844809, 159.554968) rotate(1128.000000) translate(-159.844809, -159.554968) translate(140.844809, 142.554968)">
                    <ellipse id="Oval-Copy-17" fill="#003872" transform="translate(18.585107, 16.719083) scale(-1, 1) rotate(129.000000) translate(-18.585107, -16.719083) " cx="18.585107" cy="16.7190831" rx="4.89661333" ry="4.89831329"></ellipse>
                    <ellipse id="Oval-Copy-18" fill="#003872" transform="translate(32.779227, 16.719083) scale(-1, 1) rotate(129.000000) translate(-32.779227, -16.719083) " cx="32.7792271" cy="16.7190831" rx="2.95836992" ry="3.06144642"></ellipse>
                    <ellipse id="Oval-Copy-20" fill="#003872" transform="translate(4.390987, 16.719083) scale(-1, 1) rotate(129.000000) translate(-4.390987, -16.719083) " cx="4.39098681" cy="16.7190831" rx="2.95836992" ry="3.06144642"></ellipse>
                    <ellipse id="Oval-Copy-19" fill="#152B41" transform="translate(18.585107, 2.650586) scale(-1, 1) rotate(129.000000) translate(-18.585107, -2.650586) " cx="18.585107" cy="2.65058634" rx="1.83623" ry="1.83686748"></ellipse>
                    <ellipse id="Oval-Copy-21" fill="#152B41" transform="translate(18.585107, 30.991471) scale(-1, 1) rotate(129.000000) translate(-18.585107, -30.991471) " cx="18.585107" cy="30.9914711" rx="1.83623" ry="1.83686748"></ellipse>
                    <ellipse id="Oval-Copy-22" fill="#152B41" transform="translate(31.043256, 28.136993) scale(-1, 1) rotate(129.000000) translate(-31.043256, -28.136993) " cx="31.0432556" cy="28.1369935" rx="1.83623" ry="1.83686748"></ellipse>
                    <ellipse id="Oval-Copy-23" fill="#152B41" transform="translate(8.373510, 5.505064) scale(-1, 1) rotate(129.000000) translate(-8.373510, -5.505064) " cx="8.37350973" cy="5.50506394" rx="1.83623" ry="1.83686748"></ellipse>
                </g>
                <g id="Group_15" opacity="0.652512146" transform="translate(115.549324, 159.122685) rotate(1056.000000) translate(-115.549324, -159.122685) translate(96.549324, 142.122685)">
                    <ellipse id="Oval-Copy-17" fill="#068843" transform="translate(18.585107, 16.719083) scale(-1, 1) rotate(129.000000) translate(-18.585107, -16.719083) " cx="18.585107" cy="16.7190831" rx="4.89661333" ry="4.89831329"></ellipse>
                    <ellipse id="Oval-Copy-18" fill="#003872" transform="translate(32.779227, 16.719083) scale(-1, 1) rotate(129.000000) translate(-32.779227, -16.719083) " cx="32.7792271" cy="16.7190831" rx="2.95836992" ry="3.06144642"></ellipse>
                    <ellipse id="Oval-Copy-20" fill="#003872" transform="translate(4.390987, 16.719083) scale(-1, 1) rotate(129.000000) translate(-4.390987, -16.719083) " cx="4.39098681" cy="16.7190831" rx="2.95836992" ry="3.06144642"></ellipse>
                    <ellipse id="Oval-Copy-19" fill="#152B41" transform="translate(18.585107, 2.650586) scale(-1, 1) rotate(129.000000) translate(-18.585107, -2.650586) " cx="18.585107" cy="2.65058634" rx="1.83623" ry="1.83686748"></ellipse>
                    <ellipse id="Oval-Copy-21" fill="#152B41" transform="translate(18.585107, 30.991471) scale(-1, 1) rotate(129.000000) translate(-18.585107, -30.991471) " cx="18.585107" cy="30.9914711" rx="1.83623" ry="1.83686748"></ellipse>
                    <ellipse id="Oval-Copy-22" fill="#152B41" transform="translate(31.043256, 28.136993) scale(-1, 1) rotate(129.000000) translate(-31.043256, -28.136993) " cx="31.0432556" cy="28.1369935" rx="1.83623" ry="1.83686748"></ellipse>
                    <ellipse id="Oval-Copy-23" fill="#152B41" transform="translate(8.373510, 5.505064) scale(-1, 1) rotate(129.000000) translate(-8.373510, -5.505064) " cx="8.37350973" cy="5.50506394" rx="1.83623" ry="1.83686748"></ellipse>
                </g>
                <g id="Group_14" opacity="0.554989944" transform="translate(70.628674, 158.697148) rotate(984.000000) translate(-70.628674, -158.697148) translate(51.628674, 141.697148)">
                    <ellipse id="Oval-Copy-17" fill="#E66938" transform="translate(18.585107, 16.719083) scale(-1, 1) rotate(129.000000) translate(-18.585107, -16.719083) " cx="18.585107" cy="16.7190831" rx="4.89661333" ry="4.89831329"></ellipse>
                    <ellipse id="Oval-Copy-18" fill="#003872" transform="translate(32.779227, 16.719083) scale(-1, 1) rotate(129.000000) translate(-32.779227, -16.719083) " cx="32.7792271" cy="16.7190831" rx="2.95836992" ry="3.06144642"></ellipse>
                    <ellipse id="Oval-Copy-20" fill="#003872" transform="translate(4.390987, 16.719083) scale(-1, 1) rotate(129.000000) translate(-4.390987, -16.719083) " cx="4.39098681" cy="16.7190831" rx="2.95836992" ry="3.06144642"></ellipse>
                    <ellipse id="Oval-Copy-19" fill="#152B41" transform="translate(18.585107, 2.650586) scale(-1, 1) rotate(129.000000) translate(-18.585107, -2.650586) " cx="18.585107" cy="2.65058634" rx="1.83623" ry="1.83686748"></ellipse>
                    <ellipse id="Oval-Copy-21" fill="#152B41" transform="translate(18.585107, 30.991471) scale(-1, 1) rotate(129.000000) translate(-18.585107, -30.991471) " cx="18.585107" cy="30.9914711" rx="1.83623" ry="1.83686748"></ellipse>
                    <ellipse id="Oval-Copy-22" fill="#152B41" transform="translate(31.043256, 28.136993) scale(-1, 1) rotate(129.000000) translate(-31.043256, -28.136993) " cx="31.0432556" cy="28.1369935" rx="1.83623" ry="1.83686748"></ellipse>
                    <ellipse id="Oval-Copy-23" fill="#152B41" transform="translate(8.373510, 5.505064) scale(-1, 1) rotate(129.000000) translate(-8.373510, -5.505064) " cx="8.37350973" cy="5.50506394" rx="1.83623" ry="1.83686748"></ellipse>
                </g>
                <g id="Group_13" opacity="0.256912196" transform="translate(25.520105, 158.866435) rotate(912.000000) translate(-25.520105, -158.866435) translate(6.520105, 141.866435)">
                    <ellipse id="Oval-Copy-17" fill="#003872" transform="translate(18.585107, 16.719083) scale(-1, 1) rotate(129.000000) translate(-18.585107, -16.719083) " cx="18.585107" cy="16.7190831" rx="4.89661333" ry="4.89831329"></ellipse>
                    <ellipse id="Oval-Copy-18" fill="#003872" transform="translate(32.779227, 16.719083) scale(-1, 1) rotate(129.000000) translate(-32.779227, -16.719083) " cx="32.7792271" cy="16.7190831" rx="2.95836992" ry="3.06144642"></ellipse>
                    <ellipse id="Oval-Copy-20" fill="#003872" transform="translate(4.390987, 16.719083) scale(-1, 1) rotate(129.000000) translate(-4.390987, -16.719083) " cx="4.39098681" cy="16.7190831" rx="2.95836992" ry="3.06144642"></ellipse>
                    <ellipse id="Oval-Copy-19" fill="#152B41" transform="translate(18.585107, 2.650586) scale(-1, 1) rotate(129.000000) translate(-18.585107, -2.650586) " cx="18.585107" cy="2.65058634" rx="1.83623" ry="1.83686748"></ellipse>
                    <ellipse id="Oval-Copy-21" fill="#152B41" transform="translate(18.585107, 30.991471) scale(-1, 1) rotate(129.000000) translate(-18.585107, -30.991471) " cx="18.585107" cy="30.9914711" rx="1.83623" ry="1.83686748"></ellipse>
                    <ellipse id="Oval-Copy-22" fill="#152B41" transform="translate(31.043256, 28.136993) scale(-1, 1) rotate(129.000000) translate(-31.043256, -28.136993) " cx="31.0432556" cy="28.1369935" rx="1.83623" ry="1.83686748"></ellipse>
                    <ellipse id="Oval-Copy-23" fill="#152B41" transform="translate(8.373510, 5.505064) scale(-1, 1) rotate(129.000000) translate(-8.373510, -5.505064) " cx="8.37350973" cy="5.50506394" rx="1.83623" ry="1.83686748"></ellipse>
                </g>
                <g id="Group_12" opacity="0.681400668" transform="translate(159.337585, 115.033444) rotate(840.000000) translate(-159.337585, -115.033444) translate(140.337585, 98.033444)">
                    <ellipse id="Oval-Copy-17" fill="#003872" transform="translate(18.585107, 16.719083) scale(-1, 1) rotate(129.000000) translate(-18.585107, -16.719083) " cx="18.585107" cy="16.7190831" rx="4.89662171" ry="4.89832169"></ellipse>
                    <ellipse id="Oval-Copy-18" fill="#003872" transform="translate(32.779227, 16.719083) scale(-1, 1) rotate(129.000000) translate(-32.779227, -16.719083) " cx="32.7792271" cy="16.7190831" rx="2.95837533" ry="3.06145133"></ellipse>
                    <ellipse id="Oval-Copy-20" fill="#003872" transform="translate(4.390987, 16.719083) scale(-1, 1) rotate(129.000000) translate(-4.390987, -16.719083) " cx="4.39098681" cy="16.7190831" rx="2.95837533" ry="3.06145133"></ellipse>
                    <ellipse id="Oval-Copy-19" fill="#152B41" transform="translate(18.585107, 2.650586) scale(-1, 1) rotate(129.000000) translate(-18.585107, -2.650586) " cx="18.585107" cy="2.65058634" rx="1.83623314" ry="1.83687063"></ellipse>
                    <ellipse id="Oval-Copy-21" fill="#152B41" transform="translate(18.585107, 30.991471) scale(-1, 1) rotate(129.000000) translate(-18.585107, -30.991471) " cx="18.585107" cy="30.9914711" rx="1.83623314" ry="1.83687063"></ellipse>
                    <ellipse id="Oval-Copy-22" fill="#152B41" transform="translate(31.043256, 28.136993) scale(-1, 1) rotate(129.000000) translate(-31.043256, -28.136993) " cx="31.0432556" cy="28.1369935" rx="1.83623314" ry="1.83687063"></ellipse>
                    <ellipse id="Oval-Copy-23" fill="#152B41" transform="translate(8.373510, 5.505064) scale(-1, 1) rotate(129.000000) translate(-8.373510, -5.505064) " cx="8.37350973" cy="5.50506394" rx="1.83623314" ry="1.83687063"></ellipse>
                </g>
                <g id="Group_11" opacity="0.589338707" transform="translate(115.240553, 115.191815) rotate(768.000000) translate(-115.240553, -115.191815) translate(96.240553, 98.191815)">
                    <ellipse id="Oval-Copy-17" fill="#E66938" transform="translate(18.585107, 16.719083) scale(-1, 1) rotate(129.000000) translate(-18.585107, -16.719083) " cx="18.585107" cy="16.7190831" rx="4.89661333" ry="4.89831329"></ellipse>
                    <ellipse id="Oval-Copy-18" fill="#003872" transform="translate(32.779227, 16.719083) scale(-1, 1) rotate(129.000000) translate(-32.779227, -16.719083) " cx="32.7792271" cy="16.7190831" rx="2.95836992" ry="3.06144642"></ellipse>
                    <ellipse id="Oval-Copy-20" fill="#003872" transform="translate(4.390987, 16.719083) scale(-1, 1) rotate(129.000000) translate(-4.390987, -16.719083) " cx="4.39098681" cy="16.7190831" rx="2.95836992" ry="3.06144642"></ellipse>
                    <ellipse id="Oval-Copy-19" fill="#152B41" transform="translate(18.585107, 2.650586) scale(-1, 1) rotate(129.000000) translate(-18.585107, -2.650586) " cx="18.585107" cy="2.65058634" rx="1.83623" ry="1.83686748"></ellipse>
                    <ellipse id="Oval-Copy-21" fill="#152B41" transform="translate(18.585107, 30.991471) scale(-1, 1) rotate(129.000000) translate(-18.585107, -30.991471) " cx="18.585107" cy="30.9914711" rx="1.83623" ry="1.83686748"></ellipse>
                    <ellipse id="Oval-Copy-22" fill="#152B41" transform="translate(31.043256, 28.136993) scale(-1, 1) rotate(129.000000) translate(-31.043256, -28.136993) " cx="31.0432556" cy="28.1369935" rx="1.83623" ry="1.83686748"></ellipse>
                    <ellipse id="Oval-Copy-23" fill="#152B41" transform="translate(8.373510, 5.505064) scale(-1, 1) rotate(129.000000) translate(-8.373510, -5.505064) " cx="8.37350973" cy="5.50506394" rx="1.83623" ry="1.83686748"></ellipse>
                </g>
                <g id="Group_10" opacity="0.687573399" transform="translate(70.945067, 114.759532) rotate(696.000000) translate(-70.945067, -114.759532) translate(51.945067, 97.759532)">
                    <ellipse id="Oval-Copy-17" fill="#003872" transform="translate(18.585107, 16.719083) scale(-1, 1) rotate(129.000000) translate(-18.585107, -16.719083) " cx="18.585107" cy="16.7190831" rx="4.89661333" ry="4.89831329"></ellipse>
                    <ellipse id="Oval-Copy-18" fill="#003872" transform="translate(32.779227, 16.719083) scale(-1, 1) rotate(129.000000) translate(-32.779227, -16.719083) " cx="32.7792271" cy="16.7190831" rx="2.95836992" ry="3.06144642"></ellipse>
                    <ellipse id="Oval-Copy-20" fill="#003872" transform="translate(4.390987, 16.719083) scale(-1, 1) rotate(129.000000) translate(-4.390987, -16.719083) " cx="4.39098681" cy="16.7190831" rx="2.95836992" ry="3.06144642"></ellipse>
                    <ellipse id="Oval-Copy-19" fill="#152B41" transform="translate(18.585107, 2.650586) scale(-1, 1) rotate(129.000000) translate(-18.585107, -2.650586) " cx="18.585107" cy="2.65058634" rx="1.83623" ry="1.83686748"></ellipse>
                    <ellipse id="Oval-Copy-21" fill="#152B41" transform="translate(18.585107, 30.991471) scale(-1, 1) rotate(129.000000) translate(-18.585107, -30.991471) " cx="18.585107" cy="30.9914711" rx="1.83623" ry="1.83686748"></ellipse>
                    <ellipse id="Oval-Copy-22" fill="#152B41" transform="translate(31.043256, 28.136993) scale(-1, 1) rotate(129.000000) translate(-31.043256, -28.136993) " cx="31.0432556" cy="28.1369935" rx="1.83623" ry="1.83686748"></ellipse>
                    <ellipse id="Oval-Copy-23" fill="#152B41" transform="translate(8.373510, 5.505064) scale(-1, 1) rotate(129.000000) translate(-8.373510, -5.505064) " cx="8.37350973" cy="5.50506394" rx="1.83623" ry="1.83686748"></ellipse>
                </g>
                <g id="Group_9" opacity="0.963720604" transform="translate(26.024418, 114.333996) rotate(624.000000) translate(-26.024418, -114.333996) translate(7.024418, 97.333996)">
                    <ellipse id="Oval-Copy-17" fill="#5DB285" transform="translate(18.585107, 16.719083) scale(-1, 1) rotate(129.000000) translate(-18.585107, -16.719083) " cx="18.585107" cy="16.7190831" rx="4.89662171" ry="4.89832169"></ellipse>
                    <ellipse id="Oval-Copy-18" fill="#003872" transform="translate(32.779227, 16.719083) scale(-1, 1) rotate(129.000000) translate(-32.779227, -16.719083) " cx="32.7792271" cy="16.7190831" rx="2.95837533" ry="3.06145133"></ellipse>
                    <ellipse id="Oval-Copy-20" fill="#003872" transform="translate(4.390987, 16.719083) scale(-1, 1) rotate(129.000000) translate(-4.390987, -16.719083) " cx="4.39098681" cy="16.7190831" rx="2.95837533" ry="3.06145133"></ellipse>
                    <ellipse id="Oval-Copy-19" fill="#152B41" transform="translate(18.585107, 2.650586) scale(-1, 1) rotate(129.000000) translate(-18.585107, -2.650586) " cx="18.585107" cy="2.65058634" rx="1.83623314" ry="1.83687063"></ellipse>
                    <ellipse id="Oval-Copy-21" fill="#152B41" transform="translate(18.585107, 30.991471) scale(-1, 1) rotate(129.000000) translate(-18.585107, -30.991471) " cx="18.585107" cy="30.9914711" rx="1.83623314" ry="1.83687063"></ellipse>
                    <ellipse id="Oval-Copy-22" fill="#152B41" transform="translate(31.043256, 28.136993) scale(-1, 1) rotate(129.000000) translate(-31.043256, -28.136993) " cx="31.0432556" cy="28.1369935" rx="1.83623314" ry="1.83687063"></ellipse>
                    <ellipse id="Oval-Copy-23" fill="#152B41" transform="translate(8.373510, 5.505064) scale(-1, 1) rotate(129.000000) translate(-8.373510, -5.505064) " cx="8.37350973" cy="5.50506394" rx="1.83623314" ry="1.83687063"></ellipse>
                </g>
                <g id="Group_8" opacity="0.92416902" transform="translate(159.332875, 70.140130) rotate(552.000000) translate(-159.332875, -70.140130) translate(140.332875, 53.140130)">
                    <ellipse id="Oval-Copy-17" fill="#E35C27" transform="translate(18.585107, 16.719083) scale(-1, 1) rotate(129.000000) translate(-18.585107, -16.719083) " cx="18.585107" cy="16.7190831" rx="4.89662171" ry="4.89832169"></ellipse>
                    <ellipse id="Oval-Copy-18" fill="#003872" transform="translate(32.779227, 16.719083) scale(-1, 1) rotate(129.000000) translate(-32.779227, -16.719083) " cx="32.7792271" cy="16.7190831" rx="2.95837533" ry="3.06145133"></ellipse>
                    <ellipse id="Oval-Copy-20" fill="#003872" transform="translate(4.390987, 16.719083) scale(-1, 1) rotate(129.000000) translate(-4.390987, -16.719083) " cx="4.39098681" cy="16.7190831" rx="2.95837533" ry="3.06145133"></ellipse>
                    <ellipse id="Oval-Copy-19" fill="#152B41" transform="translate(18.585107, 2.650586) scale(-1, 1) rotate(129.000000) translate(-18.585107, -2.650586) " cx="18.585107" cy="2.65058634" rx="1.83623314" ry="1.83687063"></ellipse>
                    <ellipse id="Oval-Copy-21" fill="#152B41" transform="translate(18.585107, 30.991471) scale(-1, 1) rotate(129.000000) translate(-18.585107, -30.991471) " cx="18.585107" cy="30.9914711" rx="1.83623314" ry="1.83687063"></ellipse>
                    <ellipse id="Oval-Copy-22" fill="#152B41" transform="translate(31.043256, 28.136993) scale(-1, 1) rotate(129.000000) translate(-31.043256, -28.136993) " cx="31.0432556" cy="28.1369935" rx="1.83623314" ry="1.83687063"></ellipse>
                    <ellipse id="Oval-Copy-23" fill="#152B41" transform="translate(8.373510, 5.505064) scale(-1, 1) rotate(129.000000) translate(-8.373510, -5.505064) " cx="8.37350973" cy="5.50506394" rx="1.83623314" ry="1.83687063"></ellipse>
                </g>
                <g id="Group_7" opacity="0.493254599" transform="translate(114.733329, 70.670292) rotate(480.000000) translate(-114.733329, -70.670292) translate(95.733329, 53.670292)">
                    <ellipse id="Oval-Copy-17" fill="#003872" transform="translate(18.585107, 16.719083) scale(-1, 1) rotate(129.000000) translate(-18.585107, -16.719083) " cx="18.585107" cy="16.7190831" rx="4.89662171" ry="4.89832169"></ellipse>
                    <ellipse id="Oval-Copy-18" fill="#003872" transform="translate(32.779227, 16.719083) scale(-1, 1) rotate(129.000000) translate(-32.779227, -16.719083) " cx="32.7792271" cy="16.7190831" rx="2.95837533" ry="3.06145133"></ellipse>
                    <ellipse id="Oval-Copy-20" fill="#003872" transform="translate(4.390987, 16.719083) scale(-1, 1) rotate(129.000000) translate(-4.390987, -16.719083) " cx="4.39098681" cy="16.7190831" rx="2.95837533" ry="3.06145133"></ellipse>
                    <ellipse id="Oval-Copy-19" fill="#152B41" transform="translate(18.585107, 2.650586) scale(-1, 1) rotate(129.000000) translate(-18.585107, -2.650586) " cx="18.585107" cy="2.65058634" rx="1.83623314" ry="1.83687063"></ellipse>
                    <ellipse id="Oval-Copy-21" fill="#152B41" transform="translate(18.585107, 30.991471) scale(-1, 1) rotate(129.000000) translate(-18.585107, -30.991471) " cx="18.585107" cy="30.9914711" rx="1.83623314" ry="1.83687063"></ellipse>
                    <ellipse id="Oval-Copy-22" fill="#152B41" transform="translate(31.043256, 28.136993) scale(-1, 1) rotate(129.000000) translate(-31.043256, -28.136993) " cx="31.0432556" cy="28.1369935" rx="1.83623314" ry="1.83687063"></ellipse>
                    <ellipse id="Oval-Copy-23" fill="#152B41" transform="translate(8.373510, 5.505064) scale(-1, 1) rotate(129.000000) translate(-8.373510, -5.505064) " cx="8.37350973" cy="5.50506394" rx="1.83623314" ry="1.83687063"></ellipse>
                </g>
                <g id="Group_6" opacity="0.4167942" transform="translate(70.636296, 70.828663) rotate(408.000000) translate(-70.636296, -70.828663) translate(51.636296, 53.828663)">
                    <ellipse id="Oval-Copy-17" fill="#63B58A" transform="translate(18.585107, 16.719083) scale(-1, 1) rotate(129.000000) translate(-18.585107, -16.719083) " cx="18.585107" cy="16.7190831" rx="4.89661333" ry="4.89831329"></ellipse>
                    <ellipse id="Oval-Copy-18" fill="#003872" transform="translate(32.779227, 16.719083) scale(-1, 1) rotate(129.000000) translate(-32.779227, -16.719083) " cx="32.7792271" cy="16.7190831" rx="2.95836992" ry="3.06144642"></ellipse>
                    <ellipse id="Oval-Copy-20" fill="#003872" transform="translate(4.390987, 16.719083) scale(-1, 1) rotate(129.000000) translate(-4.390987, -16.719083) " cx="4.39098681" cy="16.7190831" rx="2.95836992" ry="3.06144642"></ellipse>
                    <ellipse id="Oval-Copy-19" fill="#152B41" transform="translate(18.585107, 2.650586) scale(-1, 1) rotate(129.000000) translate(-18.585107, -2.650586) " cx="18.585107" cy="2.65058634" rx="1.83623" ry="1.83686748"></ellipse>
                    <ellipse id="Oval-Copy-21" fill="#152B41" transform="translate(18.585107, 30.991471) scale(-1, 1) rotate(129.000000) translate(-18.585107, -30.991471) " cx="18.585107" cy="30.9914711" rx="1.83623" ry="1.83686748"></ellipse>
                    <ellipse id="Oval-Copy-22" fill="#152B41" transform="translate(31.043256, 28.136993) scale(-1, 1) rotate(129.000000) translate(-31.043256, -28.136993) " cx="31.0432556" cy="28.1369935" rx="1.83623" ry="1.83686748"></ellipse>
                    <ellipse id="Oval-Copy-23" fill="#152B41" transform="translate(8.373510, 5.505064) scale(-1, 1) rotate(129.000000) translate(-8.373510, -5.505064) " cx="8.37350973" cy="5.50506394" rx="1.83623" ry="1.83686748"></ellipse>
                </g>
                <g id="Group_5" opacity="0.13751" transform="translate(26.340810, 70.396380) rotate(336.000000) translate(-26.340810, -70.396380) translate(7.340810, 53.396380)">
                    <ellipse id="Oval-Copy-17" fill="#003872" transform="translate(18.585107, 16.719083) scale(-1, 1) rotate(129.000000) translate(-18.585107, -16.719083) " cx="18.585107" cy="16.7190831" rx="4.89661333" ry="4.89831329"></ellipse>
                    <ellipse id="Oval-Copy-18" fill="#003872" transform="translate(32.779227, 16.719083) scale(-1, 1) rotate(129.000000) translate(-32.779227, -16.719083) " cx="32.7792271" cy="16.7190831" rx="2.95836992" ry="3.06144642"></ellipse>
                    <ellipse id="Oval-Copy-20" fill="#003872" transform="translate(4.390987, 16.719083) scale(-1, 1) rotate(129.000000) translate(-4.390987, -16.719083) " cx="4.39098681" cy="16.7190831" rx="2.95836992" ry="3.06144642"></ellipse>
                    <ellipse id="Oval-Copy-19" fill="#152B41" transform="translate(18.585107, 2.650586) scale(-1, 1) rotate(129.000000) translate(-18.585107, -2.650586) " cx="18.585107" cy="2.65058634" rx="1.83623" ry="1.83686748"></ellipse>
                    <ellipse id="Oval-Copy-21" fill="#152B41" transform="translate(18.585107, 30.991471) scale(-1, 1) rotate(129.000000) translate(-18.585107, -30.991471) " cx="18.585107" cy="30.9914711" rx="1.83623" ry="1.83686748"></ellipse>
                    <ellipse id="Oval-Copy-22" fill="#152B41" transform="translate(31.043256, 28.136993) scale(-1, 1) rotate(129.000000) translate(-31.043256, -28.136993) " cx="31.0432556" cy="28.1369935" rx="1.83623" ry="1.83686748"></ellipse>
                    <ellipse id="Oval-Copy-23" fill="#152B41" transform="translate(8.373510, 5.505064) scale(-1, 1) rotate(129.000000) translate(-8.373510, -5.505064) " cx="8.37350973" cy="5.50506394" rx="1.83623" ry="1.83686748"></ellipse>
                </g>
                <g id="Group_4" opacity="0.299083854" transform="translate(159.837188, 25.607690) rotate(264.000000) translate(-159.837188, -25.607690) translate(140.837188, 8.607690)">
                    <ellipse id="Oval-Copy-17" fill="#003872" transform="translate(18.585107, 16.719083) scale(-1, 1) rotate(129.000000) translate(-18.585107, -16.719083) " cx="18.585107" cy="16.7190831" rx="4.89661333" ry="4.89831329"></ellipse>
                    <ellipse id="Oval-Copy-18" fill="#003872" transform="translate(32.779227, 16.719083) scale(-1, 1) rotate(129.000000) translate(-32.779227, -16.719083) " cx="32.7792271" cy="16.7190831" rx="2.95836992" ry="3.06144642"></ellipse>
                    <ellipse id="Oval-Copy-20" fill="#003872" transform="translate(4.390987, 16.719083) scale(-1, 1) rotate(129.000000) translate(-4.390987, -16.719083) " cx="4.39098681" cy="16.7190831" rx="2.95836992" ry="3.06144642"></ellipse>
                    <ellipse id="Oval-Copy-19" fill="#152B41" transform="translate(18.585107, 2.650586) scale(-1, 1) rotate(129.000000) translate(-18.585107, -2.650586) " cx="18.585107" cy="2.65058634" rx="1.83623" ry="1.83686748"></ellipse>
                    <ellipse id="Oval-Copy-21" fill="#152B41" transform="translate(18.585107, 30.991471) scale(-1, 1) rotate(129.000000) translate(-18.585107, -30.991471) " cx="18.585107" cy="30.9914711" rx="1.83623" ry="1.83686748"></ellipse>
                    <ellipse id="Oval-Copy-22" fill="#152B41" transform="translate(31.043256, 28.136993) scale(-1, 1) rotate(129.000000) translate(-31.043256, -28.136993) " cx="31.0432556" cy="28.1369935" rx="1.83623" ry="1.83686748"></ellipse>
                    <ellipse id="Oval-Copy-23" fill="#152B41" transform="translate(8.373510, 5.505064) scale(-1, 1) rotate(129.000000) translate(-8.373510, -5.505064) " cx="8.37350973" cy="5.50506394" rx="1.83623" ry="1.83686748"></ellipse>
                </g>
                <g id="Group_3" opacity="0.73000924" transform="translate(114.728618, 25.776977) rotate(192.000000) translate(-114.728618, -25.776977) translate(95.728618, 8.776977)">
                    <ellipse id="Oval-Copy-17" fill="#5DB285" transform="translate(18.585107, 16.719083) scale(-1, 1) rotate(129.000000) translate(-18.585107, -16.719083) " cx="18.585107" cy="16.7190831" rx="4.89662171" ry="4.89832169"></ellipse>
                    <ellipse id="Oval-Copy-18" fill="#003872" transform="translate(32.779227, 16.719083) scale(-1, 1) rotate(129.000000) translate(-32.779227, -16.719083) " cx="32.7792271" cy="16.7190831" rx="2.95837533" ry="3.06145133"></ellipse>
                    <ellipse id="Oval-Copy-20" fill="#003872" transform="translate(4.390987, 16.719083) scale(-1, 1) rotate(129.000000) translate(-4.390987, -16.719083) " cx="4.39098681" cy="16.7190831" rx="2.95837533" ry="3.06145133"></ellipse>
                    <ellipse id="Oval-Copy-19" fill="#152B41" transform="translate(18.585107, 2.650586) scale(-1, 1) rotate(129.000000) translate(-18.585107, -2.650586) " cx="18.585107" cy="2.65058634" rx="1.83623314" ry="1.83687063"></ellipse>
                    <ellipse id="Oval-Copy-21" fill="#152B41" transform="translate(18.585107, 30.991471) scale(-1, 1) rotate(129.000000) translate(-18.585107, -30.991471) " cx="18.585107" cy="30.9914711" rx="1.83623314" ry="1.83687063"></ellipse>
                    <ellipse id="Oval-Copy-22" fill="#152B41" transform="translate(31.043256, 28.136993) scale(-1, 1) rotate(129.000000) translate(-31.043256, -28.136993) " cx="31.0432556" cy="28.1369935" rx="1.83623314" ry="1.83687063"></ellipse>
                    <ellipse id="Oval-Copy-23" fill="#152B41" transform="translate(8.373510, 5.505064) scale(-1, 1) rotate(129.000000) translate(-8.373510, -5.505064) " cx="8.37350973" cy="5.50506394" rx="1.83623314" ry="1.83687063"></ellipse>
                </g>
                <g id="Group_2" opacity="0.80072172" transform="translate(70.129072, 26.307139) rotate(120.000000) translate(-70.129072, -26.307139) translate(51.129072, 9.307139)">
                    <ellipse id="Oval-Copy-17" fill="#003872" transform="translate(18.585107, 16.719083) scale(-1, 1) rotate(129.000000) translate(-18.585107, -16.719083) " cx="18.585107" cy="16.7190831" rx="4.89661333" ry="4.89831329"></ellipse>
                    <ellipse id="Oval-Copy-18" fill="#003872" transform="translate(32.779227, 16.719083) scale(-1, 1) rotate(129.000000) translate(-32.779227, -16.719083) " cx="32.7792271" cy="16.7190831" rx="2.95836992" ry="3.06144642"></ellipse>
                    <ellipse id="Oval-Copy-20" fill="#003872" transform="translate(4.390987, 16.719083) scale(-1, 1) rotate(129.000000) translate(-4.390987, -16.719083) " cx="4.39098681" cy="16.7190831" rx="2.95836992" ry="3.06144642"></ellipse>
                    <ellipse id="Oval-Copy-19" fill="#152B41" transform="translate(18.585107, 2.650586) scale(-1, 1) rotate(129.000000) translate(-18.585107, -2.650586) " cx="18.585107" cy="2.65058634" rx="1.83623" ry="1.83686748"></ellipse>
                    <ellipse id="Oval-Copy-21" fill="#152B41" transform="translate(18.585107, 30.991471) scale(-1, 1) rotate(129.000000) translate(-18.585107, -30.991471) " cx="18.585107" cy="30.9914711" rx="1.83623" ry="1.83686748"></ellipse>
                    <ellipse id="Oval-Copy-22" fill="#152B41" transform="translate(31.043256, 28.136993) scale(-1, 1) rotate(129.000000) translate(-31.043256, -28.136993) " cx="31.0432556" cy="28.1369935" rx="1.83623" ry="1.83686748"></ellipse>
                    <ellipse id="Oval-Copy-23" fill="#152B41" transform="translate(8.373510, 5.505064) scale(-1, 1) rotate(129.000000) translate(-8.373510, -5.505064) " cx="8.37350973" cy="5.50506394" rx="1.83623" ry="1.83686748"></ellipse>
                </g>
                <g id="Group_1" opacity="0.875964085" transform="translate(26.032039, 26.465510) rotate(48.000000) translate(-26.032039, -26.465510) translate(7.032039, 9.465510)">
                    <ellipse id="Oval-Copy-17" fill="#E66938" transform="translate(18.585107, 16.719083) scale(-1, 1) rotate(129.000000) translate(-18.585107, -16.719083) " cx="18.585107" cy="16.7190831" rx="4.89661333" ry="4.89831329"></ellipse>
                    <ellipse id="Oval-Copy-18" fill="#003872" transform="translate(32.779227, 16.719083) scale(-1, 1) rotate(129.000000) translate(-32.779227, -16.719083) " cx="32.7792271" cy="16.7190831" rx="2.95836992" ry="3.06144642"></ellipse>
                    <ellipse id="Oval-Copy-20" fill="#003872" transform="translate(4.390987, 16.719083) scale(-1, 1) rotate(129.000000) translate(-4.390987, -16.719083) " cx="4.39098681" cy="16.7190831" rx="2.95836992" ry="3.06144642"></ellipse>
                    <ellipse id="Oval-Copy-19" fill="#152B41" transform="translate(18.585107, 2.650586) scale(-1, 1) rotate(129.000000) translate(-18.585107, -2.650586) " cx="18.585107" cy="2.65058634" rx="1.83623" ry="1.83686748"></ellipse>
                    <ellipse id="Oval-Copy-21" fill="#152B41" transform="translate(18.585107, 30.991471) scale(-1, 1) rotate(129.000000) translate(-18.585107, -30.991471) " cx="18.585107" cy="30.9914711" rx="1.83623" ry="1.83686748"></ellipse>
                    <ellipse id="Oval-Copy-22" fill="#152B41" transform="translate(31.043256, 28.136993) scale(-1, 1) rotate(129.000000) translate(-31.043256, -28.136993) " cx="31.0432556" cy="28.1369935" rx="1.83623" ry="1.83686748"></ellipse>
                    <ellipse id="Oval-Copy-23" fill="#152B41" transform="translate(8.373510, 5.505064) scale(-1, 1) rotate(129.000000) translate(-8.373510, -5.505064) " cx="8.37350973" cy="5.50506394" rx="1.83623" ry="1.83686748"></ellipse>
                </g>
            </g>
        </g>
    </g>
</svg>