<?xml version="1.0" encoding="UTF-8"?>
<svg width="20px" height="18px" viewBox="0 0 20 18" version="1.1" xmlns="http://www.w3.org/2000/svg" xmlns:xlink="http://www.w3.org/1999/xlink">
    <!-- Generator: sketchtool 63.1 (101010) - https://sketch.com -->
    <title>2E7F952D-E82B-4780-8DA3-06CA040194F0mdpi/</title>
    <desc>Created with sketchtool.</desc>
    <g id="Schooling-@-home" stroke="none" stroke-width="1" fill="none" fill-rule="evenodd">
        <g id="Menu" transform="translate(-18.000000, -155.000000)" fill="#024F9D" fill-rule="nonzero">
            <g transform="translate(16.000000, 152.000000)" id="Users-and-Groups">
                <g>
                    <g id="My-Class" transform="translate(2.000000, 3.000000)">
                        <path d="M2.50917914,1.96375167 C2.21331232,1.96375167 1.97346486,2.2090502 1.97346486,2.51164127 L1.97346486,15.4883587 C1.97346486,15.7909498 2.21331232,16.0362483 2.50917914,16.0362483 L17.4908209,16.0362483 C17.7866877,16.0362483 18.0265351,15.7909498 18.0265351,15.4883587 L18.0265351,2.51164127 C18.0265351,2.2090502 17.7866877,1.96375167 17.4908209,1.96375167 L2.50917914,1.96375167 Z M2.50917914,0.137452964 L17.4908209,0.137452964 C18.7729104,0.137452964 19.8122494,1.20041327 19.8122494,2.51164127 L19.8122494,15.4883587 C19.8122494,16.7995867 18.7729104,17.862547 17.4908209,17.862547 L2.50917914,17.862547 C1.22708955,17.862547 0.187750578,16.7995867 0.187750578,15.4883587 L0.187750578,2.51164127 C0.187750578,1.20041327 1.22708955,0.137452964 2.50917914,0.137452964 Z M11.9642857,14.8441559 L15.8928571,14.8441559 L15.8928571,15.7573052 L11.9642857,15.7573052 L11.9642857,14.8441559 Z M12.8569176,12.1960227 L7.14263192,12.1960227 L7.14263192,11.830763 C7.14263192,10.3178076 8.3418692,9.09131494 9.82120336,9.09131494 L10.1783462,9.09131494 C11.6576804,9.09131494 12.8569176,10.3178076 12.8569176,11.830763 L12.8569176,12.1960227 Z M9.99977478,8.7260552 C9.21079656,8.7260552 8.57120336,8.07192577 8.57120336,7.26501623 C8.57120336,6.4581067 9.21079656,5.80397727 9.99977478,5.80397727 C10.788753,5.80397727 11.4283462,6.4581067 11.4283462,7.26501623 C11.4283462,8.07192577 10.788753,8.7260552 9.99977478,8.7260552 Z M6.78548906,12.0133929 L3.86029752,12.0133929 L3.86029752,11.7351497 C3.86029752,10.5826286 4.77383814,9.64832568 5.90074764,9.64832568 L6.17280764,9.64832568 C6.61057304,9.64832568 7.01613992,9.78931704 7.34846314,10.0293218 C6.99401416,10.537309 6.78548906,11.1591307 6.78548906,11.830763 L6.78548906,12.0133929 Z M13.2140605,12.0133929 L13.2140605,11.830763 C13.2140605,11.1585176 13.0051545,10.5361737 12.6501153,10.0279308 C12.9823972,9.78877252 13.3876313,9.64832568 13.8249703,9.64832568 L14.0972918,9.64832568 C15.2252841,9.64832568 16.1397025,10.5826286 16.1397025,11.7351497 L16.1397025,12.0133929 L13.2140605,12.0133929 Z M6.03677764,9.37008248 C5.43575924,9.37008248 4.94853758,8.8717876 4.94853758,8.25710969 C4.94853758,7.6424318 5.43575924,7.1441369 6.03677764,7.1441369 C6.63779602,7.1441369 7.1250177,7.6424318 7.1250177,8.25710969 C7.1250177,8.8717876 6.63779602,9.37008248 6.03677764,9.37008248 Z M13.9611311,9.37008248 C13.3595352,9.37008248 12.8718453,8.8717876 12.8718453,8.25710969 C12.8718453,7.6424318 13.3595352,7.1441369 13.9611311,7.1441369 C14.5627269,7.1441369 15.0504168,7.6424318 15.0504168,8.25710969 C15.0504168,8.8717876 14.5627269,9.37008248 13.9611311,9.37008248 Z" id="Shape"></path>
                    </g>
                </g>
            </g>
        </g>
    </g>
</svg>