<?xml version="1.0" encoding="UTF-8"?>
<svg width="422px" height="229px" viewBox="0 0 422 229" version="1.1" xmlns="http://www.w3.org/2000/svg" xmlns:xlink="http://www.w3.org/1999/xlink">
    <title>99B4AAF3-8D2C-4D48-97CA-B9AEC20D2D2A@2x</title>
    <defs>
        <polygon id="path-1" points="0.323367071 0.129195122 54.2412735 0.129195122 54.2412735 52.2400999 0.323367071 52.2400999"></polygon>
    </defs>
    <g id="Page-3" stroke="none" stroke-width="1" fill="none" fill-rule="evenodd">
        <g id="Specific-Group_-Empty-state" transform="translate(-354.000000, -437.000000)">
            <g id="add-activity" transform="translate(354.000000, 438.000000)">
                <g id="Group-135" transform="translate(0.000000, 65.000000)">
                    <path d="M422,149 C422,156.731867 327.53175,163 211,163 C94.4682502,163 0,156.731867 0,149 C0,141.268133 94.4682502,135 211,135 C327.53175,135 422,141.268133 422,149" id="Fill-1" fill="#CBDAE5"></path>
                    <path d="M316.902495,44.5174262 C316.902495,44.5174262 323.452254,45.1241462 325.520734,50.3708655 C327.589214,55.6175849 335.970013,54.1929451 337.467613,55.5951849 C338.965852,56.9967847 343.102812,65.1631838 342.757852,69.5260632 C342.412892,73.8889427 343.102812,77.1395023 348.274011,77.0652623 C353.445211,76.9916624 362.75273,74.5827026 363.78697,82.6819017 C364.821209,90.7811007 361.71849,115.943978 351.721051,117.840937 C341.723612,119.739177 367.611609,125.595177 363.975769,134.043816 C360.33929,142.492455 320.005215,145.750694 320.005215,145.750694 L315.523295,48.3721458 L316.902495,44.5174262 Z" id="Fill-3" fill="#ABB4B7"></path>
                    <g id="Group-7" transform="translate(314.919967, 71.527983)">
                        <mask id="mask-2" fill="white">
                            <use xlink:href="#path-1"></use>
                        </mask>
                        <g id="Clip-6"></g>
                        <path d="M11.2399987,31.2762843 C11.2399987,31.2762843 16.571198,31.6314842 16.571198,21.5022054 C16.571198,11.3722866 18.7036778,8.17356703 20.4809576,8.52876698 C22.2582373,8.88460694 23.1465572,22.1882854 24.5679971,19.8900456 C25.9900769,17.5924459 28.7151966,2.30860772 33.1279961,2.84172766 C37.5414355,3.3748476 31.0255963,15.6372461 33.1279961,14.9262062 C35.2310358,14.2158063 44.2940747,-2.66675168 49.8038341,0.531967937 C55.3123134,3.73068756 44.4719947,15.9930861 45.7161546,21.3242855 C46.9603144,26.6554848 52.6467137,21.1463655 54.0687936,23.8119652 C55.4902334,26.4782048 47.8486343,33.586044 41.806395,35.7185237 C35.7641557,37.8510035 43.4057548,41.938683 45.7161546,42.6497229 C48.0265543,43.3607628 45.7161546,50.468602 39.8518352,48.6919622 C33.9868759,46.9153224 31.6649562,48.8308422 13.3724784,51.7134018 C-14.6876782,56.1338813 11.2399987,31.2762843 11.2399987,31.2762843" id="Fill-5" fill="#FFFFFF" mask="url(#mask-2)"></path>
                    </g>
                    <path d="M341.152476,113.349866 L356.283354,86.6682692 C356.283354,86.6682692 340.346716,123.162985 341.152476,113.349866" id="Fill-8" fill="#D5D9DB"></path>
                    <path d="M318.482463,117.884265 C318.482463,117.884265 330.296222,101.598187 337.763741,109.329387 C345.2319,117.060586 338.737821,115.610986 349.939739,118.670825 C361.141018,121.731945 356.758298,134.777703 349.128219,139.287783 C341.4975,143.797862 324.126622,147.562342 321.692063,147.451622 C319.256223,147.341542 318.482463,117.884265 318.482463,117.884265" id="Fill-10" fill="#C7D0D3"></path>
                    <path d="M53.6362225,69.2917593 C53.6362225,69.2917593 58.4426219,69.9221592 64.8170212,86.1237573 C71.1914204,102.324075 90.5290181,125.456233 120.812534,132.044392 C120.812534,132.044392 132.278773,112.626794 114.050295,102.062315 C95.8218175,91.4984766 92.9078978,101.250795 76.9610197,85.7551173 C61.0135016,70.2600792 63.7399013,69.6367192 53.6362225,69.2917593" id="Fill-12" fill="#C7D0D3"></path>
                    <path d="M74.754364,107.208619 C74.754364,107.208619 32.0017291,110.000938 45.3265275,135.559975 C58.6506859,161.118372 100.959801,146.792614 100.959801,146.792614 L74.754364,107.208619 Z" id="Fill-14" fill="#C7D0D3"></path>
                    <path d="M106.417208,145.061158 C106.417208,145.061158 92.0376899,149.599398 82.694331,149.472678 C73.3503321,149.345958 66.464573,149.073318 67.2402529,144.890278 C68.0159328,140.707239 82.1637711,139.940519 75.4322519,137.153319 C68.7007327,134.36612 42.4607358,137.381799 50.5560949,133.08036 C58.6520939,128.77892 71.8994523,128.17924 65.747133,126.8378 C59.5948138,125.497001 43.6076157,126.60548 43.8220157,120.973481 C44.0370556,115.341482 54.0165744,122.495401 54.0306544,116.590122 C54.0440944,110.684202 40.0133761,112.024362 41.055296,103.455403 C42.0972159,94.8870842 54.2194544,106.613163 59.0239339,105.719723 C63.8284133,104.826283 54.9656943,92.2515645 58.8639339,91.4925246 C62.7615334,90.7334847 78.7935315,110.120362 80.6373713,106.671403 C82.4812111,103.221803 79.2005714,88.9190849 83.118011,91.6077246 C87.0354505,94.2976443 88.7320903,118.455721 91.8738499,116.974122 C95.0156096,115.492522 99.578809,109.051563 101.655609,108.976043 C103.731769,108.900523 106.417208,145.061158 106.417208,145.061158" id="Fill-16" fill="#FFFFFF"></path>
                    <path d="M106.417208,145.061158 C129.280565,156.431397 58.5029739,112.942122 58.5029739,112.942122 C58.5029739,112.942122 101.786809,142.758439 106.417208,145.061158" id="Fill-18" fill="#D5D9DB"></path>
                    <path d="M102.010681,148.557414 C99.745721,148.557414 97.9095612,146.721254 97.9095612,144.455654 L97.9095612,7.34207066 C97.9095612,5.07711093 99.745721,3.24031115 102.010681,3.24031115 L319.528095,3.24031115 C321.793695,3.24031115 323.629854,5.07711093 323.629854,7.34207066 L323.629854,144.455654 C323.629854,146.721254 321.793695,148.557414 319.528095,148.557414 L102.010681,148.557414 Z" id="Fill-78" fill="#273DAD"></path>
                    <polygon id="Fill-80" fill="#F0F6FA" points="97.9094332 148.557094 323.629726 148.557094 323.629726 24.2620686 97.9094332 24.2620686"></polygon>
                    <path d="M109.378424,13.6661659 C109.378424,14.7266458 108.518904,15.5861657 107.458424,15.5861657 C106.397944,15.5861657 105.538424,14.7266458 105.538424,13.6661659 C105.538424,12.605686 106.397944,11.7461661 107.458424,11.7461661 C108.518904,11.7461661 109.378424,12.605686 109.378424,13.6661659" id="Fill-82" fill="#EA3D6A"></path>
                    <path d="M117.810295,13.6661659 C117.810295,14.7266458 116.950775,15.5861657 115.890295,15.5861657 C114.829815,15.5861657 113.970295,14.7266458 113.970295,13.6661659 C113.970295,12.605686 114.829815,11.7461661 115.890295,11.7461661 C116.950775,11.7461661 117.810295,12.605686 117.810295,13.6661659" id="Fill-83" fill="#FFC53C"></path>
                    <polygon id="Fill-84" fill="#FFFFFF" points="109.378232 136.928295 312.089248 136.928295 312.089248 34.4271874 109.378232 34.4271874"></polygon>
                    <path d="M301.53282,130 L119.46718,130 C117.552141,130 116,128.553263 116,126.769473 L116,48.2305266 C116,46.4456606 117.552141,45 119.46718,45 L301.53282,45 C303.447281,45 305,46.4456606 305,48.2305266 L305,126.769473 C305,128.553263 303.447281,130 301.53282,130 Z" id="Stroke-15" stroke="#9BB9D3" stroke-width="0.607999956" stroke-dasharray="4.863999649047855"></path>
                    <path d="M125.804982,13.6661659 C125.804982,14.7266458 124.945462,15.5861657 123.884982,15.5861657 C122.824502,15.5861657 121.964982,14.7266458 121.964982,13.6661659 C121.964982,12.605686 122.824502,11.7461661 123.884982,11.7461661 C124.945462,11.7461661 125.804982,12.605686 125.804982,13.6661659" id="Fill-85" fill="#ABFFA1"></path>
                    <path d="M199.919981,0.680503455 C199.900141,1.54002335 199.905901,2.39634325 199.933421,3.24050315" id="Stroke-96" stroke="#E6EBED" stroke-width="0.639999924"></path>
                    <path d="M253.045607,88.353645 L253.045607,88.417645 C253.026407,88.417645 253.006567,88.411245 252.987367,88.411245 C253.006567,88.385645 253.026407,88.366445 253.045607,88.353645" id="Fill-102" fill="#F7AA66"></path>
                </g>
                <g id="Group-12" transform="translate(41.000000, 73.000000)">
                    <path d="M37.5274196,138.865346 L37.5274196,142.611746 C37.5274196,142.611746 36.0794196,143.114146 31.7802199,146.409346 C30.8586199,147.115746 25.5690203,148.950145 25.2802203,148.518145 C24.9922203,148.086146 22.6466204,142.033346 26.2890202,142.178946 C32.9866198,142.446946 32.9170198,138.865346 32.9170198,138.865346 L37.5274196,138.865346 Z" id="Fill-26" fill="#2D2B37"></path>
                    <polygon id="Fill-27" fill="#F7AA66" points="32.7590198 134.321586 32.9166198 138.865586 37.5270196 138.865586 38.5758195 132.953586"></polygon>
                    <polygon id="Fill-28" fill="#F7AA66" points="57.6649384 135.198146 57.5073384 139.741346 52.8969386 139.741346 51.8481387 133.829346"></polygon>
                    <path d="M57.9582983,137.741906 L52.4478987,137.883506 C50.7518988,136.747506 46.849499,107.964308 46.849499,107.964308 C46.849499,107.964308 47.9766989,103.725108 42.6014992,95.6363086 C37.2246996,87.5571091 36.3710996,74.5075099 36.3710996,74.5075099 C36.9390996,81.8667095 36.6910996,96.5371086 36.6910996,96.5371086 L39.3806994,136.974706 L39.1182995,137.063506 C36.8678996,137.825906 34.4422997,137.907506 32.1462999,137.297106 C31.8662999,135.305106 23.9447004,97.1539085 23.9447004,97.1539085 C21.5847005,87.3291091 23.3943004,78.6115097 22.6423004,71.4035101 C22.4823004,69.9235102 22.3551005,68.5475103 22.2503005,67.2755103 C22.2503005,67.2755103 36.6582996,71.3475101 45.4030991,64.4195105 C45.7302991,65.8835104 46.098299,67.4835103 46.491099,69.1795102 C48.6742989,78.6267097 51.7870987,86.9555092 54.6350985,94.2195087 C59.7302982,107.226708 57.9582983,137.741906 57.9582983,137.741906" id="Fill-30" fill="#9ABFC3"></path>
                    <path d="M45.4027791,64.3950305 L45.4027791,64.4190305 C36.6587796,71.3470301 22.2507805,67.2758303 22.2507805,67.2758303 L22.0187805,63.8910305 C33.0667798,67.4510303 41.4827793,63.9790305 44.8907791,62.0910306 C45.0187805,62.0270306 45.1387791,61.9630306 45.2507791,61.8990306 L45.4027791,64.3950305 Z" id="Fill-31" fill="#2D2B37"></path>
                    <path d="M72.6266175,44.2458317 L72.3786175,45.3018316 L72.3226175,45.5418316 L71.3146175,49.7970314 L71.1226175,50.5970313 L70.9946176,51.1258313 L70.7786176,52.0458312 C70.7786176,52.0458312 60.8746182,49.4058314 59.4826182,48.4778314 C58.0986183,47.5578315 47.6746189,40.1258319 47.6746189,40.1258319 L45.2506191,61.9018306 C45.1386191,61.9650306 45.0186191,62.0290306 44.8906191,62.0938306 C41.4826193,63.9818305 33.0666198,67.4538303 22.0186205,63.8938305 L21.7786205,60.4538307 L21.7466205,59.8938308 L20.4746206,37.4458321 L20.4746206,31.3018325 C20.4746206,31.3018325 27.4906201,21.4378331 44.8906191,23.6290329 C48.3866189,24.0778329 57.1386184,38.581832 62.5706181,40.2458319 C68.0026177,41.9178318 72.6266175,44.2458317 72.6266175,44.2458317" id="Fill-32" fill="#DF5F4D"></path>
                    <path d="M91.5586163,29.0489526 L89.2706165,35.5129522 L85.7106167,45.5449516 L57.2786184,125.712947 L56.8626184,126.880947 L56.0946184,128.144947 L56.0866184,128.144947 L52.3986187,130.704947 L52.3986187,127.504947 L49.5506188,129.872947 L49.5506188,126.321747 L47.6786189,127.625747 L47.6786189,123.304947 L49.2546189,119.097747 L77.8306171,42.8089518 L81.8066169,32.1849524 L84.1666168,25.8809528 C85.3666167,22.672953 86.9666166,22.529753 90.0306164,24.1129529 C93.0946162,25.6977528 91.5586163,29.0489526 91.5586163,29.0489526" id="Fill-33" fill="#FF849E"></path>
                    <polygon id="Fill-34" fill="#FFA944" points="56.0867784 128.145027 47.270779 142.601026 45.0467791 141.353826 47.6787789 123.305027 47.6787789 127.625827 49.5507788 126.321827 49.5507788 129.873027 52.3987787 127.505027 52.3987787 130.705027"></polygon>
                    <path d="M89.2707765,35.5130322 L88.5747765,37.4730321 L88.2947765,38.2730321 L87.6147766,40.1850324 L87.3347766,40.9770319 L86.7907766,42.5050318 L86.5027766,43.3130318 L85.7107767,45.5450316 C84.2067768,44.4730317 81.7187769,43.2650318 77.8307771,42.8090318 L78.8227771,40.1538319 L79.1107771,39.385032 L79.678777,37.8578321 L79.974777,37.0810321 L80.766777,34.9690323 L81.054777,34.1850324 L81.8067769,32.1850324 C82.9507768,32.3050324 84.3267768,32.6898324 85.9507767,33.4970323 C87.3667766,34.2090323 88.4467765,34.8898323 89.2707765,35.5130322" id="Fill-35" fill="#E4DCEA"></path>
                    <polygon id="Fill-36" fill="#131116" points="47.270779 142.601346 44.1027792 147.801346 45.0467791 141.353346"></polygon>
                    <path d="M86.7906966,42.5051918 L86.5026966,43.3131918 C83.5186968,40.9371919 80.318697,40.3219919 78.8226971,40.1539919 L79.1106971,39.385192 C80.734697,39.577192 83.8146968,40.2331919 86.7906966,42.5051918" id="Fill-37" fill="#1C1C1C"></path>
                    <path d="M87.6145366,40.1848719 L87.3345366,40.9768719 C84.3505368,38.633672 81.1665369,38.0168721 79.678537,37.8576721 L79.974537,37.0808721 C81.5985369,37.2728721 84.6545367,37.9368721 87.6145366,40.1848719" id="Fill-38" fill="#1C1C1C"></path>
                    <path d="M88.5746965,37.4731921 L88.2946965,38.2731921 C85.4866967,35.9371922 82.4466969,35.2011922 80.766697,34.9691923 L81.054697,34.1851923 C82.8146969,34.4571923 85.766697,35.2171922 88.5746965,37.4731921" id="Fill-39" fill="#1C1C1C"></path>
                    <line x1="79.678537" y1="44.2997517" x2="50.5665388" y2="122.637347" id="Stroke-40" stroke="#1C1C1C" stroke-width="0.799999952"></line>
                    <line x1="83.5504568" y1="45.5450316" x2="54.0720586" y2="124.351427" id="Stroke-41" stroke="#1C1C1C" stroke-width="0.799999952"></line>
                    <polygon id="Fill-43" fill="#F7AA66" points="76.2426172 47.0536715 74.1466174 52.6456712 72.1066175 51.2704713 73.2906174 45.9176716"></polygon>
                    <path d="M84.6703767,48.4779114 C84.6703767,48.4779114 82.5199769,48.3011115 81.7431769,50.3771113 C80.966377,52.4531112 80.993577,55.759511 82.1047769,55.710711 C82.1047769,55.710711 85.7927767,55.462711 84.6703767,48.4779114" id="Fill-44" fill="#F7AA66"></path>
                    <path d="M23.1946204,69.9974302 C23.1626208,70.7022301 22.9306204,70.9574301 22.5946204,70.9494301 C21.5946205,70.9254301 19.6906206,68.4614303 19.6906206,68.4614303 L16.1626208,66.3494304 L18.2426207,61.9022306 L20.4746206,64.4214305 C20.4746206,64.4214305 21.6426205,62.3342306 21.8746205,62.2854306 C21.8906205,62.2854306 21.8986205,62.2854306 21.9066205,62.3022306 L21.9066205,62.3102306 C21.9146205,62.3174306 21.9146205,62.3254306 21.9146205,62.3342306 C21.9546205,62.9174306 22.0106205,63.4462306 22.0746205,63.9102305 C22.2906205,65.5894304 22.6026204,66.5814304 22.8506204,67.4294303 C23.0826204,68.2462303 23.2426204,68.9342302 23.1946204,69.9974302" id="Fill-49" fill="#F7AA66"></path>
                    <path d="M52.8965386,139.741186 L52.8965386,143.487586 C52.8965386,143.487586 54.3445385,143.990786 58.6437383,147.285186 C59.5653382,147.991586 64.8549379,149.826785 65.1437379,149.394785 C65.4309379,148.961985 67.7773377,142.909986 64.134938,143.055586 C57.4373384,143.323586 57.5069384,139.741186 57.5069384,139.741186 L52.8965386,139.741186 Z" id="Fill-51" fill="#2D2B37"></path>
                    <path d="M39.3785394,23.6458329 L21.1065405,37.0778321 C21.1065405,37.0778321 20.8825405,37.3258321 20.4905406,37.7418321 C18.2985407,40.1418319 10.8585411,48.2458315 10.3865412,48.4458314 C9.8425412,48.6858314 19.1225406,60.6458307 19.1225406,60.6458307 L18.2425407,61.9018306 L18.2265407,61.9178306 L15.4185409,65.9018304 L15.2265409,66.1738304 L14.6585409,66.9738303 C14.6585409,66.9738303 4.04254155,53.7498311 0.450541761,49.1418314 C-3.14145803,44.5418317 15.8745408,25.3578328 17.5145407,24.4218329 C18.1785407,24.0458329 21.8745405,23.8458329 26.0505402,23.7418329 C29.0665401,23.6698329 32.3305399,23.6458329 34.8745397,23.6458329 C35.0105397,23.6378329 35.1465397,23.6378329 35.2745397,23.6378329 L35.2985397,23.6378329 C37.7065395,23.6290329 39.3785394,23.6458329 39.3785394,23.6458329" id="Fill-52" fill="#DF5F4D"></path>
                    <polygon id="Fill-53" fill="#D18146" points="73.2906974 45.9177516 72.1066975 51.2697513 71.1226975 50.5977513 71.3146975 49.7977514 72.3226975 45.5417516"></polygon>
                    <polygon id="Fill-54" fill="#A44133" points="20.5235006 38.3036721 20.3811006 33.3996723 18.5459007 39.867672"></polygon>
                    <polygon id="Fill-55" fill="#C9804B" points="18.2426207 61.9020706 16.1626208 66.3500704 15.4186209 65.9020704 18.2266207 61.9180706"></polygon>
                    <path d="M37.7076928,19.2079204 L37.7076928,23.2423754 C37.7076928,23.2423754 39.6430022,23.3100248 39.7063576,23.8522006 C39.7063576,23.8522006 40.9358484,28.8004131 34.1716695,27.887636 C27.4065007,26.9738785 28.9438591,24.08064 28.9438591,24.08064 C28.9438591,24.08064 30.404993,24.3090794 30.6346563,21.4923141 C30.8653095,18.6745684 31.2503916,17 31.2503916,17 L37.7076928,19.2079204 Z" id="Fill-45" fill="#F7AA66"></path>
                    <path d="M43.7098844,7 C43.7098844,7 44.4653285,16.6383508 41.441605,18.682422 C38.4178815,20.7274335 33.4286403,20.7838476 31.0844271,16.0093334 L30.5558109,14.0827916 C30.5558109,14.0827916 28.9748299,14.5933393 28.8210153,12.549268 C28.6652536,10.5051967 29.1948433,10.5051967 29.9512609,10.6509332 C30.706705,10.7966696 30.706705,11.8196455 30.706705,11.8196455 L31.5390565,11.9653819 C31.5390565,11.9653819 31.1603609,10.1403855 31.5390565,9.92037045 C31.9167786,9.70223589 32.2945006,9.19074795 32.4453947,7 L43.7098844,7 Z" id="Fill-46" fill="#F7AA66"></path>
                    <path d="M45.5443818,4.07028515 C45.5443818,4.07028515 47.5260484,5.45514435 46.4978876,6.30271386 C45.4706717,7.14830076 43.7829003,10.6139183 32.7018213,7.76489519 L33.0684816,10.4592741 C33.0684816,10.4592741 31.5725454,11.1868952 31.8220256,13 L31.01405,12.846347 C31.01405,12.846347 30.5708446,11.6072103 29.9121791,11.5586362 C29.2525685,11.510062 28.656273,12.339788 28.8216482,8.53514258 C28.9879683,4.72950589 28.8887432,4.52232223 30.1144092,4.07028515 C30.1144092,4.07028515 31.5725454,-0.103127317 38.433251,0.00195147655 C45.2939566,0.106038961 45.5443818,4.07028515 45.5443818,4.07028515" id="Fill-47" fill="#2D3E50"></path>
                    <path d="M31.2680739,12 C31.2680739,12 33.4576853,16.0972834 35.2734606,16.719126 C37.088299,17.3409687 36.7013459,15.1724202 39.0624159,15.2477105 C41.424423,15.3230009 41.2548382,16.1827983 41.2548382,16.1827983 L42.8457497,13.5169615 L43.7873669,16.8315968 C43.7873669,16.8315968 44.1715093,20.5896088 38.9799659,21.7440611 C33.7884225,22.899443 30.3948527,19.9956514 30.8314633,15.9978257 L31.2680739,12 Z" id="Fill-50" fill="#2D3E50"></path>
                </g>
                <g id="Group-15" transform="translate(341.000000, 73.000000)">
                    <path d="M1.30559984,10.3449598 L-8.8107294e-14,12.3039995 L7.83487907,16.2214391 C7.83487907,16.2214391 8.27007901,19.9206386 12.0787186,18.7238388 L23.7215972,26.0140779 L42.9823949,10.3449598 L38.1945554,6.97152018 L1.30559984,10.3449598 Z" id="Fill-56" fill="#273DAD"></path>
                    <path d="M2.16556774,11.6099836 L0.979007883,8.38630401 L14.7722862,8.38630401 L40.2020432,8.38630401 L40.2020432,10.8970237 C40.2020432,10.8970237 31.0762843,15.4410232 24.840125,24.0387821 C24.840125,24.0387821 16.954686,14.8618232 10.6737267,17.5351029 C10.6737267,17.5351029 7.37772712,10.9859837 2.16556774,11.6099836" id="Fill-57" fill="#C3D2E4"></path>
                    <path d="M0.979327883,8.38624001 C0.979327883,8.38624001 8.70540696,8.38624001 10.9902067,16.493119 C10.9902067,16.493119 18.3898858,14.6972793 24.2657251,19.8121586 L40.2023632,8.38624001 C40.2023632,8.38624001 33.406204,0.878400902 23.7217252,4.46880047 C23.7217252,4.46880047 22.4161253,-0.210238968 15.9956461,0.00736100601 L0.979327883,8.38624001 Z" id="Fill-58" fill="#FFFFFF"></path>
                </g>
                <g id="Group-19" transform="translate(181.000000, 0.000000)">
                    <path d="M19.4568956,39.5598074 C19.4568956,39.5598074 19.7448956,36.5262075 18.3058556,34.8241275 C16.8658557,33.1230075 10.3570558,30.2602876 8.92665582,22.9729277 C7.49625585,15.6846079 11.0242558,10.038848 17.8008956,8.84748802 C24.5775355,7.65516804 31.0546554,11.323328 32.2786554,17.2945279 C33.5026553,23.2647677 29.2239354,28.6369276 28.3685754,32.1495676 C28.0085754,33.6308475 28.6229754,35.6247675 29.4552954,37.4353275 C30.5967354,39.9198074 19.4568956,39.5598074 19.4568956,39.5598074" id="Fill-59" fill="#FFD500"></path>
                    <line x1="9.22127982" y1="2.37478415" x2="11.7969598" y2="6.80614406" id="Stroke-60" stroke="#170F4C" stroke-width="0.959999981"></line>
                    <path d="M17.9591996,38.5567034 C17.9591996,38.5567034 24.4996795,40.6130234 28.6622394,36.6376635 C32.8238393,32.6613435 33.7867193,37.5573434 31.6545594,39.1010234 C31.6545594,39.1010234 33.6379193,39.7586234 32.1460794,42.0587834 C32.1460794,42.0587834 34.4606393,45.4850233 29.5982394,45.6424633 C29.5982394,45.6424633 29.8948794,49.6725432 26.0462395,50.7227832 C26.0462395,50.7227832 21.5006396,51.7135032 20.9102396,47.4127033 C20.9102396,47.4127033 17.0395197,47.8975032 16.4961597,44.7247033 C16.4961597,44.7247033 15.7684797,45.0165433 15.4574397,43.2674233 C15.1463997,41.5202234 15.7367997,41.6047034 15.7367997,41.6047034 C15.7367997,41.6047034 14.2478397,39.2306234 15.3268797,38.5125434 C16.4059197,37.7944634 16.1937597,37.3893435 17.9591996,38.5567034" id="Fill-62" fill="#170F4C"></path>
                    <line x1="34.6617593" y1="13.7944639" x2="41.9126392" y2="12.031904" id="Stroke-64" stroke="#170F4C" stroke-width="0.959999981"></line>
                    <line x1="35.3972153" y1="22.9809917" x2="42.1028152" y2="23.5982717" id="Stroke-65" stroke="#170F4C" stroke-width="0.959999981"></line>
                    <line x1="34.3734713" y1="31.0969276" x2="40.4848312" y2="31.9647676" id="Stroke-66" stroke="#170F4C" stroke-width="0.959999981"></line>
                    <line x1="4.49721591" y1="40.7167034" x2="10.1458558" y2="36.9880635" id="Stroke-67" stroke="#170F4C" stroke-width="0.959999981"></line>
                    <line x1="0.109247998" y1="32.6860155" x2="5.50348789" y2="31.3746556" id="Stroke-68" stroke="#170F4C" stroke-width="0.959999981"></line>
                    <line x1="0" y1="22.2235518" x2="4.66943991" y2="23.7105917" id="Stroke-69" stroke="#170F4C" stroke-width="0.959999981"></line>
                    <line x1="0.612191988" y1="11.261312" x2="5.69731189" y2="14.8440319" id="Stroke-70" stroke="#170F4C" stroke-width="0.959999981"></line>
                    <path d="M22.4339516,41.3045114 C22.4339516,41.3045114 19.6787516,24.5832317 17.2211517,25.2609917 C14.7635517,25.9377917 15.4787517,30.0725116 21.1053116,27.5803516 C26.7318715,25.0881917 29.3094714,23.3649917 26.4169915,23.0241917 C23.5245115,22.6843517 24.7917115,25.5825917 25.7776315,29.6395516 C26.7645115,33.6955515 27.2089915,40.1438714 27.2089915,40.1438714 L22.4339516,41.3045114 Z" id="Stroke-71" stroke="#170F4C" stroke-width="0.959999981"></path>
                    <line x1="23.8432696" y1="5.64657016" x2="25.8550614" y2="0.131101576" id="Path-2" stroke="#170F4C" stroke-width="1.20000005"></line>
                </g>
            </g>
        </g>
    </g>
</svg>