<svg id="Layer_1" data-name="Layer 1" xmlns="http://www.w3.org/2000/svg" xmlns:xlink="http://www.w3.org/1999/xlink" viewBox="0 0 1024 1024"><defs><style>.cls-1,.cls-4{fill:none;}.cls-2{fill:#edf4f9;}.cls-3,.cls-7{fill:#0c519b;}.cls-4{stroke:#0c519b;stroke-linecap:round;stroke-miterlimit:10;stroke-dasharray:13 18;}.cls-5{fill:#cadcea;}.cls-6{fill:#368ac9;}.cls-7{opacity:0.3;}.cls-8{fill:#e55a28;}.cls-9{fill:#a03e20;}.cls-10{fill:#239e6f;}.cls-11{fill:#20bb83;}.cls-12{fill:#36ce94;}.cls-13{opacity:0.43;}.cls-14{clip-path:url(#clip-path);}.cls-15{fill:#e89074;}</style><clipPath id="clip-path"><path class="cls-1" d="M238.58,761.84c3.28-3.72,8.15-6.1,12.49-8.43,1-.54,2.91-1.95,4-1.29s.16,1.28-.62,2.72a58.61,58.61,0,0,1-4.55,6.82c-1.9,2.55-4.66,6.44-3.43,9.8,1.37,3.75,6.3,3.89,9.49,2.65,8.64-3.37,13.68-12.59,21.51-17.31.45-.27,2-.84,2.17-1.13.82-.17.66-.34-.48-.5-.95-.67-1.29-.45-1,.67-1.64,2.18-2.62,5.17-4.29,7.48-2.42,3.35-5.38,7.21-5.57,11.48a4,4,0,0,0,2,3.45c6.77,4.27,13.95-1.54,18.36-6.29,3.19-3.44,6.77-6.32,10.24-9.45,1.38-1.25,6.78-8,8.55-7.37l-2.39-1.84c2.26,3.51-3.43,8.67-5.19,11.22-1.92,2.8-4.7,7.37-3.51,10.89,1.24,3.67,5.62,4.56,9,3.67,5.14-1.37,9.29-6.51,14.94-4.54,4.87,1.7,7-6,2.13-7.72a15.22,15.22,0,0,0-11.08.55c-1.91.76-3.6,1.84-5.42,2.77a12.31,12.31,0,0,1-1.76.83c-1.45.27-1.32.85.42,1.75.58-.38,1-2.31,1.34-2.94,3.41-5.79,9.71-11.16,7-18.75-6.14-17.11-32.34,24.24-38.57,20.31l2,3.46c.11-2.37,3.11-5.54,4.48-7.44,2-2.81,4.29-6,5.1-9.39,1-4.4-.1-10-5.44-10.41-5-.36-9.73,4.13-13.29,7-4.65,3.81-9.81,12.19-16.47,12.07l3.46,2c-.31,1.84-.23,2.17.23,1q.48-1,1-2c.73-1.18,1.84-2.41,2.66-3.55a50,50,0,0,0,4.47-7.29c1.9-4,2.06-9.81-2.6-12-4-1.9-9.24-.38-12.86,1.69-4.95,2.83-10.29,5.34-14.12,9.68-3.39,3.85,2.24,9.53,5.66,5.66Z"/></clipPath></defs><path class="cls-2" d="M791.93,276.44c47.6,46.56,53,135.21,28.43,208.5-24.76,73.71-80,131.92-140.63,186.71C618.52,726.71,551.06,778,478.21,784.54S326.55,753,265.94,697.8c-61-55.32-103.87-127.74-105.49-198.31-1.2-70.42,39.38-139.27,88.37-183.11s106.7-63.54,160.64-75.57,104.83-17.09,174.79-17C654.63,224,744.49,229.46,791.93,276.44Z"/><path class="cls-3" d="M663.93,419.7a.83.83,0,0,1-.43.11h-1.8c-4.13.07-8.42.1-13,.07a1.24,1.24,0,0,1-1.2-1.28,1.22,1.22,0,0,1,1.26-1.16c4.5,0,8.79,0,12.92-.07h1.8a1.3,1.3,0,0,1,1.25,1.2A1.4,1.4,0,0,1,663.93,419.7Zm-29.5-.77a.93.93,0,0,1-.54.07,110.23,110.23,0,0,1-14.67-2.44,1.23,1.23,0,0,1-.87-1.49,1.19,1.19,0,0,1,1.47-.84,115.62,115.62,0,0,0,14.34,2.37,1.24,1.24,0,0,1,1.09,1.31A1.22,1.22,0,0,1,634.43,418.93ZM606,411.87a1.35,1.35,0,0,1-.93,0,71.41,71.41,0,0,1-13-7.37,1.22,1.22,0,0,1-.27-1.69,1.21,1.21,0,0,1,1.68-.27A71.74,71.74,0,0,0,606,409.72a1.18,1.18,0,0,1,.6,1.56A1.06,1.06,0,0,1,606,411.87Zm-23.69-17.1a1.32,1.32,0,0,1-1.36-.33,68.46,68.46,0,0,1-8.75-12.17,1.2,1.2,0,0,1,2.12-1.14,67.53,67.53,0,0,0,8.42,11.74,1.18,1.18,0,0,1-.11,1.68C582.55,394.66,582.44,394.71,582.28,394.77Zm1.79-17.44a60.38,60.38,0,0,1-7.82,2.45,1.25,1.25,0,0,1-1.47-.93,1.2,1.2,0,0,1,.93-1.47,55,55,0,0,0,7.5-2.33,51,51,0,0,0,5.92-2.77,1.17,1.17,0,0,1,1.62.49,1.18,1.18,0,0,1-.48,1.63A55.27,55.27,0,0,1,584.07,377.33Zm-22.27,4.18c-.11.06-.27.06-.38.11a141.33,141.33,0,0,1-14.83-.32,1.23,1.23,0,0,1,.16-2.45,140.79,140.79,0,0,0,14.62.33,1.22,1.22,0,0,1,1.25,1.19A1.25,1.25,0,0,1,561.8,381.51Zm39.71-16.24a1.07,1.07,0,0,1-1.19-.22,1.2,1.2,0,0,1-.17-1.68,31.13,31.13,0,0,0,4.08-6.3,23.47,23.47,0,0,0,2-6.25,1.22,1.22,0,1,1,2.39.44,26.68,26.68,0,0,1-2.23,6.9,33.61,33.61,0,0,1-4.4,6.78A1.12,1.12,0,0,1,601.51,365.27Zm-33.36,4s-.1.05-.16.05a1.19,1.19,0,0,1-1.46-.87,43,43,0,0,1-1.36-15,1.2,1.2,0,1,1,2.39.21,42.54,42.54,0,0,0,1.3,14.18A1.22,1.22,0,0,1,568.15,369.24ZM532.41,380.1a.88.88,0,0,1-.54.06l-5.16-.33c-3.37-.16-6.47-.22-9.46-.22a1.22,1.22,0,1,1,0-2.44c3-.06,6.19.05,9.61.21l5.22.33a1.26,1.26,0,0,1,1.14,1.31A1.29,1.29,0,0,1,532.41,380.1Zm-67.15,21.3a1.08,1.08,0,0,1-1.14-.17,1.21,1.21,0,0,1-.27-1.68A49.33,49.33,0,0,1,474.55,389a1.21,1.21,0,1,1,1.42,2,45.72,45.72,0,0,0-10.16,10A1.1,1.1,0,0,1,465.26,401.4ZM503,380.65a.56.56,0,0,1-.28.05,71.77,71.77,0,0,0-14,3.53,1.27,1.27,0,0,1-1.58-.71,1.2,1.2,0,0,1,.71-1.51,76.12,76.12,0,0,1,14.5-3.65,1.18,1.18,0,0,1,1.36,1A1,1,0,0,1,503,380.65Zm103.27-42.92a1.18,1.18,0,0,1-1.52-.66,15.44,15.44,0,0,0-7.66-8,14.6,14.6,0,0,0-2.18-.82,1.18,1.18,0,0,1-.81-1.52,1.19,1.19,0,0,1,1.52-.82,14.2,14.2,0,0,1,2.5.93A18,18,0,0,1,607,336a1.25,1.25,0,0,1-.71,1.69Zm-35.15,2.93a1.29,1.29,0,0,1-1.09-.11,1.21,1.21,0,0,1-.43-1.68,30.28,30.28,0,0,1,10.81-10.65,1.19,1.19,0,1,1,1.19,2.07,27.67,27.67,0,0,0-9.94,9.77A.86.86,0,0,1,571.09,340.66Z"/><path class="cls-4" d="M819.32,258.07c51.88,50.76,57.81,147.39,31,227.28-27,80.35-87.2,143.8-153.3,203.53-66.73,60-140.26,116-219.66,123S312,777.52,246,717.38c-66.53-60.3-113.22-139.24-115-216.17-1.32-76.77,42.92-151.81,96.32-199.6s116.32-69.26,175.11-82.37,114.28-18.64,190.54-18.58C669.65,200.89,767.6,206.86,819.32,258.07Z"/><ellipse class="cls-5" cx="521.68" cy="766.54" rx="183.03" ry="17.98"/><path class="cls-3" d="M655.7,548s24.42-22.34-11.87-22.34-43.27-1.39-56.53-18.14S501.45,358.8,498,351.13s-13.26-30-41.18-30.71-57.93-.7-63.51,0-20.94,2.09-25.83,20.93-12.56,79.57,2.1,128.43,44.67,81.66,87.94,99.8,109.58,15.36,142.38,7.68C621.35,572.23,648,556.32,655.7,548Z"/><path class="cls-6" d="M655.7,539.57s24.42-22.33-11.87-22.33-43.27-1.4-56.53-18.15S501.45,350.43,498,342.75s-13.26-30-41.18-30.71-57.93-.7-63.51,0-20.94,2.09-25.83,20.94-12.56,79.56,2.1,128.42,44.67,81.66,87.94,99.81,109.58,15.35,142.38,7.67C621.35,563.85,648,548,655.7,539.57Z"/><path class="cls-3" d="M599,522.16s-85.37,2.4-121.72,10.66c0,0-20,5.36,2.49,9s63,19.12,139.77-3.63C683.13,519.32,599,522.16,599,522.16Z"/><path class="cls-7" d="M647.72,531.93a4.52,4.52,0,0,1,5.86,4.53c-.16,2.3-1.72,5.1-6.55,8-11.76,7-36.59,28.22-100.51,27.72C480,571.65,446.21,558.25,419.21,535c-84.5-82.79-47.74-202.09-47.15-206.79s2.48,113,20.72,140c16.93,25.59,24.86,53.68,59.6,66.84,39.82,15.09,74,20.46,105.66,18.27C589.22,551.16,631.35,536.84,647.72,531.93Z"/><path class="cls-3" d="M508.28,583.07v194c0,7.3-5.69,5.68-5.69-.82s-9.74-198.89-9.74-198.89l17,1.63Z"/><path class="cls-3" d="M445.27,563.39s-73.6,195.94-75.59,200.91-4.71,4.37-2.59-4.41,66-209,66-209Z"/><path class="cls-3" d="M613,571l78.37,192.57s1.34,9.85-6.72,2.23S596.41,575.9,596.41,575.9Z"/><ellipse class="cls-8" cx="280.88" cy="727.5" rx="49.28" ry="8.87"/><ellipse class="cls-9" cx="280.88" cy="727.5" rx="38.78" ry="6.98"/><path class="cls-8" d="M230.94,731.7s7.18,23.45,11.44,39.94a19.82,19.82,0,0,0,19.2,14.85h37.58a19.85,19.85,0,0,0,19-14.23l11.95-40.56S280.88,746.68,230.94,731.7Z"/><path class="cls-10" d="M279,671.68c2.41,7.48,4.82,16.79,6.49,23.4,5,19.85,2.56,31.93-.84,33-3.08,1-9.39-9.39-16.15-25.58-3.16-7.57-8.87-15.86-11.94-25.4-3.15-9.79-3.28-19.65-5.15-27.8-3.84-16.74,2.44-42.07,5.49-43.05s3.64,22.86,10.1,38C270.4,652.2,275.66,661.34,279,671.68Z"/><path class="cls-11" d="M292.11,653.67c.54,10.73.52,23.87.47,33.19-.15,28-6.59,43-10.81,43.21-3.84.19-8-15.79-10.93-39.57-1.37-11.12-5.45-24.12-6.13-37.79-.7-14.05,2.09-27.08,2.38-38.49.59-23.46,15.36-54.56,19.15-54.75s-2.64,31.44.27,53.68C288.05,624.89,291.37,638.84,292.11,653.67Z"/><path class="cls-12" d="M302.94,678.2c-1.52,7.6-3.84,16.8-5.52,23.32-5,19.56-12.09,29-15,28.38-2.67-.53-2.71-12.45-.54-29.61,1-8,.51-17.83,2.45-27.53,2-10,6.2-18.6,8.4-26.55,4.54-16.32,20.14-35.53,22.78-35s-7.34,21.56-9.26,37.64C305.22,657.34,305,667.68,302.94,678.2Z"/><g class="cls-13"><g class="cls-14"><path class="cls-8" d="M230.94,731.7s7.18,23.45,11.44,39.94a19.82,19.82,0,0,0,19.2,14.85h37.58a19.85,19.85,0,0,0,19-14.23l11.95-40.56S280.88,746.68,230.94,731.7Z"/><path class="cls-15" d="M230.88,731.79s7.19,23.45,11.44,39.94a19.83,19.83,0,0,0,19.21,14.85H299.1a19.84,19.84,0,0,0,19-14.23l11.95-40.56S280.82,746.77,230.88,731.79Z"/></g></g></svg>