<svg xmlns="http://www.w3.org/2000/svg" xmlns:xlink="http://www.w3.org/1999/xlink" viewBox="0 0 736.03 613.05"><defs><style>.cls-1,.cls-4{fill:none;}.cls-2{fill:#edf4f9;}.cls-3,.cls-7{fill:#0c519b;}.cls-4{stroke:#0c519b;stroke-linecap:round;stroke-miterlimit:10;stroke-dasharray:13 18;}.cls-5{fill:#cadcea;}.cls-6{fill:#368ac9;}.cls-7{opacity:0.3;}.cls-8{fill:#e55a28;}.cls-9{fill:#a03e20;}.cls-10{fill:#239e6f;}.cls-11{fill:#20bb83;}.cls-12{fill:#36ce94;}.cls-13{opacity:0.43;}.cls-14{clip-path:url(#clip-path);}.cls-15{fill:#e89074;}</style><clipPath id="clip-path"><path class="cls-1" d="M108.14,561.68c3.28-3.72,8.15-6.1,12.5-8.43,1-.54,2.91-2,4-1.29s.16,1.28-.62,2.72a57.37,57.37,0,0,1-4.55,6.82c-1.9,2.55-4.66,6.44-3.43,9.8,1.38,3.75,6.3,3.89,9.49,2.65,8.64-3.37,13.68-12.59,21.52-17.31.45-.28,2-.84,2.16-1.13.82-.17.66-.34-.47-.5-1-.67-1.29-.45-1,.67-1.64,2.18-2.62,5.17-4.29,7.48-2.42,3.35-5.38,7.21-5.56,11.48a4,4,0,0,0,2,3.45c6.77,4.27,14-1.54,18.36-6.29,3.2-3.44,6.78-6.32,10.24-9.45,1.38-1.25,6.78-8,8.55-7.37l-2.39-1.84c2.26,3.51-3.43,8.67-5.18,11.22-1.93,2.8-4.7,7.37-3.52,10.89s5.62,4.56,9,3.67c5.14-1.37,9.29-6.51,14.94-4.54,4.87,1.7,7-6,2.13-7.72a15.22,15.22,0,0,0-11.08.55c-1.91.76-3.6,1.84-5.42,2.76a10.47,10.47,0,0,1-1.76.83c-1.45.28-1.31.86.42,1.76.58-.38,1-2.31,1.34-2.94,3.42-5.79,9.71-11.16,7-18.75-6.14-17.11-32.34,24.24-38.56,20.31l2,3.46c.1-2.37,3.1-5.54,4.47-7.44,2-2.81,4.29-6,5.1-9.39,1-4.4-.09-10-5.44-10.41-5-.36-9.73,4.13-13.29,7-4.65,3.8-9.81,12.19-16.46,12.06l3.45,2q-.46,2.76.24,1c.31-.67.64-1.33,1-2,.73-1.18,1.84-2.41,2.66-3.55a49.11,49.11,0,0,0,4.47-7.29c1.9-4,2.06-9.81-2.59-12-4.06-1.91-9.25-.38-12.87,1.69-4.95,2.83-10.29,5.34-14.12,9.68-3.39,3.85,2.24,9.53,5.66,5.66Z"/></clipPath></defs><g id="Layer_2" data-name="Layer 2"><g id="Layer_1-2" data-name="Layer 1"><path class="cls-2" d="M661.49,76.28c47.6,46.56,53,135.21,28.43,208.5-24.76,73.71-80,131.92-140.63,186.71-61.21,55.06-128.67,106.39-201.52,112.88S196.12,552.81,135.5,497.64C74.47,442.32,31.63,369.9,30,299.33c-1.2-70.43,39.38-139.27,88.37-183.11S225.08,52.68,279,40.65s104.84-17.09,174.79-17C524.19,23.82,614.05,29.3,661.49,76.28Z"/><path class="cls-3" d="M533.49,219.54a.81.81,0,0,1-.43.1h-1.79c-4.13.08-8.42.11-13,.08a1.23,1.23,0,0,1-1.19-1.28,1.21,1.21,0,0,1,1.25-1.16c4.51,0,8.8,0,12.93-.08h1.79a1.3,1.3,0,0,1,1.25,1.21A1.38,1.38,0,0,1,533.49,219.54Zm-29.5-.77a.92.92,0,0,1-.54.07,110.51,110.51,0,0,1-14.67-2.44,1.22,1.22,0,0,1-.86-1.49,1.18,1.18,0,0,1,1.46-.84,115.62,115.62,0,0,0,14.34,2.37,1.2,1.2,0,0,1,.27,2.33Zm-28.46-7.06a1.32,1.32,0,0,1-.92,0,71.5,71.5,0,0,1-13-7.37,1.22,1.22,0,0,1-.27-1.69,1.21,1.21,0,0,1,1.68-.27,71.74,71.74,0,0,0,12.55,7.18,1.18,1.18,0,0,1,.6,1.56A1.06,1.06,0,0,1,475.53,211.71Zm-23.69-17.1a1.32,1.32,0,0,1-1.36-.33,68.4,68.4,0,0,1-8.74-12.17,1.17,1.17,0,0,1,.48-1.62,1.19,1.19,0,0,1,1.64.48,67,67,0,0,0,8.42,11.74,1.2,1.2,0,0,1-.11,1.68C452.12,194.5,452,194.55,451.84,194.61Zm1.79-17.44a59.9,59.9,0,0,1-7.82,2.45,1.25,1.25,0,0,1-1.47-.93,1.2,1.2,0,0,1,.93-1.47,54.54,54.54,0,0,0,7.5-2.33,51,51,0,0,0,5.92-2.77,1.2,1.2,0,1,1,1.14,2.12A55.27,55.27,0,0,1,453.63,177.17Zm-22.27,4.18c-.11.06-.27.06-.38.11a141.33,141.33,0,0,1-14.83-.32,1.23,1.23,0,0,1,.16-2.45,140.79,140.79,0,0,0,14.62.33,1.22,1.22,0,0,1,1.25,1.19A1.25,1.25,0,0,1,431.36,181.35Zm39.71-16.24a1.08,1.08,0,0,1-1.19-.22,1.19,1.19,0,0,1-.16-1.68,31.36,31.36,0,0,0,4.07-6.3,23.47,23.47,0,0,0,2-6.25,1.21,1.21,0,0,1,2.39.43A26.26,26.26,0,0,1,476,158a33.89,33.89,0,0,1-4.4,6.78A1.12,1.12,0,0,1,471.07,165.11Zm-33.35,4c-.06,0-.11,0-.16,0a1.2,1.2,0,0,1-1.47-.87,43,43,0,0,1-1.36-15,1.2,1.2,0,1,1,2.39.21,42.54,42.54,0,0,0,1.3,14.18A1.21,1.21,0,0,1,437.72,169.08ZM402,179.94a.87.87,0,0,1-.54.05l-5.16-.32c-3.37-.16-6.47-.22-9.46-.22a1.22,1.22,0,1,1-.05-2.44c3-.06,6.19.05,9.62.21l5.21.33a1.25,1.25,0,0,1,1.14,1.3A1.28,1.28,0,0,1,402,179.94Zm-67.14,21.3a1.1,1.1,0,0,1-1.15-.17,1.21,1.21,0,0,1-.27-1.68,49.33,49.33,0,0,1,10.7-10.59,1.21,1.21,0,1,1,1.42,1.95,45.72,45.72,0,0,0-10.16,10.05A1.12,1.12,0,0,1,334.83,201.24Zm37.7-20.75a.56.56,0,0,1-.28,0,71.77,71.77,0,0,0-14,3.53,1.28,1.28,0,0,1-1.58-.71,1.22,1.22,0,0,1,.71-1.52,76.79,76.79,0,0,1,14.51-3.64,1.17,1.17,0,0,1,1.35,1A1,1,0,0,1,372.53,180.49ZM475.8,137.57a1.19,1.19,0,0,1-1.52-.66,15.4,15.4,0,0,0-7.66-8,14.9,14.9,0,0,0-2.17-.82,1.22,1.22,0,0,1,.7-2.34,14.2,14.2,0,0,1,2.5.93,17.92,17.92,0,0,1,8.86,9.23,1.24,1.24,0,0,1-.71,1.69Zm-35.15,2.93a1.27,1.27,0,0,1-1.08-.11,1.22,1.22,0,0,1-.44-1.68,30.2,30.2,0,0,1,10.81-10.65,1.2,1.2,0,0,1,1.2,2.07,27.62,27.62,0,0,0-9.95,9.77A.86.86,0,0,1,440.65,140.5Z"/><path class="cls-4" d="M688.88,57.91c51.88,50.76,57.81,147.39,31,227.28-27,80.35-87.2,143.8-153.3,203.53-66.72,60-140.25,116-219.66,123s-165.32-34.41-231.39-94.55C49,456.92,2.3,378,.53,301.05c-1.31-76.77,42.92-151.81,96.33-199.6S213.17,32.19,272,19.08,386.24.44,462.5.5C539.21.73,637.16,6.7,688.88,57.91Z"/><ellipse class="cls-5" cx="391.25" cy="566.38" rx="183.03" ry="17.98"/><path class="cls-3" d="M525.26,347.79s24.43-22.34-11.87-22.34-43.27-1.39-56.53-18.15S371,158.64,367.52,151s-13.26-30-41.18-30.71-57.93-.69-63.51,0-20.94,2.1-25.83,20.94-12.56,79.57,2.1,128.43,44.67,81.66,87.94,99.8,109.58,15.36,142.38,7.68C490.91,372.07,517.58,356.16,525.26,347.79Z"/><path class="cls-6" d="M525.26,339.41s24.43-22.33-11.87-22.33-43.27-1.4-56.53-18.15S371,150.27,367.52,142.59s-13.26-30-41.18-30.71-57.93-.7-63.51,0S241.89,114,237,132.82s-12.56,79.56,2.1,128.42S283.77,342.9,327,361.05s109.58,15.35,142.38,7.67C490.91,363.69,517.58,347.79,525.26,339.41Z"/><path class="cls-3" d="M468.53,322s-85.37,2.4-121.72,10.66c0,0-20,5.36,2.5,9s63,19.12,139.76-3.63C552.69,319.15,468.53,322,468.53,322Z"/><path class="cls-7" d="M517.28,331.76a4.53,4.53,0,0,1,5.86,4.54c-.16,2.3-1.71,5.1-6.55,8C504.83,351.35,480,372.52,416.08,372c-66.54-.53-100.3-13.93-127.31-37.2C204.27,252,241,132.73,241.62,128s2.48,113,20.72,140c16.93,25.59,24.86,53.67,59.6,66.84,39.83,15.09,74,20.46,105.66,18.27C458.78,351,500.92,336.68,517.28,331.76Z"/><path class="cls-3" d="M377.84,382.9v194c0,7.31-5.68,5.69-5.68-.81s-9.75-198.89-9.75-198.89l17,1.63Z"/><path class="cls-3" d="M314.83,363.23s-73.6,195.94-75.59,200.91-4.71,4.37-2.59-4.41,66-209,66-209Z"/><path class="cls-3" d="M482.54,370.81l78.37,192.57s1.34,9.85-6.72,2.23S466,375.74,466,375.74Z"/><ellipse class="cls-8" cx="150.44" cy="527.34" rx="49.28" ry="8.87"/><ellipse class="cls-9" cx="150.44" cy="527.34" rx="38.78" ry="6.98"/><path class="cls-8" d="M100.5,531.54s7.18,23.45,11.44,39.94a19.83,19.83,0,0,0,19.2,14.85h37.58a19.84,19.84,0,0,0,19-14.23l11.95-40.56S150.44,546.52,100.5,531.54Z"/><path class="cls-10" d="M148.55,471.52c2.41,7.48,4.82,16.79,6.49,23.4,5,19.85,2.56,31.93-.83,33-3.09,1-9.4-9.39-16.16-25.58-3.16-7.57-8.86-15.87-11.94-25.4-3.15-9.79-3.28-19.65-5.15-27.8-3.84-16.74,2.44-42.07,5.49-43.05s3.64,22.86,10.1,38C140,452,145.22,461.18,148.55,471.52Z"/><path class="cls-11" d="M161.67,453.51c.54,10.73.53,23.87.48,33.19-.16,28-6.6,43-10.82,43.21-3.84.19-8-15.79-10.93-39.57-1.37-11.12-5.44-24.12-6.13-37.79-.7-14.05,2.09-27.08,2.38-38.5.59-23.45,15.36-54.55,19.15-54.74s-2.63,31.44.28,53.68C157.61,424.73,160.93,438.68,161.67,453.51Z"/><path class="cls-12" d="M172.5,478c-1.52,7.61-3.84,16.81-5.52,23.33-5,19.56-12.08,29-15,28.38-2.67-.53-2.7-12.45-.53-29.61,1-8,.5-17.83,2.44-27.53,2-10,6.2-18.6,8.41-26.55,4.53-16.32,20.13-35.53,22.77-35s-7.34,21.56-9.26,37.64C174.78,457.18,174.6,467.52,172.5,478Z"/><g class="cls-13"><g class="cls-14"><path class="cls-8" d="M100.5,531.54s7.18,23.45,11.44,39.94a19.83,19.83,0,0,0,19.2,14.85h37.58a19.84,19.84,0,0,0,19-14.23l11.95-40.56S150.44,546.52,100.5,531.54Z"/><path class="cls-15" d="M100.45,531.63s7.18,23.45,11.44,39.94a19.82,19.82,0,0,0,19.2,14.85h37.57a19.83,19.83,0,0,0,19-14.23l11.95-40.56S150.38,546.61,100.45,531.63Z"/></g></g></g></g></svg>