<?xml version="1.0" encoding="UTF-8"?>
<svg width="24px" height="24px" viewBox="0 0 24 24" version="1.1" xmlns="http://www.w3.org/2000/svg" xmlns:xlink="http://www.w3.org/1999/xlink">
    <title>3F51B9E9-122A-4F18-9001-ED773FAA581B</title>
    <g id="Textbook-TOC" stroke="none" stroke-width="1" fill="none" fill-rule="evenodd">
        <g id="Content-Play-" transform="translate(-109.000000, -382.000000)">
            <g id="Group-10-Copy-2" transform="translate(107.000000, 382.000000)">
                <g id="Group-16-Copy" transform="translate(2.000000, 0.000000)">
                    <rect id="Rectangle" x="0" y="0" width="24" height="24"></rect>
                    <g id="Group-11" transform="translate(3.000000, 3.000000)" stroke="#024F9D" stroke-linecap="round" stroke-width="1.5">
                        <path d="M17.399999,16.199999 C17.399999,17.527999 16.327999,18.5999989 14.9999991,18.5999989 C13.6719992,18.5999989 12.5999992,17.527999 12.5999992,16.199999 C12.5999992,15.7519991 12.7279992,15.3279991 12.9439992,14.9679991 C13.3599992,14.2639991 14.1199992,13.7999992 14.9999991,13.7999992 C16.327999,13.7999992 17.399999,14.8719991 17.399999,16.199999 Z" id="Stroke-1"></path>
                        <path d="M17.399999,2.99999982 C17.399999,4.32799974 16.327999,5.39999968 14.9999991,5.39999968 C14.0559992,5.39999968 13.2479992,4.86399971 12.8559992,4.07199976 C12.6959992,3.75199978 12.5999992,3.3839998 12.5999992,2.99999982 C12.5999992,1.6719999 13.6719992,0.599999964 14.9999991,0.599999964 C16.327999,0.599999964 17.399999,1.6719999 17.399999,2.99999982 Z" id="Stroke-3"></path>
                        <path d="M5.39999968,8.99999946 C5.39999968,9.44799944 5.27199969,9.87199941 5.0559997,10.2319994 C4.63999972,10.9359993 3.87999977,11.3999993 2.99999982,11.3999993 C1.6719999,11.3999993 0.599999964,10.3279994 0.599999964,8.99999946 C0.599999964,7.67199954 1.6719999,6.59999961 2.99999982,6.59999961 C3.94399976,6.59999961 4.75199972,7.13599957 5.14399969,7.92799953 C5.30399968,8.24799951 5.39999968,8.61599949 5.39999968,8.99999946 Z" id="Stroke-5"></path>
                        <line x1="12.9441592" y1="14.9679991" x2="5.0561597" y2="10.2319994" id="Stroke-7"></line>
                        <line x1="12.8558392" y1="4.07183976" x2="5.14383969" y2="7.92783953" id="Stroke-9"></line>
                    </g>
                </g>
            </g>
        </g>
    </g>
</svg>