<?xml version="1.0" encoding="UTF-8"?>
<svg width="24px" height="24px" viewBox="0 0 24 24" version="1.1" xmlns="http://www.w3.org/2000/svg" xmlns:xlink="http://www.w3.org/1999/xlink">
    <title>6A726E10-8F01-4A12-A5BE-AD059B077A1E</title>
    <g id="Textbook-TOC" stroke="none" stroke-width="1" fill="none" fill-rule="evenodd">
        <g id="Content-Play-" transform="translate(-172.000000, -382.000000)">
            <g id="Group-16-Copy" transform="translate(172.000000, 382.000000)">
                <rect id="Rectangle" x="0" y="0" width="24" height="24"></rect>
                <path d="M12.7492587,1.46725 L15.4982587,7.03725 C15.6202587,7.28425 15.8562587,7.45625 16.1292587,7.49525 L22.2752587,8.38825 C22.9632587,8.48825 23.2382587,9.33425 22.7402587,9.81925 L18.2922587,14.15425 C18.0952587,14.34625 18.0042587,14.62425 18.0512587,14.89625 L19.1012587,21.01825 C19.2192587,21.70325 18.5002587,22.22525 17.8852587,21.90225 L12.3872587,19.01125 C12.1432587,18.88325 11.8512587,18.88325 11.6072587,19.01125 L6.10925866,21.90225 C5.49425866,22.22525 4.77525866,21.70325 4.89325866,21.01825 L5.94325866,14.89625 C5.98925866,14.62425 5.89925866,14.34625 5.70225866,14.15425 L1.25425866,9.81925 C0.756258659,9.33425 1.03125866,8.48825 1.71925866,8.38825 L7.86525866,7.49525 C8.13825866,7.45625 8.37425866,7.28425 8.49725866,7.03725 L11.2452587,1.46725 C11.5532587,0.84425 12.4412587,0.84425 12.7492587,1.46725 Z" id="Stroke-1" stroke="#024F9D" stroke-width="1.5" stroke-linecap="round" stroke-linejoin="round"></path>
            </g>
        </g>
    </g>
</svg>