<?xml version="1.0" encoding="UTF-8"?>
<svg width="27px" height="26px" viewBox="0 0 27 26" version="1.1" xmlns="http://www.w3.org/2000/svg" xmlns:xlink="http://www.w3.org/1999/xlink">
    <title>5F06EC82-2B5C-4E5E-BC3A-68F3E4B6889C</title>
    <g id="Textbook-TOC" stroke="none" stroke-width="1" fill="none" fill-rule="evenodd">
        <g id="Content-Play--icons" transform="translate(-170.000000, -444.000000)">
            <g id="Group-4" transform="translate(160.000000, 445.000000)">
                <g id="Group" transform="translate(11.000000, 0.000000)">
                    <rect id="Rectangle-Copy-2" stroke="#024F9D" stroke-width="1.5" stroke-linecap="round" stroke-linejoin="round" x="3.42857143" y="13.7142857" width="18.2857143" height="10.2857143" rx="1"></rect>
                    <path d="M21.7142857,19.4285714 L23.1428571,19.4285714 C24.2474266,19.4285714 25.1428571,18.5331409 25.1428571,17.4285714 L25.1428571,8.85714286 C25.1428571,7.75257336 24.2474266,6.85714286 23.1428571,6.85714286 L2,6.85714286 C0.8954305,6.85714286 -3.57315355e-16,7.75257336 0,8.85714286 L0,17.4285714 C1.3527075e-16,18.5331409 0.8954305,19.4285714 2,19.4285714 L3.42857143,19.4285714 L3.42857143,19.4285714" id="Path-2" stroke="#024F9D" stroke-width="1.5" stroke-linecap="round" stroke-linejoin="round"></path>
                    <path d="M21.7142857,6.85714286 L21.7142857,2 C21.7142857,0.8954305 20.8188552,-4.2495073e-16 19.7142857,0 L5.42857143,0 C4.32400193,-1.91384796e-17 3.42857143,0.8954305 3.42857143,2 L3.42857143,6.85714286 L3.42857143,6.85714286" id="Path-2-Copy" stroke="#024F9D" stroke-width="1.5" stroke-linecap="round" stroke-linejoin="round"></path>
                    <circle id="Oval" fill="#024F9D" cx="21.7142857" cy="10.2857143" r="1.14285714"></circle>
                </g>
            </g>
        </g>
    </g>
</svg>