<?xml version="1.0" encoding="UTF-8"?>
<svg width="28px" height="28px" viewBox="0 0 28 28" version="1.1" xmlns="http://www.w3.org/2000/svg" xmlns:xlink="http://www.w3.org/1999/xlink">
    <!-- Generator: sketchtool 53.1 (72631) - https://sketchapp.com -->
    <title>221CA116-48EF-4BEF-8068-990514CCAED4@1.5x</title>
    <desc>Created with sketchtool.</desc>
    <g id="Library" stroke="none" stroke-width="1" fill="none" fill-rule="evenodd">
        <g id="Library_single_textbook" transform="translate(-166.000000, -784.000000)" fill="#FFFFFF">
            <g id="QR-code" transform="translate(166.000000, 784.000000)">
                <g id="QR-Code-Copy">
                    <polygon id="Path" points="2.24 9.0342 0 9.0342 0 0 9.0342 0 9.0342 2.24 2.24 2.24"></polygon>
                    <polygon id="Path" points="28 28 18.9658 28 18.9658 25.76 25.76 25.76 25.76 18.9658 28 18.9658"></polygon>
                    <polygon id="Path" points="28 9.0342 25.76 9.0342 25.76 2.24 18.9658 2.24 18.9658 0 28 0"></polygon>
                    <polygon id="Path" points="9.0342 28 0 28 0 18.9658 2.24 18.9658 2.24 25.76 9.0342 25.76"></polygon>
                    <polygon id="Path" points="23.52 23.52 12.88 23.52 12.88 15.12 4.48 15.12 4.48 12.88 15.12 12.88 15.12 21.28 23.52 21.28"></polygon>
                    <polygon id="Path" points="23.52 19.09264 21.28 19.09264 21.28 15.12 19.09264 15.12 19.09264 19.09264 16.85264 19.09264 16.85264 12.88 23.52 12.88"></polygon>
                    <path d="M11.14764,11.14764 L4.48,11.14764 L4.48,4.48 L11.14764,4.48 L11.14764,11.14764 Z M6.72,8.90764 L8.90764,8.90764 L8.90764,6.72 L6.72,6.72 L6.72,8.90764 Z" id="Shape" fill-rule="nonzero"></path>
                    <path d="M23.52,11.14764 L16.85264,11.14764 L16.85264,4.48 L23.52,4.48 L23.52,11.14764 Z M19.09264,8.90764 L21.28,8.90764 L21.28,6.72 L19.09236,6.72 L19.09236,8.90764 L19.09264,8.90764 Z" id="Shape" fill-rule="nonzero"></path>
                    <path d="M11.14764,23.52 L4.48,23.52 L4.48,16.85264 L11.14764,16.85264 L11.14764,23.52 Z M6.72,21.28 L8.90764,21.28 L8.90764,19.09236 L6.72,19.09236 L6.72,21.28 Z" id="Shape" fill-rule="nonzero"></path>
                    <rect id="Rectangle" x="12.88" y="4.48" width="2.24" height="6.66764"></rect>
                </g>
            </g>
        </g>
    </g>
</svg>