<?xml version="1.0" encoding="UTF-8"?>
<svg width="241px" height="200px" viewBox="0 0 241 200" version="1.1" xmlns="http://www.w3.org/2000/svg" xmlns:xlink="http://www.w3.org/1999/xlink">
    <!-- Generator: sketchtool 63.1 (101010) - https://sketch.com -->
    <title>C15B77C7-C292-4296-A7CE-F1670E6AC8B4</title>
    <desc>Created with sketchtool.</desc>
    <g id="Onboarding-FTUE-02" stroke="none" stroke-width="1" fill="none" fill-rule="evenodd">
        <g id="On-boarding---01" transform="translate(-55.000000, -79.000000)">
            <g id="Asset-1" transform="translate(55.000000, 80.000000)">
                <g id="book" transform="translate(29.719251, 26.000000)" fill-rule="nonzero">
                    <rect id="Rectangle" fill="#AEAEAE" x="0.0849079755" y="12.1771901" width="172.819571" height="115.680661" rx="16"></rect>
                    <path d="M21.5489366,0.0248760331 L75.0480368,0.0248760331 C81.4353059,0.0248760331 86.6132106,5.2260322 86.6132106,11.6419835 L86.6132106,117.585455 L21.5489366,117.585455 C15.1616675,117.585455 9.98376278,112.384298 9.98376278,105.968347 L9.98376278,11.6419835 C9.98376278,5.2260322 15.1616675,0.0248760331 21.5489366,0.0248760331 Z" id="Path" stroke="#333333" fill="#FFFFFF" stroke-linecap="round" stroke-dasharray="5"></path>
                    <path d="M97.6335583,0.021322314 L162.683681,0.021322314 L162.683681,105.968347 C162.683681,112.384298 157.505776,117.585455 151.118507,117.585455 L97.6335583,117.585455 C91.2462891,117.585455 86.0683845,112.384298 86.0683845,105.968347 L86.0683845,11.6384298 C86.0683845,5.22247848 91.2462891,0.021322314 97.6335583,0.021322314 Z" id="Path" stroke="#333333" fill="#FFFFFF" stroke-linecap="round" stroke-dasharray="5" transform="translate(124.376033, 58.803388) rotate(180.000000) translate(-124.376033, -58.803388) "></path>
                </g>
                <circle id="Oval" stroke="#A7A7A8" cx="20.2192513" cy="2.5" r="2.5"></circle>
                <circle id="Oval" stroke="#A7A7A8" cx="44.2192513" cy="47.5" r="2.5"></circle>
                <circle id="Oval" stroke="#A7A7A8" cx="41.2192513" cy="16.5" r="2.5"></circle>
                <circle id="Oval" fill="#9EA8AF" fill-rule="nonzero" cx="27.7192513" cy="10" r="2"></circle>
                <circle id="Oval" stroke="#A7A7A8" cx="21.2192513" cy="38.5" r="2.5"></circle>
                <circle id="Oval" stroke="#A7A7A8" cx="58.7192513" cy="32" r="2"></circle>
                <path d="M36.0577214,31.8778111 L34.8333003,31.8778111 L34.8333003,30.625937 C34.8333003,30.2802416 34.5583812,30 34.2192513,30 C33.8801214,30 33.6052023,30.2802416 33.6052023,30.625937 L33.6052023,31.8778111 L32.3807813,31.8778111 C32.1507335,31.859624 31.9301018,31.9744329 31.8096158,32.1750254 C31.6891298,32.3756179 31.6891298,32.6281303 31.8096158,32.8287228 C31.9301018,33.0293153 32.1507335,33.1441242 32.3807813,33.125937 L33.6052023,33.125937 L33.6052023,34.374063 C33.6052023,34.7197584 33.8801214,35 34.2192513,35 C34.5583812,35 34.8333003,34.7197584 34.8333003,34.374063 L34.8333003,33.125937 L36.0577214,33.125937 C36.2877692,33.1441242 36.5084009,33.0293153 36.6288869,32.8287228 C36.7493728,32.6281303 36.7493728,32.3756179 36.6288869,32.1750254 C36.5084009,31.9744329 36.2877692,31.859624 36.0577214,31.8778111 L36.0577214,31.8778111 Z" id="Path" fill="#7C7C7C" fill-rule="nonzero"></path>
                <path d="M5.0933143,14.885951 L3.84144023,14.885951 L3.84144023,13.66153 C3.85962737,13.4314821 3.74481845,13.2108504 3.54422595,13.0903645 C3.34363346,12.9698785 3.09112105,12.9698785 2.89052856,13.0903645 C2.68993606,13.2108504 2.57512714,13.4314821 2.59331428,13.66153 L2.59331428,14.885951 L1.34518834,14.885951 C0.999492871,14.885951 0.719251337,15.1608701 0.719251337,15.5 C0.719251337,15.8391299 0.999492871,16.114049 1.34518834,16.114049 L2.59331428,16.114049 L2.59331428,17.33847 C2.57512714,17.5685179 2.68993606,17.7891496 2.89052856,17.9096355 C3.09112105,18.0301215 3.34363346,18.0301215 3.54422595,17.9096355 C3.74481845,17.7891496 3.85962737,17.5685179 3.84144023,17.33847 L3.84144023,16.114049 L5.0933143,16.114049 C5.43900978,16.114049 5.71925134,15.8391299 5.71925134,15.5 C5.71925134,15.1608701 5.43900978,14.885951 5.0933143,14.885951 L5.0933143,14.885951 Z" id="Path" fill="#9EA8AF" fill-rule="nonzero"></path>
                <path d="M55.6763108,3.94158394 L53.7074005,3.94158394 L53.7074005,1.93970953 C53.675513,1.41167484 53.2442357,1 52.7229454,1 C52.201655,1 51.7703777,1.41167484 51.7384902,1.93970953 L51.7384902,3.94158394 L49.7658859,3.94158394 C49.3997823,3.91881432 49.0514671,4.10409842 48.8616295,4.42259757 C48.6717919,4.74109673 48.6717919,5.14019675 48.8616295,5.4586959 C49.0514671,5.77719505 49.3997823,5.96247916 49.7658859,5.93970953 L51.7347962,5.93970953 L51.7347962,7.93783512 C51.7123595,8.30937111 51.8949345,8.66285468 52.2087768,8.85550915 C52.522619,9.04816362 52.9158837,9.04816362 53.2297259,8.85550915 C53.5435682,8.66285468 53.7261432,8.30937111 53.7037065,7.93783512 L53.7037065,5.93970953 L55.6726167,5.93970953 C56.0387204,5.96247916 56.3870355,5.77719505 56.5768731,5.4586959 C56.7667107,5.14019675 56.7667107,4.74109673 56.5768731,4.42259757 C56.3870355,4.10409842 56.0387204,3.91881432 55.6726167,3.94158394 L55.6763108,3.94158394 Z" id="Path" stroke="#7C7C7C"></path>
                <g id="book_qr" transform="translate(137.719251, 90.000000)">
                    <path d="M0.775942319,0.603138207 L35.2981753,0.603138207 C35.8504601,0.603138207 36.2981753,1.05085346 36.2981753,1.60313821 L36.2981753,35.4866676 C36.2981753,36.0389524 35.8504601,36.4866676 35.2981753,36.4866676 L0.775942319,36.4866676 C0.223657569,36.4866676 -0.224057681,36.0389524 -0.224057681,35.4866676 L-0.224057681,1.60313821 C-0.224057681,1.05085346 0.223657569,0.603138207 0.775942319,0.603138207 Z" id="Rectangle" stroke="#7C7C7C" transform="translate(18.037059, 18.544903) rotate(-90.000000) translate(-18.037059, -18.544903) "></path>
                    <path d="M4.29337236,21.5270503 L12.8913335,21.5270503 C13.995903,21.5270503 14.8913335,22.4224808 14.8913335,23.5270503 L14.8913335,31.9046973 C14.8913335,33.0092668 13.995903,33.9046973 12.8913335,33.9046973 L4.29337236,33.9046973 C3.18880286,33.9046973 2.29337236,33.0092668 2.29337236,31.9046973 L2.29337236,23.5270503 C2.29337236,22.4224808 3.18880286,21.5270503 4.29337236,21.5270503 Z" id="Rectangle" fill="#7C7C7C" fill-rule="nonzero" transform="translate(8.592353, 27.715874) rotate(-90.000000) translate(-8.592353, -27.715874) "></path>
                    <polygon id="Rectangle" fill="#FFFFFF" fill-rule="nonzero" transform="translate(8.592353, 27.715874) rotate(-90.000000) translate(-8.592353, -27.715874) " points="3.96376071 23.1682267 13.2209452 23.1682267 13.2209452 32.2635208 3.96376071 32.2635208"></polygon>
                    <path d="M23.1757253,21.5270503 L31.7736865,21.5270503 C32.878256,21.5270503 33.7736865,22.4224808 33.7736865,23.5270503 L33.7736865,31.9046973 C33.7736865,33.0092668 32.878256,33.9046973 31.7736865,33.9046973 L23.1757253,33.9046973 C22.0711558,33.9046973 21.1757253,33.0092668 21.1757253,31.9046973 L21.1757253,23.5270503 C21.1757253,22.4224808 22.0711558,21.5270503 23.1757253,21.5270503 Z" id="Rectangle" fill="#7C7C7C" fill-rule="nonzero" transform="translate(27.474706, 27.715874) rotate(-90.000000) translate(-27.474706, -27.715874) "></path>
                    <polygon id="Rectangle" fill="#FFFFFF" fill-rule="nonzero" transform="translate(27.474706, 27.712282) rotate(-90.000000) translate(-27.474706, -27.712282) " points="22.8461136 23.1646345 32.1032981 23.1646345 32.1032981 32.2599286 22.8461136 32.2599286"></polygon>
                    <path d="M4.29337236,3.18151628 L12.8913335,3.18151628 C13.995903,3.18151628 14.8913335,4.07694678 14.8913335,5.18151628 L14.8913335,13.5591633 C14.8913335,14.6637328 13.995903,15.5591633 12.8913335,15.5591633 L4.29337236,15.5591633 C3.18880286,15.5591633 2.29337236,14.6637328 2.29337236,13.5591633 L2.29337236,5.18151628 C2.29337236,4.07694678 3.18880286,3.18151628 4.29337236,3.18151628 Z" id="Rectangle" fill="#7C7C7C" fill-rule="nonzero" transform="translate(8.592353, 9.370340) rotate(-90.000000) translate(-8.592353, -9.370340) "></path>
                    <polygon id="Rectangle" fill="#FFFFFF" fill-rule="nonzero" transform="translate(8.592353, 9.370340) rotate(-90.000000) translate(-8.592353, -9.370340) " points="3.96376071 4.82269275 13.2209452 4.82269275 13.2209452 13.9179869 3.96376071 13.9179869"></polygon>
                    <rect id="Rectangle" fill="#7C7C7C" fill-rule="nonzero" x="21.2858824" y="12.6123301" width="3.00352941" height="3.05699029" rx="1.46"></rect>
                    <rect id="Rectangle" fill="#7C7C7C" fill-rule="nonzero" x="21.2858824" y="3.07135922" width="3.00352941" height="3.05699029" rx="1.46"></rect>
                    <rect id="Rectangle" fill="#7C7C7C" fill-rule="nonzero" x="21.2858824" y="7.84184466" width="3.00352941" height="3.05699029" rx="1.46"></rect>
                    <rect id="Rectangle" fill="#7C7C7C" fill-rule="nonzero" x="25.9729412" y="12.6123301" width="3.00352941" height="3.05699029" rx="1.46"></rect>
                    <rect id="Rectangle" fill="#7C7C7C" fill-rule="nonzero" x="25.9729412" y="3.07135922" width="3.00352941" height="3.05699029" rx="1.46"></rect>
                    <rect id="Rectangle" fill="#7C7C7C" fill-rule="nonzero" x="25.9729412" y="7.84184466" width="3.00352941" height="3.05699029" rx="1.46"></rect>
                    <rect id="Rectangle" fill="#7C7C7C" fill-rule="nonzero" x="30.5223529" y="12.6123301" width="3.00352941" height="3.05699029" rx="1.46"></rect>
                    <rect id="Rectangle" fill="#7C7C7C" fill-rule="nonzero" x="30.5223529" y="3.07135922" width="3.00352941" height="3.05699029" rx="1.46"></rect>
                    <rect id="Rectangle" fill="#7C7C7C" fill-rule="nonzero" x="30.5223529" y="7.84184466" width="3.00352941" height="3.05699029" rx="1.46"></rect>
                </g>
                <g id="phone" transform="translate(180.719251, 88.000000)" fill-rule="nonzero">
                    <g id="phone-2">
                        <rect id="Rectangle" fill="#FFFFFF" x="0.910588235" y="0.78625" width="57.5752941" height="109.267404" rx="8"></rect>
                        <path d="M50.2835294,1.49778846 C54.4229089,1.49975155 57.7780525,4.88177938 57.78,9.05432692 L57.78,101.782019 C57.7761085,105.953754 54.4221028,109.334635 50.2835294,109.338558 L9.11294118,109.338558 C4.97517288,109.332679 1.62230255,105.952943 1.61647059,101.782019 L1.61647059,9.05432692 C1.62036206,4.88259186 4.97436776,1.50171111 9.11294118,1.49778846 L50.2835294,1.49778846 M50.2835294,0.0747115385 L9.11294118,0.0747115385 C4.19305868,0.0747115385 0.204705882,4.09502229 0.204705882,9.05432692 L0.204705882,101.782019 C0.204705882,106.741324 4.19305868,110.761635 9.11294118,110.761635 L50.2835294,110.761635 C55.2034119,110.761635 59.1917647,106.741324 59.1917647,101.782019 L59.1917647,9.05432692 C59.1917647,4.09502229 55.2034119,0.0747115385 50.2835294,0.0747115385 Z" id="Shape" fill="#333333"></path>
                        <path d="M58.8,16.9310577 L58.8,16.9310577 C59.3847721,16.9310577 59.8588235,17.4089076 59.8588235,17.9983654 L59.8588235,31.3895192 C59.8588235,31.978977 59.3847721,32.4568269 58.8,32.4568269 L58.8,32.4568269 L58.8,16.9310577 Z" id="Path" fill="#7C7C7C"></path>
                        <ellipse id="Oval" fill="#7C7C7C" cx="29.7" cy="5.15865385" rx="1.29882353" ry="1.30923077"></ellipse>
                    </g>
                    <path d="M11.8588235,23.125 L11.8588235,26.7929808 L12.2117647,26.7929808 L12.2117647,23.125 C12.2117635,21.4935904 13.5227363,20.1705209 15.1411765,20.1685577 L19.1294118,20.1685577 L19.1294118,19.8127885 L15.1411765,19.8127885 C13.3278122,19.8147518 11.8588235,21.2971045 11.8588235,23.125 Z" id="Path" fill="#0076FE"></path>
                    <path d="M12.2117647,52.1273077 L12.2117647,48.4593269 L11.8588235,48.4593269 L11.8588235,52.1273077 C11.8607642,53.9543924 13.3286186,55.4355995 15.1411765,55.4395192 L19.1294118,55.4395192 L19.1294118,55.08375 L15.1411765,55.08375 C13.5227363,55.0817868 12.2117635,53.7587173 12.2117647,52.1273077 Z" id="Path" fill="#0076FE"></path>
                    <path d="M44.2552941,19.8199038 L40.2705882,19.8199038 L40.2705882,20.1756731 L44.2552941,20.1756731 C45.8715586,20.1776207 47.1824086,21.4957941 47.1882353,23.125 L47.1882353,26.7929808 L47.5411765,26.7929808 L47.5411765,23.125 C47.5372839,21.2984954 46.0672838,19.8199038 44.2552941,19.8199038 Z" id="Path" fill="#0076FE"></path>
                    <path d="M47.1882353,52.1273077 C47.1862905,53.759293 45.8743066,55.0817897 44.2552941,55.08375 L40.2705882,55.08375 L40.2705882,55.4395192 L44.2552941,55.4395192 C46.0692305,55.4375584 47.5392312,53.9557788 47.5411765,52.1273077 L47.5411765,48.4593269 L47.1882353,48.4593269 L47.1882353,52.1273077 Z" id="Path" fill="#0076FE"></path>
                </g>
                <g id="scan" transform="translate(196.719251, 181.000000)" fill-rule="nonzero">
                    <rect id="Rectangle" fill="#0076FE" x="0.0315584416" y="0.00347826087" width="26.6914286" height="7.65913043" rx="3.82956522"></rect>
                    <path d="M9.81818182,4.4173913 C9.81824886,4.57842112 9.77594566,4.73668006 9.69545455,4.87652174 C9.60407152,5.02749184 9.46993055,5.14845632 9.30974026,5.22434783 C9.10082311,5.32258199 8.87101719,5.3691279 8.64,5.36 C8.52318596,5.36563705 8.40616469,5.36563705 8.28935065,5.36 C8.19195395,5.34689681 8.09579284,5.32595823 8.00181818,5.2973913 C7.90656685,5.26930137 7.81389548,5.23322945 7.72480519,5.18956522 L7.72480519,4.47304348 C7.88132825,4.5517221 8.04590544,4.61352467 8.21571429,4.6573913 C8.36286108,4.69927018 8.51498134,4.72149509 8.66805195,4.72347826 C8.76015678,4.73039095 8.85212957,4.7084952 8.93103896,4.66086957 C8.9842821,4.62483663 9.01585897,4.5648016 9.01519481,4.50086957 C9.01361222,4.42020761 8.96604901,4.34741522 8.89246753,4.31304348 C8.80831169,4.26782609 8.67155844,4.19826087 8.47519481,4.10782609 C8.33851862,4.04901843 8.20812699,3.97677348 8.08597403,3.89217391 C7.97969022,3.81887916 7.89303053,3.72097805 7.83350649,3.60695652 C7.7700826,3.47587053 7.73998527,3.33137232 7.74584416,3.18608696 C7.74024938,3.01488446 7.79068664,2.84648687 7.88961039,2.70608696 C7.98864081,2.57097134 8.12687236,2.46904248 8.28584416,2.41391304 C8.4753437,2.34406248 8.67630701,2.3098553 8.87844156,2.31304348 C9.05735919,2.31134666 9.23561908,2.33476714 9.40792208,2.3826087 C9.55156012,2.42114214 9.69218929,2.46996606 9.8287013,2.52869565 L9.57974026,3.14782609 C9.45663044,3.09347683 9.33013775,3.0470049 9.20103896,3.00869565 C9.08709464,2.97555401 8.9691219,2.95800058 8.85038961,2.95652174 C8.76906403,2.94772534 8.6871974,2.96741201 8.61896104,3.01217391 C8.57263949,3.04192025 8.54486225,3.09309121 8.54532468,3.14782609 C8.54414982,3.19579888 8.5647436,3.2417618 8.60142857,3.27304348 C8.65569276,3.32248471 8.71716314,3.36352588 8.78376623,3.39478261 L9.13441558,3.55826087 C9.26520761,3.61637155 9.38973771,3.68745809 9.5061039,3.77043478 C9.60541163,3.84163862 9.68697429,3.93444252 9.74454545,4.04173913 C9.7964642,4.16011606 9.82159924,4.2883412 9.81818182,4.4173913 Z" id="Path" fill="#FFFFFF"></path>
                    <path d="M11.6064935,2.96 C11.4249936,2.95382124 11.2534419,3.04220435 11.1541558,3.19304348 C11.0341558,3.38832642 10.9766911,3.61512152 10.9893506,3.84347826 C10.9746905,4.0698264 11.0323601,4.29499643 11.1541558,4.48695652 C11.2721106,4.63880235 11.4594307,4.72124004 11.6520779,4.70608696 C11.7825934,4.70490503 11.9123455,4.68618396 12.0377922,4.65043478 C12.1653225,4.61359202 12.2905968,4.5694603 12.412987,4.51826087 L12.412987,5.21391304 C12.2827274,5.27188546 12.1462758,5.31505837 12.0062338,5.3426087 C11.8603566,5.36803498 11.7125276,5.38083678 11.5644156,5.38086957 C11.2839117,5.3935989 11.0055083,5.32727182 10.7614286,5.18956522 C10.5564185,5.06307241 10.3968916,4.87561596 10.3055844,4.65391304 C10.2021293,4.39049673 10.1555413,4.1084797 10.1688312,3.82608696 C10.1633297,3.55135554 10.2208849,3.2789805 10.3371429,3.02956522 C10.4448443,2.80367617 10.616677,2.61388516 10.8315584,2.48347826 C11.0718562,2.34525477 11.3463856,2.27657254 11.624026,2.28521739 C11.7785886,2.28617551 11.9325962,2.30366798 12.0833766,2.3373913 C12.2454871,2.37168473 12.4031282,2.42419766 12.5532468,2.49391304 L12.3042857,3.13043478 C12.197858,3.07836048 12.0876862,3.03418152 11.9746753,2.99826087 C11.854705,2.96656892 11.7304805,2.95365971 11.6064935,2.96 Z" id="Path" fill="#FFFFFF"></path>
                    <path d="M14.8394805,5.32173913 L14.6922078,4.76173913 L13.7174026,4.76173913 L13.5666234,5.32173913 L12.6724675,5.32173913 L13.6542857,2.33043478 L14.7272727,2.33043478 L15.7231169,5.32173913 L14.8394805,5.32173913 Z M14.5238961,4.10434783 L14.3941558,3.61391304 C14.3941558,3.56173913 14.3625974,3.48521739 14.3345455,3.38782609 C14.3064935,3.29043478 14.2854545,3.18608696 14.2609091,3.08173913 C14.2363636,2.9773913 14.2153247,2.89043478 14.2012987,2.82086957 C14.2012987,2.89043478 14.1697403,2.9773913 14.1451948,3.07478261 C14.1206494,3.17217391 14.0996104,3.27304348 14.0785714,3.37043478 C14.0575325,3.46782609 14.032987,3.55130435 14.0154545,3.61391304 L13.8857143,4.10434783 L14.5238961,4.10434783 Z" id="Shape" fill="#FFFFFF"></path>
                    <path d="M18.914026,5.32173913 L17.8620779,5.32173913 L16.7645455,3.23478261 L16.7645455,3.23478261 C16.7645455,3.33217391 16.7715584,3.41913043 16.7855844,3.49565217 C16.7855844,3.57565217 16.7855844,3.65565217 16.7855844,3.74608696 C16.7855844,3.83652174 16.7855844,3.91304348 16.7855844,3.98956522 L16.7855844,5.33217391 L16.0667532,5.33217391 L16.0667532,2.35130435 L17.1187013,2.35130435 L18.2127273,4.43826087 L18.2127273,4.43826087 C18.2127273,4.34086957 18.2127273,4.2573913 18.2127273,4.18086957 C18.2127273,4.10434783 18.2127273,4.02782609 18.2127273,3.94434783 C18.2127273,3.86086957 18.2127273,3.78434783 18.2127273,3.71478261 L18.2127273,2.36521739 L18.9350649,2.36521739 L18.914026,5.32173913 Z" id="Path" fill="#FFFFFF"></path>
                </g>
                <g id="phoneqr" transform="translate(195.719251, 111.000000)">
                    <rect id="Rectangle" stroke="#0076FE" transform="translate(15.033929, 15.141071) rotate(-90.000000) translate(-15.033929, -15.141071) " x="0.317857143" y="0.425" width="29.4321429" height="29.4321429" rx="1"></rect>
                    <path d="M29.8964286,3.57142857 L29.8964286,26.7071429 C29.8964286,28.5257376 28.4221662,30 26.6035714,30 L3.46785714,30 C1.64926236,30 0.175,28.5257376 0.175,26.7071429 L0.175,3.57142857 C0.175,1.75283379 1.64926236,0.278571429 3.46785714,0.278571429 L26.6035714,0.278571429 C28.4221662,0.278571429 29.8964286,1.75283379 29.8964286,3.57142857 Z M0.464285714,26.7071429 C0.466253682,28.3651537 1.80984629,29.7087463 3.46785714,29.7107143 L26.6035714,29.7107143 C28.2615823,29.7087463 29.6051749,28.3651537 29.6071429,26.7071429 L29.6071429,3.57142857 C29.6051749,1.91341772 28.2615823,0.56982511 26.6035714,0.567857143 L3.46785714,0.567857143 C1.80984629,0.56982511 0.466253682,1.91341772 0.464285714,3.57142857 L0.464285714,26.7071429 Z" id="Shape" stroke="#7C7C7C" fill="#0076FE" fill-rule="nonzero"></path>
                    <path d="M4.21428571,17.4535714 L10.3678571,17.4535714 C11.4724266,17.4535714 12.3678571,18.3490019 12.3678571,19.4535714 L12.3678571,25.6071429 C12.3678571,26.7117124 11.4724266,27.6071429 10.3678571,27.6071429 L4.21428571,27.6071429 C3.10971621,27.6071429 2.21428571,26.7117124 2.21428571,25.6071429 L2.21428571,19.4535714 C2.21428571,18.3490019 3.10971621,17.4535714 4.21428571,17.4535714 Z" id="Rectangle" fill="#7C7C7C" fill-rule="nonzero" transform="translate(7.291071, 22.530357) rotate(-90.000000) translate(-7.291071, -22.530357) "></path>
                    <path d="M12.5,19.7821429 L12.5,25.2821429 C12.498033,26.6462596 11.3926881,27.7516044 10.0285714,27.7535714 L4.52857143,27.7535714 C3.16526747,27.7496482 2.06106606,26.6454468 2.05714286,25.2821429 L2.05714286,19.7821429 C2.06106606,18.4188389 3.16526747,17.3146375 4.52857143,17.3107143 L10.0285714,17.3107143 C11.3926881,17.3126813 12.498033,18.4180261 12.5,19.7821429 L12.5,19.7821429 Z M2.34642857,25.2821429 C2.34839486,26.4864917 3.32422261,27.4623194 4.52857143,27.4642857 L10.0285714,27.4642857 C11.2329202,27.4623194 12.208748,26.4864917 12.2107143,25.2821429 L12.2107143,19.7821429 C12.208748,18.577794 11.2329202,17.6019663 10.0285714,17.6 L4.52857143,17.6 C3.32422261,17.6019663 2.34839486,18.577794 2.34642857,19.7821429 L2.34642857,25.2821429 Z" id="Shape" fill="#7C7C7C" fill-rule="nonzero"></path>
                    <polygon id="Rectangle" fill="#FFFFFF" fill-rule="nonzero" transform="translate(7.291071, 22.530357) rotate(-90.000000) translate(-7.291071, -22.530357) " points="3.56071429 18.8 11.0214286 18.8 11.0214286 26.2607143 3.56071429 26.2607143"></polygon>
                    <path d="M19.7071429,17.4571429 L25.8607143,17.4571429 C26.9652838,17.4571429 27.8607143,18.3525734 27.8607143,19.4571429 L27.8607143,25.6107143 C27.8607143,26.7152838 26.9652838,27.6107143 25.8607143,27.6107143 L19.7071429,27.6107143 C18.6025734,27.6107143 17.7071429,26.7152838 17.7071429,25.6107143 L17.7071429,19.4571429 C17.7071429,18.3525734 18.6025734,17.4571429 19.7071429,17.4571429 Z" id="Rectangle" fill="#7C7C7C" fill-rule="nonzero" transform="translate(22.783929, 22.533929) rotate(-90.000000) translate(-22.783929, -22.533929) "></path>
                    <path d="M28.0035714,19.7821429 L28.0035714,25.2821429 C27.99964,26.6468371 26.8932699,27.7516107 25.5285714,27.7535714 L20.0321429,27.7535714 C18.6680261,27.7516044 17.5626813,26.6462596 17.5607143,25.2821429 L17.5607143,19.7821429 C17.5626813,18.4180261 18.6680261,17.3126813 20.0321429,17.3107143 L25.5285714,17.3107143 C26.8932699,17.312675 27.99964,18.4174486 28.0035714,19.7821429 L28.0035714,19.7821429 Z M17.8571429,25.2821429 C17.8591091,26.4864917 18.8349369,27.4623194 20.0392857,27.4642857 L25.5357143,27.4642857 C26.7400631,27.4623194 27.7158909,26.4864917 27.7178571,25.2821429 L27.7178571,19.7821429 C27.7158909,18.577794 26.7400631,17.6019663 25.5357143,17.6 L20.0321429,17.6 C18.827794,17.6019663 17.8519663,18.577794 17.85,19.7821429 L17.8571429,25.2821429 Z" id="Shape" fill="#7C7C7C" fill-rule="nonzero"></path>
                    <polygon id="Rectangle" fill="#FFFFFF" fill-rule="nonzero" transform="translate(22.783929, 22.533929) rotate(-90.000000) translate(-22.783929, -22.533929) " points="19.0535714 18.8035714 26.5142857 18.8035714 26.5142857 26.2642857 19.0535714 26.2642857"></polygon>
                    <path d="M4.21428571,2.66785714 L10.3678571,2.66785714 C11.4724266,2.66785714 12.3678571,3.56328764 12.3678571,4.66785714 L12.3678571,10.8214286 C12.3678571,11.9259981 11.4724266,12.8214286 10.3678571,12.8214286 L4.21428571,12.8214286 C3.10971621,12.8214286 2.21428571,11.9259981 2.21428571,10.8214286 L2.21428571,4.66785714 C2.21428571,3.56328764 3.10971621,2.66785714 4.21428571,2.66785714 Z" id="Rectangle" fill="#7C7C7C" fill-rule="nonzero" transform="translate(7.291071, 7.744643) rotate(-90.000000) translate(-7.291071, -7.744643) "></path>
                    <path d="M12.5,5 L12.5,10.5 C12.498033,11.8641167 11.3926881,12.9694616 10.0285714,12.9714286 L4.52857143,12.9714286 C3.16526747,12.9675054 2.06106606,11.863304 2.05714286,10.5 L2.05714286,5 C2.05910986,3.63588328 3.16445471,2.53053843 4.52857143,2.52857143 L10.0285714,2.52857143 C11.3935037,2.52857143 12.5,3.63506769 12.5,5 L12.5,5 Z M2.34642857,10.5 C2.34839486,11.7043488 3.32422261,12.6801766 4.52857143,12.6821429 L10.0285714,12.6821429 C11.2329202,12.6801766 12.208748,11.7043488 12.2107143,10.5 L12.2107143,5 C12.208748,3.79565118 11.2329202,2.81982343 10.0285714,2.81785714 L4.52857143,2.81785714 C3.32840889,2.82569995 2.35907832,3.79981339 2.35714286,5 L2.34642857,10.5 Z" id="Shape" fill="#7C7C7C" fill-rule="nonzero"></path>
                    <polygon id="Rectangle" fill="#FFFFFF" fill-rule="nonzero" transform="translate(7.291071, 7.744643) rotate(-90.000000) translate(-7.291071, -7.744643) " points="3.56071429 4.01428571 11.0214286 4.01428571 11.0214286 11.475 3.56071429 11.475"></polygon>
                    <rect id="Rectangle" fill="#7C7C7C" fill-rule="nonzero" x="17.7035714" y="10.3571429" width="2.46428571" height="2.46428571" rx="1.18"></rect>
                    <rect id="Rectangle" fill="#7C7C7C" fill-rule="nonzero" x="17.7035714" y="2.67142857" width="2.46428571" height="2.46428571" rx="1.18"></rect>
                    <rect id="Rectangle" fill="#7C7C7C" fill-rule="nonzero" x="17.7035714" y="6.51428571" width="2.46428571" height="2.46428571" rx="1.18"></rect>
                    <rect id="Rectangle" fill="#7C7C7C" fill-rule="nonzero" x="21.5464286" y="10.3571429" width="2.46428571" height="2.46428571" rx="1.18"></rect>
                    <rect id="Rectangle" fill="#7C7C7C" fill-rule="nonzero" x="21.5464286" y="2.67142857" width="2.46428571" height="2.46428571" rx="1.18"></rect>
                    <rect id="Rectangle" fill="#7C7C7C" fill-rule="nonzero" x="21.5464286" y="6.51428571" width="2.46428571" height="2.46428571" rx="1.18"></rect>
                    <rect id="Rectangle" fill="#7C7C7C" fill-rule="nonzero" x="25.2785714" y="10.3571429" width="2.46428571" height="2.46428571" rx="1.18"></rect>
                    <rect id="Rectangle" fill="#7C7C7C" fill-rule="nonzero" x="25.2785714" y="2.67142857" width="2.46428571" height="2.46428571" rx="1.18"></rect>
                    <rect id="Rectangle" fill="#7C7C7C" fill-rule="nonzero" x="25.2785714" y="6.51428571" width="2.46428571" height="2.46428571" rx="1.18"></rect>
                </g>
            </g>
        </g>
    </g>
</svg>