<?xml version="1.0" encoding="UTF-8"?><svg xmlns="http://www.w3.org/2000/svg" xmlns:xlink="http://www.w3.org/1999/xlink" viewBox="0 0 180 179.98"><defs><style>.cls-1{fill:url(#linear-gradient-12);mix-blend-mode:multiply;}.cls-1,.cls-2,.cls-3,.cls-4,.cls-5,.cls-6,.cls-7,.cls-8,.cls-9,.cls-10,.cls-11,.cls-12,.cls-13,.cls-14,.cls-15,.cls-16{fill-rule:evenodd;}.cls-2{fill:url(#linear-gradient);}.cls-3{fill:url(#linear-gradient-14);}.cls-4{fill:url(#linear-gradient-11);}.cls-5{fill:url(#linear-gradient-13);}.cls-6{fill:url(#linear-gradient-10);}.cls-7{fill:url(#linear-gradient-15);}.cls-17{isolation:isolate;}.cls-8{fill:url(#linear-gradient-8);}.cls-9{fill:url(#linear-gradient-9);}.cls-10{fill:url(#linear-gradient-3);}.cls-11{fill:url(#linear-gradient-2);}.cls-12{fill:url(#linear-gradient-4);}.cls-13{fill:url(#linear-gradient-6);}.cls-14{fill:url(#linear-gradient-7);}.cls-15{fill:url(#linear-gradient-5);}.cls-16{fill:url(#linear-gradient-16);mix-blend-mode:screen;}</style><linearGradient id="linear-gradient" x1="-1962.7" y1="-3062.75" x2="-2118.56" y2="-2906.9" gradientTransform="translate(-3240.06 3424.25) rotate(-180) scale(1.7 -1.12)" gradientUnits="userSpaceOnUse"><stop offset="0" stop-color="#ffdc8b"/><stop offset="1" stop-color="#febb21"/></linearGradient><linearGradient id="linear-gradient-2" x1="-231.62" y1="1325.83" x2="-239.97" y2="1334.18" gradientTransform="translate(574.51 1506.8) scale(1.7 -1.12)" xlink:href="#linear-gradient"/><linearGradient id="linear-gradient-3" x1="-216.39" y1="1261.98" x2="-296.4" y2="1341.98" gradientTransform="translate(574.51 1506.8) scale(1.7 -1.12)" gradientUnits="userSpaceOnUse"><stop offset=".25" stop-color="#ededee"/><stop offset="1" stop-color="#8e939c"/></linearGradient><linearGradient id="linear-gradient-4" x1="-262.23" y1="1308.33" x2="-273.28" y2="1319.39" xlink:href="#linear-gradient-3"/><linearGradient id="linear-gradient-5" x1="-244.87" y1="1214.13" x2="-250.28" y2="1219.54" xlink:href="#linear-gradient-3"/><linearGradient id="linear-gradient-6" x1="-156.01" y1="1134.1" x2="-335.4" y2="1313.49" gradientTransform="translate(574.51 1506.8) scale(1.7 -1.12)" gradientUnits="userSpaceOnUse"><stop offset="0" stop-color="#f99e1f"/><stop offset=".7" stop-color="#ee204d"/></linearGradient><linearGradient id="linear-gradient-7" x1="-273.38" y1="1331.09" x2="-279.01" y2="1336.72" xlink:href="#linear-gradient-6"/><linearGradient id="linear-gradient-8" x1="-307.47" y1="1275.47" x2="-316.45" y2="1284.44" xlink:href="#linear-gradient-6"/><linearGradient id="linear-gradient-9" x1="-196.77" y1="1198.32" x2="-360.11" y2="1361.65" xlink:href="#linear-gradient-6"/><linearGradient id="linear-gradient-10" x1="-101.69" y1="1152.93" x2="-279.69" y2="1330.94" xlink:href="#linear-gradient-6"/><linearGradient id="linear-gradient-11" x1="-204.81" y1="1207.13" x2="-301.68" y2="1303.99" xlink:href="#linear-gradient-6"/><linearGradient id="linear-gradient-12" x1="-203.15" y1="1213.37" x2="-318.29" y2="1328.5" gradientTransform="translate(574.51 1506.8) scale(1.7 -1.12)" gradientUnits="userSpaceOnUse"><stop offset=".25" stop-color="#ededee"/><stop offset="1" stop-color="#823b96"/></linearGradient><linearGradient id="linear-gradient-13" x1="-314.69" y1="1308.98" x2="-340.08" y2="1334.37" xlink:href="#linear-gradient-6"/><linearGradient id="linear-gradient-14" x1="-192.33" y1="1219.67" x2="-255.74" y2="1283.08" gradientTransform="translate(574.51 1506.8) scale(1.7 -1.12)" xlink:href="#linear-gradient"/><linearGradient id="linear-gradient-15" x1="-301.67" y1="1331.51" x2="-308.32" y2="1338.16" gradientTransform="translate(574.51 1506.8) scale(1.7 -1.12)" xlink:href="#linear-gradient"/><linearGradient id="linear-gradient-16" x1="-101.7" y1="1139.69" x2="-356.99" y2="1394.98" xlink:href="#linear-gradient-6"/></defs><g class="cls-17"><g id="Layer_1"><g><polygon class="cls-2" points="180 73.09 102.07 21.94 169.6 21.94 180 28.76 180 73.09"/><polygon class="cls-11" points="180 23.49 176.42 23.49 170.2 19.41 170.2 17.04 180 23.47 180 23.49"/><polygon class="cls-10" points="180 84.97 171.74 84.97 112.13 45.85 112.13 23.09 180 67.64 180 84.97"/><polygon class="cls-12" points="123.14 42.68 114.9 37.28 114.9 34.13 127.92 42.68 123.14 42.68"/><polygon class="cls-15" points="155.11 148.78 151.07 146.13 151.07 144.59 157.45 148.78 155.11 148.78"/><polygon class="cls-13" points="180 179.98 98.46 126.46 98.46 75.45 180 128.96 180 179.98"/><polygon class="cls-14" points="106.45 17.99 102.26 15.24 102.26 13.64 108.89 17.99 106.45 17.99"/><polygon class="cls-8" points="46.96 79.71 40.27 75.32 40.27 72.77 50.85 79.71 46.96 79.71"/><polygon class="cls-9" points="180 144.61 169.55 144.61 47.85 64.74 47.85 18.29 180 105.02 180 144.61"/><polygon class="cls-6" points="180 85.26 141.69 60.11 180 60.11 180 85.26"/><polygon class="cls-4" points="180 141.61 78.75 75.16 122.08 75.16 180 113.17 180 141.61"/><polygon class="cls-1" points="180 135.46 53.87 52.68 105.38 52.68 180 101.65 180 135.46"/><polygon class="cls-5" points="11.36 21.95 30.89 34.76 30.89 42.22 0 21.95 11.36 21.95"/><polygon class="cls-3" points="180 108.71 150.75 89.52 179.13 89.52 180 90.09 180 108.71"/><polygon class="cls-7" points="53.56 12.66 58.67 16.02 58.67 17.97 50.58 12.66 53.56 12.66"/><polygon class="cls-16" points="180 123.81 101.98 72.61 101.98 0 180 51.2 180 123.81"/></g></g></g></svg>