<?xml version="1.0" encoding="UTF-8"?>
<svg width="18px" height="18px" viewBox="0 0 18 18" version="1.1" xmlns="http://www.w3.org/2000/svg" xmlns:xlink="http://www.w3.org/1999/xlink">
    <!-- Generator: sketchtool 53.1 (72631) - https://sketchapp.com -->
    <title>2EDB5138-6E02-4038-A0C8-D1275E0B0409hdpi/</title>
    <desc>Created with sketchtool.</desc>
    <g id="Assessment" stroke="none" stroke-width="1" fill="none" fill-rule="evenodd">
        <g id="2-Assessments" transform="translate(-40.000000, -615.000000)" fill="#024F9D" fill-rule="nonzero">
            <g id="Group-7" transform="translate(8.000000, 382.000000)">
                <g id="test-(1)" transform="translate(32.000000, 233.000000)">
                    <path d="M13.6261055,3.3530625 L10.4633437,0.155144531 C10.3672969,0.0588515625 10.1762227,0 10.0898438,0 L0.52734375,0 C0.235863281,0 0,0.235863281 0,0.52734375 L0,17.4726562 C0,17.7641367 0.235863281,18 0.52734375,18 L13.2539062,18 C13.5453867,18 13.78125,17.7641367 13.78125,17.4726562 L13.78125,3.7265625 C13.78125,3.64422656 13.7234531,3.45012891 13.6261055,3.3530625 Z M6.17364844,12.5368945 L4.06427344,14.6462695 C3.96126562,14.7492773 3.82633594,14.8007813 3.69144141,14.8007813 C3.55654687,14.8007813 3.42158203,14.7492773 3.31860937,14.6462695 L2.26392187,13.591582 C2.05787109,13.3856016 2.05787109,13.0518984 2.26388672,12.845918 C2.46986719,12.6399375 2.80360547,12.6399375 3.00958594,12.845918 L3.69140625,13.5277383 L5.42794922,11.7911953 C5.63392969,11.5852148 5.96766797,11.5852148 6.17364844,11.7911953 C6.37962891,11.9971758 6.37962891,12.3309141 6.17364844,12.5368945 Z M6.17364844,8.31814453 L4.06427344,10.4275195 C3.96126562,10.5305273 3.82633594,10.5820313 3.69144141,10.5820313 C3.55654687,10.5820313 3.42158203,10.5305273 3.31860937,10.4275195 L2.26392187,9.37283203 C2.05787109,9.16685156 2.05787109,8.83314844 2.26388672,8.62716797 C2.46986719,8.4211875 2.80360547,8.4211875 3.00958594,8.62716797 L3.69140625,9.30898828 L5.42794922,7.57244531 C5.63392969,7.36646484 5.96766797,7.36646484 6.17364844,7.57244531 C6.37962891,7.77842578 6.37962891,8.11216406 6.17364844,8.31814453 Z M6.17364844,4.09939453 L4.06427344,6.20876953 C3.96126562,6.31177734 3.82633594,6.36328125 3.69144141,6.36328125 C3.55654687,6.36328125 3.42158203,6.31177734 3.31860937,6.20876953 L2.26392187,5.15408203 C2.05787109,4.94810156 2.05787109,4.61439844 2.26388672,4.40841797 C2.46986719,4.2024375 2.80360547,4.2024375 3.00958594,4.40841797 L3.69140625,5.09023828 L5.42794922,3.35369531 C5.63392969,3.14771484 5.96766797,3.14771484 6.17364844,3.35369531 C6.37962891,3.55967578 6.37962891,3.89341406 6.17364844,4.09939453 Z M11.1445312,14.8007812 L7.91015625,14.8007812 C7.61867578,14.8007812 7.3828125,14.564918 7.3828125,14.2734375 C7.3828125,13.981957 7.61867578,13.7460938 7.91015625,13.7460938 L11.1445312,13.7460938 C11.4360117,13.7460938 11.671875,13.981957 11.671875,14.2734375 C11.671875,14.564918 11.4360117,14.8007812 11.1445312,14.8007812 Z M11.1445312,10.5820312 L7.91015625,10.5820312 C7.61867578,10.5820312 7.3828125,10.346168 7.3828125,10.0546875 C7.3828125,9.76320703 7.61867578,9.52734375 7.91015625,9.52734375 L11.1445312,9.52734375 C11.4360117,9.52734375 11.671875,9.76320703 11.671875,10.0546875 C11.671875,10.346168 11.4360117,10.5820312 11.1445312,10.5820312 Z M11.1445312,6.36328125 L7.91015625,6.36328125 C7.61867578,6.36328125 7.3828125,6.12741797 7.3828125,5.8359375 C7.3828125,5.54445703 7.61867578,5.30859375 7.91015625,5.30859375 L11.1445312,5.30859375 C11.4360117,5.30859375 11.671875,5.54445703 11.671875,5.8359375 C11.671875,6.12741797 11.4360117,6.36328125 11.1445312,6.36328125 Z" id="Shape"></path>
                    <g id="noun_pencil-and-ruler_213975" transform="translate(16.475000, 11.000000) rotate(-180.000000) translate(-16.475000, -11.000000) translate(14.975000, 4.000000)">
                        <g id="Group">
                            <path d="M0.115675,13.2664 L2.825025,13.2664 L2.825025,13.2664 C2.825025,13.6403382 2.5218882,13.943475 2.14795,13.943475 L0.79275,13.943475 C0.418811803,13.943475 0.115675,13.6403382 0.115675,13.2664 L0.115675,13.2664 Z" id="Rectangle"></path>
                            <rect id="Rectangle" x="0.115675" y="3.105025" width="2.70935" height="9.822225"></rect>
                            <polygon id="Path" points="1.470525 0.056525 0.115675 2.76605 2.825375 2.76605"></polygon>
                        </g>
                    </g>
                </g>
            </g>
        </g>
    </g>
</svg>