<svg id="Layer_1" enable-background="new 0 0 256 256" height="512" viewBox="0 0 256 256" width="512" xmlns="http://www.w3.org/2000/svg"><g id="Layer_41"><g><path d="m178 40.9-18-18c-1-1-2.4-1.6-3.9-1.6h-75.3c-2.5 0-4.4 2-4.4 4.4v70.5l41.5 38.8c5.7 5.5 14.6 5.5 20.3 0l41.5-38.8v-51.4c-.1-1.5-.7-2.9-1.7-3.9z" fill="#edf4fc"/><path d="m92.4 52.6h71.3c1.1 0 2 .9 2 2v36.3c0 1.1-.9 2-2 2h-71.3c-1.1 0-2-.9-2-2v-36.3c0-1.1.9-2 2-2z" fill="#ef4460"/><path d="m233.5 36.6h-59.8l4.3 4.3c1 1 1.6 2.4 1.6 3.8v33.8h6.7c2.8 0 5.4 1.1 7.4 3.1s3.2 4.7 3.2 7.5v80.5c0 5.8-4.7 10.6-10.6 10.6h-116.6c-3.1 0-6.1-1.4-8.1-3.8-1.6-1.9-2.4-4.3-2.4-6.7v-80.5c0-2.8 1.1-5.5 3.2-7.5 2-1.9 4.7-3 7.4-3h6.7v-42h-54c-6.6 0-12 5.4-12 12v140 .9c.6 6.1 5.8 10.7 11.9 10.6h211.2c6.1.1 11.3-4.5 11.9-10.6 0-.3 0-.6 0-.9v-140c0-6.7-5.4-12.1-12-12.1z" fill="#3a70bf"/><path d="m233.5 46.6h-53.9v32h6.7c5.8 0 10.6 4.7 10.6 10.6v80.5c0 5.8-4.7 10.6-10.6 10.6h-116.6c-3.2 0-6.1-1.4-8.2-3.8-1.6-1.9-2.4-4.3-2.4-6.7v-80.6c0-5.8 4.7-10.6 10.6-10.6h6.7v-32h-53.9c-1.1 0-2 .9-2 2v140 .2c.2.8 1 1.4 1.9 1.3h211.2c.9.1 1.7-.5 1.9-1.4v-.1-140c0-1.1-.9-2-2-2z" fill="#9be5f9"/><g fill="#edf4fc"><path d="m248.6 200.1h-241.2c-2.7 0-4.9 2.2-4.9 4.9 0 7.8 6.3 14.1 14.1 14.1h222.8c7.8 0 14.1-6.3 14.1-14.1 0-2.7-2.2-4.9-4.9-4.9z"/><path d="m76.4 46.6h-53.9c-1.1 0-2 .9-2 2v8.5h55.9z"/><path d="m233.5 46.6h-53.9v10.5h55.9v-8.5c0-1.1-.9-2-2-2z"/></g><path d="m36 46.6h-13.5c-1.1 0-2 .9-2 2v8.5h15.5z" fill="#9be5f9"/><path d="m84 200.1v1.7c0 3.7 3 6.8 6.8 6.8h75.4c3.7 0 6.8-3 6.8-6.8v-1.7z" fill="#c7d7e5"/><path d="m50.8 21.1c-4-.7-7.1-3.8-7.9-7.7 0-.1-.1-.2-.2-.1-.1 0-.1.1-.1.1-.8 4-3.9 7-7.9 7.7-.1 0-.2.1-.1.2 0 .1.1.1.1.1 4 .7 7.1 3.8 7.9 7.7 0 .1.1.2.2.1.1 0 .1-.1.1-.1.8-4 3.9-7 7.9-7.7.1 0 .2-.1.1-.2.1-.1 0-.1-.1-.1z" fill="#f5c84c"/><circle cx="105.7" cy="233.5" fill="#ef4460" r="3"/><circle cx="68" cy="10.8" fill="#70d6f9" r="3"/><circle cx="202.7" cy="21.5" fill="#87d147" r="3"/><path d="m141.3 237.7h-2.1v-2.1c0-1.5-1.3-2.8-2.8-2.8s-2.8 1.3-2.8 2.8v2.1h-2.1c-1.5 0-2.8 1.3-2.8 2.8s1.3 2.8 2.8 2.8h2.1v2.1c0 1.5 1.3 2.8 2.8 2.8s2.8-1.3 2.8-2.8v-2.1h2.1c1.5 0 2.8-1.3 2.8-2.8s-1.3-2.8-2.8-2.8z" fill="#70d6f9"/><path d="m178 40.9-18-18c-.5-.5-1-.8-1.6-1.1v16.2c0 2.5 2 4.4 4.4 4.4h16.2c-.2-.5-.5-1-1-1.5z" fill="#c7d7e5"/><path d="m186.3 78.6h-6.7v17.7l-41.5 38.8c-5.7 5.5-14.6 5.5-20.3 0l-41.4-38.8v-17.7h-6.7c-5.8 0-10.6 4.7-10.6 10.6v80.5c0 5.8 4.7 10.6 10.6 10.6h116.6c5.8 0 10.6-4.7 10.6-10.6v-80.5c0-5.9-4.8-10.6-10.6-10.6z" fill="#f5c84c"/><path d="m194.4 176.4-52.4-44.9-3.9 3.6c-5.7 5.5-14.6 5.5-20.3 0l-3.9-3.6-52.4 44.9c2.1 2.4 5 3.8 8.2 3.8h116.6c3.1 0 6.1-1.4 8.1-3.8z" fill="#fcdd86"/><path d="m76.4 78.6h-6.7c-3.2 0-6.2 1.4-8.2 3.8l14.8 13.9z" fill="#edb311"/><path d="m179.6 96.3 14.8-13.9c-2-2.4-5-3.8-8.2-3.8h-6.7z" fill="#edb311"/><path d="m133.6 61.1-4.8 4.8c-.4.4-1.1.4-1.5 0l-4.8-4.8c-.4-.4-1.1-.4-1.5 0l-4.5 4.5c-.4.4-.4 1.1 0 1.5l4.8 4.8c.4.4.4 1.1 0 1.5l-4.8 4.8c-.4.4-.4 1.1 0 1.5l4.5 4.5c.4.4 1.1.4 1.5 0l4.8-4.8c.4-.4 1.1-.4 1.5 0l4.8 4.8c.4.4 1.1.4 1.5 0l4.5-4.5c.4-.4.4-1.1 0-1.5l-4.8-4.8c-.4-.4-.4-1.1 0-1.5l4.8-4.8c.4-.4.4-1.1 0-1.5l-4.5-4.5c-.4-.4-1.1-.4-1.5 0z" fill="#edf4fc"/><path d="m248.6 197.6h-4c1.9-2.2 3.1-5 3.3-7.9 0-.4 0-.7 0-1.1v-140c0-8-6.5-14.5-14.5-14.5h-58.8l-12.9-12.9c-1.5-1.5-3.5-2.3-5.6-2.3h-75.3c-3.8 0-6.9 3.1-6.9 6.9v8.3h-51.4c-8 0-14.5 6.5-14.5 14.5v140c0 3.3 1.2 6.5 3.4 9h-4c-4.1 0-7.4 3.3-7.4 7.4 0 9.2 7.4 16.6 16.6 16.6h222.8c9.2 0 16.6-7.4 16.6-16.6 0-4.1-3.3-7.4-7.4-7.4zm-87.7-170.2 11 11 1.7 1.7h-10.7c-1.1 0-1.9-.9-1.9-1.9v-10.8zm-82-1.6c0-1.1.9-1.9 1.9-1.9h75.1v14.2c0 3.8 3.1 6.9 6.9 6.9h14.2v50.2l-40.7 38.1c-4.7 4.6-12.2 4.5-16.8-.1l-40.6-38zm154.1 33.8v128h-210v-128h50.9v16.5h-4.2c-7.2 0-13.1 5.9-13.1 13.1v80.5c0 3.1 1.1 6.1 3.2 8.5 2.5 2.8 6.1 4.5 9.8 4.6h.1 116.6.1c7.2 0 13-5.9 13-13.1v-80.5c0-7.2-5.9-13.1-13.1-13.1h-4.2v-16.5zm-50.9-5v-5.5h50.9v5.5zm-159.1 0v-5.5h10.5v5.5zm15.5 0v-5.5h35.4v5.5zm35.4 26.5v9.5l-8.6-8.1c1.3-.9 2.9-1.3 4.5-1.4zm-8.5 95.3 48.5-41.6 2.2 2.1c6.6 6.4 17.1 6.5 23.8.1l2.3-2.1 48.6 41.6c-1.3.8-2.8 1.3-4.3 1.3h-116.8c-1.5-.1-3-.5-4.3-1.4zm120.9-95.3c1.6 0 3.1.5 4.5 1.4l-8.6 8.1v-9.5zm7.6 5.3c.3.9.5 1.8.5 2.8v80.5c0 1-.2 2-.6 2.9l-48-41.2zm-83.7 45-48 41.2c-.4-.9-.5-1.9-.5-2.9v-80.5c0-.9.2-1.9.5-2.8zm-97.2-82.8c0-5.2 4.3-9.5 9.5-9.5h51.4v5h-51.4c-2.5 0-4.5 2-4.5 4.5v140c.1 2.3 2.1 4.1 4.4 4h211.2c2.2.1 4.1-1.5 4.4-3.6 0-.1 0-.2 0-.4v-140c0-2.5-2-4.5-4.5-4.5h-51.4c-.2-1.8-.9-3.5-2.2-4.8 0 0-.1-.1-.1-.1l-.1-.1h53.8c5.2 0 9.5 4.3 9.5 9.5v140 .7c-.5 4.8-4.6 8.4-9.4 8.3h-211.2c-5.1.1-9.3-3.9-9.4-9zm157.4 154c-.4 2-2.2 3.5-4.2 3.5h-75.4c-2.1 0-3.8-1.5-4.2-3.5zm69 14h-222.8c-6.4 0-11.6-5.2-11.6-11.6 0-1.3 1.1-2.4 2.4-2.4h74.1c.4 4.8 4.4 8.5 9.2 8.5h75.4c4.8 0 8.8-3.7 9.2-8.5h73.1c1.3 0 2.4 1.1 2.4 2.4.2 6.4-5 11.6-11.4 11.6z"/><path d="m168.1 90.9v-36.3c0-2.5-2-4.5-4.5-4.5h-71.2c-2.5 0-4.5 2-4.5 4.5v36.3c0 2.5 2 4.5 4.5 4.5h71.3c2.4 0 4.4-2 4.4-4.5zm-5-.5h-70.2v-35.3h70.3z"/><path d="m143.5 104c0-1.4-1.1-2.5-2.5-2.5h-26c-1.4 0-2.5 1.1-2.5 2.5s1.1 2.5 2.5 2.5h26c1.4 0 2.5-1.1 2.5-2.5z"/><path d="m131.9 111.2h-7.8c-1.4 0-2.5 1.1-2.5 2.5s1.1 2.5 2.5 2.5h7.8c1.4 0 2.5-1.1 2.5-2.5s-1.1-2.5-2.5-2.5z"/><path d="m114.6 81.6 4.5 4.5c1.4 1.4 3.7 1.4 5.1 0l3.8-3.8 3.8 3.8c1.4 1.4 3.7 1.4 5.1 0l4.5-4.5c1.4-1.4 1.4-3.7 0-5.1l-3.8-3.8 3.8-3.8c1.4-1.4 1.4-3.7 0-5.1l-4.5-4.5c-1.4-1.4-3.7-1.4-5.1 0l-3.8 3.8-3.8-3.8c-1.4-1.4-3.7-1.4-5.1 0l-4.5 4.5c-1.4 1.4-1.4 3.7 0 5.1l3.8 3.8-3.8 3.8c-1.4 1.5-1.4 3.7 0 5.1zm8.3-11.4-3.8-3.8 2.5-2.5 3.8 3.8c1.4 1.4 3.7 1.4 5.1 0l3.8-3.8 2.5 2.5-3.8 3.8c-1.4 1.4-1.4 3.7 0 5.1l3.8 3.8-2.5 2.5-3.8-3.8c-1.4-1.4-3.7-1.4-5.1 0l-3.8 3.8-2.5-2.5 3.8-3.8c1.4-1.4 1.4-3.7 0-5.1z"/></g></g></svg>