<?xml version="1.0" encoding="UTF-8"?>
<svg width="23px" height="22px" viewBox="0 0 23 22" version="1.1" xmlns="http://www.w3.org/2000/svg" xmlns:xlink="http://www.w3.org/1999/xlink">
    <title>9C3633D0-A1EB-4F92-8888-148303FE9943@2x</title>
    <defs>
        <filter id="filter-1">
            <feColorMatrix in="SourceGraphic" type="matrix" values="0 0 0 0 1.000000 0 0 0 0 0.462745 0 0 0 0 0.282353 0 0 0 1.000000 0"></feColorMatrix>
        </filter>
    </defs>
    <g id="Icons" stroke="none" stroke-width="1" fill="none" fill-rule="evenodd">
        <g id="Bottom-Navigation-icons" transform="translate(-97.000000, -563.000000)">
            <g id="Group-9-Copy-9" transform="translate(0.000000, 524.000000)">
                <g id="Group-5" transform="translate(72.000000, 28.000000)">
                    <g id="Group-Copy-2" transform="translate(25.000000, 11.000000)">
                        <rect id="Rectangle" fill-rule="nonzero" x="0.780788172" y="0" width="21.8620688" height="21.8620688"></rect>
                        <g filter="url(#filter-1)" id="outline-school-24px">
                            <g transform="translate(0.000000, 0.260263)">
                                <path d="M9.95974855,1.06012871 L0.79335088,6.15257186 C0.310567148,6.42078504 0.136623351,7.02958833 0.404836535,7.51237206 C0.495583865,7.67571726 0.630282931,7.81036867 0.793660225,7.90105819 L3.4780564,9.39114663 L3.4780564,9.39114663 L3.4780564,15.8977147 L9.95939518,19.5001731 C10.5636238,19.8360156 11.298445,19.8360156 11.9026736,19.5001731 L18.3840124,15.8977147 L18.3840124,15.8977147 L18.3840124,9.39114663 L20.5134347,8.20912009 L20.5134347,14.6378065 C20.5134347,15.2258303 20.9901221,15.7025177 21.5781459,15.7025177 C22.1661696,15.7025177 22.642857,15.2258303 22.642857,14.6378065 L22.642857,7.6154969 C22.642857,7.25232978 22.4459651,6.91770917 22.1284999,6.74133962 L11.9023203,1.06012871 C11.2982752,0.724548108 10.5637936,0.724548108 9.95974855,1.06012871 Z M18.7389161,7.15722491 L10.9310344,11.4515599 L3.12315269,7.15722491 L10.9310344,2.86288997 L18.7389161,7.15722491 Z M16.3965516,14.723607 L10.9310344,17.6978652 L5.46551721,14.723607 L5.46551721,10.6707717 L10.9310344,13.6450299 L16.3965516,10.6707717 L16.3965516,14.723607 Z" id="Shape" fill="#024F9D" fill-rule="nonzero"></path>
                            </g>
                        </g>
                    </g>
                </g>
            </g>
        </g>
    </g>
</svg>