<?xml version="1.0" encoding="UTF-8"?>
<svg width="18px" height="18px" viewBox="0 0 18 18" version="1.1" xmlns="http://www.w3.org/2000/svg" xmlns:xlink="http://www.w3.org/1999/xlink">
    <title>28C2F27F-C804-47A4-A27C-4F4FFC1AF0E5</title>
    <defs>
        <path d="M17.54,2.23 L16.15,0.55 C15.88,0.21 15.47,0 15,0 L3,0 C2.53,0 2.12,0.21 1.84,0.55 L0.46,2.23 C0.17,2.57 0,3.02 0,3.5 L0,16 C0,17.1 0.9,18 2,18 L16,18 C17.1,18 18,17.1 18,16 L18,3.5 C18,3.02 17.83,2.57 17.54,2.23 L17.54,2.23 Z M9,14.5 L3.5,9 L7,9 L7,7 L11,7 L11,9 L14.5,9 L9,14.5 L9,14.5 Z M2.12,2 L2.93,1 L14.93,1 L15.87,2 L2.12,2 L2.12,2 Z" id="path-1"></path>
    </defs>
    <g id="Icons" stroke="none" stroke-width="1" fill="none" fill-rule="evenodd">
        <g id="Bottom-Navigation-icons" transform="translate(-242.000000, -399.000000)">
            <g id="Group-5-Copy-3" transform="translate(0.000000, 344.000000)">
                <g id="ic_archive" transform="translate(242.000000, 55.000000)">
                    <mask id="mask-2" fill="white">
                        <use xlink:href="#path-1"></use>
                    </mask>
                    <use id="Mask" fill="#B620E0" xlink:href="#path-1"></use>
                </g>
            </g>
        </g>
    </g>
</svg>