<svg xmlns="http://www.w3.org/2000/svg" viewBox="0 0 967 846.63"><defs><style>.cls-1,.cls-7{fill:none;stroke-miterlimit:10;}.cls-1{stroke:#0c519b;stroke-dasharray:12 8;}.cls-10,.cls-2,.cls-9{fill:#0c519b;}.cls-3{fill:#cadcea;}.cls-4{fill:#a4b6c1;}.cls-14,.cls-5{fill:#e55a28;}.cls-6{fill:#ad4a2b;}.cls-7{stroke:#edf4f9;stroke-width:7px;opacity:0.48;}.cls-8{fill:#fff;}.cls-9{opacity:0.17;}.cls-10{opacity:0.2;}.cls-11{fill:#20c688;opacity:0.35;}.cls-12,.cls-13{fill:#20bb83;}.cls-13{opacity:0.32;}.cls-14{fill-rule:evenodd;}.cls-15{fill:#0c4477;}.cls-16{fill:#ebdbcd;}.cls-17{fill:#110580;}.cls-18{fill:#103d66;}.cls-19{fill:#d7e9f4;}.cls-20{fill:#66a896;}</style></defs><g id="Layer_2" data-name="Layer 2"><g id="Layer_1-2" data-name="Layer 1"><path class="cls-1" d="M889.4,104,148.2,237.07A95.76,95.76,0,0,0,72.92,357.85h0A95.77,95.77,0,0,0,180,425.93L782.42,330a95.76,95.76,0,0,1,110.75,91l2,53.47A95.77,95.77,0,0,1,825,570.37l-719.8,198.8"/><path class="cls-2" d="M967,522.73a25.82,25.82,0,0,0-2.72-12l-14.15-33.19a49.66,49.66,0,0,0-31.28-25.77l-66.77-18.49a49.59,49.59,0,0,0-40,6l-29.21,21.19a26,26,0,0,0-8.6,8.89c-3.78,6.64-7.14,17.11,2.47,25.52,12.29,10.77,40,5.17,54.39.29a26,26,0,0,1,15.32-.37L892,507.44c5.05,1.4,10,2.91,13.33,6.89,9.81,11.57,30.32,32,46.4,29.09C964.31,541.08,966.84,530.32,967,522.73Z"/><path class="cls-3" d="M911.43,460.45c3.17.88,6,.61,6.34-.61s-2-2.91-5.13-3.78-6-.61-6.34.61S908.26,459.58,911.43,460.45Z"/><path class="cls-4" d="M911.43,460.44c-3.17-.88-5.44-2.55-5.1-3.77l-.5,1.81c-.34,1.21,2,2.9,5.1,3.77s6,.6,6.31-.61l.51-1.82C917.42,461.06,914.6,461.32,911.43,460.44Z"/><path class="cls-3" d="M934.59,466.86c3.16.88,6,.61,6.34-.61s-2-2.9-5.13-3.78-6-.6-6.34.61S931.42,466,934.59,466.86Z"/><path class="cls-4" d="M934.59,466.85c-3.17-.87-5.44-2.55-5.1-3.76l-.5,1.8c-.34,1.21,1.94,2.9,5.1,3.78s6,.59,6.31-.62l.51-1.82C940.59,467.47,937.76,467.73,934.59,466.85Z"/><path class="cls-3" d="M924.37,458.75c3.17.88,6,.61,6.35-.61s-2-2.91-5.13-3.79-6-.6-6.35.61S921.2,457.87,924.37,458.75Z"/><path class="cls-4" d="M924.37,458.75c-3.17-.88-5.43-2.57-5.1-3.78l-.5,1.83c-.34,1.21,2,2.89,5.1,3.76s6,.61,6.31-.6l.51-1.83C930.37,459.35,927.52,459.62,924.37,458.75Z"/><path class="cls-3" d="M921.51,469.09c3.17.88,6,.6,6.35-.61s-2-2.91-5.13-3.79-6-.6-6.35.61S918.34,468.21,921.51,469.09Z"/><path class="cls-4" d="M921.51,469.09c-3.17-.88-5.44-2.57-5.1-3.78l-.5,1.81c-.34,1.21,2,2.91,5.1,3.78s6,.59,6.31-.62l.51-1.81C927.51,469.69,924.66,470,921.51,469.09Z"/><path class="cls-5" d="M846.57,442.59c5.95,1.65,11.28,1.13,11.91-1.15s-3.68-5.46-9.62-7.1-11.27-1.13-11.9,1.15S840.63,441,846.57,442.59Z"/><path class="cls-6" d="M846.57,442.59c-5.93-1.64-10.24-4.83-9.61-7.1l-1,3.41c-.63,2.28,3.68,5.46,9.62,7.1s11.25,1.14,11.89-1.15l.94-3.41C857.85,443.65,852.51,444.23,846.57,442.59Z"/><path class="cls-5" d="M898.25,473.85c6,1.65,11.27,1.14,11.91-1.14s-3.68-5.46-9.62-7.11-11.27-1.13-11.9,1.15S892.31,472.21,898.25,473.85Z"/><path class="cls-6" d="M898.27,473.86c-5.95-1.65-10.25-4.84-9.62-7.11l-.94,3.41c-.64,2.29,3.66,5.46,9.61,7.11s11.26,1.13,11.89-1.15l.95-3.41C909.51,475,904.19,475.5,898.27,473.86Z"/><path class="cls-3" d="M874.1,448.88c1.55.43,2.95.29,3.11-.31s-1-1.44-2.51-1.86-2.94-.3-3.11.3S872.55,448.45,874.1,448.88Z"/><path class="cls-4" d="M874.1,448.88c-1.55-.44-2.72-1.28-2.55-1.88l-.25.9c-.17.6,1,1.43,2.55,1.87s3,.31,3.16-.29l.24-.9C877.05,449.17,875.66,449.31,874.1,448.88Z"/><path class="cls-3" d="M892,453.83c1.55.43,3,.3,3.11-.3s-1-1.44-2.51-1.87-3-.29-3.11.31S890.46,453.4,892,453.83Z"/><path class="cls-4" d="M892,453.83c-1.55-.43-2.72-1.27-2.55-1.87l-.25.9c-.17.6,1,1.43,2.55,1.87s3,.31,3.16-.29l.25-.9C894.94,454.12,893.55,454.26,892,453.83Z"/><path class="cls-4" d="M871.7,463.17,866,461.59c-.76-.21-1.36-.64-1.27-1l.65-2.37c.09-.31-.45-.74-1.27-1l-5.7-1.58c-.76-.21-1.5-.14-1.59.17l-.66,2.37c-.08.32-.76.39-1.58.16l-5.71-1.58c-.75-.2-1.49-.13-1.58.18l-.83,3c-.09.32.45.74,1.26,1l5.71,1.58c.76.21,1.36.64,1.28.95L854,465.9c-.09.32.45.74,1.27,1l5.71,1.58c.75.21,1.49.14,1.58-.18l.66-2.37c.08-.31.76-.39,1.58-.16l5.71,1.58c.75.21,1.49.14,1.58-.18l.84-3C873,463.8,872.45,463.38,871.7,463.17Z"/><path class="cls-3" d="M872.47,460.38l-5.71-1.58c-.76-.21-1.36-.65-1.27-1l.66-2.37c.08-.31-.46-.72-1.27-.95l-5.71-1.58c-.76-.21-1.5-.15-1.59.16l-.65,2.37c-.09.32-.77.41-1.59.18l-5.71-1.58c-.75-.21-1.49-.15-1.58.16l-.83,3c-.09.32.46.74,1.27,1l5.71,1.58c.75.21,1.35.65,1.27,1l-.66,2.37c-.08.3.46.72,1.27.95l5.71,1.58c.76.21,1.5.14,1.58-.16l.66-2.37c.08-.32.77-.41,1.58-.18l5.71,1.58c.76.21,1.5.14,1.59-.17l.83-3C873.77,461,873.22,460.59,872.47,460.38Z"/><rect class="cls-7" x="297.2" y="50.66" width="372.37" height="774.98" rx="29.96"/><rect class="cls-2" x="283.1" y="32.19" width="398.14" height="811.92" rx="39.27"/><rect class="cls-8" x="293.33" y="44.07" width="377.67" height="788.16" rx="35.22"/><path class="cls-9" d="M326.1,44.07H638.23A32.77,32.77,0,0,1,671,76.84v99.73a0,0,0,0,1,0,0H293.33a0,0,0,0,1,0,0V76.84A32.77,32.77,0,0,1,326.1,44.07Z"/><rect class="cls-10" x="375.14" y="118.3" width="218.97" height="30.38" rx="9.53"/><rect class="cls-10" x="619.72" y="118.3" width="30.38" height="30.38" rx="9.53"/><rect class="cls-10" x="319.15" y="118.3" width="30.38" height="30.38" rx="9.53"/><rect class="cls-10" x="319.15" y="211.72" width="30.38" height="30.38" rx="9.53"/><rect class="cls-9" x="352.37" y="248.43" width="295.12" height="95.73" rx="5"/><path class="cls-10" d="M357.37,248.43h23.7a0,0,0,0,1,0,0v95.73a0,0,0,0,1,0,0h-23.7a5,5,0,0,1-5-5V253.43A5,5,0,0,1,357.37,248.43Z"/><rect class="cls-10" x="319.15" y="361.87" width="30.38" height="30.38" rx="9.53"/><rect class="cls-11" x="352.37" y="398.59" width="295.12" height="95.73" rx="5"/><path class="cls-12" d="M357.37,398.59h23.7a0,0,0,0,1,0,0v95.73a0,0,0,0,1,0,0h-23.7a5,5,0,0,1-5-5V403.59A5,5,0,0,1,357.37,398.59Z"/><rect class="cls-10" x="319.15" y="518.93" width="30.38" height="30.38" rx="9.53"/><rect class="cls-9" x="352.37" y="555.65" width="295.12" height="95.73" rx="5"/><path class="cls-10" d="M357.37,555.65h23.7a0,0,0,0,1,0,0v95.73a0,0,0,0,1,0,0h-23.7a5,5,0,0,1-5-5V560.65A5,5,0,0,1,357.37,555.65Z"/><rect class="cls-10" x="319.15" y="675.26" width="30.38" height="30.38" rx="9.53"/><rect class="cls-11" x="352.37" y="711.98" width="295.12" height="73.43" rx="5"/><path class="cls-12" d="M357.37,712h23.7a0,0,0,0,1,0,0v73.43a0,0,0,0,1,0,0h-23.7a5,5,0,0,1-5-5V717A5,5,0,0,1,357.37,712Z"/><path class="cls-10" d="M529,269.91H413.7a6.11,6.11,0,1,0,0,12.21H529a6.11,6.11,0,1,0,0-12.21Z"/><path class="cls-10" d="M480.54,294.48H413.7a6.11,6.11,0,1,0,0,12.21h66.84a6.11,6.11,0,1,0,0-12.21Z"/><path class="cls-13" d="M529,420.86H413.7a6.11,6.11,0,1,0,0,12.21H529a6.11,6.11,0,1,0,0-12.21Z"/><path class="cls-13" d="M480.54,445.43H413.7a6.11,6.11,0,1,0,0,12.21h66.84a6.11,6.11,0,1,0,0-12.21Z"/><path class="cls-10" d="M529,578.5H413.7a6.11,6.11,0,1,0,0,12.21H529a6.11,6.11,0,1,0,0-12.21Z"/><path class="cls-10" d="M480.54,603.07H413.7a6.11,6.11,0,1,0,0,12.21h66.84a6.11,6.11,0,1,0,0-12.21Z"/><path class="cls-13" d="M529,730.41H413.7a6.11,6.11,0,1,0,0,12.21H529a6.11,6.11,0,1,0,0-12.21Z"/><path class="cls-13" d="M480.54,755H413.7a6.11,6.11,0,1,0,0,12.21h66.84a6.11,6.11,0,1,0,0-12.21Z"/><path class="cls-3" d="M834.88,143.45a11.48,11.48,0,0,0,8.67,9.36A11.59,11.59,0,0,0,848,153l92.55-14.77a11.46,11.46,0,0,0,9.51-13.14L939.89,61.18a2.77,2.77,0,0,0-.36-1,2.9,2.9,0,0,0-.71-.77,2.68,2.68,0,0,0-.94-.43,2.61,2.61,0,0,0-1,0l-110,17.55a2.63,2.63,0,0,0-1,.36,2.67,2.67,0,0,0-1.19,1.65,2.61,2.61,0,0,0,0,1Z"/><path class="cls-2" d="M911.45,12.47,825,48.59a11.47,11.47,0,0,0-7.06,10.63,11.4,11.4,0,0,0,.89,4.39l5.07,11.89a2.67,2.67,0,0,0,1.44,1.44,2.63,2.63,0,0,0,2,0L930.09,34a2.68,2.68,0,0,0,1.42-1.41,2.71,2.71,0,0,0,0-2l-5.07-11.89A11.5,11.5,0,0,0,924,15a11.45,11.45,0,0,0-8.13-3.39A11.71,11.71,0,0,0,911.45,12.47Z"/><path class="cls-2" d="M939.47,58.55,824.27,76.93l4.26,26.72,115.2-18.38Z"/><path class="cls-14" d="M902.55,116.78l-12-4.59-12-4.6L882.59,133l10-8.1Z"/><path class="cls-15" d="M909.13,90.79l7.09-1.13,10.7-29.11-7.1,1.14Z"/><path class="cls-15" d="M874,96.4l7.08-1.13,10.7-29.11-7.09,1.13Z"/><path class="cls-15" d="M856.45,99.2l7.1-1.13L874.23,69l-7.09,1.13Z"/><path class="cls-15" d="M838.88,102l7.11-1.13,10.68-29.11-7.09,1.13Z"/><path class="cls-15" d="M889.7,21.58l6.62-2.77,24.39,19.13-6.62,2.77Z"/><path class="cls-15" d="M873.28,28.42l6.62-2.75L904.3,44.8l-6.64,2.77Z"/><path class="cls-15" d="M856.86,35.28l6.64-2.77,24.39,19.14-6.63,2.76Z"/><path class="cls-15" d="M840.45,42.14l6.64-2.77,24.39,19.12-6.63,2.78Z"/><path class="cls-15" d="M824,49l6.64-2.75,24.39,19.12-6.63,2.77Z"/><g id="planning-sheets-of-paper-coffee-by-oblik-studio"><path class="cls-2" d="M145.2,345.53,74,395.86a4.32,4.32,0,0,1-6.07-1.23L.8,295.18a4.54,4.54,0,0,1,1-6.24l71.21-50.33a4.32,4.32,0,0,1,6.07,1.23l67.12,99.46A4.56,4.56,0,0,1,145.2,345.53Z"/><path class="cls-3" d="M154.08,325.81,76.41,365a4.35,4.35,0,0,1-5.86-2.11l-53-107.94a4.49,4.49,0,0,1,1.89-6l77.65-39.17a4.35,4.35,0,0,1,5.86,2.11l53,108A4.46,4.46,0,0,1,154.08,325.81Z"/><path class="cls-8" d="M54.07,277.87a8.78,8.78,0,1,0-11.13-5.49A8.78,8.78,0,0,0,54.07,277.87Z"/><path class="cls-8" d="M67.1,304.08A8.78,8.78,0,1,0,56,298.59,8.77,8.77,0,0,0,67.1,304.08Z"/><path class="cls-8" d="M80.15,330.29A8.78,8.78,0,1,0,69,324.8,8.77,8.77,0,0,0,80.15,330.29Z"/><path class="cls-8" d="M100.33,243.31l-32.18,16a2.22,2.22,0,1,1-2-4l32.18-16a2.25,2.25,0,0,1,3,1A2.22,2.22,0,0,1,100.33,243.31Z"/><path class="cls-8" d="M92.6,255.76l-21,10.45a2.22,2.22,0,0,1-2-4l21-10.45a2.22,2.22,0,0,1,2,4Z"/><path class="cls-8" d="M126.43,295.75l-32.18,16a2.22,2.22,0,1,1-2-4l32.18-16a2.22,2.22,0,0,1,2,4Z"/><path class="cls-8" d="M118.69,308.18l-21,10.46a2.22,2.22,0,1,1-2-4l21-10.46a2.22,2.22,0,0,1,2,4Z"/><path class="cls-8" d="M113.37,269.52l-32.18,16a2.22,2.22,0,0,1-2-4l32.18-16a2.24,2.24,0,0,1,3,1A2.21,2.21,0,0,1,113.37,269.52Z"/><path class="cls-8" d="M105.64,282l-21,10.45a2.22,2.22,0,1,1-2-4l21-10.45a2.22,2.22,0,0,1,2,4Z"/><path class="cls-2" d="M49.77,250.76A122.85,122.85,0,0,0,48.89,264a6.27,6.27,0,0,0-5.21-1.14,2.88,2.88,0,0,0-2.19,1.93c-.05.17-.08.37-.12.55-.24,1.15.12,2.76,1.52,3a9.1,9.1,0,0,1,3,.78,17.7,17.7,0,0,1,3.75,3.2A2.81,2.81,0,0,0,54.47,270a181.38,181.38,0,0,1-1.54-19A1.58,1.58,0,0,0,49.77,250.76Z"/><path class="cls-2" d="M86.23,173.42l-3.6-1.54a2.42,2.42,0,0,0-3.17,1.26l-25,58.11,8,3.43,25-58.11A2.39,2.39,0,0,0,86.23,173.42Z"/><path class="cls-16" d="M62.47,234.7l-8-3.46L52.9,243.58l1.66.71Z"/><path class="cls-2" d="M54.74,238.16l1,1.12,1,.09,1.07.94-3.29,4-1.66-.71.63-5Z"/><path class="cls-2" d="M8.17,339.34a.4.4,0,0,1,.15,0l.64,0c1.47-.06,3-.12,4.61-.15a.43.43,0,0,1,0,.86c-1.6,0-3.11.07-4.57.14l-.64,0a.43.43,0,0,1-.45-.42A.42.42,0,0,1,8.17,339.34Zm10.45,0a.53.53,0,0,1,.19,0A38.74,38.74,0,0,1,24,340a.42.42,0,0,1,.33.51.42.42,0,0,1-.51.33,40.38,40.38,0,0,0-5.12-.69.45.45,0,0,1-.4-.46A.48.48,0,0,1,18.62,339.32Zm10.16,2.2a.4.4,0,0,1,.32,0,23.49,23.49,0,0,1,4.67,2.5.43.43,0,0,1,.12.58.46.46,0,0,1-.59.13,23.86,23.86,0,0,0-4.52-2.41.44.44,0,0,1-.23-.56A.4.4,0,0,1,28.78,341.52Zm8.56,5.83a.43.43,0,0,1,.48.09A23.58,23.58,0,0,1,41,351.66a.43.43,0,1,1-.73.46,23.85,23.85,0,0,0-3.11-4.07.45.45,0,0,1,0-.61A.22.22,0,0,1,37.34,347.35Zm-.44,6.18a23.38,23.38,0,0,1,2.75-.94.42.42,0,0,1,.53.3.43.43,0,0,1-.31.53,18.55,18.55,0,0,0-2.63.92,20,20,0,0,0-2.07,1,.42.42,0,0,1-.58-.14.43.43,0,0,1,.15-.59A16.29,16.29,0,0,1,36.9,353.53Zm7.83-1.72a.39.39,0,0,1,.16,0,49.55,49.55,0,0,1,5.25,0,.42.42,0,0,1,.42.44.43.43,0,0,1-.45.42c-2.08-.06-3.68-.07-5.18,0a.42.42,0,0,1-.45-.39A.46.46,0,0,1,44.73,351.81ZM30.83,358a.38.38,0,0,1,.42,0,.43.43,0,0,1,.07.62,10.6,10.6,0,0,0-1.38,2.27,8.66,8.66,0,0,0-.65,2.24.43.43,0,0,1-.85-.12,9.18,9.18,0,0,1,.71-2.46,12.39,12.39,0,0,1,1.48-2.45Zm11.79-1.75h.05a.42.42,0,0,1,.53.29,15.29,15.29,0,0,1,.64,5.29.44.44,0,0,1-.46.39.43.43,0,0,1-.4-.45,14.61,14.61,0,0,0-.6-5A.38.38,0,0,1,42.62,356.23ZM55.18,352a.38.38,0,0,1,.19,0c.61,0,1.22.05,1.82.05,1.19,0,2.29,0,3.35,0a.43.43,0,0,1,.45.42.42.42,0,0,1-.42.44c-1.08,0-2.19.06-3.41,0-.61,0-1.23,0-1.85-.07a.44.44,0,0,1-.42-.44A.45.45,0,0,1,55.18,352Zm23.55-8.23a.48.48,0,0,1,.42,0,.44.44,0,0,1,.11.61,17.49,17.49,0,0,1-3.7,3.85.41.41,0,0,1-.59-.08.42.42,0,0,1,.08-.6A15.73,15.73,0,0,0,78.54,344,.32.32,0,0,1,78.73,343.8Zm-13.15,7.73.09,0a24.78,24.78,0,0,0,4.94-1.39.41.41,0,0,1,.55.24.42.42,0,0,1-.24.55,25.15,25.15,0,0,1-5.11,1.42.41.41,0,0,1-.23-.79ZM29.44,367.78A.44.44,0,0,1,30,368a5.49,5.49,0,0,0,2.79,2.77,7.13,7.13,0,0,0,.78.26.47.47,0,0,1,.32.53.45.45,0,0,1-.52.32,5.63,5.63,0,0,1-.9-.31,6.39,6.39,0,0,1-3.23-3.19.43.43,0,0,1,.19-.57S29.44,367.78,29.44,367.78Zm12.42-1.38a.35.35,0,0,1,.37,0,.42.42,0,0,1,.15.58,10.46,10.46,0,0,1-3.72,3.89.45.45,0,0,1-.6-.16.42.42,0,0,1,.15-.58,9.83,9.83,0,0,0,3.42-3.59A1,1,0,0,1,41.86,366.4Z"/><path class="cls-5" d="M138.25,303.7a19.41,19.41,0,1,0,.6-27.29A19.31,19.31,0,0,0,138.25,303.7Z"/><path class="cls-5" d="M169.21,313.53l-14.83-15.3a4,4,0,0,1,.1-5.63l0,0a4,4,0,0,1,5.64.1L175,308a4,4,0,0,1-.09,5.64l0,0A4,4,0,0,1,169.21,313.53Z"/><path class="cls-8" d="M141.78,300.28a14.5,14.5,0,1,0,.46-20.37A14.41,14.41,0,0,0,141.78,300.28Z"/><path class="cls-16" d="M144.83,286.29a2.44,2.44,0,0,1,1.92-1.74c1-.11,1.58.58,1.95,1.41.74,1.67,1.22,4,3.38,4.3,1.92.32,3.32-1.23,4.43-2.55a3.86,3.86,0,0,1,2.14-1.63c1-.15,1.56.78,1.82,1.59.32,1.06,1.91.37,1.59-.69a3.37,3.37,0,0,0-4.83-2.23,9.93,9.93,0,0,0-2.62,2.55c-.58.66-1.57,1.58-2.53,1.14s-1.27-1.93-1.64-2.86a4.28,4.28,0,0,0-2.18-2.55c-2.14-.87-4.29.62-5,2.62A.87.87,0,0,0,144.83,286.29Z"/><path class="cls-16" d="M143.35,293.27c1.06-1.76,3.15.43,4,1.28,1.07,1.16,2.26,2.95,3.95,3.23,1.52.24,2.84-.78,3.84-1.79,1.21-1.19,2.47-2.12,4.21-1.41,1,.43,1.65-1.19.61-1.62a4.81,4.81,0,0,0-4.76.63c-1.11.84-2.69,3.34-4.32,2.15a17.86,17.86,0,0,1-2.1-2.16,11.52,11.52,0,0,0-2.18-2c-1.45-.92-3.64-1-4.61.66C141.4,293.19,142.77,294.22,143.35,293.27Z"/></g><path class="cls-2" d="M794.93.07a.66.66,0,0,1,.17.12l.53.63c1.24,1.46,2.54,3,3.85,4.61a.56.56,0,0,1,.09.4.57.57,0,0,1-.2.36.55.55,0,0,1-.39.12.53.53,0,0,1-.37-.18C797.3,4.51,796,3,794.78,1.55l-.54-.63a.55.55,0,0,1-.13-.41.56.56,0,0,1,.19-.38.61.61,0,0,1,.31-.13A.6.6,0,0,1,794.93.07Zm8.43,10.7a.45.45,0,0,1,.21.15,50.38,50.38,0,0,1,3.46,6,.55.55,0,0,1,0,.4.56.56,0,0,1-.68.34.6.6,0,0,1-.32-.24,50,50,0,0,0-3.4-5.78.5.5,0,0,1-.08-.2.54.54,0,0,1,0-.22.5.5,0,0,1,.08-.2.81.81,0,0,1,.16-.16.55.55,0,0,1,.28-.09.45.45,0,0,1,.28.06ZM809.23,23a.75.75,0,0,1,.17.14.72.72,0,0,1,.09.2,33.42,33.42,0,0,1,1.21,6.81.56.56,0,0,1-.14.41.58.58,0,0,1-.39.19.5.5,0,0,1-.4-.13.59.59,0,0,1-.2-.39,31.3,31.3,0,0,0-1.16-6.58.54.54,0,0,1,0-.22.83.83,0,0,1,.06-.21.57.57,0,0,1,.15-.16.5.5,0,0,1,.19-.1.56.56,0,0,1,.22,0A.52.52,0,0,1,809.23,23Zm.92,13.51a.59.59,0,0,1,.23.24.57.57,0,0,1,0,.34,31,31,0,0,1-1.75,6.7.62.62,0,0,1-.12.19.59.59,0,0,1-.18.13.52.52,0,0,1-.21,0,.56.56,0,0,1-.22,0,.59.59,0,0,1-.32-.72,30.26,30.26,0,0,0,1.68-6.46.55.55,0,0,1,.22-.37.57.57,0,0,1,.42-.11A.84.84,0,0,1,810.15,36.49ZM803.43,41a27.2,27.2,0,0,1,3.17,2.05.55.55,0,0,1,.22.37.51.51,0,0,1-.1.41.55.55,0,0,1-.37.22.5.5,0,0,1-.41-.1,27.84,27.84,0,0,0-3.05-2,24.25,24.25,0,0,0-2.73-1.28.42.42,0,0,1-.18-.11.46.46,0,0,1-.13-.18.54.54,0,0,1,0-.22.51.51,0,0,1,0-.21.76.76,0,0,1,.12-.19.83.83,0,0,1,.18-.13.78.78,0,0,1,.21,0,.57.57,0,0,1,.22,0A22.56,22.56,0,0,1,803.44,41Zm8.06,6.66a.72.72,0,0,1,.15.11,67.23,67.23,0,0,1,4.26,5.38.58.58,0,0,1-.18.69.66.66,0,0,1-.36.11.56.56,0,0,1-.35-.15,64.85,64.85,0,0,0-4.2-5.29.61.61,0,0,1-.15-.36.58.58,0,0,1,.13-.38.59.59,0,0,1,.33-.2.59.59,0,0,1,.39.07ZM794,38.41a.51.51,0,0,1,.29.48.58.58,0,0,1-.16.4.56.56,0,0,1-.4.17,14.36,14.36,0,0,0-3.46.4A10.59,10.59,0,0,0,787.43,41a.59.59,0,0,1-.43.05.56.56,0,0,1-.34-.26.59.59,0,0,1,0-.43.56.56,0,0,1,.26-.34,12.46,12.46,0,0,1,3.1-1.26,15.42,15.42,0,0,1,3.71-.43.53.53,0,0,1,.3.07Zm11.24,10.7,0,0a.57.57,0,0,1,.15.16.66.66,0,0,1,.08.21.55.55,0,0,1,0,.22.66.66,0,0,1-.09.19,20.55,20.55,0,0,1-4.94,5A.56.56,0,0,1,800,55a.61.61,0,0,1-.36-.23.56.56,0,0,1,.14-.78,19.55,19.55,0,0,0,4.71-4.72.58.58,0,0,1,.71-.15Zm14.43,9.49a.48.48,0,0,1,.2.15l1.4,1.93c.94,1.25,1.82,2.36,2.73,3.42a.61.61,0,0,1,.13.41.59.59,0,0,1-.2.38.52.52,0,0,1-.19.11.56.56,0,0,1-.22,0,.83.83,0,0,1-.21-.06.46.46,0,0,1-.17-.14c-.91-1.08-1.82-2.22-2.76-3.48-.48-.64-1-1.29-1.43-1.94a.57.57,0,0,1,0-.7.52.52,0,0,1,.32-.18.53.53,0,0,1,.37.06ZM847,76.13a.49.49,0,0,1,.29.45.42.42,0,0,1,0,.22.52.52,0,0,1-.11.19.7.7,0,0,1-.17.13.54.54,0,0,1-.21,0,22.17,22.17,0,0,1-6.93-.67.52.52,0,0,1-.2-.09.54.54,0,0,1-.14-.16.9.9,0,0,1-.08-.21.55.55,0,0,1,0-.22.59.59,0,0,1,.26-.34.52.52,0,0,1,.42-.06,21.46,21.46,0,0,0,6.58.63.6.6,0,0,1,.35.08Zm-18.5-7.27a.39.39,0,0,1,.1.08,33.6,33.6,0,0,0,5.39,4,.55.55,0,0,1,.22.32.59.59,0,0,1-.05.39.57.57,0,0,1-.29.26.58.58,0,0,1-.39,0,33.91,33.91,0,0,1-5.56-4.12.54.54,0,0,1-.19-.38.57.57,0,0,1,.14-.41.56.56,0,0,1,.68-.09Zm-45.78-24a.59.59,0,0,1,.28.32.56.56,0,0,1,0,.42,7.31,7.31,0,0,0-.61,5.11,7,7,0,0,0,.35,1,.5.5,0,0,1-.05.36.57.57,0,0,1-.26.25.53.53,0,0,1-.35,0,.61.61,0,0,1-.31-.18,9.53,9.53,0,0,1-.41-1.17,8.34,8.34,0,0,1,.69-5.9.51.51,0,0,1,.32-.27.51.51,0,0,1,.42,0Zm11.42,11.63a.52.52,0,0,1,.19.17.72.72,0,0,1,.1.24.55.55,0,0,1,0,.22.54.54,0,0,1-.1.2.57.57,0,0,1-.16.15.48.48,0,0,1-.21.07,13.92,13.92,0,0,1-7-.67.45.45,0,0,1-.19-.11.44.44,0,0,1-.12-.18.41.41,0,0,1-.05-.21.54.54,0,0,1,0-.22.52.52,0,0,1,.11-.19.57.57,0,0,1,.18-.12.54.54,0,0,1,.22,0,.51.51,0,0,1,.21,0,12.75,12.75,0,0,0,6.42.63.52.52,0,0,1,.37.05Z"/><path class="cls-17" d="M71.28,846.58a.74.74,0,0,1-.25-.21.62.62,0,0,1-.09-.32.58.58,0,0,1,.58-.59h2.85V842.6a.52.52,0,0,1,0-.25.63.63,0,0,1,.12-.21,1,1,0,0,1,.2-.14.49.49,0,0,1,.47,0,1,1,0,0,1,.2.14.88.88,0,0,1,.12.21.52.52,0,0,1,0,.25v4h-4A1,1,0,0,1,71.28,846.58Z"/><path class="cls-17" d="M12.71,846.54a.57.57,0,0,1-.25-.21.6.6,0,0,1-.1-.32.51.51,0,0,1,0-.22.46.46,0,0,1,.13-.2.67.67,0,0,1,.19-.14.59.59,0,0,1,.23,0h7.33a.58.58,0,0,1,.41.17.57.57,0,0,1,.17.42.43.43,0,0,1,0,.22.76.76,0,0,1-.13.2.7.7,0,0,1-.19.13.57.57,0,0,1-.22,0H13A1,1,0,0,1,12.71,846.54Zm14.64,0a.63.63,0,0,1-.28-.28.56.56,0,0,1-.05-.38.66.66,0,0,1,.2-.34.62.62,0,0,1,.37-.13h7.32a.56.56,0,0,1,.38.19.59.59,0,0,1,.15.4.56.56,0,0,1-.15.39.6.6,0,0,1-.38.19H27.59a.5.5,0,0,1-.24,0Zm14.65,0a.63.63,0,0,1-.28-.28.56.56,0,0,1,0-.38.55.55,0,0,1,.2-.34.59.59,0,0,1,.36-.13h7.32a.93.93,0,0,1,.24,0,.57.57,0,0,1,.21.13.56.56,0,0,1,.14.2.49.49,0,0,1,0,.24.46.46,0,0,1,0,.23.48.48,0,0,1-.14.2.72.72,0,0,1-.21.12.48.48,0,0,1-.24,0H42.23a.45.45,0,0,1-.23,0Zm14.64,0a.63.63,0,0,1-.28-.28.56.56,0,0,1,0-.38.66.66,0,0,1,.2-.34.64.64,0,0,1,.37-.13H64.2a.58.58,0,0,1,.41.17.58.58,0,0,1,0,.84.63.63,0,0,1-.41.17H56.88a.66.66,0,0,1-.24,0Z"/><path class="cls-17" d="M1.6,846.58v-4a.57.57,0,0,1,.17-.42.58.58,0,0,1,.41-.17.55.55,0,0,1,.41.17.58.58,0,0,1,.18.42v2.86H5.63a.58.58,0,0,1,.41.17.57.57,0,0,1,.17.42.53.53,0,0,1-.17.4.55.55,0,0,1-.41.18Z"/><path class="cls-17" d="M2,836.26a.64.64,0,0,1-.25-.21.6.6,0,0,1-.1-.31v-6.82a.55.55,0,0,1,.17-.41.56.56,0,0,1,.41-.19.6.6,0,0,1,.23.06.44.44,0,0,1,.19.12,1,1,0,0,1,.12.19.47.47,0,0,1,0,.23v6.82a.68.68,0,0,1-.07.27.64.64,0,0,1-.2.2.62.62,0,0,1-.27.09.55.55,0,0,1-.28,0ZM2,822.6a.51.51,0,0,1-.25-.21.63.63,0,0,1-.1-.3v-6.85a.66.66,0,0,1,.19-.38.63.63,0,0,1,.4-.14.62.62,0,0,1,.39.14.6.6,0,0,1,.19.38v6.84a.6.6,0,0,1-.17.41.59.59,0,0,1-.42.17A.49.49,0,0,1,2,822.6ZM2,809a.57.57,0,0,1-.34-.51V801.6a.58.58,0,0,1,.17-.41.54.54,0,0,1,.41-.17.55.55,0,0,1,.42.17.58.58,0,0,1,.17.41v6.85a.5.5,0,0,1-.08.26.55.55,0,0,1-.19.21.72.72,0,0,1-.27.09A.66.66,0,0,1,2,809Z"/><path class="cls-17" d="M2,795.32a.63.63,0,0,1-.25-.21.67.67,0,0,1-.1-.31v-4h4a.57.57,0,0,1,.22,0,.62.62,0,0,1,.32.32.57.57,0,0,1,0,.22.59.59,0,0,1,0,.23.5.5,0,0,1-.13.19.64.64,0,0,1-.19.13.57.57,0,0,1-.22,0H2.8v2.87a.57.57,0,0,1,0,.22.5.5,0,0,1-.13.19.46.46,0,0,1-.18.13.62.62,0,0,1-.23,0A.52.52,0,0,1,2,795.32Z"/><path class="cls-17" d="M12.74,791.88a.61.61,0,0,1-.28-.27.59.59,0,0,1-.05-.39.59.59,0,0,1,.2-.33.57.57,0,0,1,.37-.14H20.3a.6.6,0,0,1,.38.19.59.59,0,0,1,.15.4.58.58,0,0,1-.15.39.56.56,0,0,1-.38.19H13A.67.67,0,0,1,12.74,791.88Zm14.65,0a.61.61,0,0,1-.28-.27.59.59,0,0,1-.05-.39.6.6,0,0,1,.56-.47h7.32a.48.48,0,0,1,.24,0,.55.55,0,0,1,.21.12.75.75,0,0,1,.15.2.61.61,0,0,1,0,.24.59.59,0,0,1,0,.23.62.62,0,0,1-.15.2.57.57,0,0,1-.21.13.63.63,0,0,1-.24,0H27.62a.58.58,0,0,1-.23,0Zm14.64,0a.64.64,0,0,1-.25-.21.71.71,0,0,1-.1-.31.59.59,0,0,1,0-.23.59.59,0,0,1,.13-.19.41.41,0,0,1,.19-.12.54.54,0,0,1,.22-.05h7.32A.63.63,0,0,1,50,791a.59.59,0,0,1,.15.4.56.56,0,0,1-.15.39.58.58,0,0,1-.38.19H42.26a.45.45,0,0,1-.23,0Zm14.65,0a.67.67,0,0,1-.26-.21.71.71,0,0,1-.1-.31.6.6,0,0,1,.18-.42.57.57,0,0,1,.41-.17h7.32a.57.57,0,0,1,.41.17.57.57,0,0,1,0,.83.57.57,0,0,1-.41.17H56.91a.45.45,0,0,1-.23,0Z"/><path class="cls-17" d="M74.75,795.36a.55.55,0,0,1-.25-.2.63.63,0,0,1-.1-.32V792H71.54a.5.5,0,0,1-.24,0,.75.75,0,0,1-.21-.12.72.72,0,0,1-.14-.2.6.6,0,0,1,0-.24.61.61,0,0,1,.19-.43.57.57,0,0,1,.21-.12.5.5,0,0,1,.24,0h4v4a.6.6,0,0,1-.07.27.58.58,0,0,1-.2.21.62.62,0,0,1-.27.09.56.56,0,0,1-.28,0Z"/><path class="cls-17" d="M74.75,836.3a.57.57,0,0,1-.25-.21.63.63,0,0,1-.1-.31v-6.84a.62.62,0,0,1,.18-.42.58.58,0,0,1,.82,0,.62.62,0,0,1,.18.42v6.82a.65.65,0,0,1-.08.28.64.64,0,0,1-.19.21.53.53,0,0,1-.27.08.52.52,0,0,1-.28,0Zm0-13.64a.57.57,0,0,1-.25-.21.58.58,0,0,1-.1-.32v-6.81a.52.52,0,0,1,0-.25.5.5,0,0,1,.12-.21.94.94,0,0,1,.19-.14.6.6,0,0,1,.48,0l.2.14a.88.88,0,0,1,.12.21,1,1,0,0,1,0,.25v6.83a.6.6,0,0,1-.17.4.59.59,0,0,1-.42.17A.46.46,0,0,1,74.75,822.66Zm0-13.65a.64.64,0,0,1-.25-.21.71.71,0,0,1-.1-.31v-6.84a.66.66,0,0,1,.19-.38.57.57,0,0,1,.79,0,.56.56,0,0,1,.19.38v6.81a.67.67,0,0,1,0,.24.75.75,0,0,1-.13.18.5.5,0,0,1-.19.13.68.68,0,0,1-.46,0Z"/><path class="cls-2" d="M202.48,714.85H122.32A12.17,12.17,0,0,0,110.19,727h0A12.17,12.17,0,0,0,98,714.85H17.87a1.57,1.57,0,0,0-1.12.47,1.61,1.61,0,0,0-.47,1.13v101a1.61,1.61,0,0,0,.47,1.13,1.56,1.56,0,0,0,1.12.46h82.71a10.46,10.46,0,0,0,3.85,4,10.64,10.64,0,0,0,5.36,1.5h.8a10.59,10.59,0,0,0,9.22-5.51h82.67a1.62,1.62,0,0,0,1.13-.48,1.64,1.64,0,0,0,.46-1.13v-101a1.48,1.48,0,0,0-.11-.62,1.55,1.55,0,0,0-.34-.53,1.43,1.43,0,0,0-.52-.36A1.68,1.68,0,0,0,202.48,714.85Z"/><path class="cls-18" d="M196.46,719H121.15a11,11,0,0,0-11,11h0a11,11,0,0,0-3.21-7.77A11,11,0,0,0,99.21,719H23.91a1.29,1.29,0,0,0-.55.11,1.33,1.33,0,0,0-.47.31,1.44,1.44,0,0,0-.31.46,1.54,1.54,0,0,0-.1.56v91.24a1.31,1.31,0,0,0,.1.55,1.25,1.25,0,0,0,.31.47,1.14,1.14,0,0,0,.47.31,1.3,1.3,0,0,0,.55.12h77.6a9.5,9.5,0,0,0,8.3,5h.74a9.5,9.5,0,0,0,8.3-5h77.61a1.47,1.47,0,0,0,1-.42,1.45,1.45,0,0,0,.42-1V720.44a1.54,1.54,0,0,0-.1-.56,1.47,1.47,0,0,0-.32-.46,1.42,1.42,0,0,0-1-.42Z"/><path class="cls-19" d="M121.9,704.1h72.17a1.55,1.55,0,0,1,1.54,1.54v103.5a1.58,1.58,0,0,1-.45,1.09,1.54,1.54,0,0,1-1.09.45H116a5.66,5.66,0,0,1-2.23-.45,5.82,5.82,0,0,1-3.6-5.4v-89a11.71,11.71,0,0,1,11.7-11.74Z"/><path class="cls-3" d="M104.34,810.68h-78a1.51,1.51,0,0,1-1.08-.45,1.54,1.54,0,0,1-.45-1.09V705.64a1.5,1.5,0,0,1,.45-1.08,1.52,1.52,0,0,1,1.08-.46H98.49a11.73,11.73,0,0,1,11.7,11.74v89a5.74,5.74,0,0,1-.45,2.24,5.69,5.69,0,0,1-1.26,1.9,6.12,6.12,0,0,1-1.9,1.28A5.91,5.91,0,0,1,104.34,810.68Z"/><path class="cls-8" d="M41.75,755.23a6,6,0,1,0-5.94-6A6,6,0,0,0,41.75,755.23Z"/><path class="cls-8" d="M94.93,745.24H54.17a1.25,1.25,0,0,0,0,2.5H94.93a1.25,1.25,0,1,0,0-2.5Z"/><path class="cls-8" d="M82.31,751H54.17a1.25,1.25,0,0,0,0,2.5H82.31a1.25,1.25,0,0,0,0-2.5Z"/><path class="cls-8" d="M41.75,795.82a6,6,0,1,0-5.94-6A6,6,0,0,0,41.75,795.82Z"/><path class="cls-8" d="M94.93,791.59H54.17a1.25,1.25,0,0,0,0,2.5H94.93a1.25,1.25,0,0,0,0-2.5Z"/><path class="cls-8" d="M82.31,785.83H54.17a1.25,1.25,0,0,0,0,2.5H82.31a1.25,1.25,0,0,0,0-2.5Z"/><path class="cls-8" d="M41.75,775.53a6,6,0,1,0-5.94-6A6,6,0,0,0,41.75,775.53Z"/><path class="cls-8" d="M94.93,771.3H54.17a1.25,1.25,0,0,0,0,2.5H94.93a1.25,1.25,0,1,0,0-2.5Z"/><path class="cls-8" d="M88.62,765.54H54.17a1.25,1.25,0,0,0,0,2.49H88.62a1.25,1.25,0,0,0,0-2.49Z"/><path class="cls-8" d="M128.51,755.23a6,6,0,1,0-5.94-6A6,6,0,0,0,128.51,755.23Z"/><path class="cls-8" d="M181.7,771.34H140.94a1.26,1.26,0,0,0-1.25,1.26,1.24,1.24,0,0,0,1.25,1.24H181.7a1.24,1.24,0,0,0,1.24-1.24A1.26,1.26,0,0,0,181.7,771.34Z"/><path class="cls-8" d="M169.07,765.58H140.94a1.25,1.25,0,1,0,0,2.5h28.13a1.25,1.25,0,1,0,0-2.5Z"/><path class="cls-8" d="M128.51,795.82a6,6,0,1,0-5.94-6A6,6,0,0,0,128.51,795.82Z"/><path class="cls-8" d="M181.7,745.24H140.94a1.25,1.25,0,0,0,0,2.5H181.7a1.25,1.25,0,0,0,0-2.5Z"/><path class="cls-8" d="M169.07,751H140.94a1.25,1.25,0,0,0,0,2.5h28.13a1.25,1.25,0,0,0,0-2.5Z"/><path class="cls-8" d="M128.51,775.53a6,6,0,1,0-5.94-6A6,6,0,0,0,128.51,775.53Z"/><path class="cls-8" d="M181.7,785.93H140.94a1.25,1.25,0,1,0,0,2.49H181.7a1.25,1.25,0,0,0,0-2.49Z"/><path class="cls-8" d="M175.38,791.69H140.94a1.25,1.25,0,0,0,0,2.5h34.44a1.25,1.25,0,0,0,0-2.5Z"/><path class="cls-20" d="M73.68,714.26A105.42,105.42,0,0,0,65.53,725a8.74,8.74,0,0,0-5.4-3.45c-1.21-.21-2.78-.22-3.57.57-.14.12-.28.27-.43.4-.9.85-1.34,2.37.13,3.28a12.8,12.8,0,0,1,3.05,2.08,16.87,16.87,0,0,1,2.6,4.48c1.15,2.64,5.82,2.75,6.84.31a138.16,138.16,0,0,1,8.45-16.69C78.24,714.22,75.08,712.66,73.68,714.26Z"/><path class="cls-17" d="M95.88,692.27a.31.31,0,0,1-.19,0,.44.44,0,0,1-.28-.22.5.5,0,0,1,0-.34,12.8,12.8,0,0,1,1-2.61.49.49,0,0,1,.27-.22.47.47,0,0,1,.35,0,.46.46,0,0,1,.22.27.45.45,0,0,1,0,.34,11.69,11.69,0,0,0-1,2.41.37.37,0,0,1-.14.22A.41.41,0,0,1,95.88,692.27Z"/><path class="cls-17" d="M171.52,710.06a.49.49,0,0,1-.17,0l-.65-.15c-1.53-.35-3.11-.72-4.77-1.16a.43.43,0,0,1-.25-.21.42.42,0,0,1,0-.33.51.51,0,0,1,.19-.28.48.48,0,0,1,.33-.06c1.65.43,3.22.8,4.74,1.14l.66.16a.41.41,0,0,1,.28.2.43.43,0,0,1,.06.35.43.43,0,0,1-.14.23A.44.44,0,0,1,171.52,710.06Zm-10.73-2.92a.38.38,0,0,1-.21,0,40.51,40.51,0,0,1-5.16-2.22.46.46,0,0,1-.19-.26.47.47,0,0,1,0-.33.42.42,0,0,1,.25-.22.47.47,0,0,1,.33,0,40.33,40.33,0,0,0,5,2.13.56.56,0,0,1,.15.1.49.49,0,0,1,.11.14.39.39,0,0,1,0,.18.32.32,0,0,1,0,.17.48.48,0,0,1-.14.2.44.44,0,0,1-.22.1ZM151,702a.49.49,0,0,1-.17,0,.4.4,0,0,1-.16-.08,27,27,0,0,1-4.1-3.89.44.44,0,0,1-.11-.33.47.47,0,0,1,.16-.31.44.44,0,0,1,.33-.11.43.43,0,0,1,.31.16,26.52,26.52,0,0,0,4,3.75.49.49,0,0,1,.12.13.55.55,0,0,1,.06.18.49.49,0,0,1,0,.17.56.56,0,0,1-.09.17.47.47,0,0,1-.13.11A.49.49,0,0,1,151,702Zm-7.16-8.41a.5.5,0,0,1-.27-.05.52.52,0,0,1-.2-.19,25.59,25.59,0,0,1-2.1-5.25.55.55,0,0,1,0-.18.49.49,0,0,1,.06-.17.76.76,0,0,1,.11-.14.46.46,0,0,1,.16-.07.43.43,0,0,1,.35,0,.47.47,0,0,1,.21.27,25.19,25.19,0,0,0,2,5,.47.47,0,0,1,0,.35.49.49,0,0,1-.22.27Zm2.2-6.25a21.15,21.15,0,0,1-3.08.2.44.44,0,0,1-.46-.46.46.46,0,0,1,.13-.32.47.47,0,0,1,.33-.14,20.86,20.86,0,0,0,2.95-.18,19.79,19.79,0,0,0,2.41-.49.37.37,0,0,1,.18,0,.34.34,0,0,1,.17.05.37.37,0,0,1,.13.12.35.35,0,0,1,.08.16.55.55,0,0,1,0,.18.49.49,0,0,1-.06.17.47.47,0,0,1-.11.13.4.4,0,0,1-.16.08,18.45,18.45,0,0,1-2.54.52Zm-8.52-.45h-.15a55.47,55.47,0,0,1-5.41-1.46.45.45,0,0,1-.22-.54.44.44,0,0,1,.18-.24.47.47,0,0,1,.3-.08,54.26,54.26,0,0,0,5.33,1.43.52.52,0,0,1,.27.17.47.47,0,0,1,.1.3.53.53,0,0,1-.12.3.47.47,0,0,1-.29.14Zm16-2.42a.39.39,0,0,1-.24,0,.58.58,0,0,1-.19-.15.46.46,0,0,1,.09-.65,11.6,11.6,0,0,0,2.08-1.94,8.5,8.5,0,0,0,1.28-2.12.47.47,0,0,1,.26-.24.43.43,0,0,1,.35,0,.42.42,0,0,1,.24.25.47.47,0,0,1,0,.35,10.13,10.13,0,0,1-1.43,2.33,12.94,12.94,0,0,1-2.22,2.09.36.36,0,0,1-.23.09ZM141,682.89h-.06a.47.47,0,0,1-.17,0,.4.4,0,0,1-.15-.1.45.45,0,0,1-.1-.14.39.39,0,0,1,0-.18,16.89,16.89,0,0,1,.84-5.64.42.42,0,0,1,.23-.26.45.45,0,0,1,.34,0,.51.51,0,0,1,.27.23.47.47,0,0,1,0,.35,15.89,15.89,0,0,0-.79,5.38.5.5,0,0,1-.12.29.43.43,0,0,1-.28.15Zm-14.08.79a.34.34,0,0,1-.2,0c-.62-.2-1.24-.4-1.86-.58-1.21-.37-2.34-.67-3.44-.93a.46.46,0,0,1-.29-.2.53.53,0,0,1-.06-.35.48.48,0,0,1,.08-.16.37.37,0,0,1,.13-.12.33.33,0,0,1,.16-.07.55.55,0,0,1,.18,0c1.12.26,2.27.57,3.5.94l1.88.58a.46.46,0,0,1,.24.19.43.43,0,0,1,.08.29.45.45,0,0,1-.13.28.5.5,0,0,1-.27.14Zm-26.45,1.8a.58.58,0,0,1-.23,0,.49.49,0,0,1-.18-.14.46.46,0,0,1-.09-.15.55.55,0,0,1,0-.18.48.48,0,0,1,0-.17.53.53,0,0,1,.11-.14,18.58,18.58,0,0,1,4.87-2.93.51.51,0,0,1,.17,0l.18,0a.56.56,0,0,1,.15.1l.1.15a.48.48,0,0,1-.26.6,17.54,17.54,0,0,0-4.62,2.78.45.45,0,0,1-.27.12Zm15.66-4.23H116a27.57,27.57,0,0,0-5.45,0,.47.47,0,0,1-.3-.1.43.43,0,0,1-.15-.28.45.45,0,0,1,.06-.32.47.47,0,0,1,.25-.19,28.07,28.07,0,0,1,5.65,0,.47.47,0,0,1,.31.16.48.48,0,0,1,.1.33.43.43,0,0,1-.13.26.38.38,0,0,1-.26.13Zm41.66-6.51a.43.43,0,0,1-.33-.08.51.51,0,0,1-.19-.29,5.91,5.91,0,0,0-2.07-3.65,5.63,5.63,0,0,0-.72-.48.51.51,0,0,1-.14-.26.42.42,0,0,1,0-.29.41.41,0,0,1,.21-.2.42.42,0,0,1,.29,0,6.69,6.69,0,0,1,3.25,4.77.43.43,0,0,1-.08.33.44.44,0,0,1-.29.19Zm-13.14-2.08a.44.44,0,0,1-.2,0,.42.42,0,0,1-.18-.11.4.4,0,0,1-.1-.15.58.58,0,0,1,0-.18.47.47,0,0,1,0-.17.4.4,0,0,1,.1-.15,11.32,11.32,0,0,1,4.89-2.94.47.47,0,0,1,.17,0,.49.49,0,0,1,.17.06l.14.11a.89.89,0,0,1,.08.17.47.47,0,0,1,0,.17.84.84,0,0,1-.05.17.41.41,0,0,1-.12.14.35.35,0,0,1-.16.08,10.36,10.36,0,0,0-4.51,2.71.49.49,0,0,1-.27.15Z"/><path class="cls-17" d="M179.35,712.66a.44.44,0,0,1-.32-.07,9.6,9.6,0,0,0-2.31-1.1.34.34,0,0,1-.17-.08.53.53,0,0,1-.12-.14.41.41,0,0,1-.05-.18.4.4,0,0,1,0-.19.39.39,0,0,1,.1-.16.42.42,0,0,1,.15-.11.37.37,0,0,1,.18,0,.39.39,0,0,1,.18,0,10.3,10.3,0,0,1,2.54,1.18.37.37,0,0,1,.12.13.33.33,0,0,1,.07.16.54.54,0,0,1,0,.18.39.39,0,0,1-.07.16.5.5,0,0,1-.14.15A.4.4,0,0,1,179.35,712.66Z"/></g></g></svg>