<svg id="Layer_1" data-name="Layer 1" xmlns="http://www.w3.org/2000/svg" viewBox="0 0 1024 1024"><defs><style>.cls-1,.cls-9{fill:none;stroke-miterlimit:10;}.cls-1{stroke:#0c519b;stroke-dasharray:12 8;}.cls-10,.cls-2,.cls-8{fill:#0c519b;}.cls-3{fill:#cadcea;}.cls-4{fill:#a4b6c1;}.cls-14,.cls-5{fill:#e55a28;}.cls-6{fill:#ad4a2b;}.cls-7{fill:#fff;}.cls-8{opacity:0.17;}.cls-9{stroke:#edf4f9;stroke-width:7px;opacity:0.48;}.cls-10{opacity:0.2;}.cls-11{fill:#20c688;opacity:0.35;}.cls-12,.cls-13{fill:#20bb83;}.cls-13{opacity:0.32;}.cls-14{fill-rule:evenodd;}.cls-15{fill:#0c4477;}.cls-16{fill:#ebdbcd;}.cls-17{fill:#110580;}.cls-18{fill:#103d66;}.cls-19{fill:#d7e9f4;}.cls-20{fill:#66a896;}</style></defs><path class="cls-1" d="M766.65,308.81l-465,83.49a60.08,60.08,0,0,0-47.22,75.78h0a60.07,60.07,0,0,0,67.18,42.71l377.93-60.16A60.08,60.08,0,0,1,769,507.73l1.24,33.54a60.07,60.07,0,0,1-44,60.14L274.68,726.13"/><path class="cls-2" d="M815.33,571.52a16.18,16.18,0,0,0-1.71-7.54l-8.88-20.83A31.12,31.12,0,0,0,785.12,527l-41.89-11.6a31.09,31.09,0,0,0-25.08,3.79l-18.33,13.3a16.15,16.15,0,0,0-5.39,5.57c-2.37,4.17-4.48,10.74,1.55,16,7.71,6.76,25.12,3.25,34.12.18a16.32,16.32,0,0,1,9.61-.23l28.6,7.92c3.17.88,6.24,1.82,8.36,4.32,6.16,7.26,19,20.08,29.11,18.25C813.65,583,815.24,576.28,815.33,571.52Z"/><path class="cls-3" d="M780.47,532.45c2,.55,3.77.38,4-.38s-1.23-1.83-3.22-2.38-3.77-.38-4,.38S778.48,531.9,780.47,532.45Z"/><path class="cls-4" d="M780.47,532.44c-2-.55-3.41-1.6-3.2-2.36l-.31,1.13c-.21.76,1.23,1.82,3.2,2.37s3.75.37,4-.39l.32-1.14C784.23,532.83,782.46,533,780.47,532.44Z"/><path class="cls-3" d="M795,536.47c2,.55,3.77.38,4-.38s-1.23-1.83-3.22-2.38-3.77-.37-4,.39S793,535.92,795,536.47Z"/><path class="cls-4" d="M795,536.46c-2-.55-3.41-1.6-3.2-2.36l-.31,1.13c-.21.76,1.22,1.82,3.2,2.37s3.75.38,4-.39l.31-1.13C798.77,536.85,797,537,795,536.46Z"/><path class="cls-3" d="M788.59,531.38c2,.55,3.77.38,4-.38s-1.23-1.83-3.21-2.38-3.77-.37-4,.39S786.6,530.83,788.59,531.38Z"/><path class="cls-4" d="M788.59,531.38c-2-.55-3.41-1.61-3.2-2.37l-.32,1.15c-.21.76,1.24,1.81,3.21,2.36s3.75.38,4-.38l.31-1.15C792.35,531.76,790.57,531.93,788.59,531.38Z"/><path class="cls-3" d="M786.8,537.87c2,.55,3.77.38,4-.39s-1.23-1.82-3.22-2.37-3.77-.38-4,.38S784.81,537.32,786.8,537.87Z"/><path class="cls-4" d="M786.8,537.87c-2-.55-3.41-1.61-3.2-2.38l-.32,1.14c-.21.76,1.23,1.83,3.2,2.37s3.75.38,4-.38l.32-1.14C790.56,538.24,788.77,538.41,786.8,537.87Z"/><path class="cls-5" d="M739.78,521.24c3.73,1,7.08.71,7.47-.72s-2.31-3.42-6-4.45-7.07-.71-7.47.72S736.06,520.21,739.78,521.24Z"/><path class="cls-6" d="M739.78,521.24c-3.72-1-6.43-3-6-4.45l-.59,2.14c-.4,1.43,2.31,3.42,6,4.46s7.06.7,7.46-.73l.59-2.14C746.86,521.91,743.51,522.27,739.78,521.24Z"/><path class="cls-5" d="M772.21,540.86c3.72,1,7.07.71,7.46-.72s-2.3-3.43-6-4.46-7.07-.71-7.47.72S768.48,539.82,772.21,540.86Z"/><path class="cls-6" d="M772.22,540.86c-3.74-1-6.43-3-6-4.46l-.59,2.14c-.4,1.44,2.3,3.43,6,4.46s7.06.71,7.46-.72l.59-2.14C779.27,541.56,775.93,541.89,772.22,540.86Z"/><path class="cls-3" d="M757.05,525.19c1,.27,1.85.18,2-.2s-.6-.9-1.57-1.17-1.85-.18-1.95.2S756.08,524.92,757.05,525.19Z"/><path class="cls-4" d="M757.05,525.19c-1-.27-1.7-.8-1.6-1.18l-.16.56c-.1.38.6.9,1.61,1.18s1.87.19,2-.18L759,525C758.9,525.37,758,525.46,757.05,525.19Z"/><path class="cls-3" d="M768.29,528.3c1,.27,1.85.18,2-.2s-.6-.89-1.57-1.16-1.85-.19-2,.19S767.31,528,768.29,528.3Z"/><path class="cls-4" d="M768.29,528.3c-1-.27-1.71-.8-1.6-1.18l-.16.57c-.1.37.6.89,1.6,1.17s1.88.19,2-.18l.16-.57C770.13,528.48,769.26,528.57,768.29,528.3Z"/><path class="cls-4" d="M755.55,534.15l-3.59-1c-.47-.13-.85-.4-.8-.6l.42-1.48c0-.2-.29-.47-.8-.61l-3.58-1c-.47-.13-.94-.09-1,.11l-.42,1.49c0,.19-.48.24-1,.1l-3.58-1c-.47-.14-.94-.09-1,.11l-.53,1.89c-.05.19.29.46.8.6l3.58,1c.47.13.85.4.8.6l-.41,1.49c-.06.19.28.46.79.6l3.58,1c.48.14.94.09,1-.1l.41-1.49c0-.2.48-.25,1-.1l3.58,1c.48.13.94.09,1-.11l.52-1.89C756.36,534.55,756,534.28,755.55,534.15Z"/><path class="cls-3" d="M756,532.41l-3.58-1c-.48-.13-.85-.41-.8-.6l.41-1.49c.06-.2-.28-.46-.79-.6l-3.59-1c-.47-.13-.93-.09-1,.1l-.41,1.49c-.06.2-.48.25-1,.11l-3.58-1c-.47-.13-.93-.1-1,.1l-.52,1.89c-.06.2.28.46.79.61l3.59,1c.47.13.85.41.79.6l-.41,1.49c-.05.19.29.46.8.6l3.58,1c.47.13.94.09,1-.1l.41-1.49c.06-.2.49-.25,1-.11l3.58,1c.47.13.94.09,1-.11l.53-1.89C756.84,532.79,756.5,532.54,756,532.41Z"/><rect class="cls-2" x="387.04" y="263.77" width="249.78" height="509.38" rx="39.27"/><rect class="cls-7" x="393.46" y="271.22" width="236.94" height="494.47" rx="35.22"/><path class="cls-8" d="M426.22,271.22h171.4A32.77,32.77,0,0,1,630.4,304v50.36a0,0,0,0,1,0,0H393.46a0,0,0,0,1,0,0V304A32.77,32.77,0,0,1,426.22,271.22Z"/><rect class="cls-9" x="395.12" y="275.36" width="233.61" height="486.2" rx="29.96"/><rect class="cls-10" x="444.78" y="317.79" width="137.37" height="19.06" rx="9.53"/><rect class="cls-10" x="598.22" y="317.79" width="19.06" height="19.06" rx="9.53"/><rect class="cls-10" x="409.65" y="317.79" width="19.06" height="19.06" rx="9.53"/><rect class="cls-10" x="409.65" y="376.4" width="19.06" height="19.06" rx="9.53"/><rect class="cls-8" x="430.49" y="399.44" width="185.15" height="60.06" rx="5"/><path class="cls-10" d="M435.49,399.44h13a0,0,0,0,1,0,0v60.06a0,0,0,0,1,0,0h-13a5,5,0,0,1-5-5V404.44A5,5,0,0,1,435.49,399.44Z"/><rect class="cls-10" x="409.65" y="470.6" width="19.06" height="19.06" rx="9.53"/><rect class="cls-11" x="430.49" y="493.64" width="185.15" height="60.06" rx="5"/><path class="cls-12" d="M435.49,493.64h13a0,0,0,0,1,0,0V553.7a0,0,0,0,1,0,0h-13a5,5,0,0,1-5-5V498.64A5,5,0,0,1,435.49,493.64Z"/><rect class="cls-10" x="409.65" y="569.14" width="19.06" height="19.06" rx="9.53"/><rect class="cls-8" x="430.49" y="592.17" width="185.15" height="60.06" rx="5"/><path class="cls-10" d="M435.49,592.17h13a0,0,0,0,1,0,0v60.06a0,0,0,0,1,0,0h-13a5,5,0,0,1-5-5V597.17A5,5,0,0,1,435.49,592.17Z"/><rect class="cls-10" x="409.65" y="667.21" width="19.06" height="19.06" rx="9.53"/><rect class="cls-11" x="430.49" y="690.25" width="185.15" height="46.07" rx="5"/><path class="cls-12" d="M435.49,690.25h13a0,0,0,0,1,0,0v46.07a0,0,0,0,1,0,0h-13a5,5,0,0,1-5-5V695.25A5,5,0,0,1,435.49,690.25Z"/><path class="cls-10" d="M541.3,412.91H469a3.83,3.83,0,1,0,0,7.66H541.3a3.83,3.83,0,1,0,0-7.66Z"/><path class="cls-10" d="M510.9,428.32H469a3.83,3.83,0,1,0,0,7.66H510.9a3.83,3.83,0,1,0,0-7.66Z"/><path class="cls-13" d="M541.3,507.61H469a3.83,3.83,0,1,0,0,7.66H541.3a3.83,3.83,0,1,0,0-7.66Z"/><path class="cls-13" d="M510.9,523H469a3.83,3.83,0,1,0,0,7.66H510.9a3.83,3.83,0,1,0,0-7.66Z"/><path class="cls-10" d="M541.3,606.51H469a3.83,3.83,0,1,0,0,7.66H541.3a3.83,3.83,0,1,0,0-7.66Z"/><path class="cls-10" d="M510.9,621.92H469a3.83,3.83,0,1,0,0,7.66H510.9a3.83,3.83,0,1,0,0-7.66Z"/><path class="cls-13" d="M541.3,701.81H469a3.83,3.83,0,1,0,0,7.66H541.3a3.83,3.83,0,1,0,0-7.66Z"/><path class="cls-13" d="M510.9,717.23H469a3.83,3.83,0,1,0,0,7.66H510.9a3.83,3.83,0,1,0,0-7.66Z"/><path class="cls-3" d="M732.45,333.57a7.31,7.31,0,0,0,1,2.64,7.5,7.5,0,0,0,1.91,2.06,7.35,7.35,0,0,0,2.56,1.17,7.13,7.13,0,0,0,2.8.11l58.06-9.27a7.19,7.19,0,0,0,6-8.24L798.33,282a1.79,1.79,0,0,0-.23-.61,1.84,1.84,0,0,0-.44-.48,1.63,1.63,0,0,0-.6-.27,1.58,1.58,0,0,0-.65,0l-69,11a1.67,1.67,0,0,0-.61.23,1.55,1.55,0,0,0-.48.44,1.66,1.66,0,0,0-.27.59,1.79,1.79,0,0,0,0,.65Z"/><path class="cls-2" d="M780.49,251.4l-54.25,22.66a7.3,7.3,0,0,0-2.34,1.57,7.22,7.22,0,0,0-2.09,5.1,7.18,7.18,0,0,0,.55,2.75l3.19,7.46a1.62,1.62,0,0,0,.9.9,1.67,1.67,0,0,0,1.28,0l64.45-26.92a1.66,1.66,0,0,0,.91-2.14l-3.18-7.45a7.15,7.15,0,0,0-1.56-2.35,7.26,7.26,0,0,0-5.1-2.13A7.23,7.23,0,0,0,780.49,251.4Z"/><path class="cls-2" d="M798.06,280.31l-72.27,11.53,2.68,16.76,72.27-11.53Z"/><path class="cls-14" d="M774.9,316.84,767.36,314l-7.52-2.88L762.38,327l6.26-5.08Z"/><path class="cls-15" d="M779,300.54l4.45-.71,6.71-18.27-4.46.71Z"/><path class="cls-15" d="M757,304.05l4.45-.71,6.71-18.26-4.45.71Z"/><path class="cls-15" d="M746,305.81l4.45-.71,6.7-18.26-4.44.71Z"/><path class="cls-15" d="M735,307.57l4.45-.71,6.71-18.26-4.45.71Z"/><path class="cls-15" d="M766.84,257.12l4.15-1.74,15.3,12-4.15,1.73Z"/><path class="cls-15" d="M756.54,261.41l4.15-1.73,15.31,12-4.16,1.74Z"/><path class="cls-15" d="M746.24,265.71,750.4,264l15.31,12-4.17,1.73Z"/><path class="cls-15" d="M735.94,270l4.16-1.74,15.31,12L751.25,282Z"/><path class="cls-15" d="M725.65,274.31l4.16-1.73,15.31,12L741,286.31Z"/><g id="planning-sheets-of-paper-coffee-by-oblik-studio"><path class="cls-2" d="M299.76,460.35l-44.67,31.57a2.7,2.7,0,0,1-3.81-.77l-42.11-62.39a2.86,2.86,0,0,1,.65-3.92l44.68-31.57a2.7,2.7,0,0,1,3.8.77l42.11,62.4A2.85,2.85,0,0,1,299.76,460.35Z"/><path class="cls-3" d="M305.33,448,256.6,472.56a2.73,2.73,0,0,1-3.67-1.32l-33.24-67.73a2.8,2.8,0,0,1,1.19-3.76l48.71-24.58a2.73,2.73,0,0,1,3.68,1.32l33.23,67.73A2.78,2.78,0,0,1,305.33,448Z"/><path class="cls-7" d="M242.59,417.9a5.51,5.51,0,1,0-7-3.44A5.51,5.51,0,0,0,242.59,417.9Z"/><path class="cls-7" d="M250.76,434.35a5.51,5.51,0,1,0-7-3.45A5.51,5.51,0,0,0,250.76,434.35Z"/><path class="cls-7" d="M259,450.79a5.51,5.51,0,1,0-7-3.44A5.5,5.5,0,0,0,259,450.79Z"/><path class="cls-7" d="M271.61,396.22l-20.19,10a1.42,1.42,0,0,1-1.87-.63,1.4,1.4,0,0,1,.63-1.87l20.18-10a1.43,1.43,0,0,1,1.88.63A1.39,1.39,0,0,1,271.61,396.22Z"/><path class="cls-7" d="M266.76,404l-13.2,6.56a1.4,1.4,0,0,1-1.87-.63,1.42,1.42,0,0,1,.63-1.87l13.2-6.56a1.4,1.4,0,0,1,1.24,2.5Z"/><path class="cls-7" d="M288,429.12,267.8,439.17a1.4,1.4,0,0,1-1.25-2.5l20.19-10.05a1.4,1.4,0,1,1,1.24,2.5Z"/><path class="cls-7" d="M283.13,436.92l-13.19,6.56a1.4,1.4,0,0,1-1.25-2.5l13.2-6.56a1.4,1.4,0,1,1,1.24,2.5Z"/><path class="cls-7" d="M279.79,412.67l-20.18,10a1.4,1.4,0,0,1-1.25-2.5l20.19-10a1.4,1.4,0,1,1,1.24,2.5Z"/><path class="cls-7" d="M274.94,420.47,261.75,427a1.4,1.4,0,1,1-1.24-2.5L273.7,418a1.39,1.39,0,1,1,1.24,2.49Z"/><path class="cls-2" d="M239.89,400.9a77.14,77.14,0,0,0-.55,8.32,3.92,3.92,0,0,0-3.27-.71,1.79,1.79,0,0,0-1.37,1.2c0,.11,0,.24-.08.35-.15.72.08,1.73.95,1.91a5.5,5.5,0,0,1,1.89.49,10.79,10.79,0,0,1,2.36,2,1.77,1.77,0,0,0,3-1.5,113.69,113.69,0,0,1-1-11.94A1,1,0,0,0,239.89,400.9Z"/><path class="cls-2" d="M262.76,352.37l-2.25-1a1.53,1.53,0,0,0-2,.8l-15.67,36.45,5,2.16,15.68-36.46A1.5,1.5,0,0,0,262.76,352.37Z"/><path class="cls-16" d="M247.86,390.82l-5-2.17-1,7.74,1.05.45Z"/><path class="cls-2" d="M243,393l.63.7.65.06.67.59-2.06,2.5-1.05-.45.4-3.12Z"/><path class="cls-2" d="M213.79,456.47l.1,0,.4,0c.92,0,1.88-.08,2.89-.09a.26.26,0,0,1,.27.26.25.25,0,0,1-.26.27c-1,0-1.95.05-2.87.09l-.4,0a.27.27,0,0,1-.28-.27A.26.26,0,0,1,213.79,456.47Zm6.56,0,.12,0a24.92,24.92,0,0,1,3.28.46.27.27,0,0,1,.21.32.28.28,0,0,1-.33.21,25,25,0,0,0-3.2-.43.28.28,0,0,1-.26-.29A.35.35,0,0,1,220.35,456.45Zm6.37,1.38a.23.23,0,0,1,.2,0,14.44,14.44,0,0,1,2.93,1.57.27.27,0,0,1,.08.36.29.29,0,0,1-.37.08,15.12,15.12,0,0,0-2.84-1.51.27.27,0,0,1-.14-.35A.26.26,0,0,1,226.72,457.83Zm5.38,3.66a.27.27,0,0,1,.3.06,15.48,15.48,0,0,1,2,2.65.27.27,0,0,1-.09.37.28.28,0,0,1-.38-.08,14.09,14.09,0,0,0-1.95-2.56.28.28,0,0,1,0-.38A.13.13,0,0,1,232.1,461.49Zm-.28,3.88a13.93,13.93,0,0,1,1.72-.59.28.28,0,0,1,.34.19.27.27,0,0,1-.2.33,12.36,12.36,0,0,0-1.65.58,12.12,12.12,0,0,0-1.3.65.26.26,0,0,1-.36-.09.26.26,0,0,1,.09-.37A10.86,10.86,0,0,1,231.82,465.37Zm4.91-1.08a.16.16,0,0,1,.1,0,31.7,31.7,0,0,1,3.29,0,.28.28,0,0,1,.27.28.27.27,0,0,1-.29.26c-1.3,0-2.31,0-3.24,0a.26.26,0,0,1-.29-.24A.32.32,0,0,1,236.73,464.29ZM228,468.16a.21.21,0,0,1,.26,0,.25.25,0,0,1,0,.38,6.59,6.59,0,0,0-.87,1.43,5.4,5.4,0,0,0-.41,1.4.28.28,0,0,1-.3.23.27.27,0,0,1-.23-.31,6.19,6.19,0,0,1,.44-1.54,7.87,7.87,0,0,1,.94-1.53Zm7.39-1.09,0,0a.28.28,0,0,1,.33.19,9.63,9.63,0,0,1,.4,3.32.27.27,0,0,1-.29.24.27.27,0,0,1-.25-.28,8.9,8.9,0,0,0-.38-3.15A.23.23,0,0,1,235.4,467.07Zm7.88-2.64.12,0c.39,0,.77,0,1.15,0,.74,0,1.43,0,2.1,0a.27.27,0,0,1,.28.26.26.26,0,0,1-.26.28c-.68,0-1.38,0-2.14,0-.39,0-.77,0-1.16,0a.27.27,0,0,1-.26-.27A.26.26,0,0,1,243.28,464.43Zm14.78-5.16a.32.32,0,0,1,.27,0,.27.27,0,0,1,.06.38,10.84,10.84,0,0,1-2.32,2.42.26.26,0,0,1-.37,0,.27.27,0,0,1,.05-.38,9.73,9.73,0,0,0,2.19-2.3A.22.22,0,0,1,258.06,459.27Zm-8.25,4.84h.06a16.2,16.2,0,0,0,3.09-.88.27.27,0,0,1,.35.15.26.26,0,0,1-.15.35,16,16,0,0,1-3.21.89.26.26,0,0,1-.31-.21A.28.28,0,0,1,249.81,464.11Zm-22.67,10.2a.28.28,0,0,1,.35.14,3.39,3.39,0,0,0,1.75,1.73,2.84,2.84,0,0,0,.49.17.29.29,0,0,1,.2.33.28.28,0,0,1-.33.2,3.69,3.69,0,0,1-.56-.19,4,4,0,0,1-2-2,.28.28,0,0,1,.12-.36S227.14,474.31,227.14,474.31Zm7.79-.87a.24.24,0,0,1,.23,0,.26.26,0,0,1,.1.36,6.54,6.54,0,0,1-2.34,2.44.27.27,0,0,1-.28-.46,6.09,6.09,0,0,0,2.14-2.25A1,1,0,0,1,234.93,473.44Z"/><path class="cls-5" d="M295.4,434.11a12.18,12.18,0,1,0,.38-17.13A12.12,12.12,0,0,0,295.4,434.11Z"/><path class="cls-5" d="M314.83,440.27l-9.31-9.59a2.52,2.52,0,0,1,.06-3.54l0,0a2.52,2.52,0,0,1,3.54.06l9.29,9.6a2.52,2.52,0,0,1-.06,3.54l0,0A2.49,2.49,0,0,1,314.83,440.27Z"/><path class="cls-7" d="M297.62,432a9.1,9.1,0,1,0,.28-12.78A9,9,0,0,0,297.62,432Z"/><path class="cls-16" d="M299.53,423.19a1.55,1.55,0,0,1,1.2-1.1A1.21,1.21,0,0,1,302,423c.46,1,.76,2.48,2.12,2.7s2.08-.77,2.78-1.61a2.43,2.43,0,0,1,1.34-1c.6-.09,1,.49,1.14,1,.2.67,1.2.23,1-.43a2.11,2.11,0,0,0-3-1.4,6.28,6.28,0,0,0-1.65,1.6c-.36.41-1,1-1.58.72s-.8-1.21-1-1.8a2.69,2.69,0,0,0-1.37-1.6,2.49,2.49,0,0,0-3.16,1.65A.54.54,0,0,0,299.53,423.19Z"/><path class="cls-16" d="M298.6,427.56c.67-1.1,2,.27,2.48.81.67.72,1.42,1.85,2.47,2a3,3,0,0,0,2.42-1.12c.76-.75,1.55-1.33,2.64-.88.63.26,1-.75.38-1a3,3,0,0,0-3,.4c-.69.52-1.68,2.09-2.71,1.34a11.25,11.25,0,0,1-1.32-1.35,6.77,6.77,0,0,0-1.36-1.26,2.06,2.06,0,0,0-2.89.41C297.38,427.51,298.24,428.16,298.6,427.56Z"/></g><path class="cls-2" d="M793.13,551.68l.09-.09.44-.28c1-.63,2.08-1.3,3.22-2a.31.31,0,0,1,.25,0,.35.35,0,0,1,.25.41.34.34,0,0,1-.15.22c-1.13.66-2.18,1.31-3.19,1.95l-.45.28a.38.38,0,0,1-.26,0,.36.36,0,0,1-.22-.16.29.29,0,0,1-.05-.2A.32.32,0,0,1,793.13,551.68Zm7.42-4.25.11-.11a32.21,32.21,0,0,1,4-1.6.35.35,0,0,1,.25,0,.29.29,0,0,1,.16.2.31.31,0,0,1,0,.25.39.39,0,0,1-.18.18A32.08,32.08,0,0,0,801,548l-.13,0-.14,0a.42.42,0,0,1-.12-.08.31.31,0,0,1-.08-.11.36.36,0,0,1,0-.18.35.35,0,0,1,.06-.17Zm8.12-2.51.1-.09.13,0a21,21,0,0,1,4.34-.12.38.38,0,0,1,.33.38.32.32,0,0,1-.13.24.38.38,0,0,1-.25.09,19.55,19.55,0,0,0-4.19.11h-.14a.31.31,0,0,1-.13-.06l-.09-.11a.5.5,0,0,1,0-.13.29.29,0,0,1,0-.13A.31.31,0,0,1,808.67,544.92Zm8.47.68a.3.3,0,0,1,.17-.12.38.38,0,0,1,.21,0,19.59,19.59,0,0,1,4,1.71.22.22,0,0,1,.1.09.35.35,0,0,1,.07.12.61.61,0,0,1,0,.14.31.31,0,0,1-.05.12.3.3,0,0,1-.21.17.39.39,0,0,1-.26,0,19,19,0,0,0-3.86-1.64.39.39,0,0,1-.21-.17.36.36,0,0,1,0-.27A.31.31,0,0,1,817.14,545.6Zm2.19,4.59a19,19,0,0,1,1.57-1.78.35.35,0,0,1,.5.5,16.14,16.14,0,0,0-1.5,1.7,14.93,14.93,0,0,0-1,1.58.31.31,0,0,1-.09.11l-.12.06h-.14a.33.33,0,0,1-.13,0,.28.28,0,0,1-.1-.09.27.27,0,0,1-.06-.12.23.23,0,0,1,0-.14.33.33,0,0,1,0-.13,14.82,14.82,0,0,1,1.09-1.66Zm4.88-4.39.09-.08c1.05-.68,2.2-1.34,3.73-2.14a.3.3,0,0,1,.23,0,.35.35,0,0,1,.18.16.33.33,0,0,1,0,.24.32.32,0,0,1-.12.2c-1.51.79-2.64,1.44-3.67,2.11a.35.35,0,0,1-.24.06.39.39,0,0,1-.22-.11.32.32,0,0,1-.09-.23.34.34,0,0,1,.08-.23Zm-7.38,10a.39.39,0,0,1,.14-.12.41.41,0,0,1,.19,0,.33.33,0,0,1,.23.14.36.36,0,0,1,.07.26,8.46,8.46,0,0,0-.07,2.19,6.67,6.67,0,0,0,.45,1.85.36.36,0,0,1,0,.27.31.31,0,0,1-.19.18.32.32,0,0,1-.27,0,.34.34,0,0,1-.19-.2,7.51,7.51,0,0,1-.49-2,9.65,9.65,0,0,1,.07-2.34.4.4,0,0,1,.07-.18Zm7.68-6,0,0a.26.26,0,0,1,.11-.07.35.35,0,0,1,.14,0l.13,0a.5.5,0,0,1,.12.08,12.75,12.75,0,0,1,2.61,3.52.36.36,0,0,1,0,.27.39.39,0,0,1-.18.2.36.36,0,0,1-.27,0,.35.35,0,0,1-.2-.18,12.44,12.44,0,0,0-2.49-3.36.37.37,0,0,1-.1-.22.39.39,0,0,1,.07-.23Zm7.22-8.07a.29.29,0,0,1,.11-.11l1.33-.7c.86-.46,1.64-.91,2.38-1.37a.3.3,0,0,1,.26,0,.34.34,0,0,1,.22.15.35.35,0,0,1,.05.13.33.33,0,0,1,0,.14.27.27,0,0,1-.06.12.47.47,0,0,1-.1.1c-.75.46-1.54.92-2.42,1.39l-1.33.7a.38.38,0,0,1-.23,0,.37.37,0,0,1-.2-.12.39.39,0,0,1-.09-.22.41.41,0,0,1,.07-.22Zm13.41-15.37a.47.47,0,0,1,.13-.11.37.37,0,0,1,.18,0,.31.31,0,0,1,.13,0l.1.09a.37.37,0,0,1,.07.12.33.33,0,0,1,0,.14,13.68,13.68,0,0,1-1,4.23.25.25,0,0,1-.08.12.26.26,0,0,1-.11.07.32.32,0,0,1-.14,0,.31.31,0,0,1-.13,0,.39.39,0,0,1-.19-.19.42.42,0,0,1,0-.27,13.32,13.32,0,0,0,1-4,.36.36,0,0,1,.08-.2Zm-6.22,10.81.06-.05a20.71,20.71,0,0,0,2.94-3,.38.38,0,0,1,.23-.11.39.39,0,0,1,.23.07.34.34,0,0,1,.14.21.34.34,0,0,1,0,.24,22.27,22.27,0,0,1-3.07,3.07.34.34,0,0,1-.26.08.38.38,0,0,1-.24-.13.38.38,0,0,1-.07-.21.32.32,0,0,1,.08-.21Zm-19.11,26.19a.36.36,0,0,1,.23-.13.31.31,0,0,1,.26.06,4.59,4.59,0,0,0,3.11.85,4.67,4.67,0,0,0,.65-.13.34.34,0,0,1,.22.07.3.3,0,0,1,.13.18.37.37,0,0,1,0,.23.29.29,0,0,1-.14.17,6.36,6.36,0,0,1-.76.14,5.2,5.2,0,0,1-3.6-1,.37.37,0,0,1-.14-.22.39.39,0,0,1,.06-.26Zm8.28-6a.4.4,0,0,1,.12-.1l.16,0a.31.31,0,0,1,.13,0,.5.5,0,0,1,.12.08.26.26,0,0,1,.07.11.35.35,0,0,1,0,.14,8.76,8.76,0,0,1-1.06,4.25.31.31,0,0,1-.09.11.23.23,0,0,1-.12.06.32.32,0,0,1-.14,0l-.12,0a.53.53,0,0,1-.11-.09.31.31,0,0,1-.06-.13.2.2,0,0,1,0-.13.28.28,0,0,1,0-.13,8.07,8.07,0,0,0,1-3.93.38.38,0,0,1,.06-.23Z"/><path class="cls-2" d="M707.39,243.62a.35.35,0,0,1,.1.08l.33.39c.78.91,1.6,1.87,2.42,2.89a.36.36,0,0,1,.06.25.41.41,0,0,1-.13.23.44.44,0,0,1-.25.08.35.35,0,0,1-.23-.12c-.82-1-1.62-2-2.4-2.87l-.34-.4a.33.33,0,0,1-.08-.25.35.35,0,0,1,.12-.24.29.29,0,0,1,.19-.08A.32.32,0,0,1,707.39,243.62Zm5.28,6.71a.27.27,0,0,1,.13.1,31.58,31.58,0,0,1,2.18,3.73.36.36,0,0,1,0,.25.41.41,0,0,1-.18.19.31.31,0,0,1-.25,0,.34.34,0,0,1-.2-.15,32.07,32.07,0,0,0-2.13-3.62.31.31,0,0,1-.06-.13.33.33,0,0,1,0-.14.34.34,0,0,1,.06-.12.29.29,0,0,1,.09-.1.32.32,0,0,1,.18-.06.3.3,0,0,1,.18,0Zm3.68,7.66a.48.48,0,0,1,.11.09.34.34,0,0,1,.06.12,20.75,20.75,0,0,1,.75,4.28.37.37,0,0,1-.08.26.37.37,0,0,1-.24.12.39.39,0,0,1-.26-.09.37.37,0,0,1-.12-.24,20,20,0,0,0-.73-4.13.61.61,0,0,1,0-.14.65.65,0,0,1,0-.13.45.45,0,0,1,.09-.1l.13-.07h.13Zm.58,8.48a.43.43,0,0,1,.15.15.39.39,0,0,1,0,.21A19.77,19.77,0,0,1,716,271a.44.44,0,0,1-.19.19.31.31,0,0,1-.13,0,.34.34,0,0,1-.14,0,.35.35,0,0,1-.19-.19.34.34,0,0,1,0-.26,19,19,0,0,0,1-4.05.42.42,0,0,1,.14-.24.35.35,0,0,1,.26-.06A.28.28,0,0,1,716.93,266.47Zm-4.22,2.85a16.22,16.22,0,0,1,2,1.29.39.39,0,0,1,.14.23.36.36,0,0,1-.07.26.43.43,0,0,1-.23.14.35.35,0,0,1-.26-.07,18.25,18.25,0,0,0-1.91-1.23,13.43,13.43,0,0,0-1.72-.8l-.11-.08a.44.44,0,0,1-.08-.11.31.31,0,0,1,0-.13.32.32,0,0,1,0-.14.37.37,0,0,1,.07-.12l.11-.08.13,0a.32.32,0,0,1,.14,0,13.37,13.37,0,0,1,1.8.84Zm5.06,4.18a.22.22,0,0,1,.09.07c.84.94,1.66,2,2.68,3.37a.4.4,0,0,1,0,.24.39.39,0,0,1-.13.2.38.38,0,0,1-.23.06.31.31,0,0,1-.22-.09c-1-1.37-1.82-2.4-2.63-3.32a.37.37,0,0,1-.1-.22.41.41,0,0,1,.08-.24.38.38,0,0,1,.21-.12.33.33,0,0,1,.24,0Zm-11-5.83a.35.35,0,0,1,.14.13.25.25,0,0,1,0,.17.35.35,0,0,1-.1.26.39.39,0,0,1-.25.1,9.32,9.32,0,0,0-2.17.25,6.94,6.94,0,0,0-1.76.72.36.36,0,0,1-.27,0,.35.35,0,0,1-.25-.44.36.36,0,0,1,.17-.21,7.61,7.61,0,0,1,1.94-.79,9.11,9.11,0,0,1,2.33-.27.33.33,0,0,1,.19,0Zm7.05,6.71,0,0,.09.1a.5.5,0,0,1,0,.13.66.66,0,0,1,0,.14.34.34,0,0,1-.06.12,12.81,12.81,0,0,1-3.09,3.1.32.32,0,0,1-.27.06.37.37,0,0,1-.22-.14.32.32,0,0,1-.06-.27.34.34,0,0,1,.15-.22,12.38,12.38,0,0,0,2.95-3,.34.34,0,0,1,.2-.13.38.38,0,0,1,.24,0Zm9,6a.3.3,0,0,1,.13.09c.29.41.58.81.88,1.21.59.79,1.14,1.49,1.71,2.15a.34.34,0,0,1,.08.26.37.37,0,0,1-.12.24l-.12.07a.33.33,0,0,1-.14,0,.22.22,0,0,1-.13,0l-.11-.08c-.57-.68-1.14-1.39-1.73-2.19l-.89-1.21a.39.39,0,0,1-.07-.23.33.33,0,0,1,.09-.21.37.37,0,0,1,.2-.12.37.37,0,0,1,.23,0Zm17.17,11a.3.3,0,0,1,.13.12.49.49,0,0,1,.06.17.59.59,0,0,1,0,.13.35.35,0,0,1-.07.12.31.31,0,0,1-.11.09.32.32,0,0,1-.14,0,13.81,13.81,0,0,1-4.34-.42.23.23,0,0,1-.12-.06.32.32,0,0,1-.1-.1.5.5,0,0,1,0-.13.23.23,0,0,1,0-.14.34.34,0,0,1,.16-.21.36.36,0,0,1,.27,0,13.28,13.28,0,0,0,4.12.4.33.33,0,0,1,.22,0Zm-11.61-4.55a.18.18,0,0,1,.07.05,21.07,21.07,0,0,0,3.38,2.47.34.34,0,0,1,.14.21.41.41,0,0,1,0,.24.32.32,0,0,1-.18.16.33.33,0,0,1-.24,0,21.56,21.56,0,0,1-3.49-2.58.35.35,0,0,1,0-.5.42.42,0,0,1,.2-.1.33.33,0,0,1,.22,0Zm-28.71-15a.34.34,0,0,1,.17.2.42.42,0,0,1,0,.27,4.5,4.5,0,0,0-.39,3.2,4.57,4.57,0,0,0,.22.62.31.31,0,0,1,0,.23.41.41,0,0,1-.16.16.36.36,0,0,1-.23,0,.31.31,0,0,1-.19-.11,4.84,4.84,0,0,1-.25-.73,5.17,5.17,0,0,1,.43-3.7.32.32,0,0,1,.2-.18.34.34,0,0,1,.26,0Zm7.16,7.3a.29.29,0,0,1,.12.1.47.47,0,0,1,.06.15.33.33,0,0,1,0,.14.27.27,0,0,1-.06.12.32.32,0,0,1-.1.1.28.28,0,0,1-.13,0,8.62,8.62,0,0,1-4.36-.42.24.24,0,0,1-.12-.07.44.44,0,0,1-.08-.11.31.31,0,0,1,0-.13.35.35,0,0,1,0-.14.37.37,0,0,1,.07-.12l.11-.08.13,0a.32.32,0,0,1,.14,0,8.12,8.12,0,0,0,4,.39.31.31,0,0,1,.23,0Z"/><path class="cls-17" d="M253.39,774.69a.4.4,0,0,1-.16-.13.37.37,0,0,1,.31-.57h1.79V772.2a.42.42,0,0,1,0-.16.35.35,0,0,1,.08-.13l.12-.09a.39.39,0,0,1,.3,0,.38.38,0,0,1,.12.09.35.35,0,0,1,.08.13.41.41,0,0,1,0,.16v2.52h-2.53A.32.32,0,0,1,253.39,774.69Z"/><path class="cls-17" d="M216.64,774.67a.51.51,0,0,1-.16-.13.47.47,0,0,1-.06-.2.32.32,0,0,1,0-.14.35.35,0,0,1,.08-.13.38.38,0,0,1,.12-.09l.14,0h4.6a.36.36,0,0,1,.26.11.35.35,0,0,1,.11.26.35.35,0,0,1,0,.14.42.42,0,0,1-.08.12.38.38,0,0,1-.12.09l-.14,0h-4.6Zm9.19,0a.39.39,0,0,1-.18-.18.31.31,0,0,1,0-.23.38.38,0,0,1,.13-.22A.35.35,0,0,1,226,774h4.6a.37.37,0,0,1,.24.12.39.39,0,0,1,0,.5.41.41,0,0,1-.24.11H226a.34.34,0,0,1-.14,0Zm9.19,0a.39.39,0,0,1-.18-.18.31.31,0,0,1,0-.23.37.37,0,0,1,.12-.22.4.4,0,0,1,.23-.08h4.6a.39.39,0,0,1,.15,0,.26.26,0,0,1,.13.08.27.27,0,0,1,.09.12.37.37,0,0,1,0,.15.4.4,0,0,1,0,.15.27.27,0,0,1-.09.12.57.57,0,0,1-.13.08.38.38,0,0,1-.15,0h-4.6a.32.32,0,0,1-.14,0Zm9.18,0a.38.38,0,0,1-.08-.63.4.4,0,0,1,.23-.08h4.59a.37.37,0,0,1,0,.74h-4.59a.39.39,0,0,1-.15,0Z"/><path class="cls-17" d="M209.67,774.69v-2.53a.38.38,0,0,1,.11-.26.41.41,0,0,1,.26-.11.38.38,0,0,1,.36.37V774h1.8a.38.38,0,0,1,.26.11.35.35,0,0,1,.11.26.33.33,0,0,1-.11.25.34.34,0,0,1-.26.11Z"/><path class="cls-17" d="M209.9,768.22a.34.34,0,0,1-.16-.13.36.36,0,0,1-.06-.2v-4.28a.32.32,0,0,1,.1-.25.35.35,0,0,1,.26-.12.58.58,0,0,1,.14,0,.36.36,0,0,1,.12.08.42.42,0,0,1,.08.12.35.35,0,0,1,0,.14v4.28a.41.41,0,0,1,0,.18.46.46,0,0,1-.12.12.49.49,0,0,1-.17.06.38.38,0,0,1-.18,0Zm0-8.57a.29.29,0,0,1-.16-.13.33.33,0,0,1-.06-.19V755a.35.35,0,0,1,.12-.24.36.36,0,0,1,.24-.09.37.37,0,0,1,.25.09.35.35,0,0,1,.12.24v4.28a.38.38,0,0,1-.11.26.36.36,0,0,1-.26.11.25.25,0,0,1-.14,0Zm0-8.56a.28.28,0,0,1-.16-.12.36.36,0,0,1-.06-.2v-4.3a.36.36,0,0,1,.11-.25.36.36,0,0,1,.26-.11.38.38,0,0,1,.26.11.35.35,0,0,1,.1.25v4.3a.34.34,0,0,1,0,.17.37.37,0,0,1-.29.19.33.33,0,0,1-.17,0Z"/><path class="cls-17" d="M209.91,742.54a.51.51,0,0,1-.16-.13.47.47,0,0,1-.06-.2v-2.54h2.53l.14,0,.12.08.08.12a.77.77,0,0,1,0,.15.78.78,0,0,1,0,.14.83.83,0,0,1-.08.12l-.12.08a.36.36,0,0,1-.14,0h-1.79v1.8a.32.32,0,0,1,0,.14.36.36,0,0,1-.08.12.25.25,0,0,1-.12.08.32.32,0,0,1-.14,0Z"/><path class="cls-17" d="M216.66,740.38a.4.4,0,0,1-.17-.17.43.43,0,0,1,0-.25.46.46,0,0,1,.13-.21.38.38,0,0,1,.23-.08h4.59a.35.35,0,0,1,.24.12.37.37,0,0,1,.1.25.39.39,0,0,1-.1.25.34.34,0,0,1-.24.11h-4.59A.39.39,0,0,1,216.66,740.38Zm9.19,0a.37.37,0,0,1-.21-.42.39.39,0,0,1,.13-.21.36.36,0,0,1,.23-.08h4.59a.39.39,0,0,1,.15,0,.33.33,0,0,1,.13.07.38.38,0,0,1,.09.13.39.39,0,0,1,0,.3.34.34,0,0,1-.09.12.57.57,0,0,1-.13.08.38.38,0,0,1-.15,0H226a.26.26,0,0,1-.15,0Zm9.19,0a.36.36,0,0,1-.16-.14.31.31,0,0,1-.06-.19.32.32,0,0,1,0-.14.2.2,0,0,1,.08-.12.25.25,0,0,1,.12-.08.32.32,0,0,1,.14,0h4.59a.39.39,0,0,1,.24.12.39.39,0,0,1,0,.5.39.39,0,0,1-.24.12h-4.6a.32.32,0,0,1-.14,0Zm9.18,0a.34.34,0,0,1-.15-.14.4.4,0,0,1-.07-.19.38.38,0,0,1,.37-.37H249a.37.37,0,0,1,0,.74h-4.59l-.15,0Z"/><path class="cls-17" d="M255.56,742.56a.27.27,0,0,1-.15-.13.34.34,0,0,1-.07-.19v-1.8h-1.79a.26.26,0,0,1-.15,0,.33.33,0,0,1-.13-.07.38.38,0,0,1-.09-.13.37.37,0,0,1,0-.15.4.4,0,0,1,0-.15.34.34,0,0,1,.09-.12.57.57,0,0,1,.13-.08.38.38,0,0,1,.15,0h2.52v2.53a.47.47,0,0,1,0,.17.49.49,0,0,1-.13.12.35.35,0,0,1-.34,0Z"/><path class="cls-17" d="M255.56,768.25a.4.4,0,0,1-.15-.14.31.31,0,0,1-.06-.19v-4.29a.35.35,0,0,1,.1-.26.38.38,0,0,1,.26-.11.35.35,0,0,1,.26.11.36.36,0,0,1,.11.26v4.28a.47.47,0,0,1,0,.17.4.4,0,0,1-.13.13.26.26,0,0,1-.17,0,.32.32,0,0,1-.17,0Zm0-8.56a.4.4,0,0,1-.15-.14.4.4,0,0,1-.07-.19v-4.28a.39.39,0,0,1,0-.15.35.35,0,0,1,.08-.13.27.27,0,0,1,.12-.09.3.3,0,0,1,.3,0,.34.34,0,0,1,.12.09.35.35,0,0,1,.08.13.77.77,0,0,1,0,.15v4.28a.38.38,0,0,1-.37.37A.42.42,0,0,1,255.56,759.69Zm0-8.56a.5.5,0,0,1-.15-.14.33.33,0,0,1-.06-.19v-4.29a.36.36,0,0,1,.11-.24.36.36,0,0,1,.5,0,.37.37,0,0,1,.12.24v4.27a.4.4,0,0,1,0,.15.28.28,0,0,1-.08.11.27.27,0,0,1-.12.09l-.14,0Z"/><path class="cls-2" d="M335.7,692.05H285.41a7.63,7.63,0,0,0-7.61,7.64h0a7.63,7.63,0,0,0-7.61-7.64H219.88a1,1,0,0,0-1,1v63.38a1,1,0,0,0,.29.7,1,1,0,0,0,.71.29h51.89a6.54,6.54,0,0,0,2.41,2.54,6.66,6.66,0,0,0,3.37.94h.5a6.63,6.63,0,0,0,5.78-3.46H335.7a1,1,0,0,0,.7-.3,1,1,0,0,0,.3-.71V693.08a1,1,0,0,0-.07-.39.83.83,0,0,0-.22-.33.9.9,0,0,0-.32-.23A1.09,1.09,0,0,0,335.7,692.05Z"/><path class="cls-18" d="M331.92,694.65H284.67a6.88,6.88,0,0,0-6.87,6.9h0a7.06,7.06,0,0,0-.52-2.64,7.19,7.19,0,0,0-1.49-2.24,7,7,0,0,0-2.23-1.49,6.83,6.83,0,0,0-2.63-.53H223.67a1,1,0,0,0-.35.07.84.84,0,0,0-.29.2.81.81,0,0,0-.19.29.84.84,0,0,0-.07.35V752.8a1,1,0,0,0,.06.34.79.79,0,0,0,.2.3.88.88,0,0,0,.64.27h48.68a6,6,0,0,0,5.21,3.12H278a6,6,0,0,0,5.21-3.12h48.69a.94.94,0,0,0,.64-.26,1,1,0,0,0,.26-.65V695.56a.84.84,0,0,0-.07-.35.81.81,0,0,0-.19-.29,1.08,1.08,0,0,0-.29-.2A1,1,0,0,0,331.92,694.65Z"/><path class="cls-19" d="M285.14,685.31h45.28a1,1,0,0,1,.68.28,1,1,0,0,1,.28.68v64.94a1,1,0,0,1-.28.68,1,1,0,0,1-.68.28h-49a3.54,3.54,0,0,1-1.4-.28,3.61,3.61,0,0,1-2-2,3.77,3.77,0,0,1-.28-1.41V692.67a7.36,7.36,0,0,1,7.34-7.36Z"/><path class="cls-3" d="M274.13,752.17H225.19a1,1,0,0,1-.68-.28,1,1,0,0,1-.28-.68V686.27a1,1,0,0,1,.28-.68,1,1,0,0,1,.68-.28h45.27a7.36,7.36,0,0,1,7.34,7.36V748.5a3.77,3.77,0,0,1-.28,1.41,3.72,3.72,0,0,1-.8,1.19,3.57,3.57,0,0,1-1.19.8A3.53,3.53,0,0,1,274.13,752.17Z"/><path class="cls-7" d="M234.86,717.38a3.74,3.74,0,1,0-3.73-3.74A3.73,3.73,0,0,0,234.86,717.38Z"/><path class="cls-7" d="M268.22,711.12H242.66a.78.78,0,1,0,0,1.56h25.56a.78.78,0,1,0,0-1.56Z"/><path class="cls-7" d="M260.31,714.73H242.66a.79.79,0,1,0,0,1.57h17.65a.79.79,0,0,0,0-1.57Z"/><path class="cls-7" d="M234.86,742.85a3.74,3.74,0,1,0-3.73-3.74A3.74,3.74,0,0,0,234.86,742.85Z"/><path class="cls-7" d="M268.22,740.2H242.66a.78.78,0,1,0,0,1.56h25.56a.78.78,0,1,0,0-1.56Z"/><path class="cls-7" d="M260.31,736.58H242.66a.79.79,0,1,0,0,1.57h17.65a.79.79,0,0,0,0-1.57Z"/><path class="cls-7" d="M234.86,730.12a3.74,3.74,0,1,0-3.73-3.74A3.74,3.74,0,0,0,234.86,730.12Z"/><path class="cls-7" d="M268.22,727.47H242.66a.78.78,0,1,0,0,1.56h25.56a.78.78,0,1,0,0-1.56Z"/><path class="cls-7" d="M264.26,723.85h-21.6a.79.79,0,1,0,0,1.57h21.6a.79.79,0,0,0,0-1.57Z"/><path class="cls-7" d="M289.29,717.38a3.74,3.74,0,1,0-3.73-3.74A3.73,3.73,0,0,0,289.29,717.38Z"/><path class="cls-7" d="M322.66,727.49H297.09a.79.79,0,0,0-.78.79.78.78,0,0,0,.78.78h25.57a.78.78,0,0,0,.78-.78A.79.79,0,0,0,322.66,727.49Z"/><path class="cls-7" d="M314.74,723.88H297.09a.79.79,0,0,0,0,1.57h17.65a.79.79,0,0,0,0-1.57Z"/><path class="cls-7" d="M289.29,742.85a3.74,3.74,0,1,0-3.73-3.74A3.74,3.74,0,0,0,289.29,742.85Z"/><path class="cls-7" d="M322.66,711.12H297.09a.78.78,0,0,0,0,1.56h25.57a.78.78,0,0,0,0-1.56Z"/><path class="cls-7" d="M314.74,714.73H297.09a.79.79,0,0,0,0,1.57h17.65a.79.79,0,0,0,0-1.57Z"/><path class="cls-7" d="M289.29,730.12a3.74,3.74,0,1,0-3.73-3.74A3.74,3.74,0,0,0,289.29,730.12Z"/><path class="cls-7" d="M322.66,736.64H297.09a.79.79,0,0,0,0,1.57h25.57a.79.79,0,0,0,0-1.57Z"/><path class="cls-7" d="M318.7,740.26H297.09a.78.78,0,0,0,0,1.56H318.7a.78.78,0,1,0,0-1.56Z"/><path class="cls-20" d="M254.89,691.68a67.82,67.82,0,0,0-5.11,6.71,5.51,5.51,0,0,0-3.39-2.17,2.74,2.74,0,0,0-2.24.36l-.27.25a1.24,1.24,0,0,0,.08,2.06,8.09,8.09,0,0,1,1.92,1.3,11,11,0,0,1,1.63,2.81c.72,1.66,3.65,1.73,4.29.2a86.35,86.35,0,0,1,5.3-10.47C257.75,691.66,255.77,690.68,254.89,691.68Z"/><path class="cls-17" d="M268.82,677.89h-.12a.26.26,0,0,1-.17-.14.29.29,0,0,1,0-.22,8.8,8.8,0,0,1,.65-1.63.29.29,0,0,1,.17-.14.28.28,0,0,1,.22,0,.29.29,0,0,1,.14.17.34.34,0,0,1,0,.22,7.35,7.35,0,0,0-.61,1.51.29.29,0,0,1-.08.14A.34.34,0,0,1,268.82,677.89Z"/><path class="cls-17" d="M316.27,689.05h-.1l-.41-.1c-1-.22-1.95-.45-3-.72a.28.28,0,0,1-.16-.14.26.26,0,0,1,0-.21.31.31,0,0,1,.13-.17.28.28,0,0,1,.2,0c1,.27,2,.5,3,.72l.42.09a.34.34,0,0,1,.18.13.29.29,0,0,1,0,.22.28.28,0,0,1-.08.15A.46.46,0,0,1,316.27,689.05Zm-6.73-1.84a.15.15,0,0,1-.13,0,24.94,24.94,0,0,1-3.23-1.39.33.33,0,0,1-.13-.16.3.3,0,0,1,0-.21.31.31,0,0,1,.16-.14.37.37,0,0,1,.21,0,24.21,24.21,0,0,0,3.15,1.34l.1.06.07.09a.43.43,0,0,1,0,.11.37.37,0,0,1,0,.11.38.38,0,0,1-.09.13.3.3,0,0,1-.14.06ZM303.41,684h-.11l-.1-.05a17,17,0,0,1-2.57-2.44.27.27,0,0,1-.07-.21.26.26,0,0,1,.1-.19.27.27,0,0,1,.21-.07.26.26,0,0,1,.19.1,16.28,16.28,0,0,0,2.49,2.35.31.31,0,0,1,.07.09.42.42,0,0,1,0,.1.49.49,0,0,1,0,.12l0,.1a.22.22,0,0,1-.09.07Zm-4.5-5.28a.27.27,0,0,1-.17,0,.34.34,0,0,1-.12-.12,16.25,16.25,0,0,1-1.32-3.3.37.37,0,0,1,0-.11.42.42,0,0,1,0-.1.16.16,0,0,1,.07-.09l.1-.05a.29.29,0,0,1,.22,0,.31.31,0,0,1,.13.17,15.82,15.82,0,0,0,1.28,3.17.28.28,0,0,1,0,.22.29.29,0,0,1-.14.17Zm1.38-3.92a13.8,13.8,0,0,1-1.93.13.27.27,0,0,1-.2-.09.31.31,0,0,1-.09-.2.29.29,0,0,1,.09-.2.27.27,0,0,1,.2-.09,12.68,12.68,0,0,0,1.85-.12,13.17,13.17,0,0,0,1.52-.3.2.2,0,0,1,.11,0,.29.29,0,0,1,.1,0,.24.24,0,0,1,.09.08.31.31,0,0,1,.05.1.41.41,0,0,1,0,.11.49.49,0,0,1,0,.11.27.27,0,0,1-.07.08l-.1.05a10.68,10.68,0,0,1-1.59.33ZM295,674.5h-.1c-1-.21-2-.5-3.39-.92a.29.29,0,0,1-.13-.14.34.34,0,0,1,0-.2.29.29,0,0,1,.12-.15.3.3,0,0,1,.19-.05,31.33,31.33,0,0,0,3.34.9.3.3,0,0,1,.17.11.31.31,0,0,1,.06.19.27.27,0,0,1-.08.18.28.28,0,0,1-.18.09ZM305,673a.22.22,0,0,1-.14,0,.29.29,0,0,1-.18-.3.31.31,0,0,1,.12-.19,7.58,7.58,0,0,0,1.3-1.23,5.57,5.57,0,0,0,.81-1.32.25.25,0,0,1,.15-.15.28.28,0,0,1,.22,0,.31.31,0,0,1,.16.16.28.28,0,0,1,0,.22,6.2,6.2,0,0,1-.89,1.46,8.21,8.21,0,0,1-1.39,1.31.25.25,0,0,1-.15.06Zm-7.88-1h0a.2.2,0,0,1-.11,0,.21.21,0,0,1-.1-.06.47.47,0,0,1-.06-.09.22.22,0,0,1,0-.11,10.38,10.38,0,0,1,.52-3.54.28.28,0,0,1,.14-.16.28.28,0,0,1,.22,0,.3.3,0,0,1,.17.14.28.28,0,0,1,0,.22,10.18,10.18,0,0,0-.49,3.38.3.3,0,0,1-.08.18.26.26,0,0,1-.17.09Zm-8.83.5h-.13l-1.16-.37c-.77-.23-1.47-.42-2.17-.58a.27.27,0,0,1-.17-.13.26.26,0,0,1,0-.21.22.22,0,0,1,0-.11.27.27,0,0,1,.08-.07.21.21,0,0,1,.1,0h.11c.71.17,1.43.36,2.2.59l1.18.37a.28.28,0,0,1,.15.11.32.32,0,0,1,0,.19.3.3,0,0,1-.08.17.26.26,0,0,1-.17.09Zm-16.6,1.13a.34.34,0,0,1-.14,0l-.12-.08a.31.31,0,0,1-.05-.1.45.45,0,0,1,0-.11.2.2,0,0,1,0-.11l.07-.09a11.56,11.56,0,0,1,3.05-1.83l.11,0a.2.2,0,0,1,.11,0,.21.21,0,0,1,.1.06l.06.09a.28.28,0,0,1,0,.22.26.26,0,0,1-.15.16,11,11,0,0,0-2.9,1.74.3.3,0,0,1-.17.08ZM281.5,671h-.07a17,17,0,0,0-3.42,0,.33.33,0,0,1-.19-.06.31.31,0,0,1-.09-.18.28.28,0,0,1,0-.2.3.3,0,0,1,.15-.12,17.55,17.55,0,0,1,3.55,0,.3.3,0,0,1,.19.1.33.33,0,0,1,.07.21.32.32,0,0,1-.09.17.3.3,0,0,1-.16.08Zm26.14-4.08a.29.29,0,0,1-.33-.24,3.68,3.68,0,0,0-1.3-2.28,2.77,2.77,0,0,0-.45-.31.26.26,0,0,1-.09-.16.28.28,0,0,1,0-.18.29.29,0,0,1,.14-.13.36.36,0,0,1,.18,0,6,6,0,0,1,.52.36,4.3,4.3,0,0,1,1.52,2.63.34.34,0,0,1-.05.22.29.29,0,0,1-.19.11Zm-8.25-1.31a.3.3,0,0,1-.13,0,.41.41,0,0,1-.11-.07.27.27,0,0,1-.08-.2.2.2,0,0,1,0-.11.21.21,0,0,1,.06-.1,7.17,7.17,0,0,1,3.07-1.84.2.2,0,0,1,.11,0,.23.23,0,0,1,.11,0,.3.3,0,0,1,.08.08.31.31,0,0,1,.05.1.37.37,0,0,1,0,.11.49.49,0,0,1,0,.11.18.18,0,0,1-.07.08l-.1,0a6.58,6.58,0,0,0-2.83,1.7.26.26,0,0,1-.17.09Z"/><path class="cls-17" d="M321.18,690.68a.25.25,0,0,1-.19,0,6.72,6.72,0,0,0-1.46-.69.31.31,0,0,1-.18-.14.35.35,0,0,1,0-.11.25.25,0,0,1,0-.12.27.27,0,0,1,.06-.1.22.22,0,0,1,.09-.07l.11,0,.12,0a7,7,0,0,1,1.59.74l.08.08a.36.36,0,0,1,0,.11.2.2,0,0,1,0,.11.3.3,0,0,1,0,.1.26.26,0,0,1-.09.09A.22.22,0,0,1,321.18,690.68Z"/></svg>