<svg xmlns="http://www.w3.org/2000/svg" viewBox="0 0 606.67 522.29"><defs><style>.cls-1,.cls-10{fill:none;stroke-miterlimit:10;}.cls-1{stroke:#0c519b;stroke-dasharray:12 8;}.cls-2,.cls-7,.cls-9{fill:#0c519b;}.cls-3{fill:#cadcea;}.cls-4{fill:#a4b6c1;}.cls-16,.cls-5{fill:#fd6a7b;}.cls-6{fill:#d85b6d;}.cls-7{opacity:0.2;}.cls-8{fill:#fff;}.cls-9{opacity:0.17;}.cls-10{stroke:#edf4f9;stroke-width:7px;opacity:0.48;}.cls-11{fill:#20c688;opacity:0.35;}.cls-12,.cls-15{fill:#20bb83;}.cls-13{fill:#fdedd8;}.cls-14{fill:#fda133;}.cls-15{opacity:0.32;}.cls-16{fill-rule:evenodd;}.cls-17{fill:#0c4477;}.cls-18{fill:#ebdbcd;}</style></defs><g id="Layer_2" data-name="Layer 2"><g id="Layer_1-2" data-name="Layer 1"><path class="cls-1" d="M558,58,93,141.45a60.08,60.08,0,0,0-47.23,75.78h0a60.09,60.09,0,0,0,67.18,42.71l377.94-60.16a60.07,60.07,0,0,1,69.48,57.1l1.25,33.54a60.08,60.08,0,0,1-44,60.13L66,475.28"/><path class="cls-2" d="M606.66,320.67a16.18,16.18,0,0,0-1.71-7.54l-8.87-20.83a31.19,31.19,0,0,0-19.62-16.16l-41.89-11.6a31.1,31.1,0,0,0-25.09,3.79l-18.32,13.29a16.2,16.2,0,0,0-5.4,5.58c-2.37,4.16-4.48,10.74,1.55,16,7.71,6.75,25.13,3.24,34.12.18a16.35,16.35,0,0,1,9.62-.23l28.59,7.92c3.17.87,6.24,1.82,8.37,4.32,6.15,7.26,19,20.08,29.1,18.25C605,332.18,606.57,325.43,606.66,320.67Z"/><path class="cls-3" d="M571.8,281.6c2,.55,3.77.38,4-.39s-1.23-1.82-3.21-2.37-3.78-.38-4,.38S569.82,281.05,571.8,281.6Z"/><path class="cls-4" d="M571.8,281.59c-2-.55-3.41-1.6-3.2-2.36l-.31,1.13c-.21.76,1.23,1.82,3.2,2.37s3.75.37,4-.39l.32-1.14C575.56,282,573.79,282.14,571.8,281.59Z"/><path class="cls-3" d="M586.33,285.62c2,.55,3.77.38,4-.38s-1.23-1.83-3.21-2.38-3.77-.38-4,.38S584.34,285.07,586.33,285.62Z"/><path class="cls-4" d="M586.33,285.61c-2-.55-3.41-1.6-3.2-2.36l-.31,1.13c-.21.76,1.22,1.82,3.2,2.37s3.75.37,4-.39l.32-1.14C590.1,286,588.32,286.16,586.33,285.61Z"/><path class="cls-3" d="M579.92,280.53c2,.55,3.77.38,4-.38s-1.23-1.83-3.22-2.38-3.77-.38-4,.38S577.94,280,579.92,280.53Z"/><path class="cls-4" d="M579.92,280.53c-2-.55-3.41-1.61-3.2-2.37l-.31,1.15c-.21.76,1.23,1.81,3.2,2.36s3.75.38,4-.38l.32-1.15C583.69,280.9,581.9,281.08,579.92,280.53Z"/><path class="cls-3" d="M578.13,287c2,.56,3.77.38,4-.38s-1.23-1.82-3.22-2.38-3.77-.37-4,.39S576.14,286.46,578.13,287Z"/><path class="cls-4" d="M578.13,287c-2-.55-3.41-1.6-3.2-2.37l-.32,1.14c-.21.76,1.23,1.83,3.2,2.37s3.76.37,4-.39l.31-1.13C581.89,287.39,580.11,287.56,578.13,287Z"/><path class="cls-5" d="M531.12,270.39c3.72,1,7.07.71,7.46-.72s-2.3-3.42-6-4.46-7.07-.71-7.47.72S527.39,269.36,531.12,270.39Z"/><path class="cls-6" d="M531.12,270.39c-3.73-1-6.43-3-6-4.46l-.59,2.14c-.4,1.44,2.31,3.43,6,4.46s7.06.71,7.46-.72l.59-2.14C538.19,271.06,534.84,271.42,531.12,270.39Z"/><path class="cls-5" d="M563.54,290c3.73,1,7.07.71,7.47-.71s-2.31-3.43-6-4.46-7.07-.71-7.47.72S559.81,289,563.54,290Z"/><path class="cls-6" d="M563.55,290c-3.74-1-6.43-3-6-4.46l-.59,2.14c-.4,1.43,2.3,3.42,6,4.46s7.06.71,7.45-.72l.6-2.14C570.6,290.71,567.26,291,563.55,290Z"/><path class="cls-3" d="M548.38,274.33c1,.27,1.85.19,2-.19s-.6-.9-1.58-1.17-1.85-.18-2,.19S547.41,274.06,548.38,274.33Z"/><path class="cls-4" d="M548.38,274.33c-1-.27-1.7-.8-1.6-1.17l-.15.56c-.11.38.6.9,1.6,1.18s1.87.19,2-.19l.15-.56C550.23,274.52,549.36,274.6,548.38,274.33Z"/><path class="cls-3" d="M559.62,277.45c1,.26,1.85.18,2-.2s-.6-.9-1.57-1.17-1.85-.18-2,.19S558.65,277.18,559.62,277.45Z"/><path class="cls-4" d="M559.62,277.45c-1-.27-1.7-.81-1.6-1.18l-.16.56c-.1.38.6.9,1.61,1.18s1.87.19,2-.19l.16-.56C561.46,277.63,560.59,277.71,559.62,277.45Z"/><path class="cls-4" d="M546.88,283.3l-3.58-1c-.48-.13-.86-.4-.8-.6l.41-1.49c.05-.19-.29-.46-.8-.6l-3.58-1c-.47-.13-.94-.09-1,.11l-.41,1.48c-.06.2-.49.25-1,.1l-3.58-1c-.47-.13-.94-.08-1,.11l-.52,1.89c-.06.2.28.47.79.61l3.58,1c.48.13.86.4.8.6L535.8,285c-.06.19.28.46.8.6l3.58,1c.47.13.94.09,1-.11l.41-1.48c.06-.2.48-.25,1-.11l3.58,1c.47.13.94.08,1-.11l.52-1.9C547.69,283.7,547.35,283.43,546.88,283.3Z"/><path class="cls-3" d="M547.36,281.55l-3.58-1c-.47-.13-.85-.41-.8-.61l.42-1.48c.05-.2-.29-.46-.8-.6l-3.58-1c-.48-.13-.94-.1-1,.1l-.41,1.49c-.05.19-.48.25-1,.11l-3.58-1c-.48-.13-.94-.1-1,.1l-.52,1.89c0,.2.29.46.8.6l3.58,1c.47.14.85.41.79.61l-.41,1.49c0,.19.29.45.8.6l3.58,1c.48.13.94.08,1-.1l.42-1.49c0-.2.48-.25,1-.11l3.58,1c.48.13.94.09,1-.11l.52-1.89C548.18,281.94,547.83,281.68,547.36,281.55Z"/><path class="cls-3" d="M69.39,435.69A16.48,16.48,0,0,1,85.9,452.2v16a16.51,16.51,0,1,1-33,0v-16A16.58,16.58,0,0,1,69.39,435.69Z"/><path class="cls-7" d="M86.7,503.8a2.16,2.16,0,0,0,2.24-2.08,3,3,0,0,0-.32-1.13,21.16,21.16,0,0,0-28.36-9.77,21.4,21.4,0,0,0-9.77,9.77,2,2,0,0,0,1,2.89,2.31,2.31,0,0,0,1.12.32Z"/><path class="cls-7" d="M74,452.52a3.21,3.21,0,0,0,3.2,3.2h9v-3.36a22,22,0,0,0-.32-3.05H77.08A3.08,3.08,0,0,0,74,452.52Z"/><path class="cls-7" d="M74,462.45a3.21,3.21,0,0,0,3.2,3.21h9v-6.41H77.08A3.29,3.29,0,0,0,74,462.45Z"/><path class="cls-7" d="M74,472.55a3.21,3.21,0,0,0,3.2,3.2h7.21a17.15,17.15,0,0,0,1.61-6.24h-9A2.94,2.94,0,0,0,74,472.55Z"/><path class="cls-7" d="M64.91,452.52a3.21,3.21,0,0,0-3.2-3.21H53.05a17.84,17.84,0,0,0-.32,3.05v3.36h9A3.44,3.44,0,0,0,64.91,452.52Z"/><path class="cls-7" d="M64.91,462.45a3.21,3.21,0,0,0-3.2-3.2h-9v6.25h9A3,3,0,0,0,64.91,462.45Z"/><path class="cls-7" d="M64.91,472.55a3.23,3.23,0,0,0-3.21-3.21H52.89a16.18,16.18,0,0,0,1.61,6.25h7.2A3.08,3.08,0,0,0,64.91,472.55Z"/><path class="cls-3" d="M69.39,494.83a27.22,27.22,0,0,1-27.23-27.25v-1.92a3.21,3.21,0,1,1,6.41,0v2.08a20.83,20.83,0,1,0,41.65,0v-2.08a3.21,3.21,0,1,1,6.41,0v2.08A27.19,27.19,0,0,1,69.39,494.83Z"/><path class="cls-2" d="M90.54,519.82a22,22,0,1,0-22-22A22,22,0,0,0,90.54,519.82Z"/><path class="cls-8" d="M90.54,514.86a17,17,0,1,0-17-17A17,17,0,0,0,90.54,514.86Z"/><path class="cls-2" d="M90.54,506.65a8.78,8.78,0,1,0-8.78-8.78A8.78,8.78,0,0,0,90.54,506.65Z"/><rect class="cls-2" x="178.37" y="12.92" width="249.78" height="509.38" rx="39.27"/><rect class="cls-8" x="184.79" y="20.37" width="236.94" height="494.47" rx="35.22"/><path class="cls-9" d="M217.56,20.37H389a32.77,32.77,0,0,1,32.77,32.77V103.5a0,0,0,0,1,0,0H184.79a0,0,0,0,1,0,0V53.14A32.77,32.77,0,0,1,217.56,20.37Z"/><rect class="cls-10" x="186.45" y="24.51" width="233.61" height="486.2" rx="29.96"/><rect class="cls-7" x="236.12" y="66.94" width="137.37" height="19.06" rx="9.53"/><rect class="cls-7" x="389.56" y="66.94" width="19.06" height="19.06" rx="9.53"/><rect class="cls-7" x="200.99" y="66.94" width="19.06" height="19.06" rx="9.53"/><rect class="cls-7" x="200.99" y="125.55" width="19.06" height="19.06" rx="9.53"/><rect class="cls-9" x="221.83" y="148.58" width="185.15" height="60.06" rx="5"/><path class="cls-7" d="M226.83,148.58h13a0,0,0,0,1,0,0v60.06a0,0,0,0,1,0,0h-13a5,5,0,0,1-5-5V153.58A5,5,0,0,1,226.83,148.58Z"/><rect class="cls-7" x="200.99" y="219.75" width="19.06" height="19.06" rx="9.53"/><rect class="cls-11" x="221.83" y="242.79" width="185.15" height="60.06" rx="5"/><path class="cls-12" d="M226.83,242.79h13a0,0,0,0,1,0,0v60.06a0,0,0,0,1,0,0h-13a5,5,0,0,1-5-5V247.79A5,5,0,0,1,226.83,242.79Z"/><rect class="cls-7" x="200.99" y="318.28" width="19.06" height="19.06" rx="9.53"/><rect class="cls-9" x="221.83" y="341.32" width="185.15" height="60.06" rx="5"/><path class="cls-7" d="M226.83,341.32h13a0,0,0,0,1,0,0v60.06a0,0,0,0,1,0,0h-13a5,5,0,0,1-5-5V346.32A5,5,0,0,1,226.83,341.32Z"/><rect class="cls-7" x="200.99" y="416.36" width="19.06" height="19.06" rx="9.53"/><rect class="cls-13" x="221.83" y="439.4" width="185.15" height="46.07" rx="5"/><path class="cls-14" d="M226.83,439.4h13a0,0,0,0,1,0,0v46.07a0,0,0,0,1,0,0h-13a5,5,0,0,1-5-5V444.4A5,5,0,0,1,226.83,439.4Z"/><path class="cls-7" d="M332.63,162.06H260.31a3.83,3.83,0,1,0,0,7.66h72.32a3.83,3.83,0,1,0,0-7.66Z"/><path class="cls-7" d="M302.24,177.47H260.31a3.83,3.83,0,1,0,0,7.66h41.93a3.83,3.83,0,1,0,0-7.66Z"/><path class="cls-15" d="M332.63,256.76H260.31a3.83,3.83,0,1,0,0,7.66h72.32a3.83,3.83,0,1,0,0-7.66Z"/><path class="cls-15" d="M302.24,272.17H260.31a3.83,3.83,0,1,0,0,7.66h41.93a3.83,3.83,0,1,0,0-7.66Z"/><path class="cls-7" d="M332.63,355.66H260.31a3.83,3.83,0,1,0,0,7.66h72.32a3.83,3.83,0,1,0,0-7.66Z"/><path class="cls-7" d="M302.24,371.07H260.31a3.83,3.83,0,1,0,0,7.66h41.93a3.83,3.83,0,1,0,0-7.66Z"/><path class="cls-7" d="M332.63,451H260.31a3.83,3.83,0,1,0,0,7.66h72.32a3.83,3.83,0,1,0,0-7.66Z"/><path class="cls-7" d="M302.24,466.37H260.31a3.83,3.83,0,1,0,0,7.66h41.93a3.83,3.83,0,1,0,0-7.66Z"/><path class="cls-3" d="M523.78,82.72a7.22,7.22,0,0,0,2.89,4.7,7.22,7.22,0,0,0,2.55,1.17,7.34,7.34,0,0,0,2.8.11l58.06-9.27a7.19,7.19,0,0,0,6-8.24l-6.4-40.08a1.72,1.72,0,0,0-.23-.62A1.52,1.52,0,0,0,589,30a1.69,1.69,0,0,0-.59-.28,1.59,1.59,0,0,0-.65,0l-69,11a1.72,1.72,0,0,0-.61.22,1.87,1.87,0,0,0-.48.45,1.66,1.66,0,0,0-.27.59,1.58,1.58,0,0,0,0,.65Z"/><path class="cls-2" d="M571.82.55,517.57,23.21a7.26,7.26,0,0,0-3.89,3.91,7.22,7.22,0,0,0-.54,2.76,7,7,0,0,0,.56,2.75l3.18,7.46a1.69,1.69,0,0,0,.9.9,1.67,1.67,0,0,0,1.28,0l64.45-26.92a1.68,1.68,0,0,0,.92-2.14l-3.19-7.46a7.07,7.07,0,0,0-1.55-2.35A7.41,7.41,0,0,0,577.35.55a7.23,7.23,0,0,0-5.53,0Z"/><path class="cls-2" d="M589.39,29.46,517.12,41l2.68,16.76,72.27-11.53Z"/><path class="cls-16" d="M566.24,66l-7.54-2.88-7.53-2.89,2.54,15.93L560,71.07Z"/><path class="cls-17" d="M570.36,49.68l4.45-.71,6.71-18.26-4.45.71Z"/><path class="cls-17" d="M548.33,53.2l4.44-.71,6.71-18.26-4.44.71Z"/><path class="cls-17" d="M537.31,55l4.45-.71L548.47,36,544,36.7Z"/><path class="cls-17" d="M526.29,56.72l4.46-.72,6.7-18.26-4.45.71Z"/><path class="cls-17" d="M558.17,6.26l4.15-1.73,15.31,12-4.16,1.74Z"/><path class="cls-17" d="M547.87,10.56,552,8.83l15.3,12-4.16,1.74Z"/><path class="cls-17" d="M537.57,14.86l4.16-1.74,15.31,12-4.16,1.73Z"/><path class="cls-17" d="M527.27,19.16l4.17-1.74,15.3,12-4.16,1.74Z"/><path class="cls-17" d="M517,23.45l4.16-1.73,15.31,12-4.16,1.74Z"/><g id="planning-sheets-of-paper-coffee-by-oblik-studio"><path class="cls-2" d="M91.09,209.5,46.42,241.07a2.7,2.7,0,0,1-3.81-.77L.5,177.91A2.86,2.86,0,0,1,1.15,174l44.68-31.57a2.7,2.7,0,0,1,3.8.77l42.12,62.4A2.86,2.86,0,0,1,91.09,209.5Z"/><path class="cls-3" d="M96.66,197.13,47.94,221.7a2.72,2.72,0,0,1-3.68-1.32L11,152.66a2.79,2.79,0,0,1,1.18-3.76l48.71-24.58a2.73,2.73,0,0,1,3.68,1.32l33.24,67.73A2.8,2.8,0,0,1,96.66,197.13Z"/><path class="cls-8" d="M33.92,167.05a5.51,5.51,0,1,0-7-3.45A5.51,5.51,0,0,0,33.92,167.05Z"/><path class="cls-8" d="M42.1,183.5a5.51,5.51,0,1,0-7-3.45A5.51,5.51,0,0,0,42.1,183.5Z"/><path class="cls-8" d="M50.28,199.94a5.51,5.51,0,1,0-7-3.44A5.51,5.51,0,0,0,50.28,199.94Z"/><path class="cls-8" d="M62.94,145.37l-20.19,10a1.39,1.39,0,1,1-1.24-2.49l20.19-10a1.41,1.41,0,0,1,1.87.63A1.39,1.39,0,0,1,62.94,145.37Z"/><path class="cls-8" d="M58.09,153.18,44.9,159.74a1.4,1.4,0,0,1-1.25-2.5l13.2-6.56a1.4,1.4,0,0,1,1.24,2.5Z"/><path class="cls-8" d="M79.32,178.27l-20.19,10a1.4,1.4,0,0,1-1.24-2.5l20.18-10a1.4,1.4,0,0,1,1.25,2.5Z"/><path class="cls-8" d="M74.46,186.06l-13.19,6.57A1.42,1.42,0,0,1,59.4,192a1.4,1.4,0,0,1,.63-1.87l13.19-6.56a1.39,1.39,0,1,1,1.24,2.49Z"/><path class="cls-8" d="M71.13,161.81,50.94,171.86a1.4,1.4,0,1,1-1.24-2.5l20.18-10a1.4,1.4,0,0,1,1.87.62A1.39,1.39,0,0,1,71.13,161.81Z"/><path class="cls-8" d="M66.28,169.62l-13.2,6.56a1.4,1.4,0,1,1-1.24-2.5L65,167.12a1.4,1.4,0,0,1,1.25,2.5Z"/><path class="cls-2" d="M31.22,150a80.15,80.15,0,0,0-.55,8.33,3.89,3.89,0,0,0-3.27-.72A1.82,1.82,0,0,0,26,158.86c0,.11-.05.23-.08.35-.15.72.08,1.73,1,1.9a5.88,5.88,0,0,1,1.89.5,11,11,0,0,1,2.35,2,1.76,1.76,0,0,0,3-1.49,111.44,111.44,0,0,1-1-12A1,1,0,0,0,31.22,150Z"/><path class="cls-2" d="M54.1,101.52l-2.26-1a1.52,1.52,0,0,0-2,.79L34.18,137.8l5,2.16,15.68-36.47A1.49,1.49,0,0,0,54.1,101.52Z"/><path class="cls-18" d="M39.19,140l-5-2.16-1,7.74,1,.45Z"/><path class="cls-2" d="M34.34,142.14l.63.7.65.06.67.59L34.23,146l-1-.45.39-3.12Z"/><path class="cls-5" d="M5.13,205.62a.13.13,0,0,1,.09,0l.4,0c.92,0,1.88-.07,2.89-.08a.25.25,0,0,1,.27.26.26.26,0,0,1-.26.27c-1,0-1.95,0-2.87.09l-.4,0a.26.26,0,0,1-.28-.26A.25.25,0,0,1,5.13,205.62Zm6.55,0a.23.23,0,0,1,.12,0,22.94,22.94,0,0,1,3.28.46.27.27,0,1,1-.11.53,25.18,25.18,0,0,0-3.21-.43.28.28,0,0,1-.25-.29A.3.3,0,0,1,11.68,205.6ZM18.05,207a.3.3,0,0,1,.21,0,15.54,15.54,0,0,1,2.93,1.57.28.28,0,0,1,.07.37.29.29,0,0,1-.37.08,14.77,14.77,0,0,0-2.83-1.51.27.27,0,0,1-.15-.35A.29.29,0,0,1,18.05,207Zm5.38,3.66a.26.26,0,0,1,.3.06,15,15,0,0,1,2,2.64.27.27,0,0,1-.09.38.26.26,0,0,1-.37-.09,15.39,15.39,0,0,0-1.95-2.55.27.27,0,0,1,0-.38A.1.1,0,0,1,23.43,210.64Zm-.28,3.88a15.31,15.31,0,0,1,1.73-.6.28.28,0,0,1,.33.19.28.28,0,0,1-.2.34,12.36,12.36,0,0,0-1.65.58,9.72,9.72,0,0,0-1.29.65.27.27,0,0,1-.28-.46A9.66,9.66,0,0,1,23.15,214.52Zm4.91-1.08.1,0a32.17,32.17,0,0,1,3.3,0,.27.27,0,1,1,0,.54c-1.3,0-2.31,0-3.25,0a.28.28,0,0,1-.29-.24A.3.3,0,0,1,28.06,213.44Zm-8.72,3.87a.24.24,0,0,1,.27,0,.27.27,0,0,1,0,.39,6.36,6.36,0,0,0-.87,1.43,5.38,5.38,0,0,0-.4,1.4.27.27,0,0,1-.54-.08,5.7,5.7,0,0,1,.45-1.54,7.89,7.89,0,0,1,.93-1.54Zm7.4-1.1h0a.26.26,0,0,1,.33.18,9.68,9.68,0,0,1,.4,3.32.27.27,0,0,1-.29.25.26.26,0,0,1-.24-.28,9.38,9.38,0,0,0-.38-3.15A.23.23,0,0,1,26.74,216.21Zm7.88-2.64.12,0,1.14,0c.75,0,1.43,0,2.1,0a.27.27,0,0,1,0,.54c-.68,0-1.38,0-2.14,0-.39,0-.77,0-1.16,0a.28.28,0,0,1-.26-.28A.3.3,0,0,1,34.62,213.57Zm14.78-5.16a.31.31,0,0,1,.26,0,.27.27,0,0,1,.06.38,10.75,10.75,0,0,1-2.31,2.41.26.26,0,0,1-.38,0,.26.26,0,0,1,0-.37,9.92,9.92,0,0,0,2.19-2.3A.22.22,0,0,1,49.4,208.41Zm-8.26,4.85.06,0a15.6,15.6,0,0,0,3.1-.87.26.26,0,0,1,.19.49,15.48,15.48,0,0,1-3.2.9.27.27,0,0,1-.32-.22A.28.28,0,0,1,41.14,213.26Zm-22.67,10.2a.28.28,0,0,1,.35.13,3.48,3.48,0,0,0,1.75,1.74l.49.17a.27.27,0,0,1-.12.53,3.47,3.47,0,0,1-.57-.19,4,4,0,0,1-2-2,.28.28,0,0,1,.12-.36S18.47,223.46,18.47,223.46Zm7.79-.87a.23.23,0,0,1,.23,0,.26.26,0,0,1,.1.36,6.59,6.59,0,0,1-2.33,2.44.27.27,0,0,1-.38-.1.27.27,0,0,1,.09-.37,6,6,0,0,0,2.15-2.25A.55.55,0,0,1,26.26,222.59Z"/><path class="cls-5" d="M86.74,183.25a12.17,12.17,0,1,0,.37-17.12A12.11,12.11,0,0,0,86.74,183.25Z"/><path class="cls-5" d="M106.16,189.42l-9.31-9.59a2.53,2.53,0,0,1,.06-3.54l0,0a2.52,2.52,0,0,1,3.54.06l9.29,9.6a2.51,2.51,0,0,1-.06,3.53l0,0A2.48,2.48,0,0,1,106.16,189.42Z"/><path class="cls-8" d="M89,181.11a9.1,9.1,0,1,0,.28-12.78A9,9,0,0,0,89,181.11Z"/><path class="cls-18" d="M90.86,172.34a1.55,1.55,0,0,1,1.2-1.1,1.21,1.21,0,0,1,1.23.89c.47,1,.77,2.48,2.12,2.7s2.08-.78,2.78-1.61a2.43,2.43,0,0,1,1.34-1c.6-.1,1,.49,1.14,1,.2.66,1.2.23,1-.43a2.11,2.11,0,0,0-3-1.4A6.2,6.2,0,0,0,97,173c-.37.42-1,1-1.59.72s-.8-1.21-1-1.79a2.66,2.66,0,0,0-1.37-1.6,2.49,2.49,0,0,0-3.16,1.64A.55.55,0,0,0,90.86,172.34Z"/><path class="cls-18" d="M89.94,176.71c.66-1.11,2,.27,2.47.81.67.72,1.42,1.85,2.48,2a3,3,0,0,0,2.41-1.12c.76-.75,1.55-1.33,2.64-.89.64.27,1-.75.39-1a3,3,0,0,0-3,.39c-.69.53-1.68,2.1-2.71,1.35a11.24,11.24,0,0,1-1.31-1.36,7.43,7.43,0,0,0-1.37-1.26,2.06,2.06,0,0,0-2.89.42C88.71,176.66,89.57,177.31,89.94,176.71Z"/></g></g></g></svg>