<?xml version="1.0" encoding="utf-8"?>
<!-- Generator: Adobe Illustrator 24.3.0, SVG Export Plug-In . SVG Version: 6.00 Build 0)  -->
<svg version="1.1" id="Layer_1" xmlns="http://www.w3.org/2000/svg" xmlns:xlink="http://www.w3.org/1999/xlink" x="0px" y="0px"
	 viewBox="0 0 395.54 146.73" style="enable-background:new 0 0 395.54 146.73;" xml:space="preserve">
<style type="text/css">
	.st0{fill:#7B6961;}
</style>
<path class="st0" d="M68.32,45.43L56.95,4.25l-2.49,0.69l11.39,41.22C66.66,45.87,67.49,45.63,68.32,45.43z M62.99,47.3L43.61,9.18
	l-2.3,1.17l19.4,38.15C61.46,48.06,62.22,47.66,62.99,47.3z M53.62,54.46c0.29-0.34,0.58-0.67,0.88-0.99L22.35,25.06L20.65,27
	l32.18,28.44C53.08,55.1,53.34,54.78,53.62,54.46z M74.29,44.67L71.9,1.99l-2.58,0.14l2.39,42.7
	C72.57,44.74,73.43,44.68,74.29,44.67z M58.34,50.06L32.01,16.39l-2.03,1.59l26.35,33.71C56.98,51.11,57.65,50.57,58.34,50.06z
	 M91.16,49.93l23.46-35.89l-2.16-1.41L89,48.52C89.74,48.95,90.46,49.43,91.16,49.93z M87.32,2.89l-2.55-0.42l-6.91,42.35
	c0.85,0.09,1.7,0.22,2.55,0.39L87.32,2.89z M86.25,47.1l15.78-39.69l-2.4-0.95l-15.79,39.7C84.66,46.43,85.46,46.74,86.25,47.1z
	 M122.2,20.48l-1.74,1.91c27.44,24.42,30.47,66.55,6.53,94.63c-11.75,13.78-28.17,22.16-46.22,23.6
	c-16.56,1.32-32.67-3.35-45.86-13.2c0,0.02,4.65-5.95,4.65-5.97c10.68,7.91,23.26,11.79,35.79,11.79c17.04,0,33.99-7.17,45.88-21.13
	c10.44-12.24,15.49-27.82,14.21-43.86c-1.24-15.64-8.37-29.89-20.07-40.27l-8.49,9.33c19.43,17.13,21.62,46.84,4.75,66.62
	c-8.26,9.68-19.79,15.57-32.47,16.57c-11.48,0.91-22.67-2.27-31.87-9.01c0,0.01,4.67-6.02,4.69-6.02c7.69,5.57,17,8.19,26.57,7.43
	c10.65-0.85,20.34-5.79,27.27-13.92c14.19-16.64,12.33-41.66-4.08-56.03l-8.48,9.32c5.51,4.74,8.86,11.34,9.43,18.59
	c0.58,7.3-1.72,14.38-6.47,19.95c-4.75,5.57-11.38,8.96-18.68,9.54c-7.16,0.57-14.12-1.64-19.64-6.21l-1.59,2.03
	c12.58,10.36,31.25,8.76,41.87-3.68c5.2-6.09,7.71-13.85,7.07-21.83c-0.57-7.14-3.59-13.71-8.59-18.73c-0.01,0,5-5.51,5.02-5.5
	c13.8,13.64,14.94,35.9,2.16,50.89c-6.49,7.61-15.55,12.23-25.51,13.02c-9.68,0.76-19.09-2.18-26.6-8.3L43.9,112.1
	c10.03,8.1,22.57,12,35.48,10.97c13.37-1.06,25.53-7.27,34.23-17.47c17.27-20.25,15.61-50.38-3.26-68.64c0,0,5.02-5.51,5.02-5.51
	c21.82,20.95,23.79,55.67,3.91,78.98c-20.26,23.76-55.78,26.96-79.96,7.54l-7.83,10.04c12.54,10.03,27.84,15.4,43.8,15.4
	c1.89,0,3.79-0.08,5.69-0.23c18.74-1.49,35.78-10.19,47.98-24.49C153.81,89.55,150.67,45.83,122.2,20.48z M47.94,79.95L7.21,92.73
	l0.77,2.46L48.74,82.4C48.43,81.6,48.17,80.78,47.94,79.95z M50.09,85.43l-37.24,21.26l1.28,2.24l37.26-21.26
	C50.91,86.94,50.48,86.19,50.09,85.43z M53.36,90.36L21.8,118.84l1.73,1.91L55.1,92.26C54.49,91.65,53.91,91.01,53.36,90.36z
	 M48.87,62.38L8.41,47.91l-0.87,2.43l40.5,14.48C48.28,63.99,48.55,63.18,48.87,62.38z M51.4,57.45l-36.47-22l-1.33,2.21L50.1,59.68
	C50.49,58.92,50.93,58.18,51.4,57.45z M46.98,73.86L4.4,77.28l0.21,2.57l42.61-3.42C47.1,75.58,47.02,74.72,46.98,73.86z
	 M47.37,67.72l-42.35-6.1l-0.37,2.55l42.39,6.1C47.11,69.42,47.22,68.57,47.37,67.72z"/>
<g>
	<path class="st0" d="M166.22,73.81c3.05-1.27,5.13-1.79,8.63-2.08c3.5-0.37,4.76-0.37,7.44-0.37h2.46v-1.26
		c0-7.37-3.42-11.09-10.19-11.09c-3.87,0-7.74,1.49-9.45,2.68l-1.19,0.89l-1.79-2.53c0.37-0.3,0.82-0.67,1.49-1.12
		s2.08-1.04,4.24-1.79c2.16-0.82,4.47-1.19,6.85-1.19c8.63,0,13.17,4.84,13.17,14.06v24.04h-3.13v-4.91l0.3-3.35h-0.15
		c0.15,0-3.42,9.15-13.02,9.15c-3.35,0-6.33-0.89-8.86-2.75s-3.8-4.54-3.8-8.04C159.23,78.8,162.13,75.6,166.22,73.81z
		 M172.03,92.05c3.8,0,6.92-1.64,9.23-4.84c2.31-3.27,3.5-6.92,3.5-10.94v-2.01h-2.38c-1.56,0-2.83,0-3.79,0.07
		c-0.97,0-2.31,0.07-4.17,0.3c-1.79,0.15-3.27,0.45-4.46,0.89c-3.57,1.04-7.81,3.65-7.44,8.41
		C162.5,88.18,166.07,92.05,172.03,92.05z"/>
	<path class="st0" d="M203.35,73.81c3.05-1.27,5.13-1.79,8.63-2.08c3.5-0.37,4.76-0.37,7.44-0.37h2.46v-1.26
		c0-7.37-3.42-11.09-10.19-11.09c-3.87,0-7.74,1.49-9.45,2.68l-1.19,0.89l-1.79-2.53c0.37-0.3,0.82-0.67,1.49-1.12
		s2.08-1.04,4.24-1.79c2.16-0.82,4.47-1.19,6.85-1.19c8.63,0,13.17,4.84,13.17,14.06v24.04h-3.13v-4.91l0.3-3.35h-0.15
		c0.15,0-3.42,9.15-13.02,9.15c-3.35,0-6.33-0.89-8.86-2.75s-3.8-4.54-3.8-8.04C196.36,78.8,199.26,75.6,203.35,73.81z
		 M209.16,92.05c3.8,0,6.92-1.64,9.23-4.84c2.31-3.27,3.5-6.92,3.5-10.94v-2.01h-2.38c-1.56,0-2.83,0-3.79,0.07
		c-0.97,0-2.31,0.07-4.17,0.3c-1.79,0.15-3.27,0.45-4.46,0.89c-3.57,1.04-7.81,3.65-7.44,8.41
		C199.63,88.18,203.21,92.05,209.16,92.05z"/>
	<path class="st0" d="M233.34,89.59l2.01-2.38c0.3,0.37,0.74,0.82,1.34,1.34c0.59,0.52,1.86,1.19,3.87,2.08
		c2.01,0.82,4.17,1.26,6.33,1.26c4.84,0,8.56-2.6,8.56-7c0-3.5-3.27-5.8-7.22-7.29c-5.8-2.16-13.25-4.54-13.25-11.61
		c0-3.2,1.12-5.66,3.42-7.37c2.31-1.79,5.13-2.68,8.48-2.68c4.47,0,8.48,1.71,9.9,2.98l1.12,1.04l-1.86,2.53L255,61.53
		c-0.89-0.82-4.54-2.53-8.33-2.53c-4.69,0-8.41,2.23-8.41,6.77c0,3.57,3.27,5.88,7.22,7.44c5.8,2.16,13.25,4.46,13.25,11.68
		c0,5.95-4.99,10.05-11.91,10.05c-5.36,0-10.27-2.23-12.06-4.02L233.34,89.59z"/>
	<path class="st0" d="M269.14,59.9h-4.91v-2.83h4.91V46.5h3.13v10.57h9.75v2.83h-9.75v20.46c0,4.54,1.34,7.81,3.35,9.3
		c2.01,1.41,3.65,1.79,5.51,1.79l1.71-0.15v2.9c-0.52,0.08-1.12,0.15-1.86,0.15c-3.87,0-11.83-1.41-11.83-13.77V59.9z"/>
	<path class="st0" d="M290.27,94.06V56.85h3.12v7.07l-0.3,3.05h0.15c2.01-6.03,6.33-10.42,11.91-10.42l2.16,0.22v3.13
		c-0.59-0.07-1.19-0.15-1.71-0.15c-5.43,0-9.3,4.39-11.09,10.42c-0.74,2.38-1.12,4.99-1.12,7.81v16.07H290.27z"/>
	<path class="st0" d="M314.08,47.4v-5.43h3.72v5.43H314.08z M314.38,94.06V56.85h3.12v37.21H314.38z"/>
	<path class="st0" d="M329.56,94.06V41.96h3.12v29.54h6.62l12.06-14.66h4.09l-13.47,16V73l14.74,21.06h-3.94l-13.47-19.65h-6.62
		v19.65H329.56z"/>
	<path class="st0" d="M368.18,73.81c3.05-1.27,5.13-1.79,8.63-2.08c3.5-0.37,4.76-0.37,7.44-0.37h2.46v-1.26
		c0-7.37-3.42-11.09-10.2-11.09c-3.87,0-7.74,1.49-9.45,2.68l-1.19,0.89l-1.79-2.53c0.37-0.3,0.82-0.67,1.49-1.12
		c0.67-0.45,2.08-1.04,4.24-1.79c2.16-0.82,4.46-1.19,6.85-1.19c8.63,0,13.17,4.84,13.17,14.06v24.04h-3.13v-4.91l0.3-3.35h-0.15
		c0.15,0-3.42,9.15-13.02,9.15c-3.35,0-6.33-0.89-8.86-2.75s-3.79-4.54-3.79-8.04C361.19,78.8,364.09,75.6,368.18,73.81z
		 M373.99,92.05c3.8,0,6.92-1.64,9.23-4.84c2.31-3.27,3.5-6.92,3.5-10.94v-2.01h-2.38c-1.56,0-2.83,0-3.8,0.07
		c-0.97,0-2.31,0.07-4.17,0.3c-1.79,0.15-3.27,0.45-4.46,0.89c-3.57,1.04-7.81,3.65-7.44,8.41
		C364.46,88.18,368.03,92.05,373.99,92.05z"/>
</g>
</svg>
