<svg xmlns="http://www.w3.org/2000/svg" width="120" height="32" viewBox="0 0 120 32">
  <defs>
    <style>
      .cls-1 {
        fill: #f58634;
      }

      .cls-2 {
        fill: #373434;
      }
    </style>
  </defs>
  <g id="Group_10466" data-name="Group 10466" transform="translate(-118.098 -344.806)">
    <g id="Group_71" data-name="Group 71" transform="translate(135.735 350.71)">
      <circle id="Ellipse_5" data-name="Ellipse 5" class="cls-1" cx="3.32" cy="3.32" r="3.32" transform="translate(0 0)"/>
      <path id="Path_174" data-name="Path 174" class="cls-1" d="M243.305,385.275h-3.541a3.306,3.306,0,0,1-.036,2.565H243.3a2.937,2.937,0,0,1,1.67,5.354,4.814,4.814,0,0,1,.988,2.4,5.516,5.516,0,0,0,2.846-4.814h0A5.52,5.52,0,0,0,243.305,385.275Z" transform="translate(-233.365 -383.194)"/>
    </g>
    <g id="Group_72" data-name="Group 72" transform="translate(137.7 360.412)">
      <circle id="Ellipse_6" data-name="Ellipse 6" class="cls-1" cx="3.32" cy="3.32" r="3.32" transform="translate(2.686 0)"/>
      <path id="Path_175" data-name="Path 175" class="cls-1" d="M226.079,457.231l-1.025-3.39a3.305,3.305,0,0,1-2.466.708l1.035,3.424a2.937,2.937,0,0,1-4.641,3.147,4.81,4.81,0,0,1-2.011,1.64,5.517,5.517,0,0,0,5.432,1.332h0A5.52,5.52,0,0,0,226.079,457.231Z" transform="translate(-216.972 -447.932)"/>
    </g>
    <g id="Group_73" data-name="Group 73" transform="translate(122.369 367.641)">
      <circle id="Ellipse_7" data-name="Ellipse 7" class="cls-1" cx="3.32" cy="3.32" r="3.32" transform="translate(10.049 0)"/>
      <path id="Path_176" data-name="Path 176" class="cls-1" d="M148.364,473.126l2.916-2.009a3.307,3.307,0,0,1-1.426-2.133l-2.946,2.029a2.937,2.937,0,0,1-4.412-3.462,4.81,4.81,0,0,1-2.174-1.415,5.516,5.516,0,0,0,.387,5.579h0A5.52,5.52,0,0,0,148.364,473.126Z" transform="translate(-139.744 -465.03)"/>
    </g>
    <g id="Group_74" data-name="Group 74" transform="translate(118.098 352.81)">
      <circle id="Ellipse_8" data-name="Ellipse 8" class="cls-1" cx="3.32" cy="3.32" r="3.32" transform="translate(5.006 9.526)"/>
      <path id="Path_177" data-name="Path 177" class="cls-1" d="M120.348,395.309l2.859,2.089a3.305,3.305,0,0,1,1.542-2.05l-2.888-2.111a2.937,2.937,0,0,1,1.811-5.308,4.812,4.812,0,0,1,.618-2.52,5.516,5.516,0,0,0-5.138,2.207h0A5.52,5.52,0,0,0,120.348,395.309Z" transform="translate(-118.098 -385.368)"/>
    </g>
    <g id="Group_75" data-name="Group 75" transform="translate(125.238 344.806)">
      <circle id="Ellipse_9" data-name="Ellipse 9" class="cls-1" cx="3.32" cy="3.32" r="3.32" transform="translate(0 7.182)"/>
      <path id="Path_178" data-name="Path 178" class="cls-1" d="M170.984,348.626,169.9,352a3.306,3.306,0,0,1,2.431.818l1.094-3.406a2.937,2.937,0,0,1,5.608.047,4.812,4.812,0,0,1,2.586-.207,5.516,5.516,0,0,0-3.713-4.181h0A5.52,5.52,0,0,0,170.984,348.626Z" transform="translate(-166.82 -344.806)"/>
    </g>
    <circle id="Ellipse_10" data-name="Ellipse 10" class="cls-1" cx="2.974" cy="2.974" r="2.974" transform="translate(159.599 348.655)"/>
    <rect id="Rectangle_29" data-name="Rectangle 29" class="cls-2" width="5.066" height="17.016" transform="translate(160.096 356.217)"/>
    <g id="Group_76" data-name="Group 76" transform="translate(219.102 349.073)">
      <rect id="Rectangle_30" data-name="Rectangle 30" class="cls-2" width="5.57" height="21.058" transform="translate(6.734 2.886)"/>
      <rect id="Rectangle_31" data-name="Rectangle 31" class="cls-2" width="4.507" height="18.996" transform="translate(18.996) rotate(90)"/>
    </g>
    <path id="Path_179" data-name="Path 179" class="cls-2" d="M399.279,377.361v.284q0,4.717,0,9.435a.5.5,0,0,1-.261.468,12.511,12.511,0,0,1-2.073,1.179c-.4.174-.813.328-1.229.465a11.8,11.8,0,0,1-2.68.6c-.5.058-1,.1-1.506.115a13.411,13.411,0,0,1-2.414-.095c-.5-.073-1.012-.137-1.512-.233-.339-.066-.667-.183-1-.273a11.9,11.9,0,0,1-2.479-1.008,11.269,11.269,0,0,1-4.831-4.83,10.946,10.946,0,0,1-.952-2.531c-.128-.541-.215-1.087-.295-1.639a15.243,15.243,0,0,1-.067-2.481,11.4,11.4,0,0,1,.163-1.332c.03-.214.075-.426.113-.638a10.536,10.536,0,0,1,.635-2.105,10.894,10.894,0,0,1,3.184-4.352,11.48,11.48,0,0,1,2.7-1.651,9.12,9.12,0,0,1,1.562-.556c.5-.121,1-.267,1.508-.356a14.326,14.326,0,0,1,1.592-.185,13.988,13.988,0,0,1,2.509.03c.584.069,1.168.147,1.747.248a9.2,9.2,0,0,1,1.006.262c.324.1.643.206.963.313a9.544,9.544,0,0,1,1.8.844,10.878,10.878,0,0,1,1.635,1.179c.041.036.082.071.123.107.192.174.2.2.059.405q-.368.561-.739,1.122c-.252.381-.5.764-.759,1.14a1.422,1.422,0,0,1-1.432.671,2.121,2.121,0,0,1-.652-.229c-.489-.248-.962-.526-1.448-.779a6.794,6.794,0,0,0-1.747-.591,10.144,10.144,0,0,0-2.708-.17,6.109,6.109,0,0,0-4.057,1.756,6.4,6.4,0,0,0-1.492,2.3,11.988,11.988,0,0,0-.39,1.207,7.06,7.06,0,0,0-.124.819c-.006.038,0,.078-.01.116a12.4,12.4,0,0,0-.08,2.384c.109.348.057.721.173,1.072.072.216.071.456.136.676.1.332.214.66.341.982a6.515,6.515,0,0,0,.915,1.607,6.341,6.341,0,0,0,1.219,1.2,6.566,6.566,0,0,0,2.579,1.159,8.37,8.37,0,0,0,2.68.161,9.332,9.332,0,0,0,2.375-.608.241.241,0,0,0,.177-.259q0-1.6,0-3.207c0-.2-.028-.224-.234-.225-.535,0-1.07,0-1.605,0-.256,0-.512,0-.768-.009a.924.924,0,0,1-.829-.751,2.671,2.671,0,0,1-.023-.37q0-1.278,0-2.556c0-.046,0-.093,0-.139,0-.1.044-.161.153-.159.047,0,.093,0,.14,0h7.886C399.056,377.345,399.147,377.354,399.279,377.361Z" transform="translate(-208.317 -16.689)"/>
    <g id="Group_77" data-name="Group 77" transform="translate(193.811 348.638)">
      <path id="Path_180" data-name="Path 180" class="cls-2" d="M514.893,372.932c-.076-.2-.148-.4-.222-.59a2.013,2.013,0,0,0-.89-1.09,2.292,2.292,0,0,0-.706-.273c-.15-.028-.3-.076-.485-.125.119-.136.218-.25.319-.362s.183-.19.269-.289a1.282,1.282,0,0,0,.227-1.281,1.658,1.658,0,0,0-1.269-1.132,2.217,2.217,0,0,0-1.986.336,1.579,1.579,0,0,0-.664,1.407.931.931,0,0,0,.231.572c.144.171.306.327.458.492.055.06.1.125.177.215-.16.068-.286.116-.409.174-.215.1-.435.2-.64.319a1.913,1.913,0,0,0-.826,1.168,6.329,6.329,0,0,0-.2,2.529.473.473,0,0,0,.152.353c.125-.038.138-.143.16-.251a5.718,5.718,0,0,0,.091-1.156c0-.2,0-.4.01-.6a2.614,2.614,0,0,1,.538-1.5,1.208,1.208,0,0,1,.661-.444,4.2,4.2,0,0,0,.586-.207.434.434,0,0,0,.107-.727,1.17,1.17,0,0,0-.2-.152,1.036,1.036,0,0,1-.45-1.29,1.144,1.144,0,0,1,.785-.816,2.228,2.228,0,0,1,1.044-.111,1.8,1.8,0,0,1,.93.367,1.249,1.249,0,0,1,.34,1.416.957.957,0,0,1-.24.305c-.088.085-.2.144-.3.223a.87.87,0,0,0-.173.185.338.338,0,0,0,.133.554,1.493,1.493,0,0,0,.453.158,1.8,1.8,0,0,1,1.526,1.451,1.267,1.267,0,0,1,0,.2c-.1.006-.19.015-.28.016-.519,0-1.039.009-1.558,0a.862.862,0,0,0-.587.233c-.214.179-.423.363-.632.548-.714.631-1.424,1.264-2.139,1.893-.308.271-.628.527-.933.8a2.244,2.244,0,0,0-.585.741.2.2,0,0,0,0,.059.225.225,0,0,0,.268-.034c.237-.186.474-.372.706-.565.125-.1.237-.223.358-.332.054-.049.117-.089.21-.158.033.479.062.914.092,1.35a4.684,4.684,0,0,0-.522.16c-.248.108-.31.112-.212.384a1.663,1.663,0,0,0,.257-.014c.3-.06.588-.131.884-.192a2.328,2.328,0,0,1,2.12.614c.218.2.406.426.606.642a.275.275,0,0,1,.075.114c.075.347.149.694.214,1.043a1.969,1.969,0,0,1-.391,1.507,4.439,4.439,0,0,1-.5.546c-.118.122-.253.229-.369.353-.429.46-.206.923.35,1.078.408.114.819.228,1.214.379a2.768,2.768,0,0,1,1.571,1.589,6.939,6.939,0,0,1,.324,1.08c.086.35.038.712.15,1.053a.405.405,0,0,1,0,.117,1.2,1.2,0,0,1-.537.15,1.284,1.284,0,0,0-.272.047c-.053.011-.1.032-.157.04-.221.034-.442.075-.665.095q-.8.07-1.6.12c-.24.015-.271-.036-.333-.258a7,7,0,0,0-.756-1.909,4.977,4.977,0,0,0-1.9-1.727,6.233,6.233,0,0,0-1.542-.567c-.255-.059-.518-.082-.776-.129a1.216,1.216,0,0,1-.663-.3c-.179-.175-.186-.294,0-.471a3.631,3.631,0,0,1,.395-.322,5.258,5.258,0,0,0,1.418-1.452,2.859,2.859,0,0,0,.39-2.222,5.861,5.861,0,0,0-.644-1.558,3.258,3.258,0,0,0-1.139-1.1,4.9,4.9,0,0,0-1.34-.616,5.5,5.5,0,0,0-1.529-.235,5.983,5.983,0,0,0-1.406.131,4.606,4.606,0,0,0-1.652.751c-.162.118-.323.24-.486.357a1.664,1.664,0,0,1-.184.1,1.913,1.913,0,0,1-.031-.227c0-.465,0-.93,0-1.394a2.568,2.568,0,0,1,.053-.366c.007-.046.025-.09.031-.136.04-.3.073-.595.119-.89a4.153,4.153,0,0,1,.112-.494,13.093,13.093,0,0,1,1.543-3.5,12.776,12.776,0,0,1,2.562-2.922,10.941,10.941,0,0,1,2.83-1.742,13.331,13.331,0,0,1,2.7-.8,12.111,12.111,0,0,1,3.15-.147,11.557,11.557,0,0,1,2.325.433,12.318,12.318,0,0,1,3.512,1.631,12.062,12.062,0,0,1,4.136,4.732,10.385,10.385,0,0,1,.814,2.286c.124.557.172,1.129.243,1.7a21.426,21.426,0,0,1,.072,2.737,2.8,2.8,0,0,1-.185.9.234.234,0,0,1-.263.176c-.3-.013-.6-.031-.906-.031-1.062,0-2.124.014-3.186.013-.581,0-1.162-.023-1.743-.031a1.472,1.472,0,0,0-.3.027.183.183,0,0,0-.165.182.731.731,0,0,0,.419.152,36.094,36.094,0,0,0,4.88.026c.3-.02.6-.023.906-.03a1.649,1.649,0,0,1,.224.028c-.033.181-.048.342-.091.5a10.46,10.46,0,0,1-1.869,3.75c-.019.024-.041.047-.058.072a.659.659,0,0,1-.668.27c-.487-.035-.976-.038-1.464-.047a.412.412,0,0,0-.416.252.378.378,0,0,0,.336.154c.31.011.62.014.93.018.208,0,.416,0,.653,0a.563.563,0,0,1-.068.157c-.448.46-.893.924-1.354,1.371a3.193,3.193,0,0,1-.528.376c-.154.1-.218.057-.233-.129a3.712,3.712,0,0,0-.418-1.484,2.261,2.261,0,0,0-1.188-1.023c-.213-.087-.437-.145-.656-.216a.711.711,0,0,1-.309-.223c.071-.082.144-.169.221-.254a3.854,3.854,0,0,0,.674-.937,1.552,1.552,0,0,0-.1-1.57,4.79,4.79,0,0,0-.641-.789.852.852,0,0,1-.256-.684c.017-.58-.007-1.161-.017-1.741,0-.2-.017-.4-.019-.6a1.208,1.208,0,0,1,.255-.755,16.256,16.256,0,0,1,1.8-1.966c.146-.139.288-.281.425-.428.061-.066.139-.14.093-.245a.256.256,0,0,0-.272-.136l-3.3.049Z" transform="translate(-499.707 -364.226)"/>
      <path id="Path_181" data-name="Path 181" class="cls-2" d="M511.652,435.814a.912.912,0,0,1-.517.011c-.153-.023-.307-.038-.459-.065q-.466-.082-.931-.173c-.188-.037-.375-.08-.561-.126-.245-.06-.493-.114-.733-.192-.4-.13-.809-.257-1.2-.419a9.69,9.69,0,0,1-2.266-1.345,18.581,18.581,0,0,1-2.137-2.028,8,8,0,0,1-1.035-1.508,15.749,15.749,0,0,1-1.049-2.189c-.137-.359-.243-.729-.357-1.1a6.344,6.344,0,0,1-.17-.643,2.7,2.7,0,0,1-.025-.439c0-.124,0-.248,0-.372a.9.9,0,0,1,.355-.739,4.54,4.54,0,0,1,1.323-.8,5.663,5.663,0,0,1,1.021-.278,5.121,5.121,0,0,1,1.038-.079,2.69,2.69,0,0,1,.366.052c.061.01.121.031.182.037a4.56,4.56,0,0,1,2.016.764,4.123,4.123,0,0,1,1.171,1.08,3.07,3.07,0,0,1,.419.915,2.759,2.759,0,0,1,.06,1.241,3.174,3.174,0,0,1-1.532,2.364c-.16.093-.317.194-.468.3a.785.785,0,0,0-.342.766.717.717,0,0,0,.573.653c.383.094.764.2,1.153.264a4.885,4.885,0,0,1,3.065,1.716,4.17,4.17,0,0,1,.882,1.713C511.542,435.4,511.6,435.6,511.652,435.814Z" transform="translate(-500.112 -411.668)"/>
      <path id="Path_182" data-name="Path 182" class="cls-2" d="M558.986,425.1a.731.731,0,0,1,.241-.523,2.807,2.807,0,0,1,.25-.207,2.549,2.549,0,0,0,.916-1.514,3.466,3.466,0,0,0,.08-.828,1.828,1.828,0,0,0-.366-1.148,2.637,2.637,0,0,1-.183-.322,2.573,2.573,0,0,0-.939-.879c-.052-.033-.1-.068-.157-.1a.339.339,0,0,1-.175-.326c0-.891-.008-1.781-.009-2.671,0-.241.025-.264.27-.263q2.4.011,4.79.027c.1,0,.192.019.314.031-.089.217-.157.413-.359.5a.962.962,0,0,0-.586.876,3.819,3.819,0,0,0-.013.441q0,1.185,0,2.369c0,.091,0,.182,0,.3a2.16,2.16,0,0,1-.3-.03,2.051,2.051,0,0,0-1.252.048.792.792,0,0,0-.249.165c-.1.093-.073.2.06.213a1.553,1.553,0,0,0,.391-.023,4.262,4.262,0,0,1,1.063-.065,1.353,1.353,0,0,1,.965.579,2.016,2.016,0,0,1,.39.78,1.468,1.468,0,0,1-.353,1.439c-.153.153-.3.309-.45.469a.509.509,0,0,0-.051.749.67.67,0,0,0,.365.171,3.168,3.168,0,0,1,1.111.428,1.935,1.935,0,0,1,.7.926,8.5,8.5,0,0,1,.294,1.23.366.366,0,0,1-.138.407,5.952,5.952,0,0,1-1.258.779c-.367.178-.75.325-1.133.467a1.87,1.87,0,0,1-.424.052c-.04-.259-.071-.494-.114-.727-.055-.294-.123-.585-.181-.878a3.68,3.68,0,0,0-.329-.906,2.941,2.941,0,0,0-1.83-1.6c-.352-.108-.708-.2-1.06-.307A2.87,2.87,0,0,1,558.986,425.1Z" transform="translate(-547.014 -406.042)"/>
      <path id="Path_183" data-name="Path 183" class="cls-2" d="M566.109,409.856a1.479,1.479,0,0,1-.128.231q-.259.312-.533.612a.263.263,0,0,1-.141.064,1.018,1.018,0,0,1-.185,0h-5.394a.734.734,0,0,1,.066-.174,1.522,1.522,0,0,1,1.182-.641q1.057-.023,2.114-.054c.859-.024,1.719-.052,2.578-.075A1.092,1.092,0,0,1,566.109,409.856Z" transform="translate(-547.885 -400.82)"/>
      <path id="Path_184" data-name="Path 184" class="cls-2" d="M551.465,417.167a19.78,19.78,0,0,1,.018,2.789h-.4c-.217,0-.434,0-.651-.009-.162-.008-.189-.036-.192-.2q-.011-.708-.008-1.416a.273.273,0,0,1,.074-.182c.326-.3.658-.587.991-.876A1.33,1.33,0,0,1,551.465,417.167Z" transform="translate(-540.259 -406.721)"/>
    </g>
  </g>
</svg>
