<svg id="Group_3369" data-name="Group 3369" xmlns="http://www.w3.org/2000/svg" width="17.893" height="19.53" viewBox="0 0 17.893 19.53">
  <g id="Group_59" data-name="Group 59" transform="translate(0 0)">
    <path id="Path_355" data-name="Path 355" d="M373.547,251.577a1.112,1.112,0,0,1-.32-.841c.013-2.27.007-4.54.006-6.81a1.811,1.811,0,0,0-2.048-2.052H369.16a1.442,1.442,0,0,0-.952-1.642h-6.25a1.418,1.418,0,0,0-.922,1.61c-.153.012-.275.03-.4.031-.65,0-1.3-.008-1.951.005a1.723,1.723,0,0,0-1.707,1.581,5.587,5.587,0,0,0-.017.563q0,6.763,0,13.527c0,1.308.269,1.721,1.437,2.212h12.152a11.581,11.581,0,0,0,2.029-.791A4.816,4.816,0,0,0,373.547,251.577Zm-10.861-9.7H367.5v1.582h-4.814Zm3.584,16.209a2.829,2.829,0,0,1-.32.038c-2.314,0-4.628,0-6.941.009-.342,0-.442-.095-.441-.441q.017-6.9,0-13.8c0-.307.073-.448.409-.438.663.019,1.326.005,2.021.005.025.253.031.441.064.624a1.159,1.159,0,0,0,1.174,1.006q2.841.01,5.683,0a1.217,1.217,0,0,0,1.238-1.147c.014-.141,0-.286,0-.481.75,0,1.47,0,2.188,0,.3,0,.247.22.247.4q0,2.147,0,4.295v2.069c-2.554-.607-4.632.039-5.918,2.38A4.766,4.766,0,0,0,366.27,258.09Zm3.737.04a3.221,3.221,0,0,1-3.283-3.251,3.259,3.259,0,0,1,3.239-3.266,3.3,3.3,0,0,1,3.277,3.246A3.253,3.253,0,0,1,370.007,258.13Z" transform="translate(-356.963 -240.232)" fill="#ff2366"/>
    <path id="Path_356" data-name="Path 356" d="M383.359,290.409h.127Zm-.537,0c.116,0,.231,0,.347,0C383.053,290.414,382.938,290.416,382.822,290.412Z" transform="translate(-378.632 -282.277)" fill="#ff2366"/>
    <path id="Path_357" data-name="Path 357" d="M382.733,301.379a.779.779,0,0,1-.85.826q-1.974.012-3.949,0a.8.8,0,1,1-.008-1.59c.666-.009,1.331,0,2,0s1.3-.005,1.952,0C382.415,300.621,382.722,300.9,382.733,301.379Z" transform="translate(-373.809 -290.827)" fill="#ff2366"/>
    <path id="Path_358" data-name="Path 358" d="M412.022,281.2c.005.507-.32.808-.906.819-.505.01-1.011,0-1.516,0s-1.011.007-1.517,0a.818.818,0,1,1,.02-1.621q1.5-.009,2.991,0C411.67,280.4,412.016,280.709,412.022,281.2Z" transform="translate(-399.026 -273.886)" fill="#ff2366"/>
    <path id="Path_359" data-name="Path 359" d="M376.961,321.394a.839.839,0,0,1-.94.8c-.506.005-1.012,0-1.517,0s-1.012.007-1.517,0a.789.789,0,0,1-.885-.8.807.807,0,0,1,.905-.823q1.517-.01,3.035,0A.831.831,0,0,1,376.961,321.394Z" transform="translate(-369.649 -307.551)" fill="#ff2366"/>
    <path id="Path_360" data-name="Path 360" d="M380.3,281.158a.766.766,0,0,1-.763.824c-.108.009-.215.011-.324.011l-.214,0h-.048l-.166,0h-.242l-.19,0c-.116,0-.232,0-.347,0-.053,0-.106,0-.159-.009a.793.793,0,0,1-.773-.824.783.783,0,0,1,.771-.782c.562-.026,1.127-.025,1.689,0A.772.772,0,0,1,380.3,281.158Z" transform="translate(-373.814 -273.855)" fill="#ff2366"/>
    <path id="Path_361" data-name="Path 361" d="M425.524,328.51c.573,0,1.147,0,1.72,0a.453.453,0,0,0,.5-.443.447.447,0,0,0-.487-.457q-1.749,0-3.5,0a.589.589,0,0,0-.241.051.449.449,0,0,0,.207.846C424.326,328.513,424.925,328.51,425.524,328.51Z" transform="translate(-412.534 -313.45)" fill="#ff2366"/>
  </g>
</svg>
