<svg xmlns="http://www.w3.org/2000/svg" width="17.972" height="21.67" viewBox="0 0 17.972 21.67">
  <g id="Group_60" data-name="Group 60" transform="translate(0)">
    <g id="Group_57" data-name="Group 57" transform="translate(0 0)">
      <path id="Path_342" data-name="Path 342" d="M221.09,282.384q-.944.971-1.916,1.915a1,1,0,0,1-1.529-.013c-.3-.287-.594-.583-.88-.882a1.029,1.029,0,0,1-.082-1.492,1.054,1.054,0,0,1,1.5.06c.067.059.132.12.266.244.423-.437.815-.861,1.228-1.266a.986.986,0,0,1,1.485-.061A1.026,1.026,0,0,1,221.09,282.384Z" transform="translate(-213.237 -273.511)" fill="#c79d03"/>
      <path id="Path_343" data-name="Path 343" d="M221.09,314.384q-.944.971-1.916,1.915a1,1,0,0,1-1.529-.013c-.3-.287-.594-.583-.88-.882a1.029,1.029,0,0,1-.082-1.492,1.054,1.054,0,0,1,1.5.06c.067.059.132.12.266.244.423-.437.815-.861,1.228-1.266a.986.986,0,0,1,1.485-.061A1.026,1.026,0,0,1,221.09,314.384Z" transform="translate(-213.237 -299.904)" fill="#c79d03"/>
      <path id="Path_344" data-name="Path 344" d="M216,244.437a6.025,6.025,0,0,0-.018-.626,1.912,1.912,0,0,0-1.244-1.636,1.965,1.965,0,0,0-.642-.119c-.049,0-.1,0-.147,0s-.093,0-.14,0c-.622-.007-1.246,0-1.87,0-.117,0-.234-.016-.374-.029a1.592,1.592,0,0,0-1.057-1.792h-6.934l-.027.011a1.592,1.592,0,0,0-1.028,1.78c-.155.011-.282.031-.41.031-.608,0-1.217-.005-1.825,0l-.14,0c-.067,0-.133,0-.2,0a1.96,1.96,0,0,0-1.039.315l-.049.032a1.634,1.634,0,0,0-.608.712l-.027.056c-.007.02-.016.041-.025.063a2.016,2.016,0,0,0-.146.577l-.005.07c-.016.183-.014.369-.014.556q0,5.865,0,11.734v3.274a4.124,4.124,0,0,0,.122,1.154c.185.611.6.937,1.472,1.3h14.79c.827-.349,1.246-.663,1.44-1.226a3.8,3.8,0,0,0,.147-1.23V255.71Q216,250.072,216,244.437ZM204.38,242.06h5.3v1.755h-5.3Zm9.848,17.577c0,.361-.119.464-.487.46-1.913-.011-3.826-.009-5.738-.009H206.07c-1.924,0-3.845,0-5.769.009-.379,0-.491-.1-.489-.489V259.6q.008-3.123.009-6.247,0-4.528-.007-9.055a1.132,1.132,0,0,1,.013-.183v0a.3.3,0,0,1,.277-.289h.593a.044.044,0,0,1,.022,0c.458,0,.92,0,1.393,0h.4c.005.043.009.086.011.126a3.745,3.745,0,0,0,.005.408,1.367,1.367,0,0,0,.678,1.095c.029.016.058.032.086.045a.889.889,0,0,0,.086.038c.04.016.079.029.12.041a1.014,1.014,0,0,0,.128.029c.043.009.088.014.133.02s.09.005.137.005q3.139.011,6.281,0h.014a1.352,1.352,0,0,0,1.373-1.273c.014-.156,0-.316,0-.534h.369c.473,0,.935.005,1.4,0a.051.051,0,0,1,.023,0h.584c.236.036.291.191.291.476q-.005,3.511-.007,7.02v2q0,.68,0,1.357,0,1.114,0,2.224,0,1.354.005,2.706Z" transform="translate(-198.03 -240.23)" fill="#c79d03"/>
      <path id="Path_345" data-name="Path 345" d="M255.225,301.57a.976.976,0,0,1-1.064,1.033c-.517,0-1.031.006-1.548.006-1.131,0-2.261,0-3.39-.006a1,1,0,0,1-1.084-1.019.946.946,0,0,1,.766-.932,1.475,1.475,0,0,1,.308-.036c.833-.01,1.666,0,2.5,0,.815,0,1.627-.006,2.442,0C254.826,300.624,255.211,300.974,255.225,301.57Z" transform="translate(-240.27 -289.878)" fill="#c79d03"/>
      <path id="Path_346" data-name="Path 346" d="M254.216,322.012a1.022,1.022,0,0,1-1.048.993q-.064.006-.128.006c-.632.006-1.267,0-1.9,0s-1.267.008-1.9,0a.986.986,0,0,1-1.106-.995,1.008,1.008,0,0,1,1.133-1.029q1.681-.012,3.364,0l.432,0A1.039,1.039,0,0,1,254.216,322.012Z" transform="translate(-239.621 -306.63)" fill="#c79d03"/>
      <path id="Path_347" data-name="Path 347" d="M252.173,281.356a.96.96,0,0,1-.954,1.031c-.136.01-.27.014-.405.014-.089,0-.178,0-.267,0l-.059,0-.209,0c-.022,0-.047,0-.071,0h-.073l-.158,0c-.079,0-.158,0-.237,0-.146,0-.29,0-.436,0-.065,0-.132-.006-.2-.01a1,1,0,0,1-.967-1.031.981.981,0,0,1,.965-.979c.7-.032,1.41-.03,2.114,0A.968.968,0,0,1,252.173,281.356Z" transform="translate(-239.415 -273.224)" fill="#c79d03"/>
    </g>
  </g>
</svg>
