<svg id="Group_61" data-name="Group 61" xmlns="http://www.w3.org/2000/svg" width="17.77" height="21.426" viewBox="0 0 17.77 21.426">
  <g id="Group_56" data-name="Group 56" transform="translate(0 0)">
    <path id="Path_337" data-name="Path 337" d="M56.8,244.389a5.963,5.963,0,0,0-.018-.619,1.89,1.89,0,0,0-1.23-1.617,1.943,1.943,0,0,0-.635-.117c-.048,0-.1,0-.146,0s-.092,0-.139,0c-.615-.007-1.232,0-1.849,0-.116,0-.231-.016-.37-.028a1.574,1.574,0,0,0-1.045-1.772H44.512l-.027.011A1.574,1.574,0,0,0,43.468,242c-.153.011-.279.03-.405.03-.6,0-1.2-.005-1.8,0l-.139,0c-.066,0-.132,0-.2,0a1.938,1.938,0,0,0-1.027.311l-.048.032a1.616,1.616,0,0,0-.6.7l-.027.055c-.007.02-.016.041-.025.062a1.993,1.993,0,0,0-.144.571l-.005.069c-.016.181-.014.364-.014.549q0,5.8,0,11.6v3.237a4.078,4.078,0,0,0,.121,1.141c.183.6.6.926,1.456,1.287H55.23c.818-.345,1.232-.656,1.424-1.212a3.761,3.761,0,0,0,.146-1.216v-3.692Q56.8,249.961,56.8,244.389Zm-11.49-2.35h5.238v1.735H45.308Zm9.737,17.378c0,.357-.117.459-.482.455-1.891-.011-3.782-.009-5.674-.009H46.979c-1.9,0-3.8,0-5.7.009-.375,0-.485-.1-.483-.483v-.005q.008-3.087.009-6.177,0-4.477-.007-8.953a1.116,1.116,0,0,1,.012-.181v0a.3.3,0,0,1,.274-.286h.587a.044.044,0,0,1,.021,0c.453,0,.91,0,1.378,0h.393c.005.043.009.085.011.124a3.7,3.7,0,0,0,.005.4,1.352,1.352,0,0,0,.67,1.082c.028.016.057.032.085.044a.88.88,0,0,0,.085.037c.039.016.078.028.119.041a1,1,0,0,0,.126.028c.043.009.087.014.132.02s.089.005.135.005q3.1.011,6.211,0h.014a1.337,1.337,0,0,0,1.358-1.258c.014-.155,0-.313,0-.528h.364c.467,0,.924.005,1.379,0a.051.051,0,0,1,.023,0h.578c.233.036.288.188.288.471q-.005,3.471-.007,6.941v1.978q0,.672,0,1.342,0,1.1,0,2.2,0,1.338.005,2.675Z" transform="translate(-39.03 -240.23)" fill="#4791ff"/>
    <path id="Path_338" data-name="Path 338" d="M66.145,301.559a.965.965,0,0,1-1.052,1.022c-.511,0-1.02.006-1.531.006-1.118,0-2.236,0-3.352-.006a.984.984,0,0,1-1.072-1.008.935.935,0,0,1,.757-.922,1.457,1.457,0,0,1,.3-.036c.823-.01,1.647,0,2.468,0,.805,0,1.609-.006,2.414,0C65.75,300.623,66.131,300.97,66.145,301.559Z" transform="translate(-55.809 -289.999)" fill="#4791ff"/>
    <path id="Path_339" data-name="Path 339" d="M95.242,281.388c.006.625-.4,1-1.12,1.012-.625.012-1.25,0-1.875,0s-1.25.01-1.877,0a1.012,1.012,0,1,1,.026-2q1.848-.012,3.7,0C94.807,280.4,95.234,280.781,95.242,281.388Z" transform="translate(-80.793 -273.334)" fill="#4791ff"/>
    <path id="Path_340" data-name="Path 340" d="M60.179,321.591a1.01,1.01,0,0,1-1.036.982q-.063.006-.126.006c-.625.006-1.252,0-1.875,0s-1.252.008-1.877,0a.975.975,0,0,1-1.094-.984,1,1,0,0,1,1.12-1.018q1.662-.012,3.326,0l.427,0A1.027,1.027,0,0,1,60.179,321.591Z" transform="translate(-51.625 -306.454)" fill="#4791ff"/>
    <path id="Path_341" data-name="Path 341" d="M63.128,281.345a.949.949,0,0,1-.944,1.02c-.134.01-.266.014-.4.014-.088,0-.176,0-.264,0l-.058,0-.206,0c-.022,0-.046,0-.07,0h-.072l-.156,0c-.078,0-.156,0-.234,0-.144,0-.287,0-.431,0-.064,0-.13-.006-.2-.01a.984.984,0,0,1-.956-1.02.97.97,0,0,1,.954-.968c.7-.032,1.394-.03,2.09,0A.957.957,0,0,1,63.128,281.345Z" transform="translate(-55.677 -273.305)" fill="#4791ff"/>
  </g>
</svg>
