<svg xmlns="http://www.w3.org/2000/svg" width="17.77" height="19.677" viewBox="0 0 17.77 19.677">
  <g id="Group_3373" data-name="Group 3373" transform="translate(0 0)">
    <path id="Path_348" data-name="Path 348" d="M495.041,251.662a1.13,1.13,0,0,1-.318-.847c.013-2.287.007-4.574.006-6.861a1.812,1.812,0,0,0-2.034-2.067h-2.009a1.455,1.455,0,0,0-.946-1.655h-6.207a1.431,1.431,0,0,0-.915,1.622c-.152.012-.273.031-.395.031-.646,0-1.292-.008-1.938.005a1.721,1.721,0,0,0-1.695,1.593,5.653,5.653,0,0,0-.017.568q0,6.813,0,13.629c0,1.318.267,1.734,1.427,2.229h12.069a11.408,11.408,0,0,0,2.015-.8A4.894,4.894,0,0,0,495.041,251.662Zm-10.786-9.769h4.781v1.593h-4.781Zm3.559,16.331a2.77,2.77,0,0,1-.317.039c-2.3,0-4.6,0-6.894.009-.34,0-.439-.1-.438-.444q.017-6.95,0-13.9c0-.31.072-.451.406-.442.659.019,1.317.005,2.007.005.025.255.031.444.064.629a1.156,1.156,0,0,0,1.166,1.014q2.821.011,5.644,0a1.216,1.216,0,0,0,1.229-1.155c.014-.143,0-.288,0-.485.745,0,1.459,0,2.173,0,.294,0,.246.221.246.406q0,2.163,0,4.327v2.084c-2.536-.611-4.6.039-5.878,2.4A4.856,4.856,0,0,0,487.814,258.225Zm3.711.04a3.222,3.222,0,0,1-3.26-3.275,3.261,3.261,0,0,1,3.216-3.291,3.3,3.3,0,0,1,3.254,3.271A3.256,3.256,0,0,1,491.525,258.265Z" transform="translate(-478.571 -240.232)" fill="#02bc77"/>
    <path id="Path_350" data-name="Path 350" d="M504.3,301.385a.779.779,0,0,1-.844.833q-1.961.012-3.922,0a.8.8,0,0,1-.861-.822.789.789,0,0,1,.854-.78c.661-.009,1.321,0,1.983,0s1.292-.005,1.939,0A.756.756,0,0,1,504.3,301.385Z" transform="translate(-495.44 -290.754)" fill="#02bc77"/>
    <path id="Path_351" data-name="Path 351" d="M533.6,281.2c.005.511-.318.814-.9.826-.5.01-1,0-1.506,0s-1,.007-1.507,0a.823.823,0,1,1,.02-1.633q1.486-.009,2.971,0C533.247,280.4,533.59,280.711,533.6,281.2Z" transform="translate(-520.689 -273.838)" fill="#02bc77"/>
    <path id="Path_352" data-name="Path 352" d="M498.536,321.4a.838.838,0,0,1-.934.8c-.5.005-1.005,0-1.507,0s-1.005.007-1.507,0a.788.788,0,0,1-.878-.8.806.806,0,0,1,.9-.829q1.506-.01,3.014,0A.83.83,0,0,1,498.536,321.4Z" transform="translate(-491.274 -307.454)" fill="#02bc77"/>
    <path id="Path_353" data-name="Path 353" d="M501.883,281.164a.768.768,0,0,1-.758.83c-.107.009-.214.011-.322.011l-.212,0h-.047l-.165,0h-.241l-.189,0c-.116,0-.23,0-.345,0-.053,0-.105,0-.158-.009a.794.794,0,0,1-.767-.83.783.783,0,0,1,.765-.788c.558-.026,1.119-.025,1.678,0A.772.772,0,0,1,501.883,281.164Z" transform="translate(-495.444 -273.806)" fill="#02bc77"/>
    <path id="Path_354" data-name="Path 354" d="M552.662,322.034q-.75.782-1.521,1.543a.79.79,0,0,1-1.214-.01c-.24-.231-.472-.47-.7-.711a.838.838,0,0,1-.065-1.2.829.829,0,0,1,1.191.048c.053.047.1.1.211.2.336-.352.647-.693.975-1.02a.776.776,0,0,1,1.179-.049A.835.835,0,0,1,552.662,322.034Z" transform="translate(-537.615 -307.464)" fill="#02bc77"/>
  </g>
</svg>
